<?xml version="1.0" encoding="UTF-8" standalone="no"?>
<!-- Created with Inkscape (http://www.inkscape.org/) -->

<svg
   width="119.46667"
   height="29.866667"
   id="svg4428"
   version="1.1"
   inkscape:version="1.3 (0e150ed6c4, 2023-07-21)"
   sodipodi:docname="alldesktops.svg"
   xml:space="preserve"
   xmlns:inkscape="http://www.inkscape.org/namespaces/inkscape"
   xmlns:sodipodi="http://sodipodi.sourceforge.net/DTD/sodipodi-0.dtd"
   xmlns:xlink="http://www.w3.org/1999/xlink"
   xmlns="http://www.w3.org/2000/svg"
   xmlns:svg="http://www.w3.org/2000/svg"
   xmlns:rdf="http://www.w3.org/1999/02/22-rdf-syntax-ns#"
   xmlns:cc="http://creativecommons.org/ns#"
   xmlns:dc="http://purl.org/dc/elements/1.1/"><defs
     id="defs4430"><linearGradient
       id="linearGradient3913"><stop
         style="stop-color:#ffffff;stop-opacity:1;"
         offset="0"
         id="stop3915" /><stop
         id="stop3921"
         offset="0.5"
         style="stop-color:#ffffff;stop-opacity:0.49803922;" /><stop
         style="stop-color:#ffffff;stop-opacity:0;"
         offset="1"
         id="stop3917" /></linearGradient><linearGradient
       id="linearGradient3868"><stop
         style="stop-color:#5a5a5a;stop-opacity:1;"
         offset="0"
         id="stop3870" /><stop
         style="stop-color:#646464;stop-opacity:1;"
         offset="1"
         id="stop3872" /></linearGradient><linearGradient
       id="linearGradient3813"><stop
         style="stop-color:#666666;stop-opacity:1;"
         offset="0"
         id="stop3815" /><stop
         style="stop-color:#636363;stop-opacity:1;"
         offset="1"
         id="stop3817" /></linearGradient><linearGradient
       id="linearGradient3787"><stop
         style="stop-color:#e5e5df;stop-opacity:1;"
         offset="0"
         id="stop3789" /><stop
         style="stop-color:#dadad4;stop-opacity:1;"
         offset="1"
         id="stop3791" /></linearGradient><linearGradient
       id="linearGradient3806-3-5-6"><stop
         style="stop-color:#303030;stop-opacity:1;"
         offset="0"
         id="stop3808-6-9-1" /><stop
         style="stop-color:#232323;stop-opacity:1;"
         offset="1"
         id="stop3810-4-6-3" /></linearGradient><linearGradient
       inkscape:collect="always"
       xlink:href="#linearGradient3787"
       id="linearGradient3793"
       x1="40"
       y1="1044.3622"
       x2="40"
       y2="1032.3622"
       gradientUnits="userSpaceOnUse" /><linearGradient
       inkscape:collect="always"
       xlink:href="#linearGradient3787"
       id="linearGradient3828"
       gradientUnits="userSpaceOnUse"
       x1="40"
       y1="1044.3622"
       x2="40"
       y2="1032.3622"
       gradientTransform="matrix(1.1666666,0,0,1.0769231,-6.5,-80.335554)" /><linearGradient
       inkscape:collect="always"
       xlink:href="#linearGradient3787-8"
       id="linearGradient3835"
       gradientUnits="userSpaceOnUse"
       gradientTransform="matrix(1.1666666,0,0,1.0769231,-35.5,-1105.6978)"
       x1="40"
       y1="1044.3622"
       x2="40"
       y2="1032.3622" /><linearGradient
       inkscape:collect="always"
       xlink:href="#linearGradient3787-8"
       id="linearGradient3835-4"
       gradientUnits="userSpaceOnUse"
       gradientTransform="matrix(1.1666666,0,0,1.0769231,-35.5,-1105.6978)"
       x1="40"
       y1="1044.3622"
       x2="40"
       y2="1032.3622" /><linearGradient
       id="linearGradient3787-8"><stop
         style="stop-color:#f5f5ee;stop-opacity:1;"
         offset="0"
         id="stop3789-2" /><stop
         style="stop-color:#e6e6df;stop-opacity:1;"
         offset="1"
         id="stop3791-6" /></linearGradient><linearGradient
       inkscape:collect="always"
       xlink:href="#linearGradient3787-8"
       id="linearGradient3835-3"
       gradientUnits="userSpaceOnUse"
       gradientTransform="matrix(1.1666666,0,0,1.0769231,-35.5,-1105.6978)"
       x1="40"
       y1="1044.3622"
       x2="40"
       y2="1032.3622" /><linearGradient
       id="linearGradient3787-7"><stop
         style="stop-color:#f5f5ee;stop-opacity:1;"
         offset="0"
         id="stop3789-3" /><stop
         style="stop-color:#e6e6e0;stop-opacity:1;"
         offset="1"
         id="stop3791-3" /></linearGradient><linearGradient
       inkscape:collect="always"
       xlink:href="#linearGradient3787"
       id="linearGradient3807"
       x1="11"
       y1="15.75"
       x2="11"
       y2="8.25"
       gradientUnits="userSpaceOnUse" /><linearGradient
       inkscape:collect="always"
       xlink:href="#linearGradient3813"
       id="linearGradient3819"
       x1="29.5"
       y1="15.2"
       x2="29.5"
       y2="8.8000002"
       gradientUnits="userSpaceOnUse" /><linearGradient
       inkscape:collect="always"
       xlink:href="#linearGradient4231"
       id="linearGradient3807-1"
       x1="10"
       y1="7.0000038"
       x2="10"
       y2="15.888954"
       gradientUnits="userSpaceOnUse" /><linearGradient
       id="linearGradient4231"><stop
         id="stop4233"
         offset="0"
         style="stop-color:#e7e7e1;stop-opacity:1;" /><stop
         id="stop4239"
         offset="1"
         style="stop-color:#dadad3;stop-opacity:1;" /></linearGradient><linearGradient
       inkscape:collect="always"
       xlink:href="#linearGradient4231-1"
       id="linearGradient3807-1-1"
       x1="10"
       y1="15.888976"
       x2="10"
       y2="7.0000262"
       gradientUnits="userSpaceOnUse" /><linearGradient
       id="linearGradient4231-1"><stop
         id="stop4233-6"
         offset="0"
         style="stop-color:#e5e5de;stop-opacity:1;" /><stop
         id="stop4239-7"
         offset="1"
         style="stop-color:#dadad3;stop-opacity:1;" /></linearGradient><linearGradient
       id="linearGradient4363"><stop
         style="stop-color:#979791;stop-opacity:1;"
         offset="0"
         id="stop4365" /><stop
         style="stop-color:#dadad4;stop-opacity:0;"
         offset="1"
         id="stop4367" /></linearGradient><linearGradient
       id="linearGradient4363-7"><stop
         style="stop-color:#f5f5ef;stop-opacity:1;"
         offset="0"
         id="stop4365-9" /><stop
         style="stop-color:#dadad4;stop-opacity:0;"
         offset="1"
         id="stop4367-8" /></linearGradient><linearGradient
       inkscape:collect="always"
       xlink:href="#linearGradient4231-7"
       id="linearGradient4361"
       gradientUnits="userSpaceOnUse"
       gradientTransform="matrix(1.1875,0,0,1,-41.25,0)"
       x1="248.63158"
       y1="79"
       x2="248.63158"
       y2="58" /><linearGradient
       id="linearGradient4231-7"><stop
         id="stop4233-4"
         offset="0"
         style="stop-color:#e6e6df;stop-opacity:1;" /><stop
         id="stop4239-8"
         offset="1"
         style="stop-color:#d1d1ca;stop-opacity:1;" /></linearGradient><linearGradient
       inkscape:collect="always"
       xlink:href="#linearGradient4231-7"
       id="linearGradient3127"
       gradientUnits="userSpaceOnUse"
       gradientTransform="matrix(1.1875,0,0,1,-262.25,-55.99998)"
       x1="248.63158"
       y1="79"
       x2="248.63158"
       y2="58" /><linearGradient
       inkscape:collect="always"
       xlink:href="#linearGradient4231-7"
       id="linearGradient3154"
       gradientUnits="userSpaceOnUse"
       gradientTransform="matrix(1.1875,0,0,1,-262.25,-55.99998)"
       x1="248.63158"
       y1="79"
       x2="248.63158"
       y2="58" /><linearGradient
       inkscape:collect="always"
       xlink:href="#linearGradient4231-7"
       id="linearGradient3159"
       gradientUnits="userSpaceOnUse"
       gradientTransform="matrix(1.1875,0,0,1,-249.25,-54.99998)"
       x1="248.63158"
       y1="79"
       x2="248.63158"
       y2="58" /><linearGradient
       inkscape:collect="always"
       xlink:href="#linearGradient4231-7-9"
       id="linearGradient3159-0"
       gradientUnits="userSpaceOnUse"
       gradientTransform="matrix(1.1875,0,0,1,-262.25,-55.99998)"
       x1="248.63158"
       y1="79"
       x2="248.63158"
       y2="58" /><linearGradient
       id="linearGradient4231-7-9"><stop
         id="stop4233-4-2"
         offset="0"
         style="stop-color:#e6e6df;stop-opacity:1;" /><stop
         id="stop4239-8-9"
         offset="1"
         style="stop-color:#d1d1ca;stop-opacity:1;" /></linearGradient><linearGradient
       id="linearGradient4231-5"><stop
         id="stop4233-41"
         offset="0"
         style="stop-color:#e5e5de;stop-opacity:1;" /><stop
         id="stop4239-73"
         offset="1"
         style="stop-color:#dadad3;stop-opacity:1;" /></linearGradient><linearGradient
       inkscape:collect="always"
       xlink:href="#linearGradient4231-7-7"
       id="linearGradient3159-1"
       gradientUnits="userSpaceOnUse"
       gradientTransform="matrix(1.1875,0,0,1,-262.25,-55.99998)"
       x1="248.63158"
       y1="79"
       x2="248.63158"
       y2="58" /><linearGradient
       id="linearGradient4231-7-7"><stop
         id="stop4233-4-7"
         offset="0"
         style="stop-color:#e6e6df;stop-opacity:1;" /><stop
         id="stop4239-8-2"
         offset="1"
         style="stop-color:#d1d1ca;stop-opacity:1;" /></linearGradient><linearGradient
       inkscape:collect="always"
       xlink:href="#linearGradient4231-73"
       id="linearGradient3807-1-7"
       x1="10"
       y1="15.888976"
       x2="10"
       y2="7.0000262"
       gradientUnits="userSpaceOnUse" /><linearGradient
       id="linearGradient4231-73"><stop
         id="stop4233-1"
         offset="0"
         style="stop-color:#e5e5de;stop-opacity:1;" /><stop
         id="stop4239-85"
         offset="1"
         style="stop-color:#dadad3;stop-opacity:1;" /></linearGradient></defs><sodipodi:namedview
     id="base"
     pagecolor="#eff0f1"
     bordercolor="#666666"
     borderopacity="1.0"
     inkscape:pageopacity="1"
     inkscape:pageshadow="2"
     inkscape:zoom="8.0000001"
     inkscape:cx="63.437499"
     inkscape:cy="12.5625"
     inkscape:document-units="px"
     inkscape:current-layer="layer1"
     showgrid="true"
     inkscape:snap-bbox="true"
     inkscape:window-width="2194"
     inkscape:window-height="1211"
     inkscape:window-x="-8"
     inkscape:window-y="-8"
     inkscape:window-maximized="1"
     showborder="false"
     inkscape:showpageshadow="false"
     inkscape:bbox-nodes="true"
     inkscape:snap-bbox-edge-midpoints="false"
     inkscape:snap-nodes="false"
     inkscape:snap-others="false"
     inkscape:pagecheckerboard="0"
     inkscape:deskcolor="#d1d1d1"><inkscape:grid
       type="xygrid"
       id="grid4436"
       empspacing="5"
       visible="true"
       enabled="true"
       snapvisiblegridlinesonly="true"
       originx="0"
       originy="0"
       spacingx="1"
       spacingy="1"
       units="px" /></sodipodi:namedview><metadata
     id="metadata4433"><rdf:RDF><cc:Work
         rdf:about=""><dc:format>image/svg+xml</dc:format><dc:type
           rdf:resource="http://purl.org/dc/dcmitype/StillImage" /><dc:title /></cc:Work></rdf:RDF></metadata><g
     inkscape:label="Layer 1"
     inkscape:groupmode="layer"
     id="layer1"
     transform="translate(0,-1092.653)"><g
       id="4"
       inkscape:label="#g3842"
       transform="translate(86.4,-3.2)" /><g
       id="active-center"
       transform="matrix(0.01754682,0,0,-0.01754674,2.8814742,1117.5909)"
       style="stroke-width:1.26053345"><rect
         ry="0.00096489512"
         y="-908.31116"
         x="-50.235519"
         height="911.85028"
         width="911.84613"
         id="rect1561-02-6-7-4-4"
         style="stroke-width:27.0318;display:inline;fill:#000000;fill-opacity:1;stroke:none;stroke-linejoin:miter;stroke-miterlimit:4;stroke-dasharray:none;stroke-opacity:1;paint-order:markers stroke fill;opacity:0"
         transform="scale(1,-1)" /><path
         style="fill:#dfdfdf;stroke-width:47.7384"
         d="m 425.58492,750.31347 -1.10963,-1.09828 c -15.1562,-15.15627 -23.63186,-35.26237 -23.74547,-56.58795 -0.10604,-19.78419 6.96837,-38.46631 19.97347,-53.03178 L 294.21606,513.10766 c -14.5654,13.00516 -33.24744,20.00386 -53.03533,19.89782 -21.32169,0 -41.43149,-8.51357 -56.5839,-23.66983 l -1.10963,-1.09829 c -6.63889,-6.63512 -6.71842,-17.39827 -0.1477,-23.96523 l 98.07976,-98.00825 -163.83728,-163.90507 -14.86725,-72.94095 72.93306,14.88359 163.91189,163.83311 98.0078,-98.08779 c 3.28347,-3.29484 7.65763,-4.92332 11.98256,-4.88545 4.32494,0 8.66881,1.70423 11.98257,5.03694 l 1.10964,1.09828 c 15.15619,15.1487 23.55989,35.25858 23.6735,56.58037 0.11362,19.80692 -6.97593,38.47768 -19.97346,53.05829 l 126.54402,126.54461 c 14.58056,-12.99758 33.25124,-20.07581 53.05806,-19.96977 21.32169,0 41.43145,8.51357 56.58011,23.66983 l 1.09826,1.09828 c 3.33273,3.33272 4.99909,7.65767 5.03691,11.98262 0.0379,4.32495 -1.59061,8.69913 -4.8854,11.98262 L 449.55004,750.47253 c -3.28347,3.29484 -7.65384,4.88167 -11.98256,4.88167 -4.32872,0 -8.66501,-1.70423 -11.98256,-5.02937 z"
         id="path1" /></g><g
       id="hover-center"
       transform="matrix(0.01754674,0,0,-0.01754674,21.84642,1117.7344)"
       style="stroke-width:1.26053"><rect
         ry="0.00096489512"
         y="-916.48932"
         x="8.7526255"
         height="911.85028"
         width="911.85028"
         id="rect1561-02-6-7-4"
         style="display:inline;fill:#000000;fill-opacity:1;stroke:none;stroke-width:27.0319;stroke-linejoin:miter;stroke-miterlimit:4;stroke-dasharray:none;stroke-opacity:1;paint-order:markers stroke fill;opacity:0"
         transform="scale(1,-1)" /><path
         style="fill:#006783;fill-opacity:1;stroke-width:47.4417"
         d="m 760.74922,480.32015 -1.09157,-1.10422 c -15.06229,-15.0619 -35.04348,-23.48519 -56.23631,-23.59815 -19.66128,-0.0846 -38.22722,6.92509 -52.70189,19.84954 L 525.01765,349.76596 c 12.92447,-14.47509 19.87961,-33.04101 19.77425,-52.70611 0,-21.18907 -8.46089,-41.17401 -23.52281,-56.23254 l -1.09156,-1.10426 c -6.59383,-6.59763 -17.28989,-6.67675 -23.81601,-0.12693 L 398.96259,337.06658 236.07564,174.2473 163.58802,159.47226 178.37921,231.9522 341.1946,394.84592 243.71659,492.24489 c -3.25776,3.262 -4.89093,7.61009 -4.85283,11.90823 0,4.29813 1.69237,8.61485 5.0051,11.90824 l 1.10006,1.10422 c 15.05342,15.06236 35.03585,23.41366 56.22659,23.52662 19.68372,0.12692 38.23862,-6.93273 52.72857,-19.84957 l 125.75807,125.75808 c -12.91687,14.48986 -19.95112,33.04477 -19.84579,52.72849 0,21.18904 8.4605,41.17402 23.52283,56.22874 l 1.09156,1.09158 c 3.31278,3.31273 7.61009,4.96833 11.90823,5.00595 4.29814,0.0378 8.64494,-1.58233 11.90822,-4.85537 L 760.91593,504.1552 c 3.27472,-3.262 4.85159,-7.60624 4.85159,-11.90823 0,-4.30153 -1.69237,-8.61107 -4.99841,-11.90816 z"
         id="path1-0" /></g><g
       id="pressed-center"
       transform="matrix(0.01645003,0,0,-0.01645011,47.554168,1116.8222)"
       style="stroke-width:1.26053"><rect
         ry="0.0010292189"
         y="-922.13367"
         x="-33.687965"
         height="972.63788"
         width="972.64258"
         id="rect1561-02-6-7"
         style="display:inline;opacity:0;fill:#000000;fill-opacity:1;stroke:none;stroke-width:28.834;stroke-linejoin:miter;stroke-miterlimit:4;stroke-dasharray:none;stroke-opacity:1;paint-order:markers stroke fill"
         transform="scale(1,-1)" /><path
         style="fill:#0093bc;fill-opacity:1;stroke-width:49.0858"
         d="m 812.39343,517.21331 -1.12064,-1.1818 c -15.32474,-15.83771 -35.85301,-24.89046 -57.77509,-25.37192 -20.33829,-0.43785 -39.66364,6.51389 -54.86231,19.6375 L 570.74328,378.10981 c 13.61885,-14.75235 21.12713,-33.84233 21.35781,-54.18916 0.35019,-21.91812 -8.0511,-42.73741 -23.37584,-58.57095 l -1.12062,-1.18178 c -6.71115,-6.93846 -17.77441,-7.20095 -24.63568,-0.52521 L 440.5438,362.81477 274.81213,191.59768 l -74.73744,-16.52512 14.06406,75.23615 165.65589,171.29572 -102.50743,99.09346 c -3.42762,3.32702 -5.18952,7.78776 -5.22374,12.23506 -0.087,4.4476 1.6023,8.94315 4.97464,12.40606 l 1.1206,1.13808 c 15.31603,15.84229 35.84559,24.82035 57.76775,25.30191 20.35925,0.48147 39.67672,-6.52239 54.88414,-19.6373 l 127.9521,132.24395 c -13.61008,14.76976 -21.20111,33.84697 -21.42786,54.21121 -0.3502,21.92238 8.04627,42.74177 23.37103,58.57089 l 1.12061,1.13798 c 3.35756,3.50208 7.78889,5.27067 12.23557,5.38441 4.44622,0 8.96902,-1.4884 12.40364,-4.81957 L 812.1474,541.81923 c 3.42759,-3.32652 5.15012,-7.78737 5.22368,-12.23495 0.0875,-4.45185 -1.60217,-8.93872 -4.97021,-12.40578 z"
         id="path1-8" /></g><g
       transform="translate(-223,1369.2908)"
       style="display:inline"
       id="inactive-center"
       inkscape:label="#inactive-center"><rect
         ry="1.6930764e-05"
         y="-268.63782"
         x="293"
         height="16"
         width="16"
         id="rect1561-02-6"
         style="opacity:0;fill:#000000;fill-opacity:1;stroke:none;stroke-width:0.474321;stroke-linejoin:miter;stroke-miterlimit:4;stroke-dasharray:none;stroke-opacity:1;paint-order:markers stroke fill" /><g
         inkscape:label="#g965"
         transform="translate(294,-267.63782)"
         id="titlebutton-close-backdrop-1-3-4"
         style="opacity:1;enable-background:new"><g
           transform="translate(-4.9999997,-1033.3622)"
           id="g6-97-7-3"><path
             style="display:inline;fill:#5d5d5d;fill-opacity:1;stroke-width:0.825883;enable-background:new"
             d="m 12.343923,1035.207 -0.01922,0.019 c -0.262203,0.2622 -0.408839,0.6101 -0.410806,0.979 -0.0015,0.3424 0.120555,0.6655 0.345549,0.9176 l -2.18826,2.1882 c -0.2519874,-0.225 -0.5751905,-0.3461 -0.9175285,-0.3443 -0.3688677,0 -0.7167739,0.1473 -0.9789188,0.4095 l -0.019224,0.02 c -0.1148541,0.1148 -0.1162241,0.301 -0.00221,0.4146 l 1.6968123,1.6955 -2.8344307,2.8356 -0.2572102,1.2619 1.2617603,-0.2575 2.8357196,-2.8344 1.695567,1.697 c 0.05679,0.057 0.132479,0.085 0.207296,0.084 0.07483,0 0.149971,-0.029 0.207303,-0.087 l 0.01922,-0.019 c 0.262204,-0.262 0.407594,-0.61 0.40956,-0.9788 0.0022,-0.3427 -0.120687,-0.6657 -0.345549,-0.9179 l 2.189248,-2.1893 c 0.252246,0.2249 0.575257,0.3473 0.917919,0.3455 0.368868,0 0.716774,-0.1473 0.978852,-0.4095 l 0.019,-0.019 c 0.05767,-0.057 0.08648,-0.1325 0.08714,-0.2074 6.55e-4,-0.075 -0.02755,-0.1505 -0.08452,-0.2073 l -4.398153,-4.3982 c -0.05679,-0.056 -0.132413,-0.084 -0.207302,-0.084 -0.07488,0 -0.149907,0.03 -0.207296,0.087 z"
             id="path1-87" /></g></g></g><use
       x="0"
       y="0"
       xlink:href="#inactive-center"
       id="deactivated-center"
       transform="translate(29.429754,2.5292726)"
       width="100%"
       height="100%" /></g></svg>
