<?xml version="1.0" encoding="UTF-8" standalone="no"?>
<svg
   version="1.1"
   id="svg2"
   viewBox="0 0 54 32"
   inkscape:version="1.3 (0e150ed6c4, 2023-07-21)"
   sodipodi:docname="akonadi.svg"
   xmlns:inkscape="http://www.inkscape.org/namespaces/inkscape"
   xmlns:sodipodi="http://sodipodi.sourceforge.net/DTD/sodipodi-0.dtd"
   xmlns="http://www.w3.org/2000/svg"
   xmlns:svg="http://www.w3.org/2000/svg"
   xmlns:rdf="http://www.w3.org/1999/02/22-rdf-syntax-ns#"
   xmlns:cc="http://creativecommons.org/ns#"
   xmlns:dc="http://purl.org/dc/elements/1.1/">
  <sodipodi:namedview
     pagecolor="#ffffff"
     bordercolor="#666666"
     borderopacity="1"
     objecttolerance="10"
     gridtolerance="10"
     guidetolerance="10"
     inkscape:pageopacity="0"
     inkscape:pageshadow="2"
     inkscape:window-width="2194"
     inkscape:window-height="1211"
     id="namedview12"
     showgrid="false"
     inkscape:zoom="7.375"
     inkscape:cx="37.898305"
     inkscape:cy="4.8135593"
     inkscape:window-x="-8"
     inkscape:window-y="-8"
     inkscape:window-maximized="1"
     inkscape:current-layer="svg2"
     inkscape:showpageshadow="2"
     inkscape:pagecheckerboard="0"
     inkscape:deskcolor="#d1d1d1" />
  <metadata
     id="metadata18">
    <rdf:RDF>
      <cc:Work
         rdf:about="">
        <dc:format>image/svg+xml</dc:format>
        <dc:type
           rdf:resource="http://purl.org/dc/dcmitype/StillImage" />
        <dc:title />
      </cc:Work>
    </rdf:RDF>
  </metadata>
  <defs
     id="defs3051">
    <style
       id="current-color-scheme"
       type="text/css">&#10;      .ColorScheme-Text {&#10;        color:#31363b;&#10;      }&#10;      </style>
  </defs>
  <g
     id="22-22-akonadi">
    <path
       id="path4-3"
       style="fill:#dfdfdf;fill-opacity:0.5;stroke:none;stroke-width:0.727273"
       d="m 19,15.375691 a 8.7272727,2.1818182 0 0 1 -8,1.315341 8.7272727,2.1818182 0 0 1 -8,-1.3125 v 3.494318 a 8,1.4545455 0 0 0 8,1.454545 8,1.4545455 0 0 0 8,-1.454545 z m 0,4.363636 a 8.7272727,2.1818182 0 0 1 -8,1.315341 8.7272727,2.1818182 0 0 1 -8,-1.3125 v 3.494318 a 8,1.4545455 0 0 0 8,1.454546 8,1.4545455 0 0 0 8,-1.454546 z m 0,4.363636 a 8.7272727,2.1818182 0 0 1 -8,1.315341 8.7272727,2.1818182 0 0 1 -8,-1.3125 v 3.494319 a 8,1.4545455 0 0 0 8,1.454545 8,1.4545455 0 0 0 8,-1.454545 z" />
    <path
       style="fill:#dfdfdf;fill-opacity:1;stroke:none;stroke-width:0.727273"
       d="m 11,13.054668 a 8,1.4545455 0 0 1 8,1.454545 8,1.4545455 0 0 1 -8,1.454546 8,1.4545455 0 0 1 -8,-1.454546 8,1.4545455 0 0 1 8,-1.454545 z"
       id="path1-0" />
    <path
       id="path9"
       d="M 0 10 L 0 32 L 22 32 L 22 10 L 0 10 z "
       style="opacity:1;fill:none" />
  </g>
  <g
     id="akonadi">
    <path
       id="path4"
       style="fill:#dfdfdf;fill-opacity:0.5;stroke:none"
       d="M 49 8.1914062 A 12 3 0 0 1 38 10 A 12 3 0 0 1 27 8.1953125 L 27 13 A 11 2 0 0 0 38 15 A 11 2 0 0 0 49 13 L 49 8.1914062 z M 49 14.191406 A 12 3 0 0 1 38 16 A 12 3 0 0 1 27 14.195312 L 27 19 A 11 2 0 0 0 38 21 A 11 2 0 0 0 49 19 L 49 14.191406 z M 49 20.191406 A 12 3 0 0 1 38 22 A 12 3 0 0 1 27 20.195312 L 27 25 A 11 2 0 0 0 38 27 A 11 2 0 0 0 49 25 L 49 20.191406 z " />
    <path
       style="fill:#dfdfdf;fill-opacity:1;stroke:none"
       d="M 38,5 A 11,2 0 0 1 49,7 11,2 0 0 1 38,9 11,2 0 0 1 27,7 11,2 0 0 1 38,5 Z"
       id="path1" />
    <path
       id="path14"
       d="M 22 0 L 22 32 L 54 32 L 54 0 L 22 0 z "
       style="opacity:1;fill:none" />
  </g>
</svg>
