<?xml version="1.0" encoding="UTF-8" standalone="no"?>
<svg
   width="54"
   height="32"
   id="svg3613"
   version="1.1"
   sodipodi:docname="applications.svg"
   inkscape:version="1.3 (0e150ed6c4, 2023-07-21)"
   xmlns:inkscape="http://www.inkscape.org/namespaces/inkscape"
   xmlns:sodipodi="http://sodipodi.sourceforge.net/DTD/sodipodi-0.dtd"
   xmlns="http://www.w3.org/2000/svg"
   xmlns:svg="http://www.w3.org/2000/svg"
   xmlns:rdf="http://www.w3.org/1999/02/22-rdf-syntax-ns#"
   xmlns:cc="http://creativecommons.org/ns#"
   xmlns:dc="http://purl.org/dc/elements/1.1/">
  <sodipodi:namedview
     id="namedview1"
     pagecolor="#ffffff"
     bordercolor="#000000"
     borderopacity="0.25"
     inkscape:showpageshadow="2"
     inkscape:pageopacity="0.0"
     inkscape:pagecheckerboard="0"
     inkscape:deskcolor="#d1d1d1"
     inkscape:zoom="11.12037"
     inkscape:cx="19.603664"
     inkscape:cy="18.4796"
     inkscape:window-width="2194"
     inkscape:window-height="1211"
     inkscape:window-x="-8"
     inkscape:window-y="-8"
     inkscape:window-maximized="1"
     inkscape:current-layer="svg3613" />
  <metadata
     id="metadata13">
    <rdf:RDF>
      <cc:Work
         rdf:about="">
        <dc:format>image/svg+xml</dc:format>
        <dc:type
           rdf:resource="http://purl.org/dc/dcmitype/StillImage" />
        <dc:title />
      </cc:Work>
    </rdf:RDF>
  </metadata>
  <defs
     id="defs3615">
    <inkscape:path-effect
       effect="fillet_chamfer"
       id="path-effect1"
       is_visible="true"
       lpeversion="1"
       nodesatellites_param="F,0,0,1,0,1.5902081,0,1 @ F,0,0,1,0,1.5902081,0,1 @ F,0,0,1,0,1.5902081,0,1 @ F,0,0,1,0,1.5902081,0,1 | F,0,0,1,0,1.5902081,0,1 @ F,0,0,1,0,1.5902081,0,1 @ F,0,0,1,0,1.5902081,0,1 @ F,0,0,1,0,1.5902081,0,1 | F,0,0,1,0,0.85896407,0,1 @ F,0,0,1,0,0.85896407,0,1 @ F,0,0,1,0,0.85896407,0,1 @ F,0,0,1,0,0.85896407,0,1 | F,0,0,1,0,0.85896407,0,1 @ F,0,0,1,0,0.85896407,0,1 @ F,0,0,1,0,0.85896407,0,1 @ F,0,0,1,0,0.85896407,0,1 | F,0,0,1,0,1.5902081,0,1 @ F,0,0,1,0,1.5902081,0,1 @ F,0,0,1,0,1.5902081,0,1 @ F,0,0,1,0,1.5902081,0,1 | F,0,0,1,0,1.5902074,0,1 @ F,0,0,1,0,1.7026143,0,1 @ F,0,0,1,0,1.5395498,0,1 @ F,0,0,1,0,1.6126896,0,1 | F,0,0,1,0,0.85896407,0,1 @ F,0,0,1,0,0.85896407,0,1 @ F,0,0,1,0,0.85896407,0,1 @ F,0,0,1,0,0.85896407,0,1 | F,0,0,1,0,0.85896407,0,1 @ F,0,0,1,0,0.85896407,0,1 @ F,0,0,1,0,0.85896407,0,1 @ F,0,0,1,0,0.85896407,0,1"
       radius="0"
       unit="px"
       method="auto"
       mode="F"
       chamfer_steps="1"
       flexible="false"
       use_knot_distance="true"
       apply_no_radius="true"
       apply_with_radius="true"
       only_selected="false"
       hide_knots="false" />
    <style
       type="text/css"
       id="current-color-scheme">&#10;      .ColorScheme-Text {&#10;        color:#31363b;&#10;      }&#10;      .ColorScheme-Background{&#10;        color:#E9E8E8;&#10;      }&#10;      .ColorScheme-ViewText {&#10;        color:#31363b;&#10;      }&#10;      .ColorScheme-ViewBackground{&#10;        color:#ffffff;&#10;      }&#10;      .ColorScheme-ViewHover {&#10;        color:#000000;&#10;      }&#10;      .ColorScheme-ViewFocus{&#10;        color:#5a5a5a;&#10;      }&#10;      .ColorScheme-ButtonText {&#10;        color:#31363b;&#10;      }&#10;      .ColorScheme-ButtonBackground{&#10;        color:#E9E8E8;&#10;      }&#10;      .ColorScheme-ButtonHover {&#10;        color:#1489ff;&#10;      }&#10;      .ColorScheme-ButtonFocus{&#10;        color:#2B74C7;&#10;      }&#10;</style>
    <inkscape:path-effect
       effect="fillet_chamfer"
       id="path-effect1-5"
       is_visible="true"
       lpeversion="1"
       nodesatellites_param="F,0,0,1,0,1.5902081,0,1 @ F,0,0,1,0,1.5902081,0,1 @ F,0,0,1,0,1.5902081,0,1 @ F,0,0,1,0,1.5902081,0,1 | F,0,0,1,0,0.85896407,0,1 @ F,0,0,1,0,0.85896407,0,1 @ F,0,0,1,0,0.85896407,0,1 @ F,0,0,1,0,0.85896407,0,1 | F,0,0,1,0,1.5902074,0,1 @ F,0,0,1,0,1.7026143,0,1 @ F,0,0,1,0,1.5395498,0,1 @ F,0,0,1,0,1.6126896,0,1 | F,0,0,1,0,0.85896407,0,1 @ F,0,0,1,0,0.85896407,0,1 @ F,0,0,1,0,0.85896407,0,1 @ F,0,0,1,0,0.85896407,0,1"
       radius="0"
       unit="px"
       method="auto"
       mode="F"
       chamfer_steps="1"
       flexible="false"
       use_knot_distance="true"
       apply_no_radius="true"
       apply_with_radius="true"
       only_selected="false"
       hide_knots="false" />
    <inkscape:path-effect
       effect="fillet_chamfer"
       id="path-effect1-5-8"
       is_visible="true"
       lpeversion="1"
       nodesatellites_param="F,0,0,1,0,1.5902081,0,1 @ F,0,0,1,0,1.5902081,0,1 @ F,0,0,1,0,1.5902081,0,1 @ F,0,0,1,0,1.5902081,0,1 | F,0,0,1,0,0.85896407,0,1 @ F,0,0,1,0,0.85896407,0,1 @ F,0,0,1,0,0.85896407,0,1 @ F,0,0,1,0,0.85896407,0,1 | F,0,0,1,0,1.5902074,0,1 @ F,0,0,1,0,1.7026143,0,1 @ F,0,0,1,0,1.5395498,0,1 @ F,0,0,1,0,1.6126896,0,1 | F,0,0,1,0,0.85896407,0,1 @ F,0,0,1,0,0.85896407,0,1 @ F,0,0,1,0,0.85896407,0,1 @ F,0,0,1,0,0.85896407,0,1"
       radius="0"
       unit="px"
       method="auto"
       mode="F"
       chamfer_steps="1"
       flexible="false"
       use_knot_distance="true"
       apply_no_radius="true"
       apply_with_radius="true"
       only_selected="false"
       hide_knots="false" />
  </defs>
  <g
     transform="matrix(1.0000029,0,0,1.000001,-420.71555,-516.79125)"
     id="22-22-applications-other">
    <rect
       style="opacity:0.01000001;fill:#000000;fill-opacity:0.00392157;stroke:none"
       id="rect3028"
       width="22"
       height="22"
       x="-7.1556997e-08"
       y="2.0000052"
       transform="matrix(0.99999706,0,0,0.99999899,420.71433,524.79072)" />
    <path
       style="color:#31363b;fill:#dfdfdf;fill-opacity:1;stroke:none"
       d="m 423.71432,531.38093 v 3.81957 a 1.5902081,1.5902081 45 0 0 1.59021,1.59021 h 3.81956 a 1.5902081,1.5902081 135 0 0 1.59021,-1.59021 v -3.81957 a 1.5902081,1.5902081 45 0 0 -1.59021,-1.59021 h -3.81956 a 1.5902081,1.5902081 135 0 0 -1.59021,1.59021 z m 1.85896,-0.59021 h 3.28207 a 0.85896407,0.85896407 45 0 1 0.85896,0.85896 v 3.28207 a 0.85896407,0.85896407 135 0 1 -0.85896,0.85896 h -3.28207 a 0.85896407,0.85896407 45 0 1 -0.85896,-0.85896 v -3.28207 a 0.85896407,0.85896407 135 0 1 0.85896,-0.85896 z m 7.14102,9.5902 0,3.70717 a 1.7026143,1.7026143 45 0 0 1.70261,1.70261 h 3.75782 a 1.5395498,1.5395498 135 0 0 1.53955,-1.53955 v -3.84775 a 1.6126896,1.6126896 45 0 0 -1.61269,-1.61269 h -3.79708 a 1.5902074,1.5902074 135 0 0 -1.59021,1.59021 z m 1.85895,-0.59021 h 3.28207 a 0.85896407,0.85896407 45 0 1 0.85896,0.85896 v 3.28207 a 0.85896407,0.85896407 135 0 1 -0.85896,0.85896 h -3.28207 a 0.85896407,0.85896407 45 0 1 -0.85896,-0.85896 v -3.28207 a 0.85896407,0.85896407 135 0 1 0.85896,-0.85896 z"
       id="rect4298-9-4"
       class="ColorScheme-Text"
       inkscape:path-effect="#path-effect1-5-8"
       inkscape:original-d="m 423.71432,529.79072 v 6.99999 h 6.99998 v -6.99999 z m 1,1 h 4.99999 v 4.99999 h -4.99999 z m 7.99998,7.99999 v 6.99999 h 6.99998 v -6.99999 z m 0.99999,1 h 4.99999 v 4.99999 h -4.99999 z"
       sodipodi:nodetypes="cccccccccccccccccccc"
       transform="matrix(0.9692487,0,0,0.96924681,13.275774,16.538782)" />
    <path
       d="m 432.68355,530.03674 v 6.78472 h 6.78474 v -6.78472 z m -8.72325,8.72322 v 6.78472 h 6.78474 v -6.78472 z"
       style="color:#31363b;fill:#dfdfdf;fill-opacity:0.25;stroke:none;stroke-width:0.649653"
       id="path1-2" />
  </g>
  <g
     transform="matrix(1.0000028,0,0,1.0000009,-398.71551,-516.79118)"
     id="applications-other">
    <rect
       style="opacity:0.01000001;fill:#000000;fill-opacity:0.00392157;stroke:none"
       id="rect2994"
       width="32"
       height="32"
       x="-7.1557004e-08"
       y="-7.9999948"
       transform="matrix(0.99999706,0,0,0.99999899,420.71433,524.79072)" />
    <path
       style="color:#31363b;fill:#dfdfdf;fill-opacity:1;stroke:none"
       d="m 423.71432,531.38093 v 3.81957 a 1.5902081,1.5902081 45 0 0 1.59021,1.59021 h 3.81956 a 1.5902081,1.5902081 135 0 0 1.59021,-1.59021 v -3.81957 a 1.5902081,1.5902081 45 0 0 -1.59021,-1.59021 h -3.81956 a 1.5902081,1.5902081 135 0 0 -1.59021,1.59021 z m 1.85896,-0.59021 h 3.28207 a 0.85896407,0.85896407 45 0 1 0.85896,0.85896 v 3.28207 a 0.85896407,0.85896407 135 0 1 -0.85896,0.85896 h -3.28207 a 0.85896407,0.85896407 45 0 1 -0.85896,-0.85896 v -3.28207 a 0.85896407,0.85896407 135 0 1 0.85896,-0.85896 z m 7.14102,9.5902 0,3.70717 a 1.7026143,1.7026143 45 0 0 1.70261,1.70261 h 3.75782 a 1.5395498,1.5395498 135 0 0 1.53955,-1.53955 v -3.84775 a 1.6126896,1.6126896 45 0 0 -1.61269,-1.61269 h -3.79708 a 1.5902074,1.5902074 135 0 0 -1.59021,1.59021 z m 1.85895,-0.59021 h 3.28207 a 0.85896407,0.85896407 45 0 1 0.85896,0.85896 v 3.28207 a 0.85896407,0.85896407 135 0 1 -0.85896,0.85896 h -3.28207 a 0.85896407,0.85896407 45 0 1 -0.85896,-0.85896 v -3.28207 a 0.85896407,0.85896407 135 0 1 0.85896,-0.85896 z"
       id="rect4298-9"
       class="ColorScheme-Text"
       inkscape:path-effect="#path-effect1-5"
       inkscape:original-d="m 423.71432,529.79072 v 6.99999 h 6.99998 v -6.99999 z m 1,1 h 4.99999 v 4.99999 h -4.99999 z m 7.99998,7.99999 v 6.99999 h 6.99998 v -6.99999 z m 0.99999,1 h 4.99999 v 4.99999 h -4.99999 z"
       sodipodi:nodetypes="cccccccccccccccccccc"
       transform="matrix(1.4919454,0,0,1.4919426,-207.37988,-269.62658)" />
    <path
       d="M 39.49195,4.000053 V 14.443655 H 49.935597 V 4.000053 Z M 26.064396,17.427546 V 27.871147 H 36.508042 V 17.427546 Z"
       style="color:#31363b;fill:#dfdfdf;fill-opacity:0.25;stroke:none;stroke-width:1"
       id="path1"
       transform="matrix(0.9999972,0,0,0.9999991,398.71439,516.79071)" />
  </g>
</svg>
