<?xml version="1.0" encoding="UTF-8" standalone="no"?>
<svg
   version="1.1"
   id="svg2"
   viewBox="0 0 54 32"
   inkscape:version="1.3 (0e150ed6c4, 2023-07-21)"
   sodipodi:docname="apport.svg"
   xmlns:inkscape="http://www.inkscape.org/namespaces/inkscape"
   xmlns:sodipodi="http://sodipodi.sourceforge.net/DTD/sodipodi-0.dtd"
   xmlns="http://www.w3.org/2000/svg"
   xmlns:svg="http://www.w3.org/2000/svg"
   xmlns:rdf="http://www.w3.org/1999/02/22-rdf-syntax-ns#"
   xmlns:cc="http://creativecommons.org/ns#"
   xmlns:dc="http://purl.org/dc/elements/1.1/">
  <sodipodi:namedview
     pagecolor="#ffffff"
     bordercolor="#666666"
     borderopacity="1"
     objecttolerance="10"
     gridtolerance="10"
     guidetolerance="10"
     inkscape:pageopacity="0"
     inkscape:pageshadow="2"
     inkscape:window-width="2194"
     inkscape:window-height="1211"
     id="namedview12"
     showgrid="false"
     inkscape:zoom="7.375"
     inkscape:cx="35.457627"
     inkscape:cy="8.6101695"
     inkscape:window-x="-8"
     inkscape:window-y="-8"
     inkscape:window-maximized="1"
     inkscape:current-layer="svg2"
     inkscape:showpageshadow="2"
     inkscape:pagecheckerboard="0"
     inkscape:deskcolor="#d1d1d1" />
  <metadata
     id="metadata18">
    <rdf:RDF>
      <cc:Work
         rdf:about="">
        <dc:format>image/svg+xml</dc:format>
        <dc:type
           rdf:resource="http://purl.org/dc/dcmitype/StillImage" />
        <dc:title />
      </cc:Work>
    </rdf:RDF>
  </metadata>
  <defs
     id="defs3051">
    <inkscape:path-effect
       effect="fillet_chamfer"
       id="path-effect20"
       is_visible="true"
       lpeversion="1"
       nodesatellites_param="F,0,0,1,0,4.6531538,0,1 @ F,0,0,1,0,4.6531538,0,1 @ F,0,0,1,0,4.6531538,0,1 @ F,0,0,1,0,4.6531538,0,1 | F,0,1,1,0,4,0,1 @ F,0,1,1,0,4,0,1 @ F,0,1,1,0,4,0,1 @ F,0,1,1,0,4,0,1"
       radius="0"
       unit="px"
       method="auto"
       mode="F"
       chamfer_steps="1"
       flexible="false"
       use_knot_distance="true"
       apply_no_radius="true"
       apply_with_radius="true"
       only_selected="false"
       hide_knots="false" />
    <style
       id="current-color-scheme"
       type="text/css">&#10;      .ColorScheme-Text {&#10;        color:#31363b;&#10;      }&#10;      </style>
    <inkscape:path-effect
       effect="fillet_chamfer"
       id="path-effect20-9"
       is_visible="true"
       lpeversion="1"
       nodesatellites_param="F,0,0,1,0,4.6531538,0,1 @ F,0,0,1,0,4.6531538,0,1 @ F,0,0,1,0,4.6531538,0,1 @ F,0,0,1,0,4.6531538,0,1 | F,0,1,1,0,4,0,1 @ F,0,1,1,0,4,0,1 @ F,0,1,1,0,4,0,1 @ F,0,1,1,0,4,0,1"
       radius="0"
       unit="px"
       method="auto"
       mode="F"
       chamfer_steps="1"
       flexible="false"
       use_knot_distance="true"
       apply_no_radius="true"
       apply_with_radius="true"
       only_selected="false"
       hide_knots="false" />
  </defs>
  <g
     id="22-22-apport">
    <path
       id="path20-9"
       style="fill:#dfdfdf;fill-opacity:1;stroke:none;stroke-width:0.666666"
       d="m 5.0000001,15.000001 v 1.333333 h 1.3333334 v -1.333333 z m 1.3333334,1.333333 v 2.000001 h 1.9999996 v -2.000001 z m 1.9999996,0 h 1.333333 v -1.333333 h -1.333333 z m 0,2.000001 v 1.333332 h 1.333333 v -1.333332 z m -1.9999996,0 H 5.0000001 v 1.333332 h 1.3333334 z m 6.0000005,-3.333334 v 1.333333 h 1.333332 v -1.333333 z m 1.333332,1.333333 v 2.000001 h 2.000001 v -2.000001 z m 2.000001,0 H 17 v -1.333333 h -1.333333 z m 0,2.000001 v 1.333332 H 17 v -1.333332 z m -2.000001,0 h -1.333332 v 1.333332 h 1.333332 z m -5.3333329,3.333332 v 1.333334 h 5.3333329 v -1.333334 z m 5.3333329,1.333334 v 1.333333 H 15 V 23.000001 Z M 15,24.333334 v 1.333333 h 1.333334 V 24.333334 Z M 8.3333331,23.000001 h -1.333333 v 1.333333 h 1.333333 z m -1.333333,1.333333 H 5.6666668 v 1.333333 h 1.3333333 z" />
    <path
       id="path1-4"
       style="fill:#dfdfdf;fill-opacity:0.25;stroke:none"
       d="M 26,8.6531538 V 23.346846 A 4.6531538,4.6531538 45 0 0 30.653154,28 H 45.346846 A 4.6531538,4.6531538 135 0 0 50,23.346846 V 8.6531538 A 4.6531538,4.6531538 45 0 0 45.346846,4 H 30.653154 A 4.6531538,4.6531538 135 0 0 26,8.6531538 Z M 31,5 h 14 a 4,4 45 0 1 4,4 v 14 a 4,4 135 0 1 -4,4 H 31 A 4,4 45 0 1 27,23 V 9 a 4,4 135 0 1 4,-4 z"
       inkscape:path-effect="#path-effect20-9"
       inkscape:original-d="M 26,4 V 28 H 50 V 4 Z m 1,1 H 49 V 27 H 27 Z"
       transform="matrix(0.66666667,0,0,0.66666667,-14.333333,10.333334)" />
    <path
       id="path9"
       d="M 0 10 L 0 32 L 22 32 L 22 10 L 0 10 z "
       style="opacity:1;fill:none" />
  </g>
  <g
     id="apport">
    <path
       id="path20"
       style="fill:#dfdfdf;fill-opacity:1;stroke:none"
       d="M 29 7 L 29 9 L 31 9 L 31 7 L 29 7 z M 31 9 L 31 12 L 34 12 L 34 9 L 31 9 z M 34 9 L 36 9 L 36 7 L 34 7 L 34 9 z M 34 12 L 34 14 L 36 14 L 36 12 L 34 12 z M 31 12 L 29 12 L 29 14 L 31 14 L 31 12 z M 40 7 L 40 9 L 42 9 L 42 7 L 40 7 z M 42 9 L 42 12 L 45 12 L 45 9 L 42 9 z M 45 9 L 47 9 L 47 7 L 45 7 L 45 9 z M 45 12 L 45 14 L 47 14 L 47 12 L 45 12 z M 42 12 L 40 12 L 40 14 L 42 14 L 42 12 z M 34 17 L 34 19 L 42 19 L 42 17 L 34 17 z M 42 19 L 42 21 L 44 21 L 44 19 L 42 19 z M 44 21 L 44 23 L 46 23 L 46 21 L 44 21 z M 34 19 L 32 19 L 32 21 L 34 21 L 34 19 z M 32 21 L 30 21 L 30 23 L 32 23 L 32 21 z " />
    <path
       id="path1"
       style="fill:#dfdfdf;fill-opacity:0.25;stroke:none"
       d="M 26,8.6531538 V 23.346846 A 4.6531538,4.6531538 45 0 0 30.653154,28 H 45.346846 A 4.6531538,4.6531538 135 0 0 50,23.346846 V 8.6531538 A 4.6531538,4.6531538 45 0 0 45.346846,4 H 30.653154 A 4.6531538,4.6531538 135 0 0 26,8.6531538 Z M 31,5 h 14 a 4,4 45 0 1 4,4 v 14 a 4,4 135 0 1 -4,4 H 31 A 4,4 45 0 1 27,23 V 9 a 4,4 135 0 1 4,-4 z"
       inkscape:path-effect="#path-effect20"
       inkscape:original-d="M 26 4 L 26 28 L 50 28 L 50 4 L 26 4 z M 27 5 L 49 5 L 49 27 L 27 27 L 27 5 z " />
    <path
       id="path14"
       d="M 22 0 L 22 32 L 54 32 L 54 0 L 22 0 z "
       style="opacity:1;fill:none" />
  </g>
</svg>
