<?xml version="1.0" encoding="UTF-8" standalone="no"?>
<svg
   id="svg36"
   viewBox="0 0 22 22"
   version="1.1"
   sodipodi:docname="audio.svg"
   xml:space="preserve"
   inkscape:version="1.3 (0e150ed6c4, 2023-07-21)"
   xmlns:inkscape="http://www.inkscape.org/namespaces/inkscape"
   xmlns:sodipodi="http://sodipodi.sourceforge.net/DTD/sodipodi-0.dtd"
   xmlns="http://www.w3.org/2000/svg"
   xmlns:svg="http://www.w3.org/2000/svg"><defs
     id="defs64"><style
       id="current-color-scheme-4"
       type="text/css">&#10;   .ColorScheme-Text { color:#dfdfdf; } .ColorScheme-Highlight { color:#4285f4; } .ColorScheme-NeutralText { color:#ff9800; } .ColorScheme-PositiveText { color:#4caf50; } .ColorScheme-NegativeText { color:#f44336; }&#10;  </style><style
       id="current-color-scheme-6"
       type="text/css">&#10;   .ColorScheme-Text { color:#dfdfdf; } .ColorScheme-Highlight { color:#4285f4; } .ColorScheme-NeutralText { color:#ff9800; } .ColorScheme-PositiveText { color:#4caf50; } .ColorScheme-NegativeText { color:#f44336; }&#10;  </style><style
       id="current-color-scheme-1"
       type="text/css">&#10;   .ColorScheme-Text { color:#dfdfdf; } .ColorScheme-Highlight { color:#4285f4; } .ColorScheme-NeutralText { color:#ff9800; } .ColorScheme-PositiveText { color:#4caf50; } .ColorScheme-NegativeText { color:#f44336; }&#10;  </style><style
       id="current-color-scheme-9"
       type="text/css">&#10;   .ColorScheme-Text { color:#dfdfdf; } .ColorScheme-Highlight { color:#4285f4; } .ColorScheme-NeutralText { color:#ff9800; } .ColorScheme-PositiveText { color:#4caf50; } .ColorScheme-NegativeText { color:#f44336; }&#10;  </style></defs><sodipodi:namedview
     id="namedview64"
     pagecolor="#ffffff"
     bordercolor="#000000"
     borderopacity="0.25"
     inkscape:showpageshadow="2"
     inkscape:pageopacity="0.0"
     inkscape:pagecheckerboard="0"
     inkscape:deskcolor="#d1d1d1"
     inkscape:zoom="7.5692472"
     inkscape:cx="109.19184"
     inkscape:cy="-2.3119869"
     inkscape:window-width="2194"
     inkscape:window-height="1211"
     inkscape:window-x="-8"
     inkscape:window-y="-8"
     inkscape:window-maximized="1"
     inkscape:current-layer="svg36" /><style
     id="current-color-scheme"
     type="text/css">&#10;        .ColorScheme-Text {&#10;            color:#232629;&#10;        }&#10;        .ColorScheme-NegativeText {&#10;            color:#da4453;&#10;        }&#10;        .ColorScheme-NeutralText {&#10;            color:#f67400;&#10;        }&#10;    </style><g
     id="audio-volume-muted"><path
       id="path30"
       d="m110 0h22v22h-22z"
       fill="none" /><g
       id="g954"
       transform="translate(110)"><g
         class="ColorScheme-Text"
         fill="currentColor"
         id="g7"><path
           style="display:inline;fill:#dfdfdf;fill-opacity:0.5"
           class="ColorScheme-Text"
           d="m 10.743,15.631 c -0.212,-0.299 -0.066,-0.641 0.313,-0.858 2.192,-1.321 3.823,-4.16 3.823,-6.757 0,-2.596 -1.596,-5.407 -3.793,-6.719 C 10.702,1.077 10.495,0.666 10.696,0.356 10.894,0.052 11.387,0.112 11.591,0.227 14.306,1.847 16,4.789 16,7.995 c 0,3.206 -1.694,6.149 -4.403,7.778 -0.207,0.118 -0.631,0.175 -0.854,-0.142 z M 7.132,0.208 2.086,4.658 H 1.025 C 0.458,4.658 0,5.116 0,5.683 v 4.625 c 0,0.566 0.458,1.025 1.025,1.025 h 1.061 l 5.046,4.449 z m 2.14,12.134 C 9.001,11.981 9.349,11.587 9.693,11.394 10.732,10.76 11.52,9.246 11.52,7.995 11.52,6.745 10.665,5.209 9.614,4.597 9.259,4.397 8.99,4.002 9.243,3.695 9.548,3.327 9.898,3.43 10.105,3.542 c 1.554,0.919 2.54,2.602 2.54,4.453 0,1.851 -0.986,3.535 -2.529,4.475 -0.212,0.115 -0.551,0.26 -0.844,-0.128 z M 8.066,9.227 c 0.681,0 1.233,-0.551 1.233,-1.232 0,-0.68 -0.552,-1.231 -1.233,-1.231 z"
           fill-opacity="0.3"
           id="path1-7"
           transform="translate(3,2.9999962)" /><path
           style="display:inline;fill:#dfdfdf;fill-opacity:1"
           class="ColorScheme-Text"
           d="M 0.325,2.761 C 0.031,2.492 0.009,2.034 0.279,1.74 0.548,1.445 1.005,1.424 1.3,1.693 l 13.675,12.476 c 0.295,0.268 0.316,0.726 0.047,1.021 -0.269,0.295 -0.727,0.316 -1.021,0.047 L 2.939,5.145 2.49,5.53 C 2.293,5.686 2.049,5.771 1.799,5.771 H 1.112 v 4.449 h 0.687 c 0.25,0 0.494,0.085 0.691,0.24 l 3.529,3.023 V 7.955 l 1.113,1.016 v 6.811 L 1.799,11.333 H 1.025 C 0.458,11.333 0,10.874 0,10.308 V 5.683 C 0,5.116 0.458,4.658 1.025,4.658 H 1.799 L 2.116,4.394 Z M 7.132,6.263 6.019,5.281 V 2.508 L 4.392,3.902 3.565,3.184 7.132,0.208 Z"
           id="path2-60"
           transform="translate(3,2.9999962)" /></g></g></g><g
     id="audio-volume-low"><path
       id="path8"
       d="m44 0h22v22h-22z"
       fill="none" /><g
       id="g11"
       class="ColorScheme-Text"
       fill="currentColor"
       transform="translate(44)"><path
         style="clip-rule:evenodd;fill-rule:evenodd;stroke-linejoin:round;stroke-miterlimit:2;opacity:0.3;fill:#dfdfdf;fill-opacity:1"
         class="ColorScheme-Text"
         d="m 10.743,15.631 c -0.212,-0.299 -0.066,-0.641 0.313,-0.858 2.192,-1.321 3.823,-4.16 3.823,-6.757 0,-2.596 -1.596,-5.407 -3.793,-6.719 C 10.702,1.077 10.495,0.666 10.696,0.356 10.894,0.052 11.387,0.112 11.591,0.227 14.306,1.847 16,4.789 16,7.995 c 0,3.206 -1.694,6.149 -4.403,7.778 -0.207,0.118 -0.631,0.175 -0.854,-0.142 z M 7.132,0.208 2.086,4.658 H 1.025 C 0.458,4.658 0,5.116 0,5.683 v 4.625 c 0,0.566 0.458,1.025 1.025,1.025 h 1.061 l 5.046,4.449 z m 2.14,12.134 C 9.001,11.981 9.349,11.587 9.693,11.394 10.732,10.76 11.52,9.246 11.52,7.995 11.52,6.745 10.665,5.209 9.614,4.597 9.259,4.397 8.99,4.002 9.243,3.695 9.548,3.327 9.898,3.43 10.105,3.542 c 1.554,0.919 2.54,2.602 2.54,4.453 0,1.851 -0.986,3.535 -2.529,4.475 -0.212,0.115 -0.551,0.26 -0.844,-0.128 z"
         id="path1-3"
         transform="translate(2.743085,2.9999961)" /><path
         style="clip-rule:evenodd;fill-rule:evenodd;stroke-linejoin:round;stroke-miterlimit:2;fill:#dfdfdf;fill-opacity:1"
         class="ColorScheme-Text"
         d="M 7.132,0.208 1.799,4.658 H 1.025 C 0.458,4.658 0,5.116 0,5.683 v 4.625 c 0,0.566 0.458,1.025 1.025,1.025 h 0.774 l 5.333,4.449 z M 6.019,2.508 2.49,5.53 C 2.293,5.686 2.049,5.771 1.799,5.771 H 1.112 v 4.449 h 0.687 c 0.25,0 0.494,0.085 0.691,0.24 l 3.529,3.023 z m 2.047,6.719 c 0.681,0 1.233,-0.551 1.233,-1.232 0,-0.68 -0.552,-1.231 -1.233,-1.231 z"
         id="path2-65"
         transform="translate(2.743085,2.9999961)" /></g></g><g
     id="audio-volume-medium"><path
       id="path12"
       d="m22 0h22v22h-22z"
       fill="none" /><g
       id="g18"
       class="ColorScheme-Text"
       fill="currentColor"
       transform="translate(22)"><path
         style="clip-rule:evenodd;fill-rule:evenodd;stroke-linejoin:round;stroke-miterlimit:2;opacity:0.3;fill:#dfdfdf;fill-opacity:1"
         class="ColorScheme-Text"
         d="m 10.742,15.492 c -0.212,-0.299 -0.066,-0.64 0.313,-0.857 2.191,-1.321 3.821,-4.159 3.821,-6.754 0,-2.596 -1.594,-5.406 -3.791,-6.717 -0.384,-0.22 -0.591,-0.632 -0.39,-0.941 0.198,-0.304 0.691,-0.244 0.895,-0.129 2.713,1.619 4.407,4.561 4.407,7.765 0,3.205 -1.694,6.147 -4.401,7.776 -0.207,0.118 -0.631,0.174 -0.854,-0.143 z M 7.132,0.075 2.088,4.523 H 1.027 c -0.566,0 -1.024,0.459 -1.024,1.025 v 4.623 c 0,0.566 0.458,1.025 1.024,1.025 h 1.061 l 5.044,4.448 z"
         id="path1-6"
         transform="translate(3,3.1357077)" /><path
         style="clip-rule:evenodd;fill-rule:evenodd;stroke-linejoin:round;stroke-miterlimit:2;fill:#dfdfdf;fill-opacity:1"
         class="ColorScheme-Text"
         d="M 7.132,0.075 1.801,4.523 H 1.027 c -0.566,0 -1.024,0.459 -1.024,1.025 v 4.623 c 0,0.566 0.458,1.025 1.024,1.025 h 0.774 l 5.331,4.448 z M 6.02,2.374 2.492,5.395 C 2.295,5.551 2.051,5.635 1.801,5.635 H 1.115 v 4.448 h 0.686 c 0.25,0 0.494,0.085 0.691,0.241 l 3.528,3.021 z m 3.252,9.83 C 9,11.844 9.348,11.45 9.692,11.257 10.731,10.623 11.519,9.109 11.519,7.859 11.519,6.61 10.664,5.074 9.613,4.462 9.258,4.262 8.989,3.867 9.243,3.56 9.547,3.192 9.898,3.296 10.104,3.408 c 1.554,0.919 2.539,2.601 2.539,4.451 0,1.851 -0.985,3.533 -2.527,4.473 -0.213,0.116 -0.552,0.26 -0.844,-0.128 z M 8.066,9.09 c 0.681,0 1.232,-0.55 1.232,-1.231 0,-0.68 -0.551,-1.231 -1.232,-1.231 z"
         id="path2-2"
         transform="translate(3,3.1357077)" /></g></g><g
     id="audio-volume-high"
     transform="translate(0.2569146,-0.3035959)"><path
       id="path22"
       d="M 0,0 H 22 V 22 H 0 Z"
       fill="none" /><g
       id="g25"
       class="ColorScheme-Text"
       fill="currentColor"><path
         style="clip-rule:evenodd;display:inline;fill-rule:evenodd;stroke-linejoin:round;stroke-miterlimit:2;opacity:0.3;fill:#dfdfdf;fill-opacity:1"
         class="ColorScheme-Text"
         d="M 7.132,0.208 2.086,4.658 H 1.025 C 0.458,4.658 0,5.116 0,5.683 v 4.625 c 0,0.566 0.458,1.025 1.025,1.025 h 1.061 l 5.046,4.449 z"
         id="path1-2"
         transform="translate(3,2.9999961)" /><path
         style="clip-rule:evenodd;display:inline;fill-rule:evenodd;stroke-linejoin:round;stroke-miterlimit:2;fill:#dfdfdf;fill-opacity:1"
         class="ColorScheme-Text"
         d="m 10.743,15.631 c -0.212,-0.299 -0.066,-0.641 0.313,-0.858 2.192,-1.321 3.823,-4.16 3.823,-6.757 0,-2.596 -1.596,-5.407 -3.793,-6.719 C 10.702,1.077 10.495,0.666 10.696,0.356 10.894,0.052 11.387,0.112 11.591,0.227 14.306,1.847 16,4.789 16,7.995 c 0,3.206 -1.694,6.149 -4.403,7.778 -0.207,0.118 -0.631,0.175 -0.854,-0.142 z M 7.132,0.208 1.799,4.658 H 1.025 C 0.458,4.658 0,5.116 0,5.683 v 4.625 c 0,0.566 0.458,1.025 1.025,1.025 h 0.774 l 5.333,4.449 z M 6.019,2.508 2.49,5.53 C 2.293,5.686 2.049,5.771 1.799,5.771 H 1.112 v 4.449 h 0.687 c 0.25,0 0.494,0.085 0.691,0.24 l 3.529,3.023 z m 3.253,9.834 C 9.001,11.981 9.349,11.587 9.693,11.394 10.732,10.76 11.52,9.246 11.52,7.995 11.52,6.745 10.665,5.209 9.614,4.597 9.259,4.397 8.99,4.002 9.243,3.695 9.548,3.327 9.898,3.43 10.105,3.542 c 1.554,0.919 2.54,2.602 2.54,4.453 0,1.851 -0.986,3.535 -2.529,4.475 -0.212,0.115 -0.551,0.26 -0.844,-0.128 z M 8.066,9.227 c 0.681,0 1.233,-0.551 1.233,-1.232 0,-0.68 -0.552,-1.231 -1.233,-1.231 z"
         id="path2-6"
         transform="translate(3,2.9999961)" /></g></g><g
     id="audio-volume-high-warning"
     transform="translate(66)"><path
       d="0h22v22h-22z"
       fill="none"
       id="path21" /><g
       class="ColorScheme-NeutralText"
       fill="currentColor"
       id="g24"><path
         style="color:#dfdfdf;clip-rule:evenodd;display:inline;opacity:0.3;fill:#d56d00;fill-rule:evenodd;stroke-linejoin:round;stroke-miterlimit:2;fill-opacity:1"
         class="ColorScheme-Text"
         d="m 13.870844,18.636 c -0.212,-0.299 -0.066,-0.641 0.313,-0.858 2.192,-1.321 3.823,-4.16 3.823,-6.757 0,-2.5960001 -1.596,-5.4070001 -3.793,-6.7190001 -0.384,-0.22 -0.591,-0.631 -0.39,-0.941 0.198,-0.304 0.691,-0.244 0.895,-0.129 2.715,1.62 4.409,4.562 4.409,7.7680001 0,3.206 -1.694,6.149 -4.403,7.778 -0.207,0.118 -0.631,0.175 -0.854,-0.142 z m -3.611,-15.4230001 -5.0460002,4.45 h -1.061 c -0.567,0 -1.025,0.4580001 -1.025,1.0250001 v 4.625 c 0,0.566 0.458,1.025 1.025,1.025 h 1.061 l 5.0460002,4.449 z m 2.14,12.1340001 c -0.271,-0.361 0.077,-0.755 0.421,-0.948 1.039,-0.634 1.827,-2.148 1.827,-3.399 0,-1.25 -0.855,-2.786 -1.906,-3.3980001 -0.355,-0.2 -0.624,-0.595 -0.371,-0.902 0.305,-0.368 0.655,-0.265 0.862,-0.153 1.554,0.919 2.54,2.6020001 2.54,4.4530001 0,1.851 -0.986,3.535 -2.529,4.475 -0.212,0.115 -0.551,0.26 -0.844,-0.128 z"
         id="path1-3-0" /></g><g
       class="ColorScheme-Text"
       fill="currentColor"
       id="g26"><path
         style="color:#dfdfdf;clip-rule:evenodd;fill:currentColor;fill-rule:evenodd;stroke-linejoin:round;stroke-miterlimit:2"
         class="ColorScheme-Text"
         d="m 10.259844,3.2129999 -5.3330002,4.45 h -0.774 c -0.567,0 -1.025,0.4580001 -1.025,1.0250001 v 4.625 c 0,0.566 0.458,1.025 1.025,1.025 h 0.774 l 5.3330002,4.449 z m -1.1130002,2.3 -3.529,3.0220001 c -0.197,0.156 -0.441,0.2409999 -0.691,0.2409999 h -0.687 V 13.225 h 0.687 c 0.25,0 0.494,0.085 0.691,0.24 l 3.529,3.023 z M 11.193844,12.232 c 0.681,0 1.233,-0.551 1.233,-1.232 0,-0.68 -0.552,-1.231 -1.233,-1.231 z"
         id="path2-65-5" /></g></g><g
     id="audio-volume-high-danger"
     transform="translate(88)"><path
       d="0h22v22h-22z"
       fill="none"
       id="path27" /><g
       class="ColorScheme-NegativeText"
       fill="currentColor"
       id="g29"><path
         style="color:#dfdfdf;clip-rule:evenodd;display:inline;opacity:0.3;fill:#cc0000;fill-opacity:1;fill-rule:evenodd;stroke-linejoin:round;stroke-miterlimit:2"
         class="ColorScheme-Text"
         d="m 13.806922,18.630996 c -0.212,-0.299 -0.066,-0.641 0.313,-0.858 2.192,-1.321 3.823,-4.16 3.823,-6.757 0,-2.596 -1.596,-5.407 -3.793,-6.719 -0.384,-0.22 -0.591,-0.631 -0.39,-0.941 0.198,-0.304 0.691,-0.244 0.895,-0.129 2.715,1.62 4.409,4.562 4.409,7.768 0,3.206 -1.694,6.149 -4.403,7.778 -0.207,0.118 -0.631,0.175 -0.854,-0.142 z m -3.611,-15.423 -5.046,4.45 h -1.061 c -0.567,0 -1.025,0.4580001 -1.025,1.0250001 v 4.6249999 c 0,0.566 0.458,1.025 1.025,1.025 h 1.061 l 5.046,4.449 z m 2.14,12.134 c -0.271,-0.361 0.077,-0.755 0.421,-0.948 1.039,-0.634 1.827,-2.148 1.827,-3.399 0,-1.2499999 -0.855,-2.7859999 -1.906,-3.398 -0.355,-0.2 -0.624,-0.595 -0.371,-0.902 0.305,-0.368 0.655,-0.265 0.862,-0.153 1.554,0.919 2.54,2.6020001 2.54,4.453 0,1.851 -0.986,3.535 -2.529,4.475 -0.212,0.115 -0.551,0.26 -0.844,-0.128 z"
         id="path1-3-0-3" /></g><g
       class="ColorScheme-Text"
       fill="currentColor"
       id="g32"><path
         style="color:#dfdfdf;clip-rule:evenodd;fill:currentColor;fill-rule:evenodd;stroke-linejoin:round;stroke-miterlimit:2"
         class="ColorScheme-Text"
         d="m 10.195922,3.207996 -5.333,4.45 h -0.774 c -0.567,0 -1.025,0.4580001 -1.025,1.0250001 v 4.6249999 c 0,0.566 0.458,1.025 1.025,1.025 h 0.774 l 5.333,4.449 z m -1.113,2.3 -3.529,3.0220001 c -0.197,0.156 -0.441,0.2409999 -0.691,0.2409999 h -0.687 v 4.449 h 0.687 c 0.25,0 0.494,0.085 0.691,0.24 l 3.529,3.023 z m 2.047,6.719 c 0.681,0 1.233,-0.551 1.233,-1.232 0,-0.68 -0.552,-1.2309999 -1.233,-1.2309999 z"
         id="path2-65-5-9" /></g></g><g
     id="16-16-audio-volume-muted"
     transform="translate(80, 22)"><g
       class="ColorScheme-Text"
       fill="currentColor"
       id="g39"><path
         style="color:#dfdfdf;display:inline;fill:currentColor"
         class="ColorScheme-Text"
         d="m 10.743,15.631 c -0.212,-0.299 -0.066,-0.641 0.313,-0.858 2.192,-1.321 3.823,-4.16 3.823,-6.757 0,-2.596 -1.596,-5.407 -3.793,-6.719 C 10.702,1.077 10.495,0.666 10.696,0.356 10.894,0.052 11.387,0.112 11.591,0.227 14.306,1.847 16,4.789 16,7.995 c 0,3.206 -1.694,6.149 -4.403,7.778 -0.207,0.118 -0.631,0.175 -0.854,-0.142 z M 7.132,0.208 2.086,4.658 H 1.025 C 0.458,4.658 0,5.116 0,5.683 v 4.625 c 0,0.566 0.458,1.025 1.025,1.025 h 1.061 l 5.046,4.449 z m 2.14,12.134 C 9.001,11.981 9.349,11.587 9.693,11.394 10.732,10.76 11.52,9.246 11.52,7.995 11.52,6.745 10.665,5.209 9.614,4.597 9.259,4.397 8.99,4.002 9.243,3.695 9.548,3.327 9.898,3.43 10.105,3.542 c 1.554,0.919 2.54,2.602 2.54,4.453 0,1.851 -0.986,3.535 -2.529,4.475 -0.212,0.115 -0.551,0.26 -0.844,-0.128 z M 8.066,9.227 c 0.681,0 1.233,-0.551 1.233,-1.232 0,-0.68 -0.552,-1.231 -1.233,-1.231 z"
         fill-opacity="0.3"
         id="path1-7-1"
         transform="matrix(0.72250868,0,0,0.72250868,2.439861,2.30871)" /><path
         style="color:#dfdfdf;display:inline;fill:currentColor"
         class="ColorScheme-Text"
         d="M 0.325,2.761 C 0.031,2.492 0.009,2.034 0.279,1.74 0.548,1.445 1.005,1.424 1.3,1.693 l 13.675,12.476 c 0.295,0.268 0.316,0.726 0.047,1.021 -0.269,0.295 -0.727,0.316 -1.021,0.047 L 2.939,5.145 2.49,5.53 C 2.293,5.686 2.049,5.771 1.799,5.771 H 1.112 v 4.449 h 0.687 c 0.25,0 0.494,0.085 0.691,0.24 l 3.529,3.023 V 7.955 l 1.113,1.016 v 6.811 L 1.799,11.333 H 1.025 C 0.458,11.333 0,10.874 0,10.308 V 5.683 C 0,5.116 0.458,4.658 1.025,4.658 H 1.799 L 2.116,4.394 Z M 7.132,6.263 6.019,5.281 V 2.508 L 4.392,3.902 3.565,3.184 7.132,0.208 Z"
         id="path2-60-4"
         transform="matrix(0.72250868,0,0,0.72250868,2.439861,2.30871)" /></g></g><g
     id="16-16-audio-volume-high-danger"
     transform="translate(64, 22)"><path
       id="path40"
       d="h16v16h-16z"
       fill="none" /><g
       class="ColorScheme-Text"
       fill="currentColor"
       id="g42"><path
         style="color:#dfdfdf;clip-rule:evenodd;display:inline;opacity:0.3;fill:#cc0000;fill-opacity:1;fill-rule:evenodd;stroke-linejoin:round;stroke-miterlimit:2"
         class="ColorScheme-Text"
         d="m 13.806922,18.630996 c -0.212,-0.299 -0.066,-0.641 0.313,-0.858 2.192,-1.321 3.823,-4.16 3.823,-6.757 0,-2.596 -1.596,-5.407 -3.793,-6.719 -0.384,-0.22 -0.591,-0.631 -0.39,-0.941 0.198,-0.304 0.691,-0.244 0.895,-0.129 2.715,1.62 4.409,4.562 4.409,7.768 0,3.206 -1.694,6.149 -4.403,7.778 -0.207,0.118 -0.631,0.175 -0.854,-0.142 z m -3.611,-15.423 -5.046,4.45 h -1.061 c -0.567,0 -1.025,0.4580001 -1.025,1.0250001 v 4.6249999 c 0,0.566 0.458,1.025 1.025,1.025 h 1.061 l 5.046,4.449 z m 2.14,12.134 c -0.271,-0.361 0.077,-0.755 0.421,-0.948 1.039,-0.634 1.827,-2.148 1.827,-3.399 0,-1.2499999 -0.855,-2.7859999 -1.906,-3.398 -0.355,-0.2 -0.624,-0.595 -0.371,-0.902 0.305,-0.368 0.655,-0.265 0.862,-0.153 1.554,0.919 2.54,2.6020001 2.54,4.453 0,1.851 -0.986,3.535 -2.529,4.475 -0.212,0.115 -0.551,0.26 -0.844,-0.128 z"
         id="path1-3-0-3-9"
         transform="matrix(0.72250868,0,0,0.72250868,-0.087237,0.144803)" /></g><g
       class="ColorScheme-NegativeText"
       fill="currentColor"
       id="g44"><path
         style="color:#dfdfdf;clip-rule:evenodd;fill:currentColor;fill-rule:evenodd;stroke-linejoin:round;stroke-miterlimit:2"
         class="ColorScheme-Text"
         d="m 10.195922,3.207996 -5.333,4.45 h -0.774 c -0.567,0 -1.025,0.4580001 -1.025,1.0250001 v 4.6249999 c 0,0.566 0.458,1.025 1.025,1.025 h 0.774 l 5.333,4.449 z m -1.113,2.3 -3.529,3.0220001 c -0.197,0.156 -0.441,0.2409999 -0.691,0.2409999 h -0.687 v 4.449 h 0.687 c 0.25,0 0.494,0.085 0.691,0.24 l 3.529,3.023 z m 2.047,6.719 c 0.681,0 1.233,-0.551 1.233,-1.232 0,-0.68 -0.552,-1.2309999 -1.233,-1.2309999 z"
         id="path2-65-5-9-2"
         transform="matrix(0.72250868,0,0,0.72250868,-0.087237,0.144803)" /></g></g><g
     id="16-16-audio-volume-high-warning"
     transform="translate(48, 22)"><path
       id="path45"
       d="h16v16h-16z"
       fill="none" /><g
       class="ColorScheme-Text"
       fill="currentColor"
       id="g47"><path
         style="color:#dfdfdf;clip-rule:evenodd;display:inline;opacity:0.3;fill:#d56d00;fill-opacity:1;fill-rule:evenodd;stroke-linejoin:round;stroke-miterlimit:2"
         class="ColorScheme-Text"
         d="m 13.870844,18.636 c -0.212,-0.299 -0.066,-0.641 0.313,-0.858 2.192,-1.321 3.823,-4.16 3.823,-6.757 0,-2.5960001 -1.596,-5.4070001 -3.793,-6.7190001 -0.384,-0.22 -0.591,-0.631 -0.39,-0.941 0.198,-0.304 0.691,-0.244 0.895,-0.129 2.715,1.62 4.409,4.562 4.409,7.7680001 0,3.206 -1.694,6.149 -4.403,7.778 -0.207,0.118 -0.631,0.175 -0.854,-0.142 z m -3.611,-15.4230001 -5.0460002,4.45 h -1.061 c -0.567,0 -1.025,0.4580001 -1.025,1.0250001 v 4.625 c 0,0.566 0.458,1.025 1.025,1.025 h 1.061 l 5.0460002,4.449 z m 2.14,12.1340001 c -0.271,-0.361 0.077,-0.755 0.421,-0.948 1.039,-0.634 1.827,-2.148 1.827,-3.399 0,-1.25 -0.855,-2.786 -1.906,-3.3980001 -0.355,-0.2 -0.624,-0.595 -0.371,-0.902 0.305,-0.368 0.655,-0.265 0.862,-0.153 1.554,0.919 2.54,2.6020001 2.54,4.4530001 0,1.851 -0.986,3.535 -2.529,4.475 -0.212,0.115 -0.551,0.26 -0.844,-0.128 z"
         id="path1-3-0-7"
         transform="matrix(0.72250868,0,0,0.72250868,-0.259894,0.137572)" /></g><g
       class="ColorScheme-NeutralText"
       fill="currentColor"
       id="g49"><path
         style="color:#dfdfdf;clip-rule:evenodd;fill:currentColor;fill-rule:evenodd;stroke-linejoin:round;stroke-miterlimit:2"
         class="ColorScheme-Text"
         d="m 10.259844,3.2129999 -5.3330002,4.45 h -0.774 c -0.567,0 -1.025,0.4580001 -1.025,1.0250001 v 4.625 c 0,0.566 0.458,1.025 1.025,1.025 h 0.774 l 5.3330002,4.449 z m -1.1130002,2.3 -3.529,3.0220001 c -0.197,0.156 -0.441,0.2409999 -0.691,0.2409999 h -0.687 V 13.225 h 0.687 c 0.25,0 0.494,0.085 0.691,0.24 l 3.529,3.023 z M 11.193844,12.232 c 0.681,0 1.233,-0.551 1.233,-1.232 0,-0.68 -0.552,-1.231 -1.233,-1.231 z"
         id="path2-65-5-4"
         transform="matrix(0.72250868,0,0,0.72250868,-0.259894,0.137572)" /></g></g><g
     id="16-16-audio-volume-high"
     transform="translate(32, 22)"><path
       id="path50"
       d="h16v16h-16z"
       fill="none" /><g
       class="ColorScheme-Text"
       fill="currentColor"
       id="g54"><path
         style="color:#dfdfdf;clip-rule:evenodd;display:inline;opacity:0.3;fill:currentColor;fill-rule:evenodd;stroke-linejoin:round;stroke-miterlimit:2"
         class="ColorScheme-Text"
         d="M 7.132,0.208 2.086,4.658 H 1.025 C 0.458,4.658 0,5.116 0,5.683 v 4.625 c 0,0.566 0.458,1.025 1.025,1.025 h 1.061 l 5.046,4.449 z"
         id="path1-2-6"
         transform="matrix(0.72250868,0,0,0.72250868,1.873527,2.219928)" /><path
         style="color:#dfdfdf;clip-rule:evenodd;display:inline;fill:currentColor;fill-rule:evenodd;stroke-linejoin:round;stroke-miterlimit:2"
         class="ColorScheme-Text"
         d="m 10.743,15.631 c -0.212,-0.299 -0.066,-0.641 0.313,-0.858 2.192,-1.321 3.823,-4.16 3.823,-6.757 0,-2.596 -1.596,-5.407 -3.793,-6.719 C 10.702,1.077 10.495,0.666 10.696,0.356 10.894,0.052 11.387,0.112 11.591,0.227 14.306,1.847 16,4.789 16,7.995 c 0,3.206 -1.694,6.149 -4.403,7.778 -0.207,0.118 -0.631,0.175 -0.854,-0.142 z M 7.132,0.208 1.799,4.658 H 1.025 C 0.458,4.658 0,5.116 0,5.683 v 4.625 c 0,0.566 0.458,1.025 1.025,1.025 h 0.774 l 5.333,4.449 z M 6.019,2.508 2.49,5.53 C 2.293,5.686 2.049,5.771 1.799,5.771 H 1.112 v 4.449 h 0.687 c 0.25,0 0.494,0.085 0.691,0.24 l 3.529,3.023 z m 3.253,9.834 C 9.001,11.981 9.349,11.587 9.693,11.394 10.732,10.76 11.52,9.246 11.52,7.995 11.52,6.745 10.665,5.209 9.614,4.597 9.259,4.397 8.99,4.002 9.243,3.695 9.548,3.327 9.898,3.43 10.105,3.542 c 1.554,0.919 2.54,2.602 2.54,4.453 0,1.851 -0.986,3.535 -2.529,4.475 -0.212,0.115 -0.551,0.26 -0.844,-0.128 z M 8.066,9.227 c 0.681,0 1.233,-0.551 1.233,-1.232 0,-0.68 -0.552,-1.231 -1.233,-1.231 z"
         id="path2-6-2"
         transform="matrix(0.72250868,0,0,0.72250868,1.873527,2.219928)" /></g></g><g
     id="16-16-audio-volume-medium"
     transform="translate(16, 22)"><path
       id="path55"
       d="h16v16h-16z"
       fill="none" /><g
       class="ColorScheme-Text"
       fill="currentColor"
       id="g59"><path
         style="color:#dfdfdf;clip-rule:evenodd;opacity:0.3;fill:currentColor;fill-rule:evenodd;stroke-linejoin:round;stroke-miterlimit:2"
         class="ColorScheme-Text"
         d="m 10.742,15.492 c -0.212,-0.299 -0.066,-0.64 0.313,-0.857 2.191,-1.321 3.821,-4.159 3.821,-6.754 0,-2.596 -1.594,-5.406 -3.791,-6.717 -0.384,-0.22 -0.591,-0.632 -0.39,-0.941 0.198,-0.304 0.691,-0.244 0.895,-0.129 2.713,1.619 4.407,4.561 4.407,7.765 0,3.205 -1.694,6.147 -4.401,7.776 -0.207,0.118 -0.631,0.174 -0.854,-0.143 z M 7.132,0.075 2.088,4.523 H 1.027 c -0.566,0 -1.024,0.459 -1.024,1.025 v 4.623 c 0,0.566 0.458,1.025 1.024,1.025 h 1.061 l 5.044,4.448 z"
         id="path1-6-1"
         transform="matrix(0.72250868,0,0,0.72250868,1.749221,2.403148)" /><path
         style="color:#dfdfdf;clip-rule:evenodd;fill:currentColor;fill-rule:evenodd;stroke-linejoin:round;stroke-miterlimit:2"
         class="ColorScheme-Text"
         d="M 7.132,0.075 1.801,4.523 H 1.027 c -0.566,0 -1.024,0.459 -1.024,1.025 v 4.623 c 0,0.566 0.458,1.025 1.024,1.025 h 0.774 l 5.331,4.448 z M 6.02,2.374 2.492,5.395 C 2.295,5.551 2.051,5.635 1.801,5.635 H 1.115 v 4.448 h 0.686 c 0.25,0 0.494,0.085 0.691,0.241 l 3.528,3.021 z m 3.252,9.83 C 9,11.844 9.348,11.45 9.692,11.257 10.731,10.623 11.519,9.109 11.519,7.859 11.519,6.61 10.664,5.074 9.613,4.462 9.258,4.262 8.989,3.867 9.243,3.56 9.547,3.192 9.898,3.296 10.104,3.408 c 1.554,0.919 2.539,2.601 2.539,4.451 0,1.851 -0.985,3.533 -2.527,4.473 -0.213,0.116 -0.552,0.26 -0.844,-0.128 z M 8.066,9.09 c 0.681,0 1.232,-0.55 1.232,-1.231 0,-0.68 -0.551,-1.231 -1.232,-1.231 z"
         id="path2-2-1"
         transform="matrix(0.72250868,0,0,0.72250868,1.749221,2.403148)" /></g></g><g
     id="16-16-audio-volume-low"
     transform="translate(0, 22)"><path
       id="path60"
       d="h16v16h-16z"
       fill="none" /><g
       class="ColorScheme-Text"
       fill="currentColor"
       id="g64"><path
         style="color:#dfdfdf;clip-rule:evenodd;opacity:0.3;fill:currentColor;fill-rule:evenodd;stroke-linejoin:round;stroke-miterlimit:2"
         class="ColorScheme-Text"
         d="m 10.743,15.631 c -0.212,-0.299 -0.066,-0.641 0.313,-0.858 2.192,-1.321 3.823,-4.16 3.823,-6.757 0,-2.596 -1.596,-5.407 -3.793,-6.719 C 10.702,1.077 10.495,0.666 10.696,0.356 10.894,0.052 11.387,0.112 11.591,0.227 14.306,1.847 16,4.789 16,7.995 c 0,3.206 -1.694,6.149 -4.403,7.778 -0.207,0.118 -0.631,0.175 -0.854,-0.142 z M 7.132,0.208 2.086,4.658 H 1.025 C 0.458,4.658 0,5.116 0,5.683 v 4.625 c 0,0.566 0.458,1.025 1.025,1.025 h 1.061 l 5.046,4.449 z m 2.14,12.134 C 9.001,11.981 9.349,11.587 9.693,11.394 10.732,10.76 11.52,9.246 11.52,7.995 11.52,6.745 10.665,5.209 9.614,4.597 9.259,4.397 8.99,4.002 9.243,3.695 9.548,3.327 9.898,3.43 10.105,3.542 c 1.554,0.919 2.54,2.602 2.54,4.453 0,1.851 -0.986,3.535 -2.529,4.475 -0.212,0.115 -0.551,0.26 -0.844,-0.128 z"
         id="path1-3-1"
         transform="matrix(0.72250868,0,0,0.72250868,1.747054,2.305095)" /><path
         style="color:#dfdfdf;clip-rule:evenodd;fill:currentColor;fill-rule:evenodd;stroke-linejoin:round;stroke-miterlimit:2"
         class="ColorScheme-Text"
         d="M 7.132,0.208 1.799,4.658 H 1.025 C 0.458,4.658 0,5.116 0,5.683 v 4.625 c 0,0.566 0.458,1.025 1.025,1.025 h 0.774 l 5.333,4.449 z M 6.019,2.508 2.49,5.53 C 2.293,5.686 2.049,5.771 1.799,5.771 H 1.112 v 4.449 h 0.687 c 0.25,0 0.494,0.085 0.691,0.24 l 3.529,3.023 z m 2.047,6.719 c 0.681,0 1.233,-0.551 1.233,-1.232 0,-0.68 -0.552,-1.231 -1.233,-1.231 z"
         id="path2-65-8"
         transform="matrix(0.72250868,0,0,0.72250868,1.747054,2.305095)" /></g></g></svg>
