<?xml version="1.0" encoding="UTF-8" standalone="no"?>
<svg
   width="22"
   height="22"
   id="svg7229"
   sodipodi:version="0.32"
   inkscape:version="1.3 (0e150ed6c4, 2023-07-21)"
   version="1.0"
   sodipodi:docname="battery.svg"
   inkscape:output_extension="org.inkscape.output.svgz.inkscape"
   viewBox="0 0 22 22"
   xml:space="preserve"
   xmlns:inkscape="http://www.inkscape.org/namespaces/inkscape"
   xmlns:sodipodi="http://sodipodi.sourceforge.net/DTD/sodipodi-0.dtd"
   xmlns="http://www.w3.org/2000/svg"
   xmlns:svg="http://www.w3.org/2000/svg"
   xmlns:rdf="http://www.w3.org/1999/02/22-rdf-syntax-ns#"
   xmlns:cc="http://creativecommons.org/ns#"
   xmlns:dc="http://purl.org/dc/elements/1.1/"><defs
     id="defs7231"><style
       id="current-color-scheme"
       type="text/css">&#10;      .ColorScheme-Text {&#10;        color:#31363b;&#10;      }&#10;      .ColorScheme-Background{&#10;        color:#eff0f1;&#10;      }&#10;      .ColorScheme-ViewText {&#10;        color:#31363b;&#10;      }&#10;      .ColorScheme-ViewBackground{&#10;        color:#ffffff;&#10;      }&#10;      .ColorScheme-ViewHover {&#10;        color:#000000;&#10;      }&#10;      .ColorScheme-ViewFocus{&#10;        color:#5a5a5a;&#10;      }&#10;      .ColorScheme-ButtonText {&#10;        color:#31363b;&#10;      }&#10;      .ColorScheme-ButtonBackground{&#10;        color:#E9E8E8;&#10;      }&#10;      .ColorScheme-ButtonHover {&#10;        color:#1489ff;&#10;      }&#10;      .ColorScheme-ButtonFocus{&#10;        color:#2B74C7;&#10;      }&#10;</style><style
       type="text/css"
       id="style5">&#10;      .ColorScheme-Text {&#10;        color:#31363b;&#10;      }&#10;      .ColorScheme-Background {&#10;        color:#eff0f1;&#10;      }&#10;      .ColorScheme-Highlight {&#10;        color:#3daee9;&#10;      }&#10;      .ColorScheme-ViewText {&#10;        color:#31363b;&#10;      }&#10;      .ColorScheme-ViewBackground {&#10;        color:#fcfcfc;&#10;      }&#10;      .ColorScheme-ViewHover {&#10;        color:#93cee9;&#10;      }&#10;      .ColorScheme-ViewFocus{&#10;        color:#3daee9;&#10;      }&#10;      .ColorScheme-ButtonText {&#10;        color:#31363b;&#10;      }&#10;      .ColorScheme-ButtonBackground {&#10;        color:#eff0f1;&#10;      }&#10;      .ColorScheme-ButtonHover {&#10;        color:#93cee9;&#10;      }&#10;      .ColorScheme-ButtonFocus{&#10;        color:#3daee9;&#10;      }&#10;      </style><style
       id="current-color-scheme-9"
       type="text/css">&#10;   .ColorScheme-Text { color:#dfdfdf; } .ColorScheme-Highlight { color:#4285f4; } .ColorScheme-NeutralText { color:#ff9800; } .ColorScheme-PositiveText { color:#4caf50; } .ColorScheme-NegativeText { color:#f44336; }&#10;  </style><style
       id="current-color-scheme-5"
       type="text/css">&#10;   .ColorScheme-Text { color:#dfdfdf; } .ColorScheme-Highlight { color:#4285f4; } .ColorScheme-NeutralText { color:#ff9800; } .ColorScheme-PositiveText { color:#4caf50; } .ColorScheme-NegativeText { color:#f44336; }&#10;  </style></defs><sodipodi:namedview
     id="base"
     pagecolor="#ffffff"
     bordercolor="#666666"
     borderopacity="1.0"
     inkscape:pageopacity="0"
     inkscape:pageshadow="2"
     inkscape:zoom="1.5155946"
     inkscape:cx="-25.072667"
     inkscape:cy="-134.27073"
     inkscape:document-units="px"
     inkscape:current-layer="layer1"
     showgrid="true"
     inkscape:window-width="2194"
     inkscape:window-height="1211"
     inkscape:window-x="-8"
     inkscape:window-y="-8"
     showguides="true"
     inkscape:guide-bbox="true"
     gridtolerance="10000"
     inkscape:window-maximized="1"
     inkscape:snap-bbox="true"
     inkscape:showpageshadow="false"
     borderlayer="true"
     inkscape:object-nodes="true"
     inkscape:document-rotation="0"
     inkscape:pagecheckerboard="0"
     inkscape:deskcolor="#d1d1d1"><inkscape:grid
       type="xygrid"
       id="grid3780"
       empspacing="5"
       visible="true"
       enabled="true"
       snapvisiblegridlinesonly="true"
       originx="0"
       originy="0"
       spacingy="1"
       spacingx="1"
       units="px" /><sodipodi:guide
       position="-31.999999,30.000005"
       orientation="32,0"
       id="guide4222"
       inkscape:locked="false" /><sodipodi:guide
       position="-31.999999,-1.9999954"
       orientation="0,32"
       id="guide4224"
       inkscape:locked="false" /><sodipodi:guide
       position="8.2519531e-07,-1.9999954"
       orientation="-32,0"
       id="guide4226"
       inkscape:locked="false" /><sodipodi:guide
       position="8.2519531e-07,30.000005"
       orientation="0,-32"
       id="guide4228"
       inkscape:locked="false" /><sodipodi:guide
       position="-27.999999,26.000005"
       orientation="24,0"
       id="guide4230"
       inkscape:locked="false" /><sodipodi:guide
       position="-27.999999,2.0000046"
       orientation="0,24"
       id="guide4232"
       inkscape:locked="false" /><sodipodi:guide
       position="-3.9999992,2.0000046"
       orientation="-24,0"
       id="guide4234"
       inkscape:locked="false" /><sodipodi:guide
       position="-3.9999992,26.000005"
       orientation="0,-24"
       id="guide4236"
       inkscape:locked="false" /></sodipodi:namedview><metadata
     id="metadata7234"><rdf:RDF><cc:Work
         rdf:about=""><dc:format>image/svg+xml</dc:format><dc:type
           rdf:resource="http://purl.org/dc/dcmitype/StillImage" /><dc:title /></cc:Work></rdf:RDF></metadata><g
     inkscape:label="Camada 1"
     inkscape:groupmode="layer"
     id="layer1"
     transform="translate(-214.53572,-404.50504)"><g
       id="22-22-Battery"><rect
         y="404.50504"
         x="214.53572"
         height="22"
         width="22"
         id="rect4185"
         style="opacity:1;fill:none;fill-opacity:1;stroke:none;stroke-width:0.1;stroke-linecap:square;stroke-linejoin:miter;stroke-miterlimit:4;stroke-dasharray:none;stroke-dashoffset:0;stroke-opacity:1" /><path
         style="opacity:0.3;fill:currentColor"
         class="ColorScheme-Text"
         d="M 3,2.525 V 14 c 0,0.55 0.446,1 1,1 h 8 c 0.554,0 1,-0.45 1,-1 V 2.525 Z"
         id="path1"
         transform="matrix(1.0783609,0,0,1.0783609,216.90883,406.87761)" /><path
         style="fill:currentColor"
         class="ColorScheme-Text"
         d="m 5.436,1.825 v -0.41 c 0,-0.627 0.509,-1.136 1.136,-1.136 h 2.856 c 0.627,0 1.136,0.509 1.136,1.136 v 0.41 h 0.963 c 1.125,0 2.037,0.912 2.037,2.036 v 9.824 c 0,1.125 -0.912,2.037 -2.037,2.037 H 4.473 c -1.125,0 -2.037,-0.912 -2.037,-2.037 V 3.861 c 0,-1.124 0.912,-2.036 2.037,-2.036 z m -0.963,0.7 c -0.738,0 -1.337,0.598 -1.337,1.336 v 9.824 c 0,0.738 0.599,1.337 1.337,1.337 h 7.054 c 0.738,0 1.337,-0.599 1.337,-1.337 V 3.861 c 0,-0.738 -0.599,-1.336 -1.337,-1.336 z"
         id="path2"
         transform="matrix(1.0783609,0,0,1.0783609,216.90883,406.87761)" /></g><g
       id="22-22-Fill100"><rect
         style="opacity:1;fill:none;fill-opacity:1;stroke:none;stroke-width:0.1;stroke-linecap:square;stroke-linejoin:miter;stroke-miterlimit:4;stroke-dasharray:none;stroke-dashoffset:0;stroke-opacity:1"
         id="rect4193"
         width="22"
         height="22"
         x="236.53572"
         y="404.50504" /><path
         style="color:#dfdfdf;opacity:0.3;fill:currentColor;stroke-width:1.07836"
         class="ColorScheme-Text"
         d="m 242.14392,409.60048 v 12.37419 c 0,0.59309 0.48095,1.07835 1.07836,1.07835 h 8.62689 c 0.59741,0 1.07836,-0.48526 1.07836,-1.07835 v -12.37419 z"
         id="path1-6" /><path
         style="color:#dfdfdf;fill:currentColor;stroke-width:1.07836"
         class="ColorScheme-Text"
         d="m 244.7708,408.84563 v -0.44213 c 0,-0.67613 0.54889,-1.22502 1.22502,-1.22502 h 3.0798 c 0.67613,0 1.22501,0.54889 1.22501,1.22502 v 0.44213 h 1.03847 c 1.21315,0 2.19662,0.98346 2.19662,2.19554 v 10.59382 c 0,1.21315 -0.98347,2.19662 -2.19662,2.19662 h -7.60676 c -1.21316,0 -2.19662,-0.98347 -2.19662,-2.19662 v -10.59382 c 0,-1.21208 0.98346,-2.19554 2.19662,-2.19554 z m -1.03846,0.75485 c -0.79583,0 -1.44177,0.64485 -1.44177,1.44069 v 10.59382 c 0,0.79583 0.64594,1.44177 1.44177,1.44177 h 7.60676 c 0.79583,0 1.44176,-0.64594 1.44176,-1.44177 v -10.59382 c 0,-0.79584 -0.64593,-1.44069 -1.44176,-1.44069 z"
         id="path2-1" /></g><g
       id="22-22-Fill90"><rect
         y="404.50504"
         x="258.53571"
         height="22"
         width="22"
         id="rect4197"
         style="opacity:1;fill:none;fill-opacity:1;stroke:none;stroke-width:0.1;stroke-linecap:square;stroke-linejoin:miter;stroke-miterlimit:4;stroke-dasharray:none;stroke-dashoffset:0;stroke-opacity:1" /><path
         style="opacity:0.3;fill:currentColor;stroke-width:1.07836"
         class="ColorScheme-Text"
         d="m 264.14391,411.21802 v 10.75664 c 0,0.5931 0.48094,1.07838 1.07836,1.07838 h 8.62688 c 0.59742,0 1.07836,-0.48528 1.07836,-1.07838 v -10.75664 z"
         id="path1-61" /><path
         style="fill:currentColor;stroke-width:1.07836"
         class="ColorScheme-Text"
         d="m 266.77079,408.84562 v -0.44212 c 0,-0.67614 0.54888,-1.22502 1.22502,-1.22502 h 3.0798 c 0.67614,0 1.22502,0.54888 1.22502,1.22502 v 0.44212 h 1.03846 c 1.21316,0 2.19662,0.98348 2.19662,2.19554 v 10.59382 c 0,1.21316 -0.98346,2.19662 -2.19662,2.19662 h -7.60676 c -1.21316,0 -2.19662,-0.98346 -2.19662,-2.19662 v -10.59382 c 0,-1.21206 0.98346,-2.19554 2.19662,-2.19554 z m -1.03846,0.75486 c -0.79582,0 -1.44176,0.64486 -1.44176,1.44068 v 10.59382 c 0,0.79584 0.64594,1.44178 1.44176,1.44178 h 7.60676 c 0.79582,0 1.44176,-0.64594 1.44176,-1.44178 v -10.59382 c 0,-0.79582 -0.64594,-1.44068 -1.44176,-1.44068 z"
         id="path2-2" /></g><g
       id="22-22-Fill80"><rect
         style="opacity:1;fill:none;fill-opacity:1;stroke:none;stroke-width:0.1;stroke-linecap:square;stroke-linejoin:miter;stroke-miterlimit:4;stroke-dasharray:none;stroke-dashoffset:0;stroke-opacity:1"
         id="rect4203"
         width="22"
         height="22"
         x="280.53571"
         y="404.50504" /><path
         style="color:#dfdfdf;opacity:0.3;fill:currentColor;stroke-width:1.01804"
         class="ColorScheme-Text"
         d="m 286.14391,412.50504 v 9.58689 c 0,0.5286 0.48094,0.96111 1.07836,0.96111 h 8.62688 c 0.59742,0 1.07836,-0.43251 1.07836,-0.96111 v -9.58689 z"
         id="path1-61-0" /><path
         style="color:#dfdfdf;fill:currentColor;stroke-width:1.07836"
         class="ColorScheme-Text"
         d="m 288.77079,408.84562 v -0.44212 c 0,-0.67614 0.54888,-1.22502 1.22502,-1.22502 h 3.0798 c 0.67614,0 1.22502,0.54888 1.22502,1.22502 v 0.44212 h 1.03846 c 1.21316,0 2.19662,0.98348 2.19662,2.19554 v 10.59382 c 0,1.21316 -0.98346,2.19662 -2.19662,2.19662 h -7.60676 c -1.21316,0 -2.19662,-0.98346 -2.19662,-2.19662 v -10.59382 c 0,-1.21206 0.98346,-2.19554 2.19662,-2.19554 z m -1.03846,0.75486 c -0.79582,0 -1.44176,0.64486 -1.44176,1.44068 v 10.59382 c 0,0.79584 0.64594,1.44178 1.44176,1.44178 h 7.60676 c 0.79582,0 1.44176,-0.64594 1.44176,-1.44178 v -10.59382 c 0,-0.79582 -0.64594,-1.44068 -1.44176,-1.44068 z"
         id="path2-2-2" /></g><g
       id="22-22-Fill70"><rect
         y="404.50504"
         x="302.53571"
         height="22"
         width="22"
         id="rect4209"
         style="opacity:1;fill:none;fill-opacity:1;stroke:none;stroke-width:0.1;stroke-linecap:square;stroke-linejoin:miter;stroke-miterlimit:4;stroke-dasharray:none;stroke-dashoffset:0;stroke-opacity:1" /><path
         style="color:#dfdfdf;opacity:0.3;fill:currentColor;stroke-width:0.968581"
         class="ColorScheme-Text"
         d="m 308.14391,413.50504 v 8.67801 c 0,0.47848 0.48094,0.86999 1.07836,0.86999 h 8.62688 c 0.59742,0 1.07836,-0.39151 1.07836,-0.86999 v -8.67801 z"
         id="path1-61-0-5" /><path
         style="color:#dfdfdf;fill:currentColor;stroke-width:1.07836"
         class="ColorScheme-Text"
         d="m 310.77079,408.84562 v -0.44212 c 0,-0.67614 0.54888,-1.22502 1.22502,-1.22502 h 3.0798 c 0.67614,0 1.22502,0.54888 1.22502,1.22502 v 0.44212 h 1.03846 c 1.21316,0 2.19662,0.98348 2.19662,2.19554 v 10.59382 c 0,1.21316 -0.98346,2.19662 -2.19662,2.19662 h -7.60676 c -1.21316,0 -2.19662,-0.98346 -2.19662,-2.19662 v -10.59382 c 0,-1.21206 0.98346,-2.19554 2.19662,-2.19554 z m -1.03846,0.75486 c -0.79582,0 -1.44176,0.64486 -1.44176,1.44068 v 10.59382 c 0,0.79584 0.64594,1.44178 1.44176,1.44178 h 7.60676 c 0.79582,0 1.44176,-0.64594 1.44176,-1.44178 v -10.59382 c 0,-0.79582 -0.64594,-1.44068 -1.44176,-1.44068 z"
         id="path2-2-2-8" /></g><g
       id="22-22-Fill60"><rect
         style="opacity:1;fill:none;fill-opacity:1;stroke:none;stroke-width:0.1;stroke-linecap:square;stroke-linejoin:miter;stroke-miterlimit:4;stroke-dasharray:none;stroke-dashoffset:0;stroke-opacity:1"
         id="rect4215"
         width="22"
         height="22"
         x="324.53571"
         y="404.50504" /><path
         style="color:#dfdfdf;opacity:0.3;fill:currentColor;stroke-width:0.916457"
         class="ColorScheme-Text"
         d="m 330.14391,414.50504 v 7.76913 c 0,0.42836 0.48094,0.77887 1.07836,0.77887 h 8.62688 c 0.59742,0 1.07836,-0.35051 1.07836,-0.77887 v -7.76913 z"
         id="path1-61-0-5-6" /><path
         style="color:#dfdfdf;fill:currentColor;stroke-width:1.07836"
         class="ColorScheme-Text"
         d="m 332.77079,408.84562 v -0.44212 c 0,-0.67614 0.54888,-1.22502 1.22502,-1.22502 h 3.0798 c 0.67614,0 1.22502,0.54888 1.22502,1.22502 v 0.44212 h 1.03846 c 1.21316,0 2.19662,0.98348 2.19662,2.19554 v 10.59382 c 0,1.21316 -0.98346,2.19662 -2.19662,2.19662 h -7.60676 c -1.21316,0 -2.19662,-0.98346 -2.19662,-2.19662 v -10.59382 c 0,-1.21206 0.98346,-2.19554 2.19662,-2.19554 z m -1.03846,0.75486 c -0.79582,0 -1.44176,0.64486 -1.44176,1.44068 v 10.59382 c 0,0.79584 0.64594,1.44178 1.44176,1.44178 h 7.60676 c 0.79582,0 1.44176,-0.64594 1.44176,-1.44178 v -10.59382 c 0,-0.79582 -0.64594,-1.44068 -1.44176,-1.44068 z"
         id="path2-2-2-8-4" /></g><g
       id="22-22-Fill50"><rect
         y="404.50504"
         x="346.53571"
         height="22"
         width="22"
         id="rect4221"
         style="opacity:1;fill:none;fill-opacity:1;stroke:none;stroke-width:0.1;stroke-linecap:square;stroke-linejoin:miter;stroke-miterlimit:4;stroke-dasharray:none;stroke-dashoffset:0;stroke-opacity:1" /><path
         style="color:#dfdfdf;opacity:0.3;fill:currentColor;stroke-width:0.835"
         class="ColorScheme-Text"
         d="m 352.14392,415.95704 v 6.44943 c 0,0.3556 0.48094,0.64657 1.07836,0.64657 h 8.62688 c 0.59742,0 1.07836,-0.29097 1.07836,-0.64657 v -6.44943 z"
         id="path1-61-0-5-6-1" /><path
         style="color:#dfdfdf;fill:currentColor;stroke-width:1.07836"
         class="ColorScheme-Text"
         d="m 354.7708,408.84562 v -0.44212 c 0,-0.67614 0.54888,-1.22502 1.22502,-1.22502 h 3.0798 c 0.67614,0 1.22502,0.54888 1.22502,1.22502 v 0.44212 h 1.03846 c 1.21316,0 2.19662,0.98348 2.19662,2.19554 v 10.59382 c 0,1.21316 -0.98346,2.19662 -2.19662,2.19662 h -7.60676 c -1.21316,0 -2.19662,-0.98346 -2.19662,-2.19662 v -10.59382 c 0,-1.21206 0.98346,-2.19554 2.19662,-2.19554 z m -1.03846,0.75486 c -0.79582,0 -1.44176,0.64486 -1.44176,1.44068 v 10.59382 c 0,0.79584 0.64594,1.44178 1.44176,1.44178 h 7.60676 c 0.79582,0 1.44176,-0.64594 1.44176,-1.44178 v -10.59382 c 0,-0.79582 -0.64594,-1.44068 -1.44176,-1.44068 z"
         id="path2-2-2-8-4-8" /></g><g
       id="22-22-Fill40"><rect
         style="opacity:1;fill:none;fill-opacity:1;stroke:none;stroke-width:0.1;stroke-linecap:square;stroke-linejoin:miter;stroke-miterlimit:4;stroke-dasharray:none;stroke-dashoffset:0;stroke-opacity:1"
         id="rect4227"
         width="22"
         height="22"
         x="368.53571"
         y="404.50504" /><path
         style="color:#dfdfdf;opacity:0.3;fill:currentColor;stroke-width:0.738326"
         class="ColorScheme-Text"
         d="m 374.14391,417.50504 v 5.04248 c 0,0.27803 0.48094,0.50552 1.07836,0.50552 h 8.62688 c 0.59742,0 1.07836,-0.22749 1.07836,-0.50552 v -5.04248 z"
         id="path1-61-0-5-6-1-3" /><path
         style="color:#dfdfdf;fill:currentColor;stroke-width:1.07836"
         class="ColorScheme-Text"
         d="m 376.77079,408.84562 v -0.44212 c 0,-0.67614 0.54888,-1.22502 1.22502,-1.22502 h 3.0798 c 0.67614,0 1.22502,0.54888 1.22502,1.22502 v 0.44212 h 1.03846 c 1.21316,0 2.19662,0.98348 2.19662,2.19554 v 10.59382 c 0,1.21316 -0.98346,2.19662 -2.19662,2.19662 h -7.60676 c -1.21316,0 -2.19662,-0.98346 -2.19662,-2.19662 v -10.59382 c 0,-1.21206 0.98346,-2.19554 2.19662,-2.19554 z m -1.03846,0.75486 c -0.79582,0 -1.44176,0.64486 -1.44176,1.44068 v 10.59382 c 0,0.79584 0.64594,1.44178 1.44176,1.44178 h 7.60676 c 0.79582,0 1.44176,-0.64594 1.44176,-1.44178 v -10.59382 c 0,-0.79582 -0.64594,-1.44068 -1.44176,-1.44068 z"
         id="path2-2-2-8-4-8-3" /></g><g
       id="22-22-Fill30"><rect
         y="404.50504"
         x="390.53571"
         height="22"
         width="22"
         id="rect4233"
         style="opacity:1;fill:none;fill-opacity:1;stroke:none;stroke-width:0.1;stroke-linecap:square;stroke-linejoin:miter;stroke-miterlimit:4;stroke-dasharray:none;stroke-dashoffset:0;stroke-opacity:1" /><path
         style="color:#dfdfdf;opacity:0.3;fill:currentColor;stroke-width:0.668483"
         class="ColorScheme-Text"
         d="m 396.14391,418.50504 v 4.1336 c 0,0.22791 0.48094,0.4144 1.07836,0.4144 h 8.62688 c 0.59742,0 1.07836,-0.18649 1.07836,-0.4144 v -4.1336 z"
         id="path1-61-0-5-6-1-3-9" /><path
         style="color:#dfdfdf;fill:currentColor;stroke-width:1.07836"
         class="ColorScheme-Text"
         d="m 398.77079,408.84562 v -0.44212 c 0,-0.67614 0.54888,-1.22502 1.22502,-1.22502 h 3.0798 c 0.67614,0 1.22502,0.54888 1.22502,1.22502 v 0.44212 h 1.03846 c 1.21316,0 2.19662,0.98348 2.19662,2.19554 v 10.59382 c 0,1.21316 -0.98346,2.19662 -2.19662,2.19662 h -7.60676 c -1.21316,0 -2.19662,-0.98346 -2.19662,-2.19662 v -10.59382 c 0,-1.21206 0.98346,-2.19554 2.19662,-2.19554 z m -1.03846,0.75486 c -0.79582,0 -1.44176,0.64486 -1.44176,1.44068 v 10.59382 c 0,0.79584 0.64594,1.44178 1.44176,1.44178 h 7.60676 c 0.79582,0 1.44176,-0.64594 1.44176,-1.44178 v -10.59382 c 0,-0.79582 -0.64594,-1.44068 -1.44176,-1.44068 z"
         id="path2-2-2-8-4-8-3-9" /></g><g
       id="22-22-Fill20"><rect
         style="opacity:1;fill:none;fill-opacity:1;stroke:none;stroke-width:0.1;stroke-linecap:square;stroke-linejoin:miter;stroke-miterlimit:4;stroke-dasharray:none;stroke-dashoffset:0;stroke-opacity:1"
         id="rect4239"
         width="22"
         height="22"
         x="412.53571"
         y="404.50504" /><path
         style="color:#dfdfdf;opacity:0.3;fill:#f0a300;stroke-width:0.590435;fill-opacity:1"
         class="ColorScheme-Text"
         d="m 418.14391,419.50504 v 3.22472 c 0,0.17779 0.48094,0.32328 1.07836,0.32328 h 8.62688 c 0.59742,0 1.07836,-0.14549 1.07836,-0.32328 v -3.22472 z"
         id="path1-61-0-5-6-1-3-9-8" /><path
         style="color:#dfdfdf;fill:#f0a300;stroke-width:1.07836;fill-opacity:1"
         class="ColorScheme-Text"
         d="m 420.77079,408.84562 v -0.44212 c 0,-0.67614 0.54888,-1.22502 1.22502,-1.22502 h 3.0798 c 0.67614,0 1.22502,0.54888 1.22502,1.22502 v 0.44212 h 1.03846 c 1.21316,0 2.19662,0.98348 2.19662,2.19554 v 10.59382 c 0,1.21316 -0.98346,2.19662 -2.19662,2.19662 h -7.60676 c -1.21316,0 -2.19662,-0.98346 -2.19662,-2.19662 v -10.59382 c 0,-1.21206 0.98346,-2.19554 2.19662,-2.19554 z m -1.03846,0.75486 c -0.79582,0 -1.44176,0.64486 -1.44176,1.44068 v 10.59382 c 0,0.79584 0.64594,1.44178 1.44176,1.44178 h 7.60676 c 0.79582,0 1.44176,-0.64594 1.44176,-1.44178 v -10.59382 c 0,-0.79582 -0.64594,-1.44068 -1.44176,-1.44068 z"
         id="path2-2-2-8-4-8-3-9-4" /></g><g
       id="22-22-Fill10"
       transform="translate(22,0)"><rect
         y="404.50504"
         x="412.53571"
         height="22"
         width="22"
         id="rect4336"
         style="opacity:1;fill:none;fill-opacity:1;stroke:none;stroke-width:0.1;stroke-linecap:square;stroke-linejoin:miter;stroke-miterlimit:4;stroke-dasharray:none;stroke-dashoffset:0;stroke-opacity:1" /><path
         style="color:#dfdfdf;opacity:0.3;fill:#da4453;stroke-width:0.390001;fill-opacity:1"
         class="ColorScheme-Text"
         d="m 418.14391,421.50504 v 1.40695 c 0,0.0776 0.48094,0.14105 1.07836,0.14105 h 8.62688 c 0.59742,0 1.07836,-0.0635 1.07836,-0.14105 v -1.40695 z"
         id="path1-61-0-5-6-1-3-9-8-9" /><path
         style="color:#dfdfdf;fill:#da4453;stroke-width:1.07836;fill-opacity:1"
         class="ColorScheme-Text"
         d="m 442.77079,408.84562 v -0.44212 c 0,-0.67614 0.54888,-1.22502 1.22502,-1.22502 h 3.0798 c 0.67614,0 1.22502,0.54888 1.22502,1.22502 v 0.44212 h 1.03846 c 1.21316,0 2.19662,0.98348 2.19662,2.19554 v 10.59382 c 0,1.21316 -0.98346,2.19662 -2.19662,2.19662 h -7.60676 c -1.21316,0 -2.19662,-0.98346 -2.19662,-2.19662 v -10.59382 c 0,-1.21206 0.98346,-2.19554 2.19662,-2.19554 z m -1.03846,0.75486 c -0.79582,0 -1.44176,0.64486 -1.44176,1.44068 v 10.59382 c 0,0.79584 0.64594,1.44178 1.44176,1.44178 h 7.60676 c 0.79582,0 1.44176,-0.64594 1.44176,-1.44178 v -10.59382 c 0,-0.79582 -0.64594,-1.44068 -1.44176,-1.44068 z"
         id="path2-2-2-8-4-8-3-9-4-1"
         transform="translate(-22)" /></g><g
       transform="translate(44,0)"
       id="22-22-Fill0"><rect
         style="opacity:1;fill:none;fill-opacity:1;stroke:none;stroke-width:0.1;stroke-linecap:square;stroke-linejoin:miter;stroke-miterlimit:4;stroke-dasharray:none;stroke-dashoffset:0;stroke-opacity:1"
         id="rect4344"
         width="22"
         height="22"
         x="412.53571"
         y="404.50504" /><path
         style="color:#dfdfdf;fill:#da4453;fill-opacity:1;stroke-width:1.07836"
         class="ColorScheme-Text"
         d="m 420.77079,408.84562 v -0.44212 c 0,-0.67614 0.54888,-1.22502 1.22502,-1.22502 h 3.0798 c 0.67614,0 1.22502,0.54888 1.22502,1.22502 v 0.44212 h 1.03846 c 1.21316,0 2.19662,0.98348 2.19662,2.19554 v 10.59382 c 0,1.21316 -0.98346,2.19662 -2.19662,2.19662 h -7.60676 c -1.21316,0 -2.19662,-0.98346 -2.19662,-2.19662 v -10.59382 c 0,-1.21206 0.98346,-2.19554 2.19662,-2.19554 z m -1.03846,0.75486 c -0.79582,0 -1.44176,0.64486 -1.44176,1.44068 v 10.59382 c 0,0.79584 0.64594,1.44178 1.44176,1.44178 h 7.60676 c 0.79582,0 1.44176,-0.64594 1.44176,-1.44178 v -10.59382 c 0,-0.79582 -0.64594,-1.44068 -1.44176,-1.44068 z"
         id="path2-2-2-8-4-8-3-9-4-1-3" /></g><g
       id="22-22-battery-ups"><rect
         style="opacity:1;fill:none;fill-opacity:1;stroke:none;stroke-width:0.1;stroke-linecap:square;stroke-linejoin:miter;stroke-miterlimit:4;stroke-dasharray:none;stroke-dashoffset:0;stroke-opacity:1"
         id="rect4416"
         width="22"
         height="22"
         x="214.53572"
         y="426.50504" /><path
         style="color:#dfdfdf;fill:currentColor;stroke-width:1.0873"
         class="ColorScheme-Text"
         d="m 229.37064,429.50504 c 1.22321,0 2.21483,0.99162 2.21483,2.21375 v 10.68166 c 0,1.22321 -0.99163,2.21483 -2.21483,2.21483 h -7.66984 c -1.22322,0 -2.21483,-0.99162 -2.21483,-2.21483 v -10.68166 c 0,-1.22213 0.99161,-2.21375 2.21483,-2.21375 z m -7.66984,0.76111 c -0.80242,0 -1.45372,0.6502 -1.45372,1.45264 v 10.68166 c 0,0.80243 0.6513,1.45372 1.45372,1.45372 h 7.66984 c 0.80242,0 1.45371,-0.65129 1.45371,-1.45372 v -10.68166 c 0,-0.80244 -0.65129,-1.45264 -1.45371,-1.45264 z"
         id="path2-3-7"
         sodipodi:nodetypes="cssssssccsssssssss" /><path
         inkscape:connector-curvature="0"
         id="rect4411-1"
         d="m 225.53572,431.01041 -2.01658,4.70536 h 2.01658 v 2.68878 l 2.01658,-4.70536 h -2.01658 z m -4.03317,10.08291 v 2.01659 h 0.6722 v -2.01659 z m 1.34439,0 v 2.01659 h 0.6722 v -2.01659 z m 1.34439,0 v 2.01659 h 0.6722 v -2.01659 z m 1.34439,0 v 2.01659 h 0.67219 v -2.01659 z m 3.02487,0 c -0.55686,0 -1.00829,0.45143 -1.00829,1.0083 0,0.55686 0.45143,1.00829 1.00829,1.00829 0.55687,0 1.0083,-0.45143 1.0083,-1.00829 0,-0.55687 -0.45143,-1.0083 -1.0083,-1.0083 z"
         style="color:#dfdfdf;fill:currentColor;fill-opacity:1;stroke:none;stroke-width:0.672194"
         class="ColorScheme-Text"
         sodipodi:nodetypes="cccccccccccccccccccccccccccsssss" /></g><g
       id="22-22-Unavailable"><rect
         style="opacity:1;fill:none;fill-opacity:1;stroke:none;stroke-width:0.1;stroke-linecap:square;stroke-linejoin:miter;stroke-miterlimit:4;stroke-dasharray:none;stroke-dashoffset:0;stroke-opacity:1"
         id="rect4614"
         width="22"
         height="22"
         x="258.53571"
         y="426.50504" /><path
         style="color:#dfdfdf;opacity:0.3;fill:currentColor;stroke-width:1.07836"
         class="ColorScheme-Text"
         d="m 264.14391,431.50504 v 12.37419 c 0,0.59309 0.48095,1.07835 1.07836,1.07835 h 8.62689 c 0.59741,0 1.07835,-0.48526 1.07835,-1.07835 v -12.37419 z"
         id="path1-6-6-4" /><path
         style="color:#dfdfdf;fill:currentColor;stroke-width:1.07836"
         class="ColorScheme-Text"
         d="m 266.77079,430.85487 v -0.44213 c 0,-0.67613 0.54889,-1.22502 1.22502,-1.22502 h 3.07979 c 0.67613,0 1.22501,0.54889 1.22501,1.22502 v 0.44213 h 1.03848 c 1.21314,0 2.19662,0.98346 2.19662,2.19554 v 10.59382 c 0,1.21315 -0.98348,2.19662 -2.19662,2.19662 h -7.60677 c -1.21316,0 -2.19661,-0.98347 -2.19661,-2.19662 v -10.59382 c 0,-1.21208 0.98345,-2.19554 2.19661,-2.19554 z m -1.03846,0.75485 c -0.79583,0 -1.44177,0.64485 -1.44177,1.44069 v 10.59382 c 0,0.79583 0.64594,1.44177 1.44177,1.44177 h 7.60676 c 0.79583,0 1.44176,-0.64594 1.44176,-1.44177 v -10.59382 c 0,-0.79584 -0.64593,-1.44069 -1.44176,-1.44069 z"
         id="path2-1-27-2" /><g
         id="g4631"><rect
           ry="0.80000371"
           y="434.23135"
           x="265.53564"
           height="8"
           width="8"
           id="rect4577-9-1"
           style="opacity:1;fill:#da4453;fill-opacity:1;stroke:none" /><path
           inkscape:connector-curvature="0"
           style="opacity:1;fill:currentColor;fill-opacity:1;stroke:none;stroke-width:0.111692;stroke-linecap:square;stroke-linejoin:miter;stroke-miterlimit:4;stroke-dasharray:none;stroke-dashoffset:0;stroke-opacity:1"
           d="m 267.24259,435.23131 -0.70703,0.70703 2.29297,2.29297 -2.29297,2.29297 0.70703,0.70703 2.29297,-2.29297 2.29297,2.29297 0.70703,-0.70703 -2.29297,-2.29297 2.29297,-2.29297 -0.70703,-0.70703 -2.29297,2.29297 z"
           id="rect4622"
           class="ColorScheme-Background" /></g></g><g
       id="Battery"><rect
         ry="0"
         y="396.50504"
         x="182.53572"
         height="32"
         width="32"
         id="rect4246"
         style="opacity:1;fill:none;fill-opacity:1;stroke:none" /><path
         style="color:#dfdfdf;opacity:0.3;fill:currentColor;stroke-width:1.5625"
         class="ColorScheme-Text"
         d="m 190.76521,403.88412 v 18.02671 c 0,0.86401 0.69313,1.57093 1.5541,1.57093 h 12.43282 c 0.86097,0 1.55411,-0.70692 1.55411,-1.57093 v -18.02671 z"
         id="path1-6-5" /><path
         style="color:#dfdfdf;fill:currentColor;stroke-width:1.5541"
         class="ColorScheme-Text"
         d="m 194.551,402.90768 v -0.63718 c 0,-0.97442 0.79105,-1.76546 1.76546,-1.76546 h 4.43853 c 0.97441,0 1.76544,0.79104 1.76544,1.76546 v 0.63718 h 1.49661 c 1.74836,0 3.16571,1.41734 3.16571,3.16415 v 15.2675 c 0,1.74837 -1.41735,3.16571 -3.16571,3.16571 h -10.96263 c -1.74837,0 -3.16571,-1.41734 -3.16571,-3.16571 v -15.2675 c 0,-1.74681 1.41734,-3.16415 3.16571,-3.16415 z m -1.49659,1.08787 c -1.14694,0 -2.07782,0.92934 -2.07782,2.07628 v 15.2675 c 0,1.14694 0.93088,2.07784 2.07782,2.07784 h 10.96266 c 1.1469,0 2.07781,-0.9309 2.07781,-2.07784 v -15.2675 c 0,-1.14694 -0.9309,-2.07628 -2.07781,-2.07628 z"
         id="path2-1-2" /></g><g
       id="Fill100"><rect
         style="opacity:1;fill:none;fill-opacity:1;stroke:none"
         id="rect4248"
         width="32"
         height="32"
         x="150.53572"
         y="396.50504"
         ry="0" /><path
         style="color:#dfdfdf;opacity:0.3;fill:currentColor;stroke-width:1.5625"
         class="ColorScheme-Text"
         d="m 158.76521,403.88412 v 18.02671 c 0,0.86401 0.69313,1.57093 1.5541,1.57093 h 12.43282 c 0.86097,0 1.55411,-0.70692 1.55411,-1.57093 v -18.02671 z"
         id="path1-6-5-0" /><path
         style="color:#dfdfdf;fill:currentColor;stroke-width:1.5541"
         class="ColorScheme-Text"
         d="m 162.55099,402.90768 v -0.63718 c 0,-0.97442 0.79105,-1.76546 1.76546,-1.76546 h 4.43853 c 0.97441,0 1.76544,0.79104 1.76544,1.76546 v 0.63718 h 1.49661 c 1.74836,0 3.16571,1.41734 3.16571,3.16415 v 15.2675 c 0,1.74837 -1.41735,3.16571 -3.16571,3.16571 H 161.0544 c -1.74837,0 -3.1657,-1.41734 -3.1657,-3.16571 v -15.2675 c 0,-1.74681 1.41733,-3.16415 3.1657,-3.16415 z m -1.49659,1.08787 c -1.14694,0 -2.07782,0.92934 -2.07782,2.07628 v 15.2675 c 0,1.14694 0.93088,2.07784 2.07782,2.07784 h 10.96266 c 1.1469,0 2.07781,-0.9309 2.07781,-2.07784 v -15.2675 c 0,-1.14694 -0.9309,-2.07628 -2.07781,-2.07628 z"
         id="path2-1-2-8" /></g><g
       id="Fill90"><rect
         ry="0"
         y="396.50504"
         x="118.53572"
         height="32"
         width="32"
         id="rect4256"
         style="opacity:1;fill:none;fill-opacity:1;stroke:none" /><path
         style="color:#dfdfdf;opacity:0.3;fill:currentColor;stroke-width:1.49649"
         class="ColorScheme-Text"
         d="m 126.76521,405.50504 v 16.53572 c 0,0.79255 0.69313,1.441 1.5541,1.441 h 12.43282 c 0.86097,0 1.55411,-0.64845 1.55411,-1.441 v -16.53572 z"
         id="path1-6-5-0-0" /><path
         style="color:#dfdfdf;fill:currentColor;stroke-width:1.5541"
         class="ColorScheme-Text"
         d="m 130.55099,402.90768 v -0.63718 c 0,-0.97442 0.79105,-1.76546 1.76546,-1.76546 h 4.43853 c 0.97441,0 1.76544,0.79104 1.76544,1.76546 v 0.63718 h 1.49661 c 1.74836,0 3.16571,1.41734 3.16571,3.16415 v 15.2675 c 0,1.74837 -1.41735,3.16571 -3.16571,3.16571 H 129.0544 c -1.74837,0 -3.1657,-1.41734 -3.1657,-3.16571 v -15.2675 c 0,-1.74681 1.41733,-3.16415 3.1657,-3.16415 z m -1.49659,1.08787 c -1.14694,0 -2.07782,0.92934 -2.07782,2.07628 v 15.2675 c 0,1.14694 0.93088,2.07784 2.07782,2.07784 h 10.96266 c 1.1469,0 2.07781,-0.9309 2.07781,-2.07784 v -15.2675 c 0,-1.14694 -0.9309,-2.07628 -2.07781,-2.07628 z"
         id="path2-1-2-8-4" /></g><g
       id="Fill80"><rect
         style="opacity:1;fill:none;fill-opacity:1;stroke:none"
         id="rect4265"
         width="32"
         height="32"
         x="86.535721"
         y="396.50504"
         ry="0" /><path
         style="color:#dfdfdf;opacity:0.3;fill:currentColor;stroke-width:1.41079"
         class="ColorScheme-Text"
         d="m 94.765206,407.50504 v 14.69604 c 0,0.70437 0.69313,1.28068 1.5541,1.28068 h 12.432824 c 0.86097,0 1.55411,-0.57631 1.55411,-1.28068 v -14.69604 z"
         id="path1-6-5-0-0-8" /><path
         style="color:#dfdfdf;fill:currentColor;stroke-width:1.5541"
         class="ColorScheme-Text"
         d="m 98.550991,402.90768 v -0.63718 c 0,-0.97442 0.79105,-1.76546 1.765459,-1.76546 h 4.43853 c 0.97441,0 1.76544,0.79104 1.76544,1.76546 v 0.63718 h 1.49661 c 1.74836,0 3.16571,1.41734 3.16571,3.16415 v 15.2675 c 0,1.74837 -1.41735,3.16571 -3.16571,3.16571 H 97.054401 c -1.74837,0 -3.1657,-1.41734 -3.1657,-3.16571 v -15.2675 c 0,-1.74681 1.41733,-3.16415 3.1657,-3.16415 z m -1.49659,1.08787 c -1.14694,0 -2.07782,0.92934 -2.07782,2.07628 v 15.2675 c 0,1.14694 0.93088,2.07784 2.07782,2.07784 h 10.962659 c 1.1469,0 2.07781,-0.9309 2.07781,-2.07784 v -15.2675 c 0,-1.14694 -0.9309,-2.07628 -2.07781,-2.07628 z"
         id="path2-1-2-8-4-6" /></g><g
       id="Fill70"><rect
         ry="0"
         y="396.50504"
         x="56.535721"
         height="32"
         width="32"
         id="rect4273"
         style="opacity:1;fill:none;fill-opacity:1;stroke:none" /><path
         style="color:#dfdfdf;opacity:0.3;fill:currentColor;stroke-width:1.27146"
         class="ColorScheme-Text"
         d="m 64.765204,410.50504 v 11.93652 c 0,0.57211 0.69313,1.0402 1.554099,1.0402 h 12.432825 c 0.86097,0 1.55411,-0.46809 1.55411,-1.0402 v -11.93652 z"
         id="path1-6-5-0-0-8-1" /><path
         style="color:#dfdfdf;fill:currentColor;stroke-width:1.5541"
         class="ColorScheme-Text"
         d="m 68.55099,402.90768 v -0.63718 c 0,-0.97442 0.79105,-1.76546 1.76546,-1.76546 h 4.43853 c 0.97441,0 1.76544,0.79104 1.76544,1.76546 v 0.63718 h 1.49661 c 1.74836,0 3.16571,1.41734 3.16571,3.16415 v 15.2675 c 0,1.74837 -1.41735,3.16571 -3.16571,3.16571 H 67.054401 c -1.74837,0 -3.1657,-1.41734 -3.1657,-3.16571 v -15.2675 c 0,-1.74681 1.41733,-3.16415 3.1657,-3.16415 z m -1.49659,1.08787 c -1.14694,0 -2.07782,0.92934 -2.07782,2.07628 v 15.2675 c 0,1.14694 0.93088,2.07784 2.07782,2.07784 h 10.96266 c 1.1469,0 2.07781,-0.9309 2.07781,-2.07784 v -15.2675 c 0,-1.14694 -0.9309,-2.07628 -2.07781,-2.07628 z"
         id="path2-1-2-8-4-6-9" /></g><g
       id="Fill60"><rect
         style="opacity:1;fill:none;fill-opacity:1;stroke:none"
         id="rect4281"
         width="32"
         height="32"
         x="24.535721"
         y="396.50504"
         ry="0" /><path
         style="color:#dfdfdf;opacity:0.3;fill:currentColor;stroke-width:1.16938"
         class="ColorScheme-Text"
         d="m 32.765204,412.50504 v 10.09684 c 0,0.48393 0.69313,0.87988 1.554099,0.87988 h 12.432825 c 0.86097,0 1.55411,-0.39595 1.55411,-0.87988 v -10.09684 z"
         id="path1-6-5-0-0-8-1-1" /><path
         style="color:#dfdfdf;fill:currentColor;stroke-width:1.5541"
         class="ColorScheme-Text"
         d="m 36.55099,402.90768 v -0.63718 c 0,-0.97442 0.79105,-1.76546 1.76546,-1.76546 h 4.438531 c 0.97441,0 1.76544,0.79104 1.76544,1.76546 v 0.63718 h 1.496609 c 1.74836,0 3.16571,1.41734 3.16571,3.16415 v 15.2675 c 0,1.74837 -1.41735,3.16571 -3.16571,3.16571 H 35.054402 c -1.74837,0 -3.1657,-1.41734 -3.1657,-3.16571 v -15.2675 c 0,-1.74681 1.41733,-3.16415 3.1657,-3.16415 z m -1.496589,1.08787 c -1.14694,0 -2.077821,0.92934 -2.077821,2.07628 v 15.2675 c 0,1.14694 0.930881,2.07784 2.077821,2.07784 h 10.96266 c 1.1469,0 2.07781,-0.9309 2.07781,-2.07784 v -15.2675 c 0,-1.14694 -0.930901,-2.07628 -2.07781,-2.07628 z"
         id="path2-1-2-8-4-6-9-8" /></g><g
       id="Fill50"><rect
         ry="0"
         y="396.50504"
         x="-7.4642792"
         height="32"
         width="32"
         id="rect4289"
         style="opacity:1;fill:none;fill-opacity:1;stroke:none" /><path
         style="color:#dfdfdf;opacity:0.3;fill:currentColor;stroke-width:1.11484"
         class="ColorScheme-Text"
         d="m 0.76520383,413.50504 v 9.177 c 0,0.43984 0.69312997,0.79972 1.55409897,0.79972 H 14.752128 c 0.86097,0 1.55411,-0.35988 1.55411,-0.79972 v -9.177 z"
         id="path1-6-5-0-0-8-1-1-4" /><path
         style="color:#dfdfdf;fill:currentColor;stroke-width:1.5541"
         class="ColorScheme-Text"
         d="m 4.5509898,402.90768 v -0.63718 c 0,-0.97442 0.79105,-1.76546 1.76546,-1.76546 h 4.4385312 c 0.97441,0 1.76544,0.79104 1.76544,1.76546 v 0.63718 h 1.496609 c 1.74836,0 3.16571,1.41734 3.16571,3.16415 v 15.2675 c 0,1.74837 -1.41735,3.16571 -3.16571,3.16571 H 3.0544018 c -1.74837,0 -3.16569997,-1.41734 -3.16569997,-3.16571 v -15.2675 c 0,-1.74681 1.41732997,-3.16415 3.16569997,-3.16415 z m -1.496589,1.08787 c -1.14694,0 -2.07782097,0.92934 -2.07782097,2.07628 v 15.2675 c 0,1.14694 0.93088097,2.07784 2.07782097,2.07784 H 14.017061 c 1.1469,0 2.07781,-0.9309 2.07781,-2.07784 v -15.2675 c 0,-1.14694 -0.930901,-2.07628 -2.07781,-2.07628 z"
         id="path2-1-2-8-4-6-9-8-6" /></g><g
       id="Fill40"><rect
         style="opacity:1;fill:none;fill-opacity:1;stroke:none"
         id="rect4297"
         width="32"
         height="32"
         x="-39.464279"
         y="396.50504"
         ry="0" /><path
         style="color:#dfdfdf;opacity:0.3;fill:currentColor;stroke-width:0.996852"
         class="ColorScheme-Text"
         d="m -31.234796,415.50504 v 7.33732 c 0,0.35166 0.69313,0.6394 1.554099,0.6394 h 12.432825 c 0.86097,0 1.55411,-0.28774 1.55411,-0.6394 v -7.33732 z"
         id="path1-6-5-0-0-8-1-1-4-4" /><path
         style="color:#dfdfdf;fill:currentColor;stroke-width:1.5541"
         class="ColorScheme-Text"
         d="m -27.44901,402.90768 v -0.63718 c 0,-0.97442 0.79105,-1.76546 1.76546,-1.76546 h 4.438531 c 0.97441,0 1.76544,0.79104 1.76544,1.76546 v 0.63718 h 1.496609 c 1.74836,0 3.16571,1.41734 3.16571,3.16415 v 15.2675 c 0,1.74837 -1.41735,3.16571 -3.16571,3.16571 h -10.962628 c -1.74837,0 -3.1657,-1.41734 -3.1657,-3.16571 v -15.2675 c 0,-1.74681 1.41733,-3.16415 3.1657,-3.16415 z m -1.496589,1.08787 c -1.14694,0 -2.077821,0.92934 -2.077821,2.07628 v 15.2675 c 0,1.14694 0.930881,2.07784 2.077821,2.07784 h 10.96266 c 1.1469,0 2.07781,-0.9309 2.07781,-2.07784 v -15.2675 c 0,-1.14694 -0.930901,-2.07628 -2.07781,-2.07628 z"
         id="path2-1-2-8-4-6-9-8-6-1" /></g><g
       id="Fill30"><rect
         ry="0"
         y="396.50504"
         x="-71.464279"
         height="32"
         width="32"
         id="rect4321"
         style="opacity:1;fill:none;fill-opacity:1;stroke:none" /><path
         style="color:#dfdfdf;opacity:0.3;fill:currentColor;stroke-width:0.862879"
         class="ColorScheme-Text"
         d="m -63.234796,417.50504 v 5.49764 c 0,0.26348 0.69313,0.47908 1.554099,0.47908 h 12.432825 c 0.86097,0 1.55411,-0.2156 1.55411,-0.47908 v -5.49764 z"
         id="path1-6-5-0-0-8-1-1-4-4-1" /><path
         style="color:#dfdfdf;fill:currentColor;stroke-width:1.5541"
         class="ColorScheme-Text"
         d="m -59.44901,402.90768 v -0.63718 c 0,-0.97442 0.79105,-1.76546 1.76546,-1.76546 h 4.438531 c 0.97441,0 1.76544,0.79104 1.76544,1.76546 v 0.63718 h 1.496609 c 1.74836,0 3.16571,1.41734 3.16571,3.16415 v 15.2675 c 0,1.74837 -1.41735,3.16571 -3.16571,3.16571 h -10.962628 c -1.74837,0 -3.1657,-1.41734 -3.1657,-3.16571 v -15.2675 c 0,-1.74681 1.41733,-3.16415 3.1657,-3.16415 z m -1.496589,1.08787 c -1.14694,0 -2.077821,0.92934 -2.077821,2.07628 v 15.2675 c 0,1.14694 0.930881,2.07784 2.077821,2.07784 h 10.96266 c 1.1469,0 2.07781,-0.9309 2.07781,-2.07784 v -15.2675 c 0,-1.14694 -0.930901,-2.07628 -2.07781,-2.07628 z"
         id="path2-1-2-8-4-6-9-8-6-1-2" /></g><g
       id="Fill20"><rect
         style="opacity:1;fill:none;fill-opacity:1;stroke:none"
         id="rect4329"
         width="32"
         height="32"
         x="-103.46428"
         y="396.50504"
         ry="0" /><path
         style="color:#dfdfdf;opacity:0.3;fill:#f0a300;stroke-width:0.703851;fill-opacity:1"
         class="ColorScheme-Text"
         d="m -95.234796,419.50504 v 3.65796 c 0,0.17531 0.69313,0.31876 1.554099,0.31876 h 12.432825 c 0.86097,0 1.55411,-0.14345 1.55411,-0.31876 v -3.65796 z"
         id="path1-6-5-0-0-8-1-1-4-4-1-5" /><path
         style="color:#dfdfdf;fill:#f0a300;stroke-width:1.5541;fill-opacity:1"
         class="ColorScheme-Text"
         d="m -91.44901,402.90768 v -0.63718 c 0,-0.97442 0.79105,-1.76546 1.76546,-1.76546 h 4.438531 c 0.97441,0 1.76544,0.79104 1.76544,1.76546 v 0.63718 h 1.496609 c 1.74836,0 3.16571,1.41734 3.16571,3.16415 v 15.2675 c 0,1.74837 -1.41735,3.16571 -3.16571,3.16571 h -10.962628 c -1.74837,0 -3.1657,-1.41734 -3.1657,-3.16571 v -15.2675 c 0,-1.74681 1.41733,-3.16415 3.1657,-3.16415 z m -1.496589,1.08787 c -1.14694,0 -2.077821,0.92934 -2.077821,2.07628 v 15.2675 c 0,1.14694 0.930881,2.07784 2.077821,2.07784 h 10.96266 c 1.1469,0 2.07781,-0.9309 2.07781,-2.07784 v -15.2675 c 0,-1.14694 -0.930901,-2.07628 -2.07781,-2.07628 z"
         id="path2-1-2-8-4-6-9-8-6-1-2-6" /></g><g
       id="Fill10"><rect
         ry="0"
         y="396.50504"
         x="-135.46428"
         height="32"
         width="32"
         id="rect4337"
         style="opacity:1;fill:none;fill-opacity:1;stroke:none" /><path
         style="color:#dfdfdf;opacity:0.3;fill:#da4453;stroke-width:0.496239;fill-opacity:1"
         class="ColorScheme-Text"
         d="m -127.2348,421.50504 v 1.81827 c 0,0.0871 0.69313,0.15845 1.5541,0.15845 h 12.43283 c 0.86097,0 1.55411,-0.0713 1.55411,-0.15845 v -1.81827 z"
         id="path1-6-5-0-0-8-1-1-4-4-1-2" /><path
         style="color:#dfdfdf;fill:#da4453;stroke-width:1.5541;fill-opacity:1"
         class="ColorScheme-Text"
         d="m -123.44901,402.90768 v -0.63718 c 0,-0.97442 0.79105,-1.76546 1.76546,-1.76546 h 4.43853 c 0.97441,0 1.76544,0.79104 1.76544,1.76546 v 0.63718 h 1.49661 c 1.74836,0 3.16571,1.41734 3.16571,3.16415 v 15.2675 c 0,1.74837 -1.41735,3.16571 -3.16571,3.16571 h -10.96263 c -1.74837,0 -3.1657,-1.41734 -3.1657,-3.16571 v -15.2675 c 0,-1.74681 1.41733,-3.16415 3.1657,-3.16415 z m -1.49659,1.08787 c -1.14694,0 -2.07782,0.92934 -2.07782,2.07628 v 15.2675 c 0,1.14694 0.93088,2.07784 2.07782,2.07784 h 10.96266 c 1.1469,0 2.07781,-0.9309 2.07781,-2.07784 v -15.2675 c 0,-1.14694 -0.9309,-2.07628 -2.07781,-2.07628 z"
         id="path2-1-2-8-4-6-9-8-6-1-2-1" /></g><g
       id="Fill0"><rect
         style="opacity:1;fill:none;fill-opacity:1;stroke:none"
         id="rect4345"
         width="32"
         height="32"
         x="-167.46428"
         y="396.50504"
         ry="0" /><path
         style="color:#dfdfdf;fill:#da4453;fill-opacity:1;stroke-width:1.5541"
         class="ColorScheme-Text"
         d="m -155.44901,402.90768 v -0.63718 c 0,-0.97442 0.79105,-1.76546 1.76546,-1.76546 h 4.43853 c 0.97441,0 1.76544,0.79104 1.76544,1.76546 v 0.63718 h 1.49661 c 1.74836,0 3.16571,1.41734 3.16571,3.16415 v 15.2675 c 0,1.74837 -1.41735,3.16571 -3.16571,3.16571 h -10.96263 c -1.74837,0 -3.1657,-1.41734 -3.1657,-3.16571 v -15.2675 c 0,-1.74681 1.41733,-3.16415 3.1657,-3.16415 z m -1.49659,1.08787 c -1.14694,0 -2.07782,0.92934 -2.07782,2.07628 v 15.2675 c 0,1.14694 0.93088,2.07784 2.07782,2.07784 h 10.96266 c 1.1469,0 2.07781,-0.9309 2.07781,-2.07784 v -15.2675 c 0,-1.14694 -0.9309,-2.07628 -2.07781,-2.07628 z"
         id="path2-1-2-8-4-6-9-8-6-1-2-1-8" /></g><g
       id="battery-ups"><rect
         y="428.50504"
         x="182.53572"
         height="31.999998"
         width="31.999998"
         id="rect4447"
         style="opacity:1;fill:none;fill-opacity:1;stroke:none" /><path
         style="color:#dfdfdf;fill:currentColor;stroke-width:1.61754"
         class="ColorScheme-Text"
         d="m 204.24079,433.26555 c 1.81973,0 3.29493,1.47519 3.29493,3.29331 v 15.89073 c 0,1.81973 -1.47521,3.29493 -3.29493,3.29493 h -11.41014 c -1.81974,0 -3.29493,-1.4752 -3.29493,-3.29493 v -15.89073 c 0,-1.81812 1.47519,-3.29331 3.29493,-3.29331 z m -11.41014,1.13228 c -1.19374,0 -2.16265,0.96728 -2.16265,2.16103 v 15.89073 c 0,1.19375 0.96891,2.16266 2.16265,2.16266 h 11.41014 c 1.19374,0 2.16264,-0.96891 2.16264,-2.16266 v -15.89073 c 0,-1.19375 -0.9689,-2.16103 -2.16264,-2.16103 z"
         id="path2-3"
         sodipodi:nodetypes="cssssssccsssssssss" /><path
         inkscape:connector-curvature="0"
         id="rect4411"
         d="m 198.53572,435.50503 -3,7 h 3 v 4 l 3,-7 h -3 z m -6,15 v 3 h 1 v -3 z m 2,0 v 3 h 1 v -3 z m 2,0 v 3 h 1 v -3 z m 2,0 v 3 h 1 v -3 z m 4.5,0 c -0.82843,0 -1.5,0.67157 -1.5,1.5 0,0.82843 0.67157,1.5 1.5,1.5 0.82843,0 1.5,-0.67157 1.5,-1.5 0,-0.82843 -0.67157,-1.5 -1.5,-1.5 z"
         style="opacity:1;fill:currentColor;fill-opacity:1;stroke:none"
         class="ColorScheme-Text"
         sodipodi:nodetypes="cccccccccccccccccccccccccccsssss" /></g><g
       id="AcAdapter"><rect
         style="opacity:1;fill:none;fill-opacity:1;stroke:none;stroke-width:0.1;stroke-linecap:square;stroke-linejoin:miter;stroke-miterlimit:4;stroke-dasharray:none;stroke-dashoffset:0;stroke-opacity:1"
         id="rect4470"
         width="32"
         height="32"
         x="150.53575"
         y="428.505" /><path
         style="color:#dfdfdf;opacity:0.3;fill:currentColor;stroke-width:1.5625"
         class="ColorScheme-Text"
         d="m 158.7652,435.50504 v 18.02671 c 0,0.86401 0.69313,1.57093 1.5541,1.57093 h 12.43283 c 0.86097,0 1.55411,-0.70692 1.55411,-1.57093 v -18.02671 z"
         id="path1-6-5-8-6" /><path
         style="color:#dfdfdf;fill:currentColor;stroke-width:1.5541"
         class="ColorScheme-Text"
         d="m 162.55099,434.5286 v -0.63718 c 0,-0.97442 0.79105,-1.76546 1.76546,-1.76546 h 4.43854 c 0.97441,0 1.76544,0.79104 1.76544,1.76546 v 0.63718 h 1.49661 c 1.74836,0 3.16571,1.41734 3.16571,3.16415 v 15.2675 c 0,1.74837 -1.41735,3.16571 -3.16571,3.16571 H 161.0544 c -1.74837,0 -3.16571,-1.41734 -3.16571,-3.16571 v -15.2675 c 0,-1.74681 1.41734,-3.16415 3.16571,-3.16415 z m -1.49659,1.08787 c -1.14694,0 -2.07782,0.92934 -2.07782,2.07628 v 15.2675 c 0,1.14694 0.93088,2.07784 2.07782,2.07784 h 10.96267 c 1.1469,0 2.07781,-0.9309 2.07781,-2.07784 v -15.2675 c 0,-1.14694 -0.9309,-2.07628 -2.07781,-2.07628 z"
         id="path2-1-2-2-7" /><g
         id="g4600"
         transform="matrix(1.5,0,0,1.5,-82.26786,-221.75252)"><path
           id="path4472"
           style="opacity:1;fill:#2abb9b;fill-opacity:1;stroke:none;stroke-width:0.111111;stroke-linecap:square;stroke-linejoin:miter;stroke-miterlimit:4;stroke-dasharray:none;stroke-dashoffset:0;stroke-opacity:1"
           d="m 166.53572,441.50904 c -1.32386,0.002 -2.52124,0.116 -3.05078,1.32933 h -1.61589 v 2.66667 h 1.61719 c 0.52935,1.2129 1.7261,1.34656 3.04948,1.34877 v -0.67525 h 2.66667 v -1.33333 h -2.66667 v -1.33331 h 2.66667 v -1.33333 h -2.66667 z"
           sodipodi:nodetypes="ccccccccccccccc" /></g></g><path
       style="color:#dfdfdf;opacity:0.3;fill:currentColor;stroke-width:1.5625"
       class="ColorScheme-Text"
       d="m 93.765203,435.88408 v 18.02671 c 0,0.86401 0.69313,1.57093 1.5541,1.57093 h 12.432827 c 0.86097,0 1.55411,-0.70692 1.55411,-1.57093 v -18.02671 z"
       id="path1-6-5-8" /><path
       style="color:#dfdfdf;fill:currentColor;stroke-width:1.5541"
       class="ColorScheme-Text"
       d="m 97.550993,434.90764 v -0.63718 c 0,-0.97442 0.79105,-1.76546 1.76546,-1.76546 h 4.438537 c 0.97441,0 1.76544,0.79104 1.76544,1.76546 v 0.63718 h 1.49661 c 1.74836,0 3.16571,1.41734 3.16571,3.16415 v 15.2675 c 0,1.74837 -1.41735,3.16571 -3.16571,3.16571 H 96.054403 c -1.74837,0 -3.16571,-1.41734 -3.16571,-3.16571 v -15.2675 c 0,-1.74681 1.41734,-3.16415 3.16571,-3.16415 z m -1.49659,1.08787 c -1.14694,0 -2.07782,0.92934 -2.07782,2.07628 v 15.2675 c 0,1.14694 0.93088,2.07784 2.07782,2.07784 h 10.962667 c 1.1469,0 2.07781,-0.9309 2.07781,-2.07784 v -15.2675 c 0,-1.14694 -0.9309,-2.07628 -2.07781,-2.07628 z"
       id="path2-1-2-2" /><g
       id="Unavailable"
       transform="translate(-33.000031,0)"><rect
         y="428.505"
         x="118.53575"
         height="32"
         width="32"
         id="rect4480"
         style="opacity:1;fill:none;fill-opacity:1;stroke:none;stroke-width:0.1;stroke-linecap:square;stroke-linejoin:miter;stroke-miterlimit:4;stroke-dasharray:none;stroke-dashoffset:0;stroke-opacity:1" /><g
         id="g4580"><rect
           ry="1.0000046"
           y="439.50504"
           x="129.46364"
           height="10"
           width="10"
           id="rect4577"
           style="opacity:1;fill:#da4453;fill-opacity:1;stroke:none" /><path
           id="rect4622-0"
           d="m 132.17066,441.505 -0.70703,0.70703 2.29297,2.29297 -2.29297,2.29297 0.70703,0.70703 2.29297,-2.29297 2.29297,2.29297 0.70703,-0.70703 -2.29297,-2.29297 2.29297,-2.29297 -0.70703,-0.70703 -2.29297,2.29297 z"
           style="opacity:1;fill:currentColor;fill-opacity:1;stroke:none;stroke-width:0.111692;stroke-linecap:square;stroke-linejoin:miter;stroke-miterlimit:4;stroke-dasharray:none;stroke-dashoffset:0;stroke-opacity:1"
           inkscape:connector-curvature="0"
           class="ColorScheme-Background" /></g></g><g
       id="22-22-AcAdapter"><rect
         y="426.50504"
         x="236.53572"
         height="22"
         width="22"
         id="rect4185-5"
         style="opacity:1;fill:none;fill-opacity:1;stroke:none;stroke-width:0.1;stroke-linecap:square;stroke-linejoin:miter;stroke-miterlimit:4;stroke-dasharray:none;stroke-dashoffset:0;stroke-opacity:1" /><path
         style="color:#dfdfdf;opacity:0.3;fill:currentColor;stroke-width:1.07836"
         class="ColorScheme-Text"
         d="m 242.14391,431.49579 v 12.37419 c 0,0.59309 0.48095,1.07835 1.07836,1.07835 h 8.62689 c 0.59741,0 1.07836,-0.48526 1.07836,-1.07835 v -12.37419 z"
         id="path1-6-6" /><path
         style="color:#dfdfdf;fill:currentColor;stroke-width:1.07836"
         class="ColorScheme-Text"
         d="m 244.7708,430.84562 v -0.44213 c 0,-0.67613 0.54889,-1.22502 1.22502,-1.22502 h 3.0798 c 0.67613,0 1.22501,0.54889 1.22501,1.22502 v 0.44213 h 1.03847 c 1.21315,0 2.19662,0.98346 2.19662,2.19554 v 10.59382 c 0,1.21315 -0.98347,2.19662 -2.19662,2.19662 h -7.60676 c -1.21316,0 -2.19662,-0.98347 -2.19662,-2.19662 v -10.59382 c 0,-1.21208 0.98346,-2.19554 2.19662,-2.19554 z m -1.03846,0.75485 c -0.79583,0 -1.44177,0.64485 -1.44177,1.44069 v 10.59382 c 0,0.79583 0.64594,1.44177 1.44177,1.44177 h 7.60676 c 0.79583,0 1.44176,-0.64594 1.44176,-1.44177 v -10.59382 c 0,-0.79584 -0.64593,-1.44069 -1.44176,-1.44069 z"
         id="path2-1-27" /><path
         id="path4472-2"
         style="fill:#2abb9b;fill-opacity:1;stroke:none;stroke-width:0.121212;stroke-linecap:square;stroke-linejoin:miter;stroke-miterlimit:4;stroke-dasharray:none;stroke-dashoffset:0;stroke-opacity:1"
         d="m 248.62664,434.58972 c -1.44421,0.002 -2.75044,0.12654 -3.32812,1.45017 h -1.76279 v 2.90909 h 1.76421 c 0.57746,1.32316 1.88301,1.46897 3.3267,1.47138 v -0.73663 h 2.90908 v -1.45454 h -2.90908 v -1.45452 h 2.90908 v -1.45453 h -2.90908 z"
         sodipodi:nodetypes="ccccccccccccccc" /></g><g
       id="profile-powersave"
       transform="translate(0,44.000005)"><rect
         y="404.50504"
         x="214.53572"
         height="22"
         width="22"
         id="rect4447-6"
         style="opacity:1;fill:none;fill-opacity:1;stroke:none;stroke-width:0.1;stroke-linecap:square;stroke-linejoin:miter;stroke-miterlimit:4;stroke-dasharray:none;stroke-dashoffset:0;stroke-opacity:1" /><path
         id="path1061"
         style="opacity:1;fill:currentColor;fill-opacity:1;stroke:none"
         class="ColorScheme-Text"
         d="m 15.050781,2.4824219 c -0.10815,0.31659 -0.248239,0.6272975 -0.417969,0.9296875 -0.889737,1.585728 -2.593823,2.9286078 -4.7988276,3.5195312 -3.5238487,0.939332 -5.7781586,4.3276274 -5.1875,7.6445314 l 0.046875,0.11914 C 3.6351386,15.877576 3,17.367828 3,19 h 1.0019531 c 0,-1.390389 0.5575067,-2.680439 1.4960938,-3.705078 0.099008,0.07518 0.1979979,0.151067 0.296875,0.226562 0.076258,0.05301 0.1542715,0.103905 0.2324219,0.154297 0.00348,0.0022 0.00628,0.0056 0.00977,0.0078 1.2451501,0.80015 2.7251079,1.265625 4.3124992,1.265625 4.41235,0 8,-3.58765 8,-8.0000002 0,-2.6559101 -1.301668,-5.0110469 -3.298828,-6.4667969 z m 0.345703,1.6171875 c 1.209175,1.2569406 1.953125,2.9636697 1.953125,4.8496094 0,3.8718202 -3.12818,7.0000002 -7,7.0000002 -1.5415443,0 -2.9610278,-0.499769 -4.115234,-1.341797 0.738531,-0.590148 1.6264635,-1.045558 2.6152344,-1.31836 C 10.751884,12.836818 12.392428,11.70102 13.5,10.158203 V 8.0917969 C 12.694081,10.117146 10.977375,11.679832 8.8496094,12.259766 7.6118998,12.562104 6.4903722,13.118542 5.5683594,13.863281 5.406003,11.269325 7.2775578,8.689412 10.09375,7.8964844 10.996075,7.6716869 11.828472,7.2577523 12.626953,6.8125 13.799176,6.0965642 14.752709,5.1590187 15.396484,4.0996094 Z"
         transform="translate(214.53572,404.50504)" /><path
         id="rect11595"
         style="opacity:1;fill:currentColor;fill-opacity:1;stroke:none"
         class="ColorScheme-Text"
         d="M 9,10 8.3808594,11 7.5,13 H 8.75 L 9,11.5 9.5,10 Z M 11.320312,11.619141 10,12.5 13.25,13.230469 14,13 v -0.5 l -1,-0.119141 z"
         transform="translate(214.53572,404.50504)" /></g><g
       id="profile-performance"
       transform="translate(0,66.000005)"><rect
         y="404.50504"
         x="214.53572"
         height="22"
         width="22"
         id="rect12815"
         style="opacity:1;fill:none;fill-opacity:1;stroke:none;stroke-width:0.1;stroke-linecap:square;stroke-linejoin:miter;stroke-miterlimit:4;stroke-dasharray:none;stroke-dashoffset:0;stroke-opacity:1" /><path
         id="rect14342"
         style="opacity:1;fill:currentColor;fill-opacity:1;stroke:none"
         class="ColorScheme-Text"
         d="M 10.519531,2.5 6,12.449219 V 13 h 5 v 6.5 h 0.480469 L 16,9.5507812 V 9 H 11 V 2.5 Z"
         transform="translate(214.53572,404.50504)"
         sodipodi:nodetypes="ccccccccccc" /></g><g
       id="g1"
       transform="translate(260.22752,405.20575)" /></g></svg>
