<?xml version="1.0" encoding="UTF-8" standalone="no"?>
<svg
   width="54"
   height="32"
   id="svg3613"
   version="1.1"
   sodipodi:docname="bookmarks.svg"
   xml:space="preserve"
   inkscape:version="1.3 (0e150ed6c4, 2023-07-21)"
   xmlns:inkscape="http://www.inkscape.org/namespaces/inkscape"
   xmlns:sodipodi="http://sodipodi.sourceforge.net/DTD/sodipodi-0.dtd"
   xmlns="http://www.w3.org/2000/svg"
   xmlns:svg="http://www.w3.org/2000/svg"
   xmlns:rdf="http://www.w3.org/1999/02/22-rdf-syntax-ns#"
   xmlns:cc="http://creativecommons.org/ns#"
   xmlns:dc="http://purl.org/dc/elements/1.1/"><sodipodi:namedview
     id="namedview1"
     pagecolor="#ffffff"
     bordercolor="#000000"
     borderopacity="0.25"
     inkscape:showpageshadow="2"
     inkscape:pageopacity="0.0"
     inkscape:pagecheckerboard="0"
     inkscape:deskcolor="#d1d1d1"
     inkscape:zoom="11.12037"
     inkscape:cx="30.979184"
     inkscape:cy="9.9367194"
     inkscape:window-width="2194"
     inkscape:window-height="1211"
     inkscape:window-x="-8"
     inkscape:window-y="-8"
     inkscape:window-maximized="1"
     inkscape:current-layer="svg3613" /><metadata
     id="metadata13"><rdf:RDF><cc:Work
         rdf:about=""><dc:format>image/svg+xml</dc:format><dc:type
           rdf:resource="http://purl.org/dc/dcmitype/StillImage" /><dc:title /></cc:Work></rdf:RDF></metadata><defs
     id="defs3615"><style
       type="text/css"
       id="current-color-scheme">&#10;      .ColorScheme-Text {&#10;        color:#31363b;&#10;      }&#10;      .ColorScheme-Background{&#10;        color:#E9E8E8;&#10;      }&#10;      .ColorScheme-ViewText {&#10;        color:#31363b;&#10;      }&#10;      .ColorScheme-ViewBackground{&#10;        color:#ffffff;&#10;      }&#10;      .ColorScheme-ViewHover {&#10;        color:#000000;&#10;      }&#10;      .ColorScheme-ViewFocus{&#10;        color:#5a5a5a;&#10;      }&#10;      .ColorScheme-ButtonText {&#10;        color:#31363b;&#10;      }&#10;      .ColorScheme-ButtonBackground{&#10;        color:#E9E8E8;&#10;      }&#10;      .ColorScheme-ButtonHover {&#10;        color:#1489ff;&#10;      }&#10;      .ColorScheme-ButtonFocus{&#10;        color:#2B74C7;&#10;      }&#10;</style><style
       id="current-color-scheme-8"
       type="text/css">&#10;   .ColorScheme-Text { color:#dfdfdf; } .ColorScheme-Highlight { color:#4285f4; } .ColorScheme-NeutralText { color:#ff9800; } .ColorScheme-PositiveText { color:#4caf50; } .ColorScheme-NegativeText { color:#f44336; }&#10;  </style></defs><g
     transform="matrix(1.0000029,0,0,1.000001,-420.71555,-516.79125)"
     id="22-22-bookmarks"><rect
       style="opacity:0.01000001;fill:#000000;fill-opacity:0.00392157;stroke:none"
       id="rect3028"
       width="22"
       height="22"
       x="-7.1556997e-08"
       y="2.0000052"
       transform="matrix(0.99999706,0,0,0.99999899,420.71433,524.79072)" /><path
       style="clip-rule:evenodd;fill-rule:evenodd;stroke-linejoin:round;stroke-miterlimit:2;fill:currentColor;stroke-width:1.06672"
       class="ColorScheme-Text"
       d="m 3.7331295,-0.50076242 c 0,0 -1.066718,0 -1.066718,1.06671765 V 15.500003 l 5.333588,-3.200153 5.3335875,3.200153 V 0.56595523 c 0,0 0,-1.06671765 -1.066717,-1.06671765 z M 12.26687,13.616179 V 0.63422516 L 12.25514,0.56595526 H 3.8014035 l -0.06827,0.0117339 V 13.616179 l 3.718577,-2.230506 c 0.337083,-0.203743 0.759503,-0.203743 1.096586,0 z"
       id="path1"
       transform="matrix(0.9999971,0,0,0.999999,423.71432,530.29072)" /></g><g
     transform="matrix(1.0000028,0,0,1.0000009,-398.71551,-516.79118)"
     id="bookmarks"><rect
       style="opacity:0.01000001;fill:#000000;fill-opacity:0.00392157;stroke:none"
       id="rect2994"
       width="32"
       height="32"
       x="-7.1557004e-08"
       y="-7.9999948"
       transform="matrix(0.99999706,0,0,0.99999899,420.71433,524.79072)" /><path
       style="color:#dfdfdf;clip-rule:evenodd;fill:currentColor;fill-rule:evenodd;stroke-width:1.61136;stroke-linejoin:round;stroke-miterlimit:2"
       class="ColorScheme-Text"
       d="m 430.26891,520.79071 c 0,0 -1.61136,0 -1.61136,1.61136 v 22.55892 l 8.05677,-4.83406 8.05677,4.83406 v -22.55892 c 0,0 0,-1.61136 -1.61136,-1.61136 z m 12.89082,21.32463 v -19.61015 l -0.0177,-0.10316 h -12.76996 l -0.10316,0.0177 v 19.69556 l 5.61718,-3.36935 c 0.50919,-0.30776 1.14728,-0.30776 1.65647,0 z"
       id="path1-4" /></g></svg>
