<?xml version="1.0" encoding="UTF-8" standalone="no"?>
<svg
   id="svg2"
   width="70.000053"
   height="63.999966"
   version="1.0"
   sodipodi:docname="computer.svg"
   inkscape:version="1.3 (0e150ed6c4, 2023-07-21)"
   xmlns:inkscape="http://www.inkscape.org/namespaces/inkscape"
   xmlns:sodipodi="http://sodipodi.sourceforge.net/DTD/sodipodi-0.dtd"
   xmlns="http://www.w3.org/2000/svg"
   xmlns:svg="http://www.w3.org/2000/svg"
   xmlns:rdf="http://www.w3.org/1999/02/22-rdf-syntax-ns#"
   xmlns:cc="http://creativecommons.org/ns#"
   xmlns:dc="http://purl.org/dc/elements/1.1/">
  <sodipodi:namedview
     id="namedview1"
     pagecolor="#ffffff"
     bordercolor="#000000"
     borderopacity="0.25"
     inkscape:showpageshadow="2"
     inkscape:pageopacity="0.0"
     inkscape:pagecheckerboard="0"
     inkscape:deskcolor="#d1d1d1"
     inkscape:zoom="5.6071388"
     inkscape:cx="53.77074"
     inkscape:cy="8.2929996"
     inkscape:window-width="2194"
     inkscape:window-height="1211"
     inkscape:window-x="-8"
     inkscape:window-y="-8"
     inkscape:window-maximized="1"
     inkscape:current-layer="svg2" />
  <metadata
     id="metadata7">
    <rdf:RDF>
      <cc:Work
         rdf:about="">
        <dc:format>image/svg+xml</dc:format>
        <dc:type
           rdf:resource="http://purl.org/dc/dcmitype/StillImage" />
        <dc:title />
      </cc:Work>
    </rdf:RDF>
  </metadata>
  <defs
     id="defs5">
    <inkscape:path-effect
       effect="fillet_chamfer"
       id="path-effect6"
       is_visible="true"
       lpeversion="1"
       nodesatellites_param="F,0,1,1,0,0.93616859,0,1 @ F,0,0,1,0,0.93616859,0,1 @ F,0,1,1,0,0.93616859,0,1 @ F,0,1,1,0,0.93616859,0,1 | F,0,0,1,0,0,0,1 @ F,0,0,1,0,0,0,1 @ F,0,0,1,0,0,0,1 @ F,0,0,1,0,0,0,1 | F,0,0,1,0,4.5298333,0,1 @ F,0,0,1,0,4.5298333,0,1 @ F,0,0,1,0,4.5298333,0,1 @ F,0,0,1,0,4.5298333,0,1 | F,0,0,1,0,2.4030666,0,1 @ F,0,0,1,0,2.4030666,0,1 @ F,0,0,1,0,2.4030666,0,1 @ F,0,0,1,0,2.4030666,0,1"
       radius="0"
       unit="px"
       method="auto"
       mode="F"
       chamfer_steps="1"
       flexible="false"
       use_knot_distance="true"
       apply_no_radius="true"
       apply_with_radius="true"
       only_selected="false"
       hide_knots="false" />
    <inkscape:path-effect
       effect="fillet_chamfer"
       id="path-effect5"
       is_visible="true"
       lpeversion="1"
       nodesatellites_param="F,0,0,1,0,3.0112758,0,1 @ F,0,0,1,0,3.0112758,0,1 @ F,0,0,1,0,0,0,1 @ F,0,0,1,0,0,0,1 @ F,0,1,1,0,0.51527359,0,1 @ F,0,1,1,0,0.51527359,0,1 @ F,0,1,1,0,0.51527359,0,1 @ F,0,0,1,0,0.51527359,0,1 @ F,0,0,1,0,0,0,1 @ F,0,0,1,0,0,0,1 @ F,0,0,1,0,3.0112758,0,1 @ F,0,0,1,0,3.0112758,0,1 | F,0,0,1,0,2.2533134,0,1 @ F,0,0,1,0,2.2533134,0,1 @ F,0,0,1,0,2.2533134,0,1 @ F,0,0,1,0,2.2533134,0,1 | F,0,0,1,0,0,0,1 @ F,0,0,1,0,0,0,1 @ F,0,0,1,0,0,0,1 @ F,0,0,1,0,0,0,1"
       radius="0"
       unit="px"
       method="auto"
       mode="F"
       chamfer_steps="1"
       flexible="false"
       use_knot_distance="true"
       apply_no_radius="true"
       apply_with_radius="true"
       only_selected="false"
       hide_knots="false" />
    <inkscape:path-effect
       effect="fillet_chamfer"
       id="path-effect4"
       is_visible="true"
       lpeversion="1"
       nodesatellites_param="F,0,0,1,0,3.6382361,0,1 @ F,0,0,1,0,3.6382361,0,1 @ F,0,0,1,0,0,0,1 @ F,0,0,1,0,0,0,1 @ F,0,0,1,0,0.47832492,0,1 @ F,0,1,1,0,0.47832492,0,1 @ F,0,1,1,0,0.47832492,0,1 @ F,0,1,1,0,0.47832492,0,1 @ F,0,0,1,0,0,0,1 @ F,0,0,1,0,0,0,1 @ F,0,0,1,0,3.6382361,0,1 @ F,0,0,1,0,3.6382361,0,1 | F,0,0,1,0,2.8185321,0,1 @ F,0,0,1,0,2.8185321,0,1 @ F,0,0,1,0,2.8185321,0,1 @ F,0,0,1,0,2.8185321,0,1 | F,0,0,1,0,0,0,1 @ F,0,0,1,0,0,0,1 @ F,0,0,1,0,0,0,1 @ F,0,0,1,0,0,0,1"
       radius="0"
       unit="px"
       method="auto"
       mode="F"
       chamfer_steps="1"
       flexible="false"
       use_knot_distance="true"
       apply_no_radius="true"
       apply_with_radius="true"
       only_selected="false"
       hide_knots="false" />
    <inkscape:path-effect
       effect="fillet_chamfer"
       id="path-effect3"
       is_visible="true"
       lpeversion="1"
       nodesatellites_param="F,0,0,1,0,3.5285705,0,1 @ F,0,0,1,0,0,0,1 @ F,0,0,1,0,0,0,1 @ F,0,0,1,0,0,0,1 @ F,0,0,1,0,0,0,1 @ F,0,0,1,0,0,0,1 @ F,0,0,1,0,0,0,1 @ F,0,0,1,0,0,0,1 @ F,0,0,1,0,0,0,1 @ F,0,0,1,0,3.5285705,0,1 | F,0,1,1,0,2.4566499,0,1 @ F,0,1,1,0,2.4566499,0,1 @ F,0,1,1,0,2.4566499,0,1 @ F,0,1,1,0,2.4566499,0,1 | F,0,0,1,0,0,0,1 @ F,0,0,1,0,0,0,1 @ F,0,0,1,0,0,0,1 @ F,0,0,1,0,0,0,1"
       radius="0"
       unit="px"
       method="auto"
       mode="F"
       chamfer_steps="1"
       flexible="false"
       use_knot_distance="true"
       apply_no_radius="true"
       apply_with_radius="true"
       only_selected="false"
       hide_knots="false" />
    <inkscape:path-effect
       effect="fillet_chamfer"
       id="path-effect2"
       is_visible="true"
       lpeversion="1"
       nodesatellites_param="F,0,0,1,0,2.5592365,0,1 @ F,0,0,1,0,0,0,1 @ F,0,0,1,0,0,0,1 @ F,0,0,1,0,0,0,1 @ F,0,0,1,0,0,0,1 @ F,0,0,1,0,0,0,1 @ F,0,0,1,0,0,0,1 @ F,0,0,1,0,2.5592365,0,1 | F,0,1,1,0,1.4,0,1 @ F,0,1,1,0,1.4,0,1 @ F,0,1,1,0,1.4,0,1 @ F,0,1,1,0,1.4,0,1"
       radius="0"
       unit="px"
       method="auto"
       mode="F"
       chamfer_steps="1"
       flexible="false"
       use_knot_distance="true"
       apply_no_radius="true"
       apply_with_radius="true"
       only_selected="false"
       hide_knots="false" />
    <inkscape:path-effect
       effect="fillet_chamfer"
       id="path-effect1"
       is_visible="true"
       lpeversion="1"
       nodesatellites_param="F,0,0,1,0,2.4685808,0,1 @ F,0,0,1,0,0,0,1 @ F,0,0,1,0,2.1227818,0,1 @ F,0,0,1,0,0,0,1 @ F,0,0,1,0,0,0,1 @ F,0,1,1,0,2.1227818,0,1 @ F,0,0,1,0,0,0,1 @ F,0,0,1,0,2.4685808,0,1 | F,0,0,1,0,0.95637703,0,1 @ F,0,0,1,0,0.95637703,0,1 @ F,0,0,1,0,0.95637703,0,1 @ F,0,0,1,0,0.95637703,0,1"
       radius="0"
       unit="px"
       method="auto"
       mode="F"
       chamfer_steps="1"
       flexible="false"
       use_knot_distance="true"
       apply_no_radius="true"
       apply_with_radius="true"
       only_selected="false"
       hide_knots="false" />
    <style
       id="current-color-scheme"
       type="text/css">&#10;      .ColorScheme-Text {&#10;        color:#31363b;&#10;      }&#10;      .ColorScheme-Background{&#10;        color:#E9E8E8;&#10;      }&#10;      .ColorScheme-ViewText {&#10;        color:#000000;&#10;      }&#10;      .ColorScheme-ViewBackground{&#10;        color:#ffffff;&#10;      }&#10;      .ColorScheme-ViewHover {&#10;        color:#000000;&#10;      }&#10;      .ColorScheme-ViewFocus{&#10;        color:#5a5a5a;&#10;      }&#10;      .ColorScheme-ButtonText {&#10;        color:#000000;&#10;      }&#10;      .ColorScheme-ButtonBackground{&#10;        color:#E9E8E8;&#10;      }&#10;      .ColorScheme-ButtonHover {&#10;        color:#1489ff;&#10;      }&#10;      .ColorScheme-ButtonFocus{&#10;        color:#2B74C7;&#10;      }&#10;</style>
  </defs>
  <g
     id="22-22-computer"
     transform="matrix(0.75000099,0,0,0.75000099,-273.42897,-345.59906)">
    <rect
       style="opacity:0.01000001;fill:#00000f;fill-opacity:0.00392157;stroke:none"
       id="rect3074"
       width="29.333307"
       height="29.333271"
       x="385.90479"
       y="516.79803" />
    <path
       style="fill:#dfdfdf;fill-opacity:1;stroke:none"
       class="ColorScheme-Text"
       d="m 17,48.011276 v 7.977448 a 3.0112599,3.0112599 44.999849 0 0 3.011276,3.01126 l 3.988723,-2.1e-5 v 2 l -1.484725,2.7e-5 A 0.51528312,0.51528312 134.99947 0 0 22,61.515274 0.50023323,0.50023323 43.25032 0 0 22.515274,62 h 8.969452 A 0.51527359,0.51527359 135 0 0 32,61.484726 0.50024247,0.50024247 43.250882 0 0 31.484726,60.99999 l -1.484728,-2.7e-5 v -2 l 3.988726,2.1e-5 A 3.0112599,3.0112599 135.00015 0 0 37,55.988724 V 48.011276 A 3.0112758,3.0112758 45 0 0 33.988724,45 H 20.011276 A 3.0112758,3.0112758 135 0 0 17,48.011276 Z M 20.253313,46 H 33.746687 A 2.2533134,2.2533134 45 0 1 36,48.253313 v 6.493374 A 2.2533134,2.2533134 135 0 1 33.746687,57 H 20.253313 A 2.2533134,2.2533134 45 0 1 18,54.746687 V 48.253313 A 2.2533134,2.2533134 135 0 1 20.253313,46 Z m 4.746686,12.999963 h 3.999999 v 2 h -3.999999 z"
       transform="matrix(1.3333316,0,0,1.3333316,364.57148,460.79814)"
       id="rect7235"
       inkscape:path-effect="#path-effect5"
       inkscape:original-d="m 17,45 0,14 6.999999,-3.7e-5 0,2 L 22,61 l 0,1 10,0 0,-1 -2.000002,-3.7e-5 0,-2 L 37,59 37,45 Z m 1,1 18,0 0,11 -18,0 z m 6.999999,12.999963 3.999999,0 0,2 -3.999999,0 z" />
  </g>
  <g
     transform="matrix(0.75,0,0,0.75,-168,-765.27168)"
     id="22-22-computer-laptop">
    <rect
       style="opacity:0.01000001;fill:#31363b;fill-opacity:0.00392157;stroke:none"
       id="rect7292"
       width="29.333338"
       height="29.333296"
       x="245.33333"
       y="1033.6956" />
    <path
       style="fill:#dfdfdf;fill-opacity:1;stroke:none"
       class="ColorScheme-Text"
       d="M 18,15.559237 V 27 h -1 c 0,1.10457 0.89543,2 2,2 h 16 c 1.10457,0 2,-0.89543 2,-2 H 36 V 15.559237 A 2.5592365,2.5592365 45 0 0 33.440764,13 H 20.559237 A 2.5592365,2.5592365 135 0 0 18,15.559237 Z M 20.4,14 h 13.2 a 1.4,1.4 45 0 1 1.4,1.4 v 9.2 A 1.4,1.4 135 0 1 33.6,26 L 20.4,26 A 1.4,1.4 45 0 1 19,24.6 l 0,-9.2 A 1.4,1.4 135 0 1 20.4,14 Z"
       transform="matrix(1.3333333,0,0,1.3333333,224,1020.3622)"
       id="rect7296"
       inkscape:path-effect="#path-effect2"
       inkscape:original-d="M 18 13 L 18 27 L 17 27 A 1.9999999 1.9999999 0 0 0 19 29 L 35 29 A 1.9999999 1.9999999 0 0 0 37 27 L 36 27 L 36 13 L 18 13 z M 19 14 L 35 14 L 35 26 L 19 26 L 19 14 z " />
  </g>
  <g
     transform="matrix(1.09091,0,0,1.09091,-382.98739,-531.78014)"
     id="computer">
    <rect
       y="516.79803"
       x="385.90479"
       height="29.333271"
       width="29.333307"
       id="rect3018"
       style="opacity:0.01000001;fill:#00000f;fill-opacity:0.00392157;stroke:none" />
    <path
       style="fill:#dfdfdf;fill-opacity:1;stroke:none"
       d="M 40,39.649955 V 52.361764 A 3.6382361,3.6382361 45 0 0 43.638236,56 H 51 v 3 H 48.478325 A 0.47832492,0.47832492 135 0 0 48,59.478325 v 0.04335 A 0.47832492,0.47832492 45 0 0 48.478325,60 h 11.04335 A 0.47832492,0.47832492 135 0 0 60,59.521675 v -0.04335 A 0.47832492,0.47832492 45 0 0 59.521675,59 H 57 v -3 h 7.361764 A 3.6382361,3.6382361 135 0 0 68,52.361764 V 39.649955 A 3.6382361,3.6382361 45 0 0 64.361764,36.011719 H 43.638236 A 3.6382361,3.6382361 135 0 0 40,39.649955 Z m 3.818532,-2.638236 20.362936,0 A 2.8185324,2.8185324 44.999997 0 1 67,39.830251 l 2e-6,11.351185 A 2.8185318,2.8185318 135 0 1 64.18147,53.999968 H 43.818534 A 2.8185324,2.8185324 44.999997 0 1 41.000002,51.181436 L 41,39.830251 a 2.8185318,2.8185318 135 0 1 2.818532,-2.818532 z M 52,56 h 4 v 3 h -4 z"
       transform="matrix(0.9166659,0,0,0.9166659,351.07148,487.46472)"
       id="path3020"
       class="ColorScheme-Text"
       inkscape:path-effect="#path-effect4"
       inkscape:original-d="M 40,36.011719 40,56 l 11,0 0,3 -3,0 0,1 12,0 0,-1 -3,0 0,-3 11,0 0,-19.988281 z m 1,1 26,0 2e-6,16.988249 -26,0 z M 52,56 l 4,0 0,3 -4,0 z" />
  </g>
  <g
     id="computer-laptop"
     transform="matrix(1.0909105,0,0,1.0909105,-229.6367,-1127.6693)">
    <rect
       y="1033.6956"
       x="245.33333"
       height="29.333296"
       width="29.333338"
       id="rect3026"
       style="opacity:0.01000001;fill:#31363b;fill-opacity:0.00392157;stroke:none" />
    <path
       style="fill:#dfdfdf;fill-opacity:1;stroke:none"
       class="ColorScheme-Text"
       d="m 39.999999,7.5285705 -3e-6,15.4714205 h -1 L 39,24 c 4e-6,1.104569 0.895431,2 2,2 h 26 c 1.104569,0 2,-0.895431 2,-2 v -1 l -1.000004,-9e-6 3e-6,-15.4714205 A 3.5285698,3.5285698 45.000006 0 0 64.471429,4 H 43.52857 A 3.5285712,3.5285712 135.00001 0 0 39.999999,7.5285705 Z M 43.45665,5 h 21.0867 A 2.4566499,2.4566499 45 0 1 67,7.4566499 V 19.54335 A 2.4566499,2.4566499 135 0 1 64.54335,22 H 43.45665 A 2.4566499,2.4566499 45 0 1 41,19.54335 V 7.4566499 A 2.4566499,2.4566499 135 0 1 43.45665,5 Z M 40,24 h 28 c 0,0.552285 -0.447715,1 -1,1 H 41 c -0.552285,0 -1,-0.447715 -1,-1 z"
       transform="matrix(0.91666548,0,0,0.91666548,210.50004,1033.6955)"
       id="path3028"
       inkscape:path-effect="#path-effect3"
       inkscape:original-d="m 40,4 -4e-6,18.999991 -1,0 L 39,24 c 4e-6,1.104569 0.895431,2 2,2 l 26,0 c 1.104569,0 2,-0.895431 2,-2 l 0,-1 -1.000004,-9e-6 L 68,4 Z m 1,1 26,0 0,17 -26,0 z m -1,19 28,0 c 0,0.552285 -0.447715,1 -1,1 l -26,0 c -0.552285,0 -1,-0.447715 -1,-1 z" />
  </g>
  <g
     id="16-16-computer"
     transform="matrix(0.54506989,0,0,0.54506989,-210.34508,-233.67977)">
    <rect
       style="opacity:0.01000001;fill:#00000f;fill-opacity:0.00392157;stroke:none"
       id="rect3034"
       width="29.333307"
       height="29.333271"
       x="385.90479"
       y="516.79803" />
    <path
       id="path3036"
       style="fill:#dfdfdf;fill-opacity:1;stroke:none"
       d="m 394.17947,540.64039 h 12.80467 a 0.93616859,0.93616859 45 0 1 0.93617,0.93617 0.92133636,0.92133636 135.92997 0 1 -0.93617,0.90626 h -12.80467 a 0.93616859,0.93616859 45 0 1 -0.93617,-0.93617 0.92133636,0.92133636 135.92997 0 1 0.93617,-0.90626 z m 3.72532,-1.82681 h 5.33332 v 1.82679 h -5.33332 z m -10.16666,-13.80872 0,9.27887 a 4.5298333,4.5298333 45 0 0 4.52983,4.52983 h 16.60698 a 4.5298333,4.5298333 135 0 0 4.52983,-4.52983 v -9.27887 a 4.5298333,4.5298333 45 0 0 -4.52983,-4.52983 h -16.60698 a 4.5298333,4.5298333 135 0 0 -4.52983,4.52983 z m 4.23898,-2.70294 17.20939,10e-6 a 2.4030677,2.4030677 45.000013 0 1 2.40307,2.40307 v 8.03624 a 2.4030666,2.4030666 135 0 1 -2.40307,2.40307 h -17.20939 a 2.4030666,2.4030666 45 0 1 -2.40307,-2.40307 v -8.03625 a 2.4030655,2.4030655 135.00001 0 1 2.40307,-2.40307 z"
       class="ColorScheme-Text"
       inkscape:path-effect="#path-effect6"
       inkscape:original-d="m 393.2433,540.64039 14.67701,0 0,1.84243 -14.67701,0 z m 4.66149,-1.82681 5.33332,0 0,1.82679 -5.33332,0 z m -10.16666,-18.33855 0,18.33853 25.66664,0 0,-18.33853 z m 1.83591,1.82689 22.01553,10e-6 0,12.84238 -22.01553,0 z" />
  </g>
  <g
     transform="matrix(0.5454565,0,0,0.5454565,-133.81866,-547.83604)"
     id="16-16-computer-laptop">
    <rect
       style="opacity:0.01000001;fill:#31363b;fill-opacity:0.00392157;stroke:none"
       id="rect3042"
       width="29.333338"
       height="29.333296"
       x="245.33333"
       y="1033.6956" />
    <path
       class="ColorScheme-Text"
       id="path3044"
       d="m 250.98282,1043.4974 v 10.3648 h -1.61005 c -1.17238,0 -2.07322,1.0195 -1.41105,1.9648 0.71288,1.0176 1.70495,1.7018 1.70495,1.7018 h 20.66666 c 0,0 0.9921,-0.6842 1.70497,-1.7019 0.66211,-0.9452 -0.23875,-1.9647 -1.41113,-1.9647 h -1.31108 v -10.3648 a 2.4685808,2.4685808 45 0 0 -2.46858,-2.4686 H 253.4514 a 2.4685808,2.4685808 135 0 0 -2.46858,2.4686 z m 2.78971,-0.6352 h 12.75385 a 0.95637703,0.95637703 45 0 1 0.95638,0.9564 v 7.2538 a 0.95637703,0.95637703 135 0 1 -0.95638,0.9564 h -12.75385 a 0.95637703,0.95637703 45 0 1 -0.95638,-0.9564 v -7.2538 a 0.95637703,0.95637703 135 0 1 0.95638,-0.9564 z"
       style="fill:#dfdfdf;fill-opacity:1;stroke:none"
       inkscape:path-effect="#path-effect1"
       inkscape:original-d="m 250.98282,1041.0288 0,12.8334 -3.73283,0 c 0,2 2.41668,3.6666 2.41668,3.6666 l 20.66666,0 c 0,0 2.41662,-1.6666 2.41662,-3.6666 l -3.43386,0 0,-12.8334 z m 1.83333,1.8334 14.66661,0 0,9.1666 -14.66661,0 z" />
  </g>
</svg>
