<?xml version="1.0" encoding="UTF-8" standalone="no"?>
<svg
   id="svg2"
   viewBox="0 0 54 32"
   version="1.1"
   sodipodi:docname="configure.svg"
   inkscape:version="1.3 (0e150ed6c4, 2023-07-21)"
   xmlns:inkscape="http://www.inkscape.org/namespaces/inkscape"
   xmlns:sodipodi="http://sodipodi.sourceforge.net/DTD/sodipodi-0.dtd"
   xmlns="http://www.w3.org/2000/svg"
   xmlns:svg="http://www.w3.org/2000/svg">
  <defs
     id="defs1">
    <inkscape:path-effect
       effect="fillet_chamfer"
       id="path-effect1"
       is_visible="true"
       lpeversion="1"
       nodesatellites_param="F,0,0,1,0,0,0,1 @ F,0,0,1,0,0,0,1 @ F,0,0,1,0,0.69391132,0,1 @ F,0,1,1,0,0.69391132,0,1 @ F,0,0,1,0,0,0,1 @ F,0,0,1,0,0,0,1 @ F,0,0,1,0,0,0,1 @ F,0,1,1,0,0.69391132,0,1 @ F,0,1,1,0,0.69391132,0,1 @ F,0,0,1,0,0,0,1 | F,0,0,1,0,0,0,1 @ F,0,0,1,0,0,0,1 @ F,0,1,1,0,0.69391132,0,1 @ F,0,1,1,0,0.69391132,0,1 @ F,0,0,1,0,0,0,1 @ F,0,0,1,0,0,0,1 @ F,0,0,1,0,0,0,1 @ F,0,1,1,0,0.69391132,0,1 @ F,0,1,1,0,0.69391132,0,1 @ F,0,0,1,0,0,0,1 | F,0,0,1,0,0,0,1 @ F,0,0,1,0,0,0,1 @ F,0,0,1,0,0,0,1 @ F,0,0,1,0,0,0,1"
       radius="0"
       unit="px"
       method="auto"
       mode="F"
       chamfer_steps="1"
       flexible="false"
       use_knot_distance="true"
       apply_no_radius="true"
       apply_with_radius="true"
       only_selected="false"
       hide_knots="false" />
    <inkscape:path-effect
       effect="fillet_chamfer"
       id="path-effect1-6"
       is_visible="true"
       lpeversion="1"
       nodesatellites_param="F,0,0,1,0,0,0,1 @ F,0,0,1,0,0,0,1 @ F,0,0,1,0,0.69391132,0,1 @ F,0,1,1,0,0.69391132,0,1 @ F,0,0,1,0,0,0,1 @ F,0,0,1,0,0,0,1 @ F,0,0,1,0,0,0,1 @ F,0,1,1,0,0.69391132,0,1 @ F,0,1,1,0,0.69391132,0,1 @ F,0,0,1,0,0,0,1 | F,0,0,1,0,0,0,1 @ F,0,0,1,0,0,0,1 @ F,0,1,1,0,0.69391132,0,1 @ F,0,1,1,0,0.69391132,0,1 @ F,0,0,1,0,0,0,1 @ F,0,0,1,0,0,0,1 @ F,0,0,1,0,0,0,1 @ F,0,1,1,0,0.69391132,0,1 @ F,0,1,1,0,0.69391132,0,1 @ F,0,0,1,0,0,0,1 | F,0,0,1,0,0,0,1 @ F,0,0,1,0,0,0,1 @ F,0,0,1,0,0,0,1 @ F,0,0,1,0,0,0,1"
       radius="0"
       unit="px"
       method="auto"
       mode="F"
       chamfer_steps="1"
       flexible="false"
       use_knot_distance="true"
       apply_no_radius="true"
       apply_with_radius="true"
       only_selected="false"
       hide_knots="false" />
    <inkscape:path-effect
       effect="fillet_chamfer"
       id="path-effect1-1"
       is_visible="true"
       lpeversion="1"
       nodesatellites_param="F,0,0,1,0,0,0,1 @ F,0,0,1,0,0,0,1 @ F,0,0,1,0,0.69391132,0,1 @ F,0,1,1,0,0.69391132,0,1 @ F,0,0,1,0,0,0,1 @ F,0,0,1,0,0,0,1 @ F,0,0,1,0,0,0,1 @ F,0,1,1,0,0.69391132,0,1 @ F,0,1,1,0,0.69391132,0,1 @ F,0,0,1,0,0,0,1 | F,0,0,1,0,0,0,1 @ F,0,0,1,0,0,0,1 @ F,0,1,1,0,0.69391132,0,1 @ F,0,1,1,0,0.69391132,0,1 @ F,0,0,1,0,0,0,1 @ F,0,0,1,0,0,0,1 @ F,0,0,1,0,0,0,1 @ F,0,1,1,0,0.69391132,0,1 @ F,0,1,1,0,0.69391132,0,1 @ F,0,0,1,0,0,0,1 | F,0,0,1,0,0,0,1 @ F,0,0,1,0,0,0,1 @ F,0,0,1,0,0,0,1 @ F,0,0,1,0,0,0,1"
       radius="0"
       unit="px"
       method="auto"
       mode="F"
       chamfer_steps="1"
       flexible="false"
       use_knot_distance="true"
       apply_no_radius="true"
       apply_with_radius="true"
       only_selected="false"
       hide_knots="false" />
  </defs>
  <sodipodi:namedview
     id="namedview1"
     pagecolor="#ffffff"
     bordercolor="#000000"
     borderopacity="0.25"
     inkscape:showpageshadow="2"
     inkscape:pageopacity="0.0"
     inkscape:pagecheckerboard="0"
     inkscape:deskcolor="#d1d1d1"
     inkscape:zoom="11.12037"
     inkscape:cx="21.13239"
     inkscape:cy="13.983347"
     inkscape:window-width="2194"
     inkscape:window-height="1211"
     inkscape:window-x="-8"
     inkscape:window-y="-8"
     inkscape:window-maximized="1"
     inkscape:current-layer="svg2" />
  <style
     type="text/css"
     id="current-color-scheme">&#10;        .ColorScheme-Text {&#10;            color:#232629;&#10;        }&#10;    </style>
  <g
     id="22-22-configure">
    <path
       id="path9"
       d="m0 10v22h22v-22z"
       fill="none" />
    <path
       id="rect2907-0"
       style="color:#363636;fill:#dfdfdf;fill-opacity:1;fill-rule:evenodd;stroke:none;stroke-width:1.41396;stroke-linecap:square"
       d="m 6.2867841,12.751873 c -1.9583406,0 -3.5349114,1.57657 -3.5349114,3.534911 0,1.958342 1.5765708,3.534913 3.5349114,3.534913 h 9.4264319 c 1.958341,0 3.534911,-1.576571 3.534911,-3.534913 0,-1.958341 -1.57657,-3.534911 -3.534911,-3.534911 z m 0,1.178304 h 9.4264319 c 1.30556,0 2.356607,1.051047 2.356607,2.356607 0,1.305562 -1.051047,2.356609 -2.356607,2.356609 H 6.2867841 c -1.3055604,0 -2.3566071,-1.051047 -2.3566071,-2.356609 0,-1.30556 1.0510467,-2.356607 2.3566071,-2.356607 z m 0.3083844,0.55463 a 1.7674559,1.7674559 0 0 0 -1.7674557,1.767458 1.7674559,1.7674559 0 0 0 1.7674557,1.767456 1.7674559,1.7674559 0 0 0 1.7674558,-1.767456 1.7674559,1.7674559 0 0 0 -1.7674558,-1.767458 z m -0.3083844,7.693497 c -1.9583406,0 -3.5349114,1.576571 -3.5349114,3.534912 0,1.958342 1.5765708,3.534911 3.5349114,3.534911 h 9.4264319 c 1.958341,0 3.534911,-1.576569 3.534911,-3.534911 0,-1.958341 -1.57657,-3.534912 -3.534911,-3.534912 z m 9.4264319,1.178305 a 2.3566079,2.3566079 0 0 1 2.356607,2.356607 2.3566079,2.3566079 0 0 1 -2.356607,2.356609 2.3566079,2.3566079 0 0 1 -2.356609,-2.356609 2.3566079,2.3566079 0 0 1 2.356609,-2.356607 z"
       class="ColorScheme-Text" />
  </g>
  <g
     id="configure">
    <path
       id="path14"
       d="m22 0v32h32v-32z"
       fill="none" />
    <path
       id="rect2907-0-9"
       style="color:#363636;fill:#dfdfdf;fill-opacity:1;fill-rule:evenodd;stroke:none;stroke-width:2.05714;stroke-linecap:square"
       d="M 31.142856,4 C 28.293715,4 26,6.2937134 26,9.1428563 c 0,2.8491447 2.293715,5.1428597 5.142856,5.1428597 H 44.857144 C 47.706286,14.285716 50,11.992001 50,9.1428563 50,6.2937134 47.706286,4 44.857144,4 Z m 0,1.7142859 h 13.714288 c 1.899427,0 3.42857,1.5291428 3.42857,3.4285704 0,1.8994307 -1.529143,3.4285737 -3.42857,3.4285737 H 31.142856 c -1.899427,0 -3.42857,-1.529143 -3.42857,-3.4285737 0,-1.8994276 1.529143,-3.4285704 3.42857,-3.4285704 z m 0.448661,0.8069177 A 2.5714287,2.5714287 0 0 0 29.020089,9.0926355 2.5714287,2.5714287 0 0 0 31.591517,11.664064 2.5714287,2.5714287 0 0 0 34.162946,9.0926355 2.5714287,2.5714287 0 0 0 31.591517,6.5212036 Z M 31.142856,17.714286 C 28.293715,17.714286 26,20.008001 26,22.857144 26,25.706288 28.293715,28 31.142856,28 H 44.857144 C 47.706286,28 50,25.706288 50,22.857144 50,20.008001 47.706286,17.714286 44.857144,17.714286 Z m 13.714288,1.714287 a 3.4285717,3.4285717 0 0 1 3.42857,3.428571 3.4285717,3.4285717 0 0 1 -3.42857,3.428573 3.4285717,3.4285717 0 0 1 -3.428574,-3.428573 3.4285717,3.4285717 0 0 1 3.428574,-3.428571 z"
       class="ColorScheme-Text" />
  </g>
  <g
     id="16-16-configure"
     transform="matrix(.72727273 0 0 .72727273 -16 8.727273)">
    <path
       id="path9-7"
       d="m0 10v22h22v-22z"
       fill="none" />
    <path
       id="rect2907"
       style="color:#363636;fill:#dfdfdf;fill-opacity:1;fill-rule:evenodd;stroke:none;stroke-width:1.2;stroke-linecap:square"
       d="m 7,14 c -1.662,0 -3,1.338 -3,3 0,1.662 1.338,3 3,3 h 8 c 1.662,0 3,-1.338 3,-3 0,-1.662 -1.338,-3 -3,-3 z m 0,1 h 8 c 1.108,0 2,0.892 2,2 0,1.108 -0.892,2 -2,2 H 7 C 5.892,19 5,18.108 5,17 5,15.892 5.892,15 7,15 Z m 0.261719,0.470703 a 1.5,1.5 0 0 0 -1.5,1.5 1.5,1.5 0 0 0 1.5,1.5 1.5,1.5 0 0 0 1.5,-1.5 1.5,1.5 0 0 0 -1.5,-1.5 z M 7,22 c -1.662,0 -3,1.338 -3,3 0,1.662 1.338,3 3,3 h 8 c 1.662,0 3,-1.338 3,-3 0,-1.662 -1.338,-3 -3,-3 z m 8,1 a 2,2 0 0 1 2,2 2,2 0 0 1 -2,2 2,2 0 0 1 -2,-2 2,2 0 0 1 2,-2 z"
       class="ColorScheme-Text" />
  </g>
</svg>
