<?xml version="1.0" encoding="UTF-8" standalone="no"?>
<svg
   id="svg3869"
   version="1.1"
   viewBox="0 0 22 22"
   sodipodi:docname="distribute.svg"
   inkscape:version="1.3 (0e150ed6c4, 2023-07-21)"
   xmlns:inkscape="http://www.inkscape.org/namespaces/inkscape"
   xmlns:sodipodi="http://sodipodi.sourceforge.net/DTD/sodipodi-0.dtd"
   xmlns="http://www.w3.org/2000/svg"
   xmlns:svg="http://www.w3.org/2000/svg">
  <defs
     id="defs1">
    <inkscape:path-effect
       effect="fillet_chamfer"
       id="path-effect1"
       is_visible="true"
       lpeversion="1"
       nodesatellites_param="F,0,0,1,0,1.5172414,0,1 @ F,0,0,1,0,1.5172414,0,1 @ F,0,0,1,0,1.5172414,0,1 @ F,0,0,1,0,1.5172414,0,1 | F,0,0,1,0,1.5172414,0,1 @ F,0,0,1,0,1.5172414,0,1 @ F,0,0,1,0,1.5172414,0,1 @ F,0,0,1,0,1.5172414,0,1 | F,0,1,1,0,0.50394091,0,1 @ F,0,1,1,0,0.50394091,0,1 @ F,0,1,1,0,0.50394091,0,1 @ F,0,1,1,0,0.50394091,0,1 | F,0,1,1,0,0.50394091,0,1 @ F,0,1,1,0,0.50394091,0,1 @ F,0,1,1,0,0.50394091,0,1 @ F,0,1,1,0,0.50394091,0,1"
       radius="0"
       unit="px"
       method="auto"
       mode="F"
       chamfer_steps="1"
       flexible="false"
       use_knot_distance="true"
       apply_no_radius="true"
       apply_with_radius="true"
       only_selected="false"
       hide_knots="false" />
    <inkscape:path-effect
       effect="fillet_chamfer"
       id="path-effect1-7"
       is_visible="true"
       lpeversion="1"
       nodesatellites_param="F,0,0,1,0,1.5172414,0,1 @ F,0,0,1,0,1.5172414,0,1 @ F,0,0,1,0,1.5172414,0,1 @ F,0,0,1,0,1.5172414,0,1 | F,0,0,1,0,1.5172414,0,1 @ F,0,0,1,0,1.5172414,0,1 @ F,0,0,1,0,1.5172414,0,1 @ F,0,0,1,0,1.5172414,0,1 | F,0,1,1,0,0.50394091,0,1 @ F,0,1,1,0,0.50394091,0,1 @ F,0,1,1,0,0.50394091,0,1 @ F,0,1,1,0,0.50394091,0,1 | F,0,1,1,0,0.50394091,0,1 @ F,0,1,1,0,0.50394091,0,1 @ F,0,1,1,0,0.50394091,0,1 @ F,0,1,1,0,0.50394091,0,1"
       radius="0"
       unit="px"
       method="auto"
       mode="F"
       chamfer_steps="1"
       flexible="false"
       use_knot_distance="true"
       apply_no_radius="true"
       apply_with_radius="true"
       only_selected="false"
       hide_knots="false" />
  </defs>
  <sodipodi:namedview
     id="namedview1"
     pagecolor="#ffffff"
     bordercolor="#000000"
     borderopacity="0.25"
     inkscape:showpageshadow="2"
     inkscape:pageopacity="0.0"
     inkscape:pagecheckerboard="0"
     inkscape:deskcolor="#d1d1d1"
     inkscape:zoom="16.311668"
     inkscape:cx="1.7472156"
     inkscape:cy="8.6134662"
     inkscape:window-width="2194"
     inkscape:window-height="1211"
     inkscape:window-x="-8"
     inkscape:window-y="-8"
     inkscape:window-maximized="1"
     inkscape:current-layer="svg3869" />
  <style
     type="text/css"
     id="current-color-scheme">&#10;        .ColorScheme-Text {&#10;            color:#232629;&#10;        }&#10;    </style>
  <g
     id="distribute-horizontal-x"
     transform="translate(-326,-534.3622)">
    <path
       id="rect4178"
       d="m326 534.36218h22v22h-22z"
       fill="none" />
    <path
       id="path4-8"
       d="m 327.375,541.37945 v 7.96552 a 1.5172414,1.5172414 45 0 0 1.51724,1.51724 h 2.46552 a 1.5172414,1.5172414 135 0 0 1.51724,-1.51724 v -7.96552 a 1.5172414,1.5172414 45 0 0 -1.51724,-1.51724 h -2.46552 a 1.5172414,1.5172414 135 0 0 -1.51724,1.51724 z m 13.75,0 v 7.96552 a 1.5172414,1.5172414 45 0 0 1.51724,1.51724 h 2.46552 a 1.5172414,1.5172414 135 0 0 1.51724,-1.51724 v -7.96552 a 1.5172414,1.5172414 45 0 0 -1.51724,-1.51724 h -2.46552 a 1.5172414,1.5172414 135 0 0 -1.51724,1.51724 z m -11.87106,-0.14224 h 1.74212 a 0.50394091,0.50394091 45 0 1 0.50394,0.50394 v 7.24212 a 0.50394091,0.50394091 135 0 1 -0.50394,0.50394 h -1.74212 A 0.50394091,0.50394091 45 0 1 328.75,548.98327 v -7.24212 a 0.50394091,0.50394091 135 0 1 0.50394,-0.50394 z m 13.75,0 h 1.74212 a 0.50394091,0.50394091 45 0 1 0.50394,0.50394 v 7.24212 a 0.50394091,0.50394091 135 0 1 -0.50394,0.50394 h -1.74212 A 0.50394091,0.50394091 45 0 1 342.5,548.98327 v -7.24212 a 0.50394091,0.50394091 135 0 1 0.50394,-0.50394 z"
       class="ColorScheme-Text"
       fill="currentColor"
       sodipodi:nodetypes="cccccccccccccccccccc"
       style="color:#232629;fill:#dfdfdf;fill-opacity:1"
       inkscape:path-effect="#path-effect1-7"
       inkscape:original-d="m 327.375,539.86221 v 11 h 5.5 v -11 z m 13.75,0 v 11 h 5.5 v -11 z m -12.375,1.375 h 2.75 v 8.25 h -2.75 z m 13.75,0 h 2.75 v 8.25 h -2.75 z"
       transform="matrix(0.83236841,0,0,0.83236841,56.480298,91.419935)" />
    <path
       d="m 334.6043,542.97805 v 4.76829 h 1.19208 v -1.19207 h 2.38414 v 1.19207 h 1.19207 v -4.76829 h -1.19207 v 1.19208 h -2.38414 v -1.19208 z"
       style="color:#232629;fill:#dfdfdf;fill-opacity:0.5;stroke-width:1.19207"
       id="path1-7" />
  </g>
  <g
     id="16-16-distribute-horizontal-x"
     transform="matrix(.72727273 0 0 .72727273 -253.09091 -382.62706)">
    <path
       id="rect4178-6"
       d="m326 534.36218h22v22h-22z"
       fill="none" />
    <path
       id="path4"
       d="m 327.375,541.37945 v 7.96552 a 1.5172414,1.5172414 45 0 0 1.51724,1.51724 h 2.46552 a 1.5172414,1.5172414 135 0 0 1.51724,-1.51724 v -7.96552 a 1.5172414,1.5172414 45 0 0 -1.51724,-1.51724 h -2.46552 a 1.5172414,1.5172414 135 0 0 -1.51724,1.51724 z m 13.75,0 v 7.96552 a 1.5172414,1.5172414 45 0 0 1.51724,1.51724 h 2.46552 a 1.5172414,1.5172414 135 0 0 1.51724,-1.51724 v -7.96552 a 1.5172414,1.5172414 45 0 0 -1.51724,-1.51724 h -2.46552 a 1.5172414,1.5172414 135 0 0 -1.51724,1.51724 z m -11.87106,-0.14224 h 1.74212 a 0.50394091,0.50394091 45 0 1 0.50394,0.50394 v 7.24212 a 0.50394091,0.50394091 135 0 1 -0.50394,0.50394 h -1.74212 A 0.50394091,0.50394091 45 0 1 328.75,548.98327 v -7.24212 a 0.50394091,0.50394091 135 0 1 0.50394,-0.50394 z m 13.75,0 h 1.74212 a 0.50394091,0.50394091 45 0 1 0.50394,0.50394 v 7.24212 a 0.50394091,0.50394091 135 0 1 -0.50394,0.50394 h -1.74212 A 0.50394091,0.50394091 45 0 1 342.5,548.98327 v -7.24212 a 0.50394091,0.50394091 135 0 1 0.50394,-0.50394 z"
       class="ColorScheme-Text"
       fill="currentColor"
       sodipodi:nodetypes="cccccccccccccccccccc"
       style="fill:#dfdfdf;fill-opacity:1"
       inkscape:path-effect="#path-effect1"
       inkscape:original-d="m 327.375,539.86221 v 11 h 5.5 v -11 z m 13.75,0 v 11 h 5.5 v -11 z m -12.375,1.375 h 2.75 v 8.25 h -2.75 z m 13.75,0 h 2.75 v 8.25 h -2.75 z" />
    <path
       d="m -10.083117,11.916865 v 4.166233 h 1.0415586 V 15.04154 h 2.0831169 v 1.041558 h 1.0415584 v -4.166233 h -1.0415584 v 1.041558 h -2.0831169 v -1.041558 z"
       style="color:#232629;fill:#dfdfdf;stroke-width:1.04156;fill-opacity:0.5"
       id="path1"
       transform="matrix(1.375,0,0,1.375,348,526.11221)" />
  </g>
</svg>
