<?xml version="1.0" encoding="UTF-8" standalone="no"?>
<svg
   height="54"
   width="54"
   version="1.1"
   id="svg"
   viewBox="0 0 54 54"
   inkscape:version="1.3 (0e150ed6c4, 2023-07-21)"
   sodipodi:docname="document.svg"
   xml:space="preserve"
   xmlns:inkscape="http://www.inkscape.org/namespaces/inkscape"
   xmlns:sodipodi="http://sodipodi.sourceforge.net/DTD/sodipodi-0.dtd"
   xmlns="http://www.w3.org/2000/svg"
   xmlns:svg="http://www.w3.org/2000/svg"
   xmlns:rdf="http://www.w3.org/1999/02/22-rdf-syntax-ns#"
   xmlns:cc="http://creativecommons.org/ns#"
   xmlns:dc="http://purl.org/dc/elements/1.1/"><sodipodi:namedview
     pagecolor="#ffffff"
     bordercolor="#666666"
     borderopacity="1"
     objecttolerance="10"
     gridtolerance="10"
     guidetolerance="10"
     inkscape:pageopacity="0"
     inkscape:pageshadow="2"
     inkscape:window-width="2194"
     inkscape:window-height="1211"
     id="namedview20"
     showgrid="false"
     inkscape:zoom="17.481482"
     inkscape:cx="29.459746"
     inkscape:cy="4.5476695"
     inkscape:window-x="-8"
     inkscape:window-y="-8"
     inkscape:window-maximized="1"
     inkscape:current-layer="document-decrypt"
     inkscape:showpageshadow="2"
     inkscape:pagecheckerboard="0"
     inkscape:deskcolor="#d1d1d1" /><metadata
     id="metadata23"><rdf:RDF><cc:Work
         rdf:about=""><dc:format>image/svg+xml</dc:format><dc:type
           rdf:resource="http://purl.org/dc/dcmitype/StillImage" /><dc:title /></cc:Work></rdf:RDF></metadata><defs
     id="defs81"><style
       type="text/css"
       id="current-color-scheme">&#10;      .ColorScheme-Text {&#10;        color:#31363b;&#10;      }&#10;      .ColorScheme-Background {&#10;        color:#eff0f1;&#10;      }&#10;      .ColorScheme-Highlight {&#10;        color:#3daee9;&#10;      }&#10;      .ColorScheme-ViewText {&#10;        color:#31363b;&#10;      }&#10;      .ColorScheme-ViewBackground {&#10;        color:#fcfcfc;&#10;      }&#10;      .ColorScheme-ViewHover {&#10;        color:#93cee9;&#10;      }&#10;      .ColorScheme-ViewFocus{&#10;        color:#3daee9;&#10;      }&#10;      .ColorScheme-ButtonText {&#10;        color:#31363b;&#10;      }&#10;      .ColorScheme-ButtonBackground {&#10;        color:#eff0f1;&#10;      }&#10;      .ColorScheme-ButtonHover {&#10;        color:#93cee9;&#10;      }&#10;      .ColorScheme-ButtonFocus{&#10;        color:#3daee9;&#10;      }&#10;      .ColorScheme-NegativeText {&#10;        color:#da4453;&#10;      }&#10;  </style><style
       id="current-color-scheme-1"
       type="text/css">&#10;   .ColorScheme-Text { color:#dfdfdf; } .ColorScheme-Highlight { color:#4285f4; } .ColorScheme-NeutralText { color:#ff9800; } .ColorScheme-PositiveText { color:#4caf50; } .ColorScheme-NegativeText { color:#f44336; }&#10;  </style></defs><g
     transform="translate(22,0)"
     id="document-decrypt"><rect
       id="rect6"
       y="1.9496329e-13"
       x="5.0495145e-15"
       height="22"
       width="22"
       style="opacity:1;fill:none" /><path
       d="m 5.9943648,2.0909068 c -0.528818,0 -1.036003,0.2100004 -1.410184,0.5841825 C 4.2099988,3.0492714 3.9999999,3.5564536 3.9999999,4.0852717 V 17.914729 c 0,1.101546 0.8928179,1.994364 1.9943649,1.994364 H 16.005635 C 17.107181,19.909093 18,19.016276 18,17.914729 V 6.855363 L 13.972453,2.0909068 Z m -0.721642,1.9631825 c 0,-0.381181 0.309273,-0.6904548 0.690456,-0.6904548 h 7.4779122 v 3.8385464 l 3.286185,0.033093 V 17.945913 c 0,0.183274 -0.07255,0.35891 -0.202368,0.488093 -0.129181,0.129816 -0.304816,0.202362 -0.488088,0.202362 H 5.9631788 c -0.381183,0 -0.690456,-0.309272 -0.690456,-0.690455 z"
       fill-rule="nonzero"
       id="path1-8-4-4"
       style="clip-rule:evenodd;fill:#dfdfdf;fill-opacity:1;fill-rule:evenodd;stroke-width:0.636365;stroke-linejoin:round;stroke-miterlimit:2" /><path
       id="path2"
       style="clip-rule:evenodd;fill:currentColor;fill-rule:evenodd;stroke-width:0.675847;stroke-linejoin:round;stroke-miterlimit:2"
       class="ColorScheme-Text"
       d="m 11,7.7568194 c -1.4381885,0 -2.6066715,1.1108604 -2.6972665,2.5253906 h 1.357422 C 9.7467655,9.6180814 10.31151,9.1083819 11,9.1083819 c 0.748838,0 1.351563,0.6027242 1.351563,1.3515621 v 1.351563 H 7.6210935 c -0.37442,0 -0.675781,0.301362 -0.675781,0.675781 v 4.054688 c 0,0.374418 0.301361,0.675781 0.675781,0.675781 h 6.7578125 c 0.37442,0 0.675781,-0.301363 0.675782,-0.675781 v -4.054688 c 0,-0.374419 -0.301362,-0.675781 -0.675782,-0.675781 H 13.703125 V 10.459944 C 13.703125,8.9622679 12.497677,7.7568194 11,7.7568194 Z"
       sodipodi:nodetypes="sccssccsssscsscss" /></g><g
     id="document-encrypt"><rect
       id="rect11"
       width="22"
       height="22"
       x="5.0495145e-15"
       y="1.9496329e-13"
       style="opacity:1;fill:none" /><path
       d="m 5.994365,2.0909063 c -0.528818,0 -1.036003,0.2100004 -1.410184,0.5841825 C 4.209999,3.0492709 4,3.5564531 4,4.0852712 V 17.91473 c 0,1.101546 0.892818,1.994364 1.994365,1.994364 h 10.01127 C 17.107181,19.909094 18,19.016276 18,17.91473 V 6.8553625 L 13.972453,2.0909063 Z M 5.272723,4.0540888 c 0,-0.381181 0.309273,-0.6904548 0.690456,-0.6904548 h 7.477912 v 3.8385464 l 3.286185,0.033093 V 17.945913 c 0,0.183274 -0.07255,0.35891 -0.202368,0.488092 -0.129181,0.129817 -0.304816,0.202363 -0.488088,0.202363 H 5.963179 c -0.381183,0 -0.690456,-0.309272 -0.690456,-0.690455 z"
       fill-rule="nonzero"
       id="path1-8-4"
       style="clip-rule:evenodd;fill:#dfdfdf;fill-opacity:1;fill-rule:evenodd;stroke-width:0.636365;stroke-linejoin:round;stroke-miterlimit:2" /><path
       style="color:#dfdfdf;clip-rule:evenodd;fill:currentColor;fill-rule:evenodd;stroke-width:0.675847;stroke-linejoin:round;stroke-miterlimit:2"
       class="ColorScheme-Text"
       d="m 11,7.7563561 c -1.4976785,0 -2.7033905,1.2057119 -2.7033905,2.7033899 v 1.351695 h -0.675847 c -0.37442,0 -0.675848,0.301428 -0.675848,0.675847 v 4.055085 c 0,0.374419 0.301428,0.675847 0.675848,0.675847 h 6.7584745 c 0.37442,0 0.675848,-0.301428 0.675848,-0.675847 v -4.055085 c 0,-0.374419 -0.301428,-0.675847 -0.675848,-0.675847 H 13.70339 V 10.459746 C 13.70339,8.962068 12.497678,7.7563561 11,7.7563561 Z m 0,1.3516949 c 0.748839,0 1.351695,0.6028559 1.351695,1.351695 v 1.351695 H 9.6483045 V 10.459746 C 9.6483045,9.7109069 10.251161,9.108051 11,9.108051 Z"
       id="path2-3"
       sodipodi:nodetypes="sscsssssssscssssccss" /></g><g
     transform="translate(0,32)"
     id="g8125"><rect
       class="ColorScheme-Text"
       y="0"
       x="0"
       height="22"
       width="22"
       id="rect3802"
       style="opacity:1;fill:none" /></g><g
     transform="translate(27,27)"
     id="document-open-recent"><rect
       id="rect23"
       width="32"
       height="32"
       x="-5"
       y="-5"
       style="opacity:1;fill:none" /><path
       id="path14"
       d="M 7.965288,7.3643717 C 5.2354382,9.2428226 4.5452427,12.97859 6.4236936,15.70844 c 1.8784511,2.72985 5.6142184,3.420046 8.3440684,1.541595 2.72985,-1.878451 3.420046,-5.614219 1.541595,-8.344069 C 14.430906,6.1761162 10.695138,5.4859206 7.965288,7.3643717 Z M 8.5321609,8.188177 C 10.807037,6.6228007 13.920175,7.1979635 15.485551,9.4728389 17.050928,11.747715 16.475765,14.860853 14.200889,16.42623 11.926014,17.991606 8.8128752,17.416443 7.2474989,15.141567 5.6821228,12.866692 6.2572856,9.7535531 8.5321609,8.188177 Z m 0.06637,1.1682092 2.5110616,4.3414948 3.072753,-2.590793 -0.121935,-0.177201 -2.693885,1.377316 -2.5907933,-3.0727517 z"
       style="opacity:1;fill:#dfdfdf;fill-opacity:1"
       class="ColorScheme-Text"
       sodipodi:nodetypes="ssssssssssccccccc" /><path
       d="m 30.128507,24 c -0.831582,0 -1.629139,0.330231 -2.21755,0.918642 -0.58841,0.588411 -0.91864,1.385968 -0.91864,2.217548 v 21.747179 c 0,1.732209 1.403981,3.136188 3.13619,3.136188 h 15.742986 c 1.732209,0 3.13619,-1.403979 3.13619,-3.136188 V 31.49223 L 42.674263,24 Z m -1.134793,3.087155 c 0,-0.599417 0.486339,-1.085758 1.085758,-1.085758 h 11.759207 v 6.036213 l 5.167607,0.05204 v 16.842755 c 0,0.288203 -0.114077,0.564395 -0.318223,0.767537 -0.203141,0.204142 -0.479334,0.318221 -0.767535,0.318221 H 30.079472 c -0.599419,0 -1.085758,-0.486339 -1.085758,-1.085758 z"
       fill-rule="nonzero"
       id="path1"
       style="clip-rule:evenodd;fill:#dfdfdf;fill-opacity:1;fill-rule:evenodd;stroke-width:1.0007;stroke-linejoin:round;stroke-miterlimit:2"
       transform="translate(-27,-27)" /></g><g
     transform="matrix(0.6875,0,0,0.6875,3.4375,35.4375)"
     id="22-22-document-open-recent"><rect
       id="rect23-7"
       width="32"
       height="32"
       x="-5"
       y="-5"
       style="opacity:1;fill:none" /><path
       id="path14-2"
       d="M 7.8539461,7.8354806 C 5.3289058,9.5729989 4.6904887,13.028486 6.4280062,15.553527 c 1.7375174,2.52504 5.1930078,3.163453 7.7180478,1.425935 2.52504,-1.737518 3.163457,-5.193007 1.42594,-7.718047 C 13.834477,6.7363747 10.378986,6.0979622 7.8539461,7.8354806 Z m 0.52434,0.7619982 c 2.1042049,-1.4479321 4.9837789,-0.9159213 6.4317049,1.188279 1.447936,2.1042012 0.915928,4.9837732 -1.188277,6.4317062 -2.104205,1.447932 -4.9837692,0.915921 -6.431705,-1.18828 -1.4479358,-2.1042 -0.9159185,-4.983773 1.1882771,-6.4317052 z m 0.061418,1.080563 2.3226656,4.0157702 2.842223,-2.396416 -0.112792,-0.163907 -2.491769,1.273982 -2.3964222,-2.8422159 z"
       style="color:#31363b;fill:#dfdfdf;fill-opacity:1;stroke-width:0.924974"
       class="ColorScheme-Text"
       sodipodi:nodetypes="ssssssssssccccccc" /><path
       d="m 3.3800503,-1.7512942 c -0.7691899,0 -1.5069122,0.3054551 -2.0511762,0.84971993 -0.54426393,0.5442649 -0.84971811,1.2819844 -0.84971811,2.05117437 V 21.265176 c 0,1.602248 1.29864501,2.900892 2.90089431,2.900892 H 17.941898 c 1.602249,0 2.900894,-1.298644 2.900894,-2.900892 V 5.1788239 L 14.984543,-1.7512942 Z M 2.3303898,1.1042439 c 0,-0.5544451 0.4498518,-1.00429787 1.0042997,-1.00429787 H 14.211653 V 5.6832862 l 4.779905,0.048136 V 21.310533 c 0,0.26658 -0.105521,0.52205 -0.294354,0.709951 -0.187899,0.188826 -0.443368,0.294347 -0.709946,0.294347 H 3.3346895 c -0.5544479,0 -1.0042997,-0.449851 -1.0042997,-1.004298 z"
       fill-rule="nonzero"
       id="path1-8"
       style="clip-rule:evenodd;fill:#dfdfdf;fill-opacity:1;fill-rule:evenodd;stroke-width:0.925622;stroke-linejoin:round;stroke-miterlimit:2" /></g><g
     style="clip-rule:evenodd;fill-rule:evenodd;stroke-linejoin:round;stroke-miterlimit:2"
     id="g1"
     transform="translate(60.644067,1.0909068)" /></svg>
