<?xml version="1.0" encoding="UTF-8" standalone="no"?>
<svg
   id="svg2"
   viewBox="0 0 54 32"
   version="1.1"
   sodipodi:docname="drive.svg"
   xml:space="preserve"
   inkscape:version="1.3 (0e150ed6c4, 2023-07-21)"
   xmlns:inkscape="http://www.inkscape.org/namespaces/inkscape"
   xmlns:sodipodi="http://sodipodi.sourceforge.net/DTD/sodipodi-0.dtd"
   xmlns="http://www.w3.org/2000/svg"
   xmlns:svg="http://www.w3.org/2000/svg"><defs
     id="defs1" /><sodipodi:namedview
     id="namedview1"
     pagecolor="#ffffff"
     bordercolor="#000000"
     borderopacity="0.25"
     inkscape:showpageshadow="2"
     inkscape:pageopacity="0.0"
     inkscape:pagecheckerboard="0"
     inkscape:deskcolor="#d1d1d1"
     inkscape:zoom="11.12037"
     inkscape:cx="7.6885928"
     inkscape:cy="32.238135"
     inkscape:window-width="2194"
     inkscape:window-height="1211"
     inkscape:window-x="-8"
     inkscape:window-y="-8"
     inkscape:window-maximized="1"
     inkscape:current-layer="svg2" /><style
     type="text/css"
     id="current-color-scheme">&#10;        .ColorScheme-Text {&#10;            color:#232629;&#10;        }&#10;    </style><g
     id="22-22-drive"><path
       id="path9"
       d="m0 10v22h22v-22z"
       fill="none" /><g
       transform="matrix(1.111313,0,0,1.111313,2.777374,12.330305)"
       id="g1"
       style="clip-rule:evenodd;fill-rule:evenodd;stroke-linejoin:round;stroke-miterlimit:2"><path
         d="M 3,1 C 2,1 2,2 2,2 v 12 c 0,1 1,1 1,1 h 8.798 c 1,0 1,-1 1,-1 V 2 c 0,-1 -1,-1 -1,-1 z M 3.243,14.03 C 3.193,14.017 3.143,14.009 3.092,14.005 Z M 3.011,2 3,2.064 V 13.989 L 3.064,14 h 8.723 l 0.011,-0.064 V 2.011 L 11.734,2 Z M 2.995,2.092 2.97,2.243 C 2.983,2.193 2.991,2.143 2.995,2.092 Z M 11.706,1.995 11.556,1.97 c 0.049,0.013 0.1,0.021 0.15,0.025 z"
         fill="#dfdfdf"
         id="path1" /><path
         d="m 3.601,1 c -1,0 -1,1 -1,1 v 12 c 0,1 1,1 1,1 h 8.798 c 1,0 1,-1 1,-1 V 2 c 0,-1 -1,-1 -1,-1 z"
         fill-opacity="0.3"
         fill="#dfdfdf"
         id="path2"
         style="clip-rule:evenodd;fill-rule:evenodd;stroke-linejoin:round;stroke-miterlimit:2;display:inline;fill:#dfdfdf;fill-opacity:0.2"
         transform="translate(-0.600962)" /><path
         d="M 6.038,9.618 C 5.968,9.343 5.898,9.126 5.677,9.126 5.456,9.126 5.374,9.34 5.31,9.618 l -0.729,3.456 c 0,0.271 0.665,0.492 1,0.492 0.335,0 1.008,-0.221 1.008,-0.492 z"
         style="clip-rule:evenodd;fill-rule:evenodd;stroke-linejoin:round;stroke-miterlimit:2;fill:#ebebeb"
         id="path3"
         transform="matrix(0.95212303,0.72642,-0.72642,0.95212303,8.3011384,-4.01483)" /><path
         d="M 6.131,9.023 C 5.493,8.488 5.087,7.686 5.087,6.789 5.087,5.181 6.392,3.876 8,3.876 c 1.608,0 2.913,1.305 2.913,2.913 0,1.603 -1.297,2.905 -2.898,2.913 L 8.12,9.501 C 8.341,8.983 8.324,8.564 7.975,8.298 7.623,8.029 7.2,8.115 6.762,8.48 Z M 8,6.24 c 0.303,0 0.549,0.246 0.549,0.549 C 8.549,7.092 8.303,7.338 8,7.338 7.697,7.338 7.451,7.092 7.451,6.789 7.451,6.486 7.697,6.24 8,6.24 Z"
         style="clip-rule:evenodd;fill-rule:evenodd;stroke-linejoin:round;stroke-miterlimit:2;fill:#ebebeb"
         id="path4"
         transform="matrix(1.19759,0,0,1.19759,-2.110532,-1.6152398)" /></g></g><g
     id="drive"><path
       id="path14"
       d="m22 0v32h32v-32z"
       fill="none" /><path
       d="m 30.664934,4.6242315 c -1.667432,0 -1.667432,1.6674322 -1.667432,1.6674322 V 26.30085 c 0,1.667432 1.667432,1.667432 1.667432,1.667432 h 14.670069 c 1.667432,0 1.667432,-1.667432 1.667432,-1.667432 V 6.2916637 c 0,-1.6674322 -1.667432,-1.6674322 -1.667432,-1.6674322 z M 31.07012,26.350872 c -0.08338,-0.02168 -0.166743,-0.03502 -0.251782,-0.04168 z M 30.683277,6.2916637 30.664927,6.3983733 V 26.282501 l 0.106709,0.01835 h 14.545011 l 0.01835,-0.106709 V 6.3100048 l -0.10671,-0.018335 z m -0.02668,0.1534041 -0.04168,0.2517818 c 0.02168,-0.083378 0.03502,-0.1667427 0.04168,-0.2517818 z M 45.1816,6.2833259 44.931485,6.2416443 c 0.0817,0.021681 0.166743,0.03502 0.250115,0.041682 z"
       fill="#dfdfdf"
       id="path1-9"
       style="clip-rule:evenodd;fill-rule:evenodd;stroke-width:1.66743;stroke-linejoin:round;stroke-miterlimit:2" /><path
       d="m 30.664997,4.6242315 c -1.667432,0 -1.667432,1.6674322 -1.667432,1.6674322 V 26.30085 c 0,1.667432 1.667432,1.667432 1.667432,1.667432 h 14.670069 c 1.667432,0 1.667432,-1.667432 1.667432,-1.667432 V 6.2916637 c 0,-1.6674322 -1.667432,-1.6674322 -1.667432,-1.6674322 z"
       fill-opacity="0.3"
       fill="#dfdfdf"
       id="path2-7"
       style="clip-rule:evenodd;display:inline;fill:#dfdfdf;fill-opacity:0.2;fill-rule:evenodd;stroke-width:1.66743;stroke-linejoin:round;stroke-miterlimit:2" /><path
       d="m 37.440294,18.845449 c 0.221964,-0.521378 0.373674,-0.950676 0.02282,-1.218363 -0.35086,-0.267687 -0.740253,-0.02726 -1.178588,0.336568 l -5.343462,4.603743 c -0.328251,0.43024 0.459816,1.586584 0.991662,1.992355 0.531847,0.405771 1.86799,0.870087 2.196241,0.439847 z"
       style="clip-rule:evenodd;fill:#ebebeb;fill-rule:evenodd;stroke-width:1.9969;stroke-linejoin:round;stroke-miterlimit:2"
       id="path3-3" /><path
       d="m 34.386463,18.281525 c -1.274023,-1.068341 -2.084764,-2.669854 -2.084764,-4.461074 0,-3.211015 2.605955,-5.8169698 5.81697,-5.8169698 3.211016,0 5.816971,2.6059548 5.816971,5.8169698 0,3.20103 -2.58998,5.800994 -5.787018,5.81697 l 0.209676,-0.401378 c 0.441314,-1.034394 0.407367,-1.871095 -0.289552,-2.40227 -0.702907,-0.537167 -1.547597,-0.365432 -2.422239,0.363436 z m 3.732206,-5.557372 c 0.605061,0 1.096298,0.491237 1.096298,1.096298 0,0.605061 -0.491237,1.096297 -1.096298,1.096297 -0.60506,0 -1.096298,-0.491236 -1.096298,-1.096297 0,-0.605061 0.491238,-1.096298 1.096298,-1.096298 z"
       style="clip-rule:evenodd;fill:#ebebeb;fill-rule:evenodd;stroke-width:1.9969;stroke-linejoin:round;stroke-miterlimit:2"
       id="path4-1" /></g><g
     id="16-16-drive"
     transform="translate(0 13)"><path
       id="path17"
       d="m-16 3v16h16v-16z"
       fill="none" /><g
       transform="matrix(1.111313,0,0,1.111313,12.777374,-16.111313)"
       id="g2"
       style="clip-rule:evenodd;fill-rule:evenodd;stroke-linejoin:round;stroke-miterlimit:2"><path
         d="m -22.36212,18.128003 c -0.83334,0 -0.83334,0.83334 -0.83334,0.83334 v 10.000085 c 0,0.83334 0.83334,0.83334 0.83334,0.83334 h 7.331729 c 0.83334,0 0.83334,-0.83334 0.83334,-0.83334 V 18.961343 c 0,-0.83334 -0.83334,-0.83334 -0.83334,-0.83334 z m 0.202502,10.858425 c -0.04167,-0.01083 -0.08333,-0.0175 -0.125834,-0.02083 z m -0.193335,-10.025085 -0.0092,0.05333 v 9.937584 l 0.05333,0.0092 h 7.269228 l 0.0092,-0.05333 V 18.97051 l -0.05333,-0.0092 z m -0.01333,0.07667 -0.02083,0.125835 c 0.01083,-0.04167 0.0175,-0.08333 0.02083,-0.125835 z m 7.259228,-0.08083 -0.125001,-0.02083 c 0.04083,0.01083 0.08333,0.0175 0.125001,0.02083 z"
         fill="#dfdfdf"
         id="path1-1"
         style="stroke-width:0.83334" /><path
         d="m -22.362088,18.128003 c -0.83334,0 -0.83334,0.83334 -0.83334,0.83334 v 10.000085 c 0,0.83334 0.83334,0.83334 0.83334,0.83334 h 7.331729 c 0.83334,0 0.83334,-0.83334 0.83334,-0.83334 V 18.961343 c 0,-0.83334 -0.83334,-0.83334 -0.83334,-0.83334 z"
         fill-opacity="0.3"
         fill="#dfdfdf"
         id="path2-5"
         style="clip-rule:evenodd;display:inline;fill:#dfdfdf;fill-opacity:0.2;fill-rule:evenodd;stroke-width:0.83334;stroke-linejoin:round;stroke-miterlimit:2" /><path
         d="m -18.975966,25.235408 c 0.110932,-0.260572 0.186752,-0.475124 0.0114,-0.608908 -0.175351,-0.133783 -0.369959,-0.01363 -0.589028,0.168209 l -2.670527,2.300834 c -0.164051,0.215022 0.229804,0.792935 0.495608,0.995728 0.265803,0.202794 0.933573,0.434848 1.097625,0.219824 z"
         style="clip-rule:evenodd;fill:#ebebeb;fill-rule:evenodd;stroke-width:0.998;stroke-linejoin:round;stroke-miterlimit:2"
         id="path3-5" /><path
         d="m -20.502194,24.953573 c -0.636724,-0.53393 -1.041911,-1.334326 -1.041911,-2.229532 0,-1.604785 1.302389,-2.907175 2.907174,-2.907175 1.604784,0 2.907174,1.30239 2.907174,2.907175 0,1.599794 -1.294406,2.89919 -2.892204,2.907174 l 0.10479,-0.200598 c 0.220557,-0.516964 0.203591,-0.935126 -0.144711,-1.200594 -0.351295,-0.268462 -0.77345,-0.182634 -1.210573,0.181636 z m 1.865263,-2.777434 c 0.302394,0 0.547902,0.245508 0.547902,0.547902 0,0.302394 -0.245508,0.547902 -0.547902,0.547902 -0.302395,0 -0.547903,-0.245508 -0.547903,-0.547902 0,-0.302394 0.245508,-0.547902 0.547903,-0.547902 z"
         style="clip-rule:evenodd;fill:#ebebeb;fill-rule:evenodd;stroke-width:0.998;stroke-linejoin:round;stroke-miterlimit:2"
         id="path4-6" /></g></g></svg>
