<?xml version="1.0" encoding="UTF-8" standalone="no"?>
<svg
   id="svg2"
   viewBox="0 0 54 32"
   version="1.1"
   sodipodi:docname="edit.svg"
   xml:space="preserve"
   inkscape:version="1.3 (0e150ed6c4, 2023-07-21)"
   xmlns:inkscape="http://www.inkscape.org/namespaces/inkscape"
   xmlns:sodipodi="http://sodipodi.sourceforge.net/DTD/sodipodi-0.dtd"
   xmlns="http://www.w3.org/2000/svg"
   xmlns:svg="http://www.w3.org/2000/svg"><defs
     id="defs1" /><sodipodi:namedview
     id="namedview1"
     pagecolor="#ffffff"
     bordercolor="#000000"
     borderopacity="0.25"
     inkscape:showpageshadow="2"
     inkscape:pageopacity="0.0"
     inkscape:pagecheckerboard="0"
     inkscape:deskcolor="#d1d1d1"
     inkscape:zoom="11.12037"
     inkscape:cx="19.378852"
     inkscape:cy="7.508743"
     inkscape:window-width="2194"
     inkscape:window-height="1211"
     inkscape:window-x="-8"
     inkscape:window-y="-8"
     inkscape:window-maximized="1"
     inkscape:current-layer="svg2" /><style
     type="text/css"
     id="current-color-scheme">&#10;        .ColorScheme-NegativeText {&#10;            color:#da4453;&#10;        }&#10;    </style><g
     id="22-22-edit-delete"><path
       id="path9"
       d="m0 10v22h22v-22z"
       fill="none" /><path
       d="m 17.012769,15.19427 c 0,0 -1.67678,10.674827 -1.859337,12.449744 C 15.079566,28.361578 14.658524,29 13.967341,29 H 8.1645649 C 7.5430273,29 6.9784734,28.314092 6.9204349,27.644014 6.7663691,25.851158 4.9872315,15.19427 4.9872315,15.19427 Z"
       fill-opacity="0.3"
       id="path1-3"
       style="clip-rule:evenodd;fill-rule:evenodd;stroke-width:1.05524;stroke-linejoin:round;stroke-miterlimit:2;fill:#dfdfdf;fill-opacity:0.5" /><path
       d="m 9.5163302,13.669444 c 0,-0.479079 0.3893835,-0.867408 0.8674088,-0.867408 h 1.232522 c 0.478026,0 0.866354,0.388329 0.866354,0.867408 h 3.564608 c 0.256422,0 0.502294,0.101306 0.682741,0.282806 0.181501,0.181501 0.282805,0.761885 0.282805,1.018308 H 4.9872315 c 0,-0.256423 0.1013031,-0.836807 0.2828048,-1.018308 0.1804466,-0.181502 0.4263174,-0.282806 0.6827416,-0.282806 z"
       id="path2-3"
       style="clip-rule:evenodd;fill-rule:evenodd;stroke-width:1.05524;stroke-linejoin:round;stroke-miterlimit:2;fill:#dfdfdf;fill-opacity:1" /></g><g
     id="edit-delete"><path
       id="path14"
       d="m22 0v32h32v-32z"
       fill="none" /><path
       d="m 20.075705,29.744203 c 0,0 -2.471036,15.731274 -2.740066,18.346933 -0.108856,1.05746 -0.729336,1.998289 -1.747919,1.998289 H 7.0362883 c -0.9159471,0 -1.7479194,-1.010808 -1.8334493,-1.998289 C 4.9757961,45.449041 2.353917,29.744203 2.353917,29.744203 Z"
       fill-opacity="0.3"
       id="path1"
       style="clip-rule:evenodd;fill-rule:evenodd;stroke-linejoin:round;stroke-miterlimit:2;stroke-width:1.55509;fill:#dfdfdf;fill-opacity:0.5"
       transform="translate(26.785189,-22.218817)" /><path
       d="m 9.0283567,27.4971 c 0,-0.70601 0.5738273,-1.278283 1.2782823,-1.278283 h 1.816344 c 0.704455,0 1.276727,0.572273 1.276727,1.278283 h 5.253089 c 0.377886,0 0.740222,0.149289 1.006142,0.416764 0.267475,0.267475 0.416764,1.122774 0.416764,1.50066 H 2.353917 c 0,-0.377886 0.1492885,-1.233185 0.4167637,-1.50066 C 3.0366009,27.646389 3.3989365,27.4971 3.776823,27.4971 Z"
       id="path2"
       style="clip-rule:evenodd;fill-rule:evenodd;stroke-linejoin:round;stroke-miterlimit:2;stroke-width:1.55509;fill:#dfdfdf;fill-opacity:1"
       transform="translate(26.785189,-22.218817)" /></g><g
     id="16-16-edit-delete"><path
       id="rect925"
       d="m-16 16h16v16h-16z"
       fill="none" /><path
       d="m -3.45066,19.547914 c 0,0 -1.2686739,8.076715 -1.4067989,9.419641 -0.055884,0.542918 -0.3744532,1.025957 -0.8974122,1.025957 h -4.3904569 c -0.470263,0 -0.897412,-0.518967 -0.941325,-1.025957 -0.116568,-1.356499 -1.462687,-9.419641 -1.462687,-9.419641 z"
       fill-opacity="0.3"
       id="path1-3-7"
       style="clip-rule:evenodd;fill-rule:evenodd;stroke-width:0.798409;stroke-linejoin:round;stroke-miterlimit:2;fill:#dfdfdf;fill-opacity:0.5" /><path
       d="m -9.1225642,18.394211 c 0,-0.362478 0.2946127,-0.656293 0.6562933,-0.656293 h 0.9325424 c 0.3616808,0 0.6554941,0.293815 0.6554941,0.656293 h 2.6970295 c 0.1940123,0 0.3800423,0.07665 0.5165709,0.213974 0.137326,0.137326 0.213974,0.576453 0.213974,0.770466 h -9.09868 c 0,-0.194013 0.07665,-0.63314 0.213974,-0.770466 0.136528,-0.137326 0.322557,-0.213974 0.516571,-0.213974 z"
       id="path2-3-9"
       style="clip-rule:evenodd;fill-rule:evenodd;stroke-width:0.798409;stroke-linejoin:round;stroke-miterlimit:2;fill:#dfdfdf;fill-opacity:1" /></g></svg>
