<?xml version="1.0" encoding="UTF-8" standalone="no"?>
<svg
   id="svg3869"
   version="1.1"
   viewBox="0 0 22 22"
   sodipodi:docname="go.svg"
   xml:space="preserve"
   inkscape:version="1.3 (0e150ed6c4, 2023-07-21)"
   xmlns:inkscape="http://www.inkscape.org/namespaces/inkscape"
   xmlns:sodipodi="http://sodipodi.sourceforge.net/DTD/sodipodi-0.dtd"
   xmlns="http://www.w3.org/2000/svg"
   xmlns:svg="http://www.w3.org/2000/svg"><defs
     id="defs1"><style
       id="current-color-scheme-2"
       type="text/css">&#10;   .ColorScheme-Text { color:#dfdfdf; } .ColorScheme-Highlight { color:#4285f4; } .ColorScheme-NeutralText { color:#ff9800; } .ColorScheme-PositiveText { color:#4caf50; } .ColorScheme-NegativeText { color:#f44336; }&#10;  </style></defs><sodipodi:namedview
     id="namedview1"
     pagecolor="#ffffff"
     bordercolor="#000000"
     borderopacity="0.25"
     inkscape:showpageshadow="2"
     inkscape:pageopacity="0.0"
     inkscape:pagecheckerboard="0"
     inkscape:deskcolor="#d1d1d1"
     inkscape:zoom="5.7670455"
     inkscape:cx="56.528079"
     inkscape:cy="0.43349754"
     inkscape:window-width="2194"
     inkscape:window-height="1211"
     inkscape:window-x="-8"
     inkscape:window-y="-8"
     inkscape:window-maximized="1"
     inkscape:current-layer="svg3869" /><style
     type="text/css"
     id="current-color-scheme">&#10;        .ColorScheme-Text {&#10;            color:#232629;&#10;        }&#10;    </style><g
     id="go-home"
     transform="translate(-326,-534.3622)"><path
       id="rect4180"
       d="m326 534.36218h22v22h-22z"
       fill="none" /><path
       style="clip-rule:evenodd;fill-rule:evenodd;stroke-linejoin:round;stroke-miterlimit:2;fill:currentColor;fill-opacity:0.3"
       class="ColorScheme-Text"
       d="M 8,2.806 2.871,6.847 v 7.249 H 6.639 V 10.147 H 9.36 v 3.949 h 3.768 V 6.831 Z M 6.629,5.542 H 9.371 V 8.284 H 6.629 Z"
       id="path1"
       transform="translate(329,538.4542)" /><path
       style="clip-rule:evenodd;fill-rule:evenodd;stroke-linejoin:round;stroke-miterlimit:2;fill:currentColor;fill-opacity:0.3"
       class="ColorScheme-Text"
       d="M 6.629,5.542 V 8.284 H 9.371 V 5.542 Z M 7.187,6.101 H 8.813 V 7.726 H 7.187 Z"
       id="path2"
       transform="translate(329,538.4542)" /><path
       style="clip-rule:evenodd;fill-rule:evenodd;stroke-linejoin:round;stroke-miterlimit:2;fill:currentColor"
       class="ColorScheme-Text"
       d="M 7.997,1.092 0.686,6.801 1.622,7.999 2.057,7.659 v 7.249 H 13.94 V 7.644 l 0.445,0.345 0.929,-1.191 z M 8,2.806 2.87,6.847 v 7.249 H 6.638 V 10.147 H 9.36 v 3.949 h 3.767 V 6.831 Z m 3.355,-0.883 c -0.079,0 -0.142,0.063 -0.142,0.142 v 0.504 l 2.162,1.686 v -2.19 c 0,-0.079 -0.064,-0.142 -0.143,-0.142 z"
       id="path3-4"
       transform="translate(329,538.4542)" /></g><g
     id="go-down"
     transform="translate(-326,-534.3622)"><path
       id="rect4411"
       d="m414 534.36218h22v22h-22z"
       fill="none" /><path
       d="m 425.92687,538.85773 v 10.75876 l 3.97074,-3.97073 c 0.36547,-0.36734 0.96015,-0.36734 1.32564,0 0.37167,0.36733 0.37167,0.96264 0,1.32998 l -5.53797,5.54602 c -0.19204,0.1883 -0.43982,0.27876 -0.68759,0.27379 -0.2478,0.006 -0.49558,-0.0854 -0.68142,-0.27379 l -5.54416,-5.54602 c -0.36548,-0.36734 -0.36548,-0.96265 0,-1.32998 0.36548,-0.36734 0.96636,-0.36734 1.33184,0 l 3.96453,3.97073 v -10.75876 c 0,-0.51354 0.41505,-0.9292 0.92921,-0.9292 0.51413,0 0.92918,0.41566 0.92918,0.9292 z"
       fill="#dfdfdf"
       id="path1-3-3-5-6"
       style="clip-rule:evenodd;fill-rule:evenodd;stroke-width:0.61946;stroke-linejoin:round;stroke-miterlimit:2" /></g><g
     id="go-next"
     transform="translate(-326,-534.3622)"><path
       id="rect4407"
       d="m370 534.36218h22v22h-22z"
       fill="none" /><path
       d="m 374.49555,546.28907 h 10.75876 l -3.97073,3.97074 c -0.36734,0.36547 -0.36734,0.96015 0,1.32564 0.36733,0.37167 0.96264,0.37167 1.32998,0 l 5.54602,-5.53797 c 0.1883,-0.19204 0.27876,-0.43982 0.27379,-0.68759 0.006,-0.2478 -0.0854,-0.49558 -0.27379,-0.68142 l -5.54602,-5.54416 c -0.36734,-0.36548 -0.96265,-0.36548 -1.32998,0 -0.36734,0.36548 -0.36734,0.96636 0,1.33184 l 3.97073,3.96453 h -10.75876 c -0.51354,0 -0.9292,0.41505 -0.9292,0.92921 0,0.51413 0.41566,0.92918 0.9292,0.92918 z"
       fill="#dfdfdf"
       id="path1-3-3"
       style="clip-rule:evenodd;fill-rule:evenodd;stroke-width:0.61946;stroke-linejoin:round;stroke-miterlimit:2" /></g><g
     id="go-previous"
     transform="translate(-326,-534.3622)"><path
       id="rect4405"
       d="m348 534.36218h22v22h-22z"
       fill="none" /><path
       d="m 365.50445,546.28907 h -10.75876 l 3.97073,3.97074 c 0.36734,0.36547 0.36734,0.96015 0,1.32564 -0.36733,0.37167 -0.96264,0.37167 -1.32998,0 l -5.54602,-5.53797 c -0.1883,-0.19204 -0.27876,-0.43982 -0.27379,-0.68759 -0.006,-0.2478 0.0854,-0.49558 0.27379,-0.68142 l 5.54602,-5.54416 c 0.36734,-0.36548 0.96265,-0.36548 1.32998,0 0.36734,0.36548 0.36734,0.96636 0,1.33184 l -3.97073,3.96453 h 10.75876 c 0.51354,0 0.9292,0.41505 0.9292,0.92921 0,0.51413 -0.41566,0.92918 -0.9292,0.92918 z"
       fill="#dfdfdf"
       id="path1-3"
       style="clip-rule:evenodd;fill-rule:evenodd;stroke-width:0.61946;stroke-linejoin:round;stroke-miterlimit:2" /></g><g
     id="go-up"
     transform="translate(-326,-534.3622)"><path
       id="rect4409"
       d="m392 534.36218h22v22h-22z"
       fill="none" /><path
       d="m 403.92687,551.86663 v -10.75876 l 3.97074,3.97073 c 0.36547,0.36734 0.96015,0.36734 1.32564,0 0.37167,-0.36733 0.37167,-0.96264 0,-1.32998 l -5.53797,-5.54602 c -0.19204,-0.1883 -0.43982,-0.27876 -0.68759,-0.27379 -0.2478,-0.006 -0.49558,0.0854 -0.68142,0.27379 l -5.54416,5.54602 c -0.36548,0.36734 -0.36548,0.96265 0,1.32998 0.36548,0.36734 0.96636,0.36734 1.33184,0 l 3.96453,-3.97073 v 10.75876 c 0,0.51354 0.41505,0.9292 0.92921,0.9292 0.51413,0 0.92918,-0.41566 0.92918,-0.9292 z"
       fill="#dfdfdf"
       id="path1-3-3-5"
       style="clip-rule:evenodd;fill-rule:evenodd;stroke-width:0.61946;stroke-linejoin:round;stroke-miterlimit:2" /></g></svg>
