<?xml version="1.0" encoding="UTF-8" standalone="no"?>
<svg
   width="70"
   height="296"
   version="1.1"
   viewBox="0 0 70 296.00001"
   id="svg23"
   sodipodi:docname="input.svg"
   xml:space="preserve"
   inkscape:version="1.3 (0e150ed6c4, 2023-07-21)"
   xmlns:inkscape="http://www.inkscape.org/namespaces/inkscape"
   xmlns:sodipodi="http://sodipodi.sourceforge.net/DTD/sodipodi-0.dtd"
   xmlns="http://www.w3.org/2000/svg"
   xmlns:svg="http://www.w3.org/2000/svg"><sodipodi:namedview
     id="namedview23"
     pagecolor="#ffffff"
     bordercolor="#000000"
     borderopacity="0.25"
     inkscape:showpageshadow="2"
     inkscape:pageopacity="0.0"
     inkscape:pagecheckerboard="0"
     inkscape:deskcolor="#d1d1d1"
     inkscape:zoom="2.4247074"
     inkscape:cx="5.3614717"
     inkscape:cy="116.92133"
     inkscape:window-width="2194"
     inkscape:window-height="1211"
     inkscape:window-x="-8"
     inkscape:window-y="-8"
     inkscape:window-maximized="1"
     inkscape:current-layer="svg23" /><defs
     id="defs1"><style
       id="current-color-scheme"
       type="text/css">.ColorScheme-Text {&#10;        color:#31363b;&#10;      }&#10;      .ColorScheme-Background {&#10;        color:#eff0f1;&#10;      }&#10;      .ColorScheme-Highlight {&#10;        color:#3daee9;&#10;      }&#10;      .ColorScheme-ViewText {&#10;        color:#31363b;&#10;      }&#10;      .ColorScheme-ViewBackground {&#10;        color:#fcfcfc;&#10;      }&#10;      .ColorScheme-ViewHover {&#10;        color:#93cee9;&#10;      }&#10;      .ColorScheme-ViewFocus{&#10;        color:#3daee9;&#10;      }&#10;      .ColorScheme-ButtonText {&#10;        color:#31363b;&#10;      }&#10;      .ColorScheme-ButtonBackground {&#10;        color:#eff0f1;&#10;      }&#10;      .ColorScheme-ButtonHover {&#10;        color:#93cee9;&#10;      }&#10;      .ColorScheme-ButtonFocus{&#10;        color:#3daee9;&#10;      }</style><style
       id="current-color-scheme-1"
       type="text/css">&#10;   .ColorScheme-Text { color:#dfdfdf; } .ColorScheme-Highlight { color:#4285f4; } .ColorScheme-NeutralText { color:#ff9800; } .ColorScheme-PositiveText { color:#4caf50; } .ColorScheme-NegativeText { color:#f44336; }&#10;  </style><style
       id="current-color-scheme-0"
       type="text/css">&#10;   .ColorScheme-Text { color:#dfdfdf; } .ColorScheme-Highlight { color:#4285f4; } .ColorScheme-NeutralText { color:#ff9800; } .ColorScheme-PositiveText { color:#4caf50; } .ColorScheme-NegativeText { color:#f44336; }&#10;  </style></defs><g
     id="22-22-input-mouse-battery"
     transform="translate(-310,-268.36219)"><rect
       x="326"
       y="534.36218"
       width="22"
       height="22"
       ry="0"
       fill="none"
       id="rect1" /><path
       d="m 336.79624,536.91302 c -3.00236,0 -5.20027,2.74638 -5.43624,6.11577 l -0.31445,4.4899 c -0.24962,3.5643 2.57467,6.46953 5.75069,6.46953 3.17602,0 6.00032,-2.90523 5.7507,-6.46953 l -0.31445,-4.4899 c -0.23597,-3.36939 -2.43389,-6.11577 -5.43625,-6.11577 z"
       id="path8-4"
       style="fill:#dfdfdf;fill-opacity:0.25;stroke-width:0.718837"
       sodipodi:nodetypes="sssssss" /><path
       d="m 336.79624,544.36219 -1.93767,4.84417 h 1.93767 v 2.9065 l 1.93768,-4.84417 h -1.93768 z"
       id="path25-5"
       style="fill:#dfdfdf;fill-opacity:1;stroke-width:0.968835" /><path
       d="m 336.79624,539.61149 a 0.71883667,0.71883667 0 0 0 -0.71883,0.71883 v 2.15651 a 0.71883667,0.71883667 0 0 0 0.71883,0.71884 0.71883667,0.71883667 0 0 0 0.71884,-0.71884 v -2.15651 a 0.71883667,0.71883667 0 0 0 -0.71884,-0.71883 z"
       id="path24-6"
       style="fill:#dfdfdf;fill-opacity:1;stroke-width:0.718837" /></g><g
     id="22-22-input-keyboard-battery"
     transform="translate(-332,-396.36218)"><rect
       x="348"
       y="534.36218"
       width="22"
       height="22"
       ry="0"
       fill="none"
       id="rect2" /><path
       class="ColorScheme-Text"
       d="m 361.4869,539.28505 -1.4,3.5 h 1.4 v 2.1 l 1.4,-3.5 h -1.4 z"
       fill="currentColor"
       id="path5-6"
       sodipodi:nodetypes="ccccccccc"
       style="color:#dfdfdf;stroke-width:0.7" /><path
       style="color:#dfdfdf;fill:currentColor;stroke-width:0.875"
       class="ColorScheme-Text"
       d="m 352.00088,548.50007 v 0.47862 c 0,1.0605 0.90825,1.96875 1.96787,1.96875 h 10.0625 c 1.0605,0 1.96875,-0.90825 1.96875,-1.96875 v -0.47862 c -0.4655,0.42437 -1.07187,0.69737 -1.75,0.69737 h -10.5 c -0.67725,0 -1.2845,-0.273 -1.74912,-0.69737 z m 0.87412,0 c -0.5215,-0.3045 -0.875,-0.87063 -0.875,-1.51288 0,-0.0648 0.003,-0.1295 0.0105,-0.19337 l 0.875,-7.87501 c 0.098,-0.882 0.85225,-1.55663 1.7395,-1.55663 h 8.75 c 0.88726,0 1.6415,0.67463 1.7395,1.55663 l 0.875,7.87501 c 0.007,0.0639 0.0105,0.12862 0.0105,0.19337 0,0.64225 -0.3535,1.20838 -0.875,1.51288 v -1.51288 c 0,-0.0324 -10e-4,-0.0648 -0.005,-0.0971 0,0 -0.875,-7.87501 -0.875,-7.87414 -0.049,-0.441 -0.42612,-0.77875 -0.86975,-0.77875 h -8.75 c -0.44363,0 -0.82075,0.33775 -0.86975,0.77788 l -0.875,7.87501 c -0.004,0.0324 -0.005,0.0648 -0.005,0.0971 z m 3.12786,-5.99989 h 1.49537 l 1.88125,5.25087 -1.23375,-7e-4 -0.39462,-0.875 h -1.988 l -0.39988,0.875 h -1.23375 z m 0.74462,1.17075 -0.73675,2.32925 h 1.4875 z"
       id="path1-8-1-2-6"
       sodipodi:nodetypes="csssscssccscsssscscsccssccccccccccccccccc" /></g><g
     id="22-22-input-keyboard-brightness"
     transform="translate(-354,-428.36218)"><rect
       x="370"
       y="534.36218"
       width="22"
       height="22"
       ry="0"
       fill="none"
       id="rect3" /><path
       class="ColorScheme-Text"
       d="m 383.43744,539.27993 c -1.10457,0 -2,0.89543 -2,2 0,1.10457 0.89543,2 2,2 1.10457,0 2,-0.89543 2,-2 0,-1.10457 -0.89543,-2 -2,-2 z m 0,1 v 2 c -0.55228,0 -1,-0.44771 -1,-1 0,-0.55228 0.44772,-1 1,-1 z"
       fill="currentColor"
       id="path4"
       sodipodi:nodetypes="sssssccsc" /><path
       style="color:#dfdfdf;fill:currentColor;stroke-width:0.875"
       class="ColorScheme-Text"
       d="m 374.00088,548.50006 v 0.47863 c 0,1.0605 0.90825,1.96875 1.96787,1.96875 h 10.0625 c 1.0605,0 1.96875,-0.90825 1.96875,-1.96875 v -0.47863 c -0.4655,0.42438 -1.07187,0.69738 -1.75,0.69738 h -10.5 c -0.67725,0 -1.2845,-0.273 -1.74912,-0.69738 z m 0.87412,0 c -0.5215,-0.3045 -0.875,-0.87062 -0.875,-1.51287 0,-0.0648 0.003,-0.1295 0.0105,-0.19338 l 0.875,-7.875 c 0.098,-0.882 0.85225,-1.55663 1.7395,-1.55663 h 8.75 c 0.88726,0 1.6415,0.67463 1.7395,1.55663 l 0.875,7.875 c 0.007,0.0639 0.0105,0.12863 0.0105,0.19338 0,0.64225 -0.3535,1.20837 -0.875,1.51287 v -1.51287 c 0,-0.0324 -10e-4,-0.0648 -0.005,-0.0971 0,0 -0.875,-7.875 -0.875,-7.87413 -0.049,-0.441 -0.42612,-0.77875 -0.86975,-0.77875 h -8.75 c -0.44362,0 -0.82075,0.33775 -0.86975,0.77788 l -0.875,7.875 c -0.004,0.0324 -0.005,0.0648 -0.005,0.0971 z m 2.61751,-5.79575 h 1.49537 l 1.88126,5.25087 -1.23375,-7e-4 -0.39463,-0.875 h -1.988 l -0.39987,0.875 h -1.23375 z m 0.74463,1.17075 -0.73675,2.32925 h 1.48749 z"
       id="path1-8-1-4-9"
       sodipodi:nodetypes="csssscssccscsssscscsccssccccccccccccccccc" /></g><g
     id="input-keyboard-battery"
     transform="translate(-332,-428.36237)"><rect
       x="370"
       y="556.36237"
       width="32"
       height="32"
       ry="0"
       fill="none"
       id="rect4" /><path
       class="ColorScheme-Text"
       d="m 389.55271,563.52887 -2,5 h 2 v 3 l 2,-5 h -2 z"
       fill="currentColor"
       id="path5"
       sodipodi:nodetypes="ccccccccc" /><path
       style="color:#dfdfdf;fill:currentColor;stroke-width:1.25"
       class="ColorScheme-Text"
       d="m 376.00125,576.69318 v 0.68375 c 0,1.515 1.2975,2.8125 2.81125,2.8125 h 14.375 c 1.515,0 2.8125,-1.2975 2.8125,-2.8125 v -0.68375 c -0.665,0.60625 -1.53125,0.99625 -2.5,0.99625 h -15 c -0.9675,0 -1.835,-0.39 -2.49875,-0.99625 z m 1.24875,0 c -0.745,-0.435 -1.25,-1.24375 -1.25,-2.16125 0,-0.0925 0.005,-0.185 0.015,-0.27625 l 1.25,-11.25001 c 0.14,-1.26 1.2175,-2.22375 2.485,-2.22375 h 12.5 c 1.26751,0 2.345,0.96375 2.485,2.22375 l 1.25,11.25001 c 0.01,0.0913 0.015,0.18375 0.015,0.27625 0,0.9175 -0.505,1.72625 -1.25,2.16125 v -2.16125 c 0,-0.0463 -0.002,-0.0925 -0.007,-0.13875 0,0 -1.25,-11.25001 -1.25,-11.24876 -0.07,-0.63 -0.60875,-1.1125 -1.2425,-1.1125 h -12.5 c -0.63375,0 -1.1725,0.4825 -1.2425,1.11125 l -1.25,11.25001 c -0.005,0.0463 -0.007,0.0925 -0.007,0.13875 z m 4.46837,-8.57127 h 2.13625 l 2.6875,7.50125 -1.7625,-10e-4 -0.56375,-1.25 h -2.84 l -0.57125,1.25 h -1.7625 z m 1.06375,1.6725 -1.0525,3.3275 h 2.125 z"
       id="path1-8-1-2"
       sodipodi:nodetypes="csssscssccscsssscscsccssccccccccccccccccc" /></g><g
     id="input-keyboard-brightness"
     transform="translate(-364,-460.36237)"><rect
       x="402"
       y="556.36237"
       width="32"
       height="32"
       ry="0"
       fill="none"
       id="rect5" /><path
       style="color:#dfdfdf;fill:currentColor;stroke-width:1.25"
       class="ColorScheme-Text"
       d="m 408.00125,576.37889 v 0.68375 c 0,1.515 1.2975,2.8125 2.81125,2.8125 h 14.375 c 1.515,0 2.8125,-1.2975 2.8125,-2.8125 v -0.68375 c -0.665,0.60625 -1.53125,0.99625 -2.5,0.99625 h -15 c -0.9675,0 -1.835,-0.39 -2.49875,-0.99625 z m 1.24875,0 c -0.745,-0.435 -1.25,-1.24375 -1.25,-2.16125 0,-0.0925 0.005,-0.185 0.015,-0.27625 l 1.25,-11.25001 c 0.14,-1.26 1.2175,-2.22375 2.485,-2.22375 h 12.5 c 1.26751,0 2.345,0.96375 2.485,2.22375 l 1.25,11.25001 c 0.01,0.0913 0.015,0.18375 0.015,0.27625 0,0.9175 -0.505,1.72625 -1.25,2.16125 v -2.16125 c 0,-0.0463 -0.002,-0.0925 -0.007,-0.13875 0,0 -1.25,-11.25001 -1.25,-11.24876 -0.07,-0.63 -0.60875,-1.1125 -1.2425,-1.1125 h -12.5 c -0.63375,0 -1.1725,0.4825 -1.2425,1.11125 l -1.25,11.25001 c -0.005,0.0463 -0.007,0.0925 -0.007,0.13875 z m 3.7393,-8.27965 h 2.13625 l 2.6875,7.50125 -1.7625,-0.001 -0.56375,-1.25 h -2.84 l -0.57125,1.25 h -1.7625 z m 1.06375,1.6725 -1.0525,3.3275 h 2.125 z"
       id="path1-8-1-4"
       sodipodi:nodetypes="csssscssccscsssscscsccssccccccccccccccccc" /><path
       class="ColorScheme-Text"
       d="m 420.53202,561.94 c -0.277,0 -0.5,0.223 -0.5,0.5 v 1 c 0,0.277 0.223,0.5 0.5,0.5 0.277,0 0.5,-0.223 0.5,-0.5 v -1 c 0,-0.277 -0.223,-0.5 -0.5,-0.5 z m -3.18164,1.31836 c -0.12781,0 -0.25558,0.0485 -0.35352,0.14648 -0.19587,0.19587 -0.19587,0.51116 0,0.70703 l 0.70703,0.70703 c 0.19587,0.19587 0.51117,0.19587 0.70704,0 0.19586,-0.19586 0.19586,-0.51116 0,-0.70703 l -0.70704,-0.70703 c -0.0979,-0.0979 -0.2257,-0.14648 -0.35351,-0.14648 z m 6.36328,0 c -0.12781,0 -0.25558,0.0485 -0.35352,0.14648 l -0.70703,0.70703 c -0.19586,0.19587 -0.19586,0.51117 0,0.70703 0.19587,0.19587 0.51117,0.19587 0.70703,0 l 0.70704,-0.70703 c 0.19586,-0.19587 0.19586,-0.51116 0,-0.70703 -0.0979,-0.0979 -0.22571,-0.14648 -0.35352,-0.14648 z m -3.18164,1.68164 c -1.10457,0 -2,0.89543 -2,2 0,1.10457 0.89543,2 2,2 1.10457,0 2,-0.89543 2,-2 0,-1.10457 -0.89543,-2 -2,-2 z m 0,1 v 2 c -0.55229,0 -1,-0.44772 -1,-1 0,-0.55229 0.44771,-1 1,-1 z m -4.5,0.5 c -0.277,0 -0.5,0.223 -0.5,0.5 0,0.277 0.223,0.5 0.5,0.5 h 1 c 0.277,0 0.5,-0.223 0.5,-0.5 0,-0.277 -0.223,-0.5 -0.5,-0.5 z m 8,0 c -0.277,0 -0.5,0.223 -0.5,0.5 0,0.277 0.223,0.5 0.5,0.5 h 1 c 0.277,0 0.5,-0.223 0.5,-0.5 0,-0.277 -0.223,-0.5 -0.5,-0.5 z m -5.97461,2.47461 c -0.12781,0 -0.25558,0.0485 -0.35352,0.14648 l -0.70703,0.70703 c -0.19587,0.19587 -0.19587,0.51117 0,0.70703 0.19587,0.19587 0.51117,0.19587 0.70703,0 l 0.70704,-0.70703 c 0.19586,-0.19587 0.19586,-0.51116 0,-0.70703 -0.0979,-0.0979 -0.22571,-0.14648 -0.35352,-0.14648 z m 4.94922,0 c -0.12781,0 -0.25558,0.0485 -0.35352,0.14648 -0.19586,0.19587 -0.19586,0.51116 0,0.70703 l 0.70703,0.70703 c 0.19587,0.19587 0.51117,0.19587 0.70704,0 0.19586,-0.19586 0.19586,-0.51116 0,-0.70703 l -0.70704,-0.70703 c -0.0979,-0.0979 -0.2257,-0.14648 -0.35351,-0.14648 z m -2.47461,1.02539 c -0.277,0 -0.5,0.223 -0.5,0.5 v 1 c 0,0.277 0.223,0.5 0.5,0.5 0.277,0 0.5,-0.223 0.5,-0.5 v -1 c 0,-0.277 -0.223,-0.5 -0.5,-0.5 z"
       fill="currentColor"
       id="path7" /></g><g
     id="input-mouse-battery"
     transform="translate(-332,-300.36238)"><path
       d="m 386,560.60844 c -4.17669,0 -7.23429,3.82059 -7.56256,8.50788 L 378,575.36238 c -0.34726,4.95842 3.58172,9 8,9 4.41828,0 8.34726,-4.04158 8,-9 l -0.43744,-6.24606 c -0.32827,-4.68729 -3.38587,-8.50788 -7.56256,-8.50788 z"
       id="path8"
       style="fill:#dfdfdf;fill-opacity:0.25"
       sodipodi:nodetypes="sssssss" /><path
       d="m 386,572.36238 -2,5 h 2 v 3 l 2,-5 h -2 z"
       id="path25"
       style="fill:#dfdfdf;fill-opacity:1" /><path
       d="m 386,564.36238 a 1,1 0 0 0 -1,1 v 3 a 1,1 0 0 0 1,1 1,1 0 0 0 1,-1 v -3 a 1,1 0 0 0 -1,-1 z"
       id="path24"
       style="fill:#dfdfdf;fill-opacity:1" /><rect
       x="370"
       y="556.36237"
       width="32"
       height="32"
       ry="0"
       fill="none"
       id="rect8" /></g><g
     id="16-16-input-mouse-battery"
     transform="translate(-303,-265.36218)"><path
       d="m 310.85475,538.20379 c -2.51734,0 -4.36019,2.30272 -4.55804,5.12778 l -0.26365,3.76458 c -0.20929,2.9885 2.15875,5.4244 4.82169,5.4244 2.66295,0 5.03099,-2.4359 4.8217,-5.4244 l -0.26365,-3.76458 c -0.19785,-2.82506 -2.04071,-5.12778 -4.55805,-5.12778 z"
       id="path8-4-1"
       style="fill:#dfdfdf;fill-opacity:0.25;stroke-width:0.602712"
       sodipodi:nodetypes="sssssss" /><path
       d="m 310.85475,544.44958 -1.62464,4.06161 h 1.62464 v 2.43696 l 1.62465,-4.06162 h -1.62465 z"
       id="path25-5-2"
       style="fill:#dfdfdf;fill-opacity:1;stroke-width:0.812324" /><path
       d="m 310.85475,540.46633 a 0.60271104,0.60271104 0 0 0 -0.60271,0.60271 v 1.80813 a 0.60271104,0.60271104 0 0 0 0.60271,0.60271 0.60271104,0.60271104 0 0 0 0.60272,-0.60271 v -1.80813 a 0.60271104,0.60271104 0 0 0 -0.60272,-0.60271 z"
       id="path24-6-5"
       style="fill:#dfdfdf;fill-opacity:1;stroke-width:0.602712" /><rect
       x="303"
       y="537.36218"
       width="16"
       height="16"
       fill="none"
       id="rect9" /></g><g
     id="22-22-input-keyboard"
     transform="translate(16,10.000004)"><rect
       width="22"
       height="22"
       fill="none"
       id="rect10" /><path
       style="color:#dfdfdf;fill:currentColor;stroke-width:1.2"
       class="ColorScheme-Text"
       d="m 4.4,3.7999995 c -1.3296,0 -2.4,1.070399 -2.4,2.4 v 9.6000015 c 0,1.329599 1.0704,2.4 2.4,2.4 h 13.2 c 1.329601,0 2.4,-1.070402 2.4,-2.4 V 6.1999995 c 0,-1.329601 -1.070399,-2.4 -2.4,-2.4 z m 0.3,2.4 h 1.8 c 0.166201,0 0.3,0.133807 0.3,0.3 v 1.8 c 0,0.166202 -0.133799,0.3 -0.3,0.3 H 4.7 c -0.1662,0 -0.3,-0.133806 -0.3,-0.3 v -1.8 c 0,-0.166203 0.1338,-0.3 0.3,-0.3 z m 3.6,0 h 1.8 c 0.166202,0 0.299999,0.133807 0.299999,0.3 v 1.8 c 0,0.166202 -0.133806,0.3 -0.299999,0.3 H 8.3 c -0.1662,0 -0.3,-0.133806 -0.3,-0.3 v -1.8 c 0,-0.166203 0.1338,-0.3 0.3,-0.3 z m 3.6,0 h 1.8 c 0.166795,0 0.3,0.133807 0.3,0.3 v 1.8 c 0,0.166202 -0.133195,0.3 -0.3,0.3 h -1.8 c -0.166796,0 -0.3,-0.133806 -0.3,-0.3 v -1.8 c 0,-0.166203 0.133195,-0.3 0.3,-0.3 z m 3.600001,0 H 17.3 c 0.166795,0 0.3,0.133807 0.3,0.3 v 1.8 c 0,0.166202 -0.133195,0.3 -0.3,0.3 h -1.799999 c -0.166797,0 -0.300001,-0.133806 -0.300001,-0.3 v -1.8 c 0,-0.166203 0.133195,-0.3 0.300001,-0.3 z M 4.7,9.7999995 h 1.8 c 0.166201,0 0.3,0.133196 0.3,0.3000005 v 1.800001 c 0,0.166795 -0.133799,0.3 -0.3,0.3 H 4.7 c -0.1662,0 -0.3,-0.133197 -0.3,-0.3 V 10.1 C 4.4,9.9332045 4.5338,9.7999995 4.7,9.7999995 Z m 3.6,0 h 1.8 c 0.166202,0 0.299999,0.133196 0.299999,0.3000005 v 1.800001 c 0,0.166795 -0.133806,0.3 -0.299999,0.3 H 8.3 c -0.1662,0 -0.299999,-0.133197 -0.299999,-0.3 V 10.1 C 8.000001,9.9332045 8.1338,9.7999995 8.3,9.7999995 Z m 3.6,0 h 1.8 c 0.166795,0 0.3,0.133196 0.3,0.3000005 v 1.800001 c 0,0.166795 -0.133195,0.3 -0.3,0.3 h -1.8 c -0.166796,0 -0.3,-0.133197 -0.3,-0.3 V 10.1 c 0,-0.1667955 0.133195,-0.3000005 0.3,-0.3000005 z m 3.600001,0 H 17.3 c 0.166795,0 0.3,0.133196 0.3,0.3000005 v 1.800001 c 0,0.166795 -0.133195,0.3 -0.3,0.3 h -1.799999 c -0.166797,0 -0.300001,-0.133197 -0.300001,-0.3 V 10.1 c 0,-0.1667955 0.133195,-0.3000005 0.300001,-0.3000005 z M 7.100001,13.4 H 14.9 c 0.166796,0 0.3,0.133196 0.3,0.3 v 1.800001 c 0,0.166795 -0.133196,0.3 -0.3,0.3 H 7.100001 C 6.9338,15.800001 6.8,15.666805 6.8,15.500001 V 13.7 c 0,-0.166795 0.1338,-0.3 0.300001,-0.3 z"
       id="path1-1" /></g><g
     id="input-keyboard"
     transform="matrix(1.4545455,0,0,1.4545455,38,-5.6171875e-6)"><rect
       width="22"
       height="22"
       fill="none"
       id="rect11" /><path
       style="fill:currentColor;stroke-width:0.994668"
       class="ColorScheme-Text"
       d="m 5.5293284,5.0319943 c -1.1020918,0 -1.9893353,0.8872429 -1.9893353,1.9893347 v 7.957342 c 0,1.102091 0.8872435,1.989335 1.9893353,1.989335 H 16.470672 c 1.102092,0 1.989335,-0.887244 1.989335,-1.989335 V 7.021329 c 0,-1.1020918 -0.887243,-1.9893347 -1.989335,-1.9893347 z M 5.7779953,7.021329 h 1.4920015 c 0.1377618,0 0.2486669,0.1109109 0.2486669,0.2486669 v 1.4920018 c 0,0.137763 -0.1109051,0.248667 -0.2486669,0.248667 H 5.7779953 c -0.1377618,0 -0.2486669,-0.110911 -0.2486669,-0.248667 V 7.2699959 c 0,-0.1377633 0.1109051,-0.2486669 0.2486669,-0.2486669 z m 2.9840028,0 h 1.4920009 c 0.137763,0 0.248667,0.1109109 0.248667,0.2486669 v 1.4920018 c 0,0.137763 -0.110911,0.248667 -0.248667,0.248667 H 8.7619981 c -0.1377618,0 -0.2486669,-0.110911 -0.2486669,-0.248667 V 7.2699959 c 0,-0.1377633 0.1109051,-0.2486669 0.2486669,-0.2486669 z m 2.9840029,0 h 1.492001 c 0.138255,0 0.248667,0.1109109 0.248667,0.2486669 v 1.4920018 c 0,0.137763 -0.110404,0.248667 -0.248667,0.248667 h -1.492001 c -0.138256,0 -0.248667,-0.110911 -0.248667,-0.248667 V 7.2699959 c 0,-0.1377633 0.110404,-0.2486669 0.248667,-0.2486669 z m 2.984003,0 h 1.492001 c 0.138255,0 0.248667,0.1109109 0.248667,0.2486669 v 1.4920018 c 0,0.137763 -0.110404,0.248667 -0.248667,0.248667 h -1.492001 c -0.138256,0 -0.248667,-0.110911 -0.248667,-0.248667 V 7.2699959 c 0,-0.1377633 0.110404,-0.2486669 0.248667,-0.2486669 z m -8.9520087,2.984003 h 1.4920015 c 0.1377618,0 0.2486669,0.110405 0.2486669,0.248667 v 1.492002 c 0,0.138255 -0.1109051,0.248667 -0.2486669,0.248667 H 5.7779953 c -0.1377618,0 -0.2486669,-0.110405 -0.2486669,-0.248667 v -1.492002 c 0,-0.138255 0.1109051,-0.248667 0.2486669,-0.248667 z m 2.9840028,0 h 1.4920009 c 0.137763,0 0.248667,0.110405 0.248667,0.248667 v 1.492002 c 0,0.138255 -0.110911,0.248667 -0.248667,0.248667 H 8.7619981 c -0.1377618,0 -0.2486669,-0.110405 -0.2486669,-0.248667 v -1.492002 c 0,-0.138255 0.1109051,-0.248667 0.2486669,-0.248667 z m 2.9840029,0 h 1.492001 c 0.138255,0 0.248667,0.110405 0.248667,0.248667 v 1.492002 c 0,0.138255 -0.110404,0.248667 -0.248667,0.248667 h -1.492001 c -0.138256,0 -0.248667,-0.110405 -0.248667,-0.248667 v -1.492002 c 0,-0.138255 0.110404,-0.248667 0.248667,-0.248667 z m 2.984003,0 h 1.492001 c 0.138255,0 0.248667,0.110405 0.248667,0.248667 v 1.492002 c 0,0.138255 -0.110404,0.248667 -0.248667,0.248667 h -1.492001 c -0.138256,0 -0.248667,-0.110405 -0.248667,-0.248667 v -1.492002 c 0,-0.138255 0.110404,-0.248667 0.248667,-0.248667 z M 7.7673306,12.989335 H 14.23267 c 0.138255,0 0.248667,0.110405 0.248667,0.248667 v 1.492002 c 0,0.138255 -0.110405,0.248667 -0.248667,0.248667 H 7.7673306 c -0.1377618,0 -0.2486669,-0.110405 -0.2486669,-0.248667 v -1.492002 c 0,-0.138255 0.1109051,-0.248667 0.2486669,-0.248667 z"
       id="path1" /></g><g
     id="22-22-input-keyboard-virtual-on"
     transform="translate(16,42.000007)"><path
       style="color:#dfdfdf;fill:currentColor;stroke-width:1.20069"
       class="ColorScheme-Text"
       d="M 4.3962176,4 C 3.0658552,4 1.9948418,5.071014 1.9948418,6.401375 v 9.605503 c 0,1.330363 1.0710134,2.401377 2.4013758,2.401377 H 17.603783 c 1.330363,0 2.401375,-1.071014 2.401375,-2.401377 V 6.401375 C 20.005158,5.071014 18.934146,4 17.603783,4 Z m 0.3001715,2.401375 h 1.8010318 c 0.1662965,0 0.3001724,0.133883 0.3001724,0.300173 v 1.801031 c 0,0.166297 -0.1338759,0.300172 -0.3001724,0.300172 H 4.6963891 c -0.1662956,0 -0.3001716,-0.133883 -0.3001716,-0.300172 V 6.701548 c 0,-0.166298 0.1338759,-0.300173 0.3001716,-0.300173 z m 3.6020633,0 h 1.8010306 c 0.166298,0 0.300172,0.133883 0.300172,0.300173 v 1.801031 c 0,0.166297 -0.133882,0.300172 -0.300172,0.300172 H 8.2984524 c -0.1662957,0 -0.3001712,-0.133883 -0.3001712,-0.300172 V 6.701548 c 0,-0.166298 0.1338755,-0.300173 0.3001712,-0.300173 z m 3.6020646,0 h 1.801031 c 0.16689,0 0.300171,0.133883 0.300171,0.300173 v 1.801031 c 0,0.166297 -0.133271,0.300172 -0.300171,0.300172 h -1.801031 c -0.166893,0 -0.300173,-0.133883 -0.300173,-0.300172 V 6.701548 c 0,-0.166298 0.133271,-0.300173 0.300173,-0.300173 z m 3.602063,0 h 1.80103 c 0.166892,0 0.300173,0.133883 0.300173,0.300173 v 1.801031 c 0,0.166297 -0.133272,0.300172 -0.300173,0.300172 h -1.80103 c -0.166892,0 -0.300172,-0.133883 -0.300172,-0.300172 V 6.701548 c 0,-0.166298 0.133271,-0.300173 0.300172,-0.300173 z M 4.6963891,10.003439 h 1.8010318 c 0.1662965,0 0.3001724,0.133272 0.3001724,0.300172 v 1.801032 c 0,0.166891 -0.1338759,0.300172 -0.3001724,0.300172 H 4.6963891 c -0.1662956,0 -0.3001716,-0.133273 -0.3001716,-0.300172 v -1.801032 c 0,-0.166891 0.1338759,-0.300172 0.3001716,-0.300172 z m 3.6020633,0 h 1.8010306 c 0.166298,0 0.300172,0.133272 0.300172,0.300172 v 1.801032 c 0,0.166891 -0.133882,0.300172 -0.300172,0.300172 H 8.2984524 c -0.1662957,0 -0.3001712,-0.133273 -0.3001712,-0.300172 v -1.801032 c 0,-0.166891 0.1338755,-0.300172 0.3001712,-0.300172 z m 3.6020646,0 h 1.801031 c 0.16689,0 0.300171,0.133272 0.300171,0.300172 v 1.801032 c 0,0.166891 -0.133271,0.300172 -0.300171,0.300172 h -1.801031 c -0.166893,0 -0.300173,-0.133273 -0.300173,-0.300172 v -1.801032 c 0,-0.166891 0.133271,-0.300172 0.300173,-0.300172 z m 3.602063,0 h 1.80103 c 0.166892,0 0.300173,0.133272 0.300173,0.300172 v 1.801032 c 0,0.166891 -0.133272,0.300172 -0.300173,0.300172 h -1.80103 c -0.166892,0 -0.300172,-0.133273 -0.300172,-0.300172 v -1.801032 c 0,-0.166891 0.133271,-0.300172 0.300172,-0.300172 z m -8.4048143,3.602064 h 7.8044693 c 0.166892,0 0.300173,0.133273 0.300173,0.300172 v 1.801033 c 0,0.16689 -0.133273,0.30017 -0.300173,0.30017 H 7.0977657 c -0.1662964,0 -0.3001724,-0.133272 -0.3001724,-0.30017 v -1.801033 c 0,-0.166892 0.133876,-0.300172 0.3001724,-0.300172 z"
       id="path1-7-6" /><path
       d="M 4.5,2 A 2.4999997,2.4999855 0 0 0 2,4.5 2.4999997,2.4999855 0 0 0 4.5,7 2.4999997,2.4999855 0 0 0 7,4.5 2.4999997,2.4999855 0 0 0 4.5,2 Z"
       fill="#11d116"
       id="path13"
       style="display:inline" /><rect
       width="22"
       height="22"
       fill="none"
       id="rect13"
       x="0"
       y="0.20412751" /></g><g
     id="input-keyboard-virtual-on"
     transform="matrix(1.4545455,0,0,1.4545455,38,32.000002)"><rect
       width="22"
       height="22"
       fill="none"
       id="rect14" /><path
       style="color:#dfdfdf;fill:currentColor;stroke-width:0.987472"
       class="ColorScheme-Text"
       d="m 5.5689079,5.0751721 c -1.0941182,0 -1.9749427,0.880824 -1.9749427,1.974942 v 7.8997709 c 0,1.094118 0.8808245,1.974943 1.9749427,1.974943 H 16.431092 c 1.094119,0 1.974943,-0.880825 1.974943,-1.974943 V 7.0501141 c 0,-1.094118 -0.880824,-1.974942 -1.974943,-1.974942 z m 0.2468678,1.974942 h 1.4812071 c 0.1367651,0 0.2468679,0.110108 0.2468679,0.246868 v 1.4812067 c 0,0.136766 -0.1101028,0.246868 -0.2468679,0.246868 H 5.8157757 c -0.136765,0 -0.2468678,-0.110108 -0.2468678,-0.246868 V 7.2969821 c 0,-0.136767 0.1101028,-0.246868 0.2468678,-0.246868 z m 2.9624138,0 h 1.4812065 c 0.136767,0 0.246868,0.110108 0.246868,0.246868 v 1.4812067 c 0,0.136766 -0.110108,0.246868 -0.246868,0.246868 H 8.7781895 c -0.1367652,0 -0.2468676,-0.110108 -0.2468676,-0.246868 V 7.2969821 c 0,-0.136767 0.1101024,-0.246868 0.2468676,-0.246868 z m 2.9624145,0 h 1.481207 c 0.137254,0 0.246867,0.110108 0.246867,0.246868 v 1.4812067 c 0,0.136766 -0.109605,0.246868 -0.246867,0.246868 h -1.481207 c -0.137256,0 -0.246868,-0.110108 -0.246868,-0.246868 V 7.2969821 c 0,-0.136767 0.109605,-0.246868 0.246868,-0.246868 z m 2.962414,0 h 1.481206 c 0.137255,0 0.246868,0.110108 0.246868,0.246868 v 1.4812067 c 0,0.136766 -0.109605,0.246868 -0.246868,0.246868 h -1.481206 c -0.137256,0 -0.246868,-0.110108 -0.246868,-0.246868 V 7.2969821 c 0,-0.136767 0.109605,-0.246868 0.246868,-0.246868 z M 5.8157757,10.012528 h 1.4812071 c 0.1367651,0 0.2468679,0.109606 0.2468679,0.246868 v 1.481207 c 0,0.137255 -0.1101028,0.246868 -0.2468679,0.246868 H 5.8157757 c -0.136765,0 -0.2468678,-0.109606 -0.2468678,-0.246868 v -1.481207 c 0,-0.137255 0.1101028,-0.246868 0.2468678,-0.246868 z m 2.9624138,0 h 1.4812065 c 0.136767,0 0.246868,0.109606 0.246868,0.246868 v 1.481207 c 0,0.137255 -0.110108,0.246868 -0.246868,0.246868 H 8.7781895 c -0.1367652,0 -0.2468676,-0.109606 -0.2468676,-0.246868 v -1.481207 c 0,-0.137255 0.1101024,-0.246868 0.2468676,-0.246868 z m 2.9624145,0 h 1.481207 c 0.137254,0 0.246867,0.109606 0.246867,0.246868 v 1.481207 c 0,0.137255 -0.109605,0.246868 -0.246867,0.246868 h -1.481207 c -0.137256,0 -0.246868,-0.109606 -0.246868,-0.246868 v -1.481207 c 0,-0.137255 0.109605,-0.246868 0.246868,-0.246868 z m 2.962414,0 h 1.481206 c 0.137255,0 0.246868,0.109606 0.246868,0.246868 v 1.481207 c 0,0.137255 -0.109605,0.246868 -0.246868,0.246868 h -1.481206 c -0.137256,0 -0.246868,-0.109606 -0.246868,-0.246868 v -1.481207 c 0,-0.137255 0.109605,-0.246868 0.246868,-0.246868 z m -6.9122995,2.962414 h 6.4185635 c 0.137255,0 0.246868,0.109607 0.246868,0.246868 v 1.481208 c 0,0.137254 -0.109606,0.246867 -0.246868,0.246867 H 7.7907185 c -0.1367651,0 -0.2468678,-0.109606 -0.2468678,-0.246867 V 13.22181 c 0,-0.137255 0.1101027,-0.246868 0.2468678,-0.246868 z"
       id="path1-7" /><path
       d="m3.7812499 2.7500013a1.7187497 1.71874 0 0 0-1.71875 1.7187499 1.7187497 1.71874 0 0 0 1.71875 1.71875 1.7187497 1.71874 0 0 0 1.71875-1.71875 1.7187497 1.71874 0 0 0-1.71875-1.7187499z"
       fill="#11d116"
       id="path15" /></g><g
     id="22-22-input-keyboard-virtual-off"
     transform="translate(16,74.000007)"
     style="display:inline"><path
       style="color:#dfdfdf;fill:#dfdfdf;fill-opacity:0.25;stroke-width:1.19494"
       class="ColorScheme-Text"
       d="m 4.4278311,3.8303612 c -1.323993,0 -2.3898801,1.0658864 -2.3898801,2.3898801 V 15.77976 c 0,1.323992 1.0658871,2.389879 2.3898801,2.389879 H 17.57217 c 1.323993,0 2.389879,-1.065887 2.389879,-2.389879 V 6.2202413 c 0,-1.3239937 -1.065886,-2.3898801 -2.389879,-2.3898801 z m 0.2987347,2.3898801 h 1.7924099 c 0.1654997,0 0.2987356,0.1332409 0.2987356,0.2987349 v 1.7924096 c 0,0.1655007 -0.1332359,0.2987347 -0.2987356,0.2987347 H 4.7265658 C 4.5610669,8.6101204 4.4278311,8.4768799 4.4278311,8.3113858 V 6.5189762 c 0,-0.1655023 0.1332358,-0.2987349 0.2987347,-0.2987349 z m 3.5848198,0 h 1.7924094 c 0.165501,0 0.298735,0.1332409 0.298735,0.2987349 v 1.7924096 c 0,0.1655007 -0.133243,0.2987347 -0.298735,0.2987347 H 8.3113856 c -0.1654997,0 -0.2987347,-0.1332406 -0.2987347,-0.2987347 V 6.5189762 c 0,-0.1655023 0.1332349,-0.2987349 0.2987347,-0.2987349 z m 3.5848194,0 h 1.792411 c 0.16609,0 0.298734,0.1332409 0.298734,0.2987349 v 1.7924096 c 0,0.1655007 -0.132634,0.2987347 -0.298734,0.2987347 h -1.792411 c -0.166093,0 -0.298735,-0.1332406 -0.298735,-0.2987347 V 6.5189762 c 0,-0.1655023 0.132633,-0.2987349 0.298735,-0.2987349 z m 3.58482,0 h 1.792408 c 0.166093,0 0.298737,0.1332409 0.298737,0.2987349 v 1.7924096 c 0,0.1655007 -0.132634,0.2987347 -0.298737,0.2987347 h -1.792408 c -0.166094,0 -0.298735,-0.1332406 -0.298735,-0.2987347 V 6.5189762 c 0,-0.1655023 0.132633,-0.2987349 0.298735,-0.2987349 z M 4.7265658,9.8050607 h 1.7924099 c 0.1654997,0 0.2987356,0.132634 0.2987356,0.2987353 v 1.792408 c 0,0.166093 -0.1332359,0.298736 -0.2987356,0.298736 H 4.7265658 c -0.1654989,0 -0.2987347,-0.132634 -0.2987347,-0.298736 v -1.792408 c 0,-0.1660932 0.1332358,-0.2987353 0.2987347,-0.2987353 z m 3.5848198,0 h 1.7924094 c 0.165501,0 0.298735,0.132634 0.298735,0.2987353 v 1.792408 c 0,0.166093 -0.133243,0.298736 -0.298735,0.298736 H 8.3113856 c -0.1654997,0 -0.2987347,-0.132634 -0.2987347,-0.298736 v -1.792408 c 0,-0.1660932 0.1332349,-0.2987353 0.2987347,-0.2987353 z m 3.5848194,0 h 1.792411 c 0.16609,0 0.298734,0.132634 0.298734,0.2987353 v 1.792408 c 0,0.166093 -0.132634,0.298736 -0.298734,0.298736 h -1.792411 c -0.166093,0 -0.298735,-0.132634 -0.298735,-0.298736 v -1.792408 c 0,-0.1660932 0.132633,-0.2987353 0.298735,-0.2987353 z m 3.584819,0 h 1.792408 c 0.166094,0 0.298737,0.132634 0.298737,0.2987353 v 1.792408 c 0,0.166093 -0.132634,0.298736 -0.298737,0.298736 h -1.792407 c -0.166094,0 -0.298735,-0.132634 -0.298735,-0.298736 v -1.792408 c 0,-0.1660932 0.132633,-0.2987353 0.298734,-0.2987353 z M 7.1164459,13.389879 h 7.7671091 c 0.166092,0 0.298734,0.132636 0.298734,0.298736 v 1.792411 c 0,0.166091 -0.132635,0.298734 -0.298734,0.298734 H 7.1164459 c -0.1654997,0 -0.2987346,-0.132635 -0.2987346,-0.298734 v -1.792411 c 0,-0.166093 0.1332348,-0.298736 0.2987346,-0.298736 z"
       id="path1-7-5-6" /><rect
       width="22"
       height="22"
       fill="none"
       id="rect16"
       x="0"
       y="0" /></g><g
     id="input-keyboard-virtual-off"
     transform="matrix(1.4545455,0,0,1.4545455,38,64.000007)"><rect
       width="22"
       height="22"
       fill="none"
       id="rect17" /><path
       style="color:#dfdfdf;fill:#dfdfdf;stroke-width:0.994666;fill-opacity:0.25"
       class="ColorScheme-Text"
       d="m 5.5293286,5.0319948 c -1.1020917,0 -1.9893353,0.887243 -1.9893353,1.989335 V 14.97867 c 0,1.102091 0.8872436,1.989335 1.9893353,1.989335 H 16.470672 c 1.102092,0 1.989335,-0.887244 1.989335,-1.989335 V 7.0213298 c 0,-1.102092 -0.887243,-1.989335 -1.989335,-1.989335 z m 0.2486669,1.989335 H 7.269997 c 0.1377619,0 0.248667,0.1109099 0.248667,0.248667 v 1.492001 c 0,0.137763 -0.1109051,0.248667 -0.248667,0.248667 H 5.7779955 c -0.1377617,0 -0.2486669,-0.11091 -0.2486669,-0.248667 v -1.492001 c 0,-0.137764 0.1109052,-0.248667 0.2486669,-0.248667 z m 2.9840025,0 h 1.492001 c 0.137763,0 0.248667,0.1109099 0.248667,0.248667 v 1.492001 c 0,0.137763 -0.110911,0.248667 -0.248667,0.248667 H 8.761998 c -0.1377617,0 -0.2486665,-0.11091 -0.2486665,-0.248667 v -1.492001 c 0,-0.137764 0.1109048,-0.248667 0.2486665,-0.248667 z m 2.984003,0 h 1.492002 c 0.138254,0 0.248666,0.1109099 0.248666,0.248667 v 1.492001 c 0,0.137763 -0.110404,0.248667 -0.248666,0.248667 h -1.492002 c -0.138256,0 -0.248667,-0.11091 -0.248667,-0.248667 v -1.492001 c 0,-0.137764 0.110404,-0.248667 0.248667,-0.248667 z m 2.984003,0 h 1.492 c 0.138256,0 0.248668,0.1109099 0.248668,0.248667 v 1.492001 c 0,0.137763 -0.110404,0.248667 -0.248668,0.248667 h -1.492 c -0.138256,0 -0.248667,-0.11091 -0.248667,-0.248667 v -1.492001 c 0,-0.137764 0.110404,-0.248667 0.248667,-0.248667 z M 5.7779954,10.005333 h 1.4920015 c 0.1377619,0 0.248667,0.110404 0.248667,0.248667 v 1.492 c 0,0.138255 -0.1109051,0.248667 -0.248667,0.248667 H 5.7779955 c -0.1377617,0 -0.2486669,-0.110405 -0.2486669,-0.248667 v -1.492 c 0,-0.138256 0.1109052,-0.248667 0.2486668,-0.248667 z m 2.9840026,0 h 1.492001 c 0.137763,0 0.248667,0.110404 0.248667,0.248667 v 1.492 c 0,0.138255 -0.110911,0.248667 -0.248667,0.248667 H 8.761998 c -0.1377617,0 -0.2486665,-0.110405 -0.2486665,-0.248667 v -1.492 c 0,-0.138256 0.1109048,-0.248667 0.2486665,-0.248667 z m 2.984003,0 h 1.492002 c 0.138254,0 0.248666,0.110404 0.248666,0.248667 v 1.492 c 0,0.138255 -0.110404,0.248667 -0.248666,0.248667 h -1.492002 c -0.138256,0 -0.248667,-0.110405 -0.248667,-0.248667 v -1.492 c 0,-0.138256 0.110404,-0.248667 0.248667,-0.248667 z m 2.984003,0 h 1.492 c 0.138256,0 0.248668,0.110404 0.248668,0.248667 v 1.492 c 0,0.138255 -0.110404,0.248667 -0.248668,0.248667 h -1.492 c -0.138256,0 -0.248667,-0.110405 -0.248667,-0.248667 v -1.492 c 0,-0.138256 0.110404,-0.248667 0.248667,-0.248667 z M 7.7673309,12.989334 H 14.23267 c 0.138255,0 0.248667,0.110406 0.248667,0.248668 v 1.492002 c 0,0.138254 -0.110405,0.248666 -0.248667,0.248666 H 7.7673309 c -0.1377618,0 -0.2486669,-0.110405 -0.2486669,-0.248666 v -1.492002 c 0,-0.138256 0.1109051,-0.248668 0.2486669,-0.248668 z"
       id="path1-7-5" /></g><g
     id="22-22-input-caps-on"
     transform="translate(59.241379,23.258607)"><rect
       x="-43.241379"
       y="146.74138"
       width="22"
       height="22"
       opacity=".00100002"
       id="rect18" /><path
       style="color:#dfdfdf;fill:currentColor;stroke-width:0.875"
       class="ColorScheme-Text"
       d="m -39.240504,160.87926 v 0.47863 c 0,1.0605 0.90825,1.96875 1.967876,1.96875 h 10.062503 c 1.060496,0 1.968746,-0.90825 1.968746,-1.96875 v -0.47863 c -0.4655,0.42438 -1.071875,0.69738 -1.749996,0.69738 h -10.500003 c -0.677251,0 -1.284501,-0.273 -1.749126,-0.69738 z m 0.874125,0 c -0.5215,-0.3045 -0.875,-0.87062 -0.875,-1.51287 0,-0.0648 0.0035,-0.1295 0.0105,-0.19338 l 0.875,-7.87501 c 0.098,-0.882 0.852251,-1.55662 1.739501,-1.55662 h 8.750003 c 0.88725,0 1.641496,0.67462 1.739496,1.55662 l 0.875,7.87501 c 0.007,0.0639 0.0105,0.12863 0.0105,0.19338 0,0.64225 -0.3535,1.20837 -0.875,1.51287 v -1.51287 c 0,-0.0324 -0.0018,-0.0648 -0.0053,-0.0971 0,0 -0.874996,-7.875 -0.874996,-7.87413 -0.049,-0.441 -0.426125,-0.77875 -0.86975,-0.77875 h -8.750003 c -0.443625,0 -0.82075,0.33775 -0.86975,0.77788 l -0.875001,7.875 c -0.0035,0.0324 -0.0053,0.0648 -0.0053,0.0971 z m 5.373377,-8.19437 h 1.495375 l 1.881251,5.25087 -1.23375,-7e-4 -0.394625,-0.875 h -1.988001 l -0.399875,0.875 h -1.233751 z m 0.744625,1.17075 -0.73675,2.32925 h 1.4875 z"
       id="path1-8-1-1" /></g><g
     id="22-22-input-num-on"
     transform="translate(-8,84.999986)"><rect
       x="24"
       y="117"
       width="22"
       height="22"
       opacity=".00100002"
       id="rect19" /><path
       class="ColorScheme-Text"
       d="m 35,122.30531 v 1.4 h -1.4 v 0.7 H 35 v 4.20001 h -1.4 v 0.7 h 3.500001 v -0.7 H 35.7 v -6.30001 z"
       fill="currentColor"
       id="path22-3"
       sodipodi:nodetypes="ccccccccccccc"
       style="color:#dfdfdf;stroke-width:0.700001" /><path
       style="color:#dfdfdf;fill:currentColor;stroke-width:0.874999"
       class="ColorScheme-Text"
       d="m 28.000875,131.13789 v 0.47862 c 0,1.06049 0.908251,1.96875 1.967876,1.96875 H 40.031254 C 41.091751,133.58526 42,132.677 42,131.61651 v -0.47862 c -0.4655,0.42437 -1.071875,0.69736 -1.749996,0.69736 H 29.75 c -0.677249,0 -1.2845,-0.27299 -1.749125,-0.69736 z m 0.874125,0 C 28.3535,130.83338 28,130.26726 28,129.625 c 0,-0.0647 0.0035,-0.1295 0.0105,-0.19337 l 0.875001,-7.87501 c 0.098,-0.882 0.85225,-1.55662 1.7395,-1.55662 h 8.750001 c 0.88725,0 1.641497,0.67462 1.739497,1.55662 l 0.875,7.87501 c 0.007,0.0639 0.0105,0.12863 0.0105,0.19337 0,0.64226 -0.3535,1.20838 -0.875,1.51289 V 129.625 c 0,-0.0324 -0.0018,-0.0647 -0.0052,-0.0971 0,0 -0.874996,-7.87501 -0.874996,-7.87413 -0.049,-0.441 -0.426125,-0.77875 -0.86975,-0.77875 h -8.750002 c -0.443625,0 -0.820751,0.33775 -0.869751,0.77787 l -0.875001,7.87501 c -0.0035,0.0324 -0.0052,0.0648 -0.0052,0.0971 z"
       id="path1-8-0"
       sodipodi:nodetypes="csssscssccscsssscscsccssccsc" /></g><g
     id="22-22-input-combo-on"
     transform="translate(-8,116.99999)"><rect
       x="24"
       y="117"
       width="22"
       height="22"
       opacity=".00100002"
       id="rect20" /><path
       class="ColorScheme-Text"
       d="m 29.633916,238.95838 v 1.26 h -1.4 v 0.63 h 1.4 v 3.78 h -1.4 v 0.63 h 3.5 v -0.63 h -1.4 v -5.67 z"
       fill="currentColor"
       id="path21-2"
       sodipodi:nodetypes="ccccccccccccc"
       style="color:#dfdfdf;stroke-width:0.7"
       transform="translate(8,-116.99999)" /><path
       style="color:#dfdfdf;fill:currentColor;stroke-width:0.875"
       class="ColorScheme-Text"
       d="m 20.000875,248.13787 v 0.47863 c 0,1.0605 0.90825,1.96875 1.967875,1.96875 h 10.0625 C 33.09175,250.58525 34,249.677 34,248.6165 v -0.47863 c -0.4655,0.42438 -1.071875,0.69738 -1.75,0.69738 h -10.5 c -0.67725,0 -1.2845,-0.273 -1.749125,-0.69738 z m 0.874125,0 C 20.3535,247.83337 20,247.26725 20,246.625 c 0,-0.0648 0.0035,-0.1295 0.0105,-0.19338 l 0.875,-7.87501 c 0.098,-0.882 0.85225,-1.55662 1.7395,-1.55662 h 8.75 c 0.887257,0 1.6415,0.67462 1.7395,1.55662 l 0.875,7.87501 c 0.007,0.0639 0.0105,0.12863 0.0105,0.19338 0,0.64225 -0.3535,1.20837 -0.875,1.51287 V 246.625 c 0,-0.0324 -0.0014,-0.0648 -0.0049,-0.0971 0,0 -0.875,-7.87501 -0.875,-7.87413 -0.049,-0.441 -0.426125,-0.77875 -0.86975,-0.77875 h -8.75 c -0.443625,0 -0.82075,0.33775 -0.86975,0.77787 l -0.875,7.87501 c -0.0035,0.0324 -0.0049,0.0648 -0.0049,0.0971 z m 3.127859,-5.99989 h 1.495375 l 1.88125,5.25088 -1.23375,-7e-4 -0.394625,-0.875 h -1.988 l -0.399875,0.875 h -1.23375 z m 0.744625,1.17075 -0.73675,2.32925 h 1.4875 z"
       id="path1-8-1-2-4-0"
       sodipodi:nodetypes="csssscssccscsssscscsccssccccccccccccccccc"
       transform="translate(8,-116.99999)" /></g><g
     id="input-combo-on"
     transform="translate(19,111.99999)"><rect
       x="19"
       y="112"
       width="32"
       height="32"
       opacity=".00100002"
       id="rect21" /><path
       class="ColorScheme-Text"
       d="m 38.762737,119 v 1.8 h -2 v 0.9 h 2 v 5.4 h -2 v 0.9 h 5 v -0.9 h -2 V 119 Z"
       fill="currentColor"
       id="path21"
       sodipodi:nodetypes="ccccccccccccc" /><path
       style="color:#dfdfdf;fill:currentColor;stroke-width:1.25"
       class="ColorScheme-Text"
       d="m 25.00125,132.11356 v 0.68375 c 0,1.515 1.2975,2.8125 2.81125,2.8125 h 14.375 c 1.515,0 2.8125,-1.2975 2.8125,-2.8125 v -0.68375 c -0.665,0.60625 -1.53125,0.99625 -2.5,0.99625 h -15 c -0.9675,0 -1.835,-0.39 -2.49875,-0.99625 z m 1.24875,0 c -0.745,-0.435 -1.25,-1.24375 -1.25,-2.16125 0,-0.0925 0.005,-0.185 0.015,-0.27625 l 1.25,-11.25001 c 0.14,-1.26 1.2175,-2.22375 2.485,-2.22375 h 12.5 c 1.26751,0 2.345,0.96375 2.485,2.22375 l 1.25,11.25001 c 0.01,0.0913 0.015,0.18375 0.015,0.27625 0,0.9175 -0.505,1.72625 -1.25,2.16125 v -2.16125 c 0,-0.0463 -0.002,-0.0925 -0.007,-0.13875 0,0 -1.25,-11.25001 -1.25,-11.24876 -0.07,-0.63 -0.60875,-1.1125 -1.2425,-1.1125 h -12.5 c -0.63375,0 -1.1725,0.4825 -1.2425,1.11125 l -1.25,11.25001 c -0.005,0.0463 -0.007,0.0925 -0.007,0.13875 z m 4.46837,-8.57127 h 2.13625 l 2.6875,7.50125 -1.7625,-0.001 -0.56375,-1.25 h -2.84 l -0.57125,1.25 h -1.7625 z m 1.06375,1.6725 -1.0525,3.3275 h 2.125 z"
       id="path1-8-1-2-4"
       sodipodi:nodetypes="csssscssccscsssscscsccssccccccccccccccccc" /></g><g
     id="input-num-on"
     transform="translate(19,79.999986)"><rect
       x="19"
       y="112"
       width="32"
       height="32"
       opacity=".00100002"
       id="rect22" /><path
       class="ColorScheme-Text"
       d="m 35,120 v 2 h -2 v 1 h 2 v 6 h -2 v 1 h 5 v -1 h -2 v -9 z"
       fill="currentColor"
       id="path22"
       sodipodi:nodetypes="ccccccccccccc" /><path
       style="fill:currentColor;stroke-width:1.25"
       class="ColorScheme-Text"
       d="m 25.00125,132.61795 v 0.68375 c 0,1.515 1.2975,2.8125 2.811251,2.8125 H 42.187505 C 43.7025,136.1142 45,134.8167 45,133.3017 v -0.68375 c -0.665,0.60625 -1.53125,0.99625 -2.499995,0.99625 H 27.500001 c -0.967501,0 -1.835001,-0.39 -2.498751,-0.99625 z m 1.24875,0 C 25.505,132.18295 25,131.3742 25,130.4567 c 0,-0.0925 0.005,-0.185 0.015,-0.27625 l 1.25,-11.25001 c 0.14,-1.26 1.217501,-2.22375 2.485001,-2.22375 h 12.500004 c 1.2675,0 2.344995,0.96375 2.484995,2.22375 l 1.25,11.25001 c 0.01,0.0913 0.015,0.18375 0.015,0.27625 0,0.9175 -0.505,1.72625 -1.25,2.16125 v -2.16125 c 0,-0.0463 -0.0025,-0.0925 -0.0075,-0.13875 0,0 -1.249995,-11.25001 -1.249995,-11.24876 -0.07,-0.63 -0.60875,-1.1125 -1.2425,-1.1125 H 28.750001 c -0.63375,0 -1.1725,0.4825 -1.2425,1.11125 L 26.2575,130.31795 c -0.005,0.0463 -0.0075,0.0925 -0.0075,0.13875 z"
       id="path1-8"
       sodipodi:nodetypes="csssscssccscsssscscsccssccsc" /></g><g
     id="input-caps-on"
     transform="translate(19,48.000003)"><rect
       x="19"
       y="112"
       width="32"
       height="32"
       opacity=".00100002"
       id="rect23" /><path
       style="color:#dfdfdf;fill:currentColor;stroke-width:1.25"
       class="ColorScheme-Text"
       d="m 25.00125,132.33363 v 0.68375 c 0,1.515 1.2975,2.8125 2.811251,2.8125 H 42.187505 C 43.7025,135.82988 45,134.53238 45,133.01738 v -0.68375 c -0.665,0.60625 -1.53125,0.99625 -2.499995,0.99625 H 27.500001 c -0.967501,0 -1.835001,-0.39 -2.498751,-0.99625 z m 1.24875,0 c -0.745,-0.435 -1.25,-1.24375 -1.25,-2.16125 0,-0.0925 0.005,-0.185 0.015,-0.27625 l 1.25,-11.25001 c 0.14,-1.26 1.217501,-2.22375 2.485001,-2.22375 h 12.500004 c 1.2675,0 2.344995,0.96375 2.484995,2.22375 l 1.25,11.25001 c 0.01,0.0913 0.015,0.18375 0.015,0.27625 0,0.9175 -0.505,1.72625 -1.25,2.16125 v -2.16125 c 0,-0.0463 -0.0025,-0.0925 -0.0075,-0.13875 0,0 -1.249995,-11.25001 -1.249995,-11.24876 -0.07,-0.63 -0.60875,-1.1125 -1.2425,-1.1125 H 28.750001 c -0.63375,0 -1.1725,0.4825 -1.2425,1.11125 L 26.2575,130.03363 c -0.005,0.0463 -0.0075,0.0925 -0.0075,0.13875 z m 7.676253,-11.70625 h 2.13625 l 2.687501,7.50125 -1.7625,-10e-4 -0.56375,-1.25 h -2.840001 l -0.57125,1.25 h -1.762501 z m 1.06375,1.6725 -1.0525,3.3275 h 2.125 z"
       id="path1-8-1" /></g></svg>
