<?xml version="1.0" encoding="UTF-8" standalone="no"?>
<svg
   viewBox="0 0 22 22"
   version="1.1"
   id="svg3869"
   height="22"
   width="22"
   sodipodi:docname="kalarm.svg"
   inkscape:version="1.3 (0e150ed6c4, 2023-07-21)"
   xml:space="preserve"
   xmlns:inkscape="http://www.inkscape.org/namespaces/inkscape"
   xmlns:sodipodi="http://sodipodi.sourceforge.net/DTD/sodipodi-0.dtd"
   xmlns="http://www.w3.org/2000/svg"
   xmlns:svg="http://www.w3.org/2000/svg"
   xmlns:rdf="http://www.w3.org/1999/02/22-rdf-syntax-ns#"
   xmlns:cc="http://creativecommons.org/ns#"
   xmlns:dc="http://purl.org/dc/elements/1.1/"><sodipodi:namedview
     id="namedview1"
     pagecolor="#ffffff"
     bordercolor="#000000"
     borderopacity="0.25"
     inkscape:showpageshadow="2"
     inkscape:pageopacity="0.0"
     inkscape:pagecheckerboard="0"
     inkscape:deskcolor="#d1d1d1"
     inkscape:zoom="23.068182"
     inkscape:cx="45.950739"
     inkscape:cy="8.1714286"
     inkscape:window-width="2194"
     inkscape:window-height="1211"
     inkscape:window-x="-8"
     inkscape:window-y="-8"
     inkscape:window-maximized="1"
     inkscape:current-layer="svg3869"
     showgrid="true"><inkscape:grid
       id="grid1"
       units="px"
       originx="0"
       originy="0"
       spacingx="1"
       spacingy="1"
       empcolor="#0099e5"
       empopacity="0.30196078"
       color="#0099e5"
       opacity="0.14901961"
       empspacing="5"
       dotted="false"
       gridanglex="30"
       gridanglez="30"
       visible="true" /></sodipodi:namedview><metadata
     id="metadata16"><rdf:RDF><cc:Work
         rdf:about=""><dc:format>image/svg+xml</dc:format><dc:type
           rdf:resource="http://purl.org/dc/dcmitype/StillImage" /><dc:title /></cc:Work></rdf:RDF></metadata><defs
     id="defs3871"><style
       id="current-color-scheme"
       type="text/css">&#10;      .ColorScheme-Text {&#10;        color:#31363b;&#10;      }&#10;      .ColorScheme-Background {&#10;        color:#eff0f1;&#10;      }&#10;      .ColorScheme-Highlight {&#10;        color:#3daee9;&#10;      }&#10;      .ColorScheme-ViewText {&#10;        color:#31363b;&#10;      }&#10;      .ColorScheme-ViewBackground {&#10;        color:#fcfcfc;&#10;      }&#10;      .ColorScheme-ViewHover {&#10;        color:#93cee9;&#10;      }&#10;      .ColorScheme-ViewFocus{&#10;        color:#3daee9;&#10;      }&#10;      .ColorScheme-ButtonText {&#10;        color:#31363b;&#10;      }&#10;      .ColorScheme-ButtonBackground {&#10;        color:#eff0f1;&#10;      }&#10;      .ColorScheme-ButtonHover {&#10;        color:#93cee9;&#10;      }&#10;      .ColorScheme-ButtonFocus{&#10;        color:#3daee9;&#10;      }&#10;      </style></defs><g
     transform="translate(-326,-534.3622)"
     id="kalarm"><rect
       y="534.36218"
       x="326"
       height="22"
       width="22"
       id="rect4178"
       style="opacity:1;fill:none;fill-opacity:1;stroke:none;stroke-width:0.1;stroke-linecap:square;stroke-linejoin:miter;stroke-miterlimit:4;stroke-dasharray:none;stroke-dashoffset:0;stroke-opacity:1" /><path
       d="m 338.45,550.81282 c -0.05,0.85 -0.65,1.5 -1.5,1.5 -0.85,0 -1.5,-0.65 -1.5,-1.5 z"
       id="path1"
       style="clip-rule:evenodd;fill:#dfdfdf;fill-opacity:1;fill-rule:evenodd;stroke-width:0.5;stroke-linejoin:round;stroke-miterlimit:2" /><path
       d="m 342.7,549.36282 c -0.1,-0.05 -0.15,-0.1 -0.25,-0.1 -0.45,-0.2 -0.8,-0.69999 -1,-1.1 -0.35,-0.55 -0.49999,-1.2 -0.49999,-1.85 l -0.25651,-2 c 0,-2.05 -1.2935,-3.7 -3.2435,-3.95 v -0.55 c 0,-0.3 -0.2,-0.5 -0.5,-0.5 -0.30001,0 -0.5,0.2 -0.5,0.5 v 0.55 c -1.95,0.25 -3.24351,1.95 -3.24351,3.95 l -0.25649,2 c 0,0.6 -0.15,1.2 -0.4,1.70001 -0.2,0.39999 -0.45001,0.74999 -0.8,1.04999 -0.15001,0.15 -0.35,0.2 -0.5,0.3 -0.15,0.05 -0.25,0.2 -0.25,0.4 0,0.3 0.19999,0.50001 0.49999,0.50001 H 342.5 c 0.30001,0 0.5,-0.20001 0.5,-0.50001 -0.05,-0.1 -0.15,-0.29999 -0.3,-0.4 z"
       fill-opacity="0.3"
       id="path2"
       style="clip-rule:evenodd;display:inline;fill:#dfdfdf;fill-opacity:0.25;fill-rule:evenodd;stroke-width:0.5;stroke-linejoin:round;stroke-miterlimit:2" /><path
       d="m 342.7,549.36282 c -0.1,-0.05 -0.15,-0.1 -0.25,-0.1 -0.45,-0.2 -0.8,-0.69999 -1,-1.1 -0.35,-0.55 -0.7565,-3.85 -0.7565,-3.85 0,-2.05 -1.2935,-3.7 -3.2435,-3.95 v -0.55 c 0,-0.3 -0.2,-0.5 -0.5,-0.5 -0.30001,0 -0.5,0.2 -0.5,0.5 v 0.55 c -1.95,0.25 -3.24351,1.95 -3.24351,3.95 0,0 -0.40649,3.2 -0.65649,3.70001 -0.2,0.39999 -0.45001,0.74999 -0.8,1.04999 -0.15001,0.15 -0.35,0.2 -0.5,0.3 -0.15,0.05 -0.25,0.2 -0.25,0.4 0,0.3 0.19999,0.50001 0.49999,0.50001 H 342.5 c 0.30001,0 0.5,-0.20001 0.5,-0.50001 -0.05,-0.1 -0.15,-0.29999 -0.3,-0.4 z m -5.357,-8.16499 c -0.147,-0.0191 -0.639,-0.0191 -0.786,0 -1.52601,0.19549 -2.509,1.55 -2.509,3.11499 0,0.036 -0.448,3.48251 -0.745,4.0765 -0.1905,0.381 -0.419,0.72401 -0.7105,1.032 h 8.7095 c -0.2415,-0.264 -0.441,-0.5645 -0.5835,-0.8405 -0.41,-0.6605 -0.8665,-4.232 -0.8665,-4.268 0,-1.6045 -0.98301,-2.9195 -2.509,-3.11499 z"
       id="path3"
       style="clip-rule:evenodd;fill:#dfdfdf;fill-opacity:1;fill-rule:evenodd;stroke-width:0.5;stroke-linejoin:round;stroke-miterlimit:2" /></g><g
     transform="translate(-304,-534.3622)"
     id="kalarm-disabled"><rect
       y="534.36218"
       x="326"
       height="22"
       width="22"
       id="rect4178-6"
       style="opacity:1;fill:none;fill-opacity:1;stroke:none;stroke-width:0.1;stroke-linecap:square;stroke-linejoin:miter;stroke-miterlimit:4;stroke-dasharray:none;stroke-dashoffset:0;stroke-opacity:1" /><path
       d="m 338.45,550.81282 c -0.05,0.85 -0.65,1.5 -1.5,1.5 -0.85,0 -1.5,-0.65 -1.5,-1.5 z"
       id="path1-1"
       style="clip-rule:evenodd;fill:#dfdfdf;fill-opacity:1;fill-rule:evenodd;stroke-width:0.5;stroke-linejoin:round;stroke-miterlimit:2" /><path
       d="m 342.7,549.36282 c -0.1,-0.05 -0.15,-0.1 -0.25,-0.1 -0.45,-0.2 -0.8,-0.69999 -1,-1.1 -0.35,-0.55 -0.7565,-3.85 -0.7565,-3.85 0,-2.05 -1.2935,-3.7 -3.2435,-3.95 v -0.55 c 0,-0.3 -0.2,-0.5 -0.5,-0.5 -0.30001,0 -0.5,0.2 -0.5,0.5 v 0.55 c -1.95,0.25 -3.24351,1.95 -3.24351,3.95 0,0 -0.40649,3.2 -0.65649,3.70001 -0.2,0.39999 -0.45001,0.74999 -0.8,1.04999 -0.15001,0.15 -0.35,0.2 -0.5,0.3 -0.15,0.05 -0.25,0.2 -0.25,0.4 0,0.3 0.19999,0.50001 0.49999,0.50001 H 342.5 c 0.30001,0 0.5,-0.20001 0.5,-0.50001 -0.05,-0.1 -0.15,-0.29999 -0.3,-0.4 z m -5.357,-8.16499 c -0.147,-0.0191 -0.639,-0.0191 -0.786,0 -1.52601,0.19549 -2.509,1.55 -2.509,3.11499 0,0.036 -0.448,3.48251 -0.745,4.0765 -0.1905,0.381 -0.419,0.72401 -0.7105,1.032 h 8.7095 c -0.2415,-0.264 -0.441,-0.5645 -0.5835,-0.8405 -0.41,-0.6605 -0.8665,-4.232 -0.8665,-4.268 0,-1.6045 -0.98301,-2.9195 -2.509,-3.11499 z"
       id="path3-9"
       style="clip-rule:evenodd;fill:#dfdfdf;fill-opacity:1;fill-rule:evenodd;stroke-width:0.5;stroke-linejoin:round;stroke-miterlimit:2" /><path
       id="rect4145"
       d="m 334.99446,543.00201 v 4.88746 h 1.62915 v -4.88746 z m 2.44372,0 v 4.88746 h 1.62916 v -4.88746 z"
       class="ColorScheme-Text"
       style="fill:#dfdfdf;fill-opacity:0.5;stroke:none;stroke-width:0.814575" /></g><g
     transform="translate(-282,-534.3622)"
     id="kalarm-partdisabled"><rect
       y="534.36218"
       x="326"
       height="22"
       width="22"
       id="rect4178-6-3"
       style="opacity:1;fill:none;fill-opacity:1;stroke:none;stroke-width:0.1;stroke-linecap:square;stroke-linejoin:miter;stroke-miterlimit:4;stroke-dasharray:none;stroke-dashoffset:0;stroke-opacity:1" /><path
       d="m 338.65909,550.77484 c -0.0496,0.84354 -0.64507,1.4886 -1.48861,1.4886 -0.84354,0 -1.4886,-0.64506 -1.4886,-1.4886 z"
       id="path1-1-9"
       style="clip-rule:evenodd;fill:#dfdfdf;fill-opacity:1;fill-rule:evenodd;stroke-width:0.496202;stroke-linejoin:round;stroke-miterlimit:2" /><path
       d="m 342.8768,549.33585 c -0.0992,-0.0496 -0.14886,-0.0992 -0.24811,-0.0992 -0.44657,-0.19848 -0.79392,-0.69468 -0.9924,-1.09164 -0.34734,-0.54583 -0.75075,-3.82075 -0.75075,-3.82075 0,-2.03443 -1.28367,-3.67189 -3.21886,-3.91999 v -0.54583 c 0,-0.29772 -0.19848,-0.4962 -0.4962,-0.4962 -0.29773,0 -0.4962,0.19848 -0.4962,0.4962 v 0.54583 c -1.93518,0.2481 -3.21887,1.93518 -3.21887,3.91999 0,0 -0.4034,3.17569 -0.6515,3.67189 -0.19849,0.39696 -0.44659,0.7443 -0.79392,1.04202 -0.14887,0.14886 -0.34735,0.19848 -0.4962,0.29772 -0.14887,0.0496 -0.24811,0.19848 -0.24811,0.39696 0,0.29772 0.19848,0.49621 0.4962,0.49621 h 10.91643 c 0.29773,0 0.49621,-0.19849 0.49621,-0.49621 -0.0496,-0.0992 -0.14886,-0.29771 -0.29772,-0.39696 z m -5.3163,-8.10296 c -0.14589,-0.0189 -0.63415,-0.0189 -0.78003,0 -1.51442,0.194 -2.48994,1.53822 -2.48994,3.09133 0,0.0357 -0.4446,3.45604 -0.73934,4.04553 -0.18906,0.3781 -0.41582,0.7185 -0.7051,1.02415 h 8.64333 c -0.23967,-0.26199 -0.43766,-0.5602 -0.57907,-0.83411 -0.40688,-0.65548 -0.85992,-4.19985 -0.85992,-4.23557 0,-1.59232 -0.97553,-2.89733 -2.48993,-3.09133 z"
       id="path3-9-3"
       style="clip-rule:evenodd;fill:#dfdfdf;fill-opacity:1;fill-rule:evenodd;stroke-width:0.496202;stroke-linejoin:round;stroke-miterlimit:2" /><path
       id="path19"
       d="m 335.02121,543.02337 v 4.85032 h 4.04193 v -4.85032 z"
       class="ColorScheme-Text"
       style="fill:#dfdfdf;fill-opacity:0.5;stroke:none;stroke-width:0.808387" /></g></svg>
