<?xml version="1.0" encoding="UTF-8" standalone="no"?>
<!-- Created with Inkscape (http://www.inkscape.org/) -->

<svg
   width="32"
   height="32"
   id="svg3869"
   version="1.1"
   inkscape:version="1.3 (0e150ed6c4, 2023-07-21)"
   sodipodi:docname="kdeconnect.svg"
   viewBox="0 0 32 32"
   xml:space="preserve"
   xmlns:inkscape="http://www.inkscape.org/namespaces/inkscape"
   xmlns:sodipodi="http://sodipodi.sourceforge.net/DTD/sodipodi-0.dtd"
   xmlns="http://www.w3.org/2000/svg"
   xmlns:svg="http://www.w3.org/2000/svg"
   xmlns:rdf="http://www.w3.org/1999/02/22-rdf-syntax-ns#"
   xmlns:cc="http://creativecommons.org/ns#"
   xmlns:dc="http://purl.org/dc/elements/1.1/"><defs
     id="defs3871"><inkscape:path-effect
       effect="fillet_chamfer"
       id="path-effect3"
       is_visible="true"
       lpeversion="1"
       nodesatellites_param="F,0,0,1,0,1.0504673,0,1 @ F,0,1,1,0,1.0504673,0,1 @ F,0,0,1,0,0,0,1 @ F,0,0,1,0,0,0,1 @ F,0,0,1,0,0,0,1 @ F,0,0,1,0,0,0,1 @ F,0,0,1,0,0,0,1 @ F,0,0,1,0,0,0,1 @ F,0,0,1,0,0,0,1 @ F,0,0,1,0,0,0,1 @ F,0,1,1,0,1.0504673,0,1 | F,0,0,1,0,0,0,1 @ F,0,0,1,0,0,0,1 @ F,0,0,1,0,0,0,1 @ F,0,0,1,0,0,0,1 | F,0,0,1,0,0,0,1 @ F,0,0,1,0,0,0,1 @ F,0,0,1,0,0,0,1 @ F,0,0,1,0,0,0,1 @ F,0,0,1,0,0,0,1 @ F,0,0,1,0,0,0,1 @ F,0,0,1,0,0,0,1 @ F,0,0,1,0,0,0,1 @ F,0,0,1,0,0,0,1 @ F,0,0,1,0,0,0,1 @ F,0,0,1,0,0,0,1 @ F,0,0,1,0,0,0,1 @ F,0,0,1,0,0,0,1 @ F,0,0,1,0,0,0,1 @ F,0,0,1,0,0,0,1 @ F,0,0,1,0,0,0,1 @ F,0,0,1,0,0,0,1 @ F,0,0,1,0,0,0,1 @ F,0,0,1,0,0,0,1 @ F,0,0,1,0,0,0,1 @ F,0,0,1,0,0,0,1 @ F,0,0,1,0,0,0,1 @ F,0,0,1,0,0,0,1 @ F,0,0,1,0,0,0,1 @ F,0,0,1,0,0,0,1 @ F,0,0,1,0,0,0,1 @ F,0,0,1,0,0,0,1 @ F,0,0,1,0,0,0,1 @ F,0,0,1,0,0,0,1 @ F,0,0,1,0,0,0,1 @ F,0,0,1,0,0,0,1 @ F,0,0,1,0,0,0,1 | F,0,0,1,0,0,0,1 @ F,0,0,1,0,0,0,1 @ F,0,0,1,0,0,0,1 @ F,0,0,1,0,0,0,1 @ F,0,0,1,0,0,0,1 @ F,0,0,1,0,0,0,1 @ F,0,0,1,0,0,0,1 @ F,0,0,1,0,0,0,1 @ F,0,0,1,0,0,0,1 @ F,0,0,1,0,0,0,1 @ F,0,0,1,0,0,0,1 @ F,0,0,1,0,0,0,1 @ F,0,0,1,0,0,0,1 @ F,0,0,1,0,0,0,1 @ F,0,0,1,0,0,0,1 @ F,0,0,1,0,0,0,1 @ F,0,0,1,0,0,0,1 @ F,0,0,1,0,0,0,1 @ F,0,0,1,0,0,0,1 @ F,0,0,1,0,0,0,1 @ F,0,0,1,0,0,0,1 @ F,0,0,1,0,0,0,1 @ F,0,0,1,0,0,0,1 @ F,0,0,1,0,0,0,1 @ F,0,0,1,0,0,0,1 @ F,0,0,1,0,0,0,1 @ F,0,0,1,0,0,0,1 @ F,0,0,1,0,0,0,1 @ F,0,0,1,0,0,0,1 @ F,0,0,1,0,0,0,1 @ F,0,0,1,0,0,0,1 @ F,0,0,1,0,0,0,1 @ F,0,0,1,0,0,0,1 @ F,0,0,1,0,0,0,1 @ F,0,0,1,0,0,0,1 @ F,0,0,1,0,0,0,1 @ F,0,0,1,0,0,0,1 @ F,0,0,1,0,0,0,1 @ F,0,0,1,0,0,0,1 @ F,0,0,1,0,0,0,1 @ F,0,0,1,0,0,0,1 @ F,0,0,1,0,0,0,1 @ F,0,0,1,0,0,0,1 @ F,0,0,1,0,0,0,1 @ F,0,0,1,0,0,0,1 @ F,0,0,1,0,0,0,1 @ F,0,0,1,0,0,0,1 @ F,0,0,1,0,0,0,1 @ F,0,0,1,0,0,0,1 @ F,0,0,1,0,0,0,1 @ F,0,0,1,0,0,0,1 @ F,0,0,1,0,0,0,1 @ F,0,0,1,0,0,0,1 @ F,0,0,1,0,0,0,1 @ F,0,0,1,0,0,0,1 @ F,0,0,1,0,0,0,1 @ F,0,0,1,0,0,0,1 @ F,0,0,1,0,0,0,1 @ F,0,0,1,0,0,0,1 @ F,0,0,1,0,0,0,1 @ F,0,0,1,0,0,0,1 @ F,0,0,1,0,0,0,1 @ F,0,0,1,0,0,0,1 @ F,0,0,1,0,0,0,1 @ F,0,0,1,0,0,0,1 @ F,0,0,1,0,0,0,1"
       radius="0"
       unit="px"
       method="auto"
       mode="F"
       chamfer_steps="1"
       flexible="false"
       use_knot_distance="true"
       apply_no_radius="true"
       apply_with_radius="true"
       only_selected="false"
       hide_knots="false" /><inkscape:path-effect
       effect="fillet_chamfer"
       id="path-effect2"
       is_visible="true"
       lpeversion="1"
       nodesatellites_param="F,0,0,1,0,1.811749,0,1 @ F,0,0,1,0,1.811749,0,1 @ F,0,0,1,0,1.811749,0,1 @ F,0,0,1,0,1.811749,0,1 | F,0,0,1,0,0,0,1 @ F,0,0,1,0,0,0,1 @ F,0,0,1,0,0,0,1 @ F,0,0,1,0,0,0,1 | F,0,1,1,0,0.84906542,0,1 @ F,0,0,1,0,0.84906542,0,1 @ F,0,0,1,0,0,0,1 @ F,0,0,1,0,0,0,1 @ F,0,0,1,0,0,0,1 @ F,0,0,1,0,0,0,1 @ F,0,0,1,0,0,0,1 @ F,0,0,1,0,0,0,1 @ F,0,0,1,0,0,0,1 @ F,0,0,1,0,0,0,1 @ F,0,0,1,0,0,0,1 @ F,0,0,1,0,0,0,1 @ F,0,0,1,0,0,0,1 @ F,0,0,1,0,0,0,1 @ F,0,0,1,0,0,0,1 @ F,0,0,1,0,0,0,1 @ F,0,0,1,0,0,0,1 @ F,0,0,1,0,0,0,1 | F,0,0,1,0,0,0,1 @ F,0,0,1,0,0,0,1 @ F,0,0,1,0,0,0,1 @ F,0,0,1,0,0,0,1 @ F,0,0,1,0,0,0,1 @ F,0,0,1,0,0,0,1 @ F,0,0,1,0,0,0,1 @ F,0,0,1,0,0,0,1 @ F,0,0,1,0,0,0,1 @ F,0,0,1,0,0,0,1 @ F,0,0,1,0,0,0,1 @ F,0,0,1,0,0,0,1 @ F,0,0,1,0,0,0,1 @ F,0,0,1,0,0,0,1 @ F,0,0,1,0,0,0,1 @ F,0,0,1,0,0,0,1 @ F,0,0,1,0,0,0,1 @ F,0,0,1,0,0,0,1 @ F,0,0,1,0,0,0,1 @ F,0,0,1,0,0,0,1 @ F,0,0,1,0,0,0,1 @ F,0,0,1,0,0,0,1 @ F,0,0,1,0,0,0,1 @ F,0,0,1,0,0,0,1 @ F,0,0,1,0,0,0,1 @ F,0,0,1,0,0,0,1 @ F,0,0,1,0,0,0,1 @ F,0,0,1,0,0,0,1 @ F,0,0,1,0,0,0,1 @ F,0,0,1,0,0,0,1 @ F,0,0,1,0,0,0,1 @ F,0,0,1,0,0,0,1 @ F,0,0,1,0,0,0,1 @ F,0,0,1,0,0,0,1 @ F,0,0,1,0,0,0,1 @ F,0,0,1,0,0,0,1 @ F,0,0,1,0,0,0,1 @ F,0,0,1,0,0,0,1 @ F,0,0,1,0,0,0,1 @ F,0,0,1,0,0,0,1 @ F,0,0,1,0,0,0,1 @ F,0,0,1,0,0,0,1 @ F,0,0,1,0,0,0,1 @ F,0,0,1,0,0,0,1 @ F,0,0,1,0,0,0,1 @ F,0,0,1,0,0,0,1 @ F,0,0,1,0,0,0,1 @ F,0,0,1,0,0,0,1 @ F,0,0,1,0,0,0,1 @ F,0,0,1,0,0,0,1 @ F,0,0,1,0,0,0,1 @ F,0,0,1,0,0,0,1 @ F,0,0,1,0,0,0,1 @ F,0,0,1,0,0,0,1 @ F,0,0,1,0,0,0,1 @ F,0,0,1,0,0,0,1 @ F,0,0,1,0,0,0,1 @ F,0,0,1,0,0,0,1 @ F,0,0,1,0,0,0,1 @ F,0,0,1,0,0,0,1 @ F,0,0,1,0,0,0,1 @ F,0,0,1,0,0,0,1 @ F,0,0,1,0,0,0,1 @ F,0,0,1,0,0,0,1 @ F,0,0,1,0,0,0,1 @ F,0,0,1,0,0,0,1 | F,0,0,1,0,0,0,1 @ F,0,0,1,0,0,0,1 @ F,0,0,1,0,0,0,1 @ F,0,0,1,0,0,0,1 @ F,0,0,1,0,0,0,1 @ F,0,0,1,0,0,0,1 @ F,0,0,1,0,0,0,1 @ F,0,0,1,0,0,0,1 @ F,0,0,1,0,0,0,1 @ F,0,0,1,0,0,0,1 @ F,0,0,1,0,0,0,1 @ F,0,0,1,0,0,0,1 @ F,0,0,1,0,0,0,1 @ F,0,0,1,0,0,0,1 @ F,0,0,1,0,0,0,1 @ F,0,0,1,0,0,0,1 @ F,0,1,1,0,0.84906542,0,1 @ F,0,1,1,0,0.84906542,0,1"
       radius="0"
       unit="px"
       method="auto"
       mode="F"
       chamfer_steps="1"
       flexible="false"
       use_knot_distance="true"
       apply_no_radius="true"
       apply_with_radius="true"
       only_selected="false"
       hide_knots="false" /><inkscape:path-effect
       effect="fillet_chamfer"
       id="path-effect1"
       is_visible="true"
       lpeversion="1"
       nodesatellites_param="F,0,0,1,0,2.9999974,0,1 @ F,0,0,1,0,2.9999974,0,1 @ F,0,0,1,0,2.9999974,0,1 @ F,0,0,1,0,2.9999974,0,1 | F,0,0,1,0,0.49426441,0,1 @ F,0,0,1,0,0.49426441,0,1 @ F,0,0,1,0,0.49426441,0,1 @ F,0,0,1,0,0.49426441,0,1 | F,0,1,1,0,0.99999738,0,1 @ F,0,0,1,0,0.99999738,0,1 @ F,0,1,1,0,0.99999738,0,1 @ F,0,1,1,0,0.99999738,0,1 | F,0,0,1,0,0,0,1 @ F,0,0,1,0,0,0,1 @ F,0,0,1,0,0,0,1 @ F,0,0,1,0,0,0,1 @ F,0,0,1,0,0,0,1 @ F,0,0,1,0,0,0,1 @ F,0,0,1,0,0,0,1 @ F,0,0,1,0,0,0,1 @ F,0,0,1,0,0,0,1 @ F,0,0,1,0,0,0,1 @ F,0,0,1,0,0,0,1 @ F,0,0,1,0,0,0,1 @ F,0,0,1,0,0,0,1 @ F,0,0,1,0,0,0,1 @ F,0,0,1,0,0,0,1 @ F,0,0,1,0,0,0,1 @ F,0,0,1,0,0,0,1 @ F,0,0,1,0,0,0,1 @ F,0,0,1,0,0,0,1 @ F,0,0,1,0,0,0,1 @ F,0,0,1,0,0,0,1 @ F,0,0,1,0,0,0,1 @ F,0,0,1,0,0,0,1 @ F,0,0,1,0,0,0,1 @ F,0,0,1,0,0,0,1 @ F,0,0,1,0,0,0,1 @ F,0,0,1,0,0,0,1 @ F,0,0,1,0,0,0,1 @ F,0,0,1,0,0,0,1 @ F,0,0,1,0,0,0,1 @ F,0,0,1,0,0,0,1 @ F,0,0,1,0,0,0,1 | F,0,0,1,0,0,0,1 @ F,0,0,1,0,0,0,1 @ F,0,0,1,0,0,0,1 @ F,0,0,1,0,0,0,1 @ F,0,0,1,0,0,0,1 @ F,0,0,1,0,0,0,1 @ F,0,0,1,0,0,0,1 @ F,0,0,1,0,0,0,1 @ F,0,0,1,0,0,0,1 @ F,0,0,1,0,0,0,1 @ F,0,0,1,0,0,0,1 @ F,0,0,1,0,0,0,1 @ F,0,0,1,0,0,0,1 @ F,0,0,1,0,0,0,1 @ F,0,0,1,0,0,0,1 @ F,0,0,1,0,0,0,1 @ F,0,0,1,0,0,0,1 @ F,0,0,1,0,0,0,1 @ F,0,0,1,0,0,0,1 @ F,0,0,1,0,0,0,1 @ F,0,0,1,0,0,0,1 @ F,0,0,1,0,0,0,1 @ F,0,0,1,0,0,0,1 @ F,0,0,1,0,0,0,1 @ F,0,0,1,0,0,0,1 @ F,0,0,1,0,0,0,1 @ F,0,0,1,0,0,0,1 @ F,0,0,1,0,0,0,1 @ F,0,0,1,0,0,0,1 @ F,0,0,1,0,0,0,1 @ F,0,0,1,0,0,0,1 @ F,0,0,1,0,0,0,1 @ F,0,0,1,0,0,0,1 @ F,0,0,1,0,0,0,1 @ F,0,0,1,0,0,0,1 @ F,0,0,1,0,0,0,1 @ F,0,0,1,0,0,0,1 @ F,0,0,1,0,0,0,1 @ F,0,0,1,0,0,0,1 @ F,0,0,1,0,0,0,1 @ F,0,0,1,0,0,0,1 @ F,0,0,1,0,0,0,1 @ F,0,0,1,0,0,0,1 @ F,0,0,1,0,0,0,1 @ F,0,0,1,0,0,0,1 @ F,0,0,1,0,0,0,1 @ F,0,0,1,0,0,0,1 @ F,0,0,1,0,0,0,1 @ F,0,0,1,0,0,0,1 @ F,0,0,1,0,0,0,1 @ F,0,0,1,0,0,0,1 @ F,0,0,1,0,0,0,1 @ F,0,0,1,0,0,0,1 @ F,0,0,1,0,0,0,1 @ F,0,0,1,0,0,0,1 @ F,0,0,1,0,0,0,1 @ F,0,0,1,0,0,0,1 @ F,0,0,1,0,0,0,1 @ F,0,0,1,0,0,0,1 @ F,0,0,1,0,0,0,1 @ F,0,0,1,0,0,0,1 @ F,0,0,1,0,0,0,1 @ F,0,0,1,0,0,0,1 @ F,0,0,1,0,0,0,1 @ F,0,0,1,0,0,0,1 @ F,0,0,1,0,0,0,1"
       radius="0"
       unit="px"
       method="auto"
       mode="F"
       chamfer_steps="1"
       flexible="false"
       use_knot_distance="true"
       apply_no_radius="true"
       apply_with_radius="true"
       only_selected="false"
       hide_knots="false" /><style
       type="text/css"
       id="current-color-scheme">&#10;      .ColorScheme-Text {&#10;        color:#31363b;&#10;      }&#10;      .ColorScheme-Background {&#10;        color:#eff0f1;&#10;      }&#10;      .ColorScheme-Highlight {&#10;        color:#3daee9;&#10;      }&#10;      .ColorScheme-ViewText {&#10;        color:#31363b;&#10;      }&#10;      .ColorScheme-ViewBackground {&#10;        color:#fcfcfc;&#10;      }&#10;      .ColorScheme-ViewHover {&#10;        color:#93cee9;&#10;      }&#10;      .ColorScheme-ViewFocus{&#10;        color:#3daee9;&#10;      }&#10;      .ColorScheme-ButtonText {&#10;        color:#31363b;&#10;      }&#10;      .ColorScheme-ButtonBackground {&#10;        color:#eff0f1;&#10;      }&#10;      .ColorScheme-ButtonHover {&#10;        color:#93cee9;&#10;      }&#10;      .ColorScheme-ButtonFocus{&#10;        color:#3daee9;&#10;      }&#10;      </style><inkscape:path-effect
       effect="fillet_chamfer"
       id="path-effect1-4"
       is_visible="true"
       lpeversion="1"
       nodesatellites_param="F,0,0,1,0,3.2385194,0,1 @ F,0,0,1,0,3.2385194,0,1 @ F,0,0,1,0,3.2385194,0,1 @ F,0,0,1,0,3.2385194,0,1 | F,0,0,1,0,0.49426441,0,1 @ F,0,0,1,0,0.49426441,0,1 @ F,0,0,1,0,0.49426441,0,1 @ F,0,0,1,0,0.49426441,0,1 | F,0,1,1,0,1.6010381,0,1 @ F,0,1,1,0,1.6010381,0,1 @ F,0,0,1,0,1.6010381,0,1 @ F,0,1,1,0,1.6010381,0,1 | F,0,0,1,0,0,0,1 @ F,0,0,1,0,0,0,1 @ F,0,0,1,0,0,0,1 @ F,0,0,1,0,0,0,1 @ F,0,0,1,0,0,0,1 @ F,0,0,1,0,0,0,1 @ F,0,0,1,0,0,0,1 @ F,0,0,1,0,0,0,1 @ F,0,0,1,0,0,0,1 @ F,0,0,1,0,0,0,1 @ F,0,0,1,0,0,0,1 @ F,0,0,1,0,0,0,1 @ F,0,0,1,0,0,0,1 @ F,0,0,1,0,0,0,1 @ F,0,0,1,0,0,0,1 @ F,0,0,1,0,0,0,1 @ F,0,0,1,0,0,0,1 @ F,0,0,1,0,0,0,1 @ F,0,0,1,0,0,0,1 @ F,0,0,1,0,0,0,1 @ F,0,0,1,0,0,0,1 @ F,0,0,1,0,0,0,1 @ F,0,0,1,0,0,0,1 @ F,0,0,1,0,0,0,1 @ F,0,0,1,0,0,0,1 @ F,0,0,1,0,0,0,1 @ F,0,0,1,0,0,0,1 @ F,0,0,1,0,0,0,1 @ F,0,0,1,0,0,0,1 @ F,0,0,1,0,0,0,1 @ F,0,0,1,0,0,0,1 @ F,0,0,1,0,0,0,1 | F,0,0,1,0,0,0,1 @ F,0,0,1,0,0,0,1 @ F,0,0,1,0,0,0,1 @ F,0,0,1,0,0,0,1 @ F,0,0,1,0,0,0,1 @ F,0,0,1,0,0,0,1 @ F,0,0,1,0,0,0,1 @ F,0,0,1,0,0,0,1 @ F,0,0,1,0,0,0,1 @ F,0,0,1,0,0,0,1 @ F,0,0,1,0,0,0,1 @ F,0,0,1,0,0,0,1 @ F,0,0,1,0,0,0,1 @ F,0,0,1,0,0,0,1 @ F,0,0,1,0,0,0,1 @ F,0,0,1,0,0,0,1 @ F,0,0,1,0,0,0,1 @ F,0,0,1,0,0,0,1 @ F,0,0,1,0,0,0,1 @ F,0,0,1,0,0,0,1 @ F,0,0,1,0,0,0,1 @ F,0,0,1,0,0,0,1 @ F,0,0,1,0,0,0,1 @ F,0,0,1,0,0,0,1 @ F,0,0,1,0,0,0,1 @ F,0,0,1,0,0,0,1 @ F,0,0,1,0,0,0,1 @ F,0,0,1,0,0,0,1 @ F,0,0,1,0,0,0,1 @ F,0,0,1,0,0,0,1 @ F,0,0,1,0,0,0,1 @ F,0,0,1,0,0,0,1 @ F,0,0,1,0,0,0,1 @ F,0,0,1,0,0,0,1 @ F,0,0,1,0,0,0,1 @ F,0,0,1,0,0,0,1 @ F,0,0,1,0,0,0,1 @ F,0,0,1,0,0,0,1 @ F,0,0,1,0,0,0,1 @ F,0,0,1,0,0,0,1 @ F,0,0,1,0,0,0,1 @ F,0,0,1,0,0,0,1 @ F,0,0,1,0,0,0,1 @ F,0,0,1,0,0,0,1 @ F,0,0,1,0,0,0,1 @ F,0,0,1,0,0,0,1 @ F,0,0,1,0,0,0,1 @ F,0,0,1,0,0,0,1 @ F,0,0,1,0,0,0,1 @ F,0,0,1,0,0,0,1 @ F,0,0,1,0,0,0,1 @ F,0,0,1,0,0,0,1 @ F,0,0,1,0,0,0,1 @ F,0,0,1,0,0,0,1 @ F,0,0,1,0,0,0,1 @ F,0,0,1,0,0,0,1 @ F,0,0,1,0,0,0,1 @ F,0,0,1,0,0,0,1 @ F,0,0,1,0,0,0,1 @ F,0,0,1,0,0,0,1 @ F,0,0,1,0,0,0,1 @ F,0,0,1,0,0,0,1 @ F,0,0,1,0,0,0,1 @ F,0,0,1,0,0,0,1 @ F,0,0,1,0,0,0,1 @ F,0,0,1,0,0,0,1"
       radius="0"
       unit="px"
       method="auto"
       mode="F"
       chamfer_steps="1"
       flexible="false"
       use_knot_distance="true"
       apply_no_radius="true"
       apply_with_radius="true"
       only_selected="false"
       hide_knots="false" /><inkscape:path-effect
       effect="fillet_chamfer"
       id="path-effect1-0"
       is_visible="true"
       lpeversion="1"
       nodesatellites_param="F,0,0,1,0,2.9707487,0,1 @ F,0,0,1,0,2.9707487,0,1 @ F,0,0,1,0,2.9707487,0,1 @ F,0,0,1,0,2.9707487,0,1 | F,0,0,1,0,0.49426441,0,1 @ F,0,0,1,0,0.49426441,0,1 @ F,0,0,1,0,0.49426441,0,1 @ F,0,0,1,0,0.49426441,0,1 | F,0,1,1,0,1.5937459,0,1 @ F,0,0,1,0,1.5937459,0,1 @ F,0,1,1,0,1.5937459,0,1 @ F,0,1,1,0,1.5937459,0,1 | F,0,0,1,0,0,0,1 @ F,0,0,1,0,0,0,1 @ F,0,0,1,0,0,0,1 @ F,0,0,1,0,0,0,1 @ F,0,0,1,0,0,0,1 @ F,0,0,1,0,0,0,1 @ F,0,0,1,0,0,0,1 @ F,0,0,1,0,0,0,1 @ F,0,0,1,0,0,0,1 @ F,0,0,1,0,0,0,1 @ F,0,0,1,0,0,0,1 @ F,0,0,1,0,0,0,1 @ F,0,0,1,0,0,0,1 @ F,0,0,1,0,0,0,1 @ F,0,0,1,0,0,0,1 @ F,0,0,1,0,0,0,1 @ F,0,0,1,0,0,0,1 @ F,0,0,1,0,0,0,1 @ F,0,0,1,0,0,0,1 @ F,0,0,1,0,0,0,1 @ F,0,0,1,0,0,0,1 @ F,0,0,1,0,0,0,1 @ F,0,0,1,0,0,0,1 @ F,0,0,1,0,0,0,1 @ F,0,0,1,0,0,0,1 @ F,0,0,1,0,0,0,1 @ F,0,0,1,0,0,0,1 @ F,0,0,1,0,0,0,1 @ F,0,0,1,0,0,0,1 @ F,0,0,1,0,0,0,1 @ F,0,0,1,0,0,0,1 @ F,0,0,1,0,0,0,1 | F,0,0,1,0,0,0,1 @ F,0,0,1,0,0,0,1 @ F,0,0,1,0,0,0,1 @ F,0,0,1,0,0,0,1 @ F,0,0,1,0,0,0,1 @ F,0,0,1,0,0,0,1 @ F,0,0,1,0,0,0,1 @ F,0,0,1,0,0,0,1 @ F,0,0,1,0,0,0,1 @ F,0,0,1,0,0,0,1 @ F,0,0,1,0,0,0,1 @ F,0,0,1,0,0,0,1 @ F,0,0,1,0,0,0,1 @ F,0,0,1,0,0,0,1 @ F,0,0,1,0,0,0,1 @ F,0,0,1,0,0,0,1 @ F,0,0,1,0,0,0,1 @ F,0,0,1,0,0,0,1 @ F,0,0,1,0,0,0,1 @ F,0,0,1,0,0,0,1 @ F,0,0,1,0,0,0,1 @ F,0,0,1,0,0,0,1 @ F,0,0,1,0,0,0,1 @ F,0,0,1,0,0,0,1 @ F,0,0,1,0,0,0,1 @ F,0,0,1,0,0,0,1 @ F,0,0,1,0,0,0,1 @ F,0,0,1,0,0,0,1 @ F,0,0,1,0,0,0,1 @ F,0,0,1,0,0,0,1 @ F,0,0,1,0,0,0,1 @ F,0,0,1,0,0,0,1 @ F,0,0,1,0,0,0,1 @ F,0,0,1,0,0,0,1 @ F,0,0,1,0,0,0,1 @ F,0,0,1,0,0,0,1 @ F,0,0,1,0,0,0,1 @ F,0,0,1,0,0,0,1 @ F,0,0,1,0,0,0,1 @ F,0,0,1,0,0,0,1 @ F,0,0,1,0,0,0,1 @ F,0,0,1,0,0,0,1 @ F,0,0,1,0,0,0,1 @ F,0,0,1,0,0,0,1 @ F,0,0,1,0,0,0,1 @ F,0,0,1,0,0,0,1 @ F,0,0,1,0,0,0,1 @ F,0,0,1,0,0,0,1 @ F,0,0,1,0,0,0,1 @ F,0,0,1,0,0,0,1 @ F,0,0,1,0,0,0,1 @ F,0,0,1,0,0,0,1 @ F,0,0,1,0,0,0,1 @ F,0,0,1,0,0,0,1 @ F,0,0,1,0,0,0,1 @ F,0,0,1,0,0,0,1 @ F,0,0,1,0,0,0,1 @ F,0,0,1,0,0,0,1 @ F,0,0,1,0,0,0,1 @ F,0,0,1,0,0,0,1 @ F,0,0,1,0,0,0,1 @ F,0,0,1,0,0,0,1 @ F,0,0,1,0,0,0,1 @ F,0,0,1,0,0,0,1 @ F,0,0,1,0,0,0,1 @ F,0,0,1,0,0,0,1 @ F,0,0,1,0,0,0,1"
       radius="0"
       unit="px"
       method="auto"
       mode="F"
       chamfer_steps="1"
       flexible="false"
       use_knot_distance="true"
       apply_no_radius="true"
       apply_with_radius="true"
       only_selected="false"
       hide_knots="false" /></defs><sodipodi:namedview
     id="base"
     pagecolor="#ffffff"
     bordercolor="#666666"
     borderopacity="1.0"
     inkscape:pageopacity="0.0"
     inkscape:pageshadow="2"
     inkscape:zoom="11.313709"
     inkscape:cx="10.69499"
     inkscape:cy="13.479222"
     inkscape:document-units="px"
     inkscape:current-layer="layer1"
     showgrid="true"
     fit-margin-top="0"
     fit-margin-left="0"
     fit-margin-right="0"
     fit-margin-bottom="0"
     inkscape:window-width="2194"
     inkscape:window-height="1211"
     inkscape:window-x="-8"
     inkscape:window-y="-8"
     inkscape:window-maximized="1"
     inkscape:showpageshadow="false"
     inkscape:pagecheckerboard="0"
     inkscape:deskcolor="#d1d1d1"><inkscape:grid
       type="xygrid"
       id="grid4132"
       originx="5"
       originy="4.9999826"
       spacingy="1"
       spacingx="1"
       units="px"
       visible="true" /><sodipodi:guide
       position="7,25"
       orientation="18,0"
       id="guide4138"
       inkscape:locked="false" /><sodipodi:guide
       position="7,7"
       orientation="0,18"
       id="guide4140"
       inkscape:locked="false" /><sodipodi:guide
       position="25,7"
       orientation="-18,0"
       id="guide4142"
       inkscape:locked="false" /><sodipodi:guide
       position="25,25"
       orientation="0,-18"
       id="guide4144"
       inkscape:locked="false" /><sodipodi:guide
       position="8,24"
       orientation="16,0"
       id="guide4146"
       inkscape:locked="false" /><sodipodi:guide
       position="8,8"
       orientation="0.0056277055,0.99998416"
       id="guide4148"
       inkscape:locked="false" /><sodipodi:guide
       position="24,8"
       orientation="-16,0"
       id="guide4150"
       inkscape:locked="false" /><sodipodi:guide
       position="24,24"
       orientation="0,-16"
       id="guide4152"
       inkscape:locked="false" /><sodipodi:guide
       position="2,29.999997"
       orientation="28,0"
       id="guide4265"
       inkscape:locked="false" /><sodipodi:guide
       position="2,1.9999974"
       orientation="0,28"
       id="guide4267"
       inkscape:locked="false" /><sodipodi:guide
       position="30,1.9999974"
       orientation="-28,0"
       id="guide4269"
       inkscape:locked="false" /><sodipodi:guide
       position="30,29.999997"
       orientation="0,-28"
       id="guide4271"
       inkscape:locked="false" /></sodipodi:namedview><metadata
     id="metadata3874"><rdf:RDF><cc:Work
         rdf:about=""><dc:format>image/svg+xml</dc:format><dc:type
           rdf:resource="http://purl.org/dc/dcmitype/StillImage" /><dc:title /></cc:Work></rdf:RDF></metadata><g
     inkscape:label="Capa 1"
     inkscape:groupmode="layer"
     id="layer1"
     transform="translate(-321,-529.36218)"><g
       id="kdeconnect"><rect
         y="529.36218"
         x="321"
         height="32"
         width="32"
         id="rect4436"
         style="opacity:1;fill:none;fill-opacity:1;stroke:none;stroke-width:0.1;stroke-linecap:square;stroke-linejoin:miter;stroke-miterlimit:4;stroke-dasharray:none;stroke-dashoffset:0;stroke-opacity:1" /><path
         style="opacity:1;fill:#dfdfdf;fill-opacity:1;stroke:none"
         d="M 8,4.9999974 V 27.000003 A 2.9999974,2.9999974 45 0 0 10.999997,30 H 21.000003 A 2.9999974,2.9999974 135 0 0 24,27.000003 V 4.9999974 A 2.9999974,2.9999974 45 0 0 21.000003,2 H 10.999997 A 2.9999974,2.9999974 135 0 0 8,4.9999974 Z M 13.494264,3 h 5.011472 A 0.49426441,0.49426441 45 0 1 19,3.4942644 v 0.011471 A 0.49426441,0.49426441 135 0 1 18.505736,4 H 13.494264 A 0.49426441,0.49426441 45 0 1 13,3.5057356 V 3.4942644 A 0.49426441,0.49426441 135 0 1 13.494264,3 Z M 9.9999974,5 H 22.000003 A 0.99999738,0.99999738 45 0 1 23,5.9999974 V 27.000003 A 0.99999738,0.99999738 135 0 1 22.000003,28 H 9.9999974 A 0.99999738,0.99999738 45 0 1 9,27.000003 V 5.9999974 A 0.99999738,0.99999738 135 0 1 9.9999974,5 Z M 15.5,12 15.222656,13.107422 c -0.25213,0.0672 -0.494403,0.166995 -0.720703,0.296875 l -0.976562,-0.585938 -0.707032,0.707032 0.585938,0.976562 c -0.13139,0.22672 -0.232511,0.469666 -0.300781,0.722656 L 12,15.5 v 1 l 1.107422,0.277344 c 0.0672,0.25213 0.166995,0.494403 0.296875,0.720703 l -0.585938,0.976562 0.707032,0.707032 0.976562,-0.585938 c 0.22672,0.13139 0.469666,0.232511 0.722656,0.300781 L 15.5,20 h 1 l 0.277344,-1.107422 c 0.25213,-0.0672 0.494403,-0.166995 0.720703,-0.296875 l 0.976562,0.585938 0.707032,-0.707032 -0.585938,-0.976562 c 0.13139,-0.22672 0.232511,-0.469666 0.300781,-0.722656 L 20,16.5 v -1 l -1.107422,-0.277344 c -0.0672,-0.25213 -0.166995,-0.494403 -0.296875,-0.720703 l 0.585938,-0.976562 -0.707032,-0.707032 -0.976562,0.585938 c -0.22672,-0.13139 -0.469666,-0.232511 -0.722656,-0.300781 L 16.5,12 Z m 0.5,2 c 0.0665,2e-5 0.133019,0.0028 0.199219,0.0098 0.0662,0.006 0.132035,0.0163 0.197265,0.0293 0.0659,0.0136 0.131103,0.03058 0.195313,0.05078 0.0636,0.0197 0.12618,0.04246 0.1875,0.06836 0.0613,0.0256 0.121257,0.05434 0.179687,0.08594 0.0584,0.0323 0.115072,0.0675 0.169922,0.105468 0.0554,0.0377 0.108837,0.0781 0.160156,0.121094 0.0511,0.0431 0.09999,0.0887 0.146485,0.136719 0.046,0.0473 0.0897,0.0968 0.130859,0.148437 0.0418,0.0527 0.08091,0.107443 0.117188,0.164063 0.0361,0.0562 0.06931,0.114258 0.09961,0.173828 0.0297,0.0592 0.05638,0.119801 0.08008,0.181641 0.0247,0.062 0.04615,0.125263 0.06445,0.189453 0.0176,0.0643 0.03187,0.129532 0.04297,0.195312 0.0111,0.066 0.01894,0.132459 0.02344,0.199219 C 17.998141,15.906175 18,15.95311 18,16 c -2e-5,0.0665 -0.0028,0.133019 -0.0098,0.199219 -0.006,0.0662 -0.0163,0.132035 -0.0293,0.197265 -0.0136,0.0659 -0.03058,0.131103 -0.05078,0.195313 -0.0197,0.0636 -0.04246,0.12618 -0.06836,0.1875 -0.0256,0.0613 -0.05434,0.121257 -0.08594,0.179687 -0.0323,0.0584 -0.0675,0.115072 -0.105468,0.169922 -0.0377,0.0554 -0.07809,0.108836 -0.121094,0.160156 -0.0431,0.0511 -0.0887,0.09999 -0.136719,0.146485 -0.0473,0.046 -0.09681,0.0897 -0.148437,0.130859 -0.0527,0.0418 -0.107433,0.08091 -0.164063,0.117188 -0.0562,0.0361 -0.114258,0.06931 -0.173828,0.09961 -0.0592,0.0297 -0.119801,0.05638 -0.181641,0.08008 -0.062,0.0246 -0.125263,0.04615 -0.189453,0.06445 -0.0643,0.0176 -0.129532,0.03187 -0.195312,0.04297 -0.066,0.0111 -0.132459,0.01894 -0.199219,0.02344 -0.0279,0.004 -0.05588,0.0068 -0.08398,0.0098 h -0.136719 c -0.0398,-0.002 -0.0795,-0.0048 -0.119141,-0.0098 -0.0662,-0.006 -0.132035,-0.0163 -0.197265,-0.0293 -0.0659,-0.0136 -0.131103,-0.03058 -0.195313,-0.05078 -0.0636,-0.0197 -0.12618,-0.04246 -0.1875,-0.06836 -0.0613,-0.0256 -0.121257,-0.05434 -0.179687,-0.08594 -0.0584,-0.0323 -0.115072,-0.06751 -0.169922,-0.105469 -0.0554,-0.0377 -0.108826,-0.07809 -0.160156,-0.121094 -0.0301,-0.0264 -0.05939,-0.05383 -0.08789,-0.08203 l -0.08789,-0.08789 c -0.0353,-0.0371 -0.0692,-0.0755 -0.101562,-0.115234 -0.0418,-0.0527 -0.0809,-0.107433 -0.117188,-0.164063 -0.0361,-0.0562 -0.06931,-0.114258 -0.09961,-0.173828 -0.0297,-0.0592 -0.05638,-0.1198 -0.08008,-0.18164 -0.0247,-0.062 -0.04615,-0.125263 -0.06445,-0.189454 -0.0176,-0.0644 -0.03187,-0.129532 -0.04297,-0.195312 -0.0111,-0.066 -0.01894,-0.132459 -0.02344,-0.199219 -0.004,-0.0468 -0.0059,-0.0937 -0.0059,-0.140625 2e-5,-0.0665 0.0028,-0.133019 0.0098,-0.199218 0.006,-0.0662 0.0163,-0.132036 0.0293,-0.197266 0.0136,-0.0659 0.03058,-0.131103 0.05078,-0.195313 0.0197,-0.0636 0.04246,-0.12618 0.06836,-0.1875 0.0256,-0.0613 0.05434,-0.121257 0.08594,-0.179687 0.0323,-0.0584 0.0675,-0.115072 0.105468,-0.169922 0.0377,-0.0554 0.07809,-0.108826 0.121094,-0.160156 0.0431,-0.0511 0.0887,-0.100005 0.136719,-0.146485 0.0473,-0.046 0.09681,-0.0897 0.148437,-0.130859 0.0527,-0.0418 0.107433,-0.0809 0.164063,-0.117188 0.0562,-0.0361 0.114258,-0.06931 0.173828,-0.09961 0.0592,-0.0297 0.119801,-0.05638 0.181641,-0.08008 0.062,-0.0246 0.125263,-0.04615 0.189453,-0.06445 0.0643,-0.0176 0.129532,-0.03187 0.195312,-0.04297 0.066,-0.0111 0.132459,-0.01894 0.199219,-0.02344 C 15.906075,14.004766 15.95298,14.002 16,14 Z"
         transform="translate(321,529.36218)"
         id="path4241"
         class="ColorScheme-Text"
         sodipodi:nodetypes="ccccccccccccccccccccccccccccccccccccccccccccccccccccccccccccccccccccccccccccccccccccccccccccccccccccccccccccccccccc"
         inkscape:path-effect="#path-effect1"
         inkscape:original-d="M 8,2 V 30 H 24 V 2 Z m 5,1 h 6 V 4 H 13 Z M 9,5 H 23 V 28 H 9 Z m 6.5,7 -0.277344,1.107422 c -0.25213,0.0672 -0.494403,0.166995 -0.720703,0.296875 l -0.976562,-0.585938 -0.707032,0.707032 0.585938,0.976562 c -0.13139,0.22672 -0.232511,0.469666 -0.300781,0.722656 L 12,15.5 v 1 l 1.107422,0.277344 c 0.0672,0.25213 0.166995,0.494403 0.296875,0.720703 l -0.585938,0.976562 0.707032,0.707032 0.976562,-0.585938 c 0.22672,0.13139 0.469666,0.232511 0.722656,0.300781 L 15.5,20 h 1 l 0.277344,-1.107422 c 0.25213,-0.0672 0.494403,-0.166995 0.720703,-0.296875 l 0.976562,0.585938 0.707032,-0.707032 -0.585938,-0.976562 c 0.13139,-0.22672 0.232511,-0.469666 0.300781,-0.722656 L 20,16.5 v -1 l -1.107422,-0.277344 c -0.0672,-0.25213 -0.166995,-0.494403 -0.296875,-0.720703 l 0.585938,-0.976562 -0.707032,-0.707032 -0.976562,0.585938 c -0.22672,-0.13139 -0.469666,-0.232511 -0.722656,-0.300781 L 16.5,12 Z m 0.5,2 c 0.0665,2e-5 0.133019,0.0028 0.199219,0.0098 0.0662,0.006 0.132035,0.0163 0.197265,0.0293 0.0659,0.0136 0.131103,0.03058 0.195313,0.05078 0.0636,0.0197 0.12618,0.04246 0.1875,0.06836 0.0613,0.0256 0.121257,0.05434 0.179687,0.08594 0.0584,0.0323 0.115072,0.0675 0.169922,0.105468 0.0554,0.0377 0.108837,0.0781 0.160156,0.121094 0.0511,0.0431 0.09999,0.0887 0.146485,0.136719 0.046,0.0473 0.0897,0.0968 0.130859,0.148437 0.0418,0.0527 0.08091,0.107443 0.117188,0.164063 0.0361,0.0562 0.06931,0.114258 0.09961,0.173828 0.0297,0.0592 0.05638,0.119801 0.08008,0.181641 0.0247,0.062 0.04615,0.125263 0.06445,0.189453 0.0176,0.0643 0.03187,0.129532 0.04297,0.195312 0.0111,0.066 0.01894,0.132459 0.02344,0.199219 C 17.998141,15.906175 18,15.95311 18,16 c -2e-5,0.0665 -0.0028,0.133019 -0.0098,0.199219 -0.006,0.0662 -0.0163,0.132035 -0.0293,0.197265 -0.0136,0.0659 -0.03058,0.131103 -0.05078,0.195313 -0.0197,0.0636 -0.04246,0.12618 -0.06836,0.1875 -0.0256,0.0613 -0.05434,0.121257 -0.08594,0.179687 -0.0323,0.0584 -0.0675,0.115072 -0.105468,0.169922 -0.0377,0.0554 -0.07809,0.108836 -0.121094,0.160156 -0.0431,0.0511 -0.0887,0.09999 -0.136719,0.146485 -0.0473,0.046 -0.09681,0.0897 -0.148437,0.130859 -0.0527,0.0418 -0.107433,0.08091 -0.164063,0.117188 -0.0562,0.0361 -0.114258,0.06931 -0.173828,0.09961 -0.0592,0.0297 -0.119801,0.05638 -0.181641,0.08008 -0.062,0.0246 -0.125263,0.04615 -0.189453,0.06445 -0.0643,0.0176 -0.129532,0.03187 -0.195312,0.04297 -0.066,0.0111 -0.132459,0.01894 -0.199219,0.02344 -0.0279,0.004 -0.05588,0.0068 -0.08398,0.0098 h -0.136719 c -0.0398,-0.002 -0.0795,-0.0048 -0.119141,-0.0098 -0.0662,-0.006 -0.132035,-0.0163 -0.197265,-0.0293 -0.0659,-0.0136 -0.131103,-0.03058 -0.195313,-0.05078 -0.0636,-0.0197 -0.12618,-0.04246 -0.1875,-0.06836 -0.0613,-0.0256 -0.121257,-0.05434 -0.179687,-0.08594 -0.0584,-0.0323 -0.115072,-0.06751 -0.169922,-0.105469 -0.0554,-0.0377 -0.108826,-0.07809 -0.160156,-0.121094 -0.0301,-0.0264 -0.05939,-0.05383 -0.08789,-0.08203 l -0.08789,-0.08789 c -0.0353,-0.0371 -0.0692,-0.0755 -0.101562,-0.115234 -0.0418,-0.0527 -0.0809,-0.107433 -0.117188,-0.164063 -0.0361,-0.0562 -0.06931,-0.114258 -0.09961,-0.173828 -0.0297,-0.0592 -0.05638,-0.1198 -0.08008,-0.18164 -0.0247,-0.062 -0.04615,-0.125263 -0.06445,-0.189454 -0.0176,-0.0644 -0.03187,-0.129532 -0.04297,-0.195312 -0.0111,-0.066 -0.01894,-0.132459 -0.02344,-0.199219 -0.004,-0.0468 -0.0059,-0.0937 -0.0059,-0.140625 2e-5,-0.0665 0.0028,-0.133019 0.0098,-0.199218 0.006,-0.0662 0.0163,-0.132036 0.0293,-0.197266 0.0136,-0.0659 0.03058,-0.131103 0.05078,-0.195313 0.0197,-0.0636 0.04246,-0.12618 0.06836,-0.1875 0.0256,-0.0613 0.05434,-0.121257 0.08594,-0.179687 0.0323,-0.0584 0.0675,-0.115072 0.105468,-0.169922 0.0377,-0.0554 0.07809,-0.108826 0.121094,-0.160156 0.0431,-0.0511 0.0887,-0.100005 0.136719,-0.146485 0.0473,-0.046 0.09681,-0.0897 0.148437,-0.130859 0.0527,-0.0418 0.107433,-0.0809 0.164063,-0.117188 0.0562,-0.0361 0.114258,-0.06931 0.173828,-0.09961 0.0592,-0.0297 0.119801,-0.05638 0.181641,-0.08008 0.062,-0.0246 0.125263,-0.04615 0.189453,-0.06445 0.0643,-0.0176 0.129532,-0.03187 0.195312,-0.04297 0.066,-0.0111 0.132459,-0.01894 0.199219,-0.02344 C 15.906075,14.004766 15.95298,14.002 16,14 Z" /></g><g
       id="16-16-kdeconnect"><rect
         y="537.36218"
         x="303"
         height="16"
         width="16"
         id="rect4442"
         style="opacity:1;fill:none;fill-opacity:1;stroke:none;stroke-width:0.10079043;stroke-linecap:square;stroke-linejoin:miter;stroke-miterlimit:4;stroke-dasharray:none;stroke-dashoffset:0;stroke-opacity:1" /><path
         style="color:#31363b;fill:#dfdfdf;fill-opacity:1;stroke:none"
         d="M 8,4.9707487 V 27.029251 A 2.9707487,2.9707487 45 0 0 10.970749,30 H 21.029251 A 2.9707487,2.9707487 135 0 0 24,27.029251 L 24,4.9707487 A 2.9707487,2.9707487 45 0 0 21.029251,2 H 10.970749 A 2.9707487,2.9707487 135 0 0 8,4.9707487 Z M 13.494264,3 h 5.011472 A 0.49426441,0.49426441 45 0 1 19,3.4942644 v 0.011471 A 0.49426441,0.49426441 135 0 1 18.505736,4 H 13.494264 A 0.49426441,0.49426441 45 0 1 13,3.5057356 V 3.4942644 A 0.49426441,0.49426441 135 0 1 13.494264,3 Z M 10.593746,5 H 21.406254 A 1.5937459,1.5937459 45 0 1 23,6.5937459 V 26.406254 A 1.5937459,1.5937459 135 0 1 21.406254,28 H 10.593746 A 1.5937459,1.5937459 45 0 1 9,26.406254 V 6.5937459 A 1.5937459,1.5937459 135 0 1 10.593746,5 Z m 4.664573,5.066554 -0.411401,1.642707 c -0.374,0.09968 -0.733379,0.247714 -1.069063,0.440373 l -1.448595,-0.869158 -1.048784,1.048784 0.869158,1.448595 c -0.194899,0.336307 -0.344898,0.696684 -0.446167,1.07196 l -1.636913,0.408504 v 1.483362 l 1.642707,0.411401 c 0.09968,0.374 0.247714,0.733379 0.440373,1.069063 l -0.869158,1.448595 1.048784,1.048784 1.448595,-0.869158 c 0.336307,0.194899 0.696684,0.344898 1.07196,0.446167 l 0.408504,1.636913 h 1.483362 l 0.411401,-1.642707 c 0.374,-0.09968 0.733379,-0.247714 1.069063,-0.440373 l 1.448595,0.869158 1.048784,-1.048784 -0.869158,-1.448595 c 0.194899,-0.336307 0.344898,-0.696684 0.446167,-1.07196 l 1.636913,-0.408504 v -1.483362 l -1.642707,-0.411401 c -0.09968,-0.374 -0.247714,-0.733379 -0.440373,-1.069063 l 0.869158,-1.448595 -1.048784,-1.048784 -1.448595,0.869158 c -0.336307,-0.194899 -0.696684,-0.344898 -1.07196,-0.446167 L 16.741681,10.066554 Z M 16,13.033277 c 0.09864,3e-5 0.197315,0.0042 0.295514,0.01454 0.0982,0.0089 0.195855,0.02418 0.292615,0.04346 0.09775,0.02017 0.194473,0.04536 0.28972,0.07532 0.09434,0.02922 0.18717,0.06298 0.27813,0.101403 0.09093,0.03797 0.179868,0.08061 0.266541,0.12748 0.08663,0.04791 0.170693,0.100127 0.252056,0.156447 0.08218,0.05592 0.161444,0.115851 0.237569,0.179627 0.0758,0.06393 0.148321,0.131574 0.21729,0.202803 0.06823,0.07016 0.133058,0.14359 0.194111,0.220186 0.062,0.07817 0.120019,0.159377 0.173833,0.243365 0.05355,0.08337 0.102811,0.169486 0.147757,0.257849 0.04406,0.08781 0.08363,0.177709 0.118788,0.26944 0.03664,0.09197 0.06846,0.18581 0.0956,0.281027 0.02611,0.09538 0.04728,0.192143 0.06374,0.289718 0.01647,0.0979 0.02809,0.196485 0.03477,0.295514 0.0059,0.06936 0.0087,0.138985 0.0087,0.20854 -3e-5,0.09864 -0.0042,0.197315 -0.01454,0.295514 -0.0089,0.0982 -0.02418,0.195855 -0.04346,0.292615 -0.02017,0.09775 -0.04536,0.194473 -0.07532,0.28972 -0.02922,0.09434 -0.06298,0.18717 -0.101403,0.27813 -0.03797,0.09093 -0.08061,0.179868 -0.12748,0.266541 -0.04791,0.08663 -0.100127,0.170693 -0.156447,0.252056 -0.05592,0.08218 -0.115836,0.161443 -0.179627,0.237569 -0.06393,0.0758 -0.131574,0.148321 -0.202803,0.21729 -0.07016,0.06823 -0.143604,0.133058 -0.220186,0.194111 -0.07817,0.062 -0.159362,0.120019 -0.243365,0.173833 -0.08336,0.05355 -0.169486,0.102811 -0.257849,0.147757 -0.08782,0.04406 -0.177709,0.08363 -0.26944,0.118788 -0.09197,0.03649 -0.18581,0.06846 -0.281027,0.0956 -0.09538,0.02611 -0.192143,0.04728 -0.289718,0.06374 -0.0979,0.01647 -0.196485,0.02809 -0.295514,0.03477 -0.04139,0.0059 -0.08289,0.01009 -0.124573,0.01454 h -0.202804 c -0.05904,-0.003 -0.117927,-0.0071 -0.176729,-0.01454 -0.0982,-0.0089 -0.195855,-0.02418 -0.292615,-0.04346 -0.09775,-0.02017 -0.194473,-0.04536 -0.28972,-0.07533 -0.09434,-0.02922 -0.18717,-0.06298 -0.27813,-0.101403 -0.09093,-0.03797 -0.179868,-0.08061 -0.266541,-0.12748 -0.08663,-0.04791 -0.170693,-0.100142 -0.252056,-0.156448 -0.08218,-0.05592 -0.161428,-0.115836 -0.237569,-0.179627 -0.04465,-0.03916 -0.0881,-0.07985 -0.130373,-0.12168 L 13.827073,18.02223 c -0.05236,-0.05503 -0.102649,-0.111994 -0.150653,-0.170934 -0.06201,-0.07817 -0.120004,-0.159362 -0.173833,-0.243365 -0.05355,-0.08337 -0.102811,-0.169486 -0.147757,-0.25785 -0.04406,-0.08782 -0.08363,-0.177706 -0.118788,-0.269437 -0.03664,-0.09197 -0.06846,-0.185811 -0.0956,-0.281029 -0.02611,-0.09553 -0.04728,-0.192143 -0.06374,-0.289718 -0.01647,-0.0979 -0.02809,-0.196485 -0.03477,-0.295514 -0.0059,-0.06942 -0.0088,-0.138991 -0.0088,-0.208598 2.9e-5,-0.09864 0.0042,-0.197315 0.01454,-0.295512 0.0089,-0.0982 0.02418,-0.195857 0.04346,-0.292617 0.02017,-0.09775 0.04536,-0.194473 0.07532,-0.28972 0.02922,-0.09434 0.06298,-0.18717 0.101403,-0.27813 0.03797,-0.09093 0.08061,-0.179868 0.12748,-0.266541 0.04791,-0.08663 0.100127,-0.170693 0.156447,-0.252056 0.05592,-0.08218 0.115836,-0.161428 0.179626,-0.237569 0.06393,-0.0758 0.131574,-0.148344 0.202804,-0.21729 0.07016,-0.06824 0.143604,-0.133058 0.220186,-0.194111 0.07817,-0.062 0.159362,-0.120004 0.243364,-0.173833 0.08336,-0.05355 0.169486,-0.102811 0.25785,-0.147757 0.08781,-0.04406 0.177708,-0.08363 0.26944,-0.118788 0.09197,-0.03649 0.18581,-0.06846 0.281027,-0.0956 0.09538,-0.02611 0.192143,-0.04727 0.289718,-0.06374 0.0979,-0.01647 0.196485,-0.0281 0.295514,-0.03477 0.06933,-0.0074 0.138906,-0.01151 0.208654,-0.01448 z"
         transform="matrix(0.50000123,0,0,0.50000123,302.99997,537.36216)"
         id="path4241-1"
         class="ColorScheme-Text"
         sodipodi:nodetypes="ccccccccccccccccccccccccccccccccccccccccccccccccccccccccccccccccccccccccccccccccccccccccccccccccccccccccccccccccccc"
         inkscape:path-effect="#path-effect1-0"
         inkscape:original-d="M 8,2 V 30 H 24 V 2 Z m 5,1 h 6 V 4 H 13 Z M 9,5 H 23 V 28 H 9 Z m 6.258319,5.066554 -0.411401,1.642707 c -0.374,0.09968 -0.733379,0.247714 -1.069063,0.440373 l -1.448595,-0.869158 -1.048784,1.048784 0.869158,1.448595 c -0.194899,0.336307 -0.344898,0.696684 -0.446167,1.07196 l -1.636913,0.408504 v 1.483362 l 1.642707,0.411401 c 0.09968,0.374 0.247714,0.733379 0.440373,1.069063 l -0.869158,1.448595 1.048784,1.048784 1.448595,-0.869158 c 0.336307,0.194899 0.696684,0.344898 1.07196,0.446167 l 0.408504,1.636913 h 1.483362 l 0.411401,-1.642707 c 0.374,-0.09968 0.733379,-0.247714 1.069063,-0.440373 l 1.448595,0.869158 1.048784,-1.048784 -0.869158,-1.448595 c 0.194899,-0.336307 0.344898,-0.696684 0.446167,-1.07196 l 1.636913,-0.408504 v -1.483362 l -1.642707,-0.411401 c -0.09968,-0.374 -0.247714,-0.733379 -0.440373,-1.069063 l 0.869158,-1.448595 -1.048784,-1.048784 -1.448595,0.869158 c -0.336307,-0.194899 -0.696684,-0.344898 -1.07196,-0.446167 L 16.741681,10.066554 Z M 16,13.033277 c 0.09864,3e-5 0.197315,0.0042 0.295514,0.01454 0.0982,0.0089 0.195855,0.02418 0.292615,0.04346 0.09775,0.02017 0.194473,0.04536 0.28972,0.07532 0.09434,0.02922 0.18717,0.06298 0.27813,0.101403 0.09093,0.03797 0.179868,0.08061 0.266541,0.12748 0.08663,0.04791 0.170693,0.100127 0.252056,0.156447 0.08218,0.05592 0.161444,0.115851 0.237569,0.179627 0.0758,0.06393 0.148321,0.131574 0.21729,0.202803 0.06823,0.07016 0.133058,0.14359 0.194111,0.220186 0.062,0.07817 0.120019,0.159377 0.173833,0.243365 0.05355,0.08337 0.102811,0.169486 0.147757,0.257849 0.04406,0.08781 0.08363,0.177709 0.118788,0.26944 0.03664,0.09197 0.06846,0.18581 0.0956,0.281027 0.02611,0.09538 0.04728,0.192143 0.06374,0.289718 0.01647,0.0979 0.02809,0.196485 0.03477,0.295514 0.0059,0.06936 0.0087,0.138985 0.0087,0.20854 -3e-5,0.09864 -0.0042,0.197315 -0.01454,0.295514 -0.0089,0.0982 -0.02418,0.195855 -0.04346,0.292615 -0.02017,0.09775 -0.04536,0.194473 -0.07532,0.28972 -0.02922,0.09434 -0.06298,0.18717 -0.101403,0.27813 -0.03797,0.09093 -0.08061,0.179868 -0.12748,0.266541 -0.04791,0.08663 -0.100127,0.170693 -0.156447,0.252056 -0.05592,0.08218 -0.115836,0.161443 -0.179627,0.237569 -0.06393,0.0758 -0.131574,0.148321 -0.202803,0.21729 -0.07016,0.06823 -0.143604,0.133058 -0.220186,0.194111 -0.07817,0.062 -0.159362,0.120019 -0.243365,0.173833 -0.08336,0.05355 -0.169486,0.102811 -0.257849,0.147757 -0.08782,0.04406 -0.177709,0.08363 -0.26944,0.118788 -0.09197,0.03649 -0.18581,0.06846 -0.281027,0.0956 -0.09538,0.02611 -0.192143,0.04728 -0.289718,0.06374 -0.0979,0.01647 -0.196485,0.02809 -0.295514,0.03477 -0.04139,0.0059 -0.08289,0.01009 -0.124573,0.01454 h -0.202804 c -0.05904,-0.003 -0.117927,-0.0071 -0.176729,-0.01454 -0.0982,-0.0089 -0.195855,-0.02418 -0.292615,-0.04346 -0.09775,-0.02017 -0.194473,-0.04536 -0.28972,-0.07533 -0.09434,-0.02922 -0.18717,-0.06298 -0.27813,-0.101403 -0.09093,-0.03797 -0.179868,-0.08061 -0.266541,-0.12748 -0.08663,-0.04791 -0.170693,-0.100142 -0.252056,-0.156448 -0.08218,-0.05592 -0.161428,-0.115836 -0.237569,-0.179627 -0.04465,-0.03916 -0.0881,-0.07985 -0.130373,-0.12168 l -0.130372,-0.130372 c -0.05236,-0.05503 -0.102649,-0.111994 -0.150653,-0.170934 -0.06201,-0.07817 -0.120004,-0.159362 -0.173833,-0.243365 -0.05355,-0.08337 -0.102811,-0.169486 -0.147757,-0.25785 -0.04406,-0.08782 -0.08363,-0.177706 -0.118788,-0.269437 -0.03664,-0.09197 -0.06846,-0.185811 -0.0956,-0.281029 -0.02611,-0.09553 -0.04728,-0.192143 -0.06374,-0.289718 -0.01647,-0.0979 -0.02809,-0.196485 -0.03477,-0.295514 -0.0059,-0.06942 -0.0088,-0.138991 -0.0088,-0.208598 2.9e-5,-0.09864 0.0042,-0.197315 0.01454,-0.295512 0.0089,-0.0982 0.02418,-0.195857 0.04346,-0.292617 0.02017,-0.09775 0.04536,-0.194473 0.07532,-0.28972 0.02922,-0.09434 0.06298,-0.18717 0.101403,-0.27813 0.03797,-0.09093 0.08061,-0.179868 0.12748,-0.266541 0.04791,-0.08663 0.100127,-0.170693 0.156447,-0.252056 0.05592,-0.08218 0.115836,-0.161428 0.179626,-0.237569 0.06393,-0.0758 0.131574,-0.148344 0.202804,-0.21729 0.07016,-0.06824 0.143604,-0.133058 0.220186,-0.194111 0.07817,-0.062 0.159362,-0.120004 0.243364,-0.173833 0.08336,-0.05355 0.169486,-0.102811 0.25785,-0.147757 0.08781,-0.04406 0.177708,-0.08363 0.26944,-0.118788 0.09197,-0.03649 0.18581,-0.06846 0.281027,-0.0956 0.09538,-0.02611 0.192143,-0.04727 0.289718,-0.06374 0.0979,-0.01647 0.196485,-0.0281 0.295514,-0.03477 0.06933,-0.0074 0.138906,-0.01151 0.208654,-0.01448 z" /></g><g
       id="22-22-kdeconnect"
       transform="translate(-1,0)"><rect
         style="opacity:1;fill:none;fill-opacity:1;stroke:none;stroke-width:0.13858683;stroke-linecap:square;stroke-linejoin:miter;stroke-miterlimit:4;stroke-dasharray:none;stroke-dashoffset:0;stroke-opacity:1"
         id="rect4444"
         width="22"
         height="22"
         x="356"
         y="534.36218" /><path
         style="color:#31363b;fill:#dfdfdf;fill-opacity:1;stroke:none"
         d="M 8,5.2385194 V 26.761481 A 3.2385194,3.2385194 45 0 0 11.238519,30 h 9.522962 A 3.2385194,3.2385194 135 0 0 24,26.761481 V 5.2385194 A 3.2385194,3.2385194 45 0 0 20.761481,2 H 11.238519 A 3.2385194,3.2385194 135 0 0 8,5.2385194 Z M 13.494264,3 h 5.011472 A 0.49426441,0.49426441 45 0 1 19,3.4942644 v 0.011471 A 0.49426441,0.49426441 135 0 1 18.505736,4 H 13.494264 A 0.49426441,0.49426441 45 0 1 13,3.5057356 V 3.4942644 A 0.49426441,0.49426441 135 0 1 13.494264,3 Z M 10.601038,5 H 21.398962 A 1.6010381,1.6010381 45 0 1 23,6.6010381 V 26.398962 A 1.6010381,1.6010381 135 0 1 21.398962,28 H 10.601038 A 1.6010381,1.6010381 45 0 1 9,26.398962 L 9,6.6010381 A 1.6010381,1.6010381 135 0 1 10.601038,5 Z M 15.5,12 15.222656,13.107422 c -0.25213,0.0672 -0.494403,0.166995 -0.720703,0.296875 l -0.976562,-0.585938 -0.707032,0.707032 0.585938,0.976562 c -0.13139,0.22672 -0.232511,0.469666 -0.300781,0.722656 L 12,15.5 v 1 l 1.107422,0.277344 c 0.0672,0.25213 0.166995,0.494403 0.296875,0.720703 l -0.585938,0.976562 0.707032,0.707032 0.976562,-0.585938 c 0.22672,0.13139 0.469666,0.232511 0.722656,0.300781 L 15.5,20 h 1 l 0.277344,-1.107422 c 0.25213,-0.0672 0.494403,-0.166995 0.720703,-0.296875 l 0.976562,0.585938 0.707032,-0.707032 -0.585938,-0.976562 c 0.13139,-0.22672 0.232511,-0.469666 0.300781,-0.722656 L 20,16.5 v -1 l -1.107422,-0.277344 c -0.0672,-0.25213 -0.166995,-0.494403 -0.296875,-0.720703 l 0.585938,-0.976562 -0.707032,-0.707032 -0.976562,0.585938 c -0.22672,-0.13139 -0.469666,-0.232511 -0.722656,-0.300781 L 16.5,12 Z m 0.5,2 c 0.0665,2e-5 0.133019,0.0028 0.199219,0.0098 0.0662,0.006 0.132035,0.0163 0.197265,0.0293 0.0659,0.0136 0.131103,0.03058 0.195313,0.05078 0.0636,0.0197 0.12618,0.04246 0.1875,0.06836 0.0613,0.0256 0.121257,0.05434 0.179687,0.08594 0.0584,0.0323 0.115072,0.0675 0.169922,0.105468 0.0554,0.0377 0.108837,0.0781 0.160156,0.121094 0.0511,0.0431 0.09999,0.0887 0.146485,0.136719 0.046,0.0473 0.0897,0.0968 0.130859,0.148437 0.0418,0.0527 0.08091,0.107443 0.117188,0.164063 0.0361,0.0562 0.06931,0.114258 0.09961,0.173828 0.0297,0.0592 0.05638,0.119801 0.08008,0.181641 0.0247,0.062 0.04615,0.125263 0.06445,0.189453 0.0176,0.0643 0.03187,0.129532 0.04297,0.195312 0.0111,0.066 0.01894,0.132459 0.02344,0.199219 C 17.998141,15.906175 18,15.95311 18,16 c -2e-5,0.0665 -0.0028,0.133019 -0.0098,0.199219 -0.006,0.0662 -0.0163,0.132035 -0.0293,0.197265 -0.0136,0.0659 -0.03058,0.131103 -0.05078,0.195313 -0.0197,0.0636 -0.04246,0.12618 -0.06836,0.1875 -0.0256,0.0613 -0.05434,0.121257 -0.08594,0.179687 -0.0323,0.0584 -0.0675,0.115072 -0.105468,0.169922 -0.0377,0.0554 -0.07809,0.108836 -0.121094,0.160156 -0.0431,0.0511 -0.0887,0.09999 -0.136719,0.146485 -0.0473,0.046 -0.09681,0.0897 -0.148437,0.130859 -0.0527,0.0418 -0.107433,0.08091 -0.164063,0.117188 -0.0562,0.0361 -0.114258,0.06931 -0.173828,0.09961 -0.0592,0.0297 -0.119801,0.05638 -0.181641,0.08008 -0.062,0.0246 -0.125263,0.04615 -0.189453,0.06445 -0.0643,0.0176 -0.129532,0.03187 -0.195312,0.04297 -0.066,0.0111 -0.132459,0.01894 -0.199219,0.02344 -0.0279,0.004 -0.05588,0.0068 -0.08398,0.0098 h -0.136719 c -0.0398,-0.002 -0.0795,-0.0048 -0.119141,-0.0098 -0.0662,-0.006 -0.132035,-0.0163 -0.197265,-0.0293 -0.0659,-0.0136 -0.131103,-0.03058 -0.195313,-0.05078 -0.0636,-0.0197 -0.12618,-0.04246 -0.1875,-0.06836 -0.0613,-0.0256 -0.121257,-0.05434 -0.179687,-0.08594 -0.0584,-0.0323 -0.115072,-0.06751 -0.169922,-0.105469 -0.0554,-0.0377 -0.108826,-0.07809 -0.160156,-0.121094 -0.0301,-0.0264 -0.05939,-0.05383 -0.08789,-0.08203 l -0.08789,-0.08789 c -0.0353,-0.0371 -0.0692,-0.0755 -0.101562,-0.115234 -0.0418,-0.0527 -0.0809,-0.107433 -0.117188,-0.164063 -0.0361,-0.0562 -0.06931,-0.114258 -0.09961,-0.173828 -0.0297,-0.0592 -0.05638,-0.1198 -0.08008,-0.18164 -0.0247,-0.062 -0.04615,-0.125263 -0.06445,-0.189454 -0.0176,-0.0644 -0.03187,-0.129532 -0.04297,-0.195312 -0.0111,-0.066 -0.01894,-0.132459 -0.02344,-0.199219 -0.004,-0.0468 -0.0059,-0.0937 -0.0059,-0.140625 2e-5,-0.0665 0.0028,-0.133019 0.0098,-0.199218 0.006,-0.0662 0.0163,-0.132036 0.0293,-0.197266 0.0136,-0.0659 0.03058,-0.131103 0.05078,-0.195313 0.0197,-0.0636 0.04246,-0.12618 0.06836,-0.1875 0.0256,-0.0613 0.05434,-0.121257 0.08594,-0.179687 0.0323,-0.0584 0.0675,-0.115072 0.105468,-0.169922 0.0377,-0.0554 0.07809,-0.108826 0.121094,-0.160156 0.0431,-0.0511 0.0887,-0.100005 0.136719,-0.146485 0.0473,-0.046 0.09681,-0.0897 0.148437,-0.130859 0.0527,-0.0418 0.107433,-0.0809 0.164063,-0.117188 0.0562,-0.0361 0.114258,-0.06931 0.173828,-0.09961 0.0592,-0.0297 0.119801,-0.05638 0.181641,-0.08008 0.062,-0.0246 0.125263,-0.04615 0.189453,-0.06445 0.0643,-0.0176 0.129532,-0.03187 0.195312,-0.04297 0.066,-0.0111 0.132459,-0.01894 0.199219,-0.02344 C 15.906075,14.004766 15.95298,14.002 16,14 Z"
         transform="matrix(0.625,0,0,0.625,357,535.11218)"
         id="path4241-6"
         class="ColorScheme-Text"
         sodipodi:nodetypes="ccccccccccccccccccccccccccccccccccccccccccccccccccccccccccccccccccccccccccccccccccccccccccccccccccccccccccccccccccc"
         inkscape:path-effect="#path-effect1-4"
         inkscape:original-d="M 8,2 V 30 H 24 V 2 Z m 5,1 h 6 V 4 H 13 Z M 9,5 H 23 V 28 H 9 Z m 6.5,7 -0.277344,1.107422 c -0.25213,0.0672 -0.494403,0.166995 -0.720703,0.296875 l -0.976562,-0.585938 -0.707032,0.707032 0.585938,0.976562 c -0.13139,0.22672 -0.232511,0.469666 -0.300781,0.722656 L 12,15.5 v 1 l 1.107422,0.277344 c 0.0672,0.25213 0.166995,0.494403 0.296875,0.720703 l -0.585938,0.976562 0.707032,0.707032 0.976562,-0.585938 c 0.22672,0.13139 0.469666,0.232511 0.722656,0.300781 L 15.5,20 h 1 l 0.277344,-1.107422 c 0.25213,-0.0672 0.494403,-0.166995 0.720703,-0.296875 l 0.976562,0.585938 0.707032,-0.707032 -0.585938,-0.976562 c 0.13139,-0.22672 0.232511,-0.469666 0.300781,-0.722656 L 20,16.5 v -1 l -1.107422,-0.277344 c -0.0672,-0.25213 -0.166995,-0.494403 -0.296875,-0.720703 l 0.585938,-0.976562 -0.707032,-0.707032 -0.976562,0.585938 c -0.22672,-0.13139 -0.469666,-0.232511 -0.722656,-0.300781 L 16.5,12 Z m 0.5,2 c 0.0665,2e-5 0.133019,0.0028 0.199219,0.0098 0.0662,0.006 0.132035,0.0163 0.197265,0.0293 0.0659,0.0136 0.131103,0.03058 0.195313,0.05078 0.0636,0.0197 0.12618,0.04246 0.1875,0.06836 0.0613,0.0256 0.121257,0.05434 0.179687,0.08594 0.0584,0.0323 0.115072,0.0675 0.169922,0.105468 0.0554,0.0377 0.108837,0.0781 0.160156,0.121094 0.0511,0.0431 0.09999,0.0887 0.146485,0.136719 0.046,0.0473 0.0897,0.0968 0.130859,0.148437 0.0418,0.0527 0.08091,0.107443 0.117188,0.164063 0.0361,0.0562 0.06931,0.114258 0.09961,0.173828 0.0297,0.0592 0.05638,0.119801 0.08008,0.181641 0.0247,0.062 0.04615,0.125263 0.06445,0.189453 0.0176,0.0643 0.03187,0.129532 0.04297,0.195312 0.0111,0.066 0.01894,0.132459 0.02344,0.199219 C 17.998141,15.906175 18,15.95311 18,16 c -2e-5,0.0665 -0.0028,0.133019 -0.0098,0.199219 -0.006,0.0662 -0.0163,0.132035 -0.0293,0.197265 -0.0136,0.0659 -0.03058,0.131103 -0.05078,0.195313 -0.0197,0.0636 -0.04246,0.12618 -0.06836,0.1875 -0.0256,0.0613 -0.05434,0.121257 -0.08594,0.179687 -0.0323,0.0584 -0.0675,0.115072 -0.105468,0.169922 -0.0377,0.0554 -0.07809,0.108836 -0.121094,0.160156 -0.0431,0.0511 -0.0887,0.09999 -0.136719,0.146485 -0.0473,0.046 -0.09681,0.0897 -0.148437,0.130859 -0.0527,0.0418 -0.107433,0.08091 -0.164063,0.117188 -0.0562,0.0361 -0.114258,0.06931 -0.173828,0.09961 -0.0592,0.0297 -0.119801,0.05638 -0.181641,0.08008 -0.062,0.0246 -0.125263,0.04615 -0.189453,0.06445 -0.0643,0.0176 -0.129532,0.03187 -0.195312,0.04297 -0.066,0.0111 -0.132459,0.01894 -0.199219,0.02344 -0.0279,0.004 -0.05588,0.0068 -0.08398,0.0098 h -0.136719 c -0.0398,-0.002 -0.0795,-0.0048 -0.119141,-0.0098 -0.0662,-0.006 -0.132035,-0.0163 -0.197265,-0.0293 -0.0659,-0.0136 -0.131103,-0.03058 -0.195313,-0.05078 -0.0636,-0.0197 -0.12618,-0.04246 -0.1875,-0.06836 -0.0613,-0.0256 -0.121257,-0.05434 -0.179687,-0.08594 -0.0584,-0.0323 -0.115072,-0.06751 -0.169922,-0.105469 -0.0554,-0.0377 -0.108826,-0.07809 -0.160156,-0.121094 -0.0301,-0.0264 -0.05939,-0.05383 -0.08789,-0.08203 l -0.08789,-0.08789 c -0.0353,-0.0371 -0.0692,-0.0755 -0.101562,-0.115234 -0.0418,-0.0527 -0.0809,-0.107433 -0.117188,-0.164063 -0.0361,-0.0562 -0.06931,-0.114258 -0.09961,-0.173828 -0.0297,-0.0592 -0.05638,-0.1198 -0.08008,-0.18164 -0.0247,-0.062 -0.04615,-0.125263 -0.06445,-0.189454 -0.0176,-0.0644 -0.03187,-0.129532 -0.04297,-0.195312 -0.0111,-0.066 -0.01894,-0.132459 -0.02344,-0.199219 -0.004,-0.0468 -0.0059,-0.0937 -0.0059,-0.140625 2e-5,-0.0665 0.0028,-0.133019 0.0098,-0.199218 0.006,-0.0662 0.0163,-0.132036 0.0293,-0.197266 0.0136,-0.0659 0.03058,-0.131103 0.05078,-0.195313 0.0197,-0.0636 0.04246,-0.12618 0.06836,-0.1875 0.0256,-0.0613 0.05434,-0.121257 0.08594,-0.179687 0.0323,-0.0584 0.0675,-0.115072 0.105468,-0.169922 0.0377,-0.0554 0.07809,-0.108826 0.121094,-0.160156 0.0431,-0.0511 0.0887,-0.100005 0.136719,-0.146485 0.0473,-0.046 0.09681,-0.0897 0.148437,-0.130859 0.0527,-0.0418 0.107433,-0.0809 0.164063,-0.117188 0.0562,-0.0361 0.114258,-0.06931 0.173828,-0.09961 0.0592,-0.0297 0.119801,-0.05638 0.181641,-0.08008 0.062,-0.0246 0.125263,-0.04615 0.189453,-0.06445 0.0643,-0.0176 0.129532,-0.03187 0.195312,-0.04297 0.066,-0.0111 0.132459,-0.01894 0.199219,-0.02344 C 15.906075,14.004766 15.95298,14.002 16,14 Z" /></g></g></svg>
