<?xml version="1.0" encoding="UTF-8" standalone="no"?>
<svg
   version="1.1"
   width="54"
   height="32.000011"
   id="svg2"
   viewBox="0 0 54 32.000011"
   sodipodi:docname="keyboard.svg"
   xml:space="preserve"
   inkscape:version="1.3 (0e150ed6c4, 2023-07-21)"
   xmlns:inkscape="http://www.inkscape.org/namespaces/inkscape"
   xmlns:sodipodi="http://sodipodi.sourceforge.net/DTD/sodipodi-0.dtd"
   xmlns="http://www.w3.org/2000/svg"
   xmlns:svg="http://www.w3.org/2000/svg"
   xmlns:rdf="http://www.w3.org/1999/02/22-rdf-syntax-ns#"
   xmlns:cc="http://creativecommons.org/ns#"
   xmlns:dc="http://purl.org/dc/elements/1.1/"><sodipodi:namedview
     id="namedview1"
     pagecolor="#ffffff"
     bordercolor="#000000"
     borderopacity="0.25"
     inkscape:showpageshadow="2"
     inkscape:pageopacity="0.0"
     inkscape:pagecheckerboard="0"
     inkscape:deskcolor="#d1d1d1"
     inkscape:zoom="11.12037"
     inkscape:cx="22.391341"
     inkscape:cy="12.454621"
     inkscape:window-width="2194"
     inkscape:window-height="1211"
     inkscape:window-x="-8"
     inkscape:window-y="-8"
     inkscape:window-maximized="1"
     inkscape:current-layer="svg2" /><defs
     id="defs4"><style
       type="text/css"
       id="current-color-scheme">&#10;      .ColorScheme-Text {&#10;        color:#31363b;&#10;      }&#10;      .ColorScheme-Background {&#10;        color:#eff0f1;&#10;      }&#10;      .ColorScheme-Highlight {&#10;        color:#3daee9;&#10;      }&#10;      .ColorScheme-ViewText {&#10;        color:#31363b;&#10;      }&#10;      .ColorScheme-ViewBackground {&#10;        color:#fcfcfc;&#10;      }&#10;      .ColorScheme-ViewHover {&#10;        color:#93cee9;&#10;      }&#10;      .ColorScheme-ViewFocus{&#10;        color:#3daee9;&#10;      }&#10;      .ColorScheme-ButtonText {&#10;        color:#31363b;&#10;      }&#10;      .ColorScheme-ButtonBackground {&#10;        color:#eff0f1;&#10;      }&#10;      .ColorScheme-ButtonHover {&#10;        color:#93cee9;&#10;      }&#10;      .ColorScheme-ButtonFocus{&#10;        color:#3daee9;&#10;      }&#10;      </style><style
       id="current-color-scheme-9"
       type="text/css">&#10;   .ColorScheme-Text { color:#dfdfdf; } .ColorScheme-Highlight { color:#4285f4; } .ColorScheme-NeutralText { color:#ff9800; } .ColorScheme-PositiveText { color:#4caf50; } .ColorScheme-NegativeText { color:#f44336; }&#10;  </style></defs><metadata
     id="metadata7"><rdf:RDF><cc:Work
         rdf:about=""><dc:format>image/svg+xml</dc:format><dc:type
           rdf:resource="http://purl.org/dc/dcmitype/StillImage" /><dc:title /></cc:Work></rdf:RDF></metadata><g
     transform="translate(0,10.00001)"
     id="22-22-keyboard-layout"><rect
       style="fill:none;fill-rule:evenodd;stroke:none;stroke-width:1px;stroke-linecap:butt;stroke-linejoin:miter;stroke-opacity:1"
       id="rect4209"
       width="22"
       height="22"
       x="0"
       y="0" /><path
       style="color:#dfdfdf;fill:currentColor;stroke-width:1.20001"
       class="ColorScheme-Text"
       d="m 4.4,3.8000002 c -1.3296003,0 -2.4,1.0704001 -2.4,2.3999997 V 15.8 c 0,1.3296 1.0703997,2.4 2.4,2.4 h 13.2 c 1.3296,0 2.4,-1.0704 2.4,-2.4 V 6.1999999 C 20,4.8704003 18.9296,3.8000002 17.6,3.8000002 Z m 0.3,2.3999997 h 1.8000002 c 0.1661998,0 0.2999999,0.1338001 0.2999999,0.3 V 8.3000001 C 6.8000001,8.4662 6.6662,8.6 6.5000002,8.6 H 4.7 C 4.5338001,8.6 4.4,8.4662 4.4,8.3000001 V 6.4999999 c 0,-0.1661999 0.1338001,-0.3 0.3,-0.3 z m 3.5999997,0 h 1.8000013 c 0.166199,0 0.3,0.1338001 0.3,0.3 V 8.3000001 C 10.400001,8.4662 10.2662,8.6 10.100001,8.6 H 8.2999997 C 8.1337998,8.6 7.9999998,8.4662 7.9999998,8.3000001 V 6.4999999 c 0,-0.1661999 0.1338,-0.3 0.2999999,-0.3 z m 3.6000013,0 h 1.8 c 0.166799,0 0.3,0.1338001 0.3,0.3 V 8.3000001 C 14.000001,8.4662 13.8668,8.6 13.700001,8.6 h -1.8 c -0.166801,0 -0.3,-0.1338 -0.3,-0.2999999 V 6.4999999 c 0,-0.1661999 0.133199,-0.3 0.3,-0.3 z m 3.599999,0 h 1.8 c 0.1668,0 0.3,0.1338001 0.3,0.3 V 8.3000001 C 17.6,8.4662 17.4668,8.6 17.3,8.6 H 15.5 C 15.333201,8.6 15.2,8.4662 15.2,8.3000001 V 6.4999999 c 0,-0.1661999 0.133201,-0.3 0.3,-0.3 z M 4.7,9.8000009 h 1.8000002 c 0.1661998,0 0.2999999,0.1332 0.2999999,0.3000001 v 1.8 c 0,0.166799 -0.1338001,0.3 -0.2999999,0.3 H 4.7 c -0.1661999,0 -0.3,-0.133201 -0.3,-0.3 v -1.8 C 4.4,9.9332009 4.5338001,9.8000009 4.7,9.8000009 Z m 3.5999997,0 h 1.8000013 c 0.166199,0 0.3,0.1332 0.3,0.3000001 v 1.8 c 0,0.166799 -0.133801,0.3 -0.3,0.3 H 8.2999997 c -0.1661999,0 -0.2999999,-0.133201 -0.2999999,-0.3 v -1.8 c 0,-0.1668001 0.1338,-0.3000001 0.2999999,-0.3000001 z m 3.6000013,0 h 1.8 c 0.166799,0 0.3,0.1332 0.3,0.3000001 v 1.8 c 0,0.166799 -0.133201,0.3 -0.3,0.3 h -1.8 c -0.166801,0 -0.3,-0.133201 -0.3,-0.3 v -1.8 c 0,-0.1668001 0.133199,-0.3000001 0.3,-0.3000001 z m 3.599999,0 h 1.8 c 0.1668,0 0.3,0.1332 0.3,0.3000001 v 1.8 c 0,0.166799 -0.1332,0.3 -0.3,0.3 h -1.8 c -0.166799,0 -0.3,-0.133201 -0.3,-0.3 v -1.8 c 0,-0.1668001 0.133201,-0.3000001 0.3,-0.3000001 z M 7.1,13.400001 h 7.8 c 0.1668,0 0.3,0.1332 0.3,0.3 V 15.5 c 0,0.1668 -0.1332,0.3 -0.3,0.3 H 7.1 c -0.1661999,0 -0.2999999,-0.1332 -0.2999999,-0.3 v -1.799999 c 0,-0.1668 0.1338,-0.3 0.2999999,-0.3 z"
       id="path1-6" /></g><g
     id="keyboard-layout"
     transform="matrix(1.4545455,0,0,1.4545455,21.999998,0)"><rect
       y="0"
       x="0"
       height="22"
       width="22"
       id="rect4215"
       style="fill:none;fill-rule:evenodd;stroke:none;stroke-width:1px;stroke-linecap:butt;stroke-linejoin:miter;stroke-opacity:1" /><path
       style="fill:currentColor;stroke-width:1.19919"
       class="ColorScheme-Text"
       d="m 4.4044852,3.8048928 c -1.3286968,0 -2.3983691,1.0696726 -2.3983691,2.3983688 v 9.5934764 c 0,1.328697 1.0696723,2.398369 2.3983691,2.398369 H 17.595515 c 1.328697,0 2.398369,-1.069672 2.398369,-2.398369 V 6.2032616 c 0,-1.3286962 -1.069672,-2.3983688 -2.398369,-2.3983688 z m 0.2997961,2.3983688 h 1.798777 c 0.1660869,0 0.299796,0.1337091 0.299796,0.2997961 v 1.798777 c 0,0.1660869 -0.1337091,0.299796 -0.299796,0.299796 h -1.798777 c -0.166087,0 -0.2997961,-0.1337091 -0.2997961,-0.299796 v -1.798777 c 0,-0.166087 0.1337091,-0.2997961 0.2997961,-0.2997961 z m 3.5975533,0 h 1.7987774 c 0.166087,0 0.299796,0.1337091 0.299796,0.2997961 v 1.798777 c 0,0.1660869 -0.133709,0.299796 -0.299796,0.299796 H 8.3018346 c -0.1660869,0 -0.2997961,-0.1337091 -0.2997961,-0.299796 v -1.798777 c 0,-0.166087 0.1337092,-0.2997961 0.2997961,-0.2997961 z m 3.5975544,0 h 1.798777 c 0.166686,0 0.299796,0.1337091 0.299796,0.2997961 v 1.798777 c 0,0.1660869 -0.13311,0.299796 -0.299796,0.299796 h -1.798777 c -0.166687,0 -0.299796,-0.1337091 -0.299796,-0.299796 v -1.798777 c 0,-0.166087 0.133109,-0.2997961 0.299796,-0.2997961 z m 3.597553,0 h 1.798777 c 0.166686,0 0.299796,0.1337091 0.299796,0.2997961 v 1.798777 c 0,0.1660869 -0.13311,0.299796 -0.299796,0.299796 h -1.798777 c -0.166686,0 -0.299796,-0.1337091 -0.299796,-0.299796 v -1.798777 c 0,-0.166087 0.13311,-0.2997961 0.299796,-0.2997961 z M 4.7042813,9.8008156 h 1.798777 c 0.1660869,0 0.299796,0.1331097 0.299796,0.2997964 v 1.798777 c 0,0.166686 -0.1337091,0.299796 -0.299796,0.299796 h -1.798777 c -0.166087,0 -0.2997961,-0.13311 -0.2997961,-0.299796 v -1.798777 c 0,-0.1666867 0.1337091,-0.2997964 0.2997961,-0.2997964 z m 3.5975533,0 h 1.7987774 c 0.166087,0 0.299796,0.1331097 0.299796,0.2997964 v 1.798777 c 0,0.166686 -0.133709,0.299796 -0.299796,0.299796 H 8.3018346 c -0.1660869,0 -0.2997961,-0.13311 -0.2997961,-0.299796 v -1.798777 c 0,-0.1666867 0.1337092,-0.2997964 0.2997961,-0.2997964 z m 3.5975544,0 h 1.798777 c 0.166686,0 0.299796,0.1331097 0.299796,0.2997964 v 1.798777 c 0,0.166686 -0.13311,0.299796 -0.299796,0.299796 h -1.798777 c -0.166687,0 -0.299796,-0.13311 -0.299796,-0.299796 v -1.798777 c 0,-0.1666867 0.133109,-0.2997964 0.299796,-0.2997964 z m 3.597553,0 h 1.798777 c 0.166686,0 0.299796,0.1331097 0.299796,0.2997964 v 1.798777 c 0,0.166686 -0.13311,0.299796 -0.299796,0.299796 h -1.798777 c -0.166686,0 -0.299796,-0.13311 -0.299796,-0.299796 v -1.798777 c 0,-0.1666867 0.13311,-0.2997964 0.299796,-0.2997964 z M 7.1026504,13.398369 H 14.89735 c 0.166686,0 0.299796,0.13311 0.299796,0.299796 v 1.798777 c 0,0.166686 -0.13311,0.299796 -0.299796,0.299796 H 7.1026504 c -0.166087,0 -0.2997961,-0.13311 -0.2997961,-0.299796 v -1.798777 c 0,-0.166686 0.1337091,-0.299796 0.2997961,-0.299796 z"
       id="path1" /></g></svg>
