<?xml version="1.0" encoding="UTF-8" standalone="no"?>
<svg
   width="22"
   height="22"
   id="svg1"
   version="1.1"
   viewBox="0 0 22 22"
   sodipodi:docname="kgpg.svg"
   xml:space="preserve"
   inkscape:version="1.3 (0e150ed6c4, 2023-07-21)"
   xmlns:inkscape="http://www.inkscape.org/namespaces/inkscape"
   xmlns:sodipodi="http://sodipodi.sourceforge.net/DTD/sodipodi-0.dtd"
   xmlns="http://www.w3.org/2000/svg"
   xmlns:svg="http://www.w3.org/2000/svg"><sodipodi:namedview
     id="namedview1"
     pagecolor="#ffffff"
     bordercolor="#000000"
     borderopacity="0.25"
     inkscape:showpageshadow="2"
     inkscape:pageopacity="0.0"
     inkscape:pagecheckerboard="0"
     inkscape:deskcolor="#d1d1d1"
     inkscape:zoom="23.068182"
     inkscape:cx="7.5211823"
     inkscape:cy="8.9950739"
     inkscape:window-width="2194"
     inkscape:window-height="1211"
     inkscape:window-x="-8"
     inkscape:window-y="-8"
     inkscape:window-maximized="1"
     inkscape:current-layer="kgpg" /><defs
     id="defs1"><style
       type="text/css"
       id="current-color-scheme">&#10;      .ColorScheme-Text {&#10;        color:#31363b;&#10;      }&#10;      </style><style
       id="current-color-scheme-3"
       type="text/css">&#10;   .ColorScheme-Text { color:#dfdfdf; } .ColorScheme-Highlight { color:#4285f4; } .ColorScheme-NeutralText { color:#ff9800; } .ColorScheme-PositiveText { color:#4caf50; } .ColorScheme-NegativeText { color:#f44336; }&#10;  </style></defs><g
     id="kgpg"><rect
       y="0"
       x="0"
       height="22"
       width="22"
       id="rect1"
       style="fill:none;stroke:none" /><path
       style="clip-rule:evenodd;fill:currentColor;fill-opacity:0.3;fill-rule:evenodd;stroke-linejoin:round;stroke-miterlimit:2"
       class="ColorScheme-Text"
       d="m 16.66,11.084808 c 0,-0.475 -0.385,-0.861 -0.86,-0.861 H 6.2 c -0.474,0 -0.86,0.386 -0.86,0.861 v 5.29 c 0,0.474 0.386,0.86 0.86,0.86 h 9.6 c 0.475,0 0.86,-0.386 0.86,-0.86 z"
       id="path1-0" /><path
       style="clip-rule:evenodd;fill:currentColor;fill-rule:evenodd;stroke-linejoin:round;stroke-miterlimit:2"
       class="ColorScheme-Text"
       d="m 11,3.6128079 c -2.216,0 -4,1.784 -4,4 v 2 H 6 c -0.554,0 -1,0.4460001 -1,1.0000001 v 6 c 0,0.554 0.446,1 1,1 h 10 c 0.554,0 1,-0.446 1,-1 v -6 c 0,-0.554 -0.446,-1.0000001 -1,-1.0000001 h -1 v -2 c 0,-2.216 -1.784,-4 -4,-4 z m 5.246,7.1410001 c 0,-0.168 -0.137,-0.305 -0.305,-0.305 H 6.059 c -0.168,0 -0.305,0.137 -0.305,0.305 v 5.812 c 0,0.168 0.137,0.305 0.305,0.305 h 9.882 c 0.168,0 0.305,-0.137 0.305,-0.305 z M 11,5.6128079 c 1.108,0 2,0.892 2,2 v 2 H 9 v -2 c 0,-1.108 0.892,-2 2,-2 z"
       id="path2" /></g><g
     style="clip-rule:evenodd;fill-rule:evenodd;stroke-linejoin:round;stroke-miterlimit:2"
     id="g1"
     transform="translate(3,4)" /></svg>
