<?xml version="1.0" encoding="UTF-8" standalone="no"?>
<!-- Created with Inkscape (http://www.inkscape.org/) -->

<svg
   width="22"
   height="22"
   viewBox="0 0 22 22"
   id="svg4166"
   version="1.1"
   inkscape:version="1.3 (0e150ed6c4, 2023-07-21)"
   sodipodi:docname="kleopatra.svg"
   xmlns:inkscape="http://www.inkscape.org/namespaces/inkscape"
   xmlns:sodipodi="http://sodipodi.sourceforge.net/DTD/sodipodi-0.dtd"
   xmlns="http://www.w3.org/2000/svg"
   xmlns:svg="http://www.w3.org/2000/svg"
   xmlns:rdf="http://www.w3.org/1999/02/22-rdf-syntax-ns#"
   xmlns:cc="http://creativecommons.org/ns#"
   xmlns:dc="http://purl.org/dc/elements/1.1/">
  <defs
     id="defs1">
    <style
       type="text/css"
       id="current-color-scheme">&#10;      .ColorScheme-Text {&#10;        color:#31363b;&#10;      }&#10;      </style>
  </defs>
  <defs
     id="defs4168" />
  <sodipodi:namedview
     id="base"
     pagecolor="#ffffff"
     bordercolor="#666666"
     borderopacity="1.0"
     inkscape:pageopacity="0.0"
     inkscape:pageshadow="2"
     inkscape:zoom="32"
     inkscape:cx="9.390625"
     inkscape:cy="7.015625"
     inkscape:document-units="px"
     inkscape:current-layer="layer1"
     showgrid="true"
     units="px"
     inkscape:object-paths="true"
     inkscape:snap-intersection-paths="true"
     inkscape:object-nodes="true"
     inkscape:snap-smooth-nodes="true"
     inkscape:snap-midpoints="true"
     inkscape:window-width="2194"
     inkscape:window-height="1211"
     inkscape:window-x="-8"
     inkscape:window-y="-8"
     inkscape:window-maximized="1"
     inkscape:snap-grids="false"
     inkscape:showpageshadow="2"
     inkscape:pagecheckerboard="0"
     inkscape:deskcolor="#d1d1d1">
    <inkscape:grid
       type="xygrid"
       id="grid4714"
       spacingx="0.5"
       spacingy="0.5"
       originx="0"
       originy="0"
       units="px"
       visible="true" />
  </sodipodi:namedview>
  <metadata
     id="metadata4171">
    <rdf:RDF>
      <cc:Work
         rdf:about="">
        <dc:format>image/svg+xml</dc:format>
        <dc:type
           rdf:resource="http://purl.org/dc/dcmitype/StillImage" />
        <dc:title />
      </cc:Work>
    </rdf:RDF>
  </metadata>
  <g
     inkscape:label="Layer 1"
     inkscape:groupmode="layer"
     id="layer1"
     transform="translate(0,-1030.3622)">
    <g
       id="kleopatra">
      <rect
         y="1030.3622"
         x="0"
         height="22"
         width="22"
         id="rect4764"
         style="opacity:1;fill:none;fill-opacity:1;stroke:none;stroke-width:1;stroke-linecap:round;stroke-linejoin:round;stroke-miterlimit:4;stroke-dasharray:none;stroke-opacity:1" />
      <path
         style="color:currentColor;font-style:normal;font-variant:normal;font-weight:normal;font-stretch:normal;font-size:medium;line-height:normal;font-family:sans-serif;text-indent:0;text-align:start;text-decoration:none;text-decoration-line:none;text-decoration-style:solid;text-decoration-color:#000000;letter-spacing:normal;word-spacing:normal;text-transform:none;writing-mode:lr-tb;direction:ltr;baseline-shift:baseline;text-anchor:start;white-space:normal;clip-rule:nonzero;display:inline;overflow:visible;visibility:visible;opacity:1;isolation:auto;mix-blend-mode:normal;color-interpolation:sRGB;color-interpolation-filters:linearRGB;solid-color:#000000;solid-opacity:1;fill:#dfdfdf;fill-opacity:1;fill-rule:evenodd;stroke:none;stroke-width:1px;stroke-linecap:round;stroke-linejoin:miter;stroke-miterlimit:4;stroke-dasharray:none;stroke-dashoffset:0;stroke-opacity:1;color-rendering:auto;image-rendering:auto;shape-rendering:auto;text-rendering:auto;enable-background:accumulate"
         d="M 9,3 C 4.7309028,3.234375 1.6113281,7.6914062 1.6113281,7.6914062 1.1973211,8.212116 1.4055221,8.5852437 1.9824219,8.2636719 1.9824219,8.2636719 5.0659722,4.140625 9,4 c 1.360242,-0.048623 3.306245,0.095979 5.091797,0.9433594 1.84375,0.875 3.769314,1.0926018 5.408203,1.0926018 C 20.176161,6.0455238 20.176161,5.4904374 19.5,5.5 18.138889,5.5 16.283203,4.9023438 14.408203,3.9960938 12.628732,3.1360162 10.636425,2.9101597 9,3 Z M 9.5,7 C 9.411913,7.00107 9.3239247,7.00628 9.2363281,7.015625 c -4.191671,0.1666544 -7.1367187,4.185547 -7.1367187,4.185547 -0.1805411,0.240763 -0.1090692,0.585294 0.1523437,0.734375 0,0 1.9176718,0.916411 3.8574219,1.511719 l -1.4760631,4.942249 c -0.1394647,0.594244 0.4863551,0.720355 0.609375,0 L 7.109375,13.714844 c 0.6899535,0.168945 0.8152578,0.132919 1.5957031,0.208984 0.1158435,0.137119 0.6427255,0.756039 1.4414059,1.554688 0.891836,0.8919 2.02651,1.91655 3.13086,2.46875 2.047439,1.0237 3.58677,1.404903 4.863281,1.033203 0.587322,-0.171 1.042628,-0.396275 1.371094,-0.734375 C 19.840185,17.907994 20,17.4533 20,17 20,16.4596 19.728441,15.992112 19.369141,15.632812 19.009841,15.273512 18.54044,15 18,15 17.478877,15 17.005048,15.242503 16.638672,15.595703 16.272295,15.949003 16,16.438 16,17 c -0.0096,0.676161 1.009563,0.676161 1,0 0,-0.227 0.125184,-0.486147 0.332031,-0.685547 C 17.538878,16.114953 17.814016,16 18,16 c 0.166667,0 0.448186,0.125844 0.662109,0.339844 C 18.876033,16.553744 19,16.8334 19,17 c 0,0.2539 -0.05282,0.394081 -0.205078,0.550781 -0.152257,0.1567 -0.445759,0.328103 -0.935547,0.470703 -0.877708,0.2556 -2.184158,0.0099 -4.136719,-0.96875 -0.89565,-0.4479 -2.010976,-1.42305 -2.86914,-2.28125 -0.298001,-0.298012 -0.511284,-0.533243 -0.734375,-0.77539 4.137303,-0.04889 6.7246,-2.583326 9.539062,-3.521485 0.492312,-0.166125 0.436082,-0.8798195 -0.07617,-0.9667965 C 16.62202,9.0145125 15.335365,8.794291 13.935547,7.9121094 12.535729,7.0299278 11.650215,7.0521131 9.7792969,7.0136719 9.6864831,7.0044749 9.5932683,6.9999119 9.5,7 Z m 2.328125,1.2421875 c 0.602818,0.014637 1.035845,0.1395987 1.736328,0.5976563 0.700483,0.4580576 2.427018,0.884825 4.443359,1.3281252 C 15.47889,11.339369 13.221332,13 10,13 6.7086819,13 4.1456775,11.743044 3.3671875,11.339844 3.7939997,10.830832 5.1089802,9.3520021 6.9960938,8.5449219 6.79895,8.9356367 6.695945,9.3670537 6.6953125,9.8046875 6.6946936,11.354246 7.9504416,12.610868 9.5,12.611328 c 1.549559,-4.59e-4 2.805307,-1.257082 2.804688,-2.8066405 -3.49e-4,-0.5565746 -0.166237,-1.1004686 -0.476563,-1.5625 z"
         transform="translate(0,1030.3622)"
         class="ColorScheme-Text"
         id="path4716"
         sodipodi:nodetypes="sccssccssccccccccccccssssccccscssccsccczccczcscccccc" />
    </g>
  </g>
</svg>
