<?xml version="1.0" encoding="UTF-8" standalone="no"?>
<!-- Created with Inkscape (http://www.inkscape.org/) -->

<svg
   id="svg4153"
   version="1.1"
   inkscape:version="1.3 (0e150ed6c4, 2023-07-21)"
   width="32.000004"
   height="32"
   sodipodi:docname="klipper.svg"
   viewBox="0 0 32.000004 32"
   xml:space="preserve"
   xmlns:inkscape="http://www.inkscape.org/namespaces/inkscape"
   xmlns:sodipodi="http://sodipodi.sourceforge.net/DTD/sodipodi-0.dtd"
   xmlns="http://www.w3.org/2000/svg"
   xmlns:svg="http://www.w3.org/2000/svg"
   xmlns:rdf="http://www.w3.org/1999/02/22-rdf-syntax-ns#"
   xmlns:cc="http://creativecommons.org/ns#"
   xmlns:dc="http://purl.org/dc/elements/1.1/"><metadata
     id="metadata4159"><rdf:RDF><cc:Work
         rdf:about=""><dc:format>image/svg+xml</dc:format><dc:type
           rdf:resource="http://purl.org/dc/dcmitype/StillImage" /><dc:title /></cc:Work></rdf:RDF></metadata><defs
     id="defs4157"><style
       type="text/css"
       id="current-color-scheme">&#10;      .ColorScheme-Text {&#10;        color:#31363b;&#10;      }&#10;      .ColorScheme-Background {&#10;        color:#eff0f1;&#10;      }&#10;      .ColorScheme-Highlight {&#10;        color:#3daee9;&#10;      }&#10;      .ColorScheme-ViewText {&#10;        color:#31363b;&#10;      }&#10;      .ColorScheme-ViewBackground {&#10;        color:#fcfcfc;&#10;      }&#10;      .ColorScheme-ViewHover {&#10;        color:#93cee9;&#10;      }&#10;      .ColorScheme-ViewFocus{&#10;        color:#3daee9;&#10;      }&#10;      .ColorScheme-ButtonText {&#10;        color:#31363b;&#10;      }&#10;      .ColorScheme-ButtonBackground {&#10;        color:#eff0f1;&#10;      }&#10;      .ColorScheme-ButtonHover {&#10;        color:#93cee9;&#10;      }&#10;      .ColorScheme-ButtonFocus{&#10;        color:#3daee9;&#10;      }&#10;      </style></defs><sodipodi:namedview
     pagecolor="#ffffff"
     bordercolor="#666666"
     borderopacity="1"
     objecttolerance="10"
     gridtolerance="10000"
     guidetolerance="10"
     inkscape:pageopacity="0"
     inkscape:pageshadow="2"
     inkscape:window-width="2194"
     inkscape:window-height="1211"
     id="namedview4155"
     inkscape:document-units="px"
     showgrid="true"
     inkscape:showpageshadow="false"
     borderlayer="true"
     inkscape:zoom="16.219262"
     inkscape:cx="53.763236"
     inkscape:cy="12.485155"
     inkscape:window-x="-8"
     inkscape:window-y="-8"
     inkscape:window-maximized="1"
     inkscape:current-layer="svg4153"
     fit-margin-top="0"
     fit-margin-left="0"
     fit-margin-right="0"
     fit-margin-bottom="0"
     inkscape:pagecheckerboard="0"
     inkscape:deskcolor="#d1d1d1"><inkscape:grid
       type="xygrid"
       id="grid4140"
       originx="5"
       originy="5.000001"
       spacingy="1"
       spacingx="1"
       units="px"
       visible="true" /><sodipodi:guide
       position="2,30"
       orientation="28,0"
       id="guide4186"
       inkscape:locked="false" /><sodipodi:guide
       position="30.000004,2"
       orientation="-28,0"
       id="guide4190"
       inkscape:locked="false" /><sodipodi:guide
       position="30.000004,30"
       orientation="0,-28.000004"
       id="guide4192"
       inkscape:locked="false" /><sodipodi:guide
       position="0,32"
       orientation="32,0"
       id="guide4194"
       inkscape:locked="false" /><sodipodi:guide
       position="0,0"
       orientation="0,32.000004"
       id="guide4196"
       inkscape:locked="false" /><sodipodi:guide
       position="32.000004,0"
       orientation="-32,0"
       id="guide4198"
       inkscape:locked="false" /><sodipodi:guide
       position="32.000004,32"
       orientation="0,-32.000004"
       id="guide4200"
       inkscape:locked="false" /></sodipodi:namedview><inkscape:clipboard
     style="opacity:0.01000001;fill:#00000f;fill-opacity:0;stroke-width:1;stroke-linecap:butt;stroke-linejoin:miter;stroke-miterlimit:4;stroke-dasharray:none;stroke-dashoffset:0;stroke-opacity:1;stroke:none"
     min="0,0"
     max="22,22" /><g
     id="22-22-klipper"
     transform="translate(49,4.999999)"
     style="display:inline"><rect
       style="opacity:1;fill:none;fill-opacity:1;stroke:none;stroke-width:0.1;stroke-linecap:square;stroke-linejoin:miter;stroke-miterlimit:4;stroke-dasharray:none;stroke-dashoffset:0;stroke-opacity:1"
       id="rect4148"
       width="22"
       height="22"
       x="0"
       y="0" /><path
       id="rect4202-3"
       d="M 6.7915532,7.1370167 V 7.8348393 H 15.165425 V 7.1370167 Z m 0,2.0934678 V 9.9283072 H 15.165425 V 9.2304845 Z m 0,2.7912905 v 0.697823 h 3.4891128 v -0.697823 z m 0,2.093468 v 0.697823 h 3.4891128 v -0.697823 z m 0,2.093468 v 0.697822 h 7.6760488 v -0.697822 z"
       style="color:#31363b;display:inline;fill:#dfdfdf;fill-opacity:0.5;stroke:none;stroke-width:0.697823"
       inkscape:connector-curvature="0"
       sodipodi:nodetypes="ccccccccccccccccccccccccc"
       class="ColorScheme-Text" /><path
       d="m 6.9909297,2.252259 c -2.9906684,0 -2.9946521,1.9937868 -2.9906684,2.9906683 l 0.043025,10.7664057 c 0.011951,2.990645 1.9937788,2.990669 2.9906683,2.990669 H 15.00907 c 2.990668,0 2.994652,-1.993787 2.990668,-2.990669 L 17.956714,5.2429273 C 17.944763,2.2522829 15.962935,2.252259 14.966045,2.252259 Z M 6.3260043,3.4146321 h 9.3049667 c 0,0 1.159231,7.3e-6 1.163369,1.16337 l 0.04303,12.0962559 c 0,0 0,1.16337 -1.163369,1.16337 H 6.3690287 c 0,0 -1.1592321,-7e-6 -1.16337,-1.16337 L 5.1626345,4.5780021 c 0,0 0,-1.16337 1.1633698,-1.16337 z"
       fill="#dfdfdf"
       fill-rule="nonzero"
       id="path1-1"
       sodipodi:nodetypes="sssssssssscscscscs"
       style="clip-rule:evenodd;display:inline;fill-rule:evenodd;stroke-width:0.996889;stroke-linejoin:round;stroke-miterlimit:2" /><path
       id="rect1-5"
       style="display:inline;fill:#dfdfdf;stroke-width:0.697823"
       d="M 7.4716539,2.2522583 H 14.484617 V 5.0435481 H 7.4716539 Z" /></g><g
     id="klipper"
     style="display:inline"><rect
       y="-1e-06"
       x="-2.8953547e-08"
       height="32"
       width="32.000004"
       id="rect4230"
       style="opacity:1;fill:none;fill-opacity:1;stroke:none" /><path
       id="rect4202"
       d="m 10.000002,11 v 1 h 12 v -1 z m 0,3 v 1 h 12 v -1 z m 0,4 v 1 h 5 v -1 z m 0,3 v 1 h 5 v -1 z m 0,3 v 1 h 11 v -1 z"
       style="display:inline;opacity:1;fill:#dfdfdf;fill-opacity:0.5;stroke:none"
       inkscape:connector-curvature="0"
       sodipodi:nodetypes="ccccccccccccccccccccccccc"
       class="ColorScheme-Text" /><path
       d="M 4,1 C 1,1 0.99600387,3.000008 1,4 l 0.043159,10.8 c 0.011988,2.999976 2,3 3,3 h 8.0000004 c 3,0 3.003996,-2.000008 3,-3 L 15,4 C 14.988012,1.000024 13,1 12,1 Z M 3.333,2.166 h 9.334 c 0,0 1.162849,7.4e-6 1.167,1.167 l 0.04316,12.134 c 0,0 0,1.167 -1.167,1.167 H 3.3761586 c 0,0 -1.1628492,-8e-6 -1.167,-1.167 L 2.166,3.333 c 0,0 0,-1.167 1.167,-1.167 z"
       fill="#dfdfdf"
       fill-rule="nonzero"
       id="path1"
       sodipodi:nodetypes="sssssssssscscscscs"
       style="clip-rule:evenodd;fill-rule:evenodd;stroke-linejoin:round;stroke-miterlimit:2"
       transform="matrix(1.4285714,0,0,1.4285714,4.5714286,2.5714296)" /><path
       id="rect1"
       style="opacity:1;fill:#dfdfdf"
       d="M 10.974606,4 H 21.024384 V 7.999999 H 10.974606 Z" /></g><g
     style="clip-rule:evenodd;fill-rule:evenodd;stroke-linejoin:round;stroke-miterlimit:2"
     id="g1"
     transform="matrix(1.4285714,0,0,1.4285714,4.5714286,2.5714296)" /></svg>
