<?xml version="1.0" encoding="UTF-8" standalone="no"?>
<!-- Created with Inkscape (http://www.inkscape.org/) -->

<svg
   id="svg4153"
   version="1.1"
   inkscape:version="1.3 (0e150ed6c4, 2023-07-21)"
   width="22"
   height="22"
   sodipodi:docname="kpackagekit.svg"
   viewBox="0 0 22 22"
   xml:space="preserve"
   xmlns:inkscape="http://www.inkscape.org/namespaces/inkscape"
   xmlns:sodipodi="http://sodipodi.sourceforge.net/DTD/sodipodi-0.dtd"
   xmlns="http://www.w3.org/2000/svg"
   xmlns:svg="http://www.w3.org/2000/svg"
   xmlns:rdf="http://www.w3.org/1999/02/22-rdf-syntax-ns#"
   xmlns:cc="http://creativecommons.org/ns#"
   xmlns:dc="http://purl.org/dc/elements/1.1/"><metadata
     id="metadata4159"><rdf:RDF><cc:Work
         rdf:about=""><dc:format>image/svg+xml</dc:format><dc:type
           rdf:resource="http://purl.org/dc/dcmitype/StillImage" /><dc:title /></cc:Work></rdf:RDF></metadata><defs
     id="defs4157"><style
       type="text/css"
       id="current-color-scheme">&#10;      .ColorScheme-Text {&#10;        color:#31363b;&#10;      }&#10;      .ColorScheme-Background {&#10;        color:#eff0f1;&#10;      }&#10;      .ColorScheme-Highlight {&#10;        color:#3daee9;&#10;      }&#10;      .ColorScheme-ViewText {&#10;        color:#31363b;&#10;      }&#10;      .ColorScheme-ViewBackground {&#10;        color:#fcfcfc;&#10;      }&#10;      .ColorScheme-ViewHover {&#10;        color:#93cee9;&#10;      }&#10;      .ColorScheme-ViewFocus{&#10;        color:#3daee9;&#10;      }&#10;      .ColorScheme-ButtonText {&#10;        color:#31363b;&#10;      }&#10;      .ColorScheme-ButtonBackground {&#10;        color:#eff0f1;&#10;      }&#10;      .ColorScheme-ButtonHover {&#10;        color:#93cee9;&#10;      }&#10;      .ColorScheme-ButtonFocus{&#10;        color:#3daee9;&#10;      }&#10;      </style><style
       id="current-color-scheme-9"
       type="text/css">&#10;   .ColorScheme-Text { color:#dfdfdf; } .ColorScheme-Highlight { color:#4285f4; } .ColorScheme-NeutralText { color:#ff9800; } .ColorScheme-PositiveText { color:#4caf50; } .ColorScheme-NegativeText { color:#f44336; }&#10;  </style><linearGradient
       id="_Linear1"
       x2="1"
       gradientTransform="matrix(0,-7.0149345,7.0149345,0,-10.706,30.219269)"
       gradientUnits="userSpaceOnUse"><stop
         style="stop-color:#dfdfdf;stop-opacity:1;"
         offset="0"
         id="stop1" /><stop
         style="stop-color:rgb(242,242,242)"
         offset="1"
         id="stop2" /></linearGradient><style
       id="current-color-scheme-0"
       type="text/css">&#10;   .ColorScheme-Text { color:#dfdfdf; } .ColorScheme-Highlight { color:#4285f4; } .ColorScheme-NeutralText { color:#ff9800; } .ColorScheme-PositiveText { color:#4caf50; } .ColorScheme-NegativeText { color:#f44336; }&#10;  </style></defs><sodipodi:namedview
     pagecolor="#ffffff"
     bordercolor="#666666"
     borderopacity="1"
     objecttolerance="10"
     gridtolerance="10000"
     guidetolerance="10"
     inkscape:pageopacity="0"
     inkscape:pageshadow="2"
     inkscape:window-width="2194"
     inkscape:window-height="1211"
     id="namedview4155"
     inkscape:document-units="px"
     showgrid="true"
     inkscape:showpageshadow="false"
     borderlayer="true"
     inkscape:zoom="5.8979134"
     inkscape:cx="11.105623"
     inkscape:cy="-33.995074"
     inkscape:window-x="-8"
     inkscape:window-y="-8"
     inkscape:window-maximized="1"
     inkscape:current-layer="svg4153"
     inkscape:pagecheckerboard="0"
     inkscape:deskcolor="#d1d1d1"><inkscape:grid
       type="xygrid"
       id="grid4140"
       originx="0"
       originy="0"
       spacingy="1"
       spacingx="1"
       units="px"
       visible="true" /><sodipodi:guide
       position="0,22"
       orientation="22,0"
       id="guide4146"
       inkscape:locked="false" /><sodipodi:guide
       position="0,0"
       orientation="0,22"
       id="guide4148"
       inkscape:locked="false" /><sodipodi:guide
       position="22,0"
       orientation="-22,0"
       id="guide4150"
       inkscape:locked="false" /><sodipodi:guide
       position="22,22"
       orientation="0,-22"
       id="guide4152"
       inkscape:locked="false" /><sodipodi:guide
       position="3,19"
       orientation="16,0"
       id="guide4154"
       inkscape:locked="false" /><sodipodi:guide
       position="18,3"
       orientation="0,16"
       id="guide4156"
       inkscape:locked="false" /><sodipodi:guide
       position="19,3"
       orientation="-16,0"
       id="guide4158"
       inkscape:locked="false" /><sodipodi:guide
       position="19,19"
       orientation="0,-16"
       id="guide4160"
       inkscape:locked="false" /></sodipodi:namedview><inkscape:clipboard
     style="opacity:0.01000001;fill:#00000f;fill-opacity:0;stroke-width:1;stroke-linecap:butt;stroke-linejoin:miter;stroke-miterlimit:4;stroke-dasharray:none;stroke-dashoffset:0;stroke-opacity:1;stroke:none"
     min="0,0"
     max="22,22" /><g
     id="kpackagekit-important"><rect
       y="-2.6645353e-15"
       x="44"
       height="22"
       width="22"
       id="rect4206"
       style="opacity:1;fill:none;fill-opacity:0.59905659;stroke:none" /><path
       d="M 49.899725,6.498678 48.43106,10.495953 H 61.56894 L 60.340057,6.708487 Z"
       style="color:#dfdfdf;clip-rule:evenodd;fill:#dfdfdf;fill-opacity:0.25;fill-rule:evenodd;stroke-width:1.13458;stroke-linejoin:round;stroke-miterlimit:2"
       id="path1-0-0"
       sodipodi:nodetypes="ccccc" /><path
       style="color:#dfdfdf;clip-rule:evenodd;fill:currentColor;fill-rule:evenodd;stroke-linejoin:round;stroke-miterlimit:2"
       class="ColorScheme-Text"
       d="m 49.906,6 h 9.813 c 0.454,-0.045 0.942,0.093 1.156,0.531 0.357,0.983 0.662,2.011 1,3 L 62,10 v 8 c 0,0.554 -0.446,1 -1,1 H 49 c -0.554,0 -1,-0.446 -1,-1 V 10 L 48.094,9.625 C 48.377,8.731 48.677,7.829 48.969,6.938 49.069,6.48 49.408,6.043 49.906,6 Z M 60.143,6.86 C 60.073,6.759 59.922,6.784 59.799,6.796 59.772,6.799 59.746,6.8 59.719,6.8 H 49.956 C 49.826,6.824 49.778,6.982 49.75,7.109 49.745,7.135 49.737,7.161 49.729,7.187 49.441,8.068 49.144,8.96 48.864,9.844 L 48.8,10.099 V 18 c 0,0.111 0.089,0.2 0.2,0.2 h 12 c 0.111,0 0.2,-0.089 0.2,-0.2 V 10.105 L 61.109,9.762 C 60.782,8.804 60.486,7.811 60.143,6.86 Z"
       id="path1-3"
       sodipodi:nodetypes="cccccssssccccccscccccssssccc" /><path
       d="m 55.278524,15.422942 h -0.547443 l -0.240107,-4.926989 h 1.027656 z m -0.873989,1.411827 q 0,-0.355358 0.172877,-0.499422 Q 54.750289,16.191283 55,16.191283 q 0.240107,0 0.412984,0.144064 0.182481,0.144064 0.182481,0.499422 0,0.345754 -0.182481,0.499422 Q 55.240107,17.487859 55,17.487859 q -0.249711,0 -0.422588,-0.153668 -0.172877,-0.153668 -0.172877,-0.499422 z"
       id="text1"
       style="fill:#dfdfdf;fill-opacity:1;stroke-width:0.800356"
       aria-label="!" /></g><g
     id="kpackagekit-security"><g
       id="g4225"><path
         d="M 27.899725,6.498678 26.43106,10.495953 H 39.56894 L 38.340057,6.708487 Z"
         style="color:#dfdfdf;clip-rule:evenodd;fill:#dfdfdf;fill-opacity:0.25;fill-rule:evenodd;stroke-width:1.13458;stroke-linejoin:round;stroke-miterlimit:2"
         id="path1-0-5"
         sodipodi:nodetypes="ccccc" /><path
         style="color:#dfdfdf;clip-rule:evenodd;fill:currentColor;fill-rule:evenodd;stroke-linejoin:round;stroke-miterlimit:2"
         class="ColorScheme-Text"
         d="m 27.906,6 h 9.813 c 0.454,-0.045 0.942,0.093 1.156,0.531 0.357,0.983 0.662,2.011 1,3 L 40,10 v 8 c 0,0.554 -0.446,1 -1,1 H 27 c -0.554,0 -1,-0.446 -1,-1 V 10 L 26.094,9.625 C 26.377,8.731 26.677,7.829 26.969,6.938 27.069,6.48 27.408,6.043 27.906,6 Z M 38.143,6.86 C 38.073,6.759 37.922,6.784 37.799,6.796 37.772,6.799 37.746,6.8 37.719,6.8 H 27.956 C 27.826,6.824 27.778,6.982 27.75,7.109 27.745,7.135 27.737,7.161 27.729,7.187 27.441,8.068 27.144,8.96 26.864,9.844 L 26.8,10.099 V 18 c 0,0.111 0.089,0.2 0.2,0.2 h 12 c 0.111,0 0.2,-0.089 0.2,-0.2 V 10.105 L 39.109,9.762 C 38.782,8.804 38.486,7.811 38.143,6.86 Z"
         id="path1-2"
         sodipodi:nodetypes="cccccssssccccccscccccssssccc" /></g><rect
       style="opacity:1;fill:none;fill-opacity:0.59905659;stroke:none"
       id="rect4208"
       width="22"
       height="22"
       x="22"
       y="-2.6645353e-15" /><path
       style="clip-rule:evenodd;fill:currentColor;fill-rule:evenodd;stroke-linejoin:round;stroke-miterlimit:2"
       class="ColorScheme-Text"
       d="M 8.0244241,-0.21981715 C 6.3865348,1.4920697 4.2770837,2.0183682 2,2 2,2 2.109,7.094 2.655,9 3.128,10.652 4.062,12.489 5.274,13.439 6.485,14.389 8,15 8,15 8,15 9.515,14.389 10.727,13.439 11.938,12.479 12.872,10.652 13.345,9 13.89,7.094 14,2 14,2 11.964854,1.9058901 10.037815,1.4179355 8.0244241,-0.21981715 Z M 7.9862289,1.5329005 C 6.780525,2.5925159 5.4745475,3.2453639 3.4993246,3.2544871 3.5361413,4.4369095 3.6384351,7.2692237 3.9997524,8.5592186 4.3704878,9.8833219 5.0845603,11.367472 6.0358007,12.12835 6.753298,12.702945 7.537,13.165477 8,13.373477 8.463,13.165477 9.2465582,12.703819 9.9623431,12.130099 10.913584,11.360475 11.629368,9.8841964 12.000104,8.5592186 12.359709,7.2753457 12.487283,4.4631467 12.524099,3.2702294 10.858522,3.1757266 9.2379049,2.7676839 7.9862289,1.5329005 Z"
       id="path2"
       transform="matrix(0.43387293,0,0,0.43387293,29.55899,11)"
       sodipodi:nodetypes="cccccccccccccccccc" /></g><g
     id="kpackagekit-updates"><rect
       style="opacity:1;fill:none;fill-opacity:0.59905659;stroke:none"
       id="rect4212"
       width="22"
       height="22"
       x="0"
       y="-2.6645353e-15" /><path
       d="m -21.100275,24.498631 -1.468665,3.997275 h 13.13788 l -1.228883,-3.787466 z"
       style="clip-rule:evenodd;fill-rule:evenodd;stroke-linejoin:round;stroke-miterlimit:2;color:#dfdfdf;fill:#dfdfdf;fill-opacity:0.25;stroke-width:1.13458"
       id="path1-0"
       sodipodi:nodetypes="ccccc"
       transform="translate(27,-17.999953)" /><path
       style="clip-rule:evenodd;fill-rule:evenodd;stroke-linejoin:round;stroke-miterlimit:2;fill:currentColor"
       class="ColorScheme-Text"
       d="m -21.094,23.999953 h 9.813 c 0.454,-0.045 0.942,0.093 1.156,0.531 0.357,0.983 0.662,2.011 1,3 l 0.125,0.469 v 8 c 0,0.554 -0.446,1 -1,1 h -12 c -0.554,0 -1,-0.446 -1,-1 v -8 l 0.094,-0.375 c 0.283,-0.894 0.583,-1.796 0.875,-2.687 0.1,-0.458 0.439,-0.895 0.937,-0.938 z m 10.237,0.86 c -0.07,-0.101 -0.221,-0.076 -0.344,-0.064 -0.027,0.003 -0.053,0.004 -0.08,0.004 h -9.763 c -0.13,0.024 -0.178,0.182 -0.206,0.309 -0.005,0.026 -0.013,0.052 -0.021,0.078 -0.288,0.881 -0.585,1.773 -0.865,2.657 l -0.064,0.255 v 7.901 c 0,0.111 0.089,0.2 0.2,0.2 h 12 c 0.111,0 0.2,-0.089 0.2,-0.2 v -7.895 l -0.091,-0.343 c -0.327,-0.958 -0.623,-1.951 -0.966,-2.902 z"
       id="path1"
       sodipodi:nodetypes="cccccssssccccccscccccssssccc"
       transform="translate(27,-17.999953)" /></g><g
     id="kpackagekit-inactive"><path
       d="m -16.100275,6.498678 -1.468665,3.997275 H -4.43106 L -5.659943,6.708487 Z"
       style="color:#dfdfdf;clip-rule:evenodd;fill:#dfdfdf;fill-opacity:0.25;fill-rule:evenodd;stroke-width:1.13458;stroke-linejoin:round;stroke-miterlimit:2"
       id="path1-0-1"
       sodipodi:nodetypes="ccccc" /><path
       style="color:#dfdfdf;clip-rule:evenodd;fill:currentColor;fill-rule:evenodd;stroke-linejoin:round;stroke-miterlimit:2"
       class="ColorScheme-Text"
       d="m -16.094,6 h 9.813 c 0.454,-0.045 0.942,0.093 1.156,0.531 0.357,0.983 0.662,2.011 1,3 L -4,10 v 8 c 0,0.554 -0.446,1 -1,1 h -12 c -0.554,0 -1,-0.446 -1,-1 v -8 l 0.094,-0.375 c 0.283,-0.894 0.583,-1.796 0.875,-2.687 0.1,-0.458 0.439,-0.895 0.937,-0.938 z M -5.857,6.86 C -5.927,6.759 -6.078,6.784 -6.201,6.796 -6.228,6.799 -6.254,6.8 -6.281,6.8 h -9.763 c -0.13,0.024 -0.178,0.182 -0.206,0.309 -0.005,0.026 -0.013,0.052 -0.021,0.078 -0.288,0.881 -0.585,1.773 -0.865,2.657 L -17.2,10.099 V 18 c 0,0.111 0.089,0.2 0.2,0.2 h 12 c 0.111,0 0.2,-0.089 0.2,-0.2 V 10.105 L -4.891,9.762 C -5.218,8.804 -5.514,7.811 -5.857,6.86 Z"
       id="path1-7"
       sodipodi:nodetypes="cccccssssccccccscccccssssccc" /><rect
       y="-2.6645353e-15"
       x="-22"
       height="22"
       width="22"
       id="rect4214"
       style="opacity:1;fill:none;fill-opacity:0.59905659;stroke:none" /></g><g
     style="clip-rule:evenodd;fill-rule:evenodd;stroke-linejoin:round;stroke-miterlimit:2"
     id="g1"
     transform="translate(27,-17.999953)" /><g
     style="clip-rule:evenodd;fill-rule:evenodd;stroke-linejoin:round;stroke-miterlimit:2"
     id="g2"
     transform="translate(21.706,-12.708447)"><path
       d="m -10.706,23.2044 c 1.9340007,0 3.504047,1.570046 3.504047,3.504047 0,1.934001 -1.5700463,3.504047 -3.504047,3.504047 -1.934001,0 -3.504047,-1.570046 -3.504047,-3.504047 0,-1.934001 1.570046,-3.504047 3.504047,-3.504047 z m 0,0.327298 c 1.753333,0 3.1767492,1.423417 3.1767492,3.176749 0,1.753333 -1.4234162,3.176749 -3.1767492,3.176749 -1.753332,0 -3.176749,-1.423416 -3.176749,-3.176749 0,-1.753332 1.423417,-3.176749 3.176749,-3.176749 z m 0,4.305926 1.5464807,-1.951021 c 0.150557,-0.189832 0.4274504,-0.221908 0.6172829,-0.07103 0.1901603,0.150558 0.2222351,0.427124 0.071351,0.617284 l -1.8885066,2.382399 c -0.08706,0.109971 -0.216343,0.166921 -0.346608,0.165939 -0.130591,9.64e-4 -0.259547,-0.05597 -0.346608,-0.165939 l -1.888506,-2.382072 c -0.150884,-0.19016 -0.11881,-0.467053 0.07135,-0.617611 0.189833,-0.150555 0.466726,-0.118481 0.617283,0.07135 z m 0,-2.192894 0.7835505,-0.988765 c 0.1119356,-0.141065 0.3178058,-0.164959 0.459198,-0.05302 0.1413928,0.111935 0.1652855,0.318132 0.053022,0.459197 L -10.44809,26.37166 c -0.0648,0.08183 -0.16103,0.124046 -0.25791,0.123718 -0.09721,3.28e-4 -0.193433,-0.04189 -0.25791,-0.123718 l -1.038188,-1.309518 c -0.111936,-0.141065 -0.08837,-0.347262 0.05302,-0.459198 0.141393,-0.111936 0.347263,-0.08804 0.459525,0.05303 z"
       style="fill:url(#_Linear1);stroke-width:0.327298"
       id="path1-9" /></g></svg>
