<?xml version="1.0" encoding="UTF-8" standalone="no"?>
<!-- Created with Inkscape (http://www.inkscape.org/) -->

<svg
   id="svg4153"
   version="1.1"
   inkscape:version="1.3 (0e150ed6c4, 2023-07-21)"
   width="22"
   height="22"
   sodipodi:docname="kteatime.svg"
   viewBox="0 0 22 22"
   xml:space="preserve"
   xmlns:inkscape="http://www.inkscape.org/namespaces/inkscape"
   xmlns:sodipodi="http://sodipodi.sourceforge.net/DTD/sodipodi-0.dtd"
   xmlns="http://www.w3.org/2000/svg"
   xmlns:svg="http://www.w3.org/2000/svg"
   xmlns:rdf="http://www.w3.org/1999/02/22-rdf-syntax-ns#"
   xmlns:cc="http://creativecommons.org/ns#"
   xmlns:dc="http://purl.org/dc/elements/1.1/"><metadata
     id="metadata4159"><rdf:RDF><cc:Work
         rdf:about=""><dc:format>image/svg+xml</dc:format><dc:type
           rdf:resource="http://purl.org/dc/dcmitype/StillImage" /><dc:title /></cc:Work></rdf:RDF></metadata><defs
     id="defs4157"><style
       type="text/css"
       id="current-color-scheme">&#10;      .ColorScheme-Text {&#10;        color:#31363b;&#10;      }&#10;      .ColorScheme-Background {&#10;        color:#eff0f1;&#10;      }&#10;      .ColorScheme-Highlight {&#10;        color:#3daee9;&#10;      }&#10;      .ColorScheme-ViewText {&#10;        color:#31363b;&#10;      }&#10;      .ColorScheme-ViewBackground {&#10;        color:#fcfcfc;&#10;      }&#10;      .ColorScheme-ViewHover {&#10;        color:#93cee9;&#10;      }&#10;      .ColorScheme-ViewFocus{&#10;        color:#3daee9;&#10;      }&#10;      .ColorScheme-ButtonText {&#10;        color:#31363b;&#10;      }&#10;      .ColorScheme-ButtonBackground {&#10;        color:#eff0f1;&#10;      }&#10;      .ColorScheme-ButtonHover {&#10;        color:#93cee9;&#10;      }&#10;      .ColorScheme-ButtonFocus{&#10;        color:#3daee9;&#10;      }&#10;      </style></defs><sodipodi:namedview
     pagecolor="#ffffff"
     bordercolor="#666666"
     borderopacity="1"
     objecttolerance="10"
     gridtolerance="10000"
     guidetolerance="10"
     inkscape:pageopacity="0"
     inkscape:pageshadow="2"
     inkscape:window-width="2194"
     inkscape:window-height="1211"
     id="namedview4155"
     inkscape:document-units="px"
     showgrid="true"
     inkscape:showpageshadow="false"
     borderlayer="true"
     inkscape:zoom="30.341309"
     inkscape:cx="12.573617"
     inkscape:cy="9.1459469"
     inkscape:window-x="-8"
     inkscape:window-y="-8"
     inkscape:window-maximized="1"
     inkscape:current-layer="kteatime"
     inkscape:pagecheckerboard="0"
     inkscape:deskcolor="#d1d1d1"><inkscape:grid
       type="xygrid"
       id="grid4140"
       originx="0"
       originy="0"
       spacingy="1"
       spacingx="1"
       units="px"
       visible="true" /><sodipodi:guide
       position="0,22"
       orientation="22,0"
       id="guide4146"
       inkscape:locked="false" /><sodipodi:guide
       position="0,0"
       orientation="0,22"
       id="guide4148"
       inkscape:locked="false" /><sodipodi:guide
       position="22,0"
       orientation="-22,0"
       id="guide4150"
       inkscape:locked="false" /><sodipodi:guide
       position="22,22"
       orientation="0,-22"
       id="guide4152"
       inkscape:locked="false" /><sodipodi:guide
       position="3,19"
       orientation="16,0"
       id="guide4154"
       inkscape:locked="false" /><sodipodi:guide
       position="18,3"
       orientation="0,16"
       id="guide4156"
       inkscape:locked="false" /><sodipodi:guide
       position="19,3"
       orientation="-16,0"
       id="guide4158"
       inkscape:locked="false" /><sodipodi:guide
       position="19,19"
       orientation="0,-16"
       id="guide4160"
       inkscape:locked="false" /></sodipodi:namedview><inkscape:clipboard
     style="opacity:0.01000001;fill:#00000f;fill-opacity:0;stroke-width:1;stroke-linecap:butt;stroke-linejoin:miter;stroke-miterlimit:4;stroke-dasharray:none;stroke-dashoffset:0;stroke-opacity:1;stroke:none"
     min="0,0"
     max="22,22" /><g
     id="kteatime"><rect
       y="1.2212453e-015"
       x="1.2212453e-015"
       height="22"
       width="22"
       id="rect3825"
       style="fill:#566060;fill-opacity:0;stroke:none" /><path
       style="fill:#dfdfdf"
       d="m 10.152057,2.9586571 c -1.0982,1.38 -1.4274,1.57 -1.0313,2.45 0.3591,0.8 1.2869,0.7 0.8203,2.55 0.7664,-0.9 1.3753,-1.54 0.7735,-2.46 -0.6122,-0.94 -0.9475,-1.01 -0.5625,-2.54 z m 2.9996,0 c -1.0978,1.38 -1.427,1.57 -1.0309,2.45 0.3591,0.8 1.2869,0.7 0.8203,2.55 0.7666,-0.9 1.3756,-1.54 0.7736,-2.46 -0.612,-0.94 -0.9476,-1.01 -0.563,-2.54 z m 3,0 c -1.098,1.38 -1.427,1.57 -1.031,2.45 0.359,0.8 1.287,0.7 0.82,2.55 0.767,-0.9 1.376,-1.54 0.774,-2.46 -0.612,-0.94 -0.948,-1.01 -0.563,-2.54 z m -9.193,6 c -2.2091,0 -4,1.7899999 -4,3.9999999 0,2.21 1.7909,4 4,4 0.2425,0 0.4843,-0.02 0.7227,-0.07 0.7393,1.55 2.2353,2.07 5.2773,2.07 6,0 6,-2 6,-9.9999999 z m 0,1.9999999 h 0.0078 c 0.0116,1.6 0.0522,2.94 0.1953,3.99 -0.0674,0 -0.1352,0.01 -0.2031,0.01 -1.1046,0 -2,-0.9 -2,-2 0,-1.1 0.8954,-2 2,-2 z"
       id="path1" /></g></svg>
