<?xml version="1.0" encoding="UTF-8" standalone="no"?>
<svg
   id="svg4153"
   version="1.1"
   width="22"
   height="22"
   viewBox="0 0 22 22"
   sodipodi:docname="ktorrent.svg"
   inkscape:version="1.3 (0e150ed6c4, 2023-07-21)"
   xmlns:inkscape="http://www.inkscape.org/namespaces/inkscape"
   xmlns:sodipodi="http://sodipodi.sourceforge.net/DTD/sodipodi-0.dtd"
   xmlns="http://www.w3.org/2000/svg"
   xmlns:svg="http://www.w3.org/2000/svg"
   xmlns:rdf="http://www.w3.org/1999/02/22-rdf-syntax-ns#"
   xmlns:cc="http://creativecommons.org/ns#"
   xmlns:dc="http://purl.org/dc/elements/1.1/">
  <sodipodi:namedview
     id="namedview1"
     pagecolor="#ffffff"
     bordercolor="#000000"
     borderopacity="0.25"
     inkscape:showpageshadow="2"
     inkscape:pageopacity="0.0"
     inkscape:pagecheckerboard="0"
     inkscape:deskcolor="#d1d1d1"
     inkscape:zoom="23.068182"
     inkscape:cx="5.3970443"
     inkscape:cy="11.856158"
     inkscape:window-width="2194"
     inkscape:window-height="1211"
     inkscape:window-x="-8"
     inkscape:window-y="-8"
     inkscape:window-maximized="1"
     inkscape:current-layer="svg4153" />
  <metadata
     id="metadata4159">
    <rdf:RDF>
      <cc:Work
         rdf:about="">
        <dc:format>image/svg+xml</dc:format>
        <dc:type
           rdf:resource="http://purl.org/dc/dcmitype/StillImage" />
        <dc:title />
      </cc:Work>
    </rdf:RDF>
  </metadata>
  <defs
     id="defs4157">
    <style
       type="text/css"
       id="current-color-scheme">&#10;      .ColorScheme-Text {&#10;        color:#31363b;&#10;      }&#10;      .ColorScheme-Background {&#10;        color:#eff0f1;&#10;      }&#10;      .ColorScheme-Highlight {&#10;        color:#3daee9;&#10;      }&#10;      .ColorScheme-ViewText {&#10;        color:#31363b;&#10;      }&#10;      .ColorScheme-ViewBackground {&#10;        color:#fcfcfc;&#10;      }&#10;      .ColorScheme-ViewHover {&#10;        color:#93cee9;&#10;      }&#10;      .ColorScheme-ViewFocus{&#10;        color:#3daee9;&#10;      }&#10;      .ColorScheme-ButtonText {&#10;        color:#31363b;&#10;      }&#10;      .ColorScheme-ButtonBackground {&#10;        color:#eff0f1;&#10;      }&#10;      .ColorScheme-ButtonHover {&#10;        color:#93cee9;&#10;      }&#10;      .ColorScheme-ButtonFocus{&#10;        color:#3daee9;&#10;      }&#10;      </style>
    <inkscape:path-effect
       effect="fillet_chamfer"
       id="path-effect3"
       is_visible="true"
       lpeversion="1"
       nodesatellites_param="F,0,0,1,0,0.50625,0,1 @ F,0,0,1,0,0.50625,0,1 @ F,0,0,1,0,0.50625,0,1 @ F,0,1,1,0,0.178125,0,1 @ F,0,1,1,0,0.178125,0,1 @ F,0,0,1,0,0.50625,0,1 @ F,0,0,1,0,0.50625,0,1 @ F,0,0,1,0,0.50625,0,1"
       radius="0"
       unit="px"
       method="auto"
       mode="F"
       chamfer_steps="1"
       flexible="false"
       use_knot_distance="true"
       apply_no_radius="true"
       apply_with_radius="true"
       only_selected="false"
       hide_knots="false" />
    <inkscape:path-effect
       effect="fillet_chamfer"
       id="path-effect4"
       is_visible="true"
       lpeversion="1"
       nodesatellites_param="F,0,1,1,0,0.49773685,0,1 @ F,0,1,1,0,0.49773685,0,1 @ F,0,1,1,0,0.49773685,0,1 @ F,0,0,1,0,0.49773685,0,1 @ F,0,1,1,0,0.49773685,0,1 @ F,0,1,1,0,0.49773685,0,1"
       radius="0"
       unit="px"
       method="auto"
       mode="F"
       chamfer_steps="1"
       flexible="false"
       use_knot_distance="true"
       apply_no_radius="true"
       apply_with_radius="true"
       only_selected="false"
       hide_knots="false" />
    <inkscape:path-effect
       effect="fillet_chamfer"
       id="path-effect2"
       is_visible="true"
       lpeversion="1"
       nodesatellites_param="F,0,1,1,0,1.0125,0,1 @ F,0,1,1,0,1.0125,0,1 @ F,0,0,1,0,1.0125,0,1 @ F,0,1,1,0,1.0125,0,1"
       radius="0"
       unit="px"
       method="auto"
       mode="F"
       chamfer_steps="1"
       flexible="false"
       use_knot_distance="true"
       apply_no_radius="true"
       apply_with_radius="true"
       only_selected="false"
       hide_knots="false" />
  </defs>
  <g
     id="ktorrent">
    <path
       style="fill:#dfdfdf;fill-opacity:0.25;stroke:none;stroke-width:2.8;stroke-miterlimit:4;stroke-dasharray:none;stroke-opacity:0.550265"
       d="M 5,18.0125 A 1.0000781,1.0000781 44.28384 0 0 6.0125,19 h 9.975 A 1.0125,1.0125 135 0 0 17,17.9875 1.0000781,1.0000781 44.28384 0 0 15.9875,17 H 6.0125 A 1.0125,1.0125 135 0 0 5,18.0125 Z"
       transform="matrix(1.1137925,0,0,1.1137925,-1.1394028,-1.2487668)"
       id="path2"
       sodipodi:nodetypes="ccccc"
       inkscape:path-effect="#path-effect2"
       inkscape:original-d="m 5,17 v 2 h 12 v -2 z" />
    <path
       style="fill:#dfdfdf;fill-opacity:1;stroke:none;stroke-width:2.8;stroke-miterlimit:4;stroke-dasharray:none;stroke-opacity:0.550265"
       d="m 6.4058593,10.695703 -0.00312,0.0031 a 0.49773675,0.49773675 90.000007 0 0 -1e-7,0.703906 l 4.2453127,4.245313 a 0.49773684,0.49773684 5.7883659e-7 0 0 0.703906,0 l 4.245313,-4.245313 a 0.49773685,0.49773685 90 0 0 0,-0.703906 l -0.0031,-0.0031 a 0.49773685,0.49773685 0 0 0 -0.703906,0 l -3.538282,3.538282 a 0.49773682,0.49773682 1.6882732e-6 0 1 -0.703906,0 L 7.1097656,10.695703 a 0.49773693,0.49773693 7.7660585e-6 0 0 -0.7039063,0 z"
       transform="matrix(1.1137925,0,0,1.1137925,-1.1394028,-1.2487668)"
       id="path1"
       sodipodi:nodetypes="ccccccc"
       inkscape:path-effect="#path-effect4"
       inkscape:original-d="M 6.7578125,10.34375 6.0507812,11.050781 11,16 15.949219,11.050781 15.242188,10.34375 11,14.585938 Z" />
    <path
       style="fill:#dfdfdf;fill-opacity:1;stroke:none;stroke-width:2.8;stroke-miterlimit:4;stroke-dasharray:none;stroke-opacity:0.550265"
       d="m 9,3.50625 0,6.9875 A 0.50625,0.50625 45 0 0 9.50625,11 0.50003906,0.50003906 134.28384 0 0 10,10.49375 V 4.178125 A 0.178125,0.178125 135 0 1 10.178125,4 h 1.64375 A 0.178125,0.178125 45 0 1 12,4.178125 V 10.49375 A 0.50625,0.50625 45 0 0 12.50625,11 0.50003906,0.50003906 134.28384 0 0 13,10.49375 V 3.50625 A 0.50625,0.50625 45 0 0 12.49375,3 H 9.50625 A 0.50625,0.50625 135 0 0 9,3.50625 Z"
       transform="matrix(1.1137925,0,0,1.1137925,-1.1394028,-1.2487668)"
       id="rect4170"
       sodipodi:nodetypes="ccccccccc"
       inkscape:path-effect="#path-effect3"
       inkscape:original-d="m 9,3 v 8 h 1 V 4 h 2 v 7 h 1 V 3 Z" />
    <rect
       y="0"
       x="0"
       height="22"
       width="22"
       id="rect4183"
       style="opacity:1;fill:none;fill-opacity:1;stroke:none;stroke-width:0.1;stroke-linecap:square;stroke-linejoin:miter;stroke-miterlimit:4;stroke-dasharray:none;stroke-dashoffset:0;stroke-opacity:1" />
  </g>
</svg>
