<?xml version="1.0" encoding="UTF-8" standalone="no"?>
<svg
   id="svg2"
   version="1.1"
   viewBox="0 0 22 22"
   sodipodi:docname="kup.svg"
   inkscape:version="1.3 (0e150ed6c4, 2023-07-21)"
   xmlns:inkscape="http://www.inkscape.org/namespaces/inkscape"
   xmlns:sodipodi="http://sodipodi.sourceforge.net/DTD/sodipodi-0.dtd"
   xmlns="http://www.w3.org/2000/svg"
   xmlns:svg="http://www.w3.org/2000/svg">
  <sodipodi:namedview
     id="namedview1"
     pagecolor="#ffffff"
     bordercolor="#000000"
     borderopacity="0.25"
     inkscape:showpageshadow="2"
     inkscape:pageopacity="0.0"
     inkscape:pagecheckerboard="0"
     inkscape:deskcolor="#d1d1d1"
     inkscape:zoom="23.068182"
     inkscape:cx="12.463054"
     inkscape:cy="5.1802956"
     inkscape:window-width="2194"
     inkscape:window-height="1211"
     inkscape:window-x="-8"
     inkscape:window-y="-8"
     inkscape:window-maximized="1"
     inkscape:current-layer="kup" />
  <defs
     id="defs4">
    <inkscape:path-effect
       effect="fillet_chamfer"
       id="path-effect3"
       is_visible="true"
       lpeversion="1"
       nodesatellites_param="F,0,1,1,0,1.9356697,0,1 @ F,0,1,1,0,1.9356697,0,1 @ F,0,1,1,0,1.9356697,0,1 @ F,0,0,1,0,1.9356697,0,1 | F,0,0,1,0,0,0,1 @ F,0,0,1,0,0,0,1 @ F,0,0,1,0,0,0,1 @ F,0,0,1,0,0,0,1 @ F,0,0,1,0,0,0,1 @ F,0,0,1,0,0,0,1 @ F,0,0,1,0,0,0,1 @ F,0,0,1,0,0,0,1 @ F,0,0,1,0,0,0,1 @ F,0,0,1,0,0,0,1 @ F,0,0,1,0,0,0,1 @ F,0,0,1,0,0,0,1 @ F,0,0,1,0,0,0,1 @ F,0,0,1,0,0,0,1 | F,0,0,1,0,0,0,1 @ F,0,0,1,0,0,0,1 @ F,0,0,1,0,0,0,1 @ F,0,0,1,0,0,0,1 | F,0,0,1,0,0,0,1 @ F,0,0,1,0,0,0,1 @ F,0,0,1,0,0,0,1 @ F,0,0,1,0,0,0,1"
       radius="0"
       unit="px"
       method="auto"
       mode="F"
       chamfer_steps="1"
       flexible="false"
       use_knot_distance="true"
       apply_no_radius="true"
       apply_with_radius="true"
       only_selected="false"
       hide_knots="false" />
    <style
       id="current-color-scheme"
       type="text/css">.ColorScheme-Text {&#10;        color:#31363b;&#10;      }</style>
  </defs>
  <g
     id="kup"
     transform="translate(0,-1030.3621)">
    <g
       id="vlc">
      <path
         id="rect4246"
         class="ColorScheme-Text"
         d="m0 1030.3621h22v22h-22z"
         fill="none" />
    </g>
    <path
       id="innershape"
       class="ColorScheme-Text"
       d="m 5,1035.2978 v 12.1286 a 1.9356697,1.9356697 45 0 0 1.9356697,1.9357 H 15.06433 A 1.9356697,1.9356697 135 0 0 17,1047.4264 v -12.1286 a 1.9356697,1.9356697 45 0 0 -1.93567,-1.9357 H 6.9356697 A 1.9356697,1.9356697 135 0 0 5,1035.2978 Z m 4,-0.9357 h 4 c 1.656854,0 3,1.3431 3,3 v 2.088 c -0.598554,0.2116 -0.999063,0.7771 -1,1.412 9.37e-4,0.6349 0.401446,1.2004 1,1.412 v 2.088 l -2,2 H 8 l -2,-2 v -2.088 c 0.5985545,-0.2116 0.9990629,-0.7771 1,-1.412 -9.371e-4,-0.6349 -0.4014455,-1.2004 -1,-1.412 v -2.088 c 0,-1.6569 1.3431458,-3 3,-3 z m -2,13 h 4 v 1 H 7 Z m 6,0 h 2 v 1 h -2 z"
       fill="currentColor"
       style="fill:#dfdfdf;fill-opacity:1"
       sodipodi:nodetypes="cccccsssccccccccccsscccccccccc"
       inkscape:path-effect="#path-effect3"
       inkscape:original-d="m 5,1033.3621 v 16 h 12 v -16 z m 4,1 h 4 c 1.656854,0 3,1.3431 3,3 v 2.088 c -0.598554,0.2116 -0.999063,0.7771 -1,1.412 9.37e-4,0.6349 0.401446,1.2004 1,1.412 v 2.088 l -2,2 H 8 l -2,-2 v -2.088 c 0.5985545,-0.2116 0.9990629,-0.7771 1,-1.412 -9.371e-4,-0.6349 -0.4014455,-1.2004 -1,-1.412 v -2.088 c 0,-1.6569 1.3431458,-3 3,-3 z m -2,13 h 4 v 1 H 7 Z m 6,0 h 2 v 1 h -2 z" />
    <path
       style="color:#31363b;fill:#dfdfdf;fill-opacity:1"
       d="M 9.2152015,7.28515 10.295887,10.855749 12.971094,9.4549679 12.859485,9.1654245 10.872137,9.5511865 9.6394875,7.1182794 Z"
       id="path3"
       sodipodi:nodetypes="ccccccc"
       inkscape:transform-center-x="-0.19844058"
       inkscape:transform-center-y="-0.7431846"
       transform="translate(0,1030.3621)" />
    <path
       style="color:#31363b;fill:#dfdfdf;fill-opacity:0.25"
       d="m 10.938033,5.5650483 c -2.205324,0 -3.993093,1.7878 -3.993093,3.9931 0,2.2052997 1.787769,3.9930997 3.993093,3.9930997 2.205324,0 3.993094,-1.7878 3.993094,-3.9930997 0,-2.2053 -1.78777,-3.9931 -3.993094,-3.9931 z"
       id="path1"
       transform="translate(0,1030.3621)" />
  </g>
</svg>
