<?xml version="1.0" encoding="UTF-8" standalone="no"?>
<svg
   id="svg"
   viewBox="0 0 22 22"
   version="1.1"
   sodipodi:docname="list.svg"
   inkscape:version="1.3 (0e150ed6c4, 2023-07-21)"
   xmlns:inkscape="http://www.inkscape.org/namespaces/inkscape"
   xmlns:sodipodi="http://sodipodi.sourceforge.net/DTD/sodipodi-0.dtd"
   xmlns="http://www.w3.org/2000/svg"
   xmlns:svg="http://www.w3.org/2000/svg">
  <defs
     id="defs1">
    <inkscape:path-effect
       effect="fillet_chamfer"
       id="path-effect2"
       is_visible="true"
       lpeversion="1"
       nodesatellites_param="F,0,1,1,0,1.375,0,1 @ F,0,0,1,0,1.375,0,1 @ F,0,1,1,0,1.375,0,1 @ F,0,1,1,0,1.375,0,1"
       radius="0"
       unit="px"
       method="auto"
       mode="F"
       chamfer_steps="1"
       flexible="false"
       use_knot_distance="true"
       apply_no_radius="true"
       apply_with_radius="true"
       only_selected="false"
       hide_knots="false" />
    <inkscape:path-effect
       effect="fillet_chamfer"
       id="path-effect1"
       is_visible="true"
       lpeversion="1"
       nodesatellites_param="F,0,1,1,0,1.375,0,1 @ F,0,0,1,0,0,0,1 @ F,0,0,1,0,1.375,0,1 @ F,0,1,1,0,1.375,0,1 @ F,0,0,1,0,0,0,1 @ F,0,1,1,0,1.375,0,1 @ F,0,1,1,0,1.375,0,1 @ F,0,0,1,0,0,0,1 @ F,0,1,1,0,1.375,0,1 @ F,0,1,1,0,1.375,0,1 @ F,0,0,1,0,0,0,1 @ F,0,1,1,0,1.375,0,1"
       radius="0"
       unit="px"
       method="auto"
       mode="F"
       chamfer_steps="1"
       flexible="false"
       use_knot_distance="true"
       apply_no_radius="true"
       apply_with_radius="true"
       only_selected="false"
       hide_knots="false" />
    <inkscape:path-effect
       effect="fillet_chamfer"
       id="path-effect1-1"
       is_visible="true"
       lpeversion="1"
       nodesatellites_param="F,0,1,1,0,1.375,0,1 @ F,0,0,1,0,0,0,1 @ F,0,0,1,0,1.375,0,1 @ F,0,1,1,0,1.375,0,1 @ F,0,0,1,0,0,0,1 @ F,0,1,1,0,1.375,0,1 @ F,0,1,1,0,1.375,0,1 @ F,0,0,1,0,0,0,1 @ F,0,1,1,0,1.375,0,1 @ F,0,1,1,0,1.375,0,1 @ F,0,0,1,0,0,0,1 @ F,0,1,1,0,1.375,0,1"
       radius="0"
       unit="px"
       method="auto"
       mode="F"
       chamfer_steps="1"
       flexible="false"
       use_knot_distance="true"
       apply_no_radius="true"
       apply_with_radius="true"
       only_selected="false"
       hide_knots="false" />
    <inkscape:path-effect
       effect="fillet_chamfer"
       id="path-effect2-3"
       is_visible="true"
       lpeversion="1"
       nodesatellites_param="F,0,1,1,0,1.375,0,1 @ F,0,0,1,0,1.375,0,1 @ F,0,1,1,0,1.375,0,1 @ F,0,1,1,0,1.375,0,1"
       radius="0"
       unit="px"
       method="auto"
       mode="F"
       chamfer_steps="1"
       flexible="false"
       use_knot_distance="true"
       apply_no_radius="true"
       apply_with_radius="true"
       only_selected="false"
       hide_knots="false" />
  </defs>
  <sodipodi:namedview
     id="namedview1"
     pagecolor="#ffffff"
     bordercolor="#000000"
     borderopacity="0.25"
     inkscape:showpageshadow="2"
     inkscape:pageopacity="0.0"
     inkscape:pagecheckerboard="0"
     inkscape:deskcolor="#d1d1d1"
     inkscape:zoom="11.534091"
     inkscape:cx="32.122167"
     inkscape:cy="5.6788177"
     inkscape:window-width="2194"
     inkscape:window-height="1211"
     inkscape:window-x="-8"
     inkscape:window-y="-8"
     inkscape:window-maximized="1"
     inkscape:current-layer="svg" />
  <style
     type="text/css"
     id="current-color-scheme">&#10;        .ColorScheme-Text {&#10;            color:#232629;&#10;        }&#10;    </style>
  <g
     id="list-add">
    <path
       id="rect3763"
       d="m0 0h22v22h-22z"
       fill="none" />
    <path
       id="rect2991-3-9"
       d="m 9.625,4.125 v 5.5 h -5.5 A 1.375,1.375 135 0 0 2.75,11 1.375,1.375 45 0 0 4.125,12.375 h 5.5 v 5.5 A 1.375,1.375 45 0 0 11,19.25 1.375,1.375 135 0 0 12.375,17.875 v -5.5 h 5.5 A 1.375,1.375 135 0 0 19.25,11 1.375,1.375 45 0 0 17.875,9.625 h -5.5 v -5.5 A 1.375,1.375 45 0 0 11,2.75 1.375,1.375 135 0 0 9.625,4.125 Z"
       class="ColorScheme-Text"
       fill="currentColor"
       style="color:#232629;fill:#dfdfdf;fill-opacity:1"
       inkscape:path-effect="#path-effect1-1"
       inkscape:original-d="M 9.625,2.75 V 9.625 H 2.75 v 2.75 h 6.875 v 6.875 h 2.75 V 12.375 H 19.25 V 9.625 H 12.375 V 2.75 Z"
       transform="matrix(0.96969697,0,0,0.96969697,0.33333331,0.33333331)" />
  </g>
  <g
     id="list-remove"
     transform="translate(22)">
    <path
       id="rect3783"
       d="m0 0h22v22h-22z"
       fill="none" />
    <path
       id="rect889-4"
       d="m 4.125,9.625 h 13.75 A 1.375,1.375 45 0 1 19.25,11 1.375,1.375 135 0 1 17.875,12.375 H 4.125 A 1.375,1.375 45 0 1 2.75,11 1.375,1.375 135 0 1 4.125,9.625 Z"
       class="ColorScheme-Text"
       fill="currentColor"
       style="color:#232629;fill:#dfdfdf;fill-opacity:1"
       inkscape:path-effect="#path-effect2-3"
       inkscape:original-d="m 2.75,9.625 h 16.5 v 2.75 H 2.75 Z"
       transform="matrix(0.96969697,0,0,0.96969697,0.3333334,0.3333334)" />
  </g>
  <g
     id="16-16-list-add"
     transform="matrix(.72727273 0 0 .72727273 -16 6)">
    <path
       id="rect2991-3"
       d="m 9.625,4.125 v 5.5 h -5.5 A 1.375,1.375 135 0 0 2.75,11 1.375,1.375 45 0 0 4.125,12.375 h 5.5 v 5.5 A 1.375,1.375 45 0 0 11,19.25 1.375,1.375 135 0 0 12.375,17.875 v -5.5 h 5.5 A 1.375,1.375 135 0 0 19.25,11 1.375,1.375 45 0 0 17.875,9.625 h -5.5 v -5.5 A 1.375,1.375 45 0 0 11,2.75 1.375,1.375 135 0 0 9.625,4.125 Z"
       class="ColorScheme-Text"
       fill="currentColor"
       style="fill:#dfdfdf;fill-opacity:1"
       inkscape:path-effect="#path-effect1"
       inkscape:original-d="m9.625 2.75v6.875h-6.875v2.75h6.875v6.875h2.75v-6.875h6.875v-2.75h-6.875v-6.875z" />
    <path
       id="rect3763-5"
       d="m0 0h22v22h-22z"
       fill="none" />
  </g>
  <g
     id="16-16-list-remove"
     transform="matrix(.72727273 0 0 .72727273 44 6)">
    <path
       id="rect3783-9"
       d="m0 0h22v22h-22z"
       fill="none" />
    <path
       id="rect889"
       d="m 4.125,9.625 h 13.75 A 1.375,1.375 45 0 1 19.25,11 1.375,1.375 135 0 1 17.875,12.375 H 4.125 A 1.375,1.375 45 0 1 2.75,11 1.375,1.375 135 0 1 4.125,9.625 Z"
       class="ColorScheme-Text"
       fill="currentColor"
       style="fill:#dfdfdf;fill-opacity:1"
       inkscape:path-effect="#path-effect2"
       inkscape:original-d="m2.75 9.625h16.5v2.75h-16.5z" />
  </g>
</svg>
