<?xml version="1.0" encoding="UTF-8" standalone="no"?>
<svg
   id="svg4153"
   version="1.1"
   width="22"
   height="22"
   viewBox="0 0 22 22"
   sodipodi:docname="mail.svg"
   xml:space="preserve"
   inkscape:version="1.3 (0e150ed6c4, 2023-07-21)"
   xmlns:inkscape="http://www.inkscape.org/namespaces/inkscape"
   xmlns:sodipodi="http://sodipodi.sourceforge.net/DTD/sodipodi-0.dtd"
   xmlns="http://www.w3.org/2000/svg"
   xmlns:svg="http://www.w3.org/2000/svg"
   xmlns:rdf="http://www.w3.org/1999/02/22-rdf-syntax-ns#"
   xmlns:cc="http://creativecommons.org/ns#"
   xmlns:dc="http://purl.org/dc/elements/1.1/"><sodipodi:namedview
     id="namedview1"
     pagecolor="#ffffff"
     bordercolor="#000000"
     borderopacity="0.25"
     inkscape:showpageshadow="2"
     inkscape:pageopacity="0.0"
     inkscape:pagecheckerboard="0"
     inkscape:deskcolor="#d1d1d1"
     inkscape:zoom="11.534091"
     inkscape:cx="25.533005"
     inkscape:cy="-0.47684729"
     inkscape:window-width="2194"
     inkscape:window-height="1211"
     inkscape:window-x="-8"
     inkscape:window-y="-8"
     inkscape:window-maximized="1"
     inkscape:current-layer="svg4153" /><metadata
     id="metadata4159"><rdf:RDF><cc:Work
         rdf:about=""><dc:format>image/svg+xml</dc:format><dc:type
           rdf:resource="http://purl.org/dc/dcmitype/StillImage" /><dc:title /></cc:Work></rdf:RDF></metadata><defs
     id="defs4157"><style
       type="text/css"
       id="current-color-scheme">&#10;      .ColorScheme-Text {&#10;        color:#31363b;&#10;      }&#10;      .ColorScheme-Background {&#10;        color:#eff0f1;&#10;      }&#10;      .ColorScheme-Highlight {&#10;        color:#3daee9;&#10;      }&#10;      .ColorScheme-ViewText {&#10;        color:#31363b;&#10;      }&#10;      .ColorScheme-ViewBackground {&#10;        color:#fcfcfc;&#10;      }&#10;      .ColorScheme-ViewHover {&#10;        color:#93cee9;&#10;      }&#10;      .ColorScheme-ViewFocus{&#10;        color:#3daee9;&#10;      }&#10;      .ColorScheme-ButtonText {&#10;        color:#31363b;&#10;      }&#10;      .ColorScheme-ButtonBackground {&#10;        color:#eff0f1;&#10;      }&#10;      .ColorScheme-ButtonHover {&#10;        color:#93cee9;&#10;      }&#10;      .ColorScheme-ButtonFocus{&#10;        color:#3daee9;&#10;      }&#10;      </style><style
       id="current-color-scheme-9"
       type="text/css">&#10;   .ColorScheme-Text { color:#dfdfdf; } .ColorScheme-Highlight { color:#4285f4; } .ColorScheme-NeutralText { color:#ff9800; } .ColorScheme-PositiveText { color:#4caf50; } .ColorScheme-NegativeText { color:#f44336; }&#10;  </style></defs><g
     id="mail-unread"><rect
       y="0"
       x="0"
       height="22"
       width="22"
       id="rect4193"
       style="opacity:1;fill:none;fill-opacity:1;stroke:none;stroke-width:0.1;stroke-linecap:square;stroke-linejoin:miter;stroke-miterlimit:4;stroke-dasharray:none;stroke-dashoffset:0;stroke-opacity:1" /><path
       d="M 20,5.7472605 12.6525,13.036011 10.975,13.712261 9.4225,13.108511 2,5.7472605 V 16.959761 h 18 z"
       fill-opacity="0.3"
       fill="#dfdfdf"
       id="path1"
       style="clip-rule:evenodd;fill-rule:evenodd;stroke-width:1.25;stroke-linejoin:round;stroke-miterlimit:2" /><path
       d="m 3.233,4.7472618 c -1.233,0 -2.233,1 -2.233,2.233 v 8.5340002 c 0,1.233 1,2.233 2.233,2.233 h 15.534 c 1.233,0 2.233,-1 2.233,-2.233 V 6.9802618 c 0,-1.233 -1,-2.233 -2.233,-2.233 z M 12.7,12.697262 c -0.45,0.45 -1.05,0.7 -1.7,0.7 -0.65,0 -1.25,-0.25 -1.7,-0.7 L 2.35,5.7472618 H 19.6 Z m -5.55,-1.45 -5.15,5.15 V 6.0972618 Z m 0.35,0.35 1.45,1.45 c 0.55,0.55 1.3,0.85 2.05,0.85 0.8,0 1.5,-0.3 2.05,-0.85 l 1.45,-1.45 5.15,5.15 H 2.35 Z m 7.35,-0.35 L 20,6.0972618 V 16.447262 Z"
       fill="#dfdfdf"
       id="path2"
       style="clip-rule:evenodd;fill-rule:evenodd;stroke-width:0.5;stroke-linejoin:round;stroke-miterlimit:2" /></g><g
     id="mail-unread-new"><rect
       y="0"
       x="27.000002"
       height="22"
       width="22"
       id="rect4178"
       style="opacity:1;fill:none;fill-opacity:1;stroke:none" /><path
       style="opacity:0.3;fill:currentColor"
       class="ColorScheme-Text"
       d="m 0.8,3.183 h 14.4 v 8.97 H 0.8 Z"
       id="path1-1"
       transform="matrix(1.2499997,0,0,1.2499997,28.000004,1.7685115)" /><path
       style="fill:currentColor"
       class="ColorScheme-Text"
       d="M 1.786,2.383 C 0.8,2.383 0,3.183 0,4.169 v 6.828 c 0,0.986 0.8,1.786 1.786,1.786 H 14.214 C 15.2,12.783 16,11.983 16,10.997 V 4.169 C 16,3.183 15.2,2.383 14.214,2.383 Z M 9.36,8.743 C 9,9.103 8.52,9.303 8,9.303 7.48,9.303 7,9.103 6.64,8.743 L 1.08,3.183 h 13.8 z M 4.92,7.583 0.8,11.703 v -8.24 z m 0.28,0.28 1.16,1.16 c 0.44,0.44 1.04,0.68 1.64,0.68 0.64,0 1.2,-0.24 1.64,-0.68 l 1.16,-1.16 4.12,4.12 H 1.08 Z m 5.88,-0.28 4.12,-4.12 v 8.28 z"
       id="path2-8"
       transform="matrix(1.2499997,0,0,1.2499997,28.000004,1.7685115)" /><path
       style="fill:currentColor"
       class="ColorScheme-Highlight"
       d="M 13.5,10 C 12.677,10 12,10.677 12,11.5 12,12.323 12.677,13 13.5,13 14.323,13 15,12.323 15,11.5 15,10.677 14.323,10 13.5,10 Z"
       id="path3"
       transform="matrix(1.2499997,0,0,1.2499997,28.000004,1.7685115)" /></g><g
     style="clip-rule:evenodd;fill-rule:evenodd;stroke-linejoin:round;stroke-miterlimit:2"
     id="g1"
     transform="matrix(1.25,0,0,1.25,1,1.3153387)" /><g
     id="g2"
     transform="matrix(1.2499997,0,0,1.2499997,28.000004,1.7685115)" /></svg>
