<?xml version="1.0" encoding="UTF-8" standalone="no"?>
<svg
   viewBox="0 0 22 22"
   version="1.1"
   id="svg66"
   sodipodi:docname="media.svg"
   xml:space="preserve"
   inkscape:version="1.3 (0e150ed6c4, 2023-07-21)"
   xmlns:inkscape="http://www.inkscape.org/namespaces/inkscape"
   xmlns:sodipodi="http://sodipodi.sourceforge.net/DTD/sodipodi-0.dtd"
   xmlns="http://www.w3.org/2000/svg"
   xmlns:svg="http://www.w3.org/2000/svg"><defs
     id="defs66"><inkscape:path-effect
       effect="fillet_chamfer"
       id="path-effect67"
       is_visible="true"
       lpeversion="1"
       nodesatellites_param="F,0,0,1,0,1.2061603,0,1 @ F,0,0,1,0,1.4223777,0,1 @ F,0,0,1,0,1.4223777,0,1 | F,0,0,1,0,0,0,1 @ F,0,0,1,0,0,0,1 @ F,0,0,1,0,0,0,1 @ F,0,0,1,0,0,0,1"
       radius="0"
       unit="px"
       method="auto"
       mode="F"
       chamfer_steps="1"
       flexible="false"
       use_knot_distance="true"
       apply_no_radius="true"
       apply_with_radius="true"
       only_selected="false"
       hide_knots="false" /><inkscape:path-effect
       effect="fillet_chamfer"
       id="path-effect66"
       is_visible="true"
       lpeversion="1"
       nodesatellites_param="F,0,1,1,0,0.98240519,0,1 @ F,0,0,1,0,0.98240519,0,1 @ F,0,1,1,0,0.98240519,0,1 @ F,0,1,1,0,0.98240519,0,1"
       radius="0"
       unit="px"
       method="auto"
       mode="F"
       chamfer_steps="1"
       flexible="false"
       use_knot_distance="true"
       apply_no_radius="true"
       apply_with_radius="true"
       only_selected="false"
       hide_knots="false" /><inkscape:path-effect
       effect="fillet_chamfer"
       id="path-effect66-8"
       is_visible="true"
       lpeversion="1"
       nodesatellites_param="F,0,1,1,0,0.98240519,0,1 @ F,0,0,1,0,0.98240519,0,1 @ F,0,1,1,0,0.98240519,0,1 @ F,0,1,1,0,0.98240519,0,1"
       radius="0"
       unit="px"
       method="auto"
       mode="F"
       chamfer_steps="1"
       flexible="false"
       use_knot_distance="true"
       apply_no_radius="true"
       apply_with_radius="true"
       only_selected="false"
       hide_knots="false" /><inkscape:path-effect
       effect="fillet_chamfer"
       id="path-effect67-1"
       is_visible="true"
       lpeversion="1"
       nodesatellites_param="F,0,0,1,0,1.2061603,0,1 @ F,0,0,1,0,1.4223777,0,1 @ F,0,0,1,0,1.4223777,0,1 | F,0,0,1,0,0,0,1 @ F,0,0,1,0,0,0,1 @ F,0,0,1,0,0,0,1 @ F,0,0,1,0,0,0,1"
       radius="0"
       unit="px"
       method="auto"
       mode="F"
       chamfer_steps="1"
       flexible="false"
       use_knot_distance="true"
       apply_no_radius="true"
       apply_with_radius="true"
       only_selected="false"
       hide_knots="false" /><inkscape:path-effect
       effect="fillet_chamfer"
       id="path-effect67-1-2"
       is_visible="true"
       lpeversion="1"
       nodesatellites_param="F,0,0,1,0,1.2061603,0,1 @ F,0,0,1,0,1.4223777,0,1 @ F,0,0,1,0,1.4223777,0,1 | F,0,0,1,0,0,0,1 @ F,0,0,1,0,0,0,1 @ F,0,0,1,0,0,0,1 @ F,0,0,1,0,0,0,1"
       radius="0"
       unit="px"
       method="auto"
       mode="F"
       chamfer_steps="1"
       flexible="false"
       use_knot_distance="true"
       apply_no_radius="true"
       apply_with_radius="true"
       only_selected="false"
       hide_knots="false" /></defs><sodipodi:namedview
     id="namedview66"
     pagecolor="#ffffff"
     bordercolor="#000000"
     borderopacity="0.25"
     inkscape:showpageshadow="2"
     inkscape:pageopacity="0.0"
     inkscape:pagecheckerboard="0"
     inkscape:deskcolor="#d1d1d1"
     showgrid="true"
     inkscape:zoom="2.8835227"
     inkscape:cx="246.9202"
     inkscape:cy="-20.287685"
     inkscape:window-width="2194"
     inkscape:window-height="1211"
     inkscape:window-x="-8"
     inkscape:window-y="-8"
     inkscape:window-maximized="1"
     inkscape:current-layer="32-32-media-eject"><inkscape:grid
       id="grid66"
       units="px"
       originx="0"
       originy="0"
       spacingx="1"
       spacingy="1"
       empcolor="#0099e5"
       empopacity="0.30196078"
       color="#0099e5"
       opacity="0.14901961"
       empspacing="5"
       dotted="false"
       gridanglex="30"
       gridanglez="30"
       visible="true" /></sodipodi:namedview><style
     type="text/css"
     id="current-color-scheme">&#10;        .ColorScheme-Text {&#10;            color:#232629;&#10;        }&#10;    </style><g
     id="media-playback-playing"><path
       d="m0 0h22v22h-22z"
       fill="none"
       id="path1" /><g
       class="ColorScheme-Text"
       fill="currentColor"
       fill-rule="evenodd"
       id="g3"><path
         d="m11 3a8 8 0 0 0 -8 8 8 8 0 0 0 8 8 8 8 0 0 0 8-8 8 8 0 0 0 -8-8zm0 1a7 7 0 0 1 7 7 7 7 0 0 1 -7 7 7 7 0 0 1 -7-7 7 7 0 0 1 7-7z"
         id="path2"
         style="fill:#dfdfdf;fill-opacity:0.25" /><path
         d="M 9.0502103,6.6635133 C 8.8028377,6.5290357 8.5023387,6.5340163 8.2599468,6.6784607 8.017555,6.8220658 7.8689658,7.0827203 7.8689658,7.3649566 v 7.2700884 c 0,0.282236 0.1485892,0.54289 0.390981,0.686499 0.242392,0.144439 0.5428909,0.14942 0.7902635,0.01494 1.7174937,-0.936361 4.8901677,-2.667967 6.6641097,-3.635043 0.256503,-0.140288 0.416714,-0.409244 0.416714,-0.701442 0,-0.292198 -0.160211,-0.561153 -0.416714,-0.701441 C 13.940378,9.3314817 10.767704,7.5998762 9.0502103,6.6635133 Z"
         fill="#dfdfdf"
         id="path1-5-9-1-2"
         style="clip-rule:evenodd;fill-rule:evenodd;stroke-width:0.830111;stroke-linejoin:round;stroke-miterlimit:2" /></g></g><g
     id="media-playback-stopped"
     transform="translate(24)"><path
       d="m24 0h22v22h-22z"
       fill="none"
       id="path4" /><g
       class="ColorScheme-Text"
       fill="currentColor"
       fill-rule="evenodd"
       id="g6"><path
         d="m35 3a8 8 0 0 0 -8 8 8 8 0 0 0 8 8 8 8 0 0 0 8-8 8 8 0 0 0 -8-8zm0 1a7 7 0 0 1 7 7 7 7 0 0 1 -7 7 7 7 0 0 1 -7-7 7 7 0 0 1 7-7z"
         id="path5"
         style="fill:#dfdfdf;fill-opacity:0.25" /><path
         d="M 31,7.6746667 C 31,7.496 31.071333,7.324 31.198,7.198 31.324,7.0713333 31.496,7 31.674667,7 h 6.650666 C 38.504,7 38.676,7.0713333 38.802,7.198 38.928667,7.324 39,7.496 39,7.6746667 V 14.325333 C 39,14.504 38.928667,14.676 38.802,14.802 38.676,14.928667 38.504,15 38.325333,15 H 31.674667 C 31.496,15 31.324,14.928667 31.198,14.802 31.071333,14.676 31,14.504 31,14.325333 Z"
         fill="#dfdfdf"
         id="path1-7-8-5"
         style="clip-rule:evenodd;fill-rule:evenodd;stroke-width:0.666667;stroke-linejoin:round;stroke-miterlimit:2" /></g></g><g
     id="media-playback-paused"
     transform="translate(48)"><path
       d="m-24 0h22v22h-22z"
       fill="none"
       id="path7" /><g
       class="ColorScheme-Text"
       fill="currentColor"
       fill-rule="evenodd"
       id="g10"><path
         d="m-13 3a8 8 0 0 0 -8 8 8 8 0 0 0 8 8 8 8 0 0 0 8-8 8 8 0 0 0 -8-8zm0 1a7 7 0 0 1 7 7 7 7 0 0 1 -7 7 7 7 0 0 1 -7-7 7 7 0 0 1 7-7z"
         id="path10"
         style="fill:#dfdfdf;fill-opacity:0.25" /><path
         id="path1-4-9-3-5"
         d="M -16.283407,6.6577158 C -16.67917,6.6577079 -17.000007,6.9785397 -17,7.3743049 v 7.2513901 c -7e-6,0.395765 0.32083,0.716597 0.716593,0.716589 h 1.484467 c 0.395763,4e-6 0.716593,-0.320827 0.716586,-0.716589 V 7.3743049 c 7e-6,-0.3957623 -0.320823,-0.7165927 -0.716586,-0.7165891 z m 5.082347,0 c -0.395763,0 -0.716593,0.3208268 -0.716586,0.7165891 v 7.2513901 c -7e-6,0.395762 0.320823,0.716589 0.716586,0.716589 h 1.4844673 C -9.3208297,15.342292 -9,15.02146 -9,14.625695 V 7.3743049 C -9,6.9785397 -9.3208297,6.6577079 -9.7165927,6.6577158 Z"
         style="clip-rule:evenodd;fill:#dfdfdf;fill-opacity:1;fill-rule:evenodd;stroke-width:0.72941;stroke-linejoin:round;stroke-miterlimit:2"
         sodipodi:nodetypes="ccccsccscsccsccccs" /></g></g><g
     id="16-16-media-playback-pause"
     transform="translate(223 -26)"><path
       d="m-117 48h16v16h-16z"
       fill="none"
       id="path11" /><path
       id="path1-4-9-3"
       d="m -113.53688,50 c -0.54685,-1.1e-5 -0.99017,0.443302 -0.99016,0.990155 v 10.01969 c -1e-5,0.546853 0.44331,0.990166 0.99016,0.990155 h 2.05118 c 0.54685,5e-6 0.99016,-0.443306 0.99015,-0.990155 v -10.01969 c 10e-6,-0.546849 -0.4433,-0.99016 -0.99015,-0.990155 z m 7.02259,0 c -0.54685,0 -0.99016,0.443306 -0.99015,0.990155 v 10.01969 c -1e-5,0.546849 0.4433,0.990155 0.99015,0.990155 h 2.05118 c 0.54685,1.1e-5 0.99016,-0.443302 0.99016,-0.990155 v -10.01969 c 0,-0.546853 -0.44331,-0.990166 -0.99016,-0.990155 z"
       style="clip-rule:evenodd;fill:#dfdfdf;fill-opacity:1;fill-rule:evenodd;stroke-width:1.00787;stroke-linejoin:round;stroke-miterlimit:2"
       sodipodi:nodetypes="ccccsccscsccsccccs" /></g><g
     id="22-22-media-playback-pause"
     transform="translate(207 -43)"><path
       d="m-101 43h22v22h-22z"
       fill="none"
       id="path13" /><path
       id="path1-4-9"
       d="m -95.888133,46.0625 c -0.72344,-1.2e-5 -1.309907,0.586453 -1.309896,1.309893 v 13.255214 c -1.1e-5,0.72344 0.586456,1.309905 1.309896,1.309893 h 2.713541 c 0.72344,1.2e-5 1.309907,-0.586453 1.309896,-1.309893 V 47.372393 c 1.1e-5,-0.72344 -0.586456,-1.309905 -1.309896,-1.309893 z m 9.062726,0 c -0.723439,-1.2e-5 -1.309907,0.586453 -1.309896,1.309893 v 13.255214 c -1.1e-5,0.72344 0.586457,1.309905 1.309896,1.309893 h 2.713541 c 0.723439,1.2e-5 1.309907,-0.586453 1.309896,-1.309893 V 47.372393 c 1.1e-5,-0.72344 -0.586456,-1.309905 -1.309896,-1.309893 z"
       style="clip-rule:evenodd;fill:#dfdfdf;fill-opacity:1;fill-rule:evenodd;stroke-width:1.33333;stroke-linejoin:round;stroke-miterlimit:2"
       sodipodi:nodetypes="cccccccccccccccccc" /></g><g
     id="32-32-media-playback-pause"
     transform="translate(178 -66)"><path
       d="m-72 34h32v32h-32z"
       fill="none"
       id="path15" /><path
       id="path1-4"
       d="m -65.038937,38.09375 c -1.085161,-1.9e-5 -1.964862,0.879683 -1.964844,1.964844 v 19.882812 c -1.8e-5,1.085161 0.879683,1.964863 1.964844,1.964844 h 4.070312 c 1.085161,1.9e-5 1.964863,-0.879683 1.964844,-1.964844 V 40.058594 c 1.9e-5,-1.085161 -0.879683,-1.964863 -1.964844,-1.964844 z m 14.007561,0 c -1.085161,-1.9e-5 -1.964862,0.879683 -1.964844,1.964844 v 19.882812 c -1.7e-5,1.085161 0.879683,1.964863 1.964844,1.964844 h 4.070312 c 1.085161,1.9e-5 1.964864,-0.879683 1.964844,-1.964844 V 40.058594 c 2e-5,-1.085161 -0.879683,-1.964863 -1.964844,-1.964844 z"
       style="clip-rule:evenodd;fill:#dfdfdf;fill-opacity:1;fill-rule:evenodd;stroke-width:2;stroke-linejoin:round;stroke-miterlimit:2"
       sodipodi:nodetypes="cccccccccccccccccc" /></g><g
     id="32-32-media-playback-start"
     transform="translate(24 -68)"><path
       d="m48 36h32v32h-32z"
       fill="none"
       id="path17" /><path
       d="m 55.354968,39.356428 c -0.721245,-0.392086 -1.597388,-0.377565 -2.304112,0.04357 -0.706723,0.418709 -1.139954,1.178679 -1.139954,2.001576 v 21.196857 c 0,0.822897 0.433231,1.582866 1.139954,2.001577 0.706724,0.421129 1.582867,0.435652 2.304112,0.04356 5.00757,-2.73008 14.2579,-7.778796 19.43005,-10.598428 C 75.532886,53.636112 76,52.851939 76,51.999999 76,51.148058 75.532886,50.363886 74.785018,49.954858 69.612868,47.135225 60.362538,42.08651 55.354968,39.356428 Z"
       fill="#dfdfdf"
       id="path1-5"
       style="clip-rule:evenodd;fill-rule:evenodd;stroke-width:2.42029;stroke-linejoin:round;stroke-miterlimit:2" /></g><g
     id="22-22-media-playback-start"
     transform="translate(48 -46)"><path
       d="m24 46h22v22h-22z"
       fill="none"
       id="path19" /><path
       d="M 29.287552,48.602128 C 28.8085,48.341704 28.226565,48.351349 27.757158,48.631067 27.287752,48.909174 27,49.413947 27,49.960516 v 14.078971 c 0,0.546569 0.287752,1.051341 0.757158,1.329449 0.469407,0.279714 1.051342,0.289361 1.530394,0.02893 3.326032,-1.813322 9.470109,-5.166683 12.905456,-7.039485 C 42.689742,58.086707 43,57.565858 43,56.999999 43,56.434139 42.689742,55.913291 42.193008,55.641615 38.757661,53.768812 32.613584,50.415451 29.287552,48.602128 Z"
       fill="#dfdfdf"
       id="path1-5-9"
       style="clip-rule:evenodd;fill-rule:evenodd;stroke-width:1.60756;stroke-linejoin:round;stroke-miterlimit:2" /></g><g
     id="16-16-media-playback-start"
     transform="translate(66 -30)"><path
       d="m6 52h16v16h-16z"
       fill="none"
       id="path21" /><path
       d="M 9.715664,53.701596 C 9.356375,53.506278 8.9199238,53.513512 8.5678685,53.723301 8.215814,53.931881 8,54.310461 8,54.720387 v 10.559229 c 0,0.409926 0.215814,0.788505 0.5678685,0.997086 0.3520553,0.209786 0.7885065,0.217021 1.1477955,0.0217 2.494524,-1.359992 7.102582,-3.875012 9.679092,-5.279614 C 19.767306,60.815031 20,60.424394 20,60 20,59.575605 19.767306,59.184969 19.394756,58.981212 16.818246,57.576609 12.210188,55.061589 9.715664,53.701596 Z"
       fill="#dfdfdf"
       id="path1-5-9-1"
       style="clip-rule:evenodd;fill-rule:evenodd;stroke-width:1.20567;stroke-linejoin:round;stroke-miterlimit:2" /></g><g
     id="16-16-media-playback-stop"
     transform="translate(254 -86)"><path
       d="m-114 108h16v16h-16z"
       fill="none"
       id="path23" /><path
       d="m -112,111.012 c 0,-0.268 0.107,-0.526 0.297,-0.715 0.189,-0.19 0.447,-0.297 0.715,-0.297 h 9.976 c 0.268,0 0.526,0.107 0.715,0.297 0.19,0.189 0.297,0.447 0.297,0.715 v 9.976 c 0,0.268 -0.107,0.526 -0.297,0.715 -0.189,0.19 -0.447,0.297 -0.715,0.297 h -9.976 c -0.268,0 -0.526,-0.107 -0.715,-0.297 -0.19,-0.189 -0.297,-0.447 -0.297,-0.715 z"
       fill="#dfdfdf"
       id="path1-7-8"
       style="clip-rule:evenodd;fill-rule:evenodd;stroke-width:1;stroke-linejoin:round;stroke-miterlimit:2" /></g><g
     id="22-22-media-playback-stop"
     transform="translate(236 -102)"><path
       d="m-96 102h22v22h-22z"
       fill="none"
       id="path25" /><path
       d="m -93,106.34933 c 0,-0.35733 0.142667,-0.70133 0.396,-0.95333 0.252,-0.25333 0.596,-0.396 0.953333,-0.396 h 13.301334 c 0.357333,0 0.701333,0.14267 0.953333,0.396 0.253333,0.252 0.396,0.596 0.396,0.95333 v 13.30134 c 0,0.35733 -0.142667,0.70133 -0.396,0.95333 -0.252,0.25333 -0.596,0.396 -0.953333,0.396 H -91.650667 C -92.008,121 -92.352,120.85733 -92.604,120.604 -92.857333,120.352 -93,120.008 -93,119.65067 Z"
       fill="#dfdfdf"
       id="path1-7-4"
       style="clip-rule:evenodd;fill-rule:evenodd;stroke-width:1.33333;stroke-linejoin:round;stroke-miterlimit:2" /></g><g
     id="32-32-media-playback-stop"
     transform="translate(212 -124)"><path
       d="m-72 92h32v32h-32z"
       fill="none"
       id="path27" /><path
       d="m 8.07882,10.894936 c 0,-0.536 0.214,-1.052 0.594,-1.43 0.378,-0.38 0.894,-0.594 1.43,-0.594 h 19.952 c 0.536,0 1.052,0.214 1.43,0.594 0.38,0.378 0.594,0.894 0.594,1.43 v 19.952 c 0,0.536 -0.214,1.052 -0.594,1.43 -0.378,0.38 -0.894,0.594 -1.43,0.594 h -19.952 c -0.536,0 -1.052,-0.214 -1.43,-0.594 -0.38,-0.378 -0.594,-0.894 -0.594,-1.43 z"
       fill="#dfdfdf"
       id="path1-7"
       style="clip-rule:evenodd;fill-rule:evenodd;stroke-linejoin:round;stroke-miterlimit:2;stroke-width:2"
       transform="translate(-76.07882,87.129064)" /></g><g
     id="32-32-media-record"
     transform="translate(184 -160)"><path
       d="m-10 128h32v32h-32z"
       fill="none"
       id="path29" /><path
       d="M 18,144 A 12,12 0 0 1 6,156 12,12 0 0 1 -6,144 12,12 0 0 1 6,132 12,12 0 0 1 18,144 Z"
       fill="#da4453"
       id="path30"
       style="fill:#dfdfdf;fill-opacity:1;stroke-width:1" /></g><g
     id="16-16-media-record"
     transform="translate(226 -122)"><path
       d="m-52 144h16v16h-16z"
       fill="none"
       id="path31" /><path
       d="m -38,152 a 6,6 0 0 1 -6,6 6,6 0 0 1 -6,-6 6,6 0 0 1 6,-6 6,6 0 0 1 6,6 z"
       fill="#da4453"
       id="path32"
       style="fill:#dfdfdf;fill-opacity:1;stroke-width:1" /></g><g
     id="22-22-media-record"
     transform="translate(208 -138)"><path
       d="m-34 138h22v22h-22z"
       fill="none"
       id="path33" /><path
       d="m -15,149 a 8,8 0 0 1 -8,8 8,8 0 0 1 -8,-8 8,8 0 0 1 8,-8 8,8 0 0 1 8,8 z"
       fill="#da4453"
       id="path34"
       style="fill:#dfdfdf;fill-opacity:1;stroke-width:1" /></g><g
     id="16-16-media-eject"
     transform="translate(286 -224)"><path
       d="m58 246h16v16h-16z"
       fill="none"
       id="path35" /><path
       style="fill:#dfdfdf"
       d="m 377.76023,25.318883 -4.30371,5.517385 a 0.69442845,0.69442845 63.9776 0 0 0.54755,1.121533 h 8.996 a 0.69442845,0.69442845 116.0224 0 0 0.54755,-1.121533 l -4.30371,-5.517385 a 0.94083785,0.94083785 0 0 0 -1.48368,0 z M 373.50207,34 v 2 h 10 v -2 z"
       id="path1-66"
       sodipodi:nodetypes="ccccccccc"
       inkscape:path-effect="#path-effect67"
       inkscape:original-d="m 378.50207,24.367835 -5.92038,7.589966 h 11.84076 z m -5,9.632165 v 2 h 10 v -2 z"
       transform="matrix(1.1555268,0,0,1.1555268,-371.36927,218.78147)" /></g><g
     id="22-22-media-eject"
     transform="translate(268 -240)"><path
       d="m76 240h22v22h-22z"
       fill="none"
       id="path37" /><path
       style="fill:#dfdfdf"
       d="m 377.76023,25.318883 -4.30371,5.517385 a 0.69442845,0.69442845 63.9776 0 0 0.54755,1.121533 h 8.996 a 0.69442845,0.69442845 116.0224 0 0 0.54755,-1.121533 l -4.30371,-5.517385 a 0.94083785,0.94083785 0 0 0 -1.48368,0 z M 373.50207,34 v 2 h 10 v -2 z"
       id="path1-66-6"
       sodipodi:nodetypes="ccccccccc"
       inkscape:path-effect="#path-effect67-1"
       inkscape:original-d="m 378.50207,24.367835 -5.92038,7.589966 h 11.84076 z m -5,9.632165 v 2 h 10 v -2 z"
       transform="matrix(1.4832902,0,0,1.4832902,-474.42841,205.79176)" /></g><g
     id="32-32-media-eject"
     transform="translate(244 -262)"><path
       d="m100 230h32v32h-32z"
       fill="none"
       id="path40" /><path
       style="fill:#dfdfdf"
       d="m 377.76023,25.318883 -4.30371,5.517385 a 0.69442845,0.69442845 63.9776 0 0 0.54755,1.121533 h 8.996 a 0.69442845,0.69442845 116.0224 0 0 0.54755,-1.121533 l -4.30371,-5.517385 a 0.94083785,0.94083785 0 0 0 -1.48368,0 z M 373.50207,34 v 2 h 10 v -2 z"
       id="path1-66-6-3"
       sodipodi:nodetypes="ccccccccc"
       inkscape:path-effect="#path-effect67-1-2"
       inkscape:original-d="m 378.50207,24.367835 -5.92038,7.589966 h 11.84076 z m -5,9.632165 v 2 h 10 v -2 z"
       transform="matrix(2.1458656,0,0,2.1458656,-696.21457,180.59755)" /></g><g
     id="16-16-media-skip-forward"
     transform="translate(60 -104)"><path
       d="m250 126h16v16h-16z"
       fill="none"
       id="path43" /><path
       id="path1-77-7-4-8"
       style="clip-rule:evenodd;fill:#dfdfdf;fill-opacity:1;fill-rule:evenodd;stroke-width:1.01298;stroke-linejoin:round;stroke-miterlimit:2"
       d="m 266,129.94806 v 8.10388 h -2.02597 V 134 129.94806 Z M 263.97403,134 c 0,0.2078 -0.11009,0.4017 -0.29084,0.50452 -1.4633,0.83664 -4.37503,2.49856 -5.8286,3.32979 -0.17968,0.10282 -0.39914,0.10192 -0.57773,-0.002 -0.17858,-0.10392 -0.28885,-0.29582 -0.28885,-0.50255 v -3.32974 -3.32979 c 0,-0.20673 0.11027,-0.39666 0.28885,-0.50057 0.17859,-0.1039 0.39805,-0.10678 0.57773,-0.004 1.45357,0.83123 4.3653,2.49513 5.8286,3.33177 0.18075,0.10282 0.29084,0.29473 0.29084,0.50254 z m -6.98602,0 c 0,0.2078 -0.11207,0.4017 -0.29282,0.50452 -1.46331,0.83664 -4.37307,2.49856 -5.82664,3.32979 -0.17966,0.10282 -0.40111,0.10192 -0.57969,-0.002 C 250.11028,137.72841 250,137.53651 250,137.32979 v -6.65958 c 0,-0.20673 0.11028,-0.39666 0.28886,-0.50056 0.17858,-0.1039 0.40003,-0.10677 0.57969,-0.004 1.45357,0.83123 4.36333,2.49512 5.82664,3.33177 0.18075,0.10282 0.29282,0.29471 0.29282,0.50252 z" /></g><g
     id="22-22-media-skip-forward"
     transform="translate(310)"><path
       d="m0 0h22v22h-22z"
       fill="none"
       id="path45" /><path
       id="path1-77-7-7"
       style="clip-rule:evenodd;fill:#dfdfdf;fill-opacity:1;fill-rule:evenodd;stroke-width:1.39285;stroke-linejoin:round;stroke-miterlimit:2"
       d="M 22,5.4285895 V 16.57141 H 19.214291 V 11 5.4285895 Z M 19.214291,11 c 0,0.285736 -0.151375,0.552327 -0.399898,0.693706 -2.012047,1.150385 -6.015675,3.435518 -8.014335,4.578459 -0.247053,0.141379 -0.548813,0.140147 -0.794375,-0.0028 -0.245548,-0.142867 -0.39717,-0.406737 -0.39717,-0.690984 V 10.999969 6.4215105 c 0,-0.284248 0.151622,-0.545398 0.39717,-0.688266 0.245562,-0.142868 0.547322,-0.146821 0.794375,-0.0054 1.99866,1.142942 6.002288,3.430797 8.014335,4.5811795 0.248523,0.141379 0.399898,0.40525 0.399898,0.690985 z m -9.605778,0 c 0,0.285736 -0.154096,0.552327 -0.402633,0.693706 C 7.193833,12.844091 3.192919,15.129224 1.194259,16.272165 0.94722,16.413544 0.642732,16.412312 0.397184,16.269365 0.151629,16.126578 0,15.862707 0,15.57846 V 6.4215425 c 0,-0.284248 0.151629,-0.545399 0.397184,-0.688266 0.245548,-0.142868 0.550036,-0.146821 0.797075,-0.0054 1.99866,1.142942 5.999574,3.430797 8.011621,4.5811785 0.248537,0.14138 0.402633,0.405251 0.402633,0.690987 z" /></g><g
     id="32-32-media-skip-forward"
     transform="translate(18 -142)"><path
       d="m292 110h32v32h-32z"
       fill="none"
       id="path47" /><path
       id="path1-77-0"
       style="clip-rule:evenodd;fill:#dfdfdf;fill-opacity:1;fill-rule:evenodd;stroke-width:2.02687;stroke-linejoin:round;stroke-miterlimit:2"
       d="m 324.01429,117.89251 v 16.21498 h -4.05375 V 126 117.89251 Z M 319.96054,126 c 0,0.4158 -0.22028,0.80374 -0.58193,1.00948 -2.92792,1.67403 -8.75398,4.99934 -11.66242,6.66255 -0.35951,0.20573 -0.79863,0.20394 -1.15597,-0.004 -0.35732,-0.2079 -0.57796,-0.59189 -0.57796,-1.00552 v -6.66246 -6.66255 c 0,-0.41363 0.22064,-0.79366 0.57796,-1.00156 0.35734,-0.2079 0.79646,-0.21365 1.15597,-0.008 2.90844,1.6632 8.7345,4.99248 11.66242,6.66651 0.36165,0.20574 0.58193,0.58972 0.58193,1.00552 z m -13.97828,0 c 0,0.4158 -0.22424,0.80374 -0.58591,1.00948 -2.92792,1.67403 -8.75003,4.99934 -11.65847,6.66255 -0.35949,0.20573 -0.80258,0.20394 -1.1599,-0.004 C 292.22065,133.46027 292,133.07629 292,132.66265 v -13.3252 c 0,-0.41364 0.22065,-0.79366 0.57798,-1.00156 0.35732,-0.2079 0.80041,-0.21365 1.1599,-0.008 2.90844,1.6632 8.73055,4.99248 11.65847,6.66651 0.36167,0.20573 0.58591,0.58971 0.58591,1.00552 z" /></g><g
     id="16-16-media-skip-backward"
     transform="translate(26 -40)"><path
       d="m250 62h16v16h-16z"
       fill="none"
       id="path49" /><path
       id="path1-77-7-4"
       style="clip-rule:evenodd;fill:#dfdfdf;fill-opacity:1;fill-rule:evenodd;stroke-width:1.01298;stroke-linejoin:round;stroke-miterlimit:2"
       d="m 250,65.948065 v 8.10387 h 2.02597 V 70 65.948065 Z M 252.02597,70 c 0,0.207807 0.11009,0.401692 0.29084,0.504514 1.4633,0.836642 4.37503,2.498558 5.8286,3.329787 0.17968,0.102821 0.39914,0.101925 0.57773,-0.002 0.17858,-0.103903 0.28885,-0.29581 0.28885,-0.502533 v -3.329754 -3.329788 c 0,-0.206726 -0.11027,-0.396654 -0.28885,-0.500558 -0.17859,-0.103904 -0.39805,-0.106778 -0.57773,-0.0039 -1.45357,0.831231 -4.3653,2.495125 -5.8286,3.331767 -0.18075,0.102822 -0.29084,0.294728 -0.29084,0.502535 z m 6.98602,0 c 0,0.207807 0.11207,0.401692 0.29282,0.504514 1.46331,0.836642 4.37307,2.498558 5.82664,3.329787 0.17966,0.102821 0.40111,0.101925 0.57969,-0.002 C 265.88972,73.728419 266,73.536514 266,73.32979 v -6.659577 c 0,-0.206726 -0.11028,-0.396654 -0.28886,-0.500557 -0.17858,-0.103904 -0.40003,-0.106779 -0.57969,-0.0039 -1.45357,0.831231 -4.36333,2.495126 -5.82664,3.331767 -0.18075,0.102822 -0.29282,0.294726 -0.29282,0.502534 z" /></g><g
     id="22-22-media-skip-backward"
     transform="translate(276 -1)"><path
       d="m0 1h22v22h-22z"
       fill="none"
       id="path51" /><path
       id="path1-77-7"
       style="clip-rule:evenodd;fill:#dfdfdf;fill-opacity:1;fill-rule:evenodd;stroke-width:1.39285;stroke-linejoin:round;stroke-miterlimit:2"
       d="M 0,6.4285895 V 17.57141 H 2.7857091 V 12 6.4285895 Z M 2.7857091,12 c 0,0.285735 0.1513749,0.552327 0.3998983,0.693706 2.0120465,1.150384 6.0156749,3.435518 8.0143346,4.578459 0.247053,0.141379 0.548813,0.140147 0.794375,-0.0028 0.245548,-0.142867 0.39717,-0.406738 0.39717,-0.690984 V 11.999969 7.42151 c 0,-0.2842478 -0.151622,-0.5453983 -0.39717,-0.6882658 C 11.748755,6.5903761 11.446995,6.5864233 11.199942,6.7278154 9.2012823,7.870757 5.1976539,10.158612 3.1856074,11.308995 2.937084,11.450374 2.7857091,11.714245 2.7857091,11.99998 Z m 9.6057779,0 c 0,0.285735 0.154096,0.552327 0.402633,0.693706 2.012047,1.150384 6.012961,3.435518 8.011621,4.578459 0.247039,0.141379 0.551527,0.140147 0.797075,-0.0028 C 21.848371,17.126577 22,16.862707 22,16.57846 V 7.4215416 C 22,7.1372938 21.848371,6.8761433 21.602816,6.7332758 21.357268,6.5904077 21.05278,6.5864549 20.805741,6.727847 c -1.99866,1.1429417 -5.999574,3.430797 -8.011621,4.581179 -0.248537,0.14138 -0.402633,0.40525 -0.402633,0.690986 z" /></g><g
     id="32-32-media-skip-backward"
     transform="translate(-16 -78)"><path
       d="m292 46h32v32h-32z"
       fill="none"
       id="path53" /><path
       id="path1-77"
       style="clip-rule:evenodd;fill:#dfdfdf;fill-opacity:1;fill-rule:evenodd;stroke-width:2.02687;stroke-linejoin:round;stroke-miterlimit:2"
       d="m 291.98571,53.892511 v 16.214978 h 4.05375 V 62 53.892511 Z M 296.03946,62 c 0,0.4158 0.22028,0.803742 0.58193,1.009477 2.92792,1.674033 8.75398,4.999348 11.66242,6.662551 0.35951,0.205735 0.79863,0.203942 1.15597,-0.0041 0.35732,-0.2079 0.57796,-0.591883 0.57796,-1.005517 v -6.662457 -6.66255 c 0,-0.413636 -0.22064,-0.793661 -0.57796,-1.001561 -0.35734,-0.207901 -0.79646,-0.213653 -1.15597,-0.0079 -2.90844,1.663203 -8.7345,4.992478 -11.66242,6.666509 -0.36165,0.205735 -0.58193,0.589718 -0.58193,1.005519 z m 13.97828,0 c 0,0.4158 0.22424,0.803742 0.58591,1.009477 2.92792,1.674033 8.75003,4.999348 11.65847,6.662551 0.35949,0.205735 0.80258,0.203942 1.1599,-0.0041 C 323.77935,69.460169 324,69.076186 324,68.662552 V 55.33745 c 0,-0.413636 -0.22065,-0.793661 -0.57798,-1.001561 -0.35732,-0.207901 -0.80041,-0.213653 -1.1599,-0.0079 -2.90844,1.663203 -8.73055,4.992478 -11.65847,6.666509 -0.36167,0.205735 -0.58591,0.589718 -0.58591,1.005519 z" /></g><g
     id="16-16-media-seek-forward"
     transform="translate(448 -168)"><path
       d="m-206 190h16v16h-16z"
       fill="none"
       id="path55" /><path
       d="m -198,197.97858 v -3.31429 c 0,-0.20702 0.11061,-0.39881 0.28921,-0.50232 0.17861,-0.10453 0.39983,-0.10554 0.58046,-0.002 1.45622,0.83212 4.37171,2.49739 5.83706,3.3356 0.18165,0.10351 0.29327,0.29631 0.29327,0.50435 0,0.20803 -0.11162,0.40084 -0.29327,0.50435 -1.46535,0.83821 -4.38084,2.50347 -5.83706,3.33661 -0.18063,0.1025 -0.40185,0.10148 -0.58046,-0.003 -0.1786,-0.1035 -0.28921,-0.29529 -0.28921,-0.5023 v -3.3143 c -0.007,0.19991 -0.11771,0.38359 -0.29226,0.48304 -1.46636,0.83821 -4.38185,2.50348 -5.83807,3.33662 -0.17962,0.10249 -0.40084,0.10147 -0.57944,-0.003 -0.17962,-0.10351 -0.29023,-0.2953 -0.29023,-0.50232 v -6.67121 c 0,-0.20701 0.11061,-0.39881 0.29023,-0.50232 0.1786,-0.10452 0.39982,-0.10554 0.57944,-0.002 1.45622,0.83213 4.37171,2.4974 5.83807,3.33561 0.17455,0.0995 0.28516,0.28313 0.29226,0.48304 z"
       fill="#dfdfdf"
       id="path1-6-9-4-8"
       style="clip-rule:evenodd;fill-rule:evenodd;stroke-width:1.01478;stroke-linejoin:round;stroke-miterlimit:2" /></g><g
     id="22-22-media-seek-forward"
     transform="translate(430 -184)"><path
       d="m-188 184h22v22h-22z"
       fill="none"
       id="path57" /><g
       class="ColorScheme-Text"
       fill="currentColor"
       transform="translate(-188 184)"
       id="g58"><path
         d="M 11,10.969412 V 6.2347048 c 0,-0.2957357 0.158014,-0.5697286 0.413164,-0.7176 0.255143,-0.1493214 0.571179,-0.1507714 0.829222,-0.00286 2.080314,1.18875 6.245293,3.5676995 8.33865,4.7651493 C 20.840536,10.427269 21,10.702705 21,10.999898 c 0,0.297186 -0.159464,0.572628 -0.418964,0.7205 -2.093357,1.197443 -6.258336,3.576393 -8.33865,4.766593 -0.258043,0.146421 -0.574079,0.144971 -0.829222,-0.0043 C 11.158014,16.334834 11,16.060841 11,15.765105 v -4.734707 c -0.01014,0.285586 -0.168164,0.547986 -0.417514,0.690057 -2.094807,1.197443 -6.259786,3.576393 -8.3401,4.766593 -0.256593,0.146421 -0.572629,0.144971 -0.827772,-0.0043 C 1.158014,16.334891 1,16.060898 1,15.765162 V 6.2348619 c 0,-0.2957357 0.158014,-0.5697285 0.414614,-0.7176 0.255143,-0.1493214 0.571179,-0.1507714 0.827772,-0.00286 2.080314,1.18875 6.245293,3.5677004 8.3401,4.7651502 0.24935,0.142071 0.407364,0.404464 0.417514,0.690057 z"
         fill="#dfdfdf"
         id="path1-6-9-7"
         style="clip-rule:evenodd;fill-rule:evenodd;stroke-width:1.44969;stroke-linejoin:round;stroke-miterlimit:2" /></g></g><g
     id="32-32-media-seek-forward"
     transform="translate(406 -206)"><path
       d="m-164 174h32v32h-32z"
       fill="none"
       id="path59" /><path
       d="m -148,189.95718 v -6.62859 c 0,-0.41403 0.22122,-0.79762 0.57843,-1.00464 0.3572,-0.20905 0.79965,-0.21108 1.16091,-0.004 2.91244,1.66425 8.74341,4.99478 11.67411,6.67121 0.3633,0.20702 0.58655,0.59263 0.58655,1.0087 0,0.41606 -0.22325,0.80168 -0.58655,1.0087 -2.9307,1.67642 -8.76167,5.00695 -11.67411,6.67323 -0.36126,0.20499 -0.80371,0.20296 -1.16091,-0.006 C -147.77878,197.46877 -148,197.08518 -148,196.67115 v -6.62859 c -0.0142,0.39982 -0.23543,0.76718 -0.58452,0.96608 -2.93273,1.67642 -8.7637,5.00695 -11.67614,6.67323 -0.35923,0.20499 -0.80168,0.20296 -1.15888,-0.006 C -161.77878,197.46885 -162,197.08526 -162,196.67123 v -13.34242 c 0,-0.41403 0.22122,-0.79762 0.58046,-1.00464 0.3572,-0.20905 0.79965,-0.21108 1.15888,-0.004 2.91244,1.66425 8.74341,4.99478 11.67614,6.67121 0.34909,0.1989 0.57031,0.56625 0.58452,0.96608 z"
       fill="#dfdfdf"
       id="path1-6-6"
       style="clip-rule:evenodd;fill-rule:evenodd;stroke-width:2.02957;stroke-linejoin:round;stroke-miterlimit:2" /></g><g
     id="16-16-media-seek-backward"
     transform="translate(414 -232)"><path
       d="m-206 254h16v16h-16z"
       fill="none"
       id="path61" /><path
       d="m -198,261.97858 v -3.31429 c 0,-0.20702 -0.11061,-0.39881 -0.28921,-0.50232 -0.17861,-0.10453 -0.39983,-0.10554 -0.58046,-0.002 -1.45622,0.83212 -4.37171,2.49739 -5.83706,3.3356 -0.18165,0.10351 -0.29327,0.29631 -0.29327,0.50435 0,0.20803 0.11162,0.40084 0.29327,0.50435 1.46535,0.83821 4.38084,2.50347 5.83706,3.33661 0.18063,0.1025 0.40185,0.10148 0.58046,-0.003 0.1786,-0.1035 0.28921,-0.29529 0.28921,-0.5023 v -3.3143 c 0.007,0.19991 0.11771,0.38359 0.29226,0.48304 1.46636,0.83821 4.38185,2.50348 5.83807,3.33662 0.17962,0.10249 0.40084,0.10147 0.57944,-0.003 0.17962,-0.10351 0.29023,-0.2953 0.29023,-0.50232 v -6.67121 c 0,-0.20701 -0.11061,-0.39881 -0.29023,-0.50232 -0.1786,-0.10452 -0.39982,-0.10554 -0.57944,-0.002 -1.45622,0.83213 -4.37171,2.4974 -5.83807,3.33561 -0.17455,0.0995 -0.28516,0.28313 -0.29226,0.48304 z"
       fill="#dfdfdf"
       id="path1-6-9-4"
       style="clip-rule:evenodd;fill-rule:evenodd;stroke-width:1.01478;stroke-linejoin:round;stroke-miterlimit:2" /></g><g
     id="22-22-media-seek-backward"
     transform="translate(396 -248)"><path
       d="m-188 248h22v22h-22z"
       fill="none"
       id="path63" /><g
       class="ColorScheme-Text"
       fill="currentColor"
       transform="translate(-188 248)"
       id="g64"><path
         d="M 11,10.969412 V 6.2347047 C 11,5.938969 10.841986,5.6649761 10.586836,5.5171047 10.331693,5.3677833 10.015657,5.3663333 9.7576143,5.5142476 7.6773,6.7029976 3.5123214,9.0819471 1.4189643,10.279397 1.1594643,10.427269 1,10.702705 1,10.999898 c 0,0.297186 0.1594643,0.572628 0.4189643,0.7205 2.0933571,1.197443 6.2583357,3.576393 8.33865,4.766593 0.2580427,0.146421 0.5740787,0.144971 0.8292217,-0.0043 C 10.841986,16.334834 11,16.060841 11,15.765105 v -4.734707 c 0.01014,0.285586 0.168164,0.547986 0.417514,0.690057 2.094807,1.197443 6.259786,3.576393 8.3401,4.766593 0.256593,0.146421 0.572629,0.144971 0.827772,-0.0043 C 20.841986,16.334891 21,16.060898 21,15.765162 V 6.2348618 C 21,5.9391261 20.841986,5.6651333 20.585386,5.5172618 20.330243,5.3679404 20.014207,5.3664904 19.757614,5.5144047 17.6773,6.7031547 13.512321,9.0821051 11.417514,10.279555 11.168164,10.421626 11.01015,10.684019 11,10.969612 Z"
         fill="#dfdfdf"
         id="path1-6-9"
         style="clip-rule:evenodd;fill-rule:evenodd;stroke-width:1.44969;stroke-linejoin:round;stroke-miterlimit:2" /></g></g><g
     id="32-32-media-seek-backward"
     transform="translate(372 -270)"><path
       d="m-164 238h32v32h-32z"
       fill="none"
       id="path65" /><path
       d="m -148,253.95718 v -6.62859 c 0,-0.41403 -0.22122,-0.79762 -0.57843,-1.00464 -0.3572,-0.20905 -0.79965,-0.21108 -1.16091,-0.004 -2.91244,1.66425 -8.74341,4.99478 -11.67411,6.67121 -0.3633,0.20702 -0.58655,0.59263 -0.58655,1.0087 0,0.41606 0.22325,0.80168 0.58655,1.0087 2.9307,1.67642 8.76167,5.00695 11.67411,6.67323 0.36126,0.20499 0.80371,0.20296 1.16091,-0.006 0.35721,-0.20702 0.57843,-0.59061 0.57843,-1.00464 v -6.62859 c 0.0142,0.39982 0.23543,0.76718 0.58452,0.96608 2.93273,1.67642 8.7637,5.00695 11.67614,6.67323 0.35923,0.20499 0.80168,0.20296 1.15888,-0.006 0.35924,-0.20702 0.58046,-0.59061 0.58046,-1.00464 v -13.34242 c 0,-0.41403 -0.22122,-0.79762 -0.58046,-1.00464 -0.3572,-0.20905 -0.79965,-0.21108 -1.15888,-0.004 -2.91244,1.66425 -8.74341,4.99478 -11.67614,6.67121 -0.34909,0.1989 -0.57031,0.56625 -0.58452,0.96608 z"
       fill="#dfdfdf"
       id="path1-6"
       style="clip-rule:evenodd;fill-rule:evenodd;stroke-width:2.02957;stroke-linejoin:round;stroke-miterlimit:2" /></g></svg>
