<?xml version="1.0" encoding="UTF-8" standalone="no"?>
<svg
   version="1.1"
   viewBox="0 0 32 16"
   id="svg2"
   sodipodi:docname="mobile.svg"
   inkscape:version="1.3 (0e150ed6c4, 2023-07-21)"
   xmlns:inkscape="http://www.inkscape.org/namespaces/inkscape"
   xmlns:sodipodi="http://sodipodi.sourceforge.net/DTD/sodipodi-0.dtd"
   xmlns="http://www.w3.org/2000/svg"
   xmlns:svg="http://www.w3.org/2000/svg">
  <sodipodi:namedview
     id="namedview2"
     pagecolor="#ffffff"
     bordercolor="#000000"
     borderopacity="0.25"
     inkscape:showpageshadow="2"
     inkscape:pageopacity="0.0"
     inkscape:pagecheckerboard="0"
     inkscape:deskcolor="#d1d1d1"
     inkscape:zoom="18.765625"
     inkscape:cx="19.370525"
     inkscape:cy="0.5062448"
     inkscape:window-width="2194"
     inkscape:window-height="1211"
     inkscape:window-x="-8"
     inkscape:window-y="-8"
     inkscape:window-maximized="1"
     inkscape:current-layer="svg2" />
  <defs
     id="defs1">
    <style
       id="current-color-scheme"
       type="text/css">.ColorScheme-Text {&#10;            color:#232629;&#10;        }</style>
  </defs>
  <g
     id="mobile-task-switcher"
     transform="matrix(3.7803186 0 0 3.7803186 -.00289876 -.00254929)"
     class="ColorScheme-Text"
     fill="currentColor">
    <path
       class="ColorScheme-Text"
       d="m 1.0815353,0.5297303 c -0.30537362,0 -0.55112919,0.24575557 -0.55112919,0.5511292 v 2.0727416 c 0,0.3053733 0.24575557,0.5511292 0.55112919,0.5511292 h 2.0727416 c 0.3053734,0 0.5511292,-0.2457559 0.5511292,-0.5511292 V 1.0808595 c 0,-0.30537363 -0.2457558,-0.5511292 -0.5511292,-0.5511292 z m 0.1735955,0.470918 h 1.7286213 c 0.1395238,0 0.2516987,0.1124045 0.2516987,0.2519282 v 1.7313744 c 0,0.1395238 -0.1121749,0.2519283 -0.2516987,0.2519283 H 1.2551312 c -0.1395235,0 -0.251928,-0.1124045 -0.251928,-0.2519283 V 1.2525765 c 0,-0.1395237 0.1124045,-0.2519282 0.2519276,-0.2519282 z"
       stroke-opacity="0"
       stroke-width="0.132292"
       id="path1"
       style="fill:#dfdfdf;fill-opacity:1"
       sodipodi:nodetypes="ssssssssssssssssss" />
  </g>
  <g
     id="mobile-close-app"
     transform="matrix(3.7734101 0 0 3.7734101 .05466992 .00852106)"
     fill="currentColor">
    <g
       id="path2"
       class="ColorScheme-Text">
      <path
         style="color:#232629;fill:#dfdfdf;stroke-linecap:round;-inkscape-stroke:none"
         d="M 5.0267877,0.79852372 7.6646854,3.4364215 m -2.6378977,0 2.6378977,-2.63789778"
         id="path4" />
      <path
         style="color:#232629;fill:#dfdfdf;stroke-linecap:round;-inkscape-stroke:none"
         d="m 4.8359375,0.60742187 a 0.26938498,0.26938498 0 0 0 0,0.38085938 L 5.9648437,2.1171875 4.8359375,3.2460938 a 0.26938498,0.26938498 0 0 0 0,0.3808593 0.26938498,0.26938498 0 0 0 0.3808594,0 L 6.3457031,2.4980469 7.4746094,3.6269531 a 0.26938498,0.26938498 0 0 0 0.3808593,0 0.26938498,0.26938498 0 0 0 0,-0.3808593 L 6.7265625,2.1171875 7.8554687,0.98828125 a 0.26938498,0.26938498 0 0 0 0,-0.38085938 0.26938498,0.26938498 0 0 0 -0.3808593,0 L 6.3457031,1.7363281 5.2167969,0.60742187 a 0.26938498,0.26938498 0 0 0 -0.3808594,0 z"
         id="path5" />
    </g>
  </g>
</svg>
