<?xml version="1.0" encoding="UTF-8" standalone="no"?>
<svg
   id="svg"
   viewBox="0 0 22 22"
   version="1.1"
   sodipodi:docname="notification.svg"
   xml:space="preserve"
   inkscape:version="1.3 (0e150ed6c4, 2023-07-21)"
   xmlns:inkscape="http://www.inkscape.org/namespaces/inkscape"
   xmlns:sodipodi="http://sodipodi.sourceforge.net/DTD/sodipodi-0.dtd"
   xmlns="http://www.w3.org/2000/svg"
   xmlns:svg="http://www.w3.org/2000/svg"><defs
     id="defs7"><inkscape:path-effect
       effect="fillet_chamfer"
       id="path-effect9"
       is_visible="true"
       lpeversion="1"
       nodesatellites_param="F,0,1,1,0,0.56402811,0,1 @ F,0,0,1,0,0.56402811,0,1 @ F,0,1,1,0,0.56402811,0,1 @ F,0,1,1,0,0.56402811,0,1"
       radius="0"
       unit="px"
       method="auto"
       mode="F"
       chamfer_steps="1"
       flexible="false"
       use_knot_distance="true"
       apply_no_radius="true"
       apply_with_radius="true"
       only_selected="false"
       hide_knots="false" /></defs><sodipodi:namedview
     id="namedview7"
     pagecolor="#ffffff"
     bordercolor="#000000"
     borderopacity="0.25"
     inkscape:showpageshadow="2"
     inkscape:pageopacity="0.0"
     inkscape:pagecheckerboard="0"
     inkscape:deskcolor="#d1d1d1"
     inkscape:zoom="5.6568542"
     inkscape:cx="20.506097"
     inkscape:cy="-2.032932"
     inkscape:window-width="2194"
     inkscape:window-height="1211"
     inkscape:window-x="-8"
     inkscape:window-y="-8"
     inkscape:window-maximized="1"
     inkscape:current-layer="svg"
     showgrid="true"><inkscape:grid
       id="grid1"
       units="px"
       originx="0"
       originy="0"
       spacingx="1"
       spacingy="1"
       empcolor="#0099e5"
       empopacity="0.30196078"
       color="#0099e5"
       opacity="0.14901961"
       empspacing="5"
       dotted="false"
       gridanglex="30"
       gridanglez="30"
       visible="true" /></sodipodi:namedview><style
     type="text/css"
     id="current-color-scheme">&#10;        .ColorScheme-Text {&#10;            color:#232629;&#10;        }&#10;        .ColorScheme-ButtonFocus {&#10;            color:#3daee9;&#10;        }&#10;        .ColorScheme-NegativeText {&#10;            color:#da4453;&#10;        }&#10;    </style><g
     id="notification-progress-active"
     transform="translate(39 -1)"><path
       id="empty-rectangle"
       d="m1 1h22v22h-22z"
       fill="none" /><circle
       id="circle-blue"
       cx="12"
       cy="12"
       r="8"
       class="ColorScheme-ButtonFocus"
       fill="currentColor" /></g><g
     id="notification-inactive"
     transform="translate(-1 -1)"
     style="fill:#dfdfdf;fill-opacity:1"><path
       d="m 13.499546,16.892912 c -0.05171,0.879041 -0.672208,1.551249 -1.55125,1.551249 -0.879041,0 -1.551249,-0.672208 -1.551249,-1.551249 z"
       id="path1-4"
       style="clip-rule:evenodd;fill:#dfdfdf;fill-opacity:1;fill-rule:evenodd;stroke-width:0.517083;stroke-linejoin:round;stroke-miterlimit:2" /><path
       d="m 17.894752,15.393371 c -0.103416,-0.05171 -0.155125,-0.103417 -0.258541,-0.103417 -0.465375,-0.206833 -0.827333,-0.723916 -1.034167,-1.137583 -0.361958,-0.568791 -0.517083,-1.240999 -0.517083,-1.913207 l -0.265263,-2.068333 c 0,-2.1200405 -1.337694,-3.8264149 -3.354319,-4.0849564 V 5.5170831 C 12.465379,5.2068333 12.258546,5 11.948296,5 11.638046,5 11.431213,5.2068333 11.431213,5.5170831 V 6.0858746 C 9.4145889,6.3444161 8.0768949,8.1024988 8.0768949,10.170831 l -0.2652637,2.068333 c 0,0.6205 -0.1551249,1.240999 -0.4136665,1.758082 -0.2068332,0.413667 -0.4653748,0.775625 -0.827333,1.085875 -0.1551249,0.155125 -0.3619582,0.206833 -0.5170831,0.31025 -0.155125,0.05171 -0.2585416,0.206833 -0.2585416,0.413666 0,0.31025 0.2068333,0.517084 0.5170832,0.517084 H 17.687919 c 0.31025,0 0.517083,-0.206834 0.517083,-0.517084 -0.05171,-0.103416 -0.155125,-0.310249 -0.31025,-0.413666 z"
       fill-opacity="0.3"
       id="path2-4"
       style="clip-rule:evenodd;display:inline;fill:#dfdfdf;fill-opacity:0.25;fill-rule:evenodd;stroke-width:0.517083;stroke-linejoin:round;stroke-miterlimit:2" /><path
       d="m 17.894752,15.393371 c -0.103416,-0.05171 -0.155125,-0.103417 -0.258541,-0.103417 -0.465375,-0.206833 -0.827333,-0.723916 -1.034167,-1.137583 -0.361958,-0.568791 -0.782346,-3.98154 -0.782346,-3.98154 0,-2.1200405 -1.337694,-3.8264149 -3.354319,-4.0849564 V 5.5170831 C 12.465379,5.2068333 12.258546,5 11.948296,5 11.638046,5 11.431213,5.2068333 11.431213,5.5170831 V 6.0858746 C 9.4145889,6.3444161 8.0768949,8.1024988 8.0768949,10.170831 c 0,0 -0.4203886,3.309332 -0.6789302,3.826415 -0.2068332,0.413667 -0.4653748,0.775625 -0.827333,1.085875 -0.1551249,0.155125 -0.3619582,0.206833 -0.5170831,0.31025 -0.155125,0.05171 -0.2585416,0.206833 -0.2585416,0.413666 0,0.31025 0.2068333,0.517084 0.5170832,0.517084 H 17.687919 c 0.31025,0 0.517083,-0.206834 0.517083,-0.517084 -0.05171,-0.103416 -0.155125,-0.310249 -0.31025,-0.413666 z M 12.354724,6.9494034 c -0.152023,-0.019649 -0.660833,-0.019649 -0.812855,0 -1.5781378,0.2021795 -2.5947232,1.6029577 -2.5947232,3.2214276 0,0.03723 -0.4633065,3.601484 -0.7704539,4.215779 -0.1970086,0.394017 -0.4333156,0.748736 -0.7347751,1.06726 h 9.0070712 c -0.249751,-0.27302 -0.456067,-0.583787 -0.603436,-0.869217 -0.424008,-0.683067 -0.896105,-4.376592 -0.896105,-4.413822 0,-1.6593195 -1.016586,-3.0192481 -2.594723,-3.2214276 z"
       id="path3-8"
       style="clip-rule:evenodd;fill:#dfdfdf;fill-opacity:1;fill-rule:evenodd;stroke-width:0.517083;stroke-linejoin:round;stroke-miterlimit:2" /></g><g
     id="notification-progress-inactive"
     transform="translate(39 39)"><path
       id="path10"
       d="m1 1h22v22h-22z"
       fill="none" /><circle
       id="circle-transparent"
       cx="12"
       cy="12"
       r="8"
       class="ColorScheme-Text"
       fill="currentColor"
       opacity=".4"
       style="fill:#dfdfdf;fill-opacity:0.5" /></g><g
     id="notification-active"
     transform="translate(-0.29289322,39)"><path
       d="M 1,1 H 23 V 23 H 1 Z"
       fill="none"
       id="path3" /><path
       d="M 10.503318,16.925618 C 10.028971,17.645922 9.173449,17.912233 8.4278227,17.481745 7.6821964,17.051258 7.4412079,16.151876 7.8716955,15.40625 Z"
       id="path1-4-8"
       style="clip-rule:evenodd;fill:#dfdfdf;fill-opacity:1;fill-rule:evenodd;stroke-width:0.506456;stroke-linejoin:round;stroke-miterlimit:2" /><path
       d="m 14.965812,17.806105 c -0.06239,-0.09451 -0.08094,-0.163689 -0.168657,-0.214334 -0.293452,-0.403347 -0.347246,-1.01921 -0.320106,-1.471385 -0.02847,-0.659724 0.169144,-1.305877 0.49834,-1.876061 l 0.787908,-1.884322 c 1.038235,-1.798276 0.73922,-3.9007687 -0.84472,-5.1076601 l 0.27855,-0.4824637 C 15.349064,6.5067166 15.274913,6.2299843 15.011751,6.0780474 14.748589,5.9261108 14.471856,6.0002606 14.319919,6.2634231 l -0.27855,0.4824637 C 12.2042,5.9775998 10.208557,6.813752 9.1956445,8.5681671 L 7.9577288,10.192676 c -0.3038736,0.526325 -0.7393283,0.976681 -1.2118583,1.288671 -0.3780236,0.249591 -0.7745851,0.43 -1.2335445,0.515903 -0.2075498,0.05562 -0.4083143,-0.0018 -0.5905404,0.0099 -0.1569038,-0.03211 -0.3205933,0.04883 -0.4218843,0.224269 -0.151937,0.263162 -0.077787,0.539895 0.1853757,0.691832 L 14.33456,18.4943 c 0.263162,0.151936 0.539895,0.07778 0.691832,-0.185376 0.0068,-0.113043 0.02035,-0.33913 -0.06058,-0.50282 z"
       fill-opacity="0.3"
       id="path2-4-9"
       style="clip-rule:evenodd;fill:#dfdfdf;fill-opacity:0.25;fill-rule:evenodd;stroke-width:0.506456;stroke-linejoin:round;stroke-miterlimit:2" /><path
       d="m 14.965812,17.806105 c -0.06239,-0.09451 -0.08094,-0.163689 -0.168657,-0.214334 -0.293452,-0.403347 -0.347246,-1.01921 -0.320106,-1.471385 -0.02847,-0.659724 1.286248,-3.760383 1.286248,-3.760383 1.038235,-1.798276 0.73922,-3.9007687 -0.84472,-5.1076601 l 0.27855,-0.4824637 C 15.349064,6.5067166 15.274913,6.2299843 15.011751,6.0780474 14.748589,5.9261108 14.471856,6.0002606 14.319919,6.2634231 l -0.27855,0.4824637 C 12.2042,5.9775998 10.208557,6.813752 9.1956445,8.5681671 c 0,0 -1.977244,2.6011899 -2.449774,2.9131799 -0.3780236,0.249591 -0.7745851,0.43 -1.2335445,0.515903 -0.2075498,0.05562 -0.4083143,-0.0018 -0.5905404,0.0099 -0.1569038,-0.03211 -0.3205933,0.04883 -0.4218843,0.224269 -0.151937,0.263162 -0.077787,0.539895 0.1853757,0.691832 L 14.33456,18.4943 c 0.263162,0.151936 0.539895,0.07778 0.691832,-0.185376 0.0068,-0.113043 0.02035,-0.33913 -0.06058,-0.50282 z M 14.401824,7.9306205 C 14.282496,7.8395061 13.85091,7.5903297 13.712339,7.5325463 12.274708,6.9311887 10.726418,7.6215198 9.9338146,8.9943498 9.9155815,9.0259304 7.7770927,11.822333 7.2157269,12.192977 c -0.3600673,0.237736 -0.7342238,0.422892 -1.145918,0.54544 l 7.6400391,4.410979 c -0.07814,-0.353892 -0.100954,-0.71853 -0.08617,-1.032809 -0.02514,-0.787043 1.383222,-4.151188 1.401454,-4.182767 0.812609,-1.407479 0.616303,-3.0588532 -0.623303,-4.0031995 z"
       id="path3-8-0"
       style="clip-rule:evenodd;fill:#dfdfdf;fill-opacity:1;fill-rule:evenodd;stroke-width:0.506456;stroke-linejoin:round;stroke-miterlimit:2" /></g><path
     id="expander-bottom"
     d="m-18 23 2-2 2 2z"
     class="ColorScheme-Text"
     fill="currentColor"
     style="fill:#dfdfdf;fill-opacity:1" /><path
     id="expander-top"
     d="m-18 17 2 2 2-2z"
     class="ColorScheme-Text"
     fill="currentColor"
     style="fill:#dfdfdf;fill-opacity:1" /><path
     id="expander-right"
     d="m-13 18-2 2 2 2z"
     class="ColorScheme-Text"
     fill="currentColor"
     style="fill:#dfdfdf;fill-opacity:1" /><path
     id="expander-left"
     d="m-19 18 2 2-2 2z"
     class="ColorScheme-Text"
     fill="currentColor"
     style="fill:#dfdfdf;fill-opacity:1" /><g
     id="notification-disabled"
     transform="translate(-1 -41)"><path
       d="m1 1h22v22h-22z"
       fill="none"
       id="path6" /><path
       d="m 13.546532,17.071417 c -0.05333,0.906588 -0.693273,1.599861 -1.599861,1.599861 -0.906588,0 -1.599861,-0.693273 -1.599861,-1.599861 z"
       id="path1-4-6"
       style="clip-rule:evenodd;fill:#dfdfdf;fill-opacity:1;fill-rule:evenodd;stroke-width:0.533287;stroke-linejoin:round;stroke-miterlimit:2" /><path
       id="path2-4-6"
       style="clip-rule:evenodd;display:inline;opacity:0.25;fill:#dfdfdf;fill-opacity:0.25;fill-rule:evenodd;stroke-width:0.533287;stroke-linejoin:round;stroke-miterlimit:2"
       d="m 11.947395,4.8058149 c -0.319971,0 -0.53481,0.2130853 -0.53481,0.5330572 v 0.587415 C 10.243566,6.0761614 9.2971255,6.7143938 8.6911877,7.6236535 L 17.55151,16.483976 h 0.313873 c 0.319971,0 0.53481,-0.213085 0.53481,-0.533058 -0.05333,-0.106656 -0.1609,-0.319436 -0.320886,-0.426094 -0.106658,-0.05333 -0.159872,-0.106963 -0.266529,-0.106963 -0.479957,-0.213313 -0.8528,-0.746447 -1.066114,-1.173076 -0.3733,-0.586615 -0.533058,-1.27939 -0.533058,-1.972663 L 15.940064,10.13814 c 0,-2.1864745 -1.379794,-3.9452096 -3.459611,-4.2118529 v -0.587415 c 0,-0.3199719 -0.213085,-0.5330572 -0.533058,-0.5330572 z M 8.0687032,9.112356 C 7.9961041,9.4425219 7.9547271,9.7848487 7.9547271,10.13814 l -0.2735426,2.133982 c 0,0.639945 -0.1612053,1.27981 -0.4278485,1.813097 -0.2133142,0.426629 -0.4788897,0.8005 -0.8521901,1.120471 -0.1599861,0.159987 -0.3748254,0.212476 -0.5348107,0.319134 -0.1599862,0.05333 -0.2665286,0.212781 -0.2665286,0.426094 0,0.319973 0.2148384,0.533058 0.5348107,0.533058 h 9.3057057 z" /><path
       id="path3-8-8"
       style="clip-rule:evenodd;display:inline;fill:#dfdfdf;fill-opacity:1;fill-rule:evenodd;stroke-width:0.533287;stroke-linejoin:round;stroke-miterlimit:2"
       d="m 11.947395,4.8058149 c -0.319971,0 -0.53481,0.2130853 -0.53481,0.5330572 v 0.587415 C 10.243566,6.0761614 9.2971255,6.7143938 8.6911877,7.6236535 L 9.3452349,8.2777006 C 9.8054901,7.4979532 10.564986,6.9404684 11.528314,6.8170538 c 0.156787,-0.020265 0.681376,-0.020265 0.838163,0 1.62759,0.208515 2.675807,1.60977 2.675807,3.3210862 0,0.0384 0.486787,3.847556 0.924083,4.552029 0.09279,0.17971 0.210974,0.369712 0.345434,0.554098 l 1.239709,1.239709 h 0.313873 c 0.319971,0 0.53481,-0.213085 0.53481,-0.533058 -0.05333,-0.106656 -0.1609,-0.319436 -0.320886,-0.426094 -0.106658,-0.05333 -0.159872,-0.106963 -0.266529,-0.106963 -0.479957,-0.213313 -0.8528,-0.746447 -1.066114,-1.173076 -0.3733,-0.586615 -0.8066,-4.106645 -0.8066,-4.106645 0,-2.1864745 -1.379794,-3.9452096 -3.459611,-4.2118529 v -0.587415 c 0,-0.3199719 -0.213085,-0.5330572 -0.533058,-0.5330572 z M 8.0687032,9.112356 c -0.072599,0.3301659 -0.1139761,0.6724927 -0.1139761,1.025784 0,0 -0.4347479,3.413792 -0.7013911,3.947079 -0.2133142,0.426629 -0.4788897,0.8005 -0.8521901,1.120471 -0.1599861,0.159987 -0.3748254,0.212476 -0.5348107,0.319134 -0.1599862,0.05333 -0.2665286,0.212781 -0.2665286,0.426094 0,0.319973 0.2148384,0.533058 0.5348107,0.533058 H 15.440323 L 14.544296,15.587949 H 7.2989265 c 0.3109055,-0.328505 0.5543204,-0.69482 0.7575023,-1.101184 0.3167725,-0.633544 0.7943254,-4.310227 0.7943254,-4.348625 0,-0.07897 0.00412,-0.1571049 0.00877,-0.2349656 z" /><path
       id="strikethrough"
       d="M 4.3988281,5.1058591 18.894141,19.601172 a 0.56402811,0.56402811 180 0 0 0.797656,0 0.50403659,0.50403659 82.695819 0 0 -0.09063,-0.707031 L 5.1058593,4.3988281 a 0.56402819,0.56402819 4.2391842e-6 0 0 -0.7976563,-1e-7 0.50403658,0.50403658 82.695831 0 0 0.090625,0.7070311 z"
       fill="#da4453"
       style="display:inline;fill:#dfdfdf;fill-opacity:1"
       inkscape:path-effect="#path-effect9"
       inkscape:original-d="M 4,4.707031 19.292969,20 20,19.292969 4.7070312,4 Z"
       transform="matrix(0.89778055,0,0,0.89778055,1.2266334,1.2146927)" /></g><g
     id="notification-empty"
     transform="translate(39 -41)"><path
       id="path28"
       d="m1 1h22v22h-22z"
       fill="none" /><path
       id="circle-outline"
       d="m12 4a8 8 0 0 0-8 8 8 8 0 0 0 8 8 8 8 0 0 0 8-8 8 8 0 0 0-8-8zm0 1a7 7 0 0 1 7 7 7 7 0 0 1-7 7 7 7 0 0 1-7-7 7 7 0 0 1 7-7z"
       class="ColorScheme-Text"
       fill="currentColor"
       style="fill:#dfdfdf;fill-opacity:1" /></g><g
     style="clip-rule:evenodd;fill-rule:evenodd;stroke-linejoin:round;stroke-miterlimit:2"
     id="g7"
     transform="translate(3.0000952,2.7221073)"><g
       transform="matrix(0.594006,0,0,0.594006,-338.959,-257.393)"
       fill="#dfdfdf"
       id="g3" /></g></svg>
