<?xml version="1.0" encoding="UTF-8" standalone="no"?>
<!-- Created with Inkscape (http://www.inkscape.org/) -->

<svg
   width="32"
   height="32"
   id="svg3869"
   version="1.1"
   inkscape:version="1.3 (0e150ed6c4, 2023-07-21)"
   sodipodi:docname="phone.svg"
   viewBox="0 0 32 32"
   xmlns:inkscape="http://www.inkscape.org/namespaces/inkscape"
   xmlns:sodipodi="http://sodipodi.sourceforge.net/DTD/sodipodi-0.dtd"
   xmlns="http://www.w3.org/2000/svg"
   xmlns:svg="http://www.w3.org/2000/svg"
   xmlns:rdf="http://www.w3.org/1999/02/22-rdf-syntax-ns#"
   xmlns:cc="http://creativecommons.org/ns#"
   xmlns:dc="http://purl.org/dc/elements/1.1/">
  <defs
     id="defs3871">
    <style
       type="text/css"
       id="current-color-scheme">&#10;      .ColorScheme-Text {&#10;        color:#31363b;&#10;      }&#10;      .ColorScheme-Background {&#10;        color:#eff0f1;&#10;      }&#10;      .ColorScheme-Highlight {&#10;        color:#3daee9;&#10;      }&#10;      .ColorScheme-ViewText {&#10;        color:#31363b;&#10;      }&#10;      .ColorScheme-ViewBackground {&#10;        color:#fcfcfc;&#10;      }&#10;      .ColorScheme-ViewHover {&#10;        color:#93cee9;&#10;      }&#10;      .ColorScheme-ViewFocus{&#10;        color:#3daee9;&#10;      }&#10;      .ColorScheme-ButtonText {&#10;        color:#31363b;&#10;      }&#10;      .ColorScheme-ButtonBackground {&#10;        color:#eff0f1;&#10;      }&#10;      .ColorScheme-ButtonHover {&#10;        color:#93cee9;&#10;      }&#10;      .ColorScheme-ButtonFocus{&#10;        color:#3daee9;&#10;      }&#10;      </style>
    <inkscape:path-effect
       effect="fillet_chamfer"
       id="path-effect1"
       is_visible="true"
       lpeversion="1"
       nodesatellites_param="F,0,0,1,0,1.4707525,0,1 @ F,0,0,1,0,1.4707525,0,1 @ F,0,0,1,0,1.4707525,0,1 @ F,0,0,1,0,1.4707525,0,1 | F,0,1,1,0,0.49426441,0,1 @ F,0,1,1,0,0.49426441,0,1 @ F,0,0,1,0,0.49426441,0,1 @ F,0,1,1,0,0.49426441,0,1 | F,0,0,1,0,0.99999738,0,1 @ F,0,0,1,0,0.99999738,0,1 @ F,0,0,1,0,0.99999738,0,1 @ F,0,0,1,0,0.99999738,0,1"
       radius="0"
       unit="px"
       method="auto"
       mode="F"
       chamfer_steps="1"
       flexible="false"
       use_knot_distance="true"
       apply_no_radius="true"
       apply_with_radius="true"
       only_selected="false"
       hide_knots="false" />
    <inkscape:path-effect
       effect="fillet_chamfer"
       id="path-effect1-0"
       is_visible="true"
       lpeversion="1"
       nodesatellites_param="F,0,0,1,0,1.4707525,0,1 @ F,0,0,1,0,1.4707525,0,1 @ F,0,0,1,0,1.4707525,0,1 @ F,0,0,1,0,1.4707525,0,1 | F,0,1,1,0,0.49426441,0,1 @ F,0,1,1,0,0.49426441,0,1 @ F,0,0,1,0,0.49426441,0,1 @ F,0,1,1,0,0.49426441,0,1 | F,0,0,1,0,0.99999738,0,1 @ F,0,0,1,0,0.99999738,0,1 @ F,0,0,1,0,0.99999738,0,1 @ F,0,0,1,0,0.99999738,0,1"
       radius="0"
       unit="px"
       method="auto"
       mode="F"
       chamfer_steps="1"
       flexible="false"
       use_knot_distance="true"
       apply_no_radius="true"
       apply_with_radius="true"
       only_selected="false"
       hide_knots="false" />
    <inkscape:path-effect
       effect="fillet_chamfer"
       id="path-effect1-06"
       is_visible="true"
       lpeversion="1"
       nodesatellites_param="F,0,0,1,0,1.4707525,0,1 @ F,0,0,1,0,1.4707525,0,1 @ F,0,0,1,0,1.4707525,0,1 @ F,0,0,1,0,1.4707525,0,1 | F,0,1,1,0,0.49426441,0,1 @ F,0,1,1,0,0.49426441,0,1 @ F,0,0,1,0,0.49426441,0,1 @ F,0,1,1,0,0.49426441,0,1 | F,0,0,1,0,0.99999738,0,1 @ F,0,0,1,0,0.99999738,0,1 @ F,0,0,1,0,0.99999738,0,1 @ F,0,0,1,0,0.99999738,0,1"
       radius="0"
       unit="px"
       method="auto"
       mode="F"
       chamfer_steps="1"
       flexible="false"
       use_knot_distance="true"
       apply_no_radius="true"
       apply_with_radius="true"
       only_selected="false"
       hide_knots="false" />
    <inkscape:path-effect
       effect="fillet_chamfer"
       id="path-effect1-06-6"
       is_visible="true"
       lpeversion="1"
       nodesatellites_param="F,0,0,1,0,1.4707525,0,1 @ F,0,0,1,0,1.4707525,0,1 @ F,0,0,1,0,1.4707525,0,1 @ F,0,0,1,0,1.4707525,0,1 | F,0,1,1,0,0.49426441,0,1 @ F,0,1,1,0,0.49426441,0,1 @ F,0,0,1,0,0.49426441,0,1 @ F,0,1,1,0,0.49426441,0,1 | F,0,0,1,0,0.99999738,0,1 @ F,0,0,1,0,0.99999738,0,1 @ F,0,0,1,0,0.99999738,0,1 @ F,0,0,1,0,0.99999738,0,1"
       radius="0"
       unit="px"
       method="auto"
       mode="F"
       chamfer_steps="1"
       flexible="false"
       use_knot_distance="true"
       apply_no_radius="true"
       apply_with_radius="true"
       only_selected="false"
       hide_knots="false" />
    <inkscape:path-effect
       effect="fillet_chamfer"
       id="path-effect1-06-6-5"
       is_visible="true"
       lpeversion="1"
       nodesatellites_param="F,0,0,1,0,1.4707525,0,1 @ F,0,0,1,0,1.4707525,0,1 @ F,0,0,1,0,1.4707525,0,1 @ F,0,0,1,0,1.4707525,0,1 | F,0,1,1,0,0.49426441,0,1 @ F,0,1,1,0,0.49426441,0,1 @ F,0,0,1,0,0.49426441,0,1 @ F,0,1,1,0,0.49426441,0,1 | F,0,0,1,0,0.99999738,0,1 @ F,0,0,1,0,0.99999738,0,1 @ F,0,0,1,0,0.99999738,0,1 @ F,0,0,1,0,0.99999738,0,1"
       radius="0"
       unit="px"
       method="auto"
       mode="F"
       chamfer_steps="1"
       flexible="false"
       use_knot_distance="true"
       apply_no_radius="true"
       apply_with_radius="true"
       only_selected="false"
       hide_knots="false" />
    <inkscape:path-effect
       effect="fillet_chamfer"
       id="path-effect1-06-0"
       is_visible="true"
       lpeversion="1"
       nodesatellites_param="F,0,0,1,0,1.4707525,0,1 @ F,0,0,1,0,1.4707525,0,1 @ F,0,0,1,0,1.4707525,0,1 @ F,0,0,1,0,1.4707525,0,1 | F,0,1,1,0,0.49426441,0,1 @ F,0,1,1,0,0.49426441,0,1 @ F,0,0,1,0,0.49426441,0,1 @ F,0,1,1,0,0.49426441,0,1 | F,0,0,1,0,0.99999738,0,1 @ F,0,0,1,0,0.99999738,0,1 @ F,0,0,1,0,0.99999738,0,1 @ F,0,0,1,0,0.99999738,0,1"
       radius="0"
       unit="px"
       method="auto"
       mode="F"
       chamfer_steps="1"
       flexible="false"
       use_knot_distance="true"
       apply_no_radius="true"
       apply_with_radius="true"
       only_selected="false"
       hide_knots="false" />
  </defs>
  <sodipodi:namedview
     id="base"
     pagecolor="#ffffff"
     bordercolor="#666666"
     borderopacity="1.0"
     inkscape:pageopacity="0.0"
     inkscape:pageshadow="2"
     inkscape:zoom="8.275359"
     inkscape:cx="25.316122"
     inkscape:cy="25.920325"
     inkscape:document-units="px"
     inkscape:current-layer="layer1"
     showgrid="true"
     fit-margin-top="0"
     fit-margin-left="0"
     fit-margin-right="0"
     fit-margin-bottom="0"
     inkscape:window-width="2194"
     inkscape:window-height="1211"
     inkscape:window-x="-8"
     inkscape:window-y="-8"
     inkscape:window-maximized="1"
     inkscape:showpageshadow="false"
     inkscape:pagecheckerboard="0"
     inkscape:deskcolor="#d1d1d1">
    <inkscape:grid
       type="xygrid"
       id="grid4132"
       originx="5"
       originy="4.9999826"
       spacingy="1"
       spacingx="1"
       units="px"
       visible="true" />
    <sodipodi:guide
       position="7,25"
       orientation="18,0"
       id="guide4138"
       inkscape:locked="false" />
    <sodipodi:guide
       position="7,7"
       orientation="0,18"
       id="guide4140"
       inkscape:locked="false" />
    <sodipodi:guide
       position="25,7"
       orientation="-18,0"
       id="guide4142"
       inkscape:locked="false" />
    <sodipodi:guide
       position="25,25"
       orientation="0,-18"
       id="guide4144"
       inkscape:locked="false" />
    <sodipodi:guide
       position="8,24"
       orientation="16,0"
       id="guide4146"
       inkscape:locked="false" />
    <sodipodi:guide
       position="8,8"
       orientation="0,16"
       id="guide4148"
       inkscape:locked="false" />
    <sodipodi:guide
       position="24,8"
       orientation="-16,0"
       id="guide4150"
       inkscape:locked="false" />
    <sodipodi:guide
       position="24,24"
       orientation="0,-16"
       id="guide4152"
       inkscape:locked="false" />
    <sodipodi:guide
       position="2,29.999997"
       orientation="28,0"
       id="guide4265"
       inkscape:locked="false" />
    <sodipodi:guide
       position="2,1.9999974"
       orientation="0,28"
       id="guide4267"
       inkscape:locked="false" />
    <sodipodi:guide
       position="30,1.9999974"
       orientation="-28,0"
       id="guide4269"
       inkscape:locked="false" />
    <sodipodi:guide
       position="30,29.999997"
       orientation="0,-28"
       id="guide4271"
       inkscape:locked="false" />
  </sodipodi:namedview>
  <metadata
     id="metadata3874">
    <rdf:RDF>
      <cc:Work
         rdf:about="">
        <dc:format>image/svg+xml</dc:format>
        <dc:type
           rdf:resource="http://purl.org/dc/dcmitype/StillImage" />
        <dc:title />
      </cc:Work>
    </rdf:RDF>
  </metadata>
  <g
     inkscape:label="Capa 1"
     inkscape:groupmode="layer"
     id="layer1"
     transform="translate(-321,-529.36218)">
    <g
       id="phone">
      <rect
         y="529.36218"
         x="321"
         height="32"
         width="32"
         id="rect4436"
         style="opacity:1;fill:none;fill-opacity:1;stroke:none;stroke-width:0.1;stroke-linecap:square;stroke-linejoin:miter;stroke-miterlimit:4;stroke-dasharray:none;stroke-dashoffset:0;stroke-opacity:1" />
      <path
         style="color:#31363b;fill:#dfdfdf;fill-opacity:1;stroke:none"
         d="M 8,3.4707525 V 28.529247 A 1.4707525,1.4707525 45 0 0 9.4707525,30 H 22.529248 A 1.4707525,1.4707525 135 0 0 24,28.529247 V 3.4707525 A 1.4707525,1.4707525 45 0 0 22.529248,2 H 9.4707525 A 1.4707525,1.4707525 135 0 0 8,3.4707525 Z M 13.494264,3 h 5.011472 A 0.49426441,0.49426441 45 0 1 19,3.4942644 v 0.011471 A 0.49426441,0.49426441 135 0 1 18.505736,4 H 13.494264 A 0.49426441,0.49426441 45 0 1 13,3.5057356 V 3.4942644 A 0.49426441,0.49426441 135 0 1 13.494264,3 Z M 9.9999974,5 H 22.000003 A 0.99999738,0.99999738 45 0 1 23,5.9999974 V 27.000003 A 0.99999738,0.99999738 135 0 1 22.000003,28 H 9.9999974 A 0.99999738,0.99999738 45 0 1 9,27.000003 V 5.9999974 A 0.99999738,0.99999738 135 0 1 9.9999974,5 Z"
         transform="translate(321,529.36218)"
         id="path4241"
         class="ColorScheme-Text"
         sodipodi:nodetypes="ccccccccccccccc"
         inkscape:path-effect="#path-effect1"
         inkscape:original-d="M 8,2 V 30 H 24 V 2 Z m 5,1 h 6 V 4 H 13 Z M 9,5 H 23 V 28 H 9 Z" />
    </g>
    <g
       id="16-16-phone"
       inkscape:label="#16-16-phone">
      <rect
         y="537.36218"
         x="303"
         height="16"
         width="16"
         id="rect4442"
         style="opacity:1;fill:none;fill-opacity:1;stroke:none;stroke-width:0.10079043;stroke-linecap:square;stroke-linejoin:miter;stroke-miterlimit:4;stroke-dasharray:none;stroke-dashoffset:0;stroke-opacity:1" />
      <path
         style="color:#31363b;fill:#dfdfdf;fill-opacity:1;stroke:none"
         d="m 8.0027788,3.4707499 0.042778,22.6416861 a 1.4735339,1.4735339 44.945874 0 0 1.4735313,1.47075 H 22.577583 a 1.4679763,1.4679763 134.94587 0 0 1.467974,-1.47075 L 24.002779,3.4707499 A 1.4735339,1.4735339 44.945874 0 0 22.529248,2 H 9.4707525 A 1.4679763,1.4679763 134.94587 0 0 8.0027788,3.4707499 Z M 13.494264,3 h 5.011472 A 0.49426441,0.49426441 45 0 1 19,3.4942644 v 0.011471 A 0.49426441,0.49426441 135 0 1 18.505736,4 H 13.494264 A 0.49426441,0.49426441 45 0 1 13,3.5057356 V 3.4942644 A 0.49426441,0.49426441 135 0 1 13.494264,3 Z M 9.9999974,5 H 22.000003 a 1.0023487,1.0023487 44.93272 0 1 1.002346,0.9999946 l 0.04364,18.5831964 a 0.99765163,0.99765163 134.93272 0 1 -0.997648,0.999995 H 10.048334 A 1.0023485,1.0023485 44.932725 0 1 9.045988,24.583191 L 9.0023483,5.9999946 A 0.9976518,0.9976518 134.93273 0 1 9.9999974,5 Z"
         transform="matrix(0.49866631,0,0,0.49866631,303.00929,537.98083)"
         id="path4241-5-4"
         class="ColorScheme-Text"
         sodipodi:nodetypes="ccccccccccccccc"
         inkscape:path-effect="#path-effect1-06-6"
         inkscape:original-d="m 8,2 0.048336,25.583186 h 16 L 24,2 Z m 5,1 h 6 V 4 H 13 Z M 9,5 h 14 l 0.04834,20.583186 H 9.0483363 Z" />
    </g>
    <g
       id="22-22-phone"
       transform="translate(-1,0)"
       inkscape:label="#22-22-phone">
      <rect
         style="opacity:1;fill:none;fill-opacity:1;stroke:none;stroke-width:0.13858683;stroke-linecap:square;stroke-linejoin:miter;stroke-miterlimit:4;stroke-dasharray:none;stroke-dashoffset:0;stroke-opacity:1"
         id="rect4444"
         width="22"
         height="22"
         x="356"
         y="534.36218" />
      <path
         style="color:#31363b;fill:#dfdfdf;fill-opacity:1;stroke:none"
         d="m 8.0027788,3.4707499 0.042779,22.6416861 a 1.4735339,1.4735339 44.945873 0 0 1.4735313,1.47075 H 22.577584 a 1.4679763,1.4679763 134.94587 0 0 1.467973,-1.47075 L 24.002779,3.4707499 A 1.4735339,1.4735339 44.945873 0 0 22.529248,2 H 9.4707525 A 1.4679763,1.4679763 134.94587 0 0 8.0027788,3.4707499 Z M 13.494264,3 h 5.011472 A 0.49426441,0.49426441 45 0 1 19,3.4942644 v 0.011471 A 0.49426441,0.49426441 135 0 1 18.505736,4 H 13.494264 A 0.49426441,0.49426441 45 0 1 13,3.5057356 V 3.4942644 A 0.49426441,0.49426441 135 0 1 13.494264,3 Z M 9.9999974,5 22.000003,5 a 1.0023485,1.0023485 44.932725 0 1 1.002345,0.9999946 l 0.04364,18.5831964 a 0.99765181,0.99765181 134.93273 0 1 -0.997649,0.999995 H 10.048334 A 1.0023485,1.0023485 44.932725 0 1 9.045988,24.583191 L 9.0023483,5.9999946 A 0.99765181,0.99765181 134.93273 0 1 9.9999974,5 Z"
         transform="matrix(0.62499982,0,0,0.62499982,357,536.11216)"
         id="path4241-5"
         class="ColorScheme-Text"
         sodipodi:nodetypes="ccccccccccccccc"
         inkscape:path-effect="#path-effect1-06"
         inkscape:original-d="m 8,2 0.048336,25.583186 H 24.048336 L 24,2 Z m 5,1 h 6 V 4 H 13 Z M 9,5 h 14 l 0.04834,20.583186 H 9.0483363 Z" />
    </g>
    <g
       id="phone-battery"
       transform="translate(0,32)">
      <rect
         style="opacity:1;fill:none;fill-opacity:1;stroke:none;stroke-width:0.1;stroke-linecap:square;stroke-linejoin:miter;stroke-miterlimit:4;stroke-dasharray:none;stroke-dashoffset:0;stroke-opacity:1"
         id="rect4162"
         width="32"
         height="32"
         x="321"
         y="529.36218" />
      <path
         style="opacity:1;fill:#dfdfdf;fill-opacity:1;stroke:none"
         d="m 16.5,41 -4,8 H 15 v 6 l 4.5,-8 h -3 z"
         transform="translate(321,497.36218)"
         id="path4214"
         class="ColorScheme-Text"
         sodipodi:nodetypes="ccccccc" />
      <path
         style="color:#31363b;fill:#dfdfdf;fill-opacity:1;stroke:none"
         d="M 8,3.4707525 V 28.529247 A 1.4707525,1.4707525 45 0 0 9.4707525,30 H 22.529248 A 1.4707525,1.4707525 135 0 0 24,28.529247 V 3.4707525 A 1.4707525,1.4707525 45 0 0 22.529248,2 H 9.4707525 A 1.4707525,1.4707525 135 0 0 8,3.4707525 Z M 13.494264,3 h 5.011472 A 0.49426441,0.49426441 45 0 1 19,3.4942644 v 0.011471 A 0.49426441,0.49426441 135 0 1 18.505736,4 H 13.494264 A 0.49426441,0.49426441 45 0 1 13,3.5057356 V 3.4942644 A 0.49426441,0.49426441 135 0 1 13.494264,3 Z M 9.9999974,5 H 22.000003 A 0.99999738,0.99999738 45 0 1 23,5.9999974 V 27.000003 A 0.99999738,0.99999738 135 0 1 22.000003,28 H 9.9999974 A 0.99999738,0.99999738 45 0 1 9,27.000003 V 5.9999974 A 0.99999738,0.99999738 135 0 1 9.9999974,5 Z"
         transform="translate(321,529.36216)"
         id="path4241-4"
         class="ColorScheme-Text"
         sodipodi:nodetypes="ccccccccccccccc"
         inkscape:path-effect="#path-effect1-0"
         inkscape:original-d="M 8,2 V 30 H 24 V 2 Z m 5,1 h 6 V 4 H 13 Z M 9,5 H 23 V 28 H 9 Z" />
    </g>
    <g
       id="16-16-phone-battery"
       transform="translate(0,32)">
      <rect
         style="opacity:1;fill:none;fill-opacity:1;stroke:none;stroke-width:0.10079043;stroke-linecap:square;stroke-linejoin:miter;stroke-miterlimit:4;stroke-dasharray:none;stroke-dashoffset:0;stroke-opacity:1"
         id="rect4168"
         width="16"
         height="16"
         x="303"
         y="537.36218" />
      <path
         style="opacity:1;fill:#dfdfdf;fill-opacity:1;stroke:none"
         d="m -10,51 1,-3 h -1 v -2 l -1,3 h 1 z"
         transform="translate(321,497.36218)"
         id="path4201"
         inkscape:connector-curvature="0"
         sodipodi:nodetypes="ccccccc"
         class="ColorScheme-Text" />
      <path
         style="color:#31363b;fill:#dfdfdf;fill-opacity:1;stroke:none"
         d="m 8.0027788,3.4707499 0.042778,22.6416861 a 1.4735339,1.4735339 44.945874 0 0 1.4735313,1.47075 H 22.577583 a 1.4679763,1.4679763 134.94587 0 0 1.467974,-1.47075 L 24.002779,3.4707499 A 1.4735339,1.4735339 44.945874 0 0 22.529248,2 H 9.4707525 A 1.4679763,1.4679763 134.94587 0 0 8.0027788,3.4707499 Z M 13.494264,3 h 5.011472 A 0.49426441,0.49426441 45 0 1 19,3.4942644 v 0.011471 A 0.49426441,0.49426441 135 0 1 18.505736,4 H 13.494264 A 0.49426441,0.49426441 45 0 1 13,3.5057356 V 3.4942644 A 0.49426441,0.49426441 135 0 1 13.494264,3 Z M 9.9999974,5 H 22.000003 a 1.0023487,1.0023487 44.93272 0 1 1.002346,0.9999946 l 0.04364,18.5831964 a 0.99765163,0.99765163 134.93272 0 1 -0.997648,0.999995 H 10.048334 A 1.0023485,1.0023485 44.932725 0 1 9.045988,24.583191 L 9.0023483,5.9999946 A 0.9976518,0.9976518 134.93273 0 1 9.9999974,5 Z"
         transform="matrix(0.49866631,0,0,0.49866631,303.00929,538.36483)"
         id="path4241-5-4-0"
         class="ColorScheme-Text"
         sodipodi:nodetypes="ccccccccccccccc"
         inkscape:path-effect="#path-effect1-06-6-5"
         inkscape:original-d="m 8,2 0.048336,25.583186 h 16 L 24,2 Z m 5,1 h 6 V 4 H 13 Z M 9,5 h 14 l 0.04834,20.583186 H 9.0483363 Z" />
    </g>
    <g
       transform="translate(-1,32)"
       id="22-22-phone-battery">
      <rect
         y="534.36218"
         x="356"
         height="22"
         width="22"
         id="rect4174"
         style="opacity:1;fill:none;fill-opacity:1;stroke:none;stroke-width:0.13858683;stroke-linecap:square;stroke-linejoin:miter;stroke-miterlimit:4;stroke-dasharray:none;stroke-dashoffset:0;stroke-opacity:1" />
      <path
         style="opacity:1;fill:#dfdfdf;fill-opacity:1;stroke:none;stroke-width:0.1;stroke-linecap:square;stroke-linejoin:miter;stroke-miterlimit:4;stroke-dasharray:none;stroke-dashoffset:0;stroke-opacity:1"
         d="m 45,45 -2,5 h 2 v 3 l 2,-5 h -2 z"
         transform="translate(322,497.36218)"
         id="path4239"
         class="ColorScheme-Text"
         sodipodi:nodetypes="ccccccc" />
      <path
         style="color:#31363b;fill:#dfdfdf;fill-opacity:1;stroke:none"
         d="m 8.0027788,3.4707499 0.042778,22.6416861 a 1.4735339,1.4735339 44.945874 0 0 1.4735313,1.47075 H 22.577583 a 1.4679763,1.4679763 134.94587 0 0 1.467974,-1.47075 L 24.002779,3.4707499 A 1.4735339,1.4735339 44.945874 0 0 22.529248,2 H 9.4707525 A 1.4679763,1.4679763 134.94587 0 0 8.0027788,3.4707499 Z M 13.494264,3 h 5.011472 A 0.49426441,0.49426441 45 0 1 19,3.4942644 v 0.011471 A 0.49426441,0.49426441 135 0 1 18.505736,4 H 13.494264 A 0.49426441,0.49426441 45 0 1 13,3.5057356 V 3.4942644 A 0.49426441,0.49426441 135 0 1 13.494264,3 Z M 9.9999974,5 H 22.000003 a 1.0023487,1.0023487 44.93272 0 1 1.002346,0.9999946 l 0.04364,18.5831964 a 0.99765163,0.99765163 134.93272 0 1 -0.997648,0.999995 H 10.048334 A 1.0023485,1.0023485 44.932725 0 1 9.045988,24.583191 L 9.0023483,5.9999946 A 0.9976518,0.9976518 134.93273 0 1 9.9999974,5 Z"
         transform="matrix(0.62499982,0,0,0.62499982,356.9849,536.11216)"
         id="path4241-5-5"
         class="ColorScheme-Text"
         sodipodi:nodetypes="ccccccccccccccc"
         inkscape:path-effect="#path-effect1-06-0"
         inkscape:original-d="m 8,2 0.048336,25.583186 h 16 L 24,2 Z m 5,1 h 6 V 4 H 13 Z M 9,5 h 14 l 0.04834,20.583186 H 9.0483363 Z" />
    </g>
  </g>
</svg>
