<?xml version="1.0" encoding="UTF-8" standalone="no"?>
<!-- Created with Inkscape (http://www.inkscape.org/) -->

<svg
   id="svg4153"
   version="1.1"
   inkscape:version="1.3 (0e150ed6c4, 2023-07-21)"
   width="32.000004"
   height="32"
   sodipodi:docname="plasmavault.svg"
   viewBox="0 0 32.000004 32"
   xmlns:inkscape="http://www.inkscape.org/namespaces/inkscape"
   xmlns:sodipodi="http://sodipodi.sourceforge.net/DTD/sodipodi-0.dtd"
   xmlns="http://www.w3.org/2000/svg"
   xmlns:svg="http://www.w3.org/2000/svg"
   xmlns:rdf="http://www.w3.org/1999/02/22-rdf-syntax-ns#"
   xmlns:cc="http://creativecommons.org/ns#"
   xmlns:dc="http://purl.org/dc/elements/1.1/">
  <metadata
     id="metadata4159">
    <rdf:RDF>
      <cc:Work
         rdf:about="">
        <dc:format>image/svg+xml</dc:format>
        <dc:type
           rdf:resource="http://purl.org/dc/dcmitype/StillImage" />
      </cc:Work>
    </rdf:RDF>
  </metadata>
  <defs
     id="defs4157">
    <style
       type="text/css"
       id="current-color-scheme">&#10;      .ColorScheme-Text {&#10;        color:#31363b;&#10;      }&#10;      .ColorScheme-Background {&#10;        color:#eff0f1;&#10;      }&#10;      .ColorScheme-Highlight {&#10;        color:#3daee9;&#10;      }&#10;      .ColorScheme-ViewText {&#10;        color:#31363b;&#10;      }&#10;      .ColorScheme-ViewBackground {&#10;        color:#fcfcfc;&#10;      }&#10;      .ColorScheme-ViewHover {&#10;        color:#93cee9;&#10;      }&#10;      .ColorScheme-ViewFocus{&#10;        color:#3daee9;&#10;      }&#10;      .ColorScheme-ButtonText {&#10;        color:#31363b;&#10;      }&#10;      .ColorScheme-ButtonBackground {&#10;        color:#eff0f1;&#10;      }&#10;      .ColorScheme-ButtonHover {&#10;        color:#93cee9;&#10;      }&#10;      .ColorScheme-ButtonFocus{&#10;        color:#3daee9;&#10;      }&#10;      </style>
  </defs>
  <sodipodi:namedview
     pagecolor="#c6c6c6"
     bordercolor="#666666"
     borderopacity="1"
     objecttolerance="10"
     gridtolerance="10000"
     guidetolerance="10"
     inkscape:pageopacity="0"
     inkscape:pageshadow="2"
     inkscape:window-width="2194"
     inkscape:window-height="1211"
     id="namedview4155"
     inkscape:document-units="px"
     showgrid="true"
     inkscape:showpageshadow="false"
     borderlayer="true"
     inkscape:zoom="16.219262"
     inkscape:cx="30.149338"
     inkscape:cy="10.697158"
     inkscape:window-x="-8"
     inkscape:window-y="-8"
     inkscape:window-maximized="1"
     inkscape:current-layer="g2"
     fit-margin-top="0"
     fit-margin-left="0"
     fit-margin-right="0"
     fit-margin-bottom="0"
     inkscape:pagecheckerboard="0"
     inkscape:deskcolor="#d1d1d1">
    <inkscape:grid
       type="xygrid"
       id="grid4140"
       originx="5"
       originy="5.000001"
       spacingy="1"
       spacingx="1"
       units="px"
       visible="true" />
  </sodipodi:namedview>
  <inkscape:clipboard
     style="opacity:0.01000001;fill:#00000f;fill-opacity:0;stroke-width:1;stroke-linecap:butt;stroke-linejoin:miter;stroke-miterlimit:4;stroke-dasharray:none;stroke-dashoffset:0;stroke-opacity:1;stroke:none"
     min="0,0"
     max="22,22" />
  <g
     id="22-22-plasmavault"
     transform="translate(-46)">
    <rect
       style="opacity:1;fill:none;stroke-width:2;stroke-linecap:round;stroke-linejoin:round;paint-order:stroke fill markers"
       id="rect867"
       width="22"
       height="22"
       x="80"
       y="4.000001"
       rx="0"
       ry="0" />
    <g
       id="g2">
      <path
         d="M 84.613459,12.32887 H 98.72773 c 0.341996,0 0.617316,0.275319 0.617316,0.617313 v 7.399129 c 0,0.341993 -0.27532,0.617314 -0.617316,0.617314 H 84.613459 c -0.341993,0 -0.617314,-0.275321 -0.617314,-0.617314 v -7.399129 c 0,-0.341994 0.275321,-0.617313 0.617314,-0.617313 z"
         fill-opacity="0.3"
         id="path2-7"
         style="clip-rule:evenodd;fill:#dfdfdf;fill-opacity:0.25;fill-rule:evenodd;stroke-width:0.479653;stroke-linejoin:round;stroke-miterlimit:2" />
      <path
         d="m 87.775332,8 c 0.457589,0 0.67631,0.2369488 1.017345,0.6887818 0.341512,0.451833 0.497399,0.7377065 1.123347,0.7621695 h 9.370985 c 0.563588,0 1.017341,0.4537518 1.017341,1.0173437 v 10.436292 c 0,0.563593 -0.453753,1.017345 -1.017341,1.017345 H 84.054183 c -0.563592,0 -1.017344,-0.453752 -1.017344,-1.017345 V 9.017344 C 83.036839,8.4537518 83.490591,8 84.054183,8 Z m -3.161873,0.9593055 c -0.341993,0 -0.617314,0.275321 -0.617314,0.6173143 V 20.345312 c 0,0.341993 0.275321,0.617314 0.617314,0.617314 H 98.72773 c 0.341996,0 0.617316,-0.275321 0.617316,-0.617314 V 11.02757 c 0,-0.341993 -0.27532,-0.617313 -0.617316,-0.617313 h -9.092783 c -0.389957,0 -1.082576,-0.4705398 -1.329119,-0.7175615 -0.247021,-0.2465416 -0.449434,-0.73339 -1.089771,-0.73339 z"
         id="path3-5"
         style="clip-rule:evenodd;fill:#dfdfdf;fill-opacity:1;fill-rule:evenodd;stroke-width:0.479653;stroke-linejoin:round;stroke-miterlimit:2" />
      <path
         style="color:#232629;clip-rule:evenodd;fill:#dfdfdf;fill-opacity:1;fill-rule:evenodd;stroke-width:0.611581;stroke-linejoin:round;stroke-miterlimit:2"
         d="m 91.670595,11.231049 c -1.355264,0 -2.446324,1.091061 -2.446324,2.446324 v 1.223162 H 88.61269 c -0.338816,0 -0.611581,0.272765 -0.611581,0.611581 v 3.669486 c 0,0.338815 0.272765,0.61158 0.611581,0.61158 h 6.115808 c 0.338819,0 0.611582,-0.272765 0.611582,-0.61158 v -3.669486 c 0,-0.338816 -0.272763,-0.611581 -0.611582,-0.611581 h -0.611579 v -1.223162 c 0,-1.355263 -1.091061,-2.446324 -2.446324,-2.446324 z m 0,1.147938 c 0.677632,0 1.223162,0.54553 1.223162,1.223161 v 1.298387 h -2.446324 v -1.298387 c 0,-0.677631 0.54553,-1.223161 1.223162,-1.223161 z"
         id="path2-2-5"
         sodipodi:nodetypes="sscsssssssscssssccss" />
    </g>
  </g>
  <g
     id="plasmavault"
     transform="translate(-34.999998)">
    <rect
       style="fill:none;stroke-width:2.90909;stroke-linecap:round;stroke-linejoin:round;paint-order:stroke fill markers"
       id="rect4957"
       width="32"
       height="32"
       x="35"
       y="8.7162682e-08"
       rx="0"
       ry="0" />
    <g
       id="g1">
      <path
         d="m 41.21649,11.499586 h 21.191887 c 0.513484,0 0.926865,0.413379 0.926865,0.926866 V 23.53588 c 0,0.513485 -0.413381,0.926866 -0.926865,0.926866 H 41.21649 c -0.513485,0 -0.926866,-0.413381 -0.926866,-0.926866 V 12.426452 c 0,-0.513487 0.413381,-0.926866 0.926866,-0.926866 z"
         fill-opacity="0.3"
         id="path2"
         style="clip-rule:evenodd;fill:#dfdfdf;fill-opacity:0.25;fill-rule:evenodd;stroke-width:0.720176;stroke-linejoin:round;stroke-miterlimit:2" />
      <path
         d="m 45.963887,5.000001 c 0.687048,0 1.015447,0.3557668 1.527493,1.0341721 0.512764,0.678405 0.746821,1.1076302 1.686651,1.1443597 H 63.2481 c 0.846207,0 1.527493,0.681286 1.527493,1.5274912 v 15.66958 c 0,0.846207 -0.681286,1.527493 -1.527493,1.527493 H 40.376765 c -0.846206,0 -1.527492,-0.681286 -1.527492,-1.527493 V 6.5274931 c 0,-0.846206 0.681286,-1.5274921 1.527492,-1.5274921 z M 41.21649,6.4403514 c -0.513485,0 -0.926866,0.413381 -0.926866,0.9268669 V 23.53588 c 0,0.513485 0.413381,0.926866 0.926866,0.926866 h 21.191887 c 0.513484,0 0.926865,-0.413381 0.926865,-0.926866 V 9.5457492 c 0,-0.5134863 -0.413381,-0.9268653 -0.926865,-0.9268653 H 48.756008 c -0.585502,0 -1.625435,-0.7064929 -1.995607,-1.0773838 -0.37089,-0.3701699 -0.674804,-1.1011487 -1.636238,-1.1011487 z"
         id="path3"
         style="clip-rule:evenodd;fill:#dfdfdf;fill-opacity:1;fill-rule:evenodd;stroke-width:0.720176;stroke-linejoin:round;stroke-miterlimit:2" />
      <path
         style="color:#232629;clip-rule:evenodd;fill:#dfdfdf;fill-opacity:1;fill-rule:evenodd;stroke-width:0.918259;stroke-linejoin:round;stroke-miterlimit:2"
         d="m 51.812433,9.851262 c -2.034862,0 -3.673035,1.638174 -3.673035,3.673035 v 1.836518 h -0.918259 c -0.508715,0 -0.918259,0.409543 -0.918259,0.918258 v 5.509553 c 0,0.508714 0.409544,0.918258 0.918259,0.918258 h 9.182588 c 0.508715,0 0.918258,-0.409544 0.918258,-0.918258 v -5.509553 c 0,-0.508715 -0.409543,-0.918258 -0.918258,-0.918258 h -0.918259 v -1.836518 c 0,-2.034861 -1.638174,-3.673035 -3.673035,-3.673035 z m 0,1.723572 c 1.017431,0 1.836517,0.819087 1.836517,1.836517 v 1.949464 h -3.673034 v -1.949464 c 0,-1.01743 0.819086,-1.836517 1.836517,-1.836517 z"
         id="path2-2"
         sodipodi:nodetypes="sscsssssssscssssccss" />
    </g>
  </g>
</svg>
