<?xml version="1.0" encoding="UTF-8" standalone="no"?>
<!-- Created with Inkscape (http://www.inkscape.org/) -->

<svg
   id="svg4153"
   version="1.1"
   inkscape:version="1.3 (0e150ed6c4, 2023-07-21)"
   width="32.000004"
   height="32"
   sodipodi:docname="plasmavault_error.svg"
   viewBox="0 0 32.000004 32"
   xmlns:inkscape="http://www.inkscape.org/namespaces/inkscape"
   xmlns:sodipodi="http://sodipodi.sourceforge.net/DTD/sodipodi-0.dtd"
   xmlns="http://www.w3.org/2000/svg"
   xmlns:svg="http://www.w3.org/2000/svg"
   xmlns:rdf="http://www.w3.org/1999/02/22-rdf-syntax-ns#"
   xmlns:cc="http://creativecommons.org/ns#"
   xmlns:dc="http://purl.org/dc/elements/1.1/">
  <metadata
     id="metadata4159">
    <rdf:RDF>
      <cc:Work
         rdf:about="">
        <dc:format>image/svg+xml</dc:format>
        <dc:type
           rdf:resource="http://purl.org/dc/dcmitype/StillImage" />
      </cc:Work>
    </rdf:RDF>
  </metadata>
  <defs
     id="defs4157">
    <style
       type="text/css"
       id="current-color-scheme">&#10;      .ColorScheme-Text {&#10;        color:#31363b;&#10;      }&#10;      .ColorScheme-Background {&#10;        color:#eff0f1;&#10;      }&#10;      .ColorScheme-Highlight {&#10;        color:#3daee9;&#10;      }&#10;      .ColorScheme-ViewText {&#10;        color:#31363b;&#10;      }&#10;      .ColorScheme-ViewBackground {&#10;        color:#fcfcfc;&#10;      }&#10;      .ColorScheme-ViewHover {&#10;        color:#93cee9;&#10;      }&#10;      .ColorScheme-ViewFocus{&#10;        color:#3daee9;&#10;      }&#10;      .ColorScheme-ButtonText {&#10;        color:#31363b;&#10;      }&#10;      .ColorScheme-ButtonBackground {&#10;        color:#eff0f1;&#10;      }&#10;      .ColorScheme-ButtonHover {&#10;        color:#93cee9;&#10;      }&#10;      .ColorScheme-ButtonFocus{&#10;        color:#3daee9;&#10;      }&#10;      </style>
  </defs>
  <sodipodi:namedview
     pagecolor="#363636"
     bordercolor="#666666"
     borderopacity="1"
     objecttolerance="10"
     gridtolerance="10000"
     guidetolerance="10"
     inkscape:pageopacity="0"
     inkscape:pageshadow="2"
     inkscape:window-width="2194"
     inkscape:window-height="1211"
     id="namedview4155"
     inkscape:document-units="px"
     showgrid="true"
     inkscape:showpageshadow="false"
     borderlayer="true"
     inkscape:zoom="11.313708"
     inkscape:cx="30.935923"
     inkscape:cy="11.357903"
     inkscape:window-x="-8"
     inkscape:window-y="-8"
     inkscape:window-maximized="1"
     inkscape:current-layer="22-22-plasmavault_error"
     fit-margin-top="0"
     fit-margin-left="0"
     fit-margin-right="0"
     fit-margin-bottom="0"
     inkscape:pagecheckerboard="0"
     inkscape:snap-bbox="true"
     inkscape:bbox-nodes="true"
     inkscape:snap-nodes="true"
     inkscape:snap-smooth-nodes="true"
     inkscape:snap-global="true"
     inkscape:deskcolor="#d1d1d1">
    <inkscape:grid
       type="xygrid"
       id="grid4140"
       originx="5"
       originy="5.000001"
       spacingy="1"
       spacingx="1"
       units="px"
       visible="true" />
  </sodipodi:namedview>
  <inkscape:clipboard
     style="opacity:0.01000001;fill:#00000f;fill-opacity:0;stroke-width:1;stroke-linecap:butt;stroke-linejoin:miter;stroke-miterlimit:4;stroke-dasharray:none;stroke-dashoffset:0;stroke-opacity:1;stroke:none"
     min="0,0"
     max="22,22" />
  <g
     id="22-22-plasmavault_error"
     transform="translate(-46)">
    <path
       d="m 84.487539,12.084277 h 13.316768 c 0.322668,0 0.582432,0.259763 0.582432,0.582433 v 6.981055 c 0,0.322669 -0.259764,0.582434 -0.582432,0.582434 H 84.487539 c -0.322668,0 -0.582438,-0.259765 -0.582438,-0.582434 V 12.66671 c 0,-0.32267 0.25977,-0.582433 0.582438,-0.582433 z"
       fill-opacity="0.3"
       id="path2-8"
       style="clip-rule:evenodd;fill:#da4453;fill-opacity:0.25;fill-rule:evenodd;stroke-width:0.452551;stroke-linejoin:round;stroke-miterlimit:2" />
    <path
       d="m 87.470755,8.000001 c 0.431735,0 0.638095,0.2235605 0.959862,0.6498636 0.322213,0.4263031 0.469293,0.6960239 1.059875,0.7191044 h 8.841492 c 0.531744,0 0.959856,0.4281134 0.959856,0.959861 v 9.84661 c 0,0.531749 -0.428112,0.959862 -0.959856,0.959862 H 83.959862 C 83.428113,21.135302 83,20.707189 83,20.17544 V 8.9598618 C 83,8.428114 83.428113,8.000001 83.959862,8.000001 Z m -2.983216,0.9051025 c -0.322668,0 -0.582438,0.2597636 -0.582438,0.5824333 V 19.647765 c 0,0.322669 0.25977,0.582434 0.582438,0.582434 h 13.316768 c 0.322668,0 0.582432,-0.259765 0.582432,-0.582434 v -8.79126 c 0,-0.32267 -0.259764,-0.582433 -0.582432,-0.582433 h -8.579008 c -0.367928,0 -1.021409,-0.4439539 -1.254026,-0.6770179 C 87.738214,9.364443 87.547233,8.9051035 86.943078,8.9051035 Z"
       id="path3-6"
       style="clip-rule:evenodd;fill:#da4453;fill-opacity:1;fill-rule:evenodd;stroke-width:0.452551;stroke-linejoin:round;stroke-miterlimit:2" />
    <path
       style="color:#dfdfdf;clip-rule:evenodd;fill:#da4453;fill-opacity:1;fill-rule:evenodd;stroke-width:0.577025;stroke-linejoin:round;stroke-miterlimit:2"
       d="m 91.145924,11.048486 c -1.278688,0 -2.308102,1.029412 -2.308102,2.308099 v 1.15405 h -0.577023 c -0.31967,0 -0.577023,0.257353 -0.577023,0.577024 v 3.462149 c 0,0.319672 0.257353,0.577024 0.577023,0.577024 h 5.770252 c 0.31967,0 0.577019,-0.257352 0.577019,-0.577024 v -3.462149 c 0,-0.319671 -0.257349,-0.577024 -0.577019,-0.577024 h -0.57703 v -1.15405 c 0,-1.278687 -1.029408,-2.308099 -2.308097,-2.308099 z m 0,1.083076 c 0.639341,0 1.154046,0.514706 1.154046,1.154049 v 1.225024 h -2.308097 v -1.225024 c 0,-0.639343 0.514705,-1.154049 1.154051,-1.154049 z"
       id="path2-2-6"
       sodipodi:nodetypes="sscsssssssscssssccss" />
    <rect
       style="opacity:1;fill:none;stroke-width:2;stroke-linecap:round;stroke-linejoin:round;paint-order:stroke fill markers"
       id="rect867"
       width="22"
       height="22"
       x="80"
       y="4.000001"
       rx="0"
       ry="0" />
  </g>
  <g
     id="plasmavault_error"
     transform="translate(-34.999998)">
    <rect
       style="fill:none;stroke-width:2.90909;stroke-linecap:round;stroke-linejoin:round;paint-order:stroke fill markers"
       id="rect4957"
       width="32"
       height="32"
       x="35"
       y="8.7162682e-08"
       rx="0"
       ry="0" />
    <path
       d="m 41.488063,11.198657 h 20.210705 c 0.48971,0 0.883952,0.394239 0.883952,0.883951 v 10.595063 c 0,0.489711 -0.394242,0.883953 -0.883952,0.883953 H 41.488063 c -0.489711,0 -0.883953,-0.394242 -0.883953,-0.883953 V 12.082608 c 0,-0.489712 0.394242,-0.883951 0.883953,-0.883951 z"
       fill-opacity="0.3"
       id="path2"
       style="clip-rule:evenodd;fill:#da4453;fill-opacity:0.25;fill-rule:evenodd;stroke-width:0.686832;stroke-linejoin:round;stroke-miterlimit:2" />
    <path
       d="m 46.015655,5.000001 c 0.655238,0 0.968433,0.3392952 1.45677,0.9862898 0.489024,0.6469955 0.712244,1.0563477 1.60856,1.0913767 h 13.418627 c 0.807028,0 1.45677,0.6497423 1.45677,1.4567682 V 23.478517 c 0,0.807028 -0.649742,1.45677 -1.45677,1.45677 H 40.687216 c -0.807027,0 -1.456769,-0.649742 -1.456769,-1.45677 V 6.4567703 c 0,-0.807027 0.649742,-1.4567693 1.456769,-1.4567693 z m -4.527592,1.3736627 c -0.489711,0 -0.883953,0.3942408 -0.883953,0.8839528 V 22.677671 c 0,0.489711 0.394242,0.883953 0.883953,0.883953 h 20.210705 c 0.48971,0 0.883952,-0.394242 0.883952,-0.883953 V 9.335282 c 0,-0.489712 -0.394242,-0.8839518 -0.883952,-0.8839518 H 48.678502 c -0.558394,0 -1.550178,-0.6737822 -1.903211,-1.0275016 C 46.421573,7.0707985 46.13173,6.3736637 45.214811,6.3736637 Z"
       id="path3"
       style="clip-rule:evenodd;fill:#da4453;fill-opacity:1;fill-rule:evenodd;stroke-width:0.686832;stroke-linejoin:round;stroke-miterlimit:2" />
    <path
       style="color:#dfdfdf;clip-rule:evenodd;fill:#da4453;fill-opacity:1;fill-rule:evenodd;stroke-width:0.875743;stroke-linejoin:round;stroke-miterlimit:2"
       d="m 51.593415,9.6266496 c -1.940648,0 -3.502975,1.5623264 -3.502975,3.5029744 v 1.751487 h -0.875743 c -0.485162,0 -0.875743,0.390582 -0.875743,0.875743 v 5.254461 c 0,0.485161 0.390581,0.875743 0.875743,0.875743 h 8.757435 c 0.485162,0 0.875744,-0.390582 0.875744,-0.875743 v -5.254461 c 0,-0.485161 -0.390582,-0.875743 -0.875744,-0.875743 h -0.875743 v -1.751487 c 0,-1.940648 -1.562327,-3.5029744 -3.502974,-3.5029744 z m 0,1.6437714 c 0.970323,0 1.751486,0.781163 1.751486,1.751486 v 1.859204 h -3.502973 v -1.859204 c 0,-0.970323 0.781163,-1.751486 1.751487,-1.751486 z"
       id="path2-2"
       sodipodi:nodetypes="sscsssssssscssssccss" />
  </g>
</svg>
