<?xml version="1.0" encoding="UTF-8" standalone="no"?>
<svg
   id="svg"
   version="1.1"
   viewBox="0 0 22 22"
   sodipodi:docname="preferences.svg"
   xml:space="preserve"
   inkscape:version="1.3 (0e150ed6c4, 2023-07-21)"
   xmlns:inkscape="http://www.inkscape.org/namespaces/inkscape"
   xmlns:sodipodi="http://sodipodi.sourceforge.net/DTD/sodipodi-0.dtd"
   xmlns="http://www.w3.org/2000/svg"
   xmlns:svg="http://www.w3.org/2000/svg"><sodipodi:namedview
     id="namedview1"
     pagecolor="#ffffff"
     bordercolor="#000000"
     borderopacity="0.25"
     inkscape:showpageshadow="2"
     inkscape:pageopacity="0.0"
     inkscape:pagecheckerboard="0"
     inkscape:deskcolor="#d1d1d1"
     inkscape:zoom="2.8835227"
     inkscape:cx="15.605912"
     inkscape:cy="47.337932"
     inkscape:window-width="2194"
     inkscape:window-height="1211"
     inkscape:window-x="-8"
     inkscape:window-y="-8"
     inkscape:window-maximized="1"
     inkscape:current-layer="svg"
     showgrid="true"><inkscape:grid
       id="grid1"
       units="px"
       originx="0"
       originy="0"
       spacingx="1"
       spacingy="1"
       empcolor="#0099e5"
       empopacity="0.30196078"
       color="#0099e5"
       opacity="0.14901961"
       empspacing="5"
       dotted="false"
       gridanglex="30"
       gridanglez="30"
       visible="true" /></sodipodi:namedview><defs
     id="defs81"><inkscape:path-effect
       effect="fillet_chamfer"
       id="path-effect3"
       is_visible="true"
       lpeversion="1"
       nodesatellites_param="F,0,1,1,0,1.344514,0,1 @ F,0,0,1,0,0.799956,0,1 @ F,0,0,1,0,0.799956,0,1 @ F,0,1,1,0,1.344514,0,1 | F,0,0,1,0,0,0,1 @ F,0,0,1,0,0,0,1 @ F,0,0,1,0,0,0,1 @ F,0,0,1,0,0,0,1"
       radius="0"
       unit="px"
       method="auto"
       mode="F"
       chamfer_steps="1"
       flexible="false"
       use_knot_distance="true"
       apply_no_radius="true"
       apply_with_radius="true"
       only_selected="false"
       hide_knots="false" /><inkscape:path-effect
       effect="fillet_chamfer"
       id="path-effect2"
       is_visible="true"
       lpeversion="1"
       nodesatellites_param="F,0,1,1,0,1.0231478,0,1 @ F,0,1,1,0,1.0231478,0,1 @ F,0,1,1,0,1.0231478,0,1 @ F,0,0,1,0,1.0231478,0,1 | F,0,0,1,0,0,0,1 @ F,0,0,1,0,0,0,1 @ F,0,0,1,0,0,0,1 @ F,0,0,1,0,0,0,1 | F,0,0,1,0,3.931133,0,1 @ F,0,0,1,0,3.931133,0,1 @ F,0,0,1,0,3.931133,0,1 @ F,0,0,1,0,3.931133,0,1 | F,0,0,1,0,3.2375369,0,1 @ F,0,0,1,0,3.2375369,0,1 @ F,0,0,1,0,3.2375369,0,1 @ F,0,0,1,0,3.2375369,0,1"
       radius="0"
       unit="px"
       method="auto"
       mode="F"
       chamfer_steps="1"
       flexible="false"
       use_knot_distance="true"
       apply_no_radius="true"
       apply_with_radius="true"
       only_selected="false"
       hide_knots="false" /><inkscape:path-effect
       effect="fillet_chamfer"
       id="path-effect1"
       is_visible="true"
       lpeversion="1"
       nodesatellites_param="F,0,1,1,0,0.50098522,0,1 @ F,0,0,1,0,0.50098522,0,1 @ F,0,1,1,0,0.50098522,0,1 @ F,0,1,1,0,0.50098522,0,1 | F,0,0,1,0,0,0,1 @ F,0,0,1,0,0,0,1 @ F,0,0,1,0,0,0,1 @ F,0,0,1,0,0,0,1 | F,0,0,1,0,2.5567691,0,1 @ F,0,0,1,0,2.5567691,0,1 @ F,0,0,1,0,2.5567691,0,1 @ F,0,0,1,0,2.5567691,0,1 | F,0,0,1,0,1.637182,0,1 @ F,0,0,1,0,1.637182,0,1 @ F,0,0,1,0,1.637182,0,1 @ F,0,0,1,0,1.637182,0,1"
       radius="0"
       unit="px"
       method="auto"
       mode="F"
       chamfer_steps="1"
       flexible="false"
       use_knot_distance="true"
       apply_no_radius="true"
       apply_with_radius="true"
       only_selected="false"
       hide_knots="false" /><style
       id="current-color-scheme"
       type="text/css">.ColorScheme-Text {&#10;            color:#232629;&#10;        }&#10;        .ColorScheme-Background {&#10;            color:#eff0f1;&#10;        }&#10;        .ColorScheme-ViewBackground {&#10;            color:#fcfcfc;&#10;        }&#10;        .ColorScheme-ButtonFocus {&#10;            color:#3daee9;&#10;        }&#10;        .ColorScheme-PositiveText {&#10;            color:#27ae60;&#10;        }&#10;        .ColorScheme-NeutralText {&#10;            color:#f67400;&#10;        }&#10;        .ColorScheme-NegativeText {&#10;            color:#da4453;&#10;        }</style></defs><g
     id="22-22-preferences-desktop-display-randr"
     transform="translate(-1,-1)"><rect
       id="rect3832"
       x="1"
       y="1"
       width="22"
       height="22"
       fill-opacity="0" /><path
       id="rect7235"
       class="ColorScheme-Text"
       d="M 7.5009852,19 H 16.499015 A 0.50098522,0.50098522 45 0 1 17,19.500985 0.50000097,0.50000097 135.1129 0 1 16.499015,20 H 7.5009852 A 0.50098522,0.50098522 45 0 1 7,19.499015 0.50000097,0.50000097 135.1129 0 1 7.5009852,19 Z M 10,17 h 4 v 2 H 10 Z M 4,6.5567691 V 14.443231 A 2.5567691,2.5567691 45 0 0 6.5567691,17 H 17.443231 A 2.5567691,2.5567691 135 0 0 20,14.443231 V 6.5567691 A 2.5567691,2.5567691 45 0 0 17.443231,4 H 6.5567691 A 2.5567691,2.5567691 135 0 0 4,6.5567691 Z M 6.637182,5 H 17.362818 A 1.637182,1.637182 45 0 1 19,6.637182 v 5.725636 A 1.637182,1.637182 135 0 1 17.362818,14 H 6.637182 A 1.637182,1.637182 45 0 1 5,12.362818 L 5,6.637182 A 1.637182,1.637182 135 0 1 6.637182,5 Z"
       fill="currentColor"
       inkscape:path-effect="#path-effect1"
       inkscape:original-d="m 7,19 h 10 v 1 H 7 Z m 3,-2 h 4 v 2 H 10 Z M 4,4 V 17 H 20 V 4 Z m 1,1 h 14 v 9 H 5 Z"
       style="fill:#dfdfdf;fill-opacity:1"
       transform="matrix(1.125,0,0,1.125,-1.5,-1.5000001)" /><path
       id="rect3018"
       class="ColorScheme-Text"
       d="M 5.25,8.6249999 9.75,13.125 h -4.5 z"
       fill="currentColor"
       style="fill:#dfdfdf;fill-opacity:0.25;stroke-width:1.125" /><path
       id="path3028"
       class="ColorScheme-Text"
       d="m 18.75,9.7499999 -4.5,-4.5 h 4.5 z"
       fill="currentColor"
       style="fill:#dfdfdf;fill-opacity:0.25;stroke-width:1.125" /></g><g
     id="preferences-desktop-notification"
     transform="translate(-1,39)"><rect
       id="rect3068"
       x="1"
       y="1"
       width="22"
       height="22"
       fill-opacity="0" /><rect
       id="rect4130-82-0"
       x="4.000011"
       y="4"
       width="15.999978"
       height="15.999987"
       ry="7.999989"
       fill="#3daee9" /><path
       id="rect4142-6"
       d="m 10.751177,7.7394834 0.395078,5.8623656 A 0.8556814,0.8556814 43.072268 0 0 12,14.399995 h 8.6e-5 a 0.85623637,0.85623637 136.94626 0 0 0.854261,-0.798111 L 13.253241,7.7394246 A 1.2561392,1.2561392 46.946264 0 0 12,6.3980122 1.2544858,1.2544858 132.95155 0 0 10.751177,7.7394834 Z m 1.251466,7.5905376 c -0.597439,0 -1.081772,0.484325 -1.081772,1.081773 0,0.597446 0.484333,1.081772 1.081772,1.081772 0.597439,0 1.081772,-0.484326 1.081772,-1.081772 0,-0.597448 -0.484333,-1.081773 -1.081772,-1.081773 z"
       fill="#fcfcfc"
       inkscape:path-effect="#path-effect3"
       inkscape:original-d="m 10.660772,6.3980122 0.539272,8.0019828 h 1.599998 l 0.544472,-8.0019828 z m 1.341871,8.9320088 c -0.597439,0 -1.081772,0.484325 -1.081772,1.081773 0,0.597446 0.484333,1.081772 1.081772,1.081772 0.597439,0 1.081772,-0.484326 1.081772,-1.081772 0,-0.597448 -0.484333,-1.081773 -1.081772,-1.081773 z"
       sodipodi:nodetypes="cccccsssss" /></g><g
     id="22-22-preferences-system-bluetooth"
     transform="translate(-22,94)"><rect
       id="rect4645"
       x="66"
       width="22"
       height="22"
       fill="none" /><path
       d="m 75.997747,3.0000114 c -0.437973,0.00199 -0.79695,0.3619769 -0.79695,0.7999495 V 9.3026128 L 73.25992,7.9436987 C 73.125928,7.848705 72.965939,7.7987082 72.800949,7.7987082 72.361977,7.7987082 72,8.159685 72,8.5996572 c 0,0.2609839 0.127992,0.5059681 0.341978,0.6559585 l 2.489842,1.7438903 -2.489842,1.74389 C 72.127992,12.893386 72,13.137371 72,13.399354 c 0,0.438972 0.361977,0.800949 0.800949,0.800949 0.16499,0 0.324979,-0.051 0.458971,-0.14499 l 1.940877,-1.358915 v 5.503652 c 0,0.438972 0.360977,0.79995 0.799949,0.79995 0.186989,0 0.368977,-0.066 0.511968,-0.185988 l 4.799697,-3.999748 c 0.182988,-0.15099 0.288981,-0.376976 0.288981,-0.61496 0,-0.261984 -0.127992,-0.507969 -0.341978,-0.65596 l -3.63377,-2.543838 3.63377,-2.5438392 c 0.213986,-0.1499911 0.341978,-0.3939752 0.341978,-0.6559585 0,-0.2379854 -0.105993,-0.4639708 -0.288981,-0.6159615 L 76.512714,3.1839995 C 76.368723,3.064007 76.185735,2.9990113 75.997747,3.0000114 Z m 0.802949,9.3774076 v 4.111739 l 2.68083,-2.233858 z m 0,-6.8675661 v 4.1117402 l 2.68083,-1.8778816 z"
       fill="#dfdfdf"
       id="path1-2"
       style="clip-rule:evenodd;fill:#dfdfdf;fill-opacity:1;fill-rule:evenodd;stroke-width:0.999936;stroke-linejoin:round;stroke-miterlimit:2" /></g><g
     id="22-22-preferences-system-bluetooth-activated"
     transform="translate(0,94)"><rect
       id="rect4674"
       x="66"
       width="22"
       height="22"
       fill="none" /><path
       d="m 76.02846,3.0000114 c -0.437973,0.00199 -0.79695,0.3619769 -0.79695,0.7999495 V 9.3026128 L 73.290633,7.9436987 C 73.156641,7.848705 72.996652,7.7987082 72.831662,7.7987082 c -0.438972,0 -0.800949,0.3609768 -0.800949,0.800949 0,0.2609839 0.127992,0.5059681 0.341978,0.6559585 l 2.489842,1.7438903 -2.489842,1.74389 c -0.213986,0.14999 -0.341978,0.393975 -0.341978,0.655958 0,0.438972 0.361977,0.800949 0.800949,0.800949 0.16499,0 0.324979,-0.051 0.458971,-0.14499 l 1.940877,-1.358915 v 5.503652 c 0,0.438972 0.360977,0.79995 0.799949,0.79995 0.186989,0 0.368977,-0.066 0.511968,-0.185988 l 4.799697,-3.999748 c 0.182988,-0.15099 0.288981,-0.376976 0.288981,-0.61496 0,-0.261984 -0.127992,-0.507969 -0.341978,-0.65596 l -3.63377,-2.543838 3.63377,-2.5438392 c 0.213986,-0.1499911 0.341978,-0.3939752 0.341978,-0.6559585 0,-0.2379854 -0.105993,-0.4639708 -0.288981,-0.6159615 L 76.543427,3.1839995 C 76.399436,3.064007 76.216448,2.9990113 76.02846,3.0000114 Z m 0.802949,9.3774076 v 4.111739 l 2.68083,-2.233858 z m 0,-6.8675661 v 4.1117402 l 2.68083,-1.8778816 z"
       fill="#dfdfdf"
       id="path1-2-2"
       style="clip-rule:evenodd;fill:#dfdfdf;fill-opacity:1;fill-rule:evenodd;stroke-width:0.999936;stroke-linejoin:round;stroke-miterlimit:2" /></g><g
     id="22-22-preferences-system-bluetooth-inactive"
     transform="translate(-44,94)"><rect
       id="rect4162"
       x="66"
       width="22"
       height="22"
       fill="none" /><path
       d="m 75.997747,3.0000114 c -0.437973,0.00199 -0.79695,0.3619769 -0.79695,0.7999495 V 9.3026128 L 73.25992,7.9436987 C 73.125928,7.848705 72.965939,7.7987082 72.800949,7.7987082 72.361977,7.7987082 72,8.159685 72,8.5996572 c 0,0.2609839 0.127992,0.5059681 0.341978,0.6559585 l 2.489842,1.7438903 -2.489842,1.74389 C 72.127992,12.893386 72,13.137371 72,13.399354 c 0,0.438972 0.361977,0.800949 0.800949,0.800949 0.16499,0 0.324979,-0.051 0.458971,-0.14499 l 1.940877,-1.358915 v 5.503652 c 0,0.438972 0.360977,0.79995 0.799949,0.79995 0.186989,0 0.368977,-0.066 0.511968,-0.185988 l 4.799697,-3.999748 c 0.182988,-0.15099 0.288981,-0.376976 0.288981,-0.61496 0,-0.261984 -0.127992,-0.507969 -0.341978,-0.65596 l -3.63377,-2.543838 3.63377,-2.5438392 c 0.213986,-0.1499911 0.341978,-0.3939752 0.341978,-0.6559585 0,-0.2379854 -0.105993,-0.4639708 -0.288981,-0.6159615 L 76.512714,3.1839995 C 76.368723,3.064007 76.185735,2.9990113 75.997747,3.0000114 Z m 0.802949,9.3774076 v 4.111739 l 2.68083,-2.233858 z m 0,-6.8675661 v 4.1117402 l 2.68083,-1.8778816 z"
       fill="#dfdfdf"
       id="path1-2-3"
       style="clip-rule:evenodd;fill:#dfdfdf;fill-opacity:0.25;fill-rule:evenodd;stroke-width:0.999936;stroke-linejoin:round;stroke-miterlimit:2" /></g><g
     id="preferences-system-bluetooth"
     transform="translate(44,94)"><rect
       id="rect4168"
       x="-5"
       y="22"
       width="32"
       height="32"
       fill="none" /><path
       d="m 10.316827,25.953328 c -0.6595151,0.003 -1.2000757,0.545078 -1.2000757,1.204593 v 8.286092 L 6.1941086,33.397711 C 5.9923393,33.254666 5.7514208,33.179379 5.5029735,33.179379 c -0.6610203,0 -1.2060985,0.543572 -1.2060985,1.206098 0,0.392999 0.1927349,0.761905 0.5149634,0.987766 l 3.7492945,2.626013 -3.7492945,2.626012 C 4.4896099,40.851129 4.296875,41.21853 4.296875,41.613034 c 0,0.66102 0.5450782,1.206098 1.2060985,1.206098 0.2484473,0 0.4893658,-0.07679 0.6911351,-0.218332 l 2.9226427,-2.046302 v 8.287598 c 0,0.66102 0.5435726,1.204593 1.2045927,1.204593 0.281574,0 0.555619,-0.09938 0.77094,-0.280068 l 7.227556,-6.022964 c 0.275551,-0.227367 0.435159,-0.567664 0.435159,-0.92603 0,-0.394505 -0.192735,-0.764917 -0.514963,-0.987767 l -5.471863,-3.830604 5.471863,-3.830605 c 0.322228,-0.225862 0.514963,-0.593262 0.514963,-0.987766 0,-0.358367 -0.159608,-0.698664 -0.435159,-0.927537 l -7.227556,-6.022964 c -0.216827,-0.180689 -0.492378,-0.278562 -0.775457,-0.277056 z m 1.20911,14.120839 v 6.191606 l 4.036891,-3.363825 z m 0,-10.341429 v 6.191607 l 4.036891,-2.827782 z"
       fill="#dfdfdf"
       id="path1"
       style="clip-rule:evenodd;fill-rule:evenodd;stroke-width:1.50574;stroke-linejoin:round;stroke-miterlimit:2;fill:#dfdfdf;fill-opacity:1" /></g><g
     id="preferences-system-bluetooth-activated"
     transform="translate(44,94)"><rect
       id="rect4422"
       x="27"
       y="22"
       width="32"
       height="32"
       fill="none" /><path
       id="path4424"
       class="ColorScheme-Text"
       d="m 30,37 c -0.552285,0 -1,0.447715 -1,1 0,0.552285 0.447715,1 1,1 0.552285,0 1,-0.447715 1,-1 0,-0.552285 -0.447715,-1 -1,-1 z m 6,0 c -0.552285,0 -1,0.447715 -1,1 0,0.552285 0.447715,1 1,1 0.552285,0 1,-0.447715 1,-1 0,-0.552285 -0.447715,-1 -1,-1 z m 14,0 c -0.552285,0 -1,0.447715 -1,1 0,0.552285 0.447715,1 1,1 0.552285,0 1,-0.447715 1,-1 0,-0.552285 -0.447715,-1 -1,-1 z m 6,0 c -0.552285,0 -1,0.447715 -1,1 0,0.552285 0.447715,1 1,1 0.552285,0 1,-0.447715 1,-1 0,-0.552285 -0.447715,-1 -1,-1 z"
       fill="currentColor"
       sodipodi:nodetypes="ssssssssssssssssssss"
       style="fill:#dfdfdf;fill-opacity:1" /><path
       d="m 42.332762,25.953328 c -0.659515,0.003 -1.200076,0.545078 -1.200076,1.204593 v 8.286092 l -2.922642,-2.046302 c -0.20177,-0.143045 -0.442688,-0.218332 -0.691135,-0.218332 -0.661021,0 -1.206099,0.543572 -1.206099,1.206098 0,0.392999 0.192735,0.761905 0.514963,0.987766 l 3.749295,2.626013 -3.749295,2.626012 c -0.322228,0.225861 -0.514963,0.593262 -0.514963,0.987766 0,0.66102 0.545078,1.206098 1.206098,1.206098 0.248448,0 0.489366,-0.07679 0.691136,-0.218332 l 2.922642,-2.046302 v 8.287598 c 0,0.66102 0.543573,1.204593 1.204593,1.204593 0.281574,0 0.555619,-0.09938 0.77094,-0.280068 l 7.227556,-6.022964 c 0.275551,-0.227367 0.435159,-0.567664 0.435159,-0.92603 0,-0.394505 -0.192735,-0.764917 -0.514963,-0.987767 l -5.471863,-3.830604 5.471863,-3.830605 c 0.322228,-0.225862 0.514963,-0.593262 0.514963,-0.987766 0,-0.358367 -0.159608,-0.698664 -0.435159,-0.927537 l -7.227556,-6.022964 c -0.216827,-0.180689 -0.492378,-0.278562 -0.775457,-0.277056 z m 1.20911,14.120839 v 6.191606 l 4.036891,-3.363825 z m 0,-10.341429 v 6.191607 l 4.036891,-2.827782 z"
       fill="#dfdfdf"
       id="path1-9"
       style="clip-rule:evenodd;fill:#dfdfdf;fill-opacity:1;fill-rule:evenodd;stroke-width:1.50574;stroke-linejoin:round;stroke-miterlimit:2" /></g><g
     id="preferences-system-bluetooth-inactive"
     transform="translate(44,94)"><rect
       id="rect4426"
       x="-37"
       y="22"
       width="32"
       height="32"
       fill="none" /><path
       d="m -21.683173,25.953328 c -0.659515,0.003 -1.200076,0.545078 -1.200076,1.204593 v 8.286092 l -2.922642,-2.046302 c -0.20177,-0.143045 -0.442688,-0.218332 -0.691136,-0.218332 -0.66102,0 -1.206098,0.543572 -1.206098,1.206098 0,0.392999 0.192735,0.761905 0.514963,0.987766 l 3.749295,2.626013 -3.749295,2.626012 c -0.322228,0.225861 -0.514963,0.593262 -0.514963,0.987766 0,0.66102 0.545078,1.206098 1.206098,1.206098 0.248448,0 0.489366,-0.07679 0.691136,-0.218332 l 2.922642,-2.046302 v 8.287598 c 0,0.66102 0.543573,1.204593 1.204593,1.204593 0.281574,0 0.555619,-0.09938 0.77094,-0.280068 l 7.227556,-6.022964 c 0.275551,-0.227367 0.435159,-0.567664 0.435159,-0.92603 0,-0.394505 -0.192735,-0.764917 -0.514963,-0.987767 l -5.471863,-3.830604 5.471863,-3.830605 c 0.322228,-0.225862 0.514963,-0.593262 0.514963,-0.987766 0,-0.358367 -0.159608,-0.698664 -0.435159,-0.927537 l -7.227556,-6.022964 c -0.216827,-0.180689 -0.492378,-0.278562 -0.775457,-0.277056 z m 1.20911,14.120839 v 6.191606 l 4.036891,-3.363825 z m 0,-10.341429 v 6.191607 l 4.036891,-2.827782 z"
       fill="#dfdfdf"
       id="path1-5"
       style="clip-rule:evenodd;fill:#dfdfdf;fill-opacity:0.25;fill-rule:evenodd;stroke-width:1.50574;stroke-linejoin:round;stroke-miterlimit:2" /></g><g
     id="preferences-system-bluetooth-battery"
     transform="translate(44,126)"><rect
       id="rect4168-3"
       x="-5"
       y="22"
       width="32"
       height="32"
       fill="none" /><path
       d="m 9.9393275,25.953328 c -0.659515,0.003 -1.200076,0.545078 -1.200076,1.204593 v 8.286092 l -2.922642,-2.046302 c -0.20177,-0.143045 -0.442688,-0.218332 -0.691136,-0.218332 -0.66102,0 -1.206098,0.543572 -1.206098,1.206098 0,0.392999 0.192735,0.761905 0.514963,0.987766 l 3.749295,2.626013 -3.749295,2.626012 c -0.322228,0.225861 -0.514963,0.593262 -0.514963,0.987766 0,0.66102 0.545078,1.206098 1.206098,1.206098 0.248448,0 0.489366,-0.07679 0.691136,-0.218332 l 2.922642,-2.046302 v 8.287598 c 0,0.66102 0.543573,1.204593 1.204593,1.204593 0.2815745,0 0.5556195,-0.09938 0.7709405,-0.280068 l 7.227555,-6.022964 c 0.275551,-0.227367 0.435159,-0.567664 0.435159,-0.92603 0,-0.394505 -0.192735,-0.764917 -0.514963,-0.987767 l -5.471863,-3.830604 5.471863,-3.830605 c 0.322228,-0.225862 0.514963,-0.593262 0.514963,-0.987766 0,-0.358367 -0.159608,-0.698664 -0.435159,-0.927537 L 10.714785,26.230384 C 10.497958,26.049695 10.222407,25.951822 9.9393275,25.953328 Z m 1.2091105,14.120839 v 6.191606 l 4.03689,-3.363825 z m 0,-10.341429 v 6.191607 l 4.03689,-2.827782 z"
       fill="#dfdfdf"
       id="path1-3"
       style="clip-rule:evenodd;fill:#dfdfdf;fill-opacity:1;fill-rule:evenodd;stroke-width:1.50574;stroke-linejoin:round;stroke-miterlimit:2" /></g><g
     id="preferences-desktop-display-randr"><rect
       id="rect3832-6"
       x="26"
       y="-10"
       width="32"
       height="32"
       fill-opacity="0" /><path
       id="rect7235-7"
       class="ColorScheme-Text"
       d="m 36.034397,15 h 9.931206 A 1.0289187,1.0289187 44.838872 0 1 46.994506,16.023132 0.99467606,0.99467606 136.17145 0 1 45.976852,17 H 36.045646 A 1.0289187,1.0289187 44.838872 0 1 35.016743,15.976868 0.99467606,0.99467606 136.17145 0 1 36.034397,15 Z M 39,13 h 4 v 2 H 39 Z M 30,-1.068867 V 9.068867 A 3.931133,3.931133 45 0 0 33.931133,13 H 48.068867 A 3.931133,3.931133 135 0 0 52,9.068867 V -1.068867 A 3.931133,3.931133 45 0 0 48.068867,-5 H 33.931133 A 3.931133,3.931133 135 0 0 30,-1.068867 Z M 34.237537,-4 H 47.762463 A 3.2375369,3.2375369 45 0 1 51,-0.7624631 V 6.7624631 A 3.2375369,3.2375369 135 0 1 47.762463,10 H 34.237537 A 3.2375369,3.2375369 45 0 1 31,6.7624631 V -0.7624631 A 3.2375369,3.2375369 135 0 1 34.237537,-4 Z"
       fill="currentColor"
       inkscape:path-effect="#path-effect2"
       inkscape:original-d="M 35.011249,15 H 46.988751 L 47,17 H 35.022498 Z M 39,13 h 4 v 2 H 39 Z M 30,-5 V 13 H 52 V -5 Z m 1,1 H 51 V 10 H 31 Z"
       style="fill:#dfdfdf;fill-opacity:1"
       transform="matrix(1.181816,0,0,1.181816,-7.4544543,-1.0909202)" /><path
       id="rect3018-5"
       class="ColorScheme-Text"
       d="m 30.907048,2.7669174 5.90908,5.9090798 h -5.90908 z"
       fill="currentColor"
       style="fill:#dfdfdf;fill-opacity:0.25;stroke-width:1.18182" /><path
       id="path3028-3"
       class="ColorScheme-Text"
       d="m 51.092952,2.0696857 -5.90908,-5.9090798 h 5.90908 z"
       fill="currentColor"
       style="fill:#dfdfdf;fill-opacity:0.25;stroke-width:1.18182" /></g></svg>
