<?xml version="1.0" encoding="UTF-8" standalone="no"?>
<svg
   width="16"
   height="16"
   version="1.1"
   id="svg7"
   sodipodi:docname="redshift.svg"
   inkscape:version="1.3 (0e150ed6c4, 2023-07-21)"
   xmlns:inkscape="http://www.inkscape.org/namespaces/inkscape"
   xmlns:sodipodi="http://sodipodi.sourceforge.net/DTD/sodipodi-0.dtd"
   xmlns:xlink="http://www.w3.org/1999/xlink"
   xmlns="http://www.w3.org/2000/svg"
   xmlns:svg="http://www.w3.org/2000/svg">
  <sodipodi:namedview
     id="namedview9"
     pagecolor="#ffffff"
     bordercolor="#666666"
     borderopacity="1.0"
     inkscape:pageshadow="2"
     inkscape:pageopacity="0.0"
     inkscape:pagecheckerboard="0"
     showgrid="true"
     inkscape:snap-smooth-nodes="true"
     inkscape:zoom="8"
     inkscape:cx="29.0625"
     inkscape:cy="-6.5625"
     inkscape:window-width="2194"
     inkscape:window-height="1211"
     inkscape:window-x="-8"
     inkscape:window-y="-8"
     inkscape:window-maximized="1"
     inkscape:current-layer="svg7"
     inkscape:showpageshadow="2"
     inkscape:deskcolor="#d1d1d1">
    <inkscape:grid
       type="xygrid"
       id="grid826"
       originx="0"
       originy="0"
       spacingy="1"
       spacingx="1"
       units="px"
       visible="true" />
  </sodipodi:namedview>
  <defs
     id="defs3">
    <inkscape:path-effect
       effect="fillet_chamfer"
       id="path-effect1"
       is_visible="true"
       lpeversion="1"
       nodesatellites_param="F,0,0,1,0,0,0,1 @ F,0,1,1,0,0.7875,0,1 @ F,0,0,1,0,0.7875,0,1 @ F,0,0,1,0,0,0,1 | F,0,0,1,0,0,0,1 @ F,0,1,1,0,0.7875,0,1 @ F,0,1,1,0,0.7875,0,1 @ F,0,0,1,0,0,0,1"
       radius="0"
       unit="px"
       method="auto"
       mode="F"
       chamfer_steps="1"
       flexible="false"
       use_knot_distance="true"
       apply_no_radius="true"
       apply_with_radius="true"
       only_selected="false"
       hide_knots="false" />
    <style
       id="current-color-scheme"
       type="text/css">&#10;   .ColorScheme-Text { color:#363636; } .ColorScheme-Highlight { color:#4285f4; } .ColorScheme-NeutralText { color:#ff9800; } .ColorScheme-PositiveText { color:#4caf50; } .ColorScheme-NegativeText { color:#f44336; }&#10;  </style>
  </defs>
  <g
     id="22-22-redshift-status-on">
    <rect
       id="rect5142"
       width="22"
       height="22"
       x="-3"
       y="-3"
       rx="0"
       ry="0"
       style="fill:none" />
    <path
       style="fill:#dfdfdf;fill-opacity:1"
       class="ColorScheme-Text"
       d="M 8,0 C 5.16,0 2.86,2.31 2.86,5.16 c 0,1.68 0.79,3.16 2.04,4.1 0.57,0.43 1.05,0.99 1.05,1.76 L 6,12 h 4 l 0.06,-0.98 C 10.1,10.25 10.53,9.69 11.1,9.26 12.35,8.32 13.14,6.84 13.14,5.16 13.14,2.31 10.84,0 8,0 Z m 0,2.06 c 1.7,0 3.09,1.39 3.09,3.1 0,0.97 -0.45,1.87 -1.23,2.45 C 8.7,8.49 8.26,9.47 8.1,10.29 H 7.9 C 7.74,9.47 7.3,8.49 6.14,7.61 5.36,7.03 4.91,6.13 4.91,5.16 4.91,3.45 6.3,2.06 8,2.06 Z"
       id="path5" />
    <path
       style="fill:#dfdfdf;opacity:1;fill-opacity:1"
       class="ColorScheme-Text"
       d="m 6,13 v 0.2125 A 0.7875,0.7875 45 0 0 6.7875,14 h 2.425 A 0.7875,0.7875 135 0 0 10,13.2125 V 13 Z m 1,2 v 0.2125 A 0.7875,0.7875 45 0 0 7.7875,16 h 0.425 A 0.7875,0.7875 135 0 0 9,15.2125 V 15 Z"
       id="path836"
       inkscape:path-effect="#path-effect1"
       inkscape:original-d="m 6,13 v 1 h 4 v -1 z m 1,2 v 1 h 2 v -1 z" />
  </g>
  <g
     id="redshift-status-on">
    <rect
       style="opacity:0.45;fill:none;stroke-width:0.290909;stroke-linecap:round;stroke-linejoin:round;paint-order:stroke fill markers;stop-color:#000000"
       id="rect850"
       width="32"
       height="32"
       x="23"
       y="-5"
       rx="0"
       ry="0" />
    <path
       d="m 39,-1 c -3.895834,0 -7.309359,3.2046537 -7.309359,7.4492187 0,2.4984986 1.365067,4.5367943 3.063265,5.9042973 0.337692,0.272805 0.67659,0.551173 0.894531,0.808593 0.218204,0.25773 0.292969,0.441968 0.292969,0.613282 v 0.02344 L 36.046875,16 h 5.898437 l 0.123047,-2.171875 v -0.0039 c 0.01982,-0.408528 0.525729,-0.942422 1.179688,-1.470703 h -0.002 C 44.944291,10.986013 46.309359,8.9477173 46.309359,6.4492187 46.309359,2.2046537 42.895834,-1 39,-1 Z m 0,2 c 2.734509,0 5.220971,2.2539078 5.220971,5.4492187 0,1.8871126 -1.008698,3.3651612 -2.228784,4.3476563 h -0.002 c -0.67541,0.545611 -1.840136,1.411101 -1.917968,2.921875 v 0.0039 L 40.054687,14 h -2.101562 l -0.01172,-0.273437 v 0.04883 c 0,-0.791186 -0.371969,-1.438981 -0.767578,-1.90625 -0.395608,-0.46727 -0.83679,-0.807889 -1.164062,-1.072266 h -0.002 C 34.787726,9.8143798 33.779029,8.3363313 33.779029,6.4492187 33.779029,3.2539078 36.265491,1 39,1 Z"
       id="path3678"
       class="ColorScheme-Text"
       fill="currentColor"
       style="fill:#dfdfdf;fill-opacity:1"
       sodipodi:nodetypes="sscsscccccccssssccccccccsccss" />
    <path
       id="rect3944"
       d="m 36,16.998248 v 1 c 0,0.554 0.446002,0.998377 1,1 l 4,0.01172 c 0.553998,0.0016 1,-0.457719 1,-1.011719 v -1 h -1 -4 z m 1,3.002298 v 0.990234 0.0098 0.0098 c 0,0.548037 0.446,0.9902 1,0.9902 h 2 c 0.554,0 1,-0.442163 1,-0.990234 v -0.0098 -0.0098 -0.990234 h -1 -2 z"
       class="ColorScheme-Text"
       fill="currentColor"
       style="opacity:1;fill:#dfdfdf;fill-opacity:1"
       sodipodi:nodetypes="csssscccccccsssscccccc" />
  </g>
  <use
     x="0"
     y="0"
     xlink:href="#22-22-redshift-status-on"
     id="22-22-redshift-status-off"
     transform="translate(0,30)"
     width="100%"
     height="100%"
     style="opacity:0.35;fill:#dfdfdf;fill-opacity:1" />
  <use
     x="0"
     y="0"
     xlink:href="#redshift-status-on"
     id="redshift-status-off"
     transform="translate(33.054688)"
     width="100%"
     height="100%"
     style="opacity:0.35" />
</svg>
