<?xml version="1.0" encoding="UTF-8" standalone="no"?>
<svg
   version="1.1"
   id="svg2"
   viewBox="0 0 54 32"
   inkscape:version="1.3 (0e150ed6c4, 2023-07-21)"
   sodipodi:docname="search.svg"
   xmlns:inkscape="http://www.inkscape.org/namespaces/inkscape"
   xmlns:sodipodi="http://sodipodi.sourceforge.net/DTD/sodipodi-0.dtd"
   xmlns="http://www.w3.org/2000/svg"
   xmlns:svg="http://www.w3.org/2000/svg"
   xmlns:rdf="http://www.w3.org/1999/02/22-rdf-syntax-ns#"
   xmlns:cc="http://creativecommons.org/ns#"
   xmlns:dc="http://purl.org/dc/elements/1.1/">
  <sodipodi:namedview
     pagecolor="#ffffff"
     bordercolor="#666666"
     borderopacity="1"
     objecttolerance="10"
     gridtolerance="10"
     guidetolerance="10"
     inkscape:pageopacity="0"
     inkscape:pageshadow="2"
     inkscape:window-width="2194"
     inkscape:window-height="1211"
     id="namedview12"
     showgrid="false"
     inkscape:zoom="20.85965"
     inkscape:cx="27.54121"
     inkscape:cy="15.124894"
     inkscape:window-x="-8"
     inkscape:window-y="-8"
     inkscape:window-maximized="1"
     inkscape:current-layer="svg2"
     inkscape:showpageshadow="2"
     inkscape:pagecheckerboard="0"
     inkscape:deskcolor="#d1d1d1" />
  <metadata
     id="metadata18">
    <rdf:RDF>
      <cc:Work
         rdf:about="">
        <dc:format>image/svg+xml</dc:format>
        <dc:type
           rdf:resource="http://purl.org/dc/dcmitype/StillImage" />
        <dc:title />
      </cc:Work>
    </rdf:RDF>
  </metadata>
  <defs
     id="defs3051">
    <style
       type="text/css"
       id="current-color-scheme">&#10;      .ColorScheme-Text {&#10;        color:#31363b;&#10;      }&#10;      .ColorScheme-Background {&#10;        color:#eff0f1;&#10;      }&#10;      .ColorScheme-Highlight {&#10;        color:#3daee9;&#10;      }&#10;      .ColorScheme-ViewText {&#10;        color:#31363b;&#10;      }&#10;      .ColorScheme-ViewBackground {&#10;        color:#fcfcfc;&#10;      }&#10;      .ColorScheme-ViewHover {&#10;        color:#93cee9;&#10;      }&#10;      .ColorScheme-ViewFocus{&#10;        color:#3daee9;&#10;      }&#10;      .ColorScheme-ButtonText {&#10;        color:#31363b;&#10;      }&#10;      .ColorScheme-ButtonBackground {&#10;        color:#eff0f1;&#10;      }&#10;      .ColorScheme-ButtonHover {&#10;        color:#93cee9;&#10;      }&#10;      .ColorScheme-ButtonFocus{&#10;        color:#3daee9;&#10;      }&#10;      </style>
  </defs>
  <g
     id="22-22-search">
    <path
       d="m 9.0597144,13 c -3.3240289,0 -6.0597143,2.735685 -6.0597143,6.059715 0,3.32403 2.7356854,6.059715 6.0597143,6.059715 1.2262646,0 2.7378896,-0.631311 3.5708236,-1.204231 l 3.898049,4.171288 c 0.207132,0.215945 0.494692,0.338241 0.794373,0.338241 0.604871,0 1.101767,-0.496895 1.101767,-1.101766 0,-0.297478 -0.120093,-0.582835 -0.333837,-0.789967 l -4.1801,-3.905761 c 0.574021,-0.831832 1.206435,-2.342353 1.208638,-3.567519 C 15.119428,15.735685 12.383742,13 9.0597144,13 Z m 0,1.208638 c 2.6618656,0 4.8510756,2.189209 4.8510756,4.851077 0,2.661866 -2.18921,4.851076 -4.8510756,4.851076 -2.6618674,0 -4.8510778,-2.189209 -4.8510778,-4.851076 0,-2.661868 2.1892104,-4.851077 4.8510778,-4.851077 z"
       fill="#dfdfdf"
       id="path1-33-0-9"
       style="clip-rule:evenodd;fill-rule:evenodd;stroke-width:1.10177;stroke-linejoin:round;stroke-miterlimit:2" />
    <path
       id="path9"
       d="M 0 10 L 0 32 L 22 32 L 22 10 L 0 10 z "
       style="opacity:1;fill:none" />
  </g>
  <g
     id="search">
    <path
       d="M 35.108284,4 C 30.111976,4 26,8.111976 26,13.108285 c 0,4.996311 4.111976,9.108286 9.108284,9.108286 1.843183,0 4.115289,-0.948917 5.367262,-1.810065 l 5.859111,6.269812 c 0.311338,0.324585 0.743567,0.508407 1.194013,0.508407 0.909174,0 1.656052,-0.746878 1.656052,-1.656052 0,-0.447135 -0.18051,-0.876052 -0.501785,-1.187389 l -6.283058,-5.870702 c 0.862803,-1.250318 1.813377,-3.520765 1.816688,-5.362297 C 44.216567,8.111976 40.104591,4 35.108284,4 Z m 0,1.81669 c 4.001019,0 7.291595,3.290574 7.291595,7.291595 0,4.00102 -3.290576,7.291596 -7.291595,7.291596 -4.001021,0 -7.291597,-3.290575 -7.291597,-7.291596 0,-4.001021 3.290576,-7.291595 7.291597,-7.291595 z"
       fill="#dfdfdf"
       id="path1-33-0"
       style="clip-rule:evenodd;fill-rule:evenodd;stroke-width:1.65605;stroke-linejoin:round;stroke-miterlimit:2" />
    <path
       id="path14"
       d="M 22 0 L 22 32 L 54 32 L 54 0 L 22 0 z "
       style="opacity:1;fill:none" />
  </g>
</svg>
