<?xml version="1.0" encoding="UTF-8" standalone="no"?>
<!-- Created with Inkscape (http://www.inkscape.org/) -->

<svg
   id="svg4153"
   version="1.1"
   inkscape:version="1.3 (0e150ed6c4, 2023-07-21)"
   width="22"
   height="22"
   sodipodi:docname="software.svg"
   viewBox="0 0 22 22"
   xml:space="preserve"
   xmlns:inkscape="http://www.inkscape.org/namespaces/inkscape"
   xmlns:sodipodi="http://sodipodi.sourceforge.net/DTD/sodipodi-0.dtd"
   xmlns="http://www.w3.org/2000/svg"
   xmlns:svg="http://www.w3.org/2000/svg"
   xmlns:rdf="http://www.w3.org/1999/02/22-rdf-syntax-ns#"
   xmlns:cc="http://creativecommons.org/ns#"
   xmlns:dc="http://purl.org/dc/elements/1.1/"><metadata
     id="metadata4159"><rdf:RDF><cc:Work
         rdf:about=""><dc:format>image/svg+xml</dc:format><dc:type
           rdf:resource="http://purl.org/dc/dcmitype/StillImage" /><dc:title /></cc:Work></rdf:RDF></metadata><defs
     id="defs4157"><style
       type="text/css"
       id="current-color-scheme">&#10;      .ColorScheme-Text {&#10;        color:#31363b;&#10;      }&#10;      .ColorScheme-Background {&#10;        color:#eff0f1;&#10;      }&#10;      .ColorScheme-Highlight {&#10;        color:#3daee9;&#10;      }&#10;      .ColorScheme-ViewText {&#10;        color:#31363b;&#10;      }&#10;      .ColorScheme-ViewBackground {&#10;        color:#fcfcfc;&#10;      }&#10;      .ColorScheme-ViewHover {&#10;        color:#93cee9;&#10;      }&#10;      .ColorScheme-ViewFocus{&#10;        color:#3daee9;&#10;      }&#10;      .ColorScheme-ButtonText {&#10;        color:#31363b;&#10;      }&#10;      .ColorScheme-ButtonBackground {&#10;        color:#eff0f1;&#10;      }&#10;      .ColorScheme-ButtonHover {&#10;        color:#93cee9;&#10;      }&#10;      .ColorScheme-ButtonFocus{&#10;        color:#3daee9;&#10;      }&#10;      </style><linearGradient
       id="_Linear1"
       x2="1"
       gradientTransform="matrix(0,-16.127999,16.127999,0,-11.056136,19.071713)"
       gradientUnits="userSpaceOnUse"><stop
         style="stop-color:rgb(129,129,129)"
         offset="0"
         id="stop1" /><stop
         style="stop-color:rgb(242,242,242)"
         offset="1"
         id="stop2" /></linearGradient><linearGradient
       id="_Linear1-9"
       x2="1"
       gradientTransform="matrix(0,-21.412,21.412,0,11,21.7064)"
       gradientUnits="userSpaceOnUse"><stop
         style="stop-color:rgb(255,124,0)"
         offset="0"
         id="stop1-6" /><stop
         style="stop-color:rgb(241,196,15)"
         offset="1"
         id="stop2-9" /></linearGradient><linearGradient
       id="_Linear1-9-2"
       x2="1"
       gradientTransform="matrix(0,-16.112272,16.112272,0,55.056137,19.056437)"
       gradientUnits="userSpaceOnUse"><stop
         style="stop-color:#c42400;stop-opacity:1;"
         offset="0"
         id="stop1-6-9" /><stop
         style="stop-color:#f15c0f;stop-opacity:1;"
         offset="1"
         id="stop2-9-3" /></linearGradient><linearGradient
       id="_Linear1-2"
       x2="1"
       gradientTransform="matrix(0,-12.437811,12.437811,0,343.02765,17.073678)"
       gradientUnits="userSpaceOnUse"><stop
         style="stop-color:rgb(0,103,131)"
         offset="0"
         id="stop1-2" /><stop
         style="stop-color:rgb(19,190,227)"
         offset="1"
         id="stop2-8" /></linearGradient><linearGradient
       id="_Linear1-2-1"
       x2="1"
       gradientTransform="matrix(0,-12.437811,12.437811,0,343.02765,17.073678)"
       gradientUnits="userSpaceOnUse"><stop
         style="stop-color:rgb(0,103,131)"
         offset="0"
         id="stop1-2-4" /><stop
         style="stop-color:rgb(19,190,227)"
         offset="1"
         id="stop2-8-1" /></linearGradient><linearGradient
       id="_Linear1-2-2"
       x2="1"
       gradientTransform="matrix(0,-12.437811,12.437811,0,343.02765,17.073678)"
       gradientUnits="userSpaceOnUse"><stop
         style="stop-color:#00834f;stop-opacity:1;"
         offset="0"
         id="stop1-2-2" /><stop
         style="stop-color:#13e3a8;stop-opacity:1;"
         offset="1"
         id="stop2-8-4" /></linearGradient></defs><sodipodi:namedview
     pagecolor="#ffffff"
     bordercolor="#666666"
     borderopacity="1"
     objecttolerance="10"
     gridtolerance="10000"
     guidetolerance="10"
     inkscape:pageopacity="0"
     inkscape:pageshadow="2"
     inkscape:window-width="2194"
     inkscape:window-height="1211"
     id="namedview4155"
     inkscape:document-units="px"
     showgrid="true"
     inkscape:showpageshadow="false"
     borderlayer="true"
     inkscape:zoom="8.340909"
     inkscape:cx="23.438692"
     inkscape:cy="29.553134"
     inkscape:window-x="-8"
     inkscape:window-y="-8"
     inkscape:window-maximized="1"
     inkscape:current-layer="svg4153"
     inkscape:pagecheckerboard="0"
     inkscape:deskcolor="#d1d1d1"><inkscape:grid
       type="xygrid"
       id="grid4140"
       originx="0"
       originy="0"
       spacingy="1"
       spacingx="1"
       units="px"
       visible="true" /><sodipodi:guide
       position="0,22"
       orientation="22,0"
       id="guide4146"
       inkscape:locked="false" /><sodipodi:guide
       position="0,0"
       orientation="0,22"
       id="guide4148"
       inkscape:locked="false" /><sodipodi:guide
       position="22,0"
       orientation="-22,0"
       id="guide4150"
       inkscape:locked="false" /><sodipodi:guide
       position="22,22"
       orientation="0,-22"
       id="guide4152"
       inkscape:locked="false" /><sodipodi:guide
       position="3,19"
       orientation="16,0"
       id="guide4154"
       inkscape:locked="false" /><sodipodi:guide
       position="18,3"
       orientation="0,16"
       id="guide4156"
       inkscape:locked="false" /><sodipodi:guide
       position="19,3"
       orientation="-16,0"
       id="guide4158"
       inkscape:locked="false" /><sodipodi:guide
       position="19,19"
       orientation="0,-16"
       id="guide4160"
       inkscape:locked="false" /></sodipodi:namedview><inkscape:clipboard
     style="opacity:0.01000001;fill:#00000f;fill-opacity:0;stroke-width:1;stroke-linecap:butt;stroke-linejoin:miter;stroke-miterlimit:4;stroke-dasharray:none;stroke-dashoffset:0;stroke-opacity:1;stroke:none"
     min="0,0"
     max="22,22" /><g
     id="software-updates-important"><path
       d="m 55.056137,2.943864 c 4.446451,0 8.056136,3.6096847 8.056136,8.056136 0,4.446451 -3.609685,8.056136 -8.056136,8.056136 C 50.609685,19.056136 47,15.446451 47,11 47,6.5535487 50.609685,2.943864 55.056137,2.943864 Z m 0,0.7524879 c 4.031078,0 7.303648,3.2725702 7.303648,7.3036481 0,4.031078 -3.27257,7.303648 -7.303648,7.303648 -4.031078,0 -7.303649,-3.27257 -7.303649,-7.303648 0,-4.0310779 3.272571,-7.3036481 7.303649,-7.3036481 z m 0,9.8997321 3.555505,-4.4855812 c 0.346145,-0.436443 0.982749,-0.5101868 1.419192,-0.1632899 0.437196,0.3461445 0.51094,0.9819968 0.164043,1.4191921 l -4.341856,5.47736 c -0.200161,0.252836 -0.497394,0.383769 -0.796884,0.381511 -0.300243,0.0023 -0.596723,-0.128675 -0.796885,-0.381511 L 49.917396,10.367158 C 49.570499,9.9299622 49.644243,9.2933574 50.081439,8.9472129 50.517882,8.6010684 51.154486,8.6748123 51.500631,9.1112553 Z m 0,-5.0416698 1.801456,-2.2732661 c 0.257351,-0.3243223 0.730666,-0.379254 1.05574,-0.1219031 0.325075,0.2573509 0.380007,0.7314183 0.121903,1.0557406 L 55.649097,10.22569 c -0.148993,0.188122 -0.370224,0.285193 -0.59296,0.28444 -0.223489,7.53e-4 -0.444721,-0.09632 -0.592961,-0.28444 L 52.076284,7.2149856 C 51.818933,6.8906633 51.873112,6.4165959 52.198187,6.159245 52.523262,5.9018941 52.996577,5.9568258 53.25468,6.2811481 Z"
       style="clip-rule:evenodd;fill:url(#_Linear1-9-2);fill-rule:evenodd;stroke-width:0.752488;stroke-linejoin:round;stroke-miterlimit:2"
       id="path1-8-6" /><rect
       y="-2.6645353e-15"
       x="44"
       height="22"
       width="22"
       id="rect4206"
       style="opacity:1;fill:none;fill-opacity:0.59905659;stroke:none" /></g><g
     id="software-updates-security"><path
       d="M 11,0.294 C 16.909,0.294 21.706,5.091 21.706,11 21.706,16.909 16.909,21.706 11,21.706 5.091,21.706 0.294,16.909 0.294,11 0.294,5.091 5.091,0.294 11,0.294 Z m 0,1 c 5.357,0 9.706,4.349 9.706,9.706 0,5.357 -4.349,9.706 -9.706,9.706 C 5.643,20.706 1.294,16.357 1.294,11 1.294,5.643 5.643,1.294 11,1.294 Z m 0,13.156 4.725,-5.961 c 0.46,-0.58 1.306,-0.678 1.886,-0.217 0.581,0.46 0.679,1.305 0.218,1.886 l -5.77,7.279 C 11.793,17.773 11.398,17.947 11,17.944 10.601,17.947 10.207,17.773 9.941,17.437 L 4.171,10.159 C 3.71,9.578 3.808,8.732 4.389,8.272 4.969,7.812 5.815,7.91 6.275,8.49 Z m 0,-6.7 2.394,-3.021 c 0.342,-0.431 0.971,-0.504 1.403,-0.162 0.432,0.342 0.505,0.972 0.162,1.403 L 11.788,9.971 C 11.59,10.221 11.296,10.35 11,10.349 10.703,10.35 10.409,10.221 10.212,9.971 L 7.04,5.97 C 6.698,5.539 6.77,4.909 7.202,4.567 7.634,4.225 8.263,4.298 8.606,4.729 Z"
       style="clip-rule:evenodd;fill-rule:evenodd;stroke-linejoin:round;stroke-miterlimit:2;fill:url(#_Linear1-9)"
       id="path1-8"
       transform="matrix(0.75248796,0,0,0.75248796,24.722632,2.7226324)" /><rect
       style="opacity:1;fill:none;fill-opacity:0.59905659;stroke:none"
       id="rect4208"
       width="22"
       height="22"
       x="22"
       y="-2.6645353e-15" /></g><g
     id="software-updates-updates"><rect
       style="opacity:1;fill:none;fill-opacity:0.59905659;stroke:none"
       id="rect4212"
       width="22"
       height="22"
       x="0"
       y="-2.6645353e-15" /><path
       d="m 11,3 c 4.415468,0 8,3.584532 8,8 0,4.415468 -3.584532,8 -8,8 C 6.584532,19 3,15.415468 3,11 3,6.584532 6.584532,3 11,3 Z m 0,0.7472445 c 4.002989,0 7.252756,3.2497665 7.252756,7.2527555 0,4.002989 -3.249767,7.252756 -7.252756,7.252756 C 6.997011,18.252756 3.7472445,15.002989 3.7472445,11 3.7472445,6.997011 6.997011,3.7472445 11,3.7472445 Z m 0,9.8307495 3.53073,-4.454325 c 0.343733,-0.4334019 0.975902,-0.5066318 1.409304,-0.1621521 0.434149,0.3437325 0.507379,0.9751541 0.162899,1.4093031 l -4.311601,5.439193 C 11.592565,16.061087 11.297403,16.191108 11,16.188866 c -0.298151,0.0022 -0.592565,-0.127779 -0.791332,-0.378853 L 5.897067,10.371567 C 5.5525873,9.9374183 5.6258173,9.3052494 6.0599663,8.9615169 6.4933682,8.6177844 7.1255371,8.6910144 7.4692695,9.1244162 Z m 0,-5.0065388 1.788903,-2.2574257 c 0.255558,-0.3220624 0.725575,-0.3766113 1.048385,-0.1210536 0.322809,0.2555576 0.377358,0.7263217 0.121053,1.0483841 l -2.369512,2.989725 C 11.440874,10.417897 11.221184,10.514291 11,10.513544 c -0.221932,7.47e-4 -0.441622,-0.09565 -0.588829,-0.282459 L 8.0409116,7.24136 C 7.785354,6.9192976 7.8391556,6.4485335 8.1619652,6.1929759 8.4847749,5.9374182 8.9547917,5.9919671 9.2110966,6.3140295 Z"
       style="clip-rule:evenodd;fill:url(#_Linear1-2);fill-rule:evenodd;stroke-width:0.747245;stroke-linejoin:round;stroke-miterlimit:2"
       id="path1-4" /></g><g
     id="software-updates-inactive"><rect
       y="-2.6645353e-15"
       x="-22"
       height="22"
       width="22"
       id="rect4214"
       style="opacity:1;fill:none;fill-opacity:0.59905659;stroke:none" /><path
       d="M -11.056136,2.943864 C -6.609685,2.943864 -3,6.5535487 -3,11 c 0,4.446451 -3.609685,8.056136 -8.056136,8.056136 -4.446452,0 -8.056136,-3.609685 -8.056136,-8.056136 0,-4.4464513 3.609684,-8.056136 8.056136,-8.056136 z m 0,0.752488 c 4.031078,0 7.303648,3.27257 7.303648,7.303648 0,4.031078 -3.27257,7.303648 -7.303648,7.303648 -4.031078,0 -7.303648,-3.27257 -7.303648,-7.303648 0,-4.031078 3.27257,-7.303648 7.303648,-7.303648 z m 0,9.899732 3.555505,-4.4855812 c 0.346145,-0.4364431 0.98275,-0.5101869 1.419193,-0.1632899 0.437195,0.3461445 0.510939,0.9819965 0.164042,1.4191921 l -4.341855,5.47736 c -0.200162,0.252836 -0.497395,0.383769 -0.796885,0.381511 -0.300242,0.0022 -0.596723,-0.128675 -0.796885,-0.381511 l -4.341856,-5.476608 c -0.346897,-0.4371952 -0.273153,-1.0737996 0.164043,-1.4199441 0.436443,-0.3461445 1.073047,-0.2724007 1.419192,0.1640423 z m 0,-5.0416698 1.801456,-2.2732662 c 0.257351,-0.3243223 0.730666,-0.3792539 1.055741,-0.121903 0.325075,0.2573509 0.380007,0.7314183 0.121903,1.0557406 l -2.386139,3.0107044 c -0.148994,0.188122 -0.370224,0.285193 -0.592961,0.28444 -0.223489,7.53e-4 -0.444721,-0.09632 -0.592961,-0.28444 l -2.386892,-3.0107044 c -0.257351,-0.3243223 -0.203172,-0.7983897 0.121903,-1.0557406 0.325075,-0.2573509 0.79839,-0.2024193 1.056493,0.121903 z"
       style="clip-rule:evenodd;display:inline;fill:url(#_Linear1);fill-rule:evenodd;stroke-width:0.752488;stroke-linejoin:round;stroke-miterlimit:2"
       id="path1" /></g><g
     id="software-updates-release"
     transform="translate(0,22)"><path
       d="m 11,3 c 4.415468,0 8,3.584532 8,8 0,4.415468 -3.584532,8 -8,8 C 6.584532,19 3,15.415468 3,11 3,6.584532 6.584532,3 11,3 Z m 0,0.7472445 c 4.002989,0 7.252756,3.2497665 7.252756,7.2527555 0,4.002989 -3.249767,7.252756 -7.252756,7.252756 C 6.997011,18.252756 3.747244,15.002989 3.747244,11 3.747244,6.997011 6.997011,3.7472445 11,3.7472445 Z m 0,9.8307495 3.53073,-4.454325 c 0.343733,-0.4334019 0.975902,-0.5066318 1.409304,-0.1621521 0.434149,0.3437325 0.507379,0.9751541 0.162899,1.4093031 l -4.311601,5.439193 C 11.592565,16.061087 11.297403,16.191108 11,16.188866 c -0.298151,0.0022 -0.592565,-0.127779 -0.791332,-0.378853 L 5.897067,10.371567 C 5.552587,9.9374183 5.625817,9.3052494 6.059966,8.9615169 6.493368,8.6177844 7.125537,8.6910144 7.469269,9.1244162 Z m 0,-5.0065388 1.788903,-2.2574257 c 0.255558,-0.3220624 0.725575,-0.3766113 1.048385,-0.1210536 0.322809,0.2555576 0.377358,0.7263217 0.121053,1.0483841 l -2.369512,2.989725 C 11.440874,10.417897 11.221184,10.514291 11,10.513544 c -0.221932,7.47e-4 -0.441622,-0.09565 -0.588829,-0.282459 L 8.040912,7.24136 C 7.785354,6.9192976 7.839156,6.4485335 8.161965,6.1929759 8.484775,5.9374182 8.954792,5.9919671 9.211097,6.3140295 Z"
       style="clip-rule:evenodd;fill:url(#_Linear1-2-2);fill-rule:evenodd;stroke-width:0.747245;stroke-linejoin:round;stroke-miterlimit:2"
       id="path1-4-2" /><rect
       y="-2.6645353e-15"
       x="0"
       height="22"
       width="22"
       id="rect4170"
       style="opacity:1;fill:none;fill-opacity:0.59905659;stroke:none" /></g><g
     transform="translate(-22,22)"
     id="software-updates-additional"><path
       d="m 11,3 c 4.415468,0 8,3.584532 8,8 0,4.415468 -3.584532,8 -8,8 C 6.584532,19 3,15.415468 3,11 3,6.584532 6.584532,3 11,3 Z m 0,0.7472445 c 4.002989,0 7.252756,3.2497665 7.252756,7.2527555 0,4.002989 -3.249767,7.252756 -7.252756,7.252756 C 6.997011,18.252756 3.7472445,15.002989 3.7472445,11 3.7472445,6.997011 6.997011,3.7472445 11,3.7472445 Z m 0,9.8307495 3.53073,-4.454325 c 0.343733,-0.4334019 0.975902,-0.5066318 1.409304,-0.1621521 0.434149,0.3437321 0.507379,0.9751541 0.162899,1.4093031 l -4.311601,5.439193 C 11.592565,16.061087 11.297403,16.191108 11,16.188866 c -0.298151,0.0022 -0.592565,-0.127779 -0.791332,-0.378853 L 5.897067,10.371567 C 5.552587,9.937418 5.625817,9.305249 6.059966,8.9615169 6.493368,8.6177844 7.125537,8.6910144 7.469269,9.124416 Z m 0,-5.0065388 1.788903,-2.2574257 c 0.255558,-0.3220624 0.725575,-0.3766113 1.048385,-0.1210536 0.322809,0.2555576 0.377358,0.7263217 0.121053,1.0483841 l -2.369512,2.989725 C 11.440874,10.417897 11.221184,10.514291 11,10.513544 c -0.221932,7.47e-4 -0.441622,-0.09565 -0.588829,-0.282459 L 8.040912,7.24136 C 7.785354,6.9192976 7.839156,6.4485335 8.161965,6.1929759 8.484775,5.9374182 8.954792,5.9919671 9.211097,6.3140295 Z"
       style="clip-rule:evenodd;fill:url(#_Linear1-2-1);fill-rule:evenodd;stroke-width:0.747245;stroke-linejoin:round;stroke-miterlimit:2"
       id="path1-4-7" /><rect
       style="opacity:1;fill:none;fill-opacity:0.59905659;stroke:none"
       id="rect4192"
       width="22"
       height="22"
       x="0"
       y="-2.6645353e-15" /></g></svg>
