<?xml version="1.0" encoding="UTF-8" standalone="no"?>
<svg
   id="svg2"
   version="1.1"
   viewBox="0 0 54 128"
   sodipodi:docname="system.svg"
   xml:space="preserve"
   inkscape:version="1.3 (0e150ed6c4, 2023-07-21)"
   xmlns:inkscape="http://www.inkscape.org/namespaces/inkscape"
   xmlns:sodipodi="http://sodipodi.sourceforge.net/DTD/sodipodi-0.dtd"
   xmlns="http://www.w3.org/2000/svg"
   xmlns:svg="http://www.w3.org/2000/svg"><defs
     id="defs1"><inkscape:path-effect
       effect="fillet_chamfer"
       id="path-effect21"
       is_visible="true"
       lpeversion="1"
       nodesatellites_param="F,0,1,1,0,1.8034483,0,1 @ F,0,1,1,0,1.8034483,0,1 @ F,0,0,1,0,1.8034483,0,1 @ F,0,1,1,0,1.8034483,0,1"
       radius="0"
       unit="px"
       method="auto"
       mode="F"
       chamfer_steps="1"
       flexible="false"
       use_knot_distance="true"
       apply_no_radius="true"
       apply_with_radius="true"
       only_selected="false"
       hide_knots="false" /><inkscape:path-effect
       effect="fillet_chamfer"
       id="path-effect20"
       is_visible="true"
       lpeversion="1"
       nodesatellites_param="F,0,1,1,0,2.1817734,0,1 @ F,0,1,1,0,2.1817734,0,1 @ F,0,0,1,0,2.1817734,0,1 @ F,0,1,1,0,2.1817734,0,1"
       radius="0"
       unit="px"
       method="auto"
       mode="F"
       chamfer_steps="1"
       flexible="false"
       use_knot_distance="true"
       apply_no_radius="true"
       apply_with_radius="true"
       only_selected="false"
       hide_knots="false" /><inkscape:path-effect
       effect="fillet_chamfer"
       id="path-effect7"
       is_visible="true"
       lpeversion="1"
       nodesatellites_param="F,0,0,1,0,3.5834417,0,1 @ F,0,0,1,0,3.5834417,0,1 @ F,0,0,1,0,3.5834417,0,1 @ F,0,0,1,0,0,0,1 @ F,0,0,1,0,0,0,1 @ F,0,0,1,0,0,0,1 | F,0,0,1,0,2.7808929,0,1 @ F,0,0,1,0,0,0,1 @ F,0,0,1,0,0,0,1 @ F,0,0,1,0,0,0,1 @ F,0,0,1,0,0,0,1 @ F,0,0,1,0,0,0,1 @ F,0,0,1,0,0,0,1 @ F,0,0,1,0,2.7808929,0,1 @ F,0,0,1,0,2.7808929,0,1 | F,0,0,1,0,0,0,1 @ F,0,0,1,0,0,0,1 @ F,0,0,1,0,0,0,1 @ F,0,0,1,0,0,0,1"
       radius="0"
       unit="px"
       method="auto"
       mode="F"
       chamfer_steps="1"
       flexible="false"
       use_knot_distance="true"
       apply_no_radius="true"
       apply_with_radius="true"
       only_selected="false"
       hide_knots="false" /><inkscape:path-effect
       effect="fillet_chamfer"
       id="path-effect5"
       is_visible="true"
       lpeversion="1"
       nodesatellites_param="F,0,0,1,0,0,0,1 @ F,0,0,1,0,0,0,1 @ F,0,0,1,0,0,0,1 @ F,0,0,1,0,0.92030809,0,1 @ F,0,1,1,0,0.92030809,0,1 @ F,0,0,1,0,0,0,1 @ F,0,0,1,0,0,0,1 @ F,0,0,1,0,0,0,1 @ F,0,1,1,0,0.92030809,0,1 @ F,0,1,1,0,0.92030809,0,1"
       radius="0"
       unit="px"
       method="auto"
       mode="F"
       chamfer_steps="1"
       flexible="false"
       use_knot_distance="true"
       apply_no_radius="true"
       apply_with_radius="true"
       only_selected="false"
       hide_knots="false" /><inkscape:path-effect
       effect="fillet_chamfer"
       id="path-effect4"
       is_visible="true"
       lpeversion="1"
       nodesatellites_param="F,0,0,1,0,0,0,1 @ F,0,0,1,0,0,0,1 @ F,0,0,1,0,0,0,1 @ F,0,1,1,0,0.91120089,0,1 @ F,0,1,1,0,0.91120089,0,1 @ F,0,0,1,0,0,0,1 @ F,0,0,1,0,0,0,1 @ F,0,0,1,0,0,0,1 @ F,0,0,1,0,0.91120089,0,1 @ F,0,1,1,0,0.91120089,0,1"
       radius="0"
       unit="px"
       method="auto"
       mode="F"
       chamfer_steps="1"
       flexible="false"
       use_knot_distance="true"
       apply_no_radius="true"
       apply_with_radius="true"
       only_selected="false"
       hide_knots="false" /><inkscape:path-effect
       effect="fillet_chamfer"
       id="path-effect3"
       is_visible="true"
       lpeversion="1"
       nodesatellites_param="F,0,0,1,0,0,0,1 @ F,0,0,1,0,0,0,1 @ F,0,0,1,0,0,0,1 @ F,0,0,1,0,1.3450676,0,1 @ F,0,1,1,0,1.3450676,0,1 @ F,0,0,1,0,0,0,1 @ F,0,0,1,0,0,0,1 @ F,0,0,1,0,0,0,1 @ F,0,1,1,0,1.3450676,0,1 @ F,0,1,1,0,1.3450676,0,1"
       radius="0"
       unit="px"
       method="auto"
       mode="F"
       chamfer_steps="1"
       flexible="false"
       use_knot_distance="true"
       apply_no_radius="true"
       apply_with_radius="true"
       only_selected="false"
       hide_knots="false" /><inkscape:path-effect
       effect="fillet_chamfer"
       id="path-effect2"
       is_visible="true"
       lpeversion="1"
       nodesatellites_param="F,0,0,1,0,0.62942014,0,1 @ F,0,0,1,0,0,0,1 @ F,0,0,1,0,0.83434625,0,1 @ F,0,0,1,0,0,0,1 @ F,0,0,1,0,0.62942014,0,1 @ F,0,0,1,0,0.62942014,0,1 @ F,0,0,1,0,0,0,1 @ F,0,0,1,0,0.62942014,0,1"
       radius="0"
       unit="px"
       method="auto"
       mode="F"
       chamfer_steps="1"
       flexible="false"
       use_knot_distance="true"
       apply_no_radius="true"
       apply_with_radius="true"
       only_selected="false"
       hide_knots="false" /><style
       id="current-color-scheme-0"
       type="text/css">&#10;   .ColorScheme-Text { color:#dfdfdf; } .ColorScheme-Highlight { color:#4285f4; } .ColorScheme-NeutralText { color:#ff9800; } .ColorScheme-PositiveText { color:#4caf50; } .ColorScheme-NegativeText { color:#f44336; }&#10;  </style><style
       id="current-color-scheme-4"
       type="text/css">&#10;   .ColorScheme-Text { color:#dfdfdf; } .ColorScheme-Highlight { color:#4285f4; } .ColorScheme-NeutralText { color:#ff9800; } .ColorScheme-PositiveText { color:#4caf50; } .ColorScheme-NegativeText { color:#f44336; }&#10;  </style><inkscape:path-effect
       effect="fillet_chamfer"
       id="path-effect7-8"
       is_visible="true"
       lpeversion="1"
       nodesatellites_param="F,0,0,1,0,3.5834417,0,1 @ F,0,0,1,0,3.5834417,0,1 @ F,0,0,1,0,3.5834417,0,1 @ F,0,0,1,0,0,0,1 @ F,0,0,1,0,0,0,1 @ F,0,0,1,0,0,0,1 | F,0,0,1,0,2.7808929,0,1 @ F,0,0,1,0,0,0,1 @ F,0,0,1,0,0,0,1 @ F,0,0,1,0,0,0,1 @ F,0,0,1,0,0,0,1 @ F,0,0,1,0,0,0,1 @ F,0,0,1,0,0,0,1 @ F,0,0,1,0,2.7808929,0,1 @ F,0,0,1,0,2.7808929,0,1 | F,0,0,1,0,0,0,1 @ F,0,0,1,0,0,0,1 @ F,0,0,1,0,0,0,1 @ F,0,0,1,0,0,0,1"
       radius="0"
       unit="px"
       method="auto"
       mode="F"
       chamfer_steps="1"
       flexible="false"
       use_knot_distance="true"
       apply_no_radius="true"
       apply_with_radius="true"
       only_selected="false"
       hide_knots="false" /><inkscape:path-effect
       effect="fillet_chamfer"
       id="path-effect21-6"
       is_visible="true"
       lpeversion="1"
       nodesatellites_param="F,0,1,1,0,1.8034483,0,1 @ F,0,1,1,0,1.8034483,0,1 @ F,0,0,1,0,1.8034483,0,1 @ F,0,1,1,0,1.8034483,0,1"
       radius="0"
       unit="px"
       method="auto"
       mode="F"
       chamfer_steps="1"
       flexible="false"
       use_knot_distance="true"
       apply_no_radius="true"
       apply_with_radius="true"
       only_selected="false"
       hide_knots="false" /><inkscape:path-effect
       effect="fillet_chamfer"
       id="path-effect20-9"
       is_visible="true"
       lpeversion="1"
       nodesatellites_param="F,0,1,1,0,2.1817734,0,1 @ F,0,1,1,0,2.1817734,0,1 @ F,0,0,1,0,2.1817734,0,1 @ F,0,1,1,0,2.1817734,0,1"
       radius="0"
       unit="px"
       method="auto"
       mode="F"
       chamfer_steps="1"
       flexible="false"
       use_knot_distance="true"
       apply_no_radius="true"
       apply_with_radius="true"
       only_selected="false"
       hide_knots="false" /></defs><sodipodi:namedview
     id="namedview1"
     pagecolor="#ffffff"
     bordercolor="#000000"
     borderopacity="0.25"
     inkscape:showpageshadow="2"
     inkscape:pageopacity="0.0"
     inkscape:pagecheckerboard="0"
     inkscape:deskcolor="#d1d1d1"
     inkscape:zoom="3.9648437"
     inkscape:cx="75.538916"
     inkscape:cy="38.210837"
     inkscape:window-width="2194"
     inkscape:window-height="1211"
     inkscape:window-x="-8"
     inkscape:window-y="-8"
     inkscape:window-maximized="1"
     inkscape:current-layer="svg2" /><style
     id="current-color-scheme"
     type="text/css">&#10;        .ColorScheme-Text {&#10;            color:#232629;&#10;        }&#10;    </style><g
     id="22-22-system-log-out"><path
       id="path9"
       d="m0 10v22h22v-22z"
       fill="none" /><path
       d="M 16.455336,16.841502 22,21 16.455336,25.158498 v -3.102239 h -5.544664 v -2.112518 h 5.544664 z"
       fill="#dfdfdf"
       id="path1-8"
       style="clip-rule:evenodd;fill-rule:evenodd;stroke-width:1.38617;stroke-linejoin:round;stroke-miterlimit:2" /><path
       d="m 10.910672,12.683004 c -4.5632577,0 -8.3169952,3.753738 -8.3169952,8.316996 0,4.563258 3.7537375,8.316996 8.3169952,8.316996 1.89577,-0.0012 3.725906,-0.651569 5.192243,-1.825859 0.396531,-0.317555 0.407828,-0.918578 0.06579,-1.294548 l -0.0048,-0.0053 c -0.342034,-0.37597 -0.907502,-0.382681 -1.314264,-0.07864 -1.095649,0.818954 -2.432936,1.269719 -3.815627,1.271986 -3.502841,0 -6.3846801,-2.88184 -6.3846801,-6.384681 0,-3.502841 2.8818391,-6.384681 6.3846801,-6.384681 1.382692,0.0023 2.719979,0.453041 3.815629,1.271989 0.406761,0.304036 0.972228,0.297324 1.314262,-0.07865 l 0.0048,-0.0053 c 0.342034,-0.37597 0.330738,-0.976993 -0.06579,-1.294548 -1.466338,-1.174293 -3.296474,-1.824667 -5.192245,-1.825859 z"
       fill="#dfdfdf"
       id="path2-7"
       style="clip-rule:evenodd;fill-rule:evenodd;stroke-width:1.38617;stroke-linejoin:round;stroke-miterlimit:2"
       inkscape:path-effect="#path-effect5"
       inkscape:original-d="m 10.910672,12.683004 c -4.5632577,0 -8.3169952,3.753738 -8.3169952,8.316996 0,4.563258 3.7537375,8.316996 8.3169952,8.316996 2.204003,-0.0014 4.319293,-0.880215 5.877344,-2.439653 l -1.243391,-1.366759 c -1.196261,1.197648 -2.819462,1.871324 -4.510584,1.874097 -3.502841,0 -6.3846801,-2.88184 -6.3846801,-6.384681 0,-3.502841 2.8818391,-6.384681 6.3846801,-6.384681 1.691122,0.0028 3.314323,0.676449 4.510584,1.874097 l 1.243391,-1.366759 C 15.229965,13.563219 13.114675,12.68439 10.910672,12.683004 Z" /></g><g
     id="system-log-out"><path
       d="M 45.911271,10.026619 53.875779,16 45.911271,21.973382 V 17.51724 h -7.96451 v -3.03448 h 7.96451 z"
       fill="#dfdfdf"
       id="path1-8-8"
       style="clip-rule:evenodd;fill-rule:evenodd;stroke-width:1.99113;stroke-linejoin:round;stroke-miterlimit:2" /><path
       d="M 37.946761,4.0532372 C 31.391972,4.0532372 26,9.4452102 26,16 c 0,6.55479 5.391972,11.946763 11.946761,11.946763 2.715363,-0.0017 5.336983,-0.930602 7.440229,-2.608285 0.580432,-0.462989 0.596905,-1.341554 0.09701,-1.89105 -0.486515,-0.534787 -1.302085,-0.532449 -1.897683,-0.0896 -1.570358,1.167623 -3.483995,1.810059 -5.462343,1.813303 -5.031579,0 -9.171131,-4.139555 -9.171131,-9.171132 0,-5.031577 4.139552,-9.1711321 9.171131,-9.1711321 1.978347,0.00327 3.891983,0.6456908 5.46234,1.813304 0.5956,0.4428485 1.422033,0.4332466 1.921929,-0.1162488 C 45.994757,7.9911365 45.967423,7.1245117 45.386992,6.6615225 43.283745,4.9838378 40.662124,4.0549448 37.946761,4.0532372 Z"
       fill="#dfdfdf"
       id="path2-7-1"
       style="clip-rule:evenodd;fill-rule:evenodd;stroke-width:1.99113;stroke-linejoin:round;stroke-miterlimit:2"
       inkscape:path-effect="#path-effect3"
       inkscape:original-d="M 37.946761,4.0532372 C 31.391972,4.0532372 26,9.4452102 26,16 c 0,6.55479 5.391972,11.946763 11.946761,11.946763 3.165891,-0.002 6.204352,-1.264365 8.44238,-3.504385 L 44.6031,22.479127 c -1.718343,1.720335 -4.049953,2.688022 -6.479127,2.692005 -5.031579,0 -9.171131,-4.139555 -9.171131,-9.171132 0,-5.031577 4.139552,-9.1711321 9.171131,-9.1711321 2.429174,0.00402 4.760784,0.9716701 6.479127,2.6920047 L 46.389141,7.5576222 C 44.151113,5.3176024 41.112652,4.0552281 37.946761,4.0532372 Z" /><path
       id="path14"
       d="m22 0v32h32v-32z"
       fill="none" /></g><g
     id="22-22-system-lock-screen"
     transform="translate(54 96)"><path
       id="path19"
       d="m0 10v22h22v-22z"
       fill="none" /><path
       style="color:#dfdfdf;clip-rule:evenodd;fill:currentColor;fill-opacity:0.3;fill-rule:evenodd;stroke-width:1.07911;stroke-linejoin:round;stroke-miterlimit:2"
       class="ColorScheme-Text"
       d="m 17.107761,21.955572 c 0,-0.512577 -0.415457,-0.929114 -0.928034,-0.929114 H 5.8202732 c -0.511498,0 -0.9280346,0.416537 -0.9280346,0.929114 v 5.708491 c 0,0.511497 0.4165366,0.928033 0.9280346,0.928033 H 16.179727 c 0.512577,0 0.928034,-0.416536 0.928034,-0.928033 z"
       id="path1-5-8" /><path
       style="color:#dfdfdf;clip-rule:evenodd;fill:currentColor;fill-rule:evenodd;stroke-width:1.07911;stroke-linejoin:round;stroke-miterlimit:2"
       class="ColorScheme-Text"
       d="m 11,13.892464 c -2.391307,0 -4.3164391,1.925132 -4.3164391,4.316439 v 2.15822 H 5.6044516 c -0.5978268,0 -1.0791103,0.481282 -1.0791103,1.079109 v 6.474659 C 4.5253413,28.518717 5.0066248,29 5.6044516,29 H 16.395548 c 0.597827,0 1.079111,-0.481283 1.079111,-1.079109 v -6.474659 c 0,-0.597827 -0.481284,-1.079109 -1.079111,-1.079109 h -1.079109 v -2.15822 c 0,-2.391307 -1.925132,-4.316439 -4.316439,-4.316439 z m 5.661009,7.705923 c 0,-0.181291 -0.147837,-0.329129 -0.329128,-0.329129 H 5.6681186 c -0.1812902,0 -0.3291279,0.147838 -0.3291279,0.329129 v 6.271785 c 0,0.181291 0.1478377,0.329128 0.3291279,0.329128 H 16.331881 c 0.181291,0 0.329128,-0.147837 0.329128,-0.329128 z M 11,16.050684 c 1.195653,0 2.15822,0.962566 2.15822,2.158219 v 2.15822 H 8.8417804 v -2.15822 c 0,-1.195653 0.9625661,-2.158219 2.1582196,-2.158219 z"
       id="path2-4-1" /></g><g
     id="system-lock-screen"
     transform="translate(54 96)"><path
       id="path24"
       d="m22 0v32h32v-32z"
       fill="none" /><path
       style="clip-rule:evenodd;fill:#dfdfdf;fill-opacity:0.25;fill-rule:evenodd;stroke-width:1.14713;stroke-linejoin:round;stroke-miterlimit:2"
       class="ColorScheme-Text"
       d="m 44.492736,16.047685 c 0,-0.544885 -0.441644,-0.987676 -0.986529,-0.987676 H 32.493793 c -0.543738,0 -0.986529,0.442791 -0.986529,0.987676 v 6.068299 c 0,0.543737 0.442791,0.986528 0.986529,0.986528 h 11.012414 c 0.544885,0 0.986529,-0.442791 0.986529,-0.986528 z"
       id="path1-5" /><path
       style="clip-rule:evenodd;fill:#dfdfdf;fill-rule:evenodd;stroke-width:1.14713;stroke-linejoin:round;stroke-miterlimit:2;fill-opacity:1"
       class="ColorScheme-Text"
       d="m 38,7.4763563 c -2.542032,0 -4.588506,2.0464741 -4.588506,4.5885057 v 2.294253 h -1.147126 c -0.635508,0 -1.147127,0.511618 -1.147127,1.147126 V 22.389 c 0,0.635508 0.511619,1.147126 1.147127,1.147126 h 11.471264 c 0.635508,0 1.147127,-0.511618 1.147127,-1.147126 v -6.882759 c 0,-0.635508 -0.511619,-1.147126 -1.147127,-1.147126 H 42.588506 V 12.064862 C 42.588506,9.5228304 40.542032,7.4763563 38,7.4763563 Z m 6.017825,8.1916297 c 0,-0.192717 -0.157156,-0.349874 -0.349873,-0.349874 H 32.332048 c -0.192717,0 -0.349873,0.157157 -0.349873,0.349874 v 6.667099 c 0,0.192717 0.157156,0.349873 0.349873,0.349873 h 11.335904 c 0.192717,0 0.349873,-0.157156 0.349873,-0.349873 z M 38,9.7706094 c 1.271016,0 2.294253,1.0232366 2.294253,2.2942526 v 2.294253 h -4.588506 v -2.294253 c 0,-1.271016 1.023237,-2.2942526 2.294253,-2.2942526 z"
       id="path2-4" /><circle
       style="opacity:0.25;fill:none;fill-opacity:1;stroke:#dfdfdf;stroke-opacity:1;stroke-width:2;stroke-dasharray:none"
       id="path7"
       cx="38"
       cy="16"
       r="12.414306" /></g><g
     id="22-22-system-reboot"
     transform="matrix(0,-1,-1,0,86,96)"><path
       d="m 6.3564265,13.634754 4.4204555,3.696328 -0.0088,-2.57104 c 1.597222,0.0029 3.195903,0.613749 4.417044,1.834889 2.250087,2.250087 2.433967,5.779021 0.544304,8.22228 0,0 -0.477795,0.647004 0.160407,1.285205 0.406395,0.406394 1.063669,0.408351 1.469574,0.0025 0.0538,-0.0538 0.101232,-0.113948 0.143289,-0.179479 2.383592,-3.250214 2.098969,-7.848197 -0.85045,-10.797615 -1.628023,-1.628025 -3.756828,-2.446194 -5.884653,-2.451573 l -0.0098,-2.7187265 z m 8.8027745,14.671289 -4.289908,-3.755483 -0.121752,2.630195 c -1.5967255,-0.0024 -3.1958965,-0.613748 -4.4170375,-1.834889 -2.250087,-2.250087 -2.433966,-5.779021 -0.544304,-8.222279 0,0 0.477795,-0.647004 -0.160408,-1.285206 -0.406393,-0.406394 -1.063668,-0.408351 -1.469573,-0.0025 -0.0538,0.0538 -0.101231,0.113952 -0.143294,0.179479 -2.383592,3.250245 -2.098968,7.848227 0.85045,10.797645 1.628025,1.628024 3.756829,2.446193 5.8846555,2.451572 l -0.120772,2.777881 z"
       fill="#dfdfdf"
       id="path1-4-7"
       style="clip-rule:evenodd;fill-rule:evenodd;stroke-width:0.691611;stroke-linejoin:round;stroke-miterlimit:2"
       sodipodi:nodetypes="cccscsscsccccccscsscsccc" /><path
       id="path29"
       d="m0 10v22h22v-22z"
       fill="none" /></g><g
     id="system-reboot"
     transform="matrix(0,-1,-1,0,108,118)"><path
       id="path34"
       d="m22 0v32h32v-32z"
       fill="none" /><path
       d="M 31.622611,5.3281543 38.02763,10.68395 38.014887,6.9586399 c 2.314284,0.00425 4.630694,0.8892919 6.400066,2.6586645 3.260264,3.2602626 3.526697,8.3735126 0.78867,11.9136736 0,0 -0.692301,0.937476 0.232421,1.862198 0.588846,0.588845 1.541203,0.59168 2.12934,0.0036 0.07795,-0.07795 0.14668,-0.165105 0.207618,-0.260056 C 51.226708,18.427321 50.814304,11.765074 46.540743,7.491514 44.181818,5.1325872 41.097286,3.9471014 38.014173,3.9393061 L 38,0 Z m 12.754781,21.2579677 -6.215863,-5.441508 -0.176413,3.811022 c -2.313575,-0.0035 -4.630694,-0.889291 -6.400066,-2.658663 -3.260264,-3.260264 -3.526696,-8.373514 -0.78867,-11.913673 0,0 0.692301,-0.9374774 -0.232422,-1.8622 -0.588844,-0.5888442 -1.541202,-0.59168 -2.129338,-0.00361 -0.07795,0.077953 -0.14668,0.1651108 -0.207627,0.2600553 -3.453705,4.7094217 -3.0413,11.3716687 1.23226,15.6452287 2.358927,2.358926 5.443458,3.544412 8.526572,3.552206 L 37.810832,32 Z"
       fill="#dfdfdf"
       id="path1-4"
       style="clip-rule:evenodd;fill-rule:evenodd;stroke-width:1.00211;stroke-linejoin:round;stroke-miterlimit:2"
       sodipodi:nodetypes="cccscsscsccccccscsscsccc" /></g><g
     id="22-22-system-save-session"
     transform="translate(112 32)"><path
       id="path42-6"
       class="ColorScheme-Text"
       d="M 26,7.5834417 26,24.416558 A 3.5834417,3.5834417 45 0 0 29.583442,28 H 46.416558 A 3.5834417,3.5834417 135 0 0 50,24.416558 V 10 L 44,4 H 32 29.583442 A 3.5834417,3.5834417 135 0 0 26,7.5834417 Z M 29.780893,5 H 32 v 8 H 43 V 5 h 0.585938 L 49,10.414062 V 24.219107 A 2.7808929,2.7808929 135 0 1 46.219107,27 H 29.780893 A 2.7808929,2.7808929 45 0 1 27,24.219107 V 7.7808929 A 2.7808929,2.7808929 135 0 1 29.780893,5 Z M 33,5 h 6 v 7 h -6 z"
       fill="currentColor"
       inkscape:path-effect="#path-effect7-8"
       inkscape:original-d="M 26,4 V 28 H 50 V 10 L 44,4 H 32 Z m 1,1 h 5 v 8 H 43 V 5 h 0.585938 L 49,10.414062 V 27 H 27 Z m 6,0 h 6 v 7 h -6 z"
       sodipodi:nodetypes="cccccccccccccccccccccc"
       style="color:#dfdfdf"
       transform="matrix(0.68769589,0,0,0.68769589,-15.132539,10.245525)" /><rect
       style="fill:#dfdfdf;fill-opacity:0.5;stroke:none;stroke-width:1.80224;stroke-dasharray:none;stroke-opacity:1"
       id="rect7-6"
       width="9.8903046"
       height="6.7980666"
       x="5.9934301"
       y="22.702944"
       ry="0.98208201" /><path
       id="path39"
       d="m0 10v22h22v-22z"
       fill="none" /></g><g
     id="system-save-session"
     transform="translate(112 32)"><path
       id="path42"
       class="ColorScheme-Text"
       d="M 26,7.5834417 26,24.416558 A 3.5834417,3.5834417 45 0 0 29.583442,28 H 46.416558 A 3.5834417,3.5834417 135 0 0 50,24.416558 V 10 L 44,4 H 32 29.583442 A 3.5834417,3.5834417 135 0 0 26,7.5834417 Z M 29.780893,5 H 32 v 8 H 43 V 5 h 0.585938 L 49,10.414062 V 24.219107 A 2.7808929,2.7808929 135 0 1 46.219107,27 H 29.780893 A 2.7808929,2.7808929 45 0 1 27,24.219107 V 7.7808929 A 2.7808929,2.7808929 135 0 1 29.780893,5 Z M 33,5 h 6 v 7 h -6 z"
       fill="currentColor"
       inkscape:path-effect="#path-effect7"
       inkscape:original-d="M 26,4 V 28 H 50 V 10 L 44,4 H 32 Z m 1,1 h 5 v 8 H 43 V 5 h 0.585938 L 49,10.414062 V 27 H 27 Z m 6,0 h 6 v 7 h -6 z"
       sodipodi:nodetypes="cccccccccccccccccccccc"
       style="fill:#dfdfdf;fill-opacity:1" /><rect
       style="opacity:1;fill:#dfdfdf;fill-opacity:0.5;stroke:none;stroke-width:2.6207;stroke-dasharray:none;stroke-opacity:1"
       id="rect7"
       width="14.381799"
       height="9.8852806"
       x="30.719929"
       y="18.114719"
       ry="1.428076" /><path
       id="path44"
       d="m22 0v32h32v-32z"
       fill="none" /></g><g
     id="22-22-system-shutdown"
     transform="translate(0 32)"><path
       id="path49"
       d="m0 10v22h22v-22z"
       fill="none" /><path
       d="m 14.58717,16.057809 c 1.528428,1.110539 2.522672,2.912448 2.522672,4.944388 0,3.372509 -2.737368,6.109877 -6.109877,6.109877 -3.3725092,0 -6.1098774,-2.737368 -6.1098774,-6.109877 0,-2.020439 0.9840212,-3.813402 2.4983916,-4.926496 0.4204454,-0.309264 0.5099019,-0.900955 0.2019161,-1.3214 C 7.2811314,14.333855 6.6881628,14.243121 6.2677173,14.552385 4.2868953,16.009247 3,18.356841 3,21.002197 c 0,4.415316 3.5846489,7.999965 7.999965,7.999965 4.415316,0 7.999965,-3.584649 7.999965,-7.999965 0,-2.660692 -1.300953,-5.019787 -3.300944,-6.474093 -0.421723,-0.306708 -1.013414,-0.213418 -1.320122,0.208305 -0.306708,0.423002 -0.213418,1.014692 0.208306,1.3214 z"
       id="path1"
       style="clip-rule:evenodd;fill:#dfdfdf;fill-opacity:1;fill-rule:evenodd;stroke-width:1.27795;stroke-linejoin:round;stroke-miterlimit:2" /><path
       d="m 10.999969,11.484457 c -0.954762,0 -1.7237678,0.769005 -1.7237678,1.723768 v 6.49498 c 0,0.954762 0.7690058,1.723767 1.7237678,1.723767 0.954762,0 1.723768,-0.769005 1.723768,-1.723767 v -6.49498 c 0,-0.954763 -0.769006,-1.723768 -1.723768,-1.723768 z"
       fill-rule="nonzero"
       id="path2"
       style="clip-rule:evenodd;fill:#dfdfdf;fill-opacity:1;fill-rule:evenodd;stroke-width:1.299;stroke-linejoin:round;stroke-miterlimit:2" /></g><g
     id="system-shutdown"
     transform="translate(0 32)"><path
       d="m 43.420602,8.4398731 c 2.309598,1.6781279 3.811993,4.4009809 3.811993,7.4714319 0,5.096177 -4.136419,9.232596 -9.232595,9.232596 -5.096176,0 -9.232595,-4.136419 -9.232595,-9.232596 0,-3.053072 1.486947,-5.762406 3.775302,-7.4443955 C 33.17804,7.9995827 33.313217,7.1054823 32.847821,6.4701506 32.380494,5.8348174 31.484464,5.6977098 30.849131,6.1650367 27.855924,8.3664913 25.911305,11.913925 25.911305,15.911305 25.911305,22.583261 31.328045,28 38,28 c 6.671955,0 12.088695,-5.416739 12.088695,-12.088695 0,-4.020554 -1.965862,-7.5853669 -4.988035,-9.7829592 -0.637263,-0.4634645 -1.531363,-0.3224946 -1.994828,0.3147683 -0.463464,0.6391956 -0.322494,1.5332945 0.31477,1.996759 z"
       id="path1-3"
       style="clip-rule:evenodd;fill:#dfdfdf;fill-opacity:1;fill-rule:evenodd;stroke-width:1.9311;stroke-linejoin:round;stroke-miterlimit:2" /><path
       d="m 38.000006,1.5291106 c -1.442735,0 -2.604775,1.1620385 -2.604775,2.6047746 v 9.8145218 c 0,1.442735 1.16204,2.604773 2.604775,2.604773 1.442735,0 2.604775,-1.162038 2.604775,-2.604773 V 4.1338852 c 0,-1.4427361 -1.16204,-2.6047746 -2.604775,-2.6047746 z"
       fill-rule="nonzero"
       id="path2-71"
       style="clip-rule:evenodd;fill:#dfdfdf;fill-opacity:1;fill-rule:evenodd;stroke-width:1.96291;stroke-linejoin:round;stroke-miterlimit:2" /><path
       id="path54"
       d="m22 0v32h32v-32z"
       fill="none" /></g><g
     id="22-22-system-suspend-hibernate"
     transform="translate(0.042458,63.0193)"><path
       id="path49-1"
       d="M 0,10 V 32 H 22 V 10 Z"
       fill="none"
       style="opacity:1" /><g
       id="g7"
       transform="translate(0.13428895)"><path
         d="m 10.865711,12.700588 c -4.5536106,0 -8.2994119,3.745801 -8.2994119,8.299412 0,4.553611 3.7458013,8.299412 8.2994119,8.299412 4.553611,0 8.299412,-3.745801 8.299412,-8.299412 0,-4.553611 -3.745801,-8.299412 -8.299412,-8.299412 z m 0,1.571355 c 3.690472,0 6.728057,3.037585 6.728057,6.728057 0,3.690472 -3.037585,6.728057 -6.728057,6.728057 -3.6904719,0 -6.7280565,-3.037585 -6.7280565,-6.728057 0,-3.690472 3.0375846,-6.728057 6.7280565,-6.728057 z"
         fill="#dfdfdf"
         id="path1-84-0-3"
         style="clip-rule:evenodd;fill-rule:evenodd;stroke-width:1.38323;stroke-linejoin:round;stroke-miterlimit:2" /><ellipse
         style="fill:#dfdfdf;fill-opacity:0.25;stroke-width:0.686543"
         id="path6-0"
         cx="8.5185757"
         cy="18.590475"
         rx="1.8060046"
         ry="1.7229836" /><ellipse
         style="fill:#dfdfdf;fill-opacity:0.25;stroke-width:0.686543"
         id="path6-2-0"
         cx="13.766128"
         cy="20.140299"
         rx="1.8060046"
         ry="1.7229836" /><ellipse
         style="fill:#dfdfdf;fill-opacity:1;stroke-width:0.686543"
         id="path6-2-4-7"
         cx="9.6292791"
         cy="23.759424"
         rx="1.8060046"
         ry="1.7229836" /></g></g><g
     id="system-suspend-hibernate"
     transform="translate(0 64)"><path
       id="path64"
       d="m22 0v32h32v-32z"
       fill="none" /><path
       d="M 38,3.911305 C 31.367336,3.911305 25.911305,9.367336 25.911305,16 25.911305,22.632664 31.367336,28.088695 38,28.088695 44.632664,28.088695 50.088695,22.632664 50.088695,16 50.088695,9.367336 44.632664,3.911305 38,3.911305 Z m 0,2.288793 c 5.37544,0 9.799902,4.424462 9.799902,9.799902 0,5.37544 -4.424462,9.799902 -9.799902,9.799902 -5.37544,0 -9.799902,-4.424462 -9.799902,-9.799902 0,-5.37544 4.424462,-9.799902 9.799902,-9.799902 z"
       fill="#dfdfdf"
       id="path1-84-0"
       style="clip-rule:evenodd;fill-rule:evenodd;stroke-width:2.01478;stroke-linejoin:round;stroke-miterlimit:2" /><ellipse
       style="opacity:1;fill:#dfdfdf;fill-opacity:0.25"
       id="path6"
       cx="34.58123"
       cy="12.49035"
       rx="2.6305766"
       ry="2.5096505" /><ellipse
       style="fill:#dfdfdf;fill-opacity:0.25"
       id="path6-2"
       cx="42.224667"
       cy="14.747784"
       rx="2.6305766"
       ry="2.5096505" /><ellipse
       style="fill:#dfdfdf;fill-opacity:1"
       id="path6-2-4"
       cx="36.199051"
       cy="20.0193"
       rx="2.6305766"
       ry="2.5096505" /></g><g
     id="22-22-system-suspend"
     transform="translate(0 96)"><path
       id="path69"
       d="m0 10v22h21.999999v-22z"
       fill="none" /><g
       id="g56"
       class="ColorScheme-Text"
       fill="currentColor"><path
         d="m 11,12.834877 c -4.4799313,0 -8.1651236,3.685192 -8.1651236,8.165123 0,4.479931 3.6851923,8.165123 8.1651236,8.165123 4.47993,0 8.165123,-3.685192 8.165123,-8.165123 0,-4.479931 -3.685193,-8.165123 -8.165123,-8.165123 z m 0,1.54593 c 3.630758,0 6.619193,2.988435 6.619193,6.619193 0,3.630758 -2.988435,6.619193 -6.619193,6.619193 -3.6307587,0 -6.6191936,-2.988435 -6.6191936,-6.619193 0,-3.630758 2.9884349,-6.619193 6.6191936,-6.619193 z"
         fill="#dfdfdf"
         id="path1-84-4"
         style="clip-rule:evenodd;fill-rule:evenodd;stroke-width:1.36085;stroke-linejoin:round;stroke-miterlimit:2" /><path
         d="m 8.2782919,19.639146 h 5.4434161 c 0.753912,0 1.360853,0.606941 1.360853,1.360854 0,0.753913 -0.606941,1.360854 -1.360853,1.360854 H 8.2782919 c -0.7539134,0 -1.3608536,-0.606941 -1.3608536,-1.360854 0,-0.753913 0.6069402,-1.360854 1.3608536,-1.360854 z"
         fill="#dfdfdf"
         id="path2-9-7"
         style="clip-rule:evenodd;fill-rule:evenodd;stroke-width:1.36085;stroke-linejoin:round;stroke-miterlimit:2" /></g></g><g
     id="system-suspend"
     transform="translate(0 96)"><path
       id="path74"
       d="m22 0v32h32v-32z"
       fill="none" /><g
       id="g64"
       class="ColorScheme-Text"
       fill="currentColor"><path
         d="m -6.834461,19.229665 c -6.632664,0 -12.088695,5.456031 -12.088695,12.088695 0,6.632664 5.456031,12.088695 12.088695,12.088695 6.63266399,0 12.088695,-5.456031 12.088695,-12.088695 0,-6.632664 -5.45603101,-12.088695 -12.088695,-12.088695 z m 0,2.288793 c 5.3754397,0 9.7999021,4.424462 9.7999021,9.799902 0,5.37544 -4.4244624,9.799902 -9.7999021,9.799902 -5.37544,0 -9.799902,-4.424462 -9.799902,-9.799902 0,-5.37544 4.424462,-9.799902 9.799902,-9.799902 z"
         fill="#dfdfdf"
         id="path1-84"
         style="clip-rule:evenodd;fill-rule:evenodd;stroke-linejoin:round;stroke-miterlimit:2;stroke-width:2.01478"
         transform="translate(44.834461,-15.31836)" /><path
         d="m -10.864026,29.303578 h 8.05913 c 1.1161895,0 2.0147825,0.898592 2.0147825,2.014782 0,1.11619 -0.898593,2.014783 -2.0147825,2.014783 h -8.05913 c -1.11619,0 -2.014782,-0.898593 -2.014782,-2.014783 0,-1.11619 0.898592,-2.014782 2.014782,-2.014782 z"
         fill="#dfdfdf"
         id="path2-9"
         style="clip-rule:evenodd;fill-rule:evenodd;stroke-linejoin:round;stroke-miterlimit:2;stroke-width:2.01478"
         transform="translate(44.834461,-15.31836)" /></g></g><g
     id="22-22-system-switch-user"
     transform="translate(54)"><path
       style="color:#dfdfdf;clip-rule:evenodd;fill:currentColor;fill-rule:evenodd;stroke-width:1.02536;stroke-linejoin:round;stroke-miterlimit:2"
       class="ColorScheme-Text"
       d="m 9.7010125,18.166421 c 1.3729545,0 2.6608055,1.278623 2.4803415,2.833066 -0.180463,1.558545 -1.107387,2.834092 -2.4803415,2.834092 -1.3719298,0 -2.2496367,-1.218127 -2.479317,-2.834092 -0.221478,-1.548292 1.1073872,-2.833066 2.479317,-2.833066 z"
       id="path1-0-3" /><path
       style="color:#dfdfdf;clip-rule:evenodd;fill:currentColor;fill-opacity:0.5;fill-rule:evenodd;stroke-width:1.02536;stroke-linejoin:round;stroke-miterlimit:2"
       class="ColorScheme-Text"
       d="m 9.6723028,26.708684 c 0,0 0.7536382,-1.62622 0.8951372,-2.0015 1.44473,0.07587 2.548016,0.380407 3.353948,0.724928 0.924872,0.395788 1.449857,2.287575 1.705171,3.572349 0.07997,0.278897 0.02462,0.579328 -0.149703,0.811058 -0.17431,0.231731 -0.448081,0.368105 -0.738258,0.368105 -2.30193,0.03999 -7.6594272,0.03999 -10.0413358,0.03999 -0.3127343,0 -0.6070117,-0.151753 -0.7874747,-0.408092 C 3.7293238,29.559181 3.6842085,29.232092 3.78982,28.936788 4.1579239,27.69713 4.7741642,25.916082 5.6241865,25.472102 6.3726982,25.080414 7.3857528,24.825101 8.7012871,24.729743 Z"
       id="path2-5-2" /><path
       style="color:#dfdfdf;clip-rule:evenodd;fill:currentColor;fill-opacity:0.3;fill-rule:evenodd;stroke-width:1.02536;stroke-linejoin:round;stroke-miterlimit:2"
       class="ColorScheme-Text"
       d="m 13.391277,24.687701 c 0.232757,-0.508577 0.552668,-1.215049 0.639824,-1.445755 1.444731,0.07587 2.548015,0.380408 3.353947,0.724929 0.924874,0.395788 1.449858,2.287575 1.705171,3.572349 0.07999,0.278897 0.02462,0.579328 -0.149702,0.811058 -0.174311,0.231731 -0.448082,0.368104 -0.738258,0.368104 -0.553693,0.0092 -1.283749,0.0164 -2.106087,0.02255 -0.164056,-0.783373 -0.421421,-1.739008 -0.789526,-2.479317 -0.313758,-0.628545 -0.720826,-1.103285 -1.183263,-1.30118 -0.222503,-0.09434 -0.465513,-0.186615 -0.732106,-0.272745 z m -0.61419,-0.175336 c -0.624442,-0.156879 -1.349372,-0.273771 -2.182988,-0.317861 h -0.01846 c 0.477817,-0.173286 0.894112,-0.486019 1.228379,-0.89924 0.117916,-0.01128 0.237883,-0.02153 0.360926,-0.03077 z m -1.77592,-6.538711 c 0.453209,-0.763892 1.300154,-1.27247 2.163506,-1.27247 1.372955,0 2.660805,1.278622 2.480342,2.833066 -0.180462,1.558545 -1.107387,2.83409 -2.480342,2.83409 -0.27172,0 -0.524984,-0.04819 -0.756715,-0.137398 0.138423,-0.362976 0.234808,-0.75774 0.283,-1.17301 0.156879,-1.358599 -0.619317,-2.539812 -1.689791,-3.084278 z"
       id="path3-6" /><path
       id="rect6-0"
       style="opacity:0.25;fill:#dfdfdf;fill-opacity:1;stroke-width:0.760299"
       d="m 5.6678512,12.05772 -2.949127,2.236347 2.949127,2.407117 v -1.530991 h 9.8155748 v 1.530991 l 2.949127,-2.407117 -2.949127,-2.236347 v 1.530992 H 5.6678512 Z" /><path
       id="path79"
       d="m0 10v22h22v-22z"
       fill="none" /></g><g
     id="system-switch-user"
     transform="translate(54)"><path
       id="path84"
       d="m22 0v32h32v-32z"
       fill="none" /><path
       style="clip-rule:evenodd;fill:#dfdfdf;fill-rule:evenodd;stroke-width:1.34863;stroke-linejoin:round;stroke-miterlimit:2;fill-opacity:1"
       class="ColorScheme-Text"
       d="m 36.003413,12.013697 c 1.80581,0 3.499685,1.681737 3.262326,3.726254 -0.237358,2.049911 -1.456516,3.727602 -3.262326,3.727602 -1.804461,0 -2.958885,-1.602168 -3.260977,-3.727602 -0.291304,-2.036426 1.456516,-3.726254 3.260977,-3.726254 z"
       id="path1-0" /><path
       style="clip-rule:evenodd;fill:#dfdfdf;fill-opacity:0.5;fill-rule:evenodd;stroke-width:1.34863;stroke-linejoin:round;stroke-miterlimit:2"
       class="ColorScheme-Text"
       d="m 35.965652,23.2491 c 0,0 0.99124,-2.138921 1.17735,-2.632518 1.900214,0.0998 3.351336,0.50034 4.411356,0.953479 1.21646,0.520569 1.906957,3.008784 2.242765,4.698613 0.105193,0.366826 0.03237,0.761973 -0.1969,1.066763 -0.229266,0.304789 -0.589349,0.484157 -0.97101,0.484157 -3.027666,0.0526 -10.074236,0.0526 -13.207095,0.0526 -0.411331,0 -0.798386,-0.199597 -1.035744,-0.536753 -0.237359,-0.337157 -0.296698,-0.767368 -0.15779,-1.155773 0.484157,-1.630488 1.294681,-3.973052 2.412692,-4.557007 0.984497,-0.515175 2.31694,-0.850983 4.047227,-0.976405 z"
       id="path2-5" /><path
       style="clip-rule:evenodd;fill:#dfdfdf;fill-opacity:0.5;fill-rule:evenodd;stroke-width:1.34863;stroke-linejoin:round;stroke-miterlimit:2"
       class="ColorScheme-Text"
       d="m 40.857118,20.590958 c 0.306138,-0.668918 0.726909,-1.598121 0.841543,-1.901562 1.900214,0.0998 3.351335,0.50034 4.411355,0.953478 1.216461,0.52057 1.906957,3.008785 2.242765,4.698613 0.105193,0.366826 0.03237,0.761974 -0.196899,1.066763 -0.229267,0.30479 -0.58935,0.484157 -0.971011,0.484157 -0.728258,0.01214 -1.68848,0.02158 -2.770078,0.02967 -0.21578,-1.03035 -0.554285,-2.28727 -1.038442,-3.260978 -0.412679,-0.826708 -0.948084,-1.451121 -1.556314,-1.711406 -0.292652,-0.124074 -0.612276,-0.24545 -0.962919,-0.358735 z M 40.049291,20.360343 C 39.227978,20.154004 38.274499,20.00026 37.178066,19.942269 h -0.02428 c 0.62846,-0.227918 1.176002,-0.639248 1.615654,-1.182745 0.155092,-0.01483 0.312881,-0.02832 0.474716,-0.04046 z m -2.33582,-8.600188 c 0.596093,-1.004726 1.710058,-1.673644 2.845601,-1.673644 1.80581,0 3.499684,1.681736 3.262326,3.726253 -0.237358,2.049912 -1.456516,3.727602 -3.262326,3.727602 -0.357386,0 -0.690497,-0.06339 -0.995286,-0.180716 0.182064,-0.477413 0.308835,-0.996634 0.372221,-1.542828 0.206339,-1.786929 -0.814571,-3.340546 -2.222536,-4.056667 z"
       id="path3" /><path
       id="rect6"
       style="opacity:0.25;fill:#dfdfdf;fill-opacity:1"
       d="m 84.698707,3.9790892 -3.878906,2.9414062 3.878906,3.1660156 V 8.0728392 H 97.608863 V 10.086511 L 101.48777,6.9204954 97.608863,3.9790892 V 5.992761 H 84.698707 Z"
       transform="translate(-54)" /></g><g
     id="22-22-system-users"
     transform="translate(54 32)"><path
       style="color:#dfdfdf;clip-rule:evenodd;fill:currentColor;fill-rule:evenodd;stroke-width:1.16058;stroke-linejoin:round;stroke-miterlimit:2"
       class="ColorScheme-Text"
       d="m 9.3716869,14.782599 c 1.5540091,0 3.0116911,1.447237 2.8074291,3.206667 -0.204261,1.764074 -1.25342,3.207829 -2.8074291,3.207829 -1.5528477,0 -2.5462994,-1.378763 -2.8062677,-3.207829 -0.2506859,-1.752468 1.25342,-3.206667 2.8062677,-3.206667 z"
       id="path1-0-3-6" /><path
       style="color:#dfdfdf;clip-rule:evenodd;fill:currentColor;fill-opacity:0.5;fill-rule:evenodd;stroke-width:1.16058;stroke-linejoin:round;stroke-miterlimit:2"
       class="ColorScheme-Text"
       d="m 9.339192,24.451345 c 0,0 0.853022,-1.840672 1.01318,-2.265441 1.63525,0.08588 2.884028,0.430572 3.796239,0.820526 1.046837,0.447981 1.641053,2.589241 1.930035,4.04344 0.09052,0.315676 0.02787,0.655725 -0.169444,0.918014 -0.197297,0.26229 -0.50717,0.416648 -0.835614,0.416648 -2.605489,0.04526 -8.6694889,0.04526 -11.3655044,0.04526 -0.3539748,0 -0.6870597,-0.171765 -0.8913207,-0.461907 -0.204261,-0.290143 -0.2553265,-0.660365 -0.1357873,-0.994612 0.4166466,-1.403134 1.1141512,-3.419052 2.0762671,-3.92158 0.8472196,-0.443341 1.9938679,-0.732322 3.4828837,-0.840255 z"
       id="path2-5-2-4" /><path
       style="color:#dfdfdf;clip-rule:evenodd;fill:currentColor;fill-opacity:0.3;fill-rule:evenodd;stroke-width:1.16058;stroke-linejoin:round;stroke-miterlimit:2"
       class="ColorScheme-Text"
       d="m 13.548594,22.163852 c 0.263451,-0.575644 0.625549,-1.37528 0.724199,-1.63641 1.63525,0.08588 2.884026,0.430574 3.796237,0.820527 1.046839,0.447981 1.641054,2.589242 1.930035,4.043441 0.09054,0.315676 0.02787,0.655725 -0.169443,0.918014 -0.197298,0.26229 -0.507172,0.416646 -0.835614,0.416646 -0.626709,0.01041 -1.453039,0.01856 -2.38382,0.02552 -0.18569,-0.886678 -0.476994,-1.968334 -0.893642,-2.806269 -0.355134,-0.711428 -0.815883,-1.248773 -1.339302,-1.472765 -0.251845,-0.106781 -0.526901,-0.211224 -0.82865,-0.308712 z M 12.853409,21.965394 C 12.146621,21.787827 11.326093,21.65552 10.382547,21.605616 h -0.02089 c 0.540827,-0.196138 1.01202,-0.550111 1.390367,-1.017824 0.133466,-0.01277 0.269253,-0.02437 0.408522,-0.03483 z m -2.010113,-7.400982 c 0.512974,-0.864628 1.471607,-1.440273 2.448811,-1.440273 1.554009,0 3.01169,1.447236 2.807429,3.206667 -0.20426,1.764073 -1.25342,3.207827 -2.807429,3.207827 -0.307552,0 -0.594214,-0.05454 -0.856504,-0.155517 0.156677,-0.410843 0.265772,-0.857665 0.320319,-1.327697 0.177567,-1.53776 -0.700987,-2.874742 -1.912626,-3.491007 z"
       id="path3-6-7" /><path
       id="path89"
       d="m0 10v22h22v-22z"
       fill="none" /></g><g
     id="system-users"
     transform="translate(54 32)"><path
       style="color:#dfdfdf;clip-rule:evenodd;fill:currentColor;fill-rule:evenodd;stroke-width:1.59875;stroke-linejoin:round;stroke-miterlimit:2"
       class="ColorScheme-Text"
       d="m 35.304356,9.1535888 c 2.140718,0 4.148741,1.9936352 3.867362,4.4173302 -0.281379,2.430091 -1.726644,4.418928 -3.867362,4.418928 -2.139119,0 -3.507644,-1.899307 -3.865762,-4.418928 -0.34533,-2.414104 1.726643,-4.4173302 3.865762,-4.4173302 z"
       id="path1-0-9" /><path
       style="color:#dfdfdf;clip-rule:evenodd;fill:currentColor;fill-opacity:0.5;fill-rule:evenodd;stroke-width:1.59875;stroke-linejoin:round;stroke-miterlimit:2"
       class="ColorScheme-Text"
       d="m 35.259592,22.472726 c 0,0 1.175076,-2.535608 1.395703,-3.120748 2.25263,0.118309 3.972879,0.593133 5.229492,1.130312 1.442067,0.617114 2.260623,3.566797 2.658711,5.570024 0.124702,0.434858 0.03837,0.90329 -0.233417,1.264606 -0.271786,0.361316 -0.698651,0.57395 -1.151095,0.57395 -3.589181,0.06235 -11.942618,0.06235 -15.656501,0.06235 -0.487617,0 -0.946457,-0.236615 -1.227834,-0.6363 -0.281381,-0.399686 -0.351725,-0.909685 -0.187055,-1.370124 0.57395,-1.932881 1.534794,-4.7099 2.860153,-5.402156 1.167084,-0.610721 2.746644,-1.008808 4.797832,-1.157491 z"
       id="path2-5-9" /><path
       style="color:#dfdfdf;clip-rule:evenodd;fill:currentColor;fill-opacity:0.3;fill-rule:evenodd;stroke-width:1.59875;stroke-linejoin:round;stroke-miterlimit:2"
       class="ColorScheme-Text"
       d="m 41.058236,19.321601 c 0.362914,-0.792977 0.861723,-1.894511 0.997616,-2.254229 2.252631,0.118309 3.972878,0.593134 5.229492,1.130312 1.442067,0.617116 2.260623,3.566798 2.658712,5.570024 0.124701,0.434858 0.03837,0.903291 -0.233417,1.264607 -0.271788,0.361316 -0.698652,0.573949 -1.151096,0.573949 -0.863321,0.01439 -2.001628,0.02558 -3.28382,0.03517 -0.255799,-1.221441 -0.657084,-2.711471 -1.231034,-3.865764 -0.489215,-0.98003 -1.123917,-1.720247 -1.84495,-2.028806 -0.346928,-0.147085 -0.725829,-0.290972 -1.141503,-0.425266 z m -0.957648,-0.273386 c -0.973634,-0.244606 -2.103948,-0.426864 -3.403726,-0.49561 h -0.02879 c 0.745016,-0.270188 1.394106,-0.757804 1.915296,-1.402099 0.183855,-0.01758 0.370908,-0.03357 0.562757,-0.04796 z M 37.331564,8.8530244 c 0.706645,-1.1910638 2.027208,-1.9840404 3.37335,-1.9840404 2.140718,0 4.14874,1.9936332 3.867362,4.417329 -0.281379,2.430092 -1.726644,4.418929 -3.867362,4.418929 -0.423668,0 -0.818558,-0.07515 -1.179873,-0.214233 0.21583,-0.565953 0.366111,-1.18147 0.441253,-1.828962 0.244607,-2.118335 -0.965643,-3.9600886 -2.63473,-4.8090226 z"
       id="path3-9" /><path
       id="path94"
       d="m22 0v32h32v-32z"
       fill="none" /></g><g
     id="22-22-system-search"
     transform="translate(0 -32)"><path
       d="m 9.0700631,12.955413 c -3.3436819,0 -6.0955422,2.75186 -6.0955422,6.095542 0,3.343683 2.7518603,6.095543 6.0955422,6.095543 1.2335149,0 2.7540769,-0.635045 3.5919359,-1.211351 l 3.921096,4.19595 c 0.208357,0.217222 0.497618,0.340242 0.79907,0.340242 0.608447,0 1.108281,-0.499834 1.108281,-1.108281 0,-0.299236 -0.120803,-0.58628 -0.33581,-0.794637 l -4.204815,-3.928854 c 0.577414,-0.836751 1.213567,-2.356203 1.215784,-3.588612 0,-3.343682 -2.75186,-6.095542 -6.0955419,-6.095542 z m 0,1.215784 c 2.6776049,0 4.8797579,2.202153 4.8797579,4.879758 0,2.677606 -2.202153,4.879759 -4.8797579,4.879759 -2.6776054,0 -4.8797586,-2.202153 -4.8797586,-4.879759 0,-2.677605 2.2021532,-4.879758 4.8797586,-4.879758 z"
       fill="#dfdfdf"
       id="path1-33"
       style="clip-rule:evenodd;fill-rule:evenodd;stroke-width:1.10828;stroke-linejoin:round;stroke-miterlimit:2" /><path
       id="path63"
       d="m0 10v22h22v-22z"
       fill="none" /></g><g
     id="system-search"
     transform="translate(0 -32)"><path
       d="m 34.999997,3.961777 c -4.996308,0 -9.108284,4.1119763 -9.108284,9.108284 0,4.996311 4.111976,9.108287 9.108284,9.108287 1.843184,0 4.115289,-0.948918 5.367263,-1.810066 l 5.859111,6.269813 c 0.311338,0.324584 0.743567,0.508407 1.194013,0.508407 0.909174,0 1.656052,-0.746878 1.656052,-1.656052 0,-0.447135 -0.18051,-0.876051 -0.501785,-1.187389 l -6.283059,-5.870703 c 0.862803,-1.250318 1.813377,-3.520765 1.816689,-5.362297 0,-4.9963077 -4.111976,-9.108284 -9.108284,-9.108284 z m 0,1.8166895 c 4.00102,0 7.291595,3.2905745 7.291595,7.2915945 0,4.001022 -3.290575,7.291597 -7.291595,7.291597 -4.001021,0 -7.291597,-3.290575 -7.291597,-7.291597 0,-4.00102 3.290576,-7.2915945 7.291597,-7.2915945 z"
       fill="#dfdfdf"
       id="path1-33-0"
       style="clip-rule:evenodd;fill-rule:evenodd;stroke-width:1.65605;stroke-linejoin:round;stroke-miterlimit:2" /><path
       id="path68"
       d="m22 0v32h32v-32z"
       fill="none" /></g><g
     id="system-user-list"
     transform="translate(108)"><path
       style="color:#dfdfdf;clip-rule:evenodd;fill:currentColor;fill-rule:evenodd;stroke-width:1.5805;stroke-linejoin:round;stroke-miterlimit:2"
       class="ColorScheme-Text"
       d="m 35.335119,8.4563143 c 2.116288,0 4.101395,1.9708827 3.823227,4.3669187 -0.278168,2.402358 -1.706939,4.368499 -3.823227,4.368499 -2.114707,0 -3.467614,-1.877633 -3.821646,-4.368499 -0.341388,-2.386554 1.706939,-4.3669187 3.821646,-4.3669187 z"
       id="path1-0-2" /><path
       style="color:#dfdfdf;clip-rule:evenodd;fill:currentColor;fill-opacity:0.5;fill-rule:evenodd;stroke-width:1.5805;stroke-linejoin:round;stroke-miterlimit:2"
       class="ColorScheme-Text"
       d="m 35.290866,21.623451 c 0,0 1.161666,-2.506672 1.379775,-3.085134 2.226923,0.116959 3.92754,0.586365 5.169812,1.117413 1.425609,0.610072 2.234825,3.526093 2.62837,5.506458 0.123279,0.429896 0.03793,0.892982 -0.230754,1.250175 -0.268684,0.357192 -0.690677,0.567399 -1.137958,0.567399 -3.548221,0.06164 -11.806327,0.06164 -15.477827,0.06164 -0.482052,0 -0.935655,-0.233914 -1.213822,-0.629038 -0.278169,-0.395126 -0.34771,-0.899304 -0.18492,-1.354489 0.5674,-1.910822 1.517279,-4.656149 2.827513,-5.340505 1.153764,-0.603751 2.715298,-0.997295 4.743078,-1.144281 z"
       id="path2-5-6" /><path
       style="color:#dfdfdf;clip-rule:evenodd;fill:currentColor;fill-opacity:0.3;fill-rule:evenodd;stroke-width:1.5805;stroke-linejoin:round;stroke-miterlimit:2"
       class="ColorScheme-Text"
       d="m 41.023335,18.508287 c 0.358773,-0.783927 0.851888,-1.87289 0.986232,-2.228503 2.226922,0.116959 3.927539,0.586365 5.169811,1.117413 1.42561,0.610073 2.234825,3.526093 2.62837,5.506458 0.123279,0.429895 0.03794,0.892982 -0.230753,1.250174 -0.268685,0.357194 -0.690678,0.5674 -1.137959,0.5674 -0.85347,0.01423 -1.978785,0.02529 -3.246345,0.03477 -0.25288,-1.207501 -0.649585,-2.680527 -1.216985,-3.821647 -0.483632,-0.968846 -1.11109,-1.700616 -1.823895,-2.005652 -0.342968,-0.145407 -0.717546,-0.287651 -1.128476,-0.420413 z m -0.946719,-0.270265 c -0.962524,-0.241815 -2.079937,-0.421993 -3.364883,-0.489955 h -0.02845 c 0.736513,-0.267104 1.378195,-0.749155 1.893438,-1.386097 0.181757,-0.01738 0.366675,-0.03319 0.556335,-0.04742 z M 37.339192,8.1591801 c 0.698581,-1.1774718 2.004073,-1.9613987 3.334853,-1.9613987 2.116288,0 4.101394,1.970882 3.823226,4.3669186 -0.278167,2.402359 -1.706938,4.368499 -3.823226,4.368499 -0.418832,0 -0.809216,-0.07429 -1.166408,-0.211787 0.213366,-0.559496 0.361933,-1.167988 0.436218,-1.808091 C 40.18567,10.81916 38.989232,8.9984258 37.339192,8.1591801 Z"
       id="path3-3" /><path
       id="path84-3"
       d="m22 0v32h32v-32z"
       fill="none" /></g><g
     id="system-user-prompt"
     transform="translate(112 64)"><path
       id="path44-5"
       d="m22 0v32h32v-32z"
       fill="none" /><path
       d="m 25,18.803448 v 3.393104 A 1.8034483,1.8034483 45 0 0 26.803448,24 H 49.196552 A 1.8034483,1.8034483 135 0 0 51,22.196552 V 18.803448 A 1.8034483,1.8034483 45 0 0 49.196552,17 H 26.803448 A 1.8034483,1.8034483 135 0 0 25,18.803448 Z"
       id="path15"
       style="fill:#dfdfdf;fill-opacity:0.25"
       inkscape:path-effect="#path-effect21"
       inkscape:original-d="m 25,17 v 7 h 26 v -7 z" /><path
       d="m 25,10.181773 v 2.636454 A 2.1817734,2.1817734 45 0 0 27.181773,15 H 48.818227 A 2.1817734,2.1817734 135 0 0 51,12.818227 V 10.181773 A 2.1817734,2.1817734 45 0 0 48.818227,8 H 27.181773 A 2.1817734,2.1817734 135 0 0 25,10.181773 Z"
       id="path12"
       style="fill:#dfdfdf;fill-opacity:0.25"
       inkscape:path-effect="#path-effect20"
       inkscape:original-d="m 25,8 v 7 H 51 V 8 Z" /><path
       id="path20"
       style="fill:#dfdfdf;fill-opacity:1"
       d="M 28.5 19 C 27.671574 19 27 19.671574 27 20.5 C 27 21.328426 27.671574 22 28.5 22 C 29.328426 22 30 21.328426 30 20.5 C 30 19.671574 29.328426 19 28.5 19 z M 32.5 19 C 31.671574 19 31 19.671574 31 20.5 C 31 21.328426 31.671574 22 32.5 22 C 33.328426 22 34 21.328426 34 20.5 C 34 19.671574 33.328426 19 32.5 19 z M 36.5 19 C 35.671574 19 35 19.671574 35 20.5 C 35 21.328426 35.671574 22 36.5 22 C 37.328426 22 38 21.328426 38 20.5 C 38 19.671574 37.328426 19 36.5 19 z M 40.5 19 C 39.671574 19 39 19.671574 39 20.5 C 39 21.328426 39.671574 22 40.5 22 C 41.328426 22 42 21.328426 42 20.5 C 42 19.671574 41.328426 19 40.5 19 z " /><path
       id="path10"
       style="fill:#dfdfdf;fill-opacity:1"
       d="M 27 10.75 L 27 12.25 L 32 12.25 L 32 10.75 L 27 10.75 z M 33 10.75 L 33 12.25 L 36 12.25 L 36 10.75 L 33 10.75 z M 37 10.75 L 37 12.25 L 42 12.25 L 42 10.75 L 37 10.75 z " /></g><g
     id="22-22-system-user-prompt"
     transform="matrix(.6875 0 0 .6875 96.875 74)"
     stroke-width="1.454546"><path
       d="m 25,18.803448 v 3.393104 A 1.8034483,1.8034483 45 0 0 26.803448,24 H 49.196552 A 1.8034483,1.8034483 135 0 0 51,22.196552 V 18.803448 A 1.8034483,1.8034483 45 0 0 49.196552,17 H 26.803448 A 1.8034483,1.8034483 135 0 0 25,18.803448 Z"
       id="path15-1"
       style="fill:#dfdfdf;fill-opacity:0.25"
       inkscape:path-effect="#path-effect21-6"
       inkscape:original-d="m 25,17 v 7 h 26 v -7 z"
       transform="translate(-0.34367354,-0.13636364)" /><path
       d="m 25,10.181773 v 2.636454 A 2.1817734,2.1817734 45 0 0 27.181773,15 H 48.818227 A 2.1817734,2.1817734 135 0 0 51,12.818227 V 10.181773 A 2.1817734,2.1817734 45 0 0 48.818227,8 H 27.181773 A 2.1817734,2.1817734 135 0 0 25,10.181773 Z"
       id="path12-4"
       style="fill:#dfdfdf;fill-opacity:0.25"
       inkscape:path-effect="#path-effect20-9"
       inkscape:original-d="m 25,8 v 7 H 51 V 8 Z"
       transform="translate(-0.34367354,-0.13636364)" /><path
       id="path20-2"
       style="fill:#dfdfdf;fill-opacity:1"
       d="m 28.156326,18.863636 c -0.828426,0 -1.5,0.671574 -1.5,1.5 0,0.828426 0.671574,1.5 1.5,1.5 0.828426,0 1.5,-0.671574 1.5,-1.5 0,-0.828426 -0.671574,-1.5 -1.5,-1.5 z m 4,0 c -0.828426,0 -1.5,0.671574 -1.5,1.5 0,0.828426 0.671574,1.5 1.5,1.5 0.828426,0 1.5,-0.671574 1.5,-1.5 0,-0.828426 -0.671574,-1.5 -1.5,-1.5 z m 4,0 c -0.828426,0 -1.5,0.671574 -1.5,1.5 0,0.828426 0.671574,1.5 1.5,1.5 0.828426,0 1.5,-0.671574 1.5,-1.5 0,-0.828426 -0.671574,-1.5 -1.5,-1.5 z m 4,0 c -0.828426,0 -1.5,0.671574 -1.5,1.5 0,0.828426 0.671574,1.5 1.5,1.5 0.828426,0 1.5,-0.671574 1.5,-1.5 0,-0.828426 -0.671574,-1.5 -1.5,-1.5 z" /><path
       id="path10-3"
       style="fill:#dfdfdf;fill-opacity:1"
       d="m 26.656326,10.613636 v 1.5 h 5 v -1.5 z m 6,0 v 1.5 h 3 v -1.5 z m 4,0 v 1.5 h 5 v -1.5 z" /><path
       id="path44-5-7"
       d="m22 0v32h32v-32z"
       fill="none" /></g><g
     id="22-22-system-user-list"
     transform="matrix(.6875 0 0 .6875 92.875 10)"
     stroke-width="1.454546"><path
       style="color:#dfdfdf;clip-rule:evenodd;fill:currentColor;fill-rule:evenodd;stroke-width:1.62875;stroke-linejoin:round;stroke-miterlimit:2"
       class="ColorScheme-Text"
       d="m 38.005015,7.1415804 c 2.180885,0 4.226586,2.0310421 3.939926,4.5002146 -0.286659,2.475689 -1.759041,4.501844 -3.939926,4.501844 -2.179256,0 -3.57346,-1.934946 -3.938297,-4.501844 -0.351811,-2.4594015 1.759041,-4.5002146 3.938297,-4.5002146 z"
       id="path1-0-3-6-6" /><path
       style="color:#dfdfdf;clip-rule:evenodd;fill:currentColor;fill-opacity:0.5;fill-rule:evenodd;stroke-width:1.62875;stroke-linejoin:round;stroke-miterlimit:2"
       class="ColorScheme-Text"
       d="m 37.959411,20.710631 c 0,0 1.197126,-2.583186 1.42189,-3.179304 2.294898,0.120523 4.047425,0.604261 5.327615,1.15152 1.469124,0.628694 2.303042,3.633723 2.708598,5.674535 0.127035,0.443018 0.03911,0.92024 -0.237797,1.288335 -0.276885,0.368096 -0.711759,0.58472 -1.172695,0.58472 -3.656525,0.06352 -12.166699,0.06352 -15.950268,0.06352 -0.496766,0 -0.964215,-0.241054 -1.250873,-0.648237 -0.286659,-0.407185 -0.358324,-0.926752 -0.190563,-1.395831 0.584718,-1.969149 1.563592,-4.798274 2.913819,-5.503518 1.188981,-0.622182 2.79818,-1.027736 4.887853,-1.179208 z"
       id="path2-5-2-4-2" /><path
       style="color:#dfdfdf;clip-rule:evenodd;fill:currentColor;fill-opacity:0.3;fill-rule:evenodd;stroke-width:1.62875;stroke-linejoin:round;stroke-miterlimit:2"
       class="ColorScheme-Text"
       d="m 43.866856,17.500379 c 0.369726,-0.807855 0.877891,-1.930058 1.016336,-2.296526 2.294898,0.120523 4.047422,0.604264 5.327612,1.151522 1.469127,0.628693 2.303044,3.633724 2.708598,5.674536 0.127063,0.443018 0.03911,0.92024 -0.237795,1.288335 -0.276887,0.368095 -0.711762,0.584718 -1.172695,0.584718 -0.879519,0.01461 -2.039185,0.02605 -3.345436,0.03581 -0.260596,-1.244357 -0.66941,-2.762346 -1.254131,-3.938298 -0.498393,-0.998413 -1.145004,-1.752519 -1.879567,-2.066868 -0.353437,-0.149856 -0.739449,-0.29643 -1.162922,-0.433244 z m -0.975617,-0.278514 c -0.991902,-0.249197 -2.143425,-0.434875 -3.467591,-0.50491 h -0.02932 c 0.758992,-0.275259 1.420261,-0.772022 1.951231,-1.428407 0.187305,-0.01792 0.377868,-0.0342 0.573317,-0.04888 z M 40.07026,6.8353784 c 0.719904,-1.2134126 2.065243,-2.0212687 3.436644,-2.0212687 2.180886,0 4.226585,2.0310405 3.939926,4.5002138 -0.286657,2.4756875 -1.75904,4.5018415 -3.939926,4.5018415 -0.431616,0 -0.833915,-0.07654 -1.202011,-0.218251 0.219879,-0.576574 0.372982,-1.203641 0.449533,-1.863281 0.249196,-2.1580815 -0.98376,-4.0343927 -2.684166,-4.8992546 z"
       id="path3-6-7-4" /><path
       style="color:#dfdfdf;clip-rule:evenodd;fill:currentColor;fill-opacity:0.3;fill-rule:evenodd;stroke-width:1.11977;stroke-linejoin:round;stroke-miterlimit:2"
       class="ColorScheme-Text"
       d="m 38.262819,15.994537 c -0.254186,-0.5554 -0.60355,-1.326914 -0.698731,-1.578861 -1.577742,0.08286 -2.782602,0.415431 -3.662733,0.791671 -1.010025,0.432227 -1.583342,2.498185 -1.862161,3.901244 -0.08736,0.304575 -0.02689,0.632665 0.163484,0.88573 0.19036,0.253065 0.489337,0.401994 0.806228,0.401994 0.604669,0.01004 1.40194,0.01791 2.299987,0.02462 0.17916,-0.855495 0.46022,-1.899113 0.862215,-2.70758 0.342645,-0.68641 0.787191,-1.204858 1.292203,-1.420973 0.242988,-0.103026 0.508371,-0.203795 0.799508,-0.297855 z m 0.670737,-0.191478 c 0.681933,-0.171323 1.473605,-0.298976 2.383969,-0.347126 h 0.02016 c -0.521807,-0.18924 -0.976429,-0.530765 -1.341471,-0.982029 -0.128772,-0.01232 -0.259784,-0.02351 -0.394155,-0.0336 z M 40.872979,8.6623496 C 40.378045,7.8281284 39.453125,7.2727273 38.510286,7.2727273 c -1.499359,0 -2.905777,1.3963404 -2.708699,3.0938967 0.197077,1.702035 1.20934,3.095016 2.708699,3.095016 0.296737,0 0.573317,-0.05262 0.826383,-0.150047 -0.151167,-0.396395 -0.256425,-0.827503 -0.309054,-1.281006 -0.171322,-1.483681 0.676335,-2.7736449 1.845364,-3.3682374 z"
       id="path3-6-7-4-5" /><path
       id="path84-3-7"
       d="m22 0v32h32v-32z"
       fill="none" /></g></svg>
