<?xml version="1.0" encoding="UTF-8" standalone="no"?>
<svg
   version="1.1"
   id="svg2"
   viewBox="0 0 54 64"
   inkscape:version="1.3 (0e150ed6c4, 2023-07-21)"
   sodipodi:docname="touchpad.svg"
   xml:space="preserve"
   xmlns:inkscape="http://www.inkscape.org/namespaces/inkscape"
   xmlns:sodipodi="http://sodipodi.sourceforge.net/DTD/sodipodi-0.dtd"
   xmlns="http://www.w3.org/2000/svg"
   xmlns:svg="http://www.w3.org/2000/svg"
   xmlns:rdf="http://www.w3.org/1999/02/22-rdf-syntax-ns#"
   xmlns:cc="http://creativecommons.org/ns#"
   xmlns:dc="http://purl.org/dc/elements/1.1/"><sodipodi:namedview
     pagecolor="#ffffff"
     bordercolor="#666666"
     borderopacity="1"
     objecttolerance="10"
     gridtolerance="10"
     guidetolerance="10"
     inkscape:pageopacity="0"
     inkscape:pageshadow="2"
     inkscape:window-width="2194"
     inkscape:window-height="1211"
     id="namedview20"
     showgrid="false"
     inkscape:zoom="7.375"
     inkscape:cx="33.288136"
     inkscape:cy="12.677966"
     inkscape:window-x="-8"
     inkscape:window-y="-8"
     inkscape:window-maximized="1"
     inkscape:current-layer="svg2"
     inkscape:showpageshadow="2"
     inkscape:pagecheckerboard="0"
     inkscape:deskcolor="#d1d1d1" /><metadata
     id="metadata32"><rdf:RDF><cc:Work
         rdf:about=""><dc:format>image/svg+xml</dc:format><dc:type
           rdf:resource="http://purl.org/dc/dcmitype/StillImage" /><dc:title /></cc:Work></rdf:RDF></metadata><defs
     id="defs3051"><style
       type="text/css"
       id="current-color-scheme">&#10;      .ColorScheme-Text {&#10;        color:#31363b;&#10;      }&#10;      .ColorScheme-Background {&#10;        color:#eff0f1;&#10;      }&#10;      .ColorScheme-Highlight {&#10;        color:#3daee9;&#10;      }&#10;      .ColorScheme-ViewText {&#10;        color:#31363b;&#10;      }&#10;      .ColorScheme-ViewBackground {&#10;        color:#fcfcfc;&#10;      }&#10;      .ColorScheme-ViewHover {&#10;        color:#93cee9;&#10;      }&#10;      .ColorScheme-ViewFocus{&#10;        color:#3daee9;&#10;      }&#10;      .ColorScheme-ButtonText {&#10;        color:#31363b;&#10;      }&#10;      .ColorScheme-ButtonBackground {&#10;        color:#eff0f1;&#10;      }&#10;      .ColorScheme-ButtonHover {&#10;        color:#93cee9;&#10;      }&#10;      .ColorScheme-ButtonFocus{&#10;        color:#3daee9;&#10;      }&#10;      .ColorScheme-NegativeText {&#10;        color:#da4453;&#10;      }&#10;      </style></defs><g
     transform="translate(0,32)"
     id="22-22-touchpad_enabled"><path
       id="path9"
       d="M 0 10 L 0 32 L 22 32 L 22 10 L 0 10 z "
       style="opacity:1;fill:none" /><rect
       x="3.6101332"
       y="15.229903"
       width="14.779734"
       height="11.794133"
       fill-opacity="0.3"
       fill="#dfdfdf"
       id="rect1-9"
       style="clip-rule:evenodd;fill-rule:evenodd;stroke-width:1.06667;stroke-linejoin:round;stroke-miterlimit:2" /><path
       d="m 4.0346679,14.076836 c -1.0666667,0 -1.0666667,1.066667 -1.0666667,1.066667 v 11.733333 c 0,0 0,1.066667 1.0666667,1.066667 H 17.901334 c 0,0 1.066667,0 1.066667,-1.066667 V 15.143503 c 0,-1.066667 -1.066667,-1.066667 -1.066667,-1.066667 z M 18.003735,26.406435 H 3.9322671 V 18.731769 H 18.003735 Z m 0,-8.234666 h -6.7776 v -2.557866 h 6.7776 z m -7.293868,0 H 3.9322671 v -2.557866 h 6.7775999 z"
       fill="#dfdfdf"
       id="path1-7"
       style="clip-rule:evenodd;fill-rule:evenodd;stroke-width:1.06667;stroke-linejoin:round;stroke-miterlimit:2" /></g><g
     transform="translate(0,32)"
     id="touchpad_enabled"
     inkscape:label="#touchpad_enabled"><path
       id="path14"
       d="M 22 0 L 22 32 L 54 32 L 54 0 L 22 0 z "
       style="opacity:1;fill:none" /><rect
       x="26.963198"
       y="7.3144608"
       width="22.169601"
       height="17.6912"
       fill-opacity="0.3"
       fill="#dfdfdf"
       id="rect1"
       style="clip-rule:evenodd;fill-rule:evenodd;stroke-width:1.6;stroke-linejoin:round;stroke-miterlimit:2" /><path
       d="m 27.6,5.5848605 c -1.6,0 -1.6,1.5999999 -1.6,1.5999999 V 24.784862 c 0,0 0,1.599999 1.6,1.599999 h 20.8 c 0,0 1.6,0 1.6,-1.599999 V 7.1848604 C 50,5.5848605 48.4,5.5848605 48.4,5.5848605 Z M 48.553601,24.079261 H 27.446399 v -11.512 h 21.107202 z m 0,-12.352 H 38.3872 V 7.8904604 h 10.166401 z m -10.940801,0 H 27.446399 V 7.8904604 H 37.6128 Z"
       fill="#dfdfdf"
       id="path1"
       style="clip-rule:evenodd;fill-rule:evenodd;stroke-width:1.6;stroke-linejoin:round;stroke-miterlimit:2" /></g><g
     id="22-22-touchpad_disabled"
     inkscape:label="#22-22-touchpad_disabled"><path
       id="path19"
       d="M 0 10 L 0 32 L 22 32 L 22 10 L 0 10 z "
       style="opacity:1;fill:none" /><path
       d="m 14.29505,24.205871 v 1.042266 c 0,0.281412 0.104228,0.5524 0.291835,0.75043 l 0.812968,0.812968 -0.812968,0.812966 c -0.187607,0.187609 -0.291835,0.458598 -0.291835,0.750431 v 1.042265 h 1.042265 c 0.291836,0 0.562824,-0.104226 0.750431,-0.291835 l 0.812968,-0.823389 0.812967,0.823389 c 0.187607,0.187609 0.458596,0.291835 0.75043,0.291835 h 1.042266 v -1.042265 c 0,-0.291833 -0.104227,-0.562822 -0.291835,-0.750431 l -0.812966,-0.812966 0.812966,-0.812968 c 0.187608,-0.19803 0.291835,-0.469018 0.291835,-0.75043 v -1.042266 h -1.042266 c -0.291834,0 -0.562823,0.104227 -0.75043,0.291834 l -0.812967,0.812968 -0.812968,-0.812968 c -0.187607,-0.187607 -0.458595,-0.291834 -0.750431,-0.291834 z"
       fill="#dfdfdf"
       id="path1-78-5"
       style="clip-rule:evenodd;fill-rule:evenodd;stroke-width:1.04227;stroke-linejoin:round;stroke-miterlimit:2" /><path
       d="m 4.3935317,14.304353 c -1.0422655,0 -1.0422655,1.042266 -1.0422655,1.042266 v 11.464916 c 0,0 0,1.042264 1.0422655,1.042264 H 17.942978 c 0,0 1.042266,0 1.042266,-1.042264 V 15.346619 c 0,-1.042266 -1.042266,-1.042266 -1.042266,-1.042266 z M 18.043035,26.351896 H 4.2934736 V 18.852797 H 18.043035 Z m 0,-8.046288 h -6.622551 v -2.499352 h 6.622551 z m -7.127008,0 H 4.2934736 v -2.499352 h 6.6225534 z"
       fill-opacity="0.3"
       fill="#dfdfdf"
       id="path2-9"
       style="clip-rule:evenodd;fill-rule:evenodd;stroke-width:1.04227;stroke-linejoin:round;stroke-miterlimit:2" /></g><g
     id="touchpad_disabled"
     inkscape:label="#touchpad_disabled"><path
       id="path26"
       d="M 22 0 L 22 32 L 54 32 L 54 0 L 22 0 z "
       style="opacity:1;fill:none" /><path
       d="m 42.800124,20.792804 v 1.600041 c 0,0.432012 0.160006,0.848023 0.448013,1.152029 l 1.248032,1.248034 -1.248032,1.248032 c -0.288007,0.288007 -0.448013,0.704019 -0.448013,1.152029 v 1.600042 h 1.600042 c 0.448013,0 0.864023,-0.160004 1.15203,-0.448012 l 1.248033,-1.264033 1.248032,1.264033 c 0.288007,0.288008 0.704018,0.448012 1.15203,0.448012 h 1.600042 v -1.600042 c 0,-0.44801 -0.160005,-0.864022 -0.448013,-1.152029 l -1.248031,-1.248032 1.248031,-1.248034 c 0.288008,-0.304006 0.448013,-0.720017 0.448013,-1.152029 v -1.600041 h -1.600042 c -0.448012,0 -0.864023,0.160004 -1.15203,0.448011 l -1.248032,1.248032 -1.248033,-1.248032 c -0.288007,-0.288007 -0.704017,-0.448011 -1.15203,-0.448011 z"
       fill="#dfdfdf"
       id="path1-78"
       style="clip-rule:evenodd;fill-rule:evenodd;stroke-width:1.60005;stroke-linejoin:round;stroke-miterlimit:2" /><path
       d="m 27.599731,5.5924097 c -1.600042,0 -1.600042,1.6000416 -1.600042,1.6000416 V 24.792908 c 0,0 0,1.600041 1.600042,1.600041 H 48.40027 c 0,0 1.600041,0 1.600041,-1.600041 V 7.1924513 c 0,-1.6000416 -1.600041,-1.6000416 -1.600041,-1.6000416 z M 48.553874,24.087289 H 27.446126 V 12.574991 h 21.107748 z m 0,-12.352321 H 38.387211 V 7.8980697 h 10.166663 z m -10.941083,0 H 27.446126 V 7.8980697 h 10.166665 z"
       fill-opacity="0.3"
       fill="#dfdfdf"
       id="path2"
       style="clip-rule:evenodd;fill-rule:evenodd;stroke-width:1.60005;stroke-linejoin:round;stroke-miterlimit:2" /></g></svg>
