<?xml version="1.0" encoding="UTF-8" standalone="no"?>
<svg
   id="svg4153"
   version="1.1"
   viewBox="0 0 22 22"
   sodipodi:docname="user.svg"
   inkscape:version="1.3 (0e150ed6c4, 2023-07-21)"
   xml:space="preserve"
   xmlns:inkscape="http://www.inkscape.org/namespaces/inkscape"
   xmlns:sodipodi="http://sodipodi.sourceforge.net/DTD/sodipodi-0.dtd"
   xmlns="http://www.w3.org/2000/svg"
   xmlns:svg="http://www.w3.org/2000/svg"><defs
     id="defs1" /><sodipodi:namedview
     id="namedview1"
     pagecolor="#ffffff"
     bordercolor="#000000"
     borderopacity="0.25"
     inkscape:showpageshadow="2"
     inkscape:pageopacity="0.0"
     inkscape:pagecheckerboard="0"
     inkscape:deskcolor="#d1d1d1"
     inkscape:zoom="2.8835227"
     inkscape:cx="-92.768473"
     inkscape:cy="-33.119212"
     inkscape:window-width="2194"
     inkscape:window-height="1211"
     inkscape:window-x="-8"
     inkscape:window-y="-8"
     inkscape:window-maximized="1"
     inkscape:current-layer="svg4153" /><style
     id="current-color-scheme"
     type="text/css">&#10;        .ColorScheme-Text {&#10;            color:#232629;&#10;        }&#10;        .ColorScheme-Background {&#10;            color:#eff0f1;&#10;        }&#10;    </style><g
     id="user-away"><path
       id="rect4562"
       d="m-44 0h22v22h-22z"
       fill="none"
       opacity=".97" /><path
       style="color:#dfdfdf;clip-rule:evenodd;fill:currentColor;fill-rule:evenodd;stroke-width:1.1555;stroke-linejoin:round;stroke-miterlimit:2"
       class="ColorScheme-Text"
       d="m -34.632742,3.9669489 c 1.547216,0 2.998525,1.44091 2.795156,3.192649 -0.203368,1.7563611 -1.24794,3.1938041 -2.795156,3.1938041 -1.546059,0 -2.535168,-1.372735 -2.794,-3.1938041 -0.249589,-1.744807 1.247941,-3.192649 2.794,-3.192649 z"
       id="path1-0-2-00" /><path
       style="color:#dfdfdf;clip-rule:evenodd;fill:currentColor;fill-opacity:0.5;fill-rule:evenodd;stroke-width:1.1555;stroke-linejoin:round;stroke-miterlimit:2"
       class="ColorScheme-Text"
       d="m -34.665095,13.593426 c 0,0 0.849292,-1.832625 1.008751,-2.255538 1.628101,0.08551 2.87142,0.428691 3.779644,0.81694 1.042261,0.446022 1.633877,2.577922 1.921598,4.025764 0.09013,0.314297 0.02773,0.652858 -0.168704,0.914001 -0.196435,0.261143 -0.504953,0.414825 -0.83196,0.414825 -2.5941,0.04507 -8.631591,0.04507 -11.31582,0.04507 -0.352427,0 -0.684056,-0.171014 -0.887424,-0.459889 -0.203369,-0.288876 -0.25421,-0.65748 -0.135194,-0.990265 0.414825,-1.397 1.10928,-3.404105 2.067191,-3.904437 0.843515,-0.441401 1.985151,-0.729121 3.467658,-0.836582 z"
       id="path2-5-6-59" /><path
       style="color:#dfdfdf;clip-rule:evenodd;fill:currentColor;fill-opacity:0.3;fill-rule:evenodd;stroke-width:1.1555;stroke-linejoin:round;stroke-miterlimit:2"
       class="ColorScheme-Text"
       d="m -30.474094,11.315933 c 0.262298,-0.573128 0.622814,-1.369267 0.721033,-1.629255 1.628099,0.08551 2.871418,0.42869 3.779642,0.816939 1.042262,0.446024 1.633878,2.577922 1.921598,4.025764 0.09013,0.314296 0.02774,0.652858 -0.168703,0.914001 -0.196436,0.261144 -0.504954,0.414826 -0.831961,0.414826 -0.623971,0.0104 -1.446687,0.01849 -2.373398,0.02542 -0.184881,-0.882803 -0.474911,-1.95973 -0.889737,-2.794002 -0.353582,-0.708322 -0.812316,-1.243318 -1.333447,-1.466329 -0.250743,-0.106307 -0.524597,-0.210301 -0.825027,-0.307364 z m -0.692145,-0.19759 c -0.703701,-0.176791 -1.52064,-0.308519 -2.460062,-0.358205 h -0.0208 c 0.538464,-0.19528 1.007597,-0.547707 1.38429,-1.0133741 0.132882,-0.01271 0.268076,-0.02426 0.406736,-0.03467 z m -2.001328,-7.3686281 c 0.510732,-0.860849 1.465176,-1.433977 2.438107,-1.433977 1.547216,0 2.998524,1.44091 2.795156,3.192649 -0.203368,1.756362 -1.24794,3.1938051 -2.795156,3.1938051 -0.306207,0 -0.591617,-0.05431 -0.852759,-0.1548381 0.155991,-0.4090469 0.264608,-0.853914 0.318918,-1.321893 0.176791,-1.531038 -0.697924,-2.862174 -1.904266,-3.475746 z"
       id="path3-3-33" /><path
       id="path4227"
       d="m-25 11-8 4 2 1 1 3 1-2 2 1z"
       fill="#fdbc4b"
       fill-rule="evenodd" /></g><g
     id="user-busy"><path
       id="rect4560"
       d="m-66 0h22v22h-22z"
       fill="none"
       opacity=".97" /><path
       style="color:#dfdfdf;clip-rule:evenodd;fill:currentColor;fill-rule:evenodd;stroke-width:1.1555;stroke-linejoin:round;stroke-miterlimit:2"
       class="ColorScheme-Text"
       d="m -56.658706,4.0207608 c 1.547216,0 2.998525,1.44091 2.795156,3.192649 -0.203368,1.7563609 -1.24794,3.1938042 -2.795156,3.1938042 -1.546059,0 -2.535168,-1.3727352 -2.794,-3.1938042 -0.249589,-1.7448067 1.247941,-3.192649 2.794,-3.192649 z"
       id="path1-0-2-1" /><path
       style="color:#dfdfdf;clip-rule:evenodd;fill:currentColor;fill-opacity:0.5;fill-rule:evenodd;stroke-width:1.1555;stroke-linejoin:round;stroke-miterlimit:2"
       class="ColorScheme-Text"
       d="m -56.691059,13.647238 c 0,0 0.849292,-1.832625 1.008751,-2.255538 1.628101,0.08551 2.87142,0.428691 3.779644,0.81694 1.042261,0.446022 1.633877,2.577922 1.921598,4.025764 0.09013,0.314297 0.02773,0.652858 -0.168704,0.914001 -0.196435,0.261143 -0.504953,0.414825 -0.83196,0.414825 -2.5941,0.04507 -8.631591,0.04507 -11.31582,0.04507 -0.352427,0 -0.684056,-0.171014 -0.887424,-0.459889 -0.203369,-0.288876 -0.25421,-0.65748 -0.135194,-0.990265 0.414825,-1.397 1.10928,-3.404105 2.067191,-3.904437 0.843515,-0.441401 1.985151,-0.729121 3.467658,-0.836582 z"
       id="path2-5-6-0" /><path
       style="color:#dfdfdf;clip-rule:evenodd;fill:currentColor;fill-opacity:0.3;fill-rule:evenodd;stroke-width:1.1555;stroke-linejoin:round;stroke-miterlimit:2"
       class="ColorScheme-Text"
       d="m -52.500058,11.369745 c 0.262298,-0.573128 0.622814,-1.369267 0.721033,-1.6292551 1.628099,0.085509 2.871418,0.4286901 3.779642,0.8169391 1.042262,0.446024 1.633878,2.577922 1.921598,4.025764 0.09013,0.314296 0.02774,0.652858 -0.168703,0.914001 -0.196436,0.261144 -0.504954,0.414826 -0.831961,0.414826 -0.623971,0.0104 -1.446687,0.01849 -2.373398,0.02542 -0.184881,-0.882803 -0.474911,-1.95973 -0.889737,-2.794002 -0.353582,-0.708322 -0.812316,-1.243318 -1.333447,-1.466329 -0.250743,-0.106307 -0.524597,-0.210301 -0.825027,-0.307364 z m -0.692145,-0.19759 c -0.703701,-0.176791 -1.52064,-0.308519 -2.460062,-0.358205 h -0.0208 c 0.538464,-0.19528 1.007597,-0.547707 1.38429,-1.0133741 0.132882,-0.012707 0.268076,-0.024265 0.406736,-0.034669 z m -2.001328,-7.3686285 c 0.510732,-0.8608484 1.465176,-1.4339764 2.438107,-1.4339764 1.547216,0 2.998524,1.4409094 2.795156,3.192649 -0.203368,1.7563617 -1.24794,3.1938042 -2.795156,3.1938042 -0.306207,0 -0.591617,-0.054313 -0.852759,-0.1548373 0.155991,-0.4090468 0.264608,-0.8539145 0.318918,-1.321893 0.176791,-1.5310385 -0.697924,-2.8621748 -1.904266,-3.4757465 z"
       id="path3-3-5" /><path
       id="path4169"
       d="m-50.5 12a3.5 3.5 0 0 0-3.5 3.5 3.5 3.5 0 0 0 3.5 3.5 3.5 3.5 0 0 0 3.5-3.5 3.5 3.5 0 0 0-3.5-3.5z"
       fill="#f47750" /><path
       id="rect4146"
       class="ColorScheme-Background"
       d="m-51 13v3h2v-1h-1v-2z"
       fill="currentColor" /></g><g
     id="user-invisible"><path
       id="rect4556"
       d="m22 0h22v22h-22z"
       fill="none"
       opacity=".97" /><path
       style="color:#dfdfdf;clip-rule:evenodd;fill:currentColor;fill-rule:evenodd;stroke-width:1.1555;stroke-linejoin:round;stroke-miterlimit:2"
       class="ColorScheme-Text"
       d="m 31.051708,3.9669491 c 1.547216,0 2.998525,1.4409099 2.795156,3.192649 -0.203368,1.7563609 -1.24794,3.1938039 -2.795156,3.1938039 -1.546059,0 -2.535168,-1.3727349 -2.794,-3.1938039 -0.249589,-1.7448067 1.247941,-3.192649 2.794,-3.192649 z"
       id="path1-0-2-0" /><path
       style="color:#dfdfdf;clip-rule:evenodd;fill:currentColor;fill-opacity:0.5;fill-rule:evenodd;stroke-width:1.1555;stroke-linejoin:round;stroke-miterlimit:2"
       class="ColorScheme-Text"
       d="m 31.019355,13.593426 c 0,0 0.849292,-1.832625 1.008751,-2.255538 1.628101,0.08551 2.87142,0.428691 3.779644,0.81694 1.042261,0.446022 1.633877,2.577922 1.921598,4.025764 0.09013,0.314297 0.02773,0.652858 -0.168704,0.914001 -0.196435,0.261143 -0.504953,0.414825 -0.83196,0.414825 -2.5941,0.04507 -8.631591,0.04507 -11.31582,0.04507 -0.352427,0 -0.684056,-0.171014 -0.887424,-0.459889 -0.203369,-0.288876 -0.25421,-0.65748 -0.135194,-0.990265 0.414825,-1.397001 1.10928,-3.404106 2.067191,-3.904438 0.843515,-0.441401 1.985151,-0.729121 3.467658,-0.836582 z"
       id="path2-5-6-9" /><path
       style="color:#dfdfdf;clip-rule:evenodd;fill:currentColor;fill-opacity:0.3;fill-rule:evenodd;stroke-width:1.1555;stroke-linejoin:round;stroke-miterlimit:2"
       class="ColorScheme-Text"
       d="m 35.210356,11.315933 c 0.262298,-0.573128 0.622814,-1.3692665 0.721033,-1.6292548 1.628099,0.085509 2.871418,0.4286898 3.779642,0.8169388 1.042262,0.446024 1.633878,2.577922 1.921598,4.025764 0.09013,0.314296 0.02774,0.652858 -0.168703,0.914002 -0.196436,0.261144 -0.504954,0.414826 -0.831961,0.414826 -0.623971,0.0104 -1.446687,0.01849 -2.373398,0.02542 C 38.073686,15.000825 37.783656,13.923898 37.36883,13.089626 37.015248,12.381304 36.556514,11.846308 36.035383,11.623297 35.78464,11.51699 35.510786,11.412996 35.210356,11.315933 Z m -0.692145,-0.19759 c -0.703701,-0.176791 -1.52064,-0.308519 -2.460062,-0.358205 h -0.0208 c 0.538464,-0.19528 1.007597,-0.547707 1.38429,-1.0133738 0.132882,-0.012707 0.268076,-0.024265 0.406736,-0.034669 z M 32.516883,3.7497148 c 0.510732,-0.8608484 1.465176,-1.4339764 2.438107,-1.4339764 1.547216,0 2.998524,1.4409094 2.795156,3.192649 -0.203368,1.7563616 -1.24794,3.1938042 -2.795156,3.1938042 -0.306207,0 -0.591617,-0.054313 -0.852759,-0.1548373 0.155991,-0.4090468 0.264608,-0.8539145 0.318918,-1.321893 C 34.59794,5.6944228 33.723225,4.3632865 32.516883,3.7497148 Z"
       id="path3-3-3" /><circle
       id="path4167"
       cx="37.500004"
       cy="15.5"
       r="3.5"
       fill="#666" /><path
       id="rect4152"
       class="ColorScheme-Background"
       transform="matrix(.70710678 .70710678 -.70710678 .70710678 0 0)"
       d="m36.976669-17.884859h1v4.657h-1z"
       fill="currentColor" /></g><g
     id="user-offline"><path
       id="rect4564"
       d="m-22 0h22v22h-22z"
       fill="none"
       opacity=".97" /><ellipse
       id="path4146"
       class="ColorScheme-Background"
       cx="-6.499996"
       cy="15.5"
       rx="3.250001"
       ry="3.249986"
       fill="currentColor" /><path
       style="color:#dfdfdf;clip-rule:evenodd;fill:currentColor;fill-rule:evenodd;stroke-width:1.1555;stroke-linejoin:round;stroke-miterlimit:2"
       class="ColorScheme-Text"
       d="m -12.948292,3.9669489 c 1.547216,0 2.9985247,1.44091 2.795156,3.192649 -0.203368,1.7563613 -1.24794,3.1938041 -2.795156,3.1938041 -1.54606,0 -2.535168,-1.3727348 -2.794001,-3.1938041 -0.249588,-1.7448067 1.247941,-3.192649 2.794001,-3.192649 z"
       id="path1-0-2-82" /><path
       style="color:#dfdfdf;clip-rule:evenodd;fill:currentColor;fill-opacity:0.5;fill-rule:evenodd;stroke-width:1.1555;stroke-linejoin:round;stroke-miterlimit:2"
       class="ColorScheme-Text"
       d="m -12.980645,13.593426 c 0,0 0.849292,-1.832625 1.008751,-2.255538 1.628101,0.08551 2.8714197,0.428691 3.7796437,0.81694 1.042261,0.446022 1.633877,2.577922 1.921598,4.025764 0.09013,0.314297 0.02773,0.652858 -0.168704,0.914001 -0.196435,0.261143 -0.504953,0.414825 -0.83196,0.414825 -2.5941,0.04507 -8.6315907,0.04507 -11.3158197,0.04507 -0.352427,0 -0.684056,-0.171014 -0.887424,-0.459889 -0.203369,-0.288876 -0.25421,-0.65748 -0.135194,-0.990265 0.414825,-1.397 1.10928,-3.404105 2.067191,-3.904437 0.843515,-0.441401 1.985151,-0.729121 3.467658,-0.836582 z"
       id="path2-5-6-8" /><path
       style="color:#dfdfdf;clip-rule:evenodd;fill:currentColor;fill-opacity:0.3;fill-rule:evenodd;stroke-width:1.1555;stroke-linejoin:round;stroke-miterlimit:2"
       class="ColorScheme-Text"
       d="m -8.7896443,11.315933 c 0.262298,-0.573128 0.622814,-1.3692668 0.721033,-1.6292548 1.628099,0.08551 2.871418,0.4286898 3.779642,0.8169388 1.042262,0.446024 1.633878,2.577922 1.921598,4.025764 0.09013,0.314296 0.02774,0.652858 -0.168703,0.914001 -0.196436,0.261144 -0.504954,0.414826 -0.831961,0.414826 -0.623971,0.0104 -1.446687,0.01849 -2.373398,0.02542 -0.184881,-0.882803 -0.474911,-1.95973 -0.889737,-2.794002 -0.353582,-0.708322 -0.812316,-1.243318 -1.333447,-1.466329 -0.250743,-0.106307 -0.524597,-0.210301 -0.825027,-0.307364 z m -0.692145,-0.19759 C -10.18549,10.941552 -11.002429,10.809824 -11.941851,10.760138 h -0.0208 c 0.538464,-0.19528 1.007597,-0.547707 1.38429,-1.0133738 0.132882,-0.01271 0.268076,-0.02426 0.406736,-0.03467 z M -11.483117,3.7497146 c 0.510732,-0.8608484 1.465176,-1.4339764 2.4381067,-1.4339764 1.547216,0 2.998524,1.4409094 2.795156,3.192649 -0.203368,1.7563617 -1.24794,3.193804 -2.795156,3.193804 -0.306207,0 -0.591617,-0.05431 -0.852759,-0.154837 0.155991,-0.4090469 0.264608,-0.8539146 0.318918,-1.3218931 0.176791,-1.5310385 -0.6979237,-2.8621748 -1.9042657,-3.4757465 z"
       id="path3-3-32" /><path
       id="path4167-8"
       d="m-6.5 12a3.5 3.5 0 0 0-3.5 3.5 3.5 3.5 0 0 0 3.5 3.5 3.5 3.5 0 0 0 3.5-3.5 3.5 3.5 0 0 0-3.5-3.5zm0 1a2.5 2.5 0 0 1 2.5 2.5 2.5 2.5 0 0 1-2.5 2.5 2.5 2.5 0 0 1-2.5-2.5 2.5 2.5 0 0 1 2.5-2.5z"
       fill="#bdc3c7" /><path
       id="rect4152-8"
       transform="rotate(90)"
       d="m15 4.999996h.999971v2.999991h-.999971z"
       fill="#bdc3c7" /></g><g
     id="user-online"><path
       id="rect4554"
       d="m0 0h22v22h-22z"
       fill="none"
       opacity=".97" /><path
       style="color:#dfdfdf;clip-rule:evenodd;fill:currentColor;fill-rule:evenodd;stroke-width:1.1555;stroke-linejoin:round;stroke-miterlimit:2"
       class="ColorScheme-Text"
       d="m 9.1496392,3.9669491 c 1.5472158,0 2.9985248,1.44091 2.7951558,3.192649 -0.203368,1.7563609 -1.24794,3.1938039 -2.7951558,3.1938039 -1.5460596,0 -2.5351682,-1.3727349 -2.7940006,-3.1938039 -0.2495883,-1.7448067 1.247941,-3.192649 2.7940006,-3.192649 z"
       id="path1-0-2" /><path
       style="color:#dfdfdf;clip-rule:evenodd;fill:currentColor;fill-opacity:0.5;fill-rule:evenodd;stroke-width:1.1555;stroke-linejoin:round;stroke-miterlimit:2"
       class="ColorScheme-Text"
       d="m 9.1172859,13.593426 c 0,0 0.8492923,-1.832625 1.0087511,-2.255538 1.628101,0.08551 2.87142,0.428691 3.779644,0.81694 1.042261,0.446022 1.633877,2.577922 1.921598,4.025764 0.09013,0.314297 0.02773,0.652858 -0.168704,0.914001 -0.196435,0.261143 -0.504953,0.414825 -0.83196,0.414825 -2.5941,0.04507 -8.6315907,0.04507 -11.3158198,0.04507 -0.3524276,0 -0.6840562,-0.171014 -0.8874237,-0.459889 -0.2033691,-0.288876 -0.2542104,-0.65748 -0.1351948,-0.990265 0.4148254,-1.397 1.1092808,-3.404105 2.0671912,-3.904437 0.8435154,-0.441401 1.985151,-0.729121 3.4676584,-0.836582 z"
       id="path2-5-6" /><path
       style="color:#dfdfdf;clip-rule:evenodd;fill:currentColor;fill-opacity:0.3;fill-rule:evenodd;stroke-width:1.1555;stroke-linejoin:round;stroke-miterlimit:2"
       class="ColorScheme-Text"
       d="m 13.308287,11.315933 c 0.262298,-0.573128 0.622814,-1.3692665 0.721033,-1.6292548 1.628099,0.085509 2.871418,0.4286898 3.779642,0.8169388 1.042262,0.446024 1.633878,2.577922 1.921598,4.025764 0.09013,0.314296 0.02774,0.652858 -0.168703,0.914001 -0.196436,0.261144 -0.504954,0.414826 -0.831961,0.414826 -0.623971,0.0104 -1.446687,0.01849 -2.373398,0.02542 -0.184881,-0.882803 -0.474911,-1.95973 -0.889737,-2.794002 -0.353582,-0.708322 -0.812316,-1.243318 -1.333447,-1.466329 -0.250743,-0.106307 -0.524597,-0.210301 -0.825027,-0.307364 z m -0.692145,-0.19759 c -0.703701,-0.176791 -1.52064,-0.308519 -2.460062,-0.358205 h -0.0208 c 0.538464,-0.19528 1.007597,-0.547707 1.38429,-1.0133738 0.132882,-0.012707 0.268076,-0.024265 0.406736,-0.034669 z M 10.614814,3.7497148 c 0.510732,-0.8608484 1.465176,-1.4339764 2.438107,-1.4339764 1.547216,0 2.998524,1.4409094 2.795156,3.192649 -0.203368,1.7563617 -1.24794,3.1938042 -2.795156,3.1938042 -0.306207,0 -0.591617,-0.054313 -0.852759,-0.1548373 C 12.356153,8.1383075 12.46477,7.6934398 12.51908,7.2254613 12.695871,5.6944228 11.821156,4.3632865 10.614814,3.7497148 Z"
       id="path3-3" /><circle
       id="path4144"
       cx="15.463924"
       cy="15.5"
       r="3.5"
       fill="#43be80" /><path
       id="path4166"
       class="ColorScheme-Background"
       d="m 17.393051,13.770133 0.448247,0.448248 -2.724123,3.275876 -1.708798,-2.291203 0.417595,-0.417594 1.28043,1.229896 z"
       fill="currentColor"
       fill-rule="evenodd"
       sodipodi:nodetypes="ccccccc" /></g><g
     id="user-identity"><path
       id="rect4585"
       d="m-88 0h22v22h-22z"
       fill="none"
       opacity=".97" /><path
       style="color:#dfdfdf;clip-rule:evenodd;fill:currentColor;fill-rule:evenodd;stroke-width:1.1555;stroke-linejoin:round;stroke-miterlimit:2"
       class="ColorScheme-Text"
       d="m -79.263842,5.2744797 c 1.547216,0 2.998525,1.44091 2.795156,3.192649 -0.203368,1.7563613 -1.24794,3.1938043 -2.795156,3.1938043 -1.546059,0 -2.535168,-1.372735 -2.794,-3.1938043 -0.249589,-1.7448067 1.247941,-3.192649 2.794,-3.192649 z"
       id="path1-0-2-9" /><path
       style="color:#dfdfdf;clip-rule:evenodd;fill:currentColor;fill-opacity:0.5;fill-rule:evenodd;stroke-width:1.1555;stroke-linejoin:round;stroke-miterlimit:2"
       class="ColorScheme-Text"
       d="m -79.296195,14.900957 c 0,0 0.849292,-1.832625 1.008751,-2.255538 1.628101,0.08551 2.87142,0.428691 3.779644,0.81694 1.042261,0.446022 1.633877,2.577922 1.921598,4.025764 0.09013,0.314297 0.02773,0.652858 -0.168704,0.914001 -0.196435,0.261143 -0.504953,0.414825 -0.83196,0.414825 -2.5941,0.04507 -8.631591,0.04507 -11.31582,0.04507 -0.352427,0 -0.684056,-0.171014 -0.887424,-0.459889 -0.203369,-0.288876 -0.25421,-0.65748 -0.135194,-0.990265 0.414825,-1.397 1.10928,-3.404105 2.067191,-3.904437 0.843515,-0.441401 1.985151,-0.729121 3.467658,-0.836582 z"
       id="path2-5-6-6" /><path
       style="color:#dfdfdf;clip-rule:evenodd;fill:currentColor;fill-opacity:0.3;fill-rule:evenodd;stroke-width:1.1555;stroke-linejoin:round;stroke-miterlimit:2"
       class="ColorScheme-Text"
       d="m -75.105194,12.623464 c 0.262298,-0.573128 0.622814,-1.369267 0.721033,-1.629255 1.628099,0.08551 2.871418,0.42869 3.779642,0.816939 1.042262,0.446024 1.633878,2.577922 1.921598,4.025764 0.09013,0.314296 0.02774,0.652858 -0.168703,0.914001 -0.196436,0.261144 -0.504954,0.414826 -0.831961,0.414826 -0.623971,0.0104 -1.446687,0.01849 -2.373398,0.02542 -0.184881,-0.882803 -0.474911,-1.95973 -0.889737,-2.794002 -0.353582,-0.708322 -0.812316,-1.243318 -1.333447,-1.466329 -0.250743,-0.106307 -0.524597,-0.210301 -0.825027,-0.307364 z m -0.692145,-0.19759 c -0.703701,-0.176791 -1.52064,-0.308519 -2.460062,-0.358205 h -0.0208 c 0.538464,-0.19528 1.007597,-0.547707 1.38429,-1.013374 0.132882,-0.01271 0.268076,-0.02426 0.406736,-0.03467 z m -2.001328,-7.3686286 c 0.510732,-0.8608484 1.465176,-1.4339764 2.438107,-1.4339764 1.547216,0 2.998524,1.4409094 2.795156,3.192649 -0.203368,1.7563617 -1.24794,3.193804 -2.795156,3.193804 -0.306207,0 -0.591617,-0.054313 -0.852759,-0.1548371 0.155991,-0.4090468 0.264608,-0.8539145 0.318918,-1.321893 0.176791,-1.5310385 -0.697924,-2.8621748 -1.904266,-3.4757465 z"
       id="path3-3-4" /></g><g
     id="user-away-extended"><path
       id="rect4649"
       d="m44 0h22v22h-22z"
       fill="none"
       opacity=".97" /><circle
       id="circle4653"
       cx="59.500015"
       cy="15.5"
       r="3.499985"
       fill="#9b59b6" /><path
       style="color:#dfdfdf;clip-rule:evenodd;fill:currentColor;fill-rule:evenodd;stroke-width:1.1555;stroke-linejoin:round;stroke-miterlimit:2"
       class="ColorScheme-Text"
       d="m 53.329861,3.8063836 c 1.547216,0 2.998525,1.44091 2.795156,3.192649 -0.203368,1.7563609 -1.24794,3.1938034 -2.795156,3.1938034 -1.546059,0 -2.535168,-1.3727344 -2.794,-3.1938034 -0.249589,-1.7448067 1.247941,-3.192649 2.794,-3.192649 z"
       id="path1-0-2-8" /><path
       style="color:#dfdfdf;clip-rule:evenodd;fill:currentColor;fill-opacity:0.5;fill-rule:evenodd;stroke-width:1.1555;stroke-linejoin:round;stroke-miterlimit:2"
       class="ColorScheme-Text"
       d="m 53.297508,13.43286 c 0,0 0.849292,-1.832625 1.008751,-2.255538 1.628101,0.08551 2.87142,0.428691 3.779644,0.81694 1.042261,0.446022 1.633877,2.577922 1.921598,4.025764 0.09013,0.314297 0.02773,0.652858 -0.168704,0.914001 -0.196435,0.261143 -0.504953,0.414825 -0.83196,0.414825 -2.5941,0.04507 -8.631591,0.04507 -11.31582,0.04507 -0.352427,0 -0.684056,-0.171014 -0.887424,-0.459889 -0.203369,-0.288876 -0.25421,-0.65748 -0.135194,-0.990265 0.414825,-1.397 1.10928,-3.404105 2.067191,-3.904437 0.843515,-0.441401 1.985151,-0.729121 3.467658,-0.836582 z"
       id="path2-5-6-5" /><path
       style="color:#dfdfdf;clip-rule:evenodd;fill:currentColor;fill-opacity:0.3;fill-rule:evenodd;stroke-width:1.1555;stroke-linejoin:round;stroke-miterlimit:2"
       class="ColorScheme-Text"
       d="m 57.488509,11.155367 c 0.262298,-0.573128 0.622814,-1.369266 0.721033,-1.6292543 1.628099,0.085509 2.871418,0.4286898 3.779642,0.8169383 1.042262,0.446024 1.633878,2.577922 1.921598,4.025764 0.09013,0.314296 0.02774,0.652858 -0.168703,0.914001 -0.196436,0.261144 -0.504954,0.414826 -0.831961,0.414826 -0.623971,0.0104 -1.446687,0.01849 -2.373398,0.02542 -0.184881,-0.882803 -0.474911,-1.95973 -0.889737,-2.794002 -0.353582,-0.708322 -0.812316,-1.243318 -1.333447,-1.466329 -0.250743,-0.106307 -0.524597,-0.210301 -0.825027,-0.307364 z m -0.692145,-0.19759 c -0.703701,-0.176791 -1.52064,-0.308519 -2.460062,-0.358205 h -0.0208 c 0.538464,-0.19528 1.007597,-0.547707 1.38429,-1.0133733 0.132882,-0.012707 0.268076,-0.024265 0.406736,-0.034669 z M 54.795036,3.5891493 c 0.510732,-0.8608484 1.465176,-1.4339764 2.438107,-1.4339764 1.547216,0 2.998524,1.4409094 2.795156,3.192649 -0.203368,1.7563617 -1.24794,3.1938042 -2.795156,3.1938042 -0.306207,0 -0.591617,-0.054313 -0.852759,-0.1548373 C 56.536375,7.977742 56.644992,7.5328743 56.699302,7.0648958 56.876093,5.5338573 56.001378,4.202721 54.795036,3.5891493 Z"
       id="path3-3-2" /><circle
       id="circle4659"
       class="ColorScheme-Background"
       transform="rotate(90)"
       cx="15.5"
       cy="-57.500046"
       r=".5"
       fill="currentColor"
       opacity=".7" /><circle
       id="circle4661"
       class="ColorScheme-Background"
       cx="59.500046"
       cy="15.5"
       r=".5"
       fill="currentColor"
       opacity=".4" /><circle
       id="circle4663"
       class="ColorScheme-Background"
       cx="61.500046"
       cy="15.5"
       r=".5"
       fill="currentColor"
       opacity=".3" /></g><g
     id="16-16-user-desktop"
     transform="translate(-270)"><path
       id="rect856"
       d="m-48 16h16v16h-16z"
       fill="none" /><path
       d="m -35.368,19.333333 c 0.758,0 1.368,0.61 1.368,1.368001 v 6.597332 c 0,0.758 -0.61,1.368001 -1.368,1.368001 h -9.264 c -0.758,0 -1.368,-0.610001 -1.368,-1.368001 v -6.597332 c 0,-0.758001 0.61,-1.368001 1.368,-1.368001 z m 0.415239,1.512146 v -0.0044 c 0,-0.346997 -0.27949,-0.626488 -0.626487,-0.626488 h -8.841504 c -0.346997,0 -0.626487,0.279491 -0.626487,0.626488 v 6.317883 c 0,0.346996 0.27949,0.626488 0.626487,0.626488 h 8.841504 c 0.346997,0 0.626487,-0.279492 0.626487,-0.626488 z"
       style="clip-rule:evenodd;fill:#dfdfdf;fill-opacity:1;fill-rule:nonzero;stroke-width:0.333334;stroke-linejoin:round;stroke-miterlimit:1.41421"
       id="path1-2"
       sodipodi:nodetypes="ssssssssscssssssssc" /><path
       d="m -34.666667,26.13409 h -10.666666 v 1.004666 c 0.031,0.445 0.261,0.656 0.665666,0.662 v -1.333333 h 1.333333 v 1.333333 h 0.666667 v -1.333333 h 1.333334 v 1.333333 h 0.666667 v -1.333333 h 1.333332 v 1.333333 h 4.005668 c 0.437333,-0.029 0.647333,-0.259334 0.661999,-0.662 z"
       style="clip-rule:evenodd;display:inline;fill:#dfdfdf;fill-opacity:0.25;fill-rule:nonzero;stroke-width:0.333334;stroke-linejoin:round;stroke-miterlimit:1.41421"
       id="path3-0" /></g><g
     id="22-22-user-desktop"
     transform="translate(-270)"><path
       id="rect850"
       d="m-22 10h22v22h-22z"
       fill="none" /><path
       d="m -4.8240001,14.777778 c 1.010667,0 1.8240001,0.813333 1.8240001,1.824 v 8.796443 c 0,1.010668 -0.8133331,1.824001 -1.8240001,1.824001 H -17.176 c -1.010667,0 -1.824,-0.813333 -1.824,-1.824001 v -8.796443 c 0,-1.010667 0.813333,-1.824 1.824,-1.824 z m 0.9351116,1.777777 v -0.0062 c 0,-0.48889 -0.3937782,-0.882668 -0.8826674,-0.882668 H -17.228444 c -0.488889,0 -0.882667,0.393778 -0.882667,0.882668 v 8.901334 c 0,0.488889 0.393778,0.882667 0.882667,0.882667 h 12.4568881 c 0.4888892,0 0.8826674,-0.393778 0.8826674,-0.882667 z"
       style="clip-rule:evenodd;fill:#dfdfdf;fill-opacity:1;fill-rule:nonzero;stroke-width:0.444445;stroke-linejoin:round;stroke-miterlimit:1.41421"
       id="path1-4" /><path
       d="M -3.8888885,24.111111 H -18.111111 v 1.339556 c 0.04133,0.593333 0.348,0.874666 0.887555,0.882667 v -1.777778 h 1.777778 v 1.777778 h 0.88889 v -1.777778 h 1.777777 v 1.777777 h 0.888888 v -1.777777 h 1.777779 v 1.777777 h 5.3408881 c 0.5831114,-0.03866 0.8631118,-0.345778 0.8826674,-0.882666 z"
       style="clip-rule:evenodd;display:inline;fill:#dfdfdf;fill-opacity:0.25;fill-rule:nonzero;stroke-width:0.444445;stroke-linejoin:round;stroke-miterlimit:1.41421"
       id="path3-1" /></g><g
     id="32-32-user-desktop"
     transform="translate(-260)"><path
       id="rect844"
       d="m0 0h32v32h-32z"
       fill="none" /><path
       d="M 25.263999,6.6666663 C 26.779999,6.6666663 28,7.8866664 28,9.4026665 V 22.597333 c 0,1.516 -1.220001,2.736001 -2.736001,2.736001 H 6.7360006 C 5.2199996,25.333334 4,24.113333 4,22.597333 V 9.402666 C 4,7.8866664 5.2199996,6.6666663 6.7360006,6.6666663 Z m 1.402667,2.6666668 v -0.00933 c 0,-0.7333341 -0.590667,-1.3240007 -1.323999,-1.3240007 H 6.6573331 c -0.7333334,0 -1.3239996,0.5906666 -1.3239996,1.3240007 V 22.675998 c 0,0.733333 0.5906662,1.324 1.3239996,1.324 H 25.342667 c 0.733332,0 1.323999,-0.590667 1.323999,-1.324 z"
       style="clip-rule:evenodd;fill:#dfdfdf;fill-opacity:1;fill-rule:nonzero;stroke-width:0.666668;stroke-linejoin:round;stroke-miterlimit:1.41421"
       id="path1-0" /><path
       d="M 26.666666,20.666667 H 5.3333335 v 2.009334 C 5.3953295,23.566001 5.8553331,23.988 6.6646661,24 V 21.333333 H 9.3313332 V 24 h 1.3333338 v -2.666667 h 2.666666 V 24 h 1.333333 v -2.666667 h 2.666668 V 24 h 8.011333 c 0.874667,-0.05801 1.294666,-0.518666 1.323999,-1.323999 z"
       style="clip-rule:evenodd;display:inline;fill:#dfdfdf;fill-opacity:0.25;fill-rule:nonzero;stroke-width:0.666668;stroke-linejoin:round;stroke-miterlimit:1.41421"
       id="path3-4" /></g><g
     id="48-48-user-desktop"
     transform="translate(-260)"><path
       id="rect846"
       d="m42-16h48v48h-48z"
       fill="none" /><path
       d="m 79.895998,-5.243252 c 2.273998,0 4.104002,1.83 4.104002,4.1040002 V 18.652747 c 0,2.274 -1.830004,4.104 -4.104002,4.104 H 52.103999 C 49.83,22.756747 48,20.926747 48,18.652747 V -1.1392526 c 0,-2.2739994 1.83,-4.1039994 4.103999,-4.1039994 z m 2.103999,4 v -0.014002 c 0,-1.1000011 -0.885997,-1.986001 -1.986001,-1.986001 H 51.986 c -1.1,0 -1.986,0.8859999 -1.986,1.986001 v 20.027998 c 0,1.1 0.886,1.986 1.986,1.986 h 28.027996 c 1.100004,0 1.986001,-0.886 1.986001,-1.986 z"
       style="clip-rule:evenodd;display:inline;fill:#dfdfdf;fill-opacity:1;fill-rule:nonzero;stroke-width:1;stroke-linejoin:round;stroke-miterlimit:1.41421"
       id="path1-8" /><path
       d="M 81.999997,15.756748 H 50 v 3.014 c 0.093,1.335 0.783,1.967999 1.997,1.985999 v -4 h 4 v 4 h 1.999999 v -4 h 4 v 4 h 2 v -4 h 4.000003 v 4 h 12.016994 c 1.312003,-0.087 1.942,-0.778 1.986001,-1.985999 z"
       style="clip-rule:evenodd;display:inline;fill:#dfdfdf;fill-opacity:0.25;fill-rule:nonzero;stroke-width:1;stroke-linejoin:round;stroke-miterlimit:1.41421"
       id="path3-7" /></g><g
     id="user-desktop"
     transform="translate(-260)"><path
       id="rect846-6"
       d="m100-32h64v64h-64z"
       fill="none" /><path
       d="m 44.120421,60.082023 c 3.046632,0 5.498407,2.451775 5.498407,5.498407 v 26.516681 c 0,3.046632 -2.451775,5.498407 -5.498407,5.498407 H 6.8855985 c -3.0466317,0 -5.4984065,-2.451775 -5.4984065,-5.498407 V 65.580429 c 0,-3.046631 2.4517748,-5.498406 5.4984065,-5.498406 z m 2.818872,5.359071 v -0.01876 c 0,-1.473746 -1.187035,-2.66078 -2.660779,-2.66078 H 6.7275059 c -1.4737444,0 -2.6607786,1.187034 -2.6607786,2.66078 v 26.832866 c 0,1.473744 1.1870342,2.660778 2.6607786,2.660778 H 44.278514 c 1.473744,0 2.660779,-1.187034 2.660779,-2.660778 z"
       style="clip-rule:evenodd;fill-rule:nonzero;stroke-linejoin:round;stroke-miterlimit:1.41421;fill-opacity:1;stroke-width:1.33977;fill:#dfdfdf"
       id="path1"
       transform="translate(106.49699,-78.838771)" /><path
       d="M 46.939293,88.217145 H 4.0667273 v 4.03806 c 0.1245984,1.78859 1.0490381,2.636662 2.6755161,2.660777 v -5.35907 h 5.3590706 v 5.35907 h 2.679535 v -5.35907 h 5.359071 v 5.35907 h 2.679535 v -5.35907 h 5.359071 v 5.35907 h 16.099988 c 1.757775,-0.11656 2.601829,-1.042339 2.660779,-2.660777 z"
       style="clip-rule:evenodd;display:inline;fill:#dfdfdf;fill-opacity:0.25;fill-rule:nonzero;stroke-width:1.33977;stroke-linejoin:round;stroke-miterlimit:1.41421"
       id="path3"
       transform="translate(106.49699,-78.838771)" /></g><g
     style="clip-rule:evenodd;fill-rule:evenodd;stroke-linejoin:round;stroke-miterlimit:1.41421"
     id="g1"
     transform="translate(-153.50301,-78.838771)" /></svg>
