<?xml version="1.0" encoding="UTF-8" standalone="no"?>
<svg
   version="1.1"
   id="svg2"
   viewBox="0 0 22 22"
   sodipodi:docname="video-card.svg"
   inkscape:version="1.3 (0e150ed6c4, 2023-07-21)"
   xmlns:inkscape="http://www.inkscape.org/namespaces/inkscape"
   xmlns:sodipodi="http://sodipodi.sourceforge.net/DTD/sodipodi-0.dtd"
   xmlns="http://www.w3.org/2000/svg"
   xmlns:svg="http://www.w3.org/2000/svg"
   xmlns:rdf="http://www.w3.org/1999/02/22-rdf-syntax-ns#"
   xmlns:cc="http://creativecommons.org/ns#"
   xmlns:dc="http://purl.org/dc/elements/1.1/">
  <sodipodi:namedview
     id="namedview1"
     pagecolor="#ffffff"
     bordercolor="#000000"
     borderopacity="0.25"
     inkscape:showpageshadow="2"
     inkscape:pageopacity="0.0"
     inkscape:pagecheckerboard="0"
     inkscape:deskcolor="#d1d1d1"
     inkscape:zoom="16"
     inkscape:cx="10.21875"
     inkscape:cy="9.78125"
     inkscape:window-width="2194"
     inkscape:window-height="1211"
     inkscape:window-x="-8"
     inkscape:window-y="-8"
     inkscape:window-maximized="1"
     inkscape:current-layer="22-22-video-card-inactive" />
  <metadata
     id="metadata12">
    <rdf:RDF>
      <cc:Work
         rdf:about="">
        <dc:format>image/svg+xml</dc:format>
        <dc:type
           rdf:resource="http://purl.org/dc/dcmitype/StillImage" />
        <dc:title />
      </cc:Work>
    </rdf:RDF>
  </metadata>
  <defs
     id="defs3051">
    <inkscape:path-effect
       effect="fillet_chamfer"
       id="path-effect3"
       is_visible="true"
       lpeversion="1"
       nodesatellites_param="F,0,0,1,0,0,0,1 @ F,0,0,1,0,0,0,1 @ F,0,0,1,0,0,0,1 @ F,0,0,1,0,0,0,1 @ F,0,0,1,0,0,0,1 @ F,0,0,1,0,0,0,1 @ F,0,0,1,0,0,0,1 @ F,0,0,1,0,0.50625,0,1 @ F,0,0,1,0,0.50625,0,1 @ F,0,0,1,0,0,0,1 @ F,0,0,1,0,0,0,1 @ F,0,0,1,0,0,0,1 @ F,0,0,1,0,0,0,1 @ F,0,0,1,0,0,0,1 @ F,0,0,1,0,0,0,1 @ F,0,0,1,0,0,0,1 | F,0,1,1,0,0.4828125,0,1 @ F,0,1,1,0,0.4828125,0,1 @ F,0,1,1,0,0.4828125,0,1 @ F,0,0,1,0,0.4828125,0,1"
       radius="0"
       unit="px"
       method="auto"
       mode="F"
       chamfer_steps="1"
       flexible="false"
       use_knot_distance="true"
       apply_no_radius="true"
       apply_with_radius="true"
       only_selected="false"
       hide_knots="false" />
    <inkscape:path-effect
       effect="fillet_chamfer"
       id="path-effect2"
       is_visible="true"
       lpeversion="1"
       nodesatellites_param="F,0,0,1,0,0,0,1 @ F,0,0,1,0,1.2598343,0,1 @ F,0,1,1,0,1.2598343,0,1 @ F,0,0,1,0,0,0,1"
       radius="0"
       unit="px"
       method="auto"
       mode="F"
       chamfer_steps="1"
       flexible="false"
       use_knot_distance="true"
       apply_no_radius="true"
       apply_with_radius="true"
       only_selected="false"
       hide_knots="false" />
    <style
       type="text/css"
       id="current-color-scheme">&#10;      .ColorScheme-Text {&#10;        color:#31363b;&#10;      }&#10;      </style>
  </defs>
  <g
     transform="translate(0,-10)"
     id="22-22-video-card-inactive">
    <path
       id="path7"
       style="opacity:1;fill:none"
       d="M 0,10 0,32 22,32 22,10 0,10 Z" />
    <rect
       style="fill:#dfdfdf;fill-opacity:1;stroke-width:2"
       id="rect1"
       width="1.5863899"
       height="18"
       x="2"
       y="2"
       transform="translate(0,10)"
       ry="0.79319495" />
    <path
       id="rect2"
       style="fill:#dfdfdf;stroke-width:2;fill-opacity:0.5"
       d="M 2.7929688 4.015625 L 2.7929688 16.613281 L 18.740234 16.613281 A 1.2598343 1.2598343 0 0 0 20 15.353516 L 20 5.2753906 A 1.2598343 1.2598343 0 0 0 18.740234 4.015625 L 2.7929688 4.015625 z M 7.5351562 6.0097656 A 2.8505242 2.8505242 0 0 1 10.384766 8.8613281 A 2.8505242 2.8505242 0 0 1 7.5351562 11.710938 A 2.8505242 2.8505242 0 0 1 4.6855469 8.8613281 A 2.8505242 2.8505242 0 0 1 7.5351562 6.0097656 z M 15.097656 6.0097656 A 2.8505242 2.8505242 0 0 1 17.949219 8.8613281 A 2.8505242 2.8505242 0 0 1 15.097656 11.710938 A 2.8505242 2.8505242 0 0 1 12.248047 8.8613281 A 2.8505242 2.8505242 0 0 1 15.097656 6.0097656 z "
       transform="translate(0,10)" />
    <path
       id="path12"
       d="M 18.767578,24.013672 C 17.792964,24.126694 17.044251,24.930009 17,25.910156 c 0.123921,0.382952 0.762718,0.401513 1,0.08984 -5.23e-4,-0.507346 0.378963,-0.934686 0.882812,-0.994141 C 18.920882,24.996559 18.960942,24.9967 19,25 c 0.507347,-5.23e-4 0.934687,0.394585 0.994141,0.898438 -0.01833,1.179783 -0.896224,1.236706 -1.992188,1.322265 0,0 -8.94e-4,0.75528 -0.0015,1.286764 -3.12e-4,0.279569 0.226142,0.506205 0.505736,0.506205 a 0.50006224,0.50006224 134.2852 0 0 0.493773,-0.50625 L 19,28 h 0.002 0.230469 c 0.97452,-0.113022 1.72328,-0.916337 1.767531,-1.896484 -0.01062,-0.105074 -0.0084,-0.195751 -0.01367,-0.320313 -0.113022,-0.974614 -0.916337,-1.723327 -1.896484,-1.767578 -0.106474,-9.03e-4 -0.212743,-0.0013 -0.322266,-0.002 z m -0.765625,6.469141 v 0.03438 A 0.4828125,0.4828125 45 0 0 18.484766,31 h 0.03437 a 0.4828125,0.4828125 135 0 0 0.482813,-0.482812 v -0.03438 A 0.4828125,0.4828125 45 0 0 18.51914,30 h -0.03437 a 0.4828125,0.4828125 135 0 0 -0.482813,0.482813 z"
       style="fill:#fdbc4b;fill-opacity:1;stroke:none"
       sodipodi:nodetypes="cccccccccccccccccccccc"
       inkscape:path-effect="#path-effect3"
       inkscape:original-d="M 18.767578,24.013672 C 17.792964,24.126694 17.044251,24.930009 17,25.910156 c 0.123921,0.382952 0.762718,0.401513 1,0.08984 -5.23e-4,-0.507346 0.378963,-0.934686 0.882812,-0.994141 C 18.920882,24.996559 18.960942,24.9967 19,25 c 0.507347,-5.23e-4 0.934687,0.394585 0.994141,0.898438 -0.01833,1.179783 -0.896224,1.236706 -1.992188,1.322265 0,0 -0.002,1.690325 -0.002,1.792969 h 1 L 19,28 h 0.002 0.230469 c 0.97452,-0.113022 1.72328,-0.916337 1.767531,-1.896484 -0.01062,-0.105074 -0.0084,-0.195751 -0.01367,-0.320313 -0.113022,-0.974614 -0.916337,-1.723327 -1.896484,-1.767578 -0.106474,-9.03e-4 -0.212743,-0.0013 -0.322266,-0.002 z M 18.001953,30 v 1 h 1 v -1 z" />
  </g>
</svg>
