<?xml version="1.0" encoding="UTF-8" standalone="no"?>
<svg
   id="svg2"
   version="1.1"
   viewBox="0 0 54 64"
   sodipodi:docname="view.svg"
   inkscape:version="1.3 (0e150ed6c4, 2023-07-21)"
   xmlns:inkscape="http://www.inkscape.org/namespaces/inkscape"
   xmlns:sodipodi="http://sodipodi.sourceforge.net/DTD/sodipodi-0.dtd"
   xmlns="http://www.w3.org/2000/svg"
   xmlns:svg="http://www.w3.org/2000/svg">
  <sodipodi:namedview
     id="namedview1"
     pagecolor="#ffffff"
     bordercolor="#000000"
     borderopacity="0.25"
     inkscape:showpageshadow="2"
     inkscape:pageopacity="0.0"
     inkscape:pagecheckerboard="0"
     inkscape:deskcolor="#d1d1d1"
     inkscape:zoom="5.6071358"
     inkscape:cx="40.216611"
     inkscape:cy="27.375831"
     inkscape:window-width="2194"
     inkscape:window-height="1211"
     inkscape:window-x="-8"
     inkscape:window-y="-8"
     inkscape:window-maximized="1"
     inkscape:current-layer="svg2" />
  <defs
     id="defs3615">
    <inkscape:path-effect
       effect="fillet_chamfer"
       id="path-effect2"
       is_visible="true"
       lpeversion="1"
       nodesatellites_param="F,0,1,1,0,0.50901106,0,1 @ F,0,0,1,0,0,0,1 @ F,0,0,1,0,0,0,1 @ F,0,0,1,0,0.50901106,0,1 @ F,0,1,1,0,0.50901106,0,1 @ F,0,0,1,0,0,0,1 @ F,0,1,1,0,0.50901106,0,1"
       radius="0"
       unit="px"
       method="auto"
       mode="F"
       chamfer_steps="1"
       flexible="false"
       use_knot_distance="true"
       apply_no_radius="true"
       apply_with_radius="true"
       only_selected="false"
       hide_knots="false" />
    <style
       id="current-color-scheme"
       type="text/css">&#10;            .ColorScheme-Text {&#10;                color:#232629;&#10;            }&#10;        </style>
    <inkscape:path-effect
       effect="fillet_chamfer"
       id="path-effect2-5"
       is_visible="true"
       lpeversion="1"
       nodesatellites_param="F,0,1,1,0,0.50901106,0,1 @ F,0,0,1,0,0,0,1 @ F,0,0,1,0,0,0,1 @ F,0,0,1,0,0.50901106,0,1 @ F,0,1,1,0,0.50901106,0,1 @ F,0,0,1,0,0,0,1 @ F,0,1,1,0,0.50901106,0,1"
       radius="0"
       unit="px"
       method="auto"
       mode="F"
       chamfer_steps="1"
       flexible="false"
       use_knot_distance="true"
       apply_no_radius="true"
       apply_with_radius="true"
       only_selected="false"
       hide_knots="false" />
  </defs>
  <g
     id="22-22-view-refresh"
     transform="matrix(0,-1,-1,0,32,32)">
    <path
       d="m 6.3054783,13.663085 4.4034487,3.682109 -0.0088,-2.561151 c 1.59107,0.0029 3.183601,0.611389 4.400044,1.827831 2.241431,2.241431 2.424603,5.75679 0.54221,8.190649 0,0 -0.475956,0.644515 0.15979,1.280261 0.404832,0.404831 1.059577,0.40678 1.463921,0.0025 0.05359,-0.05359 0.100842,-0.11351 0.142738,-0.178788 2.374437,-3.237702 2.090909,-7.817995 -0.847163,-10.756066 -1.62176,-1.621763 -3.742376,-2.436784 -5.862015,-2.442143 l -0.0097,-2.708271 z m 8.7689087,14.614849 -4.273404,-3.741036 -0.121285,2.620078 C 9.0891171,27.154562 7.4960982,26.545588 6.2796553,25.329145 4.0382239,23.087714 3.8550519,19.572355 5.7374449,17.138497 c 0,0 0.4759561,-0.644516 -0.159791,-1.280262 -0.4048294,-0.40483 -1.0595755,-0.406779 -1.4639194,-0.0025 -0.053588,0.05359 -0.1008423,0.113515 -0.1427436,0.178788 -2.3744207,3.237762 -2.0908929,7.818056 0.8471791,10.756128 1.6217617,1.621753 3.742376,2.436775 5.862016,2.442133 l -0.120308,2.7672 z"
       fill="#dfdfdf"
       id="path1-4-1"
       style="clip-rule:evenodd;fill-rule:evenodd;stroke-width:0.688951;stroke-linejoin:round;stroke-miterlimit:2"
       sodipodi:nodetypes="cccscsscsccccccscsscsccc" />
    <path
       id="path9"
       d="m0 10v22h22v-22z"
       fill="none" />
  </g>
  <g
     id="view-refresh"
     transform="matrix(0,-1,-1,0,54,54)">
    <path
       id="path14"
       d="m22 0v32h32v-32z"
       fill="none" />
    <path
       d="m 31.535194,5.328154 6.405019,5.355796 -0.01274,-3.72531 c 2.314284,0.0042 4.630694,0.889292 6.400066,2.658664 3.260264,3.260263 3.526697,8.373513 0.78867,11.913674 0,0 -0.692301,0.937476 0.232421,1.862198 0.588846,0.588845 1.541203,0.59168 2.12934,0.0036 0.07795,-0.07795 0.14668,-0.165105 0.207618,-0.260056 C 51.139294,18.427321 50.72689,11.765074 46.453329,7.491514 44.094404,5.132587 41.009872,3.947101 37.926759,3.939306 L 37.912583,0 Z m 12.754781,21.257968 -6.215863,-5.441508 -0.176413,3.811022 c -2.313575,-0.0035 -4.630694,-0.889291 -6.400066,-2.658663 -3.260264,-3.260264 -3.526696,-8.373514 -0.78867,-11.913673 0,0 0.692301,-0.937477 -0.232422,-1.8622 -0.588844,-0.588844 -1.541202,-0.59168 -2.129338,-0.0036 -0.07795,0.07795 -0.14668,0.165111 -0.207627,0.260055 -3.453705,4.709422 -3.0413,11.371669 1.23226,15.645229 2.358927,2.358916 5.443458,3.544402 8.526572,3.552196 L 37.723415,32 Z"
       fill="#dfdfdf"
       id="path1-4"
       style="clip-rule:evenodd;fill-rule:evenodd;stroke-width:1.00211;stroke-linejoin:round;stroke-miterlimit:2"
       sodipodi:nodetypes="cccscsscsccccccscsscsccc" />
  </g>
  <g
     id="22-22-view-history"
     transform="translate(0,32)">
    <path
       d="m 7.1250135,16.182921 2.8757145,5.81921 0.896506,-0.443031 4.026198,-1.989651 a 0.50901147,0.50901147 108.70254 0 0 0.230823,-0.68184 0.50008071,0.50008071 17.670045 0 0 -0.673854,-0.214666 L 10.454202,20.662594 8.0215193,15.739889 A 0.50901092,0.50901092 18.702512 0 0 7.3396798,15.509066 0.5000813,0.5000813 107.67003 0 0 7.1250135,16.182921 Z"
       id="path2"
       style="fill:#dfdfdf;fill-opacity:1"
       inkscape:transform-center-x="-1.1347081"
       inkscape:transform-center-y="-3.3566629"
       inkscape:path-effect="#path-effect2"
       inkscape:original-d="m 6.8995054,15.72659 3.1012226,6.275541 0.896506,-0.443031 4.482529,-2.215159 -0.443031,-0.896506 -4.48253,2.215159 -2.6581908,-5.379036 z" />
    <path
       id="path1"
       d="M 11 13 C 6.5680064 13 3 16.568006 3 21 C 3 25.431994 6.5680064 29 11 29 C 15.431994 29 19 25.431994 19 21 C 19 16.568006 15.431994 13 11 13 z M 11 14 C 14.877995 14 18 17.122005 18 21 C 18 24.877995 14.877995 28 11 28 C 7.1220049 28 4 24.877995 4 21 C 4 17.122005 7.1220049 14 11 14 z "
       style="fill:#dfdfdf;fill-opacity:0.5" />
    <path
       id="path15"
       d="m0 10v22h22v-22h-22z"
       fill="none" />
  </g>
  <g
     id="view-history"
     transform="translate(0,32)">
    <path
       d="m 7.1250135,16.182921 2.8757145,5.81921 0.896506,-0.443031 4.026198,-1.989651 a 0.50901147,0.50901147 108.70254 0 0 0.230823,-0.68184 0.50008071,0.50008071 17.670045 0 0 -0.673854,-0.214666 L 10.454202,20.662594 8.0215193,15.739889 A 0.50901092,0.50901092 18.702512 0 0 7.3396798,15.509066 0.5000813,0.5000813 107.67003 0 0 7.1250135,16.182921 Z"
       id="path2-4"
       style="fill:#dfdfdf;fill-opacity:1"
       inkscape:transform-center-x="-1.7020619"
       inkscape:transform-center-y="-5.0349931"
       inkscape:path-effect="#path-effect2-5"
       inkscape:original-d="m 6.8995054,15.72659 3.1012226,6.275541 0.896506,-0.443031 4.482529,-2.215159 -0.443031,-0.896506 -4.48253,2.215159 -2.6581908,-5.379036 z"
       transform="matrix(1.5000001,0,0,1.5000001,21.412991,-15.5)" />
    <path
       id="path1-0"
       d="m 37.912992,4 c -6.647991,0 -12,5.3520086 -12,11.999999 0,6.647993 5.352009,12.000001 12,12.000001 6.647992,0 12.000001,-5.352008 12.000001,-12.000001 C 49.912993,9.3520086 44.560984,4 37.912992,4 Z m 0,1.5000001 c 5.816992,0 10.500001,4.6830079 10.500001,10.4999989 0,5.816993 -4.683009,10.500001 -10.500001,10.500001 -5.816992,0 -10.5,-4.683008 -10.5,-10.500001 0,-5.816991 4.683008,-10.4999989 10.5,-10.4999989 z"
       style="fill:#dfdfdf;fill-opacity:0.5;stroke-width:1.5" />
    <path
       id="path24"
       d="m22 0v32h32v-32h-32z"
       fill="none" />
  </g>
</svg>
