<?xml version="1.0" encoding="UTF-8" standalone="no"?>
<svg
   id="window"
   viewBox="0 0 32 16"
   version="1.1"
   sodipodi:docname="window.svg"
   inkscape:version="1.3 (0e150ed6c4, 2023-07-21)"
   xmlns:inkscape="http://www.inkscape.org/namespaces/inkscape"
   xmlns:sodipodi="http://sodipodi.sourceforge.net/DTD/sodipodi-0.dtd"
   xmlns="http://www.w3.org/2000/svg"
   xmlns:svg="http://www.w3.org/2000/svg">
  <defs
     id="defs1">
    <inkscape:path-effect
       effect="fillet_chamfer"
       id="path-effect10"
       is_visible="true"
       lpeversion="1"
       nodesatellites_param="F,0,1,1,0,0.49563937,0,1 @ F,0,1,1,0,0.49563937,0,1 @ F,0,0,1,0,0,0,1 @ F,0,0,1,0,0,0,1 @ F,0,0,1,0,0,0,1 @ F,0,0,1,0,0,0,1 @ F,0,0,1,0,0,0,1 @ F,0,0,1,0,0,0,1 @ F,0,0,1,0,0,0,1 @ F,0,0,1,0,0,0,1 @ F,0,0,1,0,0,0,1 @ F,0,0,1,0,0,0,1 @ F,0,0,1,0,0,0,1 @ F,0,0,1,0,0,0,1 @ F,0,0,1,0,0,0,1 @ F,0,0,1,0,0.49563937,0,1 @ F,0,1,1,0,0.49563937,0,1"
       radius="0"
       unit="px"
       method="auto"
       mode="F"
       chamfer_steps="1"
       flexible="false"
       use_knot_distance="true"
       apply_no_radius="true"
       apply_with_radius="true"
       only_selected="false"
       hide_knots="false" />
    <inkscape:path-effect
       effect="fillet_chamfer"
       id="path-effect9"
       is_visible="true"
       lpeversion="1"
       nodesatellites_param="F,0,1,1,0,0.48633401,0,1 @ F,0,1,1,0,0.48633401,0,1 @ F,0,0,1,0,0,0,1 @ F,0,0,1,0,0,0,1 @ F,0,0,1,0,0,0,1 @ F,0,0,1,0,0,0,1 @ F,0,0,1,0,0,0,1 @ F,0,0,1,0,0,0,1 @ F,0,0,1,0,0,0,1 @ F,0,0,1,0,0,0,1 @ F,0,0,1,0,0,0,1 @ F,0,0,1,0,0,0,1 @ F,0,0,1,0,0,0,1 @ F,0,0,1,0,0,0,1 @ F,0,0,1,0,0,0,1 @ F,0,0,1,0,0,0,1 @ F,0,0,1,0,0,0,1 @ F,0,0,1,0,0.48633401,0,1 @ F,0,1,1,0,0.48633401,0,1"
       radius="0"
       unit="px"
       method="auto"
       mode="F"
       chamfer_steps="1"
       flexible="false"
       use_knot_distance="true"
       apply_no_radius="true"
       apply_with_radius="true"
       only_selected="false"
       hide_knots="false" />
    <inkscape:path-effect
       effect="fillet_chamfer"
       id="path-effect8"
       is_visible="true"
       lpeversion="1"
       nodesatellites_param="F,0,0,1,0,0,0,1 @ F,0,0,1,0,0,0,1 @ F,0,0,1,0,0,0,1 @ F,0,0,1,0,0,0,1 | F,0,0,1,0,0,0,1 @ F,0,0,1,0,0,0,1 @ F,0,0,1,0,0,0,1 @ F,0,0,1,0,0,0,1"
       radius="0"
       unit="px"
       method="auto"
       mode="F"
       chamfer_steps="1"
       flexible="false"
       use_knot_distance="true"
       apply_no_radius="true"
       apply_with_radius="true"
       only_selected="false"
       hide_knots="false" />
    <inkscape:path-effect
       effect="fillet_chamfer"
       id="path-effect7"
       is_visible="true"
       lpeversion="1"
       nodesatellites_param="F,0,0,1,0,0,0,1 @ F,0,0,1,0,0,0,1 @ F,0,0,1,0,0,0,1 @ F,0,0,1,0,0,0,1 | F,0,0,1,0,0,0,1 @ F,0,0,1,0,0,0,1 @ F,0,0,1,0,0,0,1 @ F,0,0,1,0,0,0,1"
       radius="0"
       unit="px"
       method="auto"
       mode="F"
       chamfer_steps="1"
       flexible="false"
       use_knot_distance="true"
       apply_no_radius="true"
       apply_with_radius="true"
       only_selected="false"
       hide_knots="false" />
    <inkscape:path-effect
       effect="fillet_chamfer"
       id="path-effect6"
       is_visible="true"
       lpeversion="1"
       nodesatellites_param="F,0,0,1,0,1.6782573,0,1 @ F,0,0,1,0,1.6782573,0,1 @ F,0,0,1,0,1.6782573,0,1 @ F,0,0,1,0,1.6782573,0,1 | F,0,1,1,0,1.1130429,0,1 @ F,0,1,1,0,1.1130429,0,1 @ F,0,1,1,0,1.1130429,0,1 @ F,0,1,1,0,1.1130429,0,1"
       radius="0"
       unit="px"
       method="auto"
       mode="F"
       chamfer_steps="1"
       flexible="false"
       use_knot_distance="true"
       apply_no_radius="true"
       apply_with_radius="true"
       only_selected="false"
       hide_knots="false" />
    <inkscape:path-effect
       effect="fillet_chamfer"
       id="path-effect5"
       is_visible="true"
       lpeversion="1"
       nodesatellites_param="F,0,0,1,0,0,0,1 @ F,0,0,1,0,0,0,1 @ F,0,0,1,0,0,0,1 @ F,0,0,1,0,0,0,1 | F,0,0,1,0,0,0,1 @ F,0,0,1,0,0,0,1 @ F,0,0,1,0,0,0,1 @ F,0,0,1,0,0,0,1"
       radius="0"
       unit="px"
       method="auto"
       mode="F"
       chamfer_steps="1"
       flexible="false"
       use_knot_distance="true"
       apply_no_radius="true"
       apply_with_radius="true"
       only_selected="false"
       hide_knots="false" />
    <inkscape:path-effect
       effect="fillet_chamfer"
       id="path-effect4"
       is_visible="true"
       lpeversion="1"
       nodesatellites_param="F,0,1,1,0,1.7592007,0,1 @ F,0,1,1,0,1.7592007,0,1 @ F,0,1,1,0,1.7592007,0,1 @ F,0,1,1,0,1.7592007,0,1 | F,0,1,1,0,1.7592007,0,1 @ F,0,0,1,0,1.7592007,0,1 @ F,0,1,1,0,1.7592007,0,1 @ F,0,1,1,0,1.7592007,0,1"
       radius="0"
       unit="px"
       method="auto"
       mode="F"
       chamfer_steps="1"
       flexible="false"
       use_knot_distance="true"
       apply_no_radius="true"
       apply_with_radius="true"
       only_selected="false"
       hide_knots="false" />
    <inkscape:path-effect
       effect="fillet_chamfer"
       id="path-effect3"
       is_visible="true"
       lpeversion="1"
       nodesatellites_param="F,0,0,1,0,0,0,1 @ F,0,0,1,0,0,0,1 @ F,0,0,1,0,0,0,1 @ F,0,0,1,0,0,0,1 | F,0,0,1,0,0,0,1 @ F,0,0,1,0,0,0,1 @ F,0,0,1,0,0,0,1 @ F,0,0,1,0,0,0,1"
       radius="0"
       unit="px"
       method="auto"
       mode="F"
       chamfer_steps="1"
       flexible="false"
       use_knot_distance="true"
       apply_no_radius="true"
       apply_with_radius="true"
       only_selected="false"
       hide_knots="false" />
    <inkscape:path-effect
       effect="fillet_chamfer"
       id="path-effect2"
       is_visible="true"
       lpeversion="1"
       nodesatellites_param="F,0,0,1,0,0,0,1 @ F,0,0,1,0,0,0,1 @ F,0,0,1,0,0,0,1 @ F,0,0,1,0,0,0,1 | F,0,0,1,0,0,0,1 @ F,0,0,1,0,0,0,1 @ F,0,0,1,0,0,0,1 @ F,0,0,1,0,0,0,1"
       radius="0"
       unit="px"
       method="auto"
       mode="F"
       chamfer_steps="1"
       flexible="false"
       use_knot_distance="true"
       apply_no_radius="true"
       apply_with_radius="true"
       only_selected="false"
       hide_knots="false" />
    <inkscape:path-effect
       effect="fillet_chamfer"
       id="path-effect1"
       is_visible="true"
       lpeversion="1"
       nodesatellites_param="F,0,0,1,0,0,0,1 @ F,0,0,1,0,0,0,1 @ F,0,0,1,0,0,0,1 @ F,0,0,1,0,0,0,1 | F,0,0,1,0,0,0,1 @ F,0,0,1,0,0,0,1 @ F,0,0,1,0,0,0,1 @ F,0,0,1,0,0,0,1"
       radius="0"
       unit="px"
       method="auto"
       mode="F"
       chamfer_steps="1"
       flexible="false"
       use_knot_distance="true"
       apply_no_radius="true"
       apply_with_radius="true"
       only_selected="false"
       hide_knots="false" />
    <inkscape:path-effect
       effect="fillet_chamfer"
       id="path-effect6-4"
       is_visible="true"
       lpeversion="1"
       nodesatellites_param="F,0,0,1,0,1.6782573,0,1 @ F,0,0,1,0,1.6782573,0,1 @ F,0,0,1,0,1.6782573,0,1 @ F,0,0,1,0,1.6782573,0,1 | F,0,1,1,0,1.1130429,0,1 @ F,0,1,1,0,1.1130429,0,1 @ F,0,1,1,0,1.1130429,0,1 @ F,0,1,1,0,1.1130429,0,1"
       radius="0"
       unit="px"
       method="auto"
       mode="F"
       chamfer_steps="1"
       flexible="false"
       use_knot_distance="true"
       apply_no_radius="true"
       apply_with_radius="true"
       only_selected="false"
       hide_knots="false" />
    <inkscape:path-effect
       effect="fillet_chamfer"
       id="path-effect6-45"
       is_visible="true"
       lpeversion="1"
       nodesatellites_param="F,0,0,1,0,1.6782573,0,1 @ F,0,0,1,0,1.6782573,0,1 @ F,0,0,1,0,1.6782573,0,1 @ F,0,0,1,0,1.6782573,0,1 | F,0,1,1,0,1.1130429,0,1 @ F,0,1,1,0,1.1130429,0,1 @ F,0,1,1,0,1.1130429,0,1 @ F,0,1,1,0,1.1130429,0,1"
       radius="0"
       unit="px"
       method="auto"
       mode="F"
       chamfer_steps="1"
       flexible="false"
       use_knot_distance="true"
       apply_no_radius="true"
       apply_with_radius="true"
       only_selected="false"
       hide_knots="false" />
    <inkscape:path-effect
       effect="fillet_chamfer"
       id="path-effect6-3"
       is_visible="true"
       lpeversion="1"
       nodesatellites_param="F,0,0,1,0,1.6782573,0,1 @ F,0,0,1,0,1.6782573,0,1 @ F,0,0,1,0,1.6782573,0,1 @ F,0,0,1,0,1.6782573,0,1 | F,0,1,1,0,1.1130429,0,1 @ F,0,1,1,0,1.1130429,0,1 @ F,0,1,1,0,1.1130429,0,1 @ F,0,1,1,0,1.1130429,0,1"
       radius="0"
       unit="px"
       method="auto"
       mode="F"
       chamfer_steps="1"
       flexible="false"
       use_knot_distance="true"
       apply_no_radius="true"
       apply_with_radius="true"
       only_selected="false"
       hide_knots="false" />
    <inkscape:path-effect
       effect="fillet_chamfer"
       id="path-effect9-7"
       is_visible="true"
       lpeversion="1"
       nodesatellites_param="F,0,1,1,0,0.48633401,0,1 @ F,0,1,1,0,0.48633401,0,1 @ F,0,0,1,0,0,0,1 @ F,0,0,1,0,0,0,1 @ F,0,0,1,0,0,0,1 @ F,0,0,1,0,0,0,1 @ F,0,0,1,0,0,0,1 @ F,0,0,1,0,0,0,1 @ F,0,0,1,0,0,0,1 @ F,0,0,1,0,0,0,1 @ F,0,0,1,0,0,0,1 @ F,0,0,1,0,0,0,1 @ F,0,0,1,0,0,0,1 @ F,0,0,1,0,0,0,1 @ F,0,0,1,0,0,0,1 @ F,0,0,1,0,0,0,1 @ F,0,0,1,0,0,0,1 @ F,0,0,1,0,0.48633401,0,1 @ F,0,1,1,0,0.48633401,0,1"
       radius="0"
       unit="px"
       method="auto"
       mode="F"
       chamfer_steps="1"
       flexible="false"
       use_knot_distance="true"
       apply_no_radius="true"
       apply_with_radius="true"
       only_selected="false"
       hide_knots="false" />
    <inkscape:path-effect
       effect="fillet_chamfer"
       id="path-effect10-0"
       is_visible="true"
       lpeversion="1"
       nodesatellites_param="F,0,1,1,0,0.49563937,0,1 @ F,0,1,1,0,0.49563937,0,1 @ F,0,0,1,0,0,0,1 @ F,0,0,1,0,0,0,1 @ F,0,0,1,0,0,0,1 @ F,0,0,1,0,0,0,1 @ F,0,0,1,0,0,0,1 @ F,0,0,1,0,0,0,1 @ F,0,0,1,0,0,0,1 @ F,0,0,1,0,0,0,1 @ F,0,0,1,0,0,0,1 @ F,0,0,1,0,0,0,1 @ F,0,0,1,0,0,0,1 @ F,0,0,1,0,0,0,1 @ F,0,0,1,0,0,0,1 @ F,0,0,1,0,0.49563937,0,1 @ F,0,1,1,0,0.49563937,0,1"
       radius="0"
       unit="px"
       method="auto"
       mode="F"
       chamfer_steps="1"
       flexible="false"
       use_knot_distance="true"
       apply_no_radius="true"
       apply_with_radius="true"
       only_selected="false"
       hide_knots="false" />
  </defs>
  <sodipodi:namedview
     id="namedview1"
     pagecolor="#ffffff"
     bordercolor="#000000"
     borderopacity="0.25"
     inkscape:showpageshadow="2"
     inkscape:pageopacity="0.0"
     inkscape:pagecheckerboard="0"
     inkscape:deskcolor="#d1d1d1"
     inkscape:zoom="6.6346505"
     inkscape:cx="40.695437"
     inkscape:cy="-7.4608301"
     inkscape:window-width="2194"
     inkscape:window-height="1211"
     inkscape:window-x="-8"
     inkscape:window-y="-8"
     inkscape:window-maximized="1"
     inkscape:current-layer="window-list" />
  <style
     id="current-color-scheme"
     type="text/css">.ColorScheme-Text { color:#232629; }&#10;</style>
  <g
     id="window-list"
     transform="translate(-286 -545.36218)">
    <path
       id="rect3004"
       d="m286 561.36218h32v32h-32z"
       fill="#333"
       opacity="0" />
    <path
       id="rect3014-5"
       d="m 304,581.04046 v 6.64348 a 1.6782573,1.6782573 45 0 0 1.67826,1.67826 h 6.64348 A 1.6782573,1.6782573 135 0 0 314,587.68394 v -6.64348 a 1.6782573,1.6782573 45 0 0 -1.67826,-1.67826 h -6.64348 A 1.6782573,1.6782573 135 0 0 304,581.04046 Z m 2.48985,-0.30145 h 5.0203 a 1.1130429,1.1130429 45 0 1 1.11304,1.11304 v 5.0203 a 1.1130429,1.1130429 135 0 1 -1.11304,1.11304 h -5.0203 a 1.1130429,1.1130429 45 0 1 -1.11304,-1.11304 v -5.0203 a 1.1130429,1.1130429 135 0 1 1.11304,-1.11304 z"
       class="ColorScheme-Text"
       fill="currentColor"
       sodipodi:nodetypes="cccccccccc"
       style="color:#232629;fill:#dfdfdf;fill-opacity:1"
       transform="translate(-14,-14)" />
    <path
       id="rect3014-0"
       d="m 304,581.04046 v 6.64348 a 1.6782573,1.6782573 45 0 0 1.67826,1.67826 h 6.64348 A 1.6782573,1.6782573 135 0 0 314,587.68394 v -6.64348 a 1.6782573,1.6782573 45 0 0 -1.67826,-1.67826 h -6.64348 A 1.6782573,1.6782573 135 0 0 304,581.04046 Z m 2.48985,-0.30145 h 5.0203 a 1.1130429,1.1130429 45 0 1 1.11304,1.11304 v 5.0203 a 1.1130429,1.1130429 135 0 1 -1.11304,1.11304 h -5.0203 a 1.1130429,1.1130429 45 0 1 -1.11304,-1.11304 v -5.0203 a 1.1130429,1.1130429 135 0 1 1.11304,-1.11304 z"
       class="ColorScheme-Text"
       fill="currentColor"
       sodipodi:nodetypes="cccccccccc"
       style="color:#232629;fill:#dfdfdf;fill-opacity:1"
       transform="translate(0,-14)" />
    <path
       id="rect3014"
       d="m 304,581.04046 v 6.64348 a 1.6782573,1.6782573 45 0 0 1.67826,1.67826 h 6.64348 A 1.6782573,1.6782573 135 0 0 314,587.68394 v -6.64348 a 1.6782573,1.6782573 45 0 0 -1.67826,-1.67826 h -6.64348 A 1.6782573,1.6782573 135 0 0 304,581.04046 Z m 2.48985,-0.30145 h 5.0203 a 1.1130429,1.1130429 45 0 1 1.11304,1.11304 v 5.0203 a 1.1130429,1.1130429 135 0 1 -1.11304,1.11304 h -5.0203 a 1.1130429,1.1130429 45 0 1 -1.11304,-1.11304 v -5.0203 a 1.1130429,1.1130429 135 0 1 1.11304,-1.11304 z"
       class="ColorScheme-Text"
       fill="currentColor"
       sodipodi:nodetypes="cccccccccc"
       style="fill:#dfdfdf;fill-opacity:1" />
    <path
       id="rect3014-6"
       d="m 304,581.04046 v 6.64348 a 1.6782573,1.6782573 45 0 0 1.67826,1.67826 h 6.64348 A 1.6782573,1.6782573 135 0 0 314,587.68394 v -6.64348 a 1.6782573,1.6782573 45 0 0 -1.67826,-1.67826 h -6.64348 A 1.6782573,1.6782573 135 0 0 304,581.04046 Z m 2.48985,-0.30145 h 5.0203 a 1.1130429,1.1130429 45 0 1 1.11304,1.11304 v 5.0203 a 1.1130429,1.1130429 135 0 1 -1.11304,1.11304 h -5.0203 a 1.1130429,1.1130429 45 0 1 -1.11304,-1.11304 v -5.0203 a 1.1130429,1.1130429 135 0 1 1.11304,-1.11304 z"
       class="ColorScheme-Text"
       fill="currentColor"
       sodipodi:nodetypes="cccccccccc"
       style="color:#232629;fill:#dfdfdf;fill-opacity:1"
       transform="translate(-14)" />
  </g>
  <g
     id="16-16-window-pin">
    <path
       id="rect847"
       d="m0 0h16v16h-16z"
       fill="none" />
    <path
       id="path3-3-7"
       d="m 10.14953,2.1434388 -0.0061,0.00609 A 0.86486879,0.86486879 105.18382 0 0 9.9181751,2.9795641 L 10,3.292969 6.7213587,7.566999 C 6.1984843,7.3061847 5.6224312,7.1696732 5.0381203,7.1681098 L 4.8145941,7.3916359 6.2929688,9 3,12.292969 V 13 H 3.7070312 L 7,9.7070312 8.6083641,11.185406 8.8318903,10.96188 C 8.8303269,10.377569 8.6938154,9.801516 8.433001,9.2786413 L 12.707031,6 13.020436,6.0818249 A 0.86486865,0.86486865 164.81617 0 0 13.85047,5.8565612 l 0.0061,-0.00609 a 0.49563945,0.49563945 89.999997 0 0 0,-0.70094 L 10.85047,2.1434388 a 0.49563936,0.49563936 7.7279879e-7 0 0 -0.70094,0 z"
       class="ColorScheme-Text"
       fill="currentColor"
       sodipodi:nodetypes="cccccccccccccccccc"
       style="color:#3daee9;fill:#dfdfdf;fill-opacity:0.25" />
  </g>
  <g
     id="window-pin"
     transform="translate(-22 -6)">
    <path
       id="rect838"
       d="m0 0h22v22h-22z"
       fill="none" />
    <path
       id="path1140-0-2"
       d="m 14.15611,3.1368589 -0.01925,0.019251 A 0.78690508,0.78690508 103.28252 0 0 13.946761,3.961377 L 14.292969,5 9.5200851,10.466454 C 8.8578176,10.123423 8.1231642,9.9436194 7.3773317,9.942024 H 6.8514495 L 6.588508,10.204965 8.792969,12.5 3,18.292969 V 19 H 3.707031 L 9.5,13.207031 l 2.295034,2.204461 0.262942,-0.262942 v -0.525882 c -0.0016,-0.745832 -0.181398,-1.480485 -0.52443,-2.142753 L 17,7.7070312 18.038623,8.0532389 A 0.78690483,0.78690483 166.71747 0 0 18.84389,7.8631411 l 0.01925,-0.019251 a 0.48633409,0.48633409 89.999997 0 0 0,-0.6877802 L 14.84389,3.1368589 a 0.48633393,0.48633393 180 0 0 -0.68778,0 z"
       class="ColorScheme-Text"
       fill="currentColor"
       stroke-linecap="square"
       stroke-miterlimit="0"
       sodipodi:nodetypes="cccccccccccccccccccc"
       style="color:#3daee9;fill:#dfdfdf;fill-opacity:0.25"
       transform="translate(-0.00558488,-0.06842944)" />
  </g>
  <g
     id="16-16-window-unpin"
     transform="translate(16)">
    <path
       id="rect847-9"
       d="m0 0h16v16h-16z"
       fill="none" />
    <path
       id="path3-3"
       d="m 10.14953,2.1434388 -0.0061,0.00609 A 0.86486879,0.86486879 105.18382 0 0 9.9181751,2.9795641 L 10,3.292969 6.7213587,7.566999 C 6.1984843,7.3061847 5.6224312,7.1696732 5.0381203,7.1681098 L 4.8145941,7.3916359 6.2929688,9 3,12.292969 V 13 H 3.7070312 L 7,9.7070312 8.6083641,11.185406 8.8318903,10.96188 C 8.8303269,10.377569 8.6938154,9.801516 8.433001,9.2786413 L 12.707031,6 13.020436,6.0818249 A 0.86486865,0.86486865 164.81617 0 0 13.85047,5.8565612 l 0.0061,-0.00609 a 0.49563945,0.49563945 89.999997 0 0 0,-0.70094 L 10.85047,2.1434388 a 0.49563936,0.49563936 7.7279879e-7 0 0 -0.70094,0 z"
       class="ColorScheme-Text"
       fill="currentColor"
       sodipodi:nodetypes="cccccccccccccccccc"
       style="fill:#dfdfdf;fill-opacity:1" />
  </g>
  <g
     id="window-unpin"
     transform="translate(32 -6)">
    <path
       id="path1140-0"
       d="m 14.15611,3.1368589 -0.01925,0.019251 A 0.78690508,0.78690508 103.28252 0 0 13.946761,3.961377 L 14.292969,5 9.5200851,10.466454 C 8.8578176,10.123423 8.1231642,9.9436194 7.3773317,9.942024 H 6.8514495 L 6.588508,10.204965 8.792969,12.5 3,18.292969 V 19 H 3.707031 L 9.5,13.207031 l 2.295034,2.204461 0.262942,-0.262942 v -0.525882 c -0.0016,-0.745832 -0.181398,-1.480485 -0.52443,-2.142753 L 17,7.7070312 18.038623,8.0532389 A 0.78690483,0.78690483 166.71747 0 0 18.84389,7.8631411 l 0.01925,-0.019251 a 0.48633409,0.48633409 89.999997 0 0 0,-0.6877802 L 14.84389,3.1368589 a 0.48633393,0.48633393 180 0 0 -0.68778,0 z"
       class="ColorScheme-Text"
       fill="currentColor"
       stroke-linecap="square"
       stroke-miterlimit="0"
       sodipodi:nodetypes="cccccccccccccccccccc"
       style="fill:#dfdfdf;fill-opacity:1" />
    <path
       id="rect838-6"
       d="m0 0h22v22h-22z"
       fill="none" />
  </g>
  <path
     id="8-8-window-pin"
     d="M 5.292969,-8 5,-7.7070312 5.292969,-7 3.3584985,-4.5252199 2.2745418,-5.2086998 1.7913002,-4.7254582 2.792969,-3.5 0,-0.7070312 V 0 H 0.7070312 L 3.5,-2.7929688 4.7254583,-1.7913002 5.2086998,-2.2745418 4.5252199,-3.3584983 7,-5.2929688 7.707031,-5 8,-5.2929688 V -5.7070312 L 5.707031,-8 Z"
     class="ColorScheme-Text"
     fill="currentColor"
     stroke-miterlimit="0"
     sodipodi:nodetypes="cccccccccccccccccccc"
     style="fill:#dfdfdf;fill-opacity:0.25" />
  <path
     id="8-8-window-unpin"
     d="M 24.292969,-8 24,-7.7070312 24.292969,-7 22.360059,-4.5139156 21.288054,-5.1898593 20.810141,-4.711946 21.792969,-3.5 19,-0.7070312 V 0 h 0.707031 L 22.5,-2.7929688 23.711946,-1.8101407 24.189859,-2.288054 23.513916,-3.3600586 26,-5.2929688 26.707031,-5 27,-5.2929688 V -5.7070312 L 24.707031,-8 Z"
     class="ColorScheme-Text"
     fill="currentColor"
     stroke-miterlimit="0"
     sodipodi:nodetypes="cccccccccccccccccccc"
     style="fill:#dfdfdf;fill-opacity:1" />
</svg>
