<?xml version="1.0" encoding="UTF-8" standalone="no"?>
<!-- Created with Inkscape (http://www.inkscape.org/) -->

<svg
   width="45.999996"
   height="44"
   id="svg7229"
   sodipodi:version="0.32"
   inkscape:version="1.3 (0e150ed6c4, 2023-07-21)"
   version="1.0"
   sodipodi:docname="zoom.svg"
   inkscape:output_extension="org.inkscape.output.svgz.inkscape"
   viewBox="0 0 45.999996 44"
   xmlns:inkscape="http://www.inkscape.org/namespaces/inkscape"
   xmlns:sodipodi="http://sodipodi.sourceforge.net/DTD/sodipodi-0.dtd"
   xmlns="http://www.w3.org/2000/svg"
   xmlns:svg="http://www.w3.org/2000/svg"
   xmlns:rdf="http://www.w3.org/1999/02/22-rdf-syntax-ns#"
   xmlns:cc="http://creativecommons.org/ns#"
   xmlns:dc="http://purl.org/dc/elements/1.1/">
  <defs
     id="defs7231">
    <inkscape:path-effect
       effect="fillet_chamfer"
       id="path-effect1"
       is_visible="true"
       lpeversion="1"
       nodesatellites_param="F,0,1,1,0,0.486699,0,1 @ F,0,1,1,0,0.486699,0,1 @ F,0,0,1,0,0,0,1 @ F,0,1,1,0,0.486699,0,1 @ F,0,1,1,0,0.486699,0,1 | F,0,0,1,0,0,0,1 @ F,0,0,1,0,0,0,1 @ F,0,0,1,0,0,0,1 @ F,0,0,1,0,0,0,1 @ F,0,0,1,0,0,0,1 @ F,0,0,1,0,0,0,1 @ F,0,1,1,0,0.486699,0,1 @ F,0,1,1,0,0.486699,0,1 @ F,0,0,1,0,0.486699,0,1 @ F,0,1,1,0,0.486699,0,1 @ F,0,0,1,0,0,0,1 @ F,0,0,1,0,0,0,1 @ F,0,0,1,0,0,0,1 @ F,0,0,1,0,0,0,1 @ F,0,0,1,0,0,0,1 @ F,0,0,1,0,0,0,1"
       radius="0"
       unit="px"
       method="auto"
       mode="F"
       chamfer_steps="1"
       flexible="false"
       use_knot_distance="true"
       apply_no_radius="true"
       apply_with_radius="true"
       only_selected="false"
       hide_knots="false" />
    <style
       id="current-color-scheme"
       type="text/css">&#10;      .ColorScheme-Text {&#10;        color:#000000;&#10;      }&#10;      .ColorScheme-Background{&#10;        color:#E9E8E8;&#10;      }&#10;      .ColorScheme-ViewText {&#10;        color:#000000;&#10;      }&#10;      .ColorScheme-ViewBackground{&#10;        color:#ffffff;&#10;      }&#10;      .ColorScheme-ViewHover {&#10;        color:#000000;&#10;      }&#10;      .ColorScheme-ViewFocus{&#10;        color:#5a5a5a;&#10;      }&#10;      .ColorScheme-ButtonText {&#10;        color:#000000;&#10;      }&#10;      .ColorScheme-ButtonBackground{&#10;        color:#E9E8E8;&#10;      }&#10;      .ColorScheme-ButtonHover {&#10;        color:#1489ff;&#10;      }&#10;      .ColorScheme-ButtonFocus{&#10;        color:#2B74C7;&#10;      }&#10;</style>
    <style
       type="text/css"
       id="style1">&#10;      .ColorScheme-Text {&#10;        color:#31363b;&#10;      }&#10;      .ColorScheme-Background {&#10;        color:#eff0f1;&#10;      }&#10;      .ColorScheme-Highlight {&#10;        color:#3daee9;&#10;      }&#10;      .ColorScheme-ViewText {&#10;        color:#31363b;&#10;      }&#10;      .ColorScheme-ViewBackground {&#10;        color:#fcfcfc;&#10;      }&#10;      .ColorScheme-ViewHover {&#10;        color:#93cee9;&#10;      }&#10;      .ColorScheme-ViewFocus{&#10;        color:#3daee9;&#10;      }&#10;      .ColorScheme-ButtonText {&#10;        color:#31363b;&#10;      }&#10;      .ColorScheme-ButtonBackground {&#10;        color:#eff0f1;&#10;      }&#10;      .ColorScheme-ButtonHover {&#10;        color:#93cee9;&#10;      }&#10;      .ColorScheme-ButtonFocus{&#10;        color:#3daee9;&#10;      }&#10;      </style>
    <inkscape:path-effect
       effect="fillet_chamfer"
       id="path-effect1-8"
       is_visible="true"
       lpeversion="1"
       nodesatellites_param="F,0,1,1,0,0.486699,0,1 @ F,0,1,1,0,0.486699,0,1 @ F,0,0,1,0,0,0,1 @ F,0,1,1,0,0.486699,0,1 @ F,0,1,1,0,0.486699,0,1 | F,0,0,1,0,0,0,1 @ F,0,0,1,0,0,0,1 @ F,0,0,1,0,0,0,1 @ F,0,0,1,0,0,0,1 @ F,0,0,1,0,0,0,1 @ F,0,0,1,0,0,0,1 @ F,0,1,1,0,0.486699,0,1 @ F,0,1,1,0,0.486699,0,1 @ F,0,0,1,0,0.486699,0,1 @ F,0,1,1,0,0.486699,0,1 @ F,0,0,1,0,0,0,1 @ F,0,0,1,0,0,0,1 @ F,0,0,1,0,0,0,1 @ F,0,0,1,0,0,0,1 @ F,0,0,1,0,0,0,1 @ F,0,0,1,0,0,0,1"
       radius="0"
       unit="px"
       method="auto"
       mode="F"
       chamfer_steps="1"
       flexible="false"
       use_knot_distance="true"
       apply_no_radius="true"
       apply_with_radius="true"
       only_selected="false"
       hide_knots="false" />
    <inkscape:path-effect
       effect="fillet_chamfer"
       id="path-effect1-8-7"
       is_visible="true"
       lpeversion="1"
       nodesatellites_param="F,0,1,1,0,0.486699,0,1 @ F,0,1,1,0,0.486699,0,1 @ F,0,0,1,0,0,0,1 @ F,0,1,1,0,0.486699,0,1 @ F,0,1,1,0,0.486699,0,1 | F,0,0,1,0,0,0,1 @ F,0,0,1,0,0,0,1 @ F,0,0,1,0,0,0,1 @ F,0,0,1,0,0,0,1 @ F,0,0,1,0,0,0,1 @ F,0,0,1,0,0,0,1 @ F,0,1,1,0,0.486699,0,1 @ F,0,1,1,0,0.486699,0,1 @ F,0,0,1,0,0.486699,0,1 @ F,0,1,1,0,0.486699,0,1 @ F,0,0,1,0,0,0,1 @ F,0,0,1,0,0,0,1 @ F,0,0,1,0,0,0,1 @ F,0,0,1,0,0,0,1 @ F,0,0,1,0,0,0,1 @ F,0,0,1,0,0,0,1"
       radius="0"
       unit="px"
       method="auto"
       mode="F"
       chamfer_steps="1"
       flexible="false"
       use_knot_distance="true"
       apply_no_radius="true"
       apply_with_radius="true"
       only_selected="false"
       hide_knots="false" />
    <inkscape:path-effect
       effect="fillet_chamfer"
       id="path-effect1-81"
       is_visible="true"
       lpeversion="1"
       nodesatellites_param="F,0,1,1,0,0.486699,0,1 @ F,0,1,1,0,0.486699,0,1 @ F,0,0,1,0,0,0,1 @ F,0,1,1,0,0.486699,0,1 @ F,0,1,1,0,0.486699,0,1 | F,0,0,1,0,0,0,1 @ F,0,0,1,0,0,0,1 @ F,0,0,1,0,0,0,1 @ F,0,0,1,0,0,0,1 @ F,0,0,1,0,0,0,1 @ F,0,0,1,0,0,0,1 @ F,0,1,1,0,0.486699,0,1 @ F,0,1,1,0,0.486699,0,1 @ F,0,0,1,0,0.486699,0,1 @ F,0,1,1,0,0.486699,0,1 @ F,0,0,1,0,0,0,1 @ F,0,0,1,0,0,0,1 @ F,0,0,1,0,0,0,1 @ F,0,0,1,0,0,0,1 @ F,0,0,1,0,0,0,1 @ F,0,0,1,0,0,0,1"
       radius="0"
       unit="px"
       method="auto"
       mode="F"
       chamfer_steps="1"
       flexible="false"
       use_knot_distance="true"
       apply_no_radius="true"
       apply_with_radius="true"
       only_selected="false"
       hide_knots="false" />
  </defs>
  <sodipodi:namedview
     id="base"
     pagecolor="#ffffff"
     bordercolor="#666666"
     borderopacity="1.0"
     inkscape:pageopacity="0"
     inkscape:pageshadow="2"
     inkscape:zoom="16.000001"
     inkscape:cx="26.156249"
     inkscape:cy="13.468749"
     inkscape:document-units="px"
     inkscape:current-layer="layer1"
     showgrid="true"
     inkscape:window-width="2194"
     inkscape:window-height="1211"
     inkscape:window-x="-8"
     inkscape:window-y="-8"
     showguides="true"
     inkscape:guide-bbox="true"
     gridtolerance="6"
     inkscape:window-maximized="1"
     inkscape:snap-bbox="true"
     inkscape:snap-bbox-edge-midpoints="false"
     inkscape:bbox-nodes="false"
     inkscape:bbox-paths="false"
     inkscape:snap-bbox-midpoints="false"
     inkscape:object-paths="true"
     inkscape:snap-intersection-paths="true"
     inkscape:object-nodes="true"
     fit-margin-top="0"
     fit-margin-left="0"
     fit-margin-right="0"
     fit-margin-bottom="0"
     inkscape:snap-nodes="true"
     inkscape:showpageshadow="false"
     borderlayer="true"
     inkscape:pagecheckerboard="0"
     inkscape:deskcolor="#d1d1d1">
    <inkscape:grid
       type="xygrid"
       id="grid7245"
       visible="true"
       enabled="true"
       empspacing="5"
       snapvisiblegridlinesonly="true"
       originx="-63.012512px"
       originy="-13.999998px"
       spacingy="1"
       spacingx="1"
       units="px" />
  </sodipodi:namedview>
  <metadata
     id="metadata7234">
    <rdf:RDF>
      <cc:Work
         rdf:about="">
        <dc:format>image/svg+xml</dc:format>
        <dc:type
           rdf:resource="http://purl.org/dc/dcmitype/StillImage" />
        <dc:title />
      </cc:Work>
    </rdf:RDF>
  </metadata>
  <g
     inkscape:label="Camada 1"
     inkscape:groupmode="layer"
     id="layer1"
     transform="translate(-277.54823,-368.50505)">
    <g
       id="zoom-fit-height"
       transform="translate(25.012515,25.000004)">
      <rect
         transform="translate(252.5232,365.50504)"
         y="4e-06"
         x="0.012515"
         height="22"
         width="22"
         id="rect3046"
         style="fill:#566060;fill-opacity:0;stroke:none" />
      <path
         style="color:#31363b;fill:#dfdfdf;fill-opacity:1;stroke:none"
         d="m 256.5232,369.99174 v 0.0266 a 0.486699,0.486699 45 0 0 0.4867,0.4867 h 6.5133 6.5133 a 0.486699,0.486699 135 0 0 0.4867,-0.4867 v -0.0266 a 0.486699,0.486699 45 0 0 -0.4867,-0.4867 h -13.0266 a 0.486699,0.486699 135 0 0 -0.4867,0.4867 z m 7,0.5133 -2,2 h 1 v 8.03125 h -1 l 1.96875,1.96875 h -6.4508 a 0.486699,0.486699 135 0 0 -0.4867,0.4867 v 0.0266 a 0.486699,0.486699 45 0 0 0.4867,0.4867 h 12.99535 a 0.486699,0.486699 135 0 0 0.4867,-0.4867 v -0.0266 a 0.486699,0.486699 45 0 0 -0.4867,-0.4867 h -6.48205 l 1.96875,-1.96875 -1.03125,-0.0312 v -7.96875 l 1.03125,-0.0312 -2,-2 z"
         id="path3849-4"
         inkscape:connector-curvature="0"
         class="ColorScheme-Text"
         sodipodi:nodetypes="ccccccccccccccccccccccc"
         inkscape:path-effect="#path-effect1-8"
         inkscape:original-d="m 256.5232,369.50504 v 1 h 7 7 v -1 z m 7,1 -2,2 h 1 v 8.03125 h -1 l 1.96875,1.96875 h -6.9375 v 1 h 13.96875 v -1 h -6.96875 l 1.96875,-1.96875 -1.03125,-0.0312 v -7.96875 l 1.03125,-0.0312 -2,-2 z"
         transform="matrix(-1.4285703,0,0,-1.4285703,639.98462,914.36896)" />
    </g>
    <g
       transform="rotate(90,275.54197,413.5113)"
       id="zoom-fit-width">
      <path
         style="color:#31363b;fill:#dfdfdf;fill-opacity:1;stroke:none"
         d="m 256.5232,369.99174 v 0.0266 a 0.486699,0.486699 45 0 0 0.4867,0.4867 h 6.5133 6.5133 a 0.486699,0.486699 135 0 0 0.4867,-0.4867 v -0.0266 a 0.486699,0.486699 45 0 0 -0.4867,-0.4867 h -13.0266 a 0.486699,0.486699 135 0 0 -0.4867,0.4867 z m 7,0.5133 -2,2 h 1 v 8.03125 h -1 l 1.96875,1.96875 h -6.4508 a 0.486699,0.486699 135 0 0 -0.4867,0.4867 v 0.0266 a 0.486699,0.486699 45 0 0 0.4867,0.4867 h 12.99535 a 0.486699,0.486699 135 0 0 0.4867,-0.4867 v -0.0266 a 0.486699,0.486699 45 0 0 -0.4867,-0.4867 h -6.48205 l 1.96875,-1.96875 -1.03125,-0.0312 v -7.96875 l 1.03125,-0.0312 -2,-2 z"
         id="path3849-4-0"
         inkscape:connector-curvature="0"
         class="ColorScheme-Text"
         sodipodi:nodetypes="ccccccccccccccccccccccc"
         inkscape:path-effect="#path-effect1-8-7"
         inkscape:original-d="m 256.5232,369.50504 v 1 h 7 7 v -1 z m 7,1 -2,2 h 1 v 8.03125 h -1 l 1.96875,1.96875 h -6.9375 v 1 h 13.96875 v -1 h -6.96875 l 1.96875,-1.96875 -1.03125,-0.0312 v -7.96875 l 1.03125,-0.0312 -2,-2 z"
         transform="matrix(-1.4285703,0,0,-1.4285703,639.99714,914.38147)" />
      <rect
         style="fill:#566060;fill-opacity:0;stroke:none"
         id="rect3827"
         width="22"
         height="22"
         x="0.012515"
         y="4e-06"
         transform="translate(252.5232,365.50504)" />
    </g>
    <g
       id="16-16-zoom-fit-height"
       transform="translate(45.012518,6e-6)">
      <path
         style="color:#31363b;fill:#dfdfdf;fill-opacity:1;stroke:none"
         d="m 256.5232,369.99174 v 0.0266 a 0.486699,0.486699 45 0 0 0.4867,0.4867 h 6.5133 6.5133 a 0.486699,0.486699 135 0 0 0.4867,-0.4867 v -0.0266 a 0.486699,0.486699 45 0 0 -0.4867,-0.4867 h -13.0266 a 0.486699,0.486699 135 0 0 -0.4867,0.4867 z m 7,0.5133 -2,2 h 1 v 8.03125 h -1 l 1.96875,1.96875 h -6.4508 a 0.486699,0.486699 135 0 0 -0.4867,0.4867 v 0.0266 a 0.486699,0.486699 45 0 0 0.4867,0.4867 h 12.99535 a 0.486699,0.486699 135 0 0 0.4867,-0.4867 v -0.0266 a 0.486699,0.486699 45 0 0 -0.4867,-0.4867 h -6.48205 l 1.96875,-1.96875 -1.03125,-0.0312 v -7.96875 l 1.03125,-0.0312 -2,-2 z"
         id="path3849-0"
         inkscape:connector-curvature="0"
         class="ColorScheme-Text"
         sodipodi:nodetypes="ccccccccccccccccccccccc"
         inkscape:path-effect="#path-effect1-81"
         inkscape:original-d="m 256.5232,369.50504 v 1 h 7 7 v -1 z m 7,1 -2,2 h 1 v 8.03125 h -1 l 1.96875,1.96875 h -6.9375 v 1 h 13.96875 v -1 h -6.96875 l 1.96875,-1.96875 -1.03125,-0.0312 v -7.96875 l 1.03125,-0.0312 -2,-2 z" />
      <rect
         transform="translate(255.5232,368.50504)"
         y="6.0000002e-06"
         x="0.012518"
         height="16"
         width="16"
         id="rect3841"
         style="fill:#566060;fill-opacity:0;stroke:none" />
    </g>
    <g
       id="16-16-zoom-fit-width"
       transform="rotate(90,275.53572,388.50505)">
      <path
         style="fill:#dfdfdf;fill-opacity:1;stroke:none"
         d="m 256.5232,369.99174 v 0.0266 a 0.486699,0.486699 45 0 0 0.4867,0.4867 h 6.5133 6.5133 a 0.486699,0.486699 135 0 0 0.4867,-0.4867 v -0.0266 a 0.486699,0.486699 45 0 0 -0.4867,-0.4867 h -13.0266 a 0.486699,0.486699 135 0 0 -0.4867,0.4867 z m 7,0.5133 -2,2 h 1 v 8.03125 h -1 l 1.96875,1.96875 h -6.4508 a 0.486699,0.486699 135 0 0 -0.4867,0.4867 v 0.0266 a 0.486699,0.486699 45 0 0 0.4867,0.4867 h 12.99535 a 0.486699,0.486699 135 0 0 0.4867,-0.4867 v -0.0266 a 0.486699,0.486699 45 0 0 -0.4867,-0.4867 h -6.48205 l 1.96875,-1.96875 -1.03125,-0.0312 v -7.96875 l 1.03125,-0.0312 -2,-2 z"
         id="path3849"
         inkscape:connector-curvature="0"
         class="ColorScheme-Text"
         sodipodi:nodetypes="ccccccccccccccccccccccc"
         inkscape:path-effect="#path-effect1"
         inkscape:original-d="m 256.5232,369.50504 v 1 h 7 7 v -1 z m 7,1 -2,2 h 1 v 8.03125 h -1 l 1.96875,1.96875 h -6.9375 v 1 h 13.96875 v -1 h -6.96875 l 1.96875,-1.96875 -1.03125,-0.0312 v -7.96875 l 1.03125,-0.0312 -2,-2 z" />
      <rect
         style="fill:#566060;fill-opacity:0;stroke:none"
         id="rect3851"
         width="16"
         height="16"
         x="0.012518"
         y="6.0000002e-06"
         transform="translate(255.5232,368.50504)" />
    </g>
  </g>
</svg>
