<?xml version="1.0" encoding="UTF-8" standalone="no"?>
<!-- Created with Inkscape (http://www.inkscape.org/) -->

<svg
   width="24"
   height="24"
   id="svg4428"
   version="1.1"
   inkscape:version="1.3 (0e150ed6c4, 2023-07-21)"
   sodipodi:docname="close.svg"
   xml:space="preserve"
   xmlns:inkscape="http://www.inkscape.org/namespaces/inkscape"
   xmlns:sodipodi="http://sodipodi.sourceforge.net/DTD/sodipodi-0.dtd"
   xmlns:xlink="http://www.w3.org/1999/xlink"
   xmlns="http://www.w3.org/2000/svg"
   xmlns:svg="http://www.w3.org/2000/svg"
   xmlns:rdf="http://www.w3.org/1999/02/22-rdf-syntax-ns#"
   xmlns:cc="http://creativecommons.org/ns#"
   xmlns:dc="http://purl.org/dc/elements/1.1/"><defs
     id="defs4430" /><sodipodi:namedview
     id="base"
     pagecolor="#eff0f1"
     bordercolor="#666666"
     borderopacity="1.0"
     inkscape:pageopacity="1"
     inkscape:pageshadow="2"
     inkscape:zoom="4.3272609"
     inkscape:cx="52.227034"
     inkscape:cy="3.1197564"
     inkscape:document-units="px"
     inkscape:current-layer="g6-97-7-3"
     showgrid="true"
     inkscape:snap-bbox="true"
     inkscape:window-width="2194"
     inkscape:window-height="1211"
     inkscape:window-x="-8"
     inkscape:window-y="-8"
     inkscape:window-maximized="1"
     showborder="true"
     inkscape:showpageshadow="false"
     inkscape:snap-nodes="false"
     inkscape:bbox-nodes="true"
     inkscape:snap-bbox-edge-midpoints="false"
     inkscape:snap-global="false"
     inkscape:pagecheckerboard="0"
     inkscape:deskcolor="#d1d1d1"><inkscape:grid
       type="xygrid"
       id="grid4436"
       empspacing="5"
       visible="true"
       enabled="true"
       snapvisiblegridlinesonly="true"
       originx="0"
       originy="0"
       spacingx="1.0666667"
       spacingy="1.0666667"
       units="px" /></sodipodi:namedview><metadata
     id="metadata4433"><rdf:RDF><cc:Work
         rdf:about=""><dc:format>image/svg+xml</dc:format><dc:type
           rdf:resource="http://purl.org/dc/dcmitype/StillImage" /><dc:title /></cc:Work></rdf:RDF></metadata><g
     inkscape:label="Layer 1"
     inkscape:groupmode="layer"
     id="layer1"
     transform="translate(0,-1098.5197)"><g
       id="4"
       inkscape:label="#g3842"
       transform="translate(86.4,-3.2)" /><g
       transform="translate(-286.87288,1376.6524)"
       style="display:inline"
       id="active-center"
       inkscape:label="#active-center"><rect
         style="opacity:0;fill:#000000;fill-opacity:1;stroke:none;stroke-width:0.47432083;stroke-linejoin:miter;stroke-miterlimit:4;stroke-dasharray:none;stroke-opacity:1;paint-order:markers stroke fill"
         id="rect1569-36-2"
         width="16"
         height="16"
         x="293"
         y="-242.63782"
         ry="1.6930764e-05" /><g
         inkscape:label="#g841"
         transform="translate(294,-241.63782)"
         id="titlebutton-close-1-7-1"
         style="enable-background:new"><g
           transform="translate(-4.9999997,-1033.3622)"
           id="g6-53-7"><path
             style="display:none;fill:#00a1ce;fill-opacity:1;fill-rule:evenodd;stroke:none"
             d="m 12.000061,1047.3622 c 3.865929,0 6.999939,-3.134 6.999939,-7 0,-3.866 -3.13401,-7 -6.999939,-7 -3.8660427,0 -7.0000616,3.134 -7.0000616,7 0,3.866 3.1340189,7 7.0000616,7"
             id="path2-56-8"
             inkscape:connector-curvature="0" /><path
             d="m 11.999811,1039.433 3.223,-3.259 c 0.252,-0.255 0.664,-0.257 0.919,0 0.255,0.252 0.258,0.664 0.005,0.919 l -3.232,3.269 3.232,3.269 c 0.253,0.255 0.25,0.667 -0.005,0.919 -0.255,0.253 -0.667,0.25 -0.919,0 l -3.223,-3.258 -3.2220002,3.258 c -0.253,0.255 -0.664,0.258 -0.92,0 -0.255,-0.252 -0.257,-0.664 -0.005,-0.919 l 3.2330002,-3.269 -3.2330002,-3.269 c -0.252,-0.255 -0.25,-0.667 0.005,-0.919 0.256,-0.252 0.667,-0.25 0.92,0 z"
             id="path1-4"
             style="clip-rule:evenodd;display:inline;fill-rule:evenodd;stroke-linejoin:round;stroke-miterlimit:2;enable-background:new"
             fill="#dfdfdf" /></g></g></g><g
       transform="translate(-289.32297,1313.0314)"
       style="display:inline"
       id="inactive-center"
       inkscape:label="#inactive-center"><rect
         ry="1.6930764e-05"
         y="-268.63782"
         x="293"
         height="16"
         width="16"
         id="rect1561-02-6"
         style="opacity:0;fill:#000000;fill-opacity:1;stroke:none;stroke-width:0.47432083;stroke-linejoin:miter;stroke-miterlimit:4;stroke-dasharray:none;stroke-opacity:1;paint-order:markers stroke fill" /><g
         inkscape:label="#g965"
         transform="translate(294,-267.63782)"
         id="titlebutton-close-backdrop-1-3-4"
         style="enable-background:new"><g
           transform="translate(-4.9999997,-1033.3622)"
           id="g6-97-7-3"><path
             style="display:none;fill:#5d5d5d;fill-opacity:1;fill-rule:evenodd;stroke:none"
             d="m 12.000061,1047.3622 c 3.865929,0 6.999939,-3.134 6.999939,-7 0,-3.866 -3.13401,-7 -6.999939,-7 -3.8660427,0 -7.0000616,3.134 -7.0000616,7 0,3.866 3.1340189,7 7.0000616,7"
             id="path2-361-5-3"
             inkscape:connector-curvature="0" /><path
             d="m 11.999811,1039.433 3.223,-3.259 c 0.252,-0.255 0.664,-0.257 0.919,0 0.255,0.252 0.258,0.664 0.005,0.919 l -3.232,3.269 3.232,3.269 c 0.253,0.255 0.25,0.667 -0.005,0.919 -0.255,0.253 -0.667,0.25 -0.919,0 l -3.223,-3.258 -3.2220004,3.258 c -0.253,0.255 -0.664,0.258 -0.92,0 -0.255,-0.252 -0.257,-0.664 -0.005,-0.919 l 3.2330004,-3.269 -3.2330004,-3.269 c -0.252,-0.255 -0.25,-0.667 0.005,-0.919 0.256,-0.252 0.667,-0.25 0.92,0 z"
             id="path1-3"
             style="clip-rule:evenodd;display:inline;fill-rule:evenodd;stroke-linejoin:round;stroke-miterlimit:2;enable-background:new;fill:#dfdfdf;fill-opacity:1" /></g></g></g><g
       transform="translate(-288.10682,1261.6974)"
       style="display:inline"
       id="pressed-center"
       inkscape:label="#pressed-center"><rect
         style="opacity:0;fill:#000000;fill-opacity:1;stroke:none;stroke-width:0.47432083;stroke-linejoin:miter;stroke-miterlimit:4;stroke-dasharray:none;stroke-opacity:1;paint-order:markers stroke fill"
         id="rect1586-93-9"
         width="16"
         height="16"
         x="293"
         y="-190.63782"
         ry="1.6930764e-05" /><path
         d="m 11.999811,1039.433 3.223,-3.259 c 0.252,-0.255 0.664,-0.257 0.919,0 0.255,0.252 0.258,0.664 0.005,0.919 l -3.232,3.269 3.232,3.269 c 0.253,0.255 0.25,0.667 -0.005,0.919 -0.255,0.253 -0.667,0.25 -0.919,0 l -3.223,-3.258 -3.222,3.258 c -0.253,0.255 -0.664,0.258 -0.92,0 -0.255,-0.252 -0.257,-0.664 -0.005,-0.919 l 3.233,-3.269 -3.233,-3.269 c -0.252,-0.255 -0.25,-0.667 0.005,-0.919 0.256,-0.252 0.667,-0.25 0.92,0 z"
         id="path1-2"
         style="display:inline;enable-background:new;clip-rule:evenodd;fill-rule:evenodd;stroke-linejoin:round;stroke-miterlimit:2;fill:#0076bb;fill-opacity:1"
         transform="translate(289,-1223)" /></g><g
       transform="translate(-288.71495,1319.1693)"
       style="display:inline"
       id="hover-center"
       inkscape:label="#hover-center"><rect
         ry="1.6930764e-05"
         y="-216.63782"
         x="293"
         height="16"
         width="16"
         id="rect1577-8-3"
         style="opacity:0;fill:#000000;fill-opacity:1;stroke:none;stroke-width:0.47432083;stroke-linejoin:miter;stroke-miterlimit:4;stroke-dasharray:none;stroke-opacity:1;paint-order:markers stroke fill" /><path
         d="m 11.999811,1039.433 3.223,-3.259 c 0.252,-0.255 0.664,-0.257 0.919,0 0.255,0.252 0.258,0.664 0.005,0.919 l -3.232,3.269 3.232,3.269 c 0.253,0.255 0.25,0.667 -0.005,0.919 -0.255,0.253 -0.667,0.25 -0.919,0 l -3.223,-3.258 -3.2220002,3.258 c -0.253,0.255 -0.664,0.258 -0.92,0 -0.255,-0.252 -0.257,-0.664 -0.005,-0.919 l 3.2330002,-3.269 -3.2330002,-3.269 c -0.252,-0.255 -0.25,-0.667 0.005,-0.919 0.256,-0.252 0.667,-0.25 0.92,0 z"
         id="path1"
         style="display:inline;enable-background:new;clip-rule:evenodd;fill-rule:evenodd;stroke-linejoin:round;stroke-miterlimit:2;fill:#0076bb;fill-opacity:1"
         transform="translate(289,-1249)" /></g><use
       x="0"
       y="0"
       xlink:href="#inactive-center"
       id="deactivated-center"
       transform="translate(-0.21337223,-26.948412)"
       width="100%"
       height="100%" /><g
       inkscape:label="#hover-inactive-center"
       id="hover-inactive-center"
       style="display:inline"
       transform="translate(-256.73259,1293.5618)"><rect
         ry="1.6930764e-05"
         y="-190.63782"
         x="293"
         height="16"
         width="16"
         id="rect854"
         style="opacity:0;fill:#000000;fill-opacity:1;stroke:none;stroke-width:0.47432083;stroke-linejoin:miter;stroke-miterlimit:4;stroke-dasharray:none;stroke-opacity:1;paint-order:markers stroke fill" /><g
         style="enable-background:new"
         id="g864"
         transform="translate(294,-189.63782)"
         inkscape:label="#g853"><g
           id="g862"
           transform="translate(-4.9999997,-1033.3622)"><path
             d="m 11.987759,1039.4033 3.223,-3.259 c 0.252,-0.255 0.664,-0.257 0.919,0 0.255,0.252 0.258,0.664 0.005,0.919 l -3.232,3.269 3.232,3.269 c 0.253,0.255 0.25,0.667 -0.005,0.919 -0.255,0.253 -0.667,0.25 -0.919,0 l -3.223,-3.258 -3.2220002,3.258 c -0.253,0.255 -0.664,0.258 -0.92,0 -0.255,-0.252 -0.257,-0.664 -0.005,-0.919 l 3.2330002,-3.269 -3.2330002,-3.269 c -0.252,-0.255 -0.25,-0.667 0.005,-0.919 0.256,-0.252 0.667,-0.25 0.92,0 z"
             id="path1-2-0"
             style="clip-rule:evenodd;display:inline;fill-rule:evenodd;stroke-linejoin:round;stroke-miterlimit:2;enable-background:new;fill:#2a2a2a;fill-opacity:1" /></g></g></g><use
       height="100%"
       width="100%"
       transform="translate(28.709752,-26.948412)"
       id="deactivated-inactive-center"
       xlink:href="#inactive-center"
       y="0"
       x="0" /></g></svg>
