<?xml version="1.0" encoding="UTF-8" standalone="no"?>
<svg
   width="355"
   height="310"
   id="svg3642"
   sodipodi:version="0.32"
   inkscape:version="1.3 (0e150ed6c4, 2023-07-21)"
   sodipodi:docname="decoration.svg"
   inkscape:output_extension="org.inkscape.output.svg.inkscape"
   version="1.0"
   inkscape:export-filename="/home/diau/svn/playground-plasma/desktoptheme/air/widgets/background.png"
   inkscape:export-xdpi="90"
   inkscape:export-ydpi="90"
   xmlns:inkscape="http://www.inkscape.org/namespaces/inkscape"
   xmlns:sodipodi="http://sodipodi.sourceforge.net/DTD/sodipodi-0.dtd"
   xmlns:xlink="http://www.w3.org/1999/xlink"
   xmlns="http://www.w3.org/2000/svg"
   xmlns:svg="http://www.w3.org/2000/svg">
  <sodipodi:namedview
     id="base"
     pagecolor="#585858"
     bordercolor="#666666"
     borderopacity="1.0"
     inkscape:pageopacity="1"
     inkscape:pageshadow="2"
     inkscape:zoom="1.4142136"
     inkscape:cx="354.96759"
     inkscape:cy="95.812964"
     inkscape:current-layer="layer1"
     showgrid="true"
     inkscape:grid-bbox="true"
     inkscape:document-units="px"
     inkscape:window-width="2194"
     inkscape:window-height="1211"
     inkscape:window-x="-8"
     inkscape:window-y="-8"
     width="48px"
     height="48px"
     showguides="true"
     inkscape:guide-bbox="true"
     objecttolerance="9"
     gridtolerance="13"
     inkscape:window-maximized="1"
     inkscape:snap-global="true"
     inkscape:snap-bbox="true"
     inkscape:bbox-nodes="true"
     inkscape:bbox-paths="true"
     inkscape:snap-bbox-edge-midpoints="true"
     inkscape:snap-midpoints="true"
     inkscape:snap-smooth-nodes="true"
     inkscape:snap-intersection-paths="true"
     inkscape:object-paths="true"
     inkscape:snap-nodes="true"
     inkscape:document-rotation="0"
     inkscape:pagecheckerboard="0"
     inkscape:showpageshadow="2"
     inkscape:deskcolor="#585858">
    <inkscape:grid
       type="xygrid"
       id="grid2555"
       enabled="true"
       visible="true"
       empspacing="5"
       snapvisiblegridlinesonly="true"
       color="#8f8fff"
       opacity="0.1254902"
       empcolor="#6decff"
       empopacity="0.25098039"
       originx="0"
       originy="0"
       spacingy="1"
       spacingx="1"
       units="px" />
  </sodipodi:namedview>
  <defs
     id="defs3644">
    <linearGradient
       id="shadow_active">
      <stop
         id="stop7028"
         offset="0"
         style="stop-color:#000000;stop-opacity:0.92168677;" />
      <stop
         id="stop7026"
         offset="0.125"
         style="stop-color:#000000;stop-opacity:0.74096388;" />
      <stop
         id="stop6834"
         offset="0.25"
         style="stop-color:#000000;stop-opacity:0.60240966;" />
      <stop
         id="stop6832"
         offset="0.5"
         style="stop-color:#000000;stop-opacity:0.33132529;" />
      <stop
         style="stop-color:#000000;stop-opacity:0.10843374;"
         offset="0.75"
         id="stop6836" />
      <stop
         id="stop6894"
         offset="0.875"
         style="stop-color:#000000;stop-opacity:0.03921569;" />
      <stop
         id="stop6721"
         offset="1"
         style="stop-color:#000000;stop-opacity:0;" />
    </linearGradient>
    <linearGradient
       inkscape:collect="always"
       xlink:href="#shadow_active"
       id="linearGradient5688"
       gradientUnits="userSpaceOnUse"
       gradientTransform="matrix(1,0,0,1.0117647,0,137.2353)"
       x1="398"
       y1="138.13953"
       x2="398"
       y2="221.16278" />
    <linearGradient
       inkscape:collect="always"
       xlink:href="#shadow_active"
       id="linearGradient6612"
       gradientUnits="userSpaceOnUse"
       gradientTransform="matrix(1,0,0,1.0285694,-215,50.00005)"
       x1="396"
       y1="64.166748"
       x2="396"
       y2="14.583314" />
    <linearGradient
       inkscape:collect="always"
       xlink:href="#shadow_inactive"
       id="linearGradient5688-2"
       gradientUnits="userSpaceOnUse"
       gradientTransform="matrix(1,0,0,1.0117647,0,137.15731)"
       x1="398"
       y1="138.13954"
       x2="398"
       y2="171.74419" />
    <linearGradient
       id="shadow_inactive">
      <stop
         style="stop-color:#000000;stop-opacity:1;"
         offset="0"
         id="stop6719-25" />
      <stop
         id="stop6834-1"
         offset="0.25"
         style="stop-color:#000000;stop-opacity:0.63855422;" />
      <stop
         id="stop6832-0"
         offset="0.5"
         style="stop-color:#000000;stop-opacity:0.33734939;" />
      <stop
         style="stop-color:#000000;stop-opacity:0.10843374;"
         offset="0.75"
         id="stop6836-0" />
      <stop
         id="stop6894-7"
         offset="0.875"
         style="stop-color:#000000;stop-opacity:0.03921569;" />
      <stop
         id="stop6721-4"
         offset="1"
         style="stop-color:#000000;stop-opacity:0;" />
    </linearGradient>
    <linearGradient
       inkscape:collect="always"
       xlink:href="#shadow_inactive"
       id="linearGradient6612-5"
       gradientUnits="userSpaceOnUse"
       gradientTransform="translate(200,5)"
       x1="396"
       y1="66"
       x2="396"
       y2="30" />
    <linearGradient
       inkscape:collect="always"
       xlink:href="#shadow_active"
       id="linearGradient1126"
       gradientUnits="userSpaceOnUse"
       gradientTransform="matrix(1.0133333,0,0,1.0232558,-3.2650058,138.67442)"
       x1="348.49344"
       y1="99"
       x2="279.41449"
       y2="99" />
    <radialGradient
       inkscape:collect="always"
       xlink:href="#shadow_active"
       id="radialGradient1306"
       gradientUnits="userSpaceOnUse"
       gradientTransform="matrix(9.4919759e-7,-2.9142759,4.0000007,1.1504403e-6,-211.66707,980.01628)"
       cx="296.47726"
       cy="80.416679"
       fx="296.47726"
       fy="80.416679"
       r="17.5" />
    <linearGradient
       inkscape:collect="always"
       xlink:href="#shadow_inactive"
       id="linearGradient1389"
       gradientUnits="userSpaceOnUse"
       gradientTransform="matrix(1.0133333,0,0,1,-3.2650058,140)"
       x1="348.49344"
       y1="99.01548"
       x2="304.08554"
       y2="99.01548" />
    <radialGradient
       inkscape:collect="always"
       xlink:href="#shadow_active"
       id="radialGradient965"
       gradientUnits="userSpaceOnUse"
       gradientTransform="matrix(-4.0000019,3.2964352e-6,1.0208917e-6,-4.799999,688.08329,1147.8707)"
       cx="48.27084"
       cy="178.72313"
       fx="48.27084"
       fy="178.72313"
       r="17.5" />
    <radialGradient
       inkscape:collect="always"
       xlink:href="#shadow_inactive"
       id="radialGradient967"
       gradientUnits="userSpaceOnUse"
       gradientTransform="matrix(-2.5714291,8.7200345e-7,-2.0148289e-7,-1.9428564,594.12508,638.00067)"
       cx="48.270844"
       cy="181.17691"
       fx="48.270844"
       fy="181.17691"
       r="17.5" />
    <radialGradient
       inkscape:collect="always"
       xlink:href="#shadow_inactive"
       id="radialGradient969"
       gradientUnits="userSpaceOnUse"
       gradientTransform="matrix(-3.7607938e-7,-2.0571166,2.5714318,-5.1233137e-7,263.21413,725.83432)"
       cx="296.45123"
       cy="80.416672"
       fx="296.45123"
       fy="80.416672"
       r="17.5" />
    <linearGradient
       inkscape:collect="always"
       xlink:href="#shadow_active"
       id="linearGradient968"
       gradientUnits="userSpaceOnUse"
       gradientTransform="matrix(1.0133333,0,0,1,-3.2650058,140)"
       x1="348.49344"
       y1="99"
       x2="279.41449"
       y2="99" />
    <linearGradient
       inkscape:collect="always"
       xlink:href="#shadow_inactive"
       id="linearGradient1012"
       gradientUnits="userSpaceOnUse"
       gradientTransform="matrix(1.0133333,0,0,1,-3.2650058,140)"
       x1="348.49344"
       y1="99.01548"
       x2="304.08554"
       y2="99.01548" />
  </defs>
  <g
     id="layer1"
     transform="translate(0,-90)">
    <g
       id="decoration-inactive-topleft"
       transform="translate(140,-31.063)">
      <path
         id="rect6520-3-2-6"
         style="opacity:0.5;fill:url(#radialGradient969);fill-opacity:1;stroke:none"
         d="m 365,50 v 66 h 76 V 98 c 0,-6.648 5.352,-12 12,-12 h 17 V 50 Z"
         transform="translate(-140,115.063)" />
      <path
         id="rect5073-4-9-6"
         style="fill:#2d2d2d;fill-opacity:1;stroke:none;stroke-width:1"
         d="m 310,201.063 c -5,1e-5 -9,5 -9,10 l 0,19.93555 v 0.0644 h 29 v -30 z"
         sodipodi:nodetypes="ssccccs" />
      <path
         id="path955"
         style="display:inline;opacity:0.05;fill:#ffffff;fill-opacity:1;stroke:none;stroke-width:1"
         d="m 310,201.063 c -5,0 -9,5 -9,10 v 2 c 0,-5 4,-11 9,-11 h 20 v -1 z"
         sodipodi:nodetypes="sscsccs" />
      <path
         id="path202"
         style="display:inline;opacity:0.75;fill:#0a0a0a;fill-opacity:0.627451;stroke:none"
         d="m 450,79 c -5,0 -10,5 -10,11 v 20 h 1 V 90 c 0,-5 4,-10 9,-10 h 20 v -1 z"
         transform="translate(-140,121.063)"
         sodipodi:nodetypes="ssccssccs" />
    </g>
    <g
       transform="matrix(-1,0,0,1,599.875,3)"
       id="decoration-right">
      <path
         sodipodi:nodetypes="ccccc"
         inkscape:connector-curvature="0"
         id="path960"
         d="m 244.875,197 v 88 h 76 v -88 z"
         style="opacity:0.5;fill:url(#linearGradient968);fill-opacity:1;stroke:none;stroke-width:1.00664" />
      <path
         id="path962"
         style="opacity:0.75;fill:#1b1b1b;fill-opacity:0.705882;stroke:none"
         d="m 284,116 v 88 h 1 v -88 z"
         transform="matrix(-1,0,0,1,604.875,81)"
         sodipodi:nodetypes="ccccc" />
      <path
         transform="translate(-255.125,76)"
         id="path964"
         d="m 576,121 v 88 h 29 v -88 z"
         style="opacity:1;fill:#363636;fill-opacity:1;stroke:none"
         sodipodi:nodetypes="ccccc" />
    </g>
    <g
       id="decoration-bottom"
       transform="translate(-220,9)">
      <path
         style="display:inline;opacity:0.5;fill:url(#linearGradient5688);fill-opacity:1;stroke:none;stroke-width:1.00587"
         d="m 325,289 v 86 h 145 v -86 z"
         id="path6217-8" />
      <path
         id="path6214-7"
         d="M 470,289 H 325 v 1 h 145 z"
         style="opacity:0.75;fill:#232323;fill-opacity:1;stroke:none;stroke-width:0.413845"
         inkscape:connector-curvature="0" />
      <path
         id="path6211-7"
         d="M 470,279 H 325 v 10 h 145 z"
         style="opacity:1;fill:#1f1f1f;fill-opacity:0.8392157;stroke:none;stroke-width:1.41421"
         sodipodi:nodetypes="ccccc" />
    </g>
    <path
       style="opacity:1;fill:#363636;fill-opacity:1;stroke:none"
       d="m 105,200 v 88 h 145 v -88 z"
       id="decoration-center"
       sodipodi:nodetypes="ccccc" />
    <g
       id="decoration-top"
       transform="translate(-220,-5.99995)">
      <path
         id="path6055-5"
         style="opacity:0.5;fill:url(#linearGradient6612);fill-opacity:1;stroke:none;stroke-width:1.01418"
         d="M 110,50 V 86 H 255 V 50 Z"
         transform="translate(215,89.99995)" />
      <path
         id="path6098-4"
         style="opacity:0.75;fill:#131313;fill-opacity:0.53725493;stroke:none"
         d="m 110,85 v 1 h 145 v -1 z"
         transform="translate(215,89.99995)" />
      <path
         style="opacity:1;fill:#363636;fill-opacity:1;stroke:none;stroke-width:1"
         d="m 325,175.99994 v 30.00002 h 145 v -30.00002 z"
         id="path6092-3" />
      <path
         sodipodi:nodetypes="ccccc"
         inkscape:connector-curvature="0"
         id="path966"
         d="m 325,175.99994 v 1.00001 h 145 v -1.00001 z"
         style="opacity:0.1;fill:#ffffff;fill-opacity:1;stroke:none;stroke-width:0.182575" />
    </g>
    <g
       id="decoration-left"
       transform="translate(-244.875,3)">
      <path
         style="opacity:0.5;fill:url(#linearGradient1126);fill-opacity:1;stroke:none;stroke-width:1.01828"
         d="m 244.875,197 v 88 h 76 v -88 z"
         id="path6345-1" />
      <path
         id="path6342-6"
         style="opacity:0.75;fill:#111111;fill-opacity:0.580392;stroke:none;stroke-width:1.01156"
         d="m 319.875,197 v 88 h 1 v -88 z" />
      <path
         style="opacity:1;fill:#363636;fill-opacity:1;stroke:none;stroke-width:1.01156"
         d="m 320.875,197 v 88 h 29 v -88 z"
         id="path6339-9" />
    </g>
    <g
       id="decoration-inactive-bottom"
       transform="translate(145,9.07798)">
      <path
         style="opacity:0.5;fill:url(#linearGradient5688-2);fill-opacity:1;stroke:none;stroke-width:1.0058651"
         d="m 325,288.92202 v 86 h 145 v -86 z"
         id="path6217-8-2" />
      <path
         id="path6214-7-4"
         d="M 470,288.92202 H 325 v 1 h 145 z"
         style="opacity:0.75;fill:#0a0a0a;fill-opacity:0.627451;stroke:none;stroke-width:0.39242497"
         inkscape:connector-curvature="0" />
      <path
         id="path6211-7-5"
         d="M 470,278.92202 H 325 v 10 h 145 z"
         style="opacity:1;fill:#070707;fill-opacity:0.60000002;stroke:none;stroke-width:1.41421"
         sodipodi:nodetypes="ccccc" />
    </g>
    <path
       style="opacity:1;fill:#2d2d2d;fill-opacity:1;stroke:none"
       d="m 470,200 v 88 h 145 v -88 z"
       id="decoration-inactive-center"
       sodipodi:nodetypes="ccccc" />
    <g
       id="decoration-inactive-top"
       transform="translate(145,-6)">
      <path
         style="opacity:0.5;fill:url(#linearGradient6612-5);fill-opacity:1;stroke:none"
         d="M 525,5 V 41 H 670 V 5 Z"
         transform="translate(-200,135)"
         id="path6055-5-5"
         inkscape:connector-curvature="0"
         sodipodi:nodetypes="ccccc" />
      <path
         transform="translate(-145,90)"
         d="m 470,85 v 1 h 145 v -1 z"
         style="opacity:0.75;fill:#0a0a0a;fill-opacity:0.627451;stroke:none"
         id="path6098-4-8" />
      <path
         style="opacity:1;fill:#2d2d2d;fill-opacity:1;stroke:none;stroke-width:1"
         d="m 325,176 v 30 h 145 v -30 z"
         id="path6092-3-3" />
      <path
         style="opacity:0.05;fill:#ffffff;fill-opacity:1;stroke:none;stroke-width:0.182574"
         d="m 325,176 v 1 h 145 v -1 z"
         id="path996"
         inkscape:connector-curvature="0"
         sodipodi:nodetypes="ccccc" />
    </g>
    <g
       id="decoration-inactive-left"
       transform="translate(120.125,2.98452)">
      <path
         style="opacity:0.5;fill:url(#linearGradient1389);fill-opacity:1;stroke:none;stroke-width:1.00664"
         d="m 244.875,197.01548 v 88.0155 l 76,-0.0155 v -88.00002 z"
         id="path6345-1-1"
         sodipodi:nodetypes="ccccc" />
      <path
         id="path6342-6-6"
         d="m 319.875,197.01548 v 88 h 1 v -88 z"
         style="opacity:0.75;fill:#0a0a0a;fill-opacity:0.627451;stroke:none;stroke-width:0.447214"
         inkscape:connector-curvature="0"
         sodipodi:nodetypes="ccccc" />
      <path
         style="opacity:1;fill:#2d2d2d;fill-opacity:1;stroke:none"
         d="m 320.875,197.01548 v 88 h 29 v -88 z"
         id="path6339-9-9"
         sodipodi:nodetypes="ccccc" />
    </g>
    <g
       transform="translate(-390,-4.000015)"
       id="decoration-bottomleft"
       style="display:inline">
      <path
         id="rect7023-1"
         style="display:inline;opacity:1;fill:#1f1f1f;fill-opacity:0.8392157;stroke:none"
         d="m 81,198 c 0,5 5,10 10,10 h 19 v -10 z"
         transform="translate(385,94.000015)"
         sodipodi:nodetypes="csccc" />
      <path
         id="rect5099-9-5"
         style="display:inline;opacity:0.5;fill:url(#radialGradient965);fill-opacity:1;stroke:none"
         d="m 390,292.00002 v 95.99999 h 105 v -86 l -19,0 c -5,0 -10,-4.99999 -10,-9.99999 z"
         sodipodi:nodetypes="ccccscc" />
      <path
         id="path168"
         style="display:inline;opacity:0.75;fill:#1f1f1f;fill-opacity:0.839216;stroke:none"
         d="m 465,292.00002 c 0,5.99999 6,10.99999 11,10.99999 h 19 v -1 h -19 c -5,0 -10,-4.99999 -10,-9.99999 z"
         sodipodi:nodetypes="csccscc" />
    </g>
    <g
       id="decoration-inactive-bottomleft">
      <path
         id="path4207"
         style="display:inline;opacity:1;fill:#070707;fill-opacity:0.60000002;stroke:none;stroke-width:1.41421"
         d="m 441,198 c 0,6 4,10 10,10 h 16 3 v -10 z"
         transform="translate(0,90)"
         sodipodi:nodetypes="cscccc" />
      <path
         id="rect5099-9-6"
         style="display:inline;opacity:0.5;fill:url(#radialGradient967);fill-opacity:1;stroke:none"
         d="m 365,288 v 96 h 105 v -86 h -3 -16 c -5,0 -10,-3.35201 -10,-10 z"
         sodipodi:nodetypes="cccccscc" />
      <path
         id="path188"
         style="display:inline;opacity:0.75;fill:#0a0a0a;fill-opacity:0.627451;stroke:none"
         d="m 440,288 c 0,6 4,11 11,11 h 16 l 3,-2e-5 V 298 h -3 -16 c -6,0 -10,-4 -10,-10 z"
         sodipodi:nodetypes="csccccscc" />
    </g>
    <rect
       style="opacity:1;fill:#ff00ff;fill-opacity:1;stroke:none;stroke-width:0.447214"
       id="shadow-hint-top-margin"
       width="4"
       height="35.999897"
       x="169"
       y="134.00005" />
    <rect
       style="opacity:1;fill:#ff00ff;fill-opacity:1;stroke:none;stroke-width:1.18322"
       id="shadow-hint-bottom-margin"
       width="4"
       height="85.999969"
       x="170"
       y="298.00003" />
    <rect
       style="opacity:1;fill:#ff00ff;fill-opacity:1;stroke:none;stroke-width:0.707107"
       id="shadow-hint-right-margin"
       width="76"
       height="4"
       x="279"
       y="230" />
    <rect
       style="opacity:1;fill:#ff00ff;fill-opacity:1;stroke:none;stroke-width:0.707107"
       id="shadow-hint-left-margin"
       width="76"
       height="4"
       x="0"
       y="224" />
    <rect
       id="hint-top-margin"
       width="4"
       height="66"
       x="181"
       y="134"
       style="fill:#00ff29;fill-opacity:1;stroke:none;stroke-width:1.08465" />
    <rect
       id="hint-bottom-margin"
       width="4"
       height="97.999992"
       x="182"
       y="286"
       style="fill:#00ff29;fill-opacity:1;stroke:none;stroke-width:1.11946" />
    <rect
       id="hint-right-margin"
       width="4"
       height="105"
       x="219"
       y="-355"
       transform="rotate(90)"
       style="fill:#00ff29;fill-opacity:1;stroke:none;stroke-width:1.08465" />
    <rect
       id="hint-left-margin"
       width="4"
       height="105"
       x="216"
       y="-105"
       transform="rotate(90)"
       style="fill:#00ff29;fill-opacity:1;stroke:none;stroke-width:1.0853" />
    <g
       transform="matrix(-1,0,0,1,530,-31.0625)"
       id="decoration-topleft">
      <path
         id="path1019"
         style="display:inline;opacity:0.5;fill:url(#radialGradient1306);fill-opacity:1;stroke:none"
         d="m 5,50 v 66 H 81 V 96 c 0,-5 4,-10 9,-10 h 20 V 50 Z"
         transform="matrix(-1,0,0,1,535,115.0625)"
         sodipodi:nodetypes="cccssccc" />
      <path
         id="path1023"
         style="display:inline;fill:#363636;fill-opacity:1;stroke:none;stroke-width:1"
         d="m 445,201.0625 c 5,0 9,5 9,10 v 20 h -29 v -30 z"
         sodipodi:nodetypes="sscccs" />
      <path
         d="m 445,201.0625 c 5,0 9,5 9,10 v 2.59961 c 0,-6.4264 -3.352,-11.59961 -10,-11.59961 h -19 v -1 z"
         style="display:inline;opacity:0.1;fill:#ffffff;fill-opacity:1;stroke:none;stroke-width:1"
         id="path961"
         sodipodi:nodetypes="sscsccs" />
      <path
         id="path187"
         style="display:inline;opacity:0.75;fill:#161616;fill-opacity:0.627451;stroke:none"
         d="m 90,85 c -6,0 -10,5 -10,11 v 20 h 1 V 96 c 0,-5 4,-10 9,-10 h 20 v -1 z"
         transform="matrix(-1,0,0,1,535,115.0625)"
         sodipodi:nodetypes="ssccssccs" />
    </g>
    <g
       transform="matrix(-1,0,0,1,964.875,2.98452)"
       id="decoration-inactive-right">
      <path
         id="path1004"
         d="m 244.875,197.01548 v 88.0155 l 76,-0.0155 v -88.00002 z"
         style="opacity:0.5;fill:url(#linearGradient1012);fill-opacity:1;stroke:none;stroke-width:1.00664"
         sodipodi:nodetypes="ccccc" />
      <path
         style="opacity:0.75;fill:#0a0a0a;fill-opacity:0.627451;stroke:none;stroke-width:0.447214"
         d="m 319.875,197.01548 v 88 h 1 v -88 z"
         id="path1006"
         sodipodi:nodetypes="ccccc" />
      <path
         id="path1008"
         d="m 320.875,197.01548 v 88 h 29 v -88 z"
         style="opacity:1;fill:#2d2d2d;fill-opacity:1;stroke:none"
         sodipodi:nodetypes="ccccc" />
    </g>
    <use
       x="0"
       y="0"
       xlink:href="#decoration-topleft"
       id="decoration-topright"
       transform="matrix(-1,0,0,1,355,0)"
       width="100%"
       height="100%" />
    <use
       x="0"
       y="0"
       xlink:href="#decoration-inactive-topleft"
       id="decoration-inactive-topright"
       transform="matrix(-1,0,0,1,1085,0)"
       width="100%"
       height="100%" />
    <use
       x="0"
       y="0"
       xlink:href="#decoration-bottomleft"
       id="decoration-bottomright"
       transform="matrix(-1,0,0,1,355,0)"
       width="100%"
       height="100%" />
    <use
       x="0"
       y="0"
       xlink:href="#decoration-inactive-bottomleft"
       id="decoration-inactive-bottomright"
       transform="matrix(-1,0,0,1,1085,0)"
       width="100%"
       height="100%" />
    <g
       transform="translate(534.23912,-31.063)"
       id="mask-topleft">
      <path
         id="path957"
         d="m 365,50 v 66 h 76 V 98 c 0,-6.648 5.352,-12 12,-12 h 17 V 50 Z"
         transform="translate(-140,115.063)"
         style="fill:none" />
      <path
         d="m 310.76088,201.063 c -5,1e-5 -9.76088,5 -9.76088,10 l 0,19.93555 v 0.0644 h 29 v -30 z"
         id="path1101"
         sodipodi:nodetypes="ssccccs" />
    </g>
    <g
       id="mask-bottom"
       transform="translate(539.23912,9.07798)">
      <path
         d="m 325,288.92202 v 86 h 145 v -86 z"
         id="path975"
         style="fill:none" />
      <path
         id="path979"
         d="M 470,278.92202 H 325 v 10 h 145 z"
         sodipodi:nodetypes="ccccc" />
    </g>
    <g
       id="mask-center">
      <path
         d="m 864.23912,200 v 88 h 144.99998 v -88 z"
         id="path983"
         sodipodi:nodetypes="ccccc" />
    </g>
    <g
       id="mask-top"
       transform="translate(539.23912,-6)">
      <path
         d="M 525,5 V 41 H 670 V 5 Z"
         transform="translate(-200,135)"
         id="path985"
         style="fill:none" />
      <path
         d="m 325,176 v 30 h 145 v -30 z"
         id="path989" />
    </g>
    <g
       id="mask-left"
       transform="translate(514.36412,2.98452)">
      <path
         d="m 244.875,197.01548 v 86 l 76,-0.0155 v -85.98452 z"
         id="path995"
         style="fill:none" />
      <path
         d="m 320.875,197.01548 v 88 h 29 v -88 z"
         id="path999"
         sodipodi:nodetypes="ccccc" />
    </g>
    <g
       id="mask-bottomleft"
       transform="translate(394.23912)">
      <path
         id="path1003"
         d="m 441,198 c 0,5 4.76088,10 9.76088,10 H 467 h 3 v -10 z"
         transform="translate(0,90)"
         sodipodi:nodetypes="cscccc" />
      <path
         id="path1005"
         d="m 365,288 v 96 h 105 v -86 h -3 -14 c -6.648,0 -12,-3.35201 -12,-10 z"
         style="fill:none"
         sodipodi:nodetypes="cccccscc" />
    </g>
    <use
       x="0"
       y="0"
       xlink:href="#mask-topleft"
       id="mask-topright"
       transform="matrix(-1,0,0,1,1873.4782,0)"
       width="100%"
       height="100%" />
    <use
       x="0"
       y="0"
       xlink:href="#mask-bottomleft"
       id="mask-bottomright"
       transform="matrix(-1,0,0,1,1873.4782,0)"
       width="100%"
       height="100%" />
    <use
       x="0"
       y="0"
       xlink:href="#mask-left"
       id="mask-right"
       transform="matrix(-1,0,0,1,1873.4782,0)"
       width="100%"
       height="100%" />
  </g>
</svg>
